<?xml version="1.0" encoding="UTF-8"?>
<!-- Generator: visioncortex VTracer 0.6.12 -->
<svg version="1.1" xmlns="http://www.w3.org/2000/svg" width="256" height="256">
<path d="M0 0 C0.44 -0.001 0.44 -0.001 2.666 -0.009 C5.62 -0.018 8.574 -0.019 11.528 -0.021 C13.644 -0.025 15.759 -0.03 17.875 -0.036 C23.627 -0.049 29.379 -0.055 35.131 -0.06 C38.725 -0.063 42.318 -0.067 45.912 -0.071 C57.154 -0.085 68.397 -0.095 79.64 -0.098 C92.619 -0.103 105.598 -0.12 118.577 -0.149 C128.608 -0.171 138.64 -0.181 148.671 -0.182 C154.663 -0.184 160.655 -0.189 166.647 -0.207 C172.284 -0.224 177.921 -0.226 183.558 -0.217 C185.625 -0.216 187.693 -0.221 189.76 -0.231 C192.586 -0.243 195.411 -0.237 198.237 -0.227 C198.645 -0.231 198.645 -0.231 200.705 -0.251 C208.211 -0.187 214.912 1.68 220.373 7.14 C223.911 13.206 224.521 18.099 224.513 25.022 C224.516 25.822 224.519 26.621 224.522 27.445 C224.531 30.127 224.532 32.809 224.534 35.492 C224.538 37.413 224.543 39.335 224.549 41.257 C224.562 46.48 224.568 51.703 224.573 56.927 C224.576 60.189 224.58 63.452 224.584 66.714 C224.598 76.92 224.608 87.125 224.612 97.331 C224.616 109.116 224.634 120.901 224.663 132.686 C224.684 141.793 224.694 150.901 224.696 160.008 C224.697 165.449 224.703 170.889 224.72 176.33 C224.737 181.447 224.739 186.563 224.73 191.68 C224.729 193.558 224.734 195.436 224.744 197.313 C224.756 199.878 224.751 202.441 224.74 205.005 C224.744 205.376 224.744 205.376 224.765 207.255 C224.704 213.654 222.637 218.151 218.298 222.762 C217.717 223.384 217.135 224.006 216.536 224.648 C216.23 224.966 216.23 224.966 214.685 226.578 C214.06 227.238 213.435 227.898 212.792 228.578 C199.936 242.038 199.936 242.038 194.098 242.272 C192.655 242.28 191.212 242.283 189.77 242.281 C189.373 242.282 189.373 242.282 187.364 242.29 C184.69 242.299 182.015 242.3 179.34 242.302 C177.429 242.306 175.517 242.311 173.605 242.317 C168.401 242.33 163.196 242.336 157.991 242.341 C154.741 242.344 151.491 242.348 148.241 242.352 C138.077 242.366 127.913 242.375 117.749 242.379 C106.008 242.384 94.266 242.401 82.525 242.43 C73.456 242.452 64.387 242.462 55.317 242.463 C49.898 242.464 44.478 242.47 39.059 242.488 C33.96 242.505 28.862 242.507 23.763 242.498 C21.892 242.497 20.02 242.502 18.149 242.512 C15.594 242.524 13.039 242.518 10.484 242.508 C10.114 242.512 10.114 242.512 8.242 242.532 C1.14 242.465 -3.138 239.988 -8.067 235.016 C-8.561 234.5 -9.056 233.984 -9.565 233.453 C-10.086 232.919 -10.606 232.385 -11.143 231.835 C-12.649 230.281 -14.141 228.714 -15.627 227.14 C-16.362 226.363 -17.097 225.586 -17.854 224.785 C-23.456 218.622 -26.085 213.527 -26.008 205.032 C-26.013 204.232 -26.018 203.432 -26.023 202.608 C-26.034 199.937 -26.025 197.266 -26.016 194.594 C-26.02 192.675 -26.025 190.756 -26.031 188.837 C-26.045 183.631 -26.04 178.424 -26.03 173.217 C-26.023 167.765 -26.03 162.313 -26.035 156.861 C-26.04 147.703 -26.033 138.545 -26.018 129.387 C-26.002 118.807 -26.007 108.227 -26.024 97.646 C-26.038 88.557 -26.04 79.469 -26.032 70.38 C-26.027 64.953 -26.026 59.527 -26.036 54.101 C-26.045 48.998 -26.039 43.894 -26.022 38.79 C-26.018 36.92 -26.019 35.049 -26.025 33.179 C-26.034 30.62 -26.023 28.062 -26.008 25.503 C-26.015 24.768 -26.022 24.033 -26.029 23.275 C-25.947 16.006 -23.884 9.397 -18.627 4.14 C-12.339 0.472 -7.168 -0.008 0 0 Z " fill="#2B2B2B" transform="translate(28.62738037109375,6.85955810546875)"/>
<path d="M0 0 C0.44 -0.001 0.44 -0.001 2.666 -0.009 C5.62 -0.018 8.574 -0.019 11.528 -0.021 C13.644 -0.025 15.759 -0.03 17.875 -0.036 C23.627 -0.049 29.379 -0.055 35.131 -0.06 C38.725 -0.063 42.318 -0.067 45.912 -0.071 C57.154 -0.085 68.397 -0.095 79.64 -0.098 C92.619 -0.103 105.598 -0.12 118.577 -0.149 C128.608 -0.171 138.64 -0.181 148.671 -0.182 C154.663 -0.184 160.655 -0.189 166.647 -0.207 C172.284 -0.224 177.921 -0.226 183.558 -0.217 C185.625 -0.216 187.693 -0.221 189.76 -0.231 C192.586 -0.243 195.411 -0.237 198.237 -0.227 C198.645 -0.231 198.645 -0.231 200.705 -0.251 C208.211 -0.187 214.912 1.68 220.373 7.14 C223.911 13.206 224.521 18.099 224.513 25.022 C224.516 25.822 224.519 26.621 224.522 27.445 C224.531 30.127 224.532 32.809 224.534 35.492 C224.538 37.413 224.543 39.335 224.549 41.257 C224.562 46.48 224.568 51.703 224.573 56.927 C224.576 60.189 224.58 63.452 224.584 66.714 C224.598 76.92 224.608 87.125 224.612 97.331 C224.616 109.116 224.634 120.901 224.663 132.686 C224.684 141.793 224.694 150.901 224.696 160.008 C224.697 165.449 224.703 170.889 224.72 176.33 C224.737 181.447 224.739 186.563 224.73 191.68 C224.729 193.558 224.734 195.436 224.744 197.313 C224.756 199.878 224.751 202.441 224.74 205.005 C224.744 205.376 224.744 205.376 224.765 207.255 C224.704 213.654 222.637 218.151 218.298 222.762 C217.717 223.384 217.135 224.006 216.536 224.648 C216.23 224.966 216.23 224.966 214.685 226.578 C214.06 227.238 213.435 227.898 212.792 228.578 C199.936 242.038 199.936 242.038 194.098 242.272 C192.655 242.28 191.212 242.283 189.77 242.281 C189.373 242.282 189.373 242.282 187.364 242.29 C184.69 242.299 182.015 242.3 179.34 242.302 C177.429 242.306 175.517 242.311 173.605 242.317 C168.401 242.33 163.196 242.336 157.991 242.341 C154.741 242.344 151.491 242.348 148.241 242.352 C138.077 242.366 127.913 242.375 117.749 242.379 C106.008 242.384 94.266 242.401 82.525 242.43 C73.456 242.452 64.387 242.462 55.317 242.463 C49.898 242.464 44.478 242.47 39.059 242.488 C33.96 242.505 28.862 242.507 23.763 242.498 C21.892 242.497 20.02 242.502 18.149 242.512 C15.594 242.524 13.039 242.518 10.484 242.508 C10.114 242.512 10.114 242.512 8.242 242.532 C1.14 242.465 -3.138 239.988 -8.067 235.016 C-8.561 234.5 -9.056 233.984 -9.565 233.453 C-10.086 232.919 -10.606 232.385 -11.143 231.835 C-12.649 230.281 -14.141 228.714 -15.627 227.14 C-16.362 226.363 -17.097 225.586 -17.854 224.785 C-23.456 218.622 -26.085 213.527 -26.008 205.032 C-26.013 204.232 -26.018 203.432 -26.023 202.608 C-26.034 199.937 -26.025 197.266 -26.016 194.594 C-26.02 192.675 -26.025 190.756 -26.031 188.837 C-26.045 183.631 -26.04 178.424 -26.03 173.217 C-26.023 167.765 -26.03 162.313 -26.035 156.861 C-26.04 147.703 -26.033 138.545 -26.018 129.387 C-26.002 118.807 -26.007 108.227 -26.024 97.646 C-26.038 88.557 -26.04 79.469 -26.032 70.38 C-26.027 64.953 -26.026 59.527 -26.036 54.101 C-26.045 48.998 -26.039 43.894 -26.022 38.79 C-26.018 36.92 -26.019 35.049 -26.025 33.179 C-26.034 30.62 -26.023 28.062 -26.008 25.503 C-26.015 24.768 -26.022 24.033 -26.029 23.275 C-25.947 16.006 -23.884 9.397 -18.627 4.14 C-12.339 0.472 -7.168 -0.008 0 0 Z M-15.627 14.14 C-15.957 14.47 -16.287 14.8 -16.627 15.14 C-16.745 17.674 -16.797 20.182 -16.808 22.717 C-16.815 23.52 -16.823 24.323 -16.83 25.15 C-16.853 27.863 -16.868 30.575 -16.884 33.287 C-16.898 35.223 -16.913 37.159 -16.928 39.096 C-17.058 56.798 -17.124 74.501 -17.176 92.204 C-17.215 105.293 -17.283 118.382 -17.39 131.471 C-17.463 140.669 -17.502 149.867 -17.515 159.066 C-17.524 164.561 -17.548 170.056 -17.61 175.551 C-17.667 180.725 -17.681 185.898 -17.664 191.073 C-17.665 192.969 -17.681 194.865 -17.714 196.761 C-17.95 211.075 -17.95 211.075 -14.69 216.167 C-12.453 218.417 -10.167 220.248 -7.627 222.14 C-6.302 223.568 -5.004 225.023 -3.752 226.515 C-2.718 227.73 -1.677 228.939 -0.627 230.14 C-0.259 230.662 0.109 231.184 0.488 231.722 C3.41 233.922 6.514 233.578 10.031 233.568 C10.819 233.578 11.607 233.588 12.418 233.598 C15.067 233.626 17.715 233.633 20.363 233.64 C22.259 233.655 24.154 233.672 26.05 233.69 C31.207 233.733 36.364 233.757 41.522 233.774 C44.745 233.785 47.968 233.799 51.191 233.814 C61.278 233.861 71.365 233.894 81.453 233.91 C93.091 233.929 104.729 233.991 116.367 234.089 C125.365 234.162 134.363 234.197 143.361 234.203 C148.734 234.208 154.106 234.228 159.479 234.289 C164.538 234.346 169.595 234.354 174.655 234.326 C176.506 234.324 178.358 234.339 180.21 234.373 C194.15 234.611 194.15 234.611 199.618 230.993 C202.148 228.501 204.263 225.991 206.373 223.14 C207.695 221.631 209.027 220.129 210.373 218.64 C210.909 218.011 211.445 217.382 211.998 216.734 C213.071 215.49 214.211 214.302 215.373 213.14 C215.577 210.531 215.655 208.028 215.647 205.417 C215.652 204.61 215.657 203.803 215.663 202.972 C215.678 200.254 215.678 197.535 215.679 194.817 C215.687 192.874 215.695 190.931 215.704 188.988 C215.726 183.699 215.735 178.41 215.74 173.12 C215.744 169.818 215.75 166.516 215.757 163.213 C215.782 151.699 215.795 140.184 215.798 128.669 C215.802 117.927 215.832 107.184 215.874 96.442 C215.908 87.227 215.924 78.013 215.924 68.798 C215.925 63.291 215.934 57.784 215.962 52.277 C215.989 47.097 215.991 41.917 215.975 36.737 C215.973 34.835 215.98 32.932 215.996 31.03 C216.016 28.434 216.006 25.841 215.987 23.245 C215.994 22.868 215.994 22.868 216.027 20.959 C215.963 16.94 215.523 15.319 212.897 12.196 C212.064 11.518 211.231 10.839 210.373 10.14 C210.043 9.81 209.713 9.48 209.373 9.14 C206.552 9.031 203.755 8.988 200.934 8.987 C200.038 8.982 199.143 8.978 198.22 8.973 C195.194 8.96 192.169 8.954 189.143 8.948 C186.984 8.94 184.824 8.931 182.665 8.923 C175.552 8.897 168.439 8.881 161.326 8.867 C158.881 8.862 156.437 8.856 153.992 8.851 C143.827 8.829 133.662 8.81 123.496 8.799 C108.907 8.783 94.318 8.75 79.729 8.693 C69.482 8.654 59.236 8.635 48.99 8.629 C42.864 8.626 36.739 8.614 30.614 8.581 C24.852 8.551 19.09 8.545 13.328 8.557 C11.211 8.557 9.095 8.548 6.978 8.531 C4.091 8.508 1.206 8.517 -1.681 8.532 C-2.101 8.525 -2.101 8.525 -4.229 8.49 C-9.746 8.566 -12.049 9.631 -15.627 14.14 Z " fill="#FAFAFA" transform="translate(28.62738037109375,6.85955810546875)"/>
<path d="M0 0 C26.4 0 52.8 0 80 0 C80 2.64 80 5.28 80 8 C82.31 8 84.62 8 87 8 C87 8.33 87 8.66 87 9 C90.63 9.33 94.26 9.66 98 10 C97 14 97 14 95.375 15.688 C92.296 17.389 89.475 17.666 86 18 C86 15.69 86 13.38 86 11 C85.34 11 84.68 11 84 11 C84 13.31 84 15.62 84 18 C83.34 18 82.68 18 82 18 C82 15.69 82 13.38 82 11 C81.34 11 80.68 11 80 11 C80 13.31 80 15.62 80 18 C53.6 18 27.2 18 0 18 C0 15.69 0 13.38 0 11 C-0.66 11 -1.32 11 -2 11 C-2 13.31 -2 15.62 -2 18 C-2.66 18 -3.32 18 -4 18 C-4.33 14.7 -4.66 11.4 -5 8 C-3.35 8 -1.7 8 0 8 C0 5.36 0 2.72 0 0 Z " fill="#242424" transform="translate(88,57)"/>
<path d="M0 0 C0.39 0.06 0.39 0.06 2.363 0.365 C10.468 1.615 18.576 2.85 26.688 4.062 C27.833 4.236 28.978 4.409 30.158 4.588 C42.047 6.362 53.664 7.27 65.688 7.312 C66.423 7.315 67.158 7.318 67.916 7.321 C88.275 7.34 108.4 4.735 128.297 0.418 C131 0 131 0 134 1 C116.587 10.628 95.843 15.412 76 16 C75.263 16.031 74.527 16.062 73.768 16.094 C49.172 17.049 23.131 13.406 1 2 C0.67 1.34 0.34 0.68 0 0 Z " fill="#191919" transform="translate(61,132)"/>
<path d="M0 0 C0.853 0.003 1.706 0.006 2.585 0.009 C3.484 0.008 4.384 0.007 5.31 0.006 C8.347 0.005 11.384 0.01 14.422 0.016 C16.589 0.016 18.757 0.016 20.924 0.015 C26.829 0.015 32.734 0.021 38.639 0.028 C44.802 0.034 50.965 0.035 57.129 0.036 C68.809 0.039 80.489 0.047 92.169 0.057 C105.463 0.068 118.756 0.074 132.05 0.079 C159.404 0.089 186.759 0.107 214.113 0.129 C214.113 0.459 214.113 0.789 214.113 1.129 C212.989 1.13 211.865 1.13 210.707 1.131 C183.374 1.145 156.042 1.188 128.71 1.261 C115.492 1.296 102.275 1.321 89.057 1.325 C77.538 1.328 66.02 1.348 54.501 1.39 C48.401 1.411 42.3 1.424 36.199 1.415 C30.459 1.408 24.72 1.423 18.98 1.457 C16.872 1.465 14.763 1.465 12.654 1.456 C9.778 1.444 6.904 1.463 4.028 1.49 C3.191 1.479 2.353 1.468 1.49 1.458 C-2.568 1.528 -4.458 1.84 -7.904 4.164 C-10.399 7.894 -10.588 10.867 -10.526 15.209 C-10.535 16.018 -10.543 16.827 -10.552 17.66 C-10.574 20.367 -10.56 23.073 -10.547 25.781 C-10.555 27.722 -10.566 29.664 -10.578 31.605 C-10.607 36.876 -10.604 42.146 -10.596 47.416 C-10.593 52.924 -10.618 58.432 -10.64 63.94 C-10.677 74.37 -10.69 84.8 -10.693 95.23 C-10.697 107.104 -10.73 118.978 -10.766 130.852 C-10.838 155.278 -10.874 179.703 -10.887 204.129 C-11.217 204.129 -11.547 204.129 -11.887 204.129 C-12.004 178.399 -12.092 152.67 -12.146 126.94 C-12.172 114.994 -12.207 103.047 -12.264 91.101 C-12.314 80.69 -12.346 70.279 -12.358 59.868 C-12.364 54.354 -12.379 48.84 -12.416 43.327 C-12.45 38.138 -12.46 32.95 -12.453 27.762 C-12.454 25.857 -12.464 23.951 -12.483 22.045 C-12.508 19.445 -12.502 16.847 -12.488 14.247 C-12.503 13.491 -12.518 12.736 -12.533 11.957 C-12.475 7.933 -12.04 6.311 -9.412 3.184 C-8.579 2.506 -7.746 1.828 -6.887 1.129 C-5.045 -0.713 -2.451 0.006 0 0 Z " fill="#3B3B3B" transform="translate(23.887166559696198,15.870918691158295)"/>
<path d="M0 0 C2.062 0.438 2.062 0.438 4 1 C3.618 1.217 3.618 1.217 1.688 2.312 C-2.533 4.963 -2.533 4.963 -4 7 C-4.3 9.689 -4.416 12.149 -4.399 14.84 C-4.405 15.647 -4.412 16.454 -4.419 17.285 C-4.438 19.998 -4.435 22.711 -4.432 25.425 C-4.441 27.366 -4.452 29.307 -4.463 31.248 C-4.491 36.527 -4.5 41.806 -4.506 47.084 C-4.515 52.598 -4.542 58.111 -4.566 63.624 C-4.61 74.068 -4.638 84.512 -4.661 94.956 C-4.688 106.845 -4.732 118.734 -4.778 130.622 C-4.871 155.081 -4.942 179.541 -5 204 C-5.33 204 -5.66 204 -6 204 C-6.117 178.27 -6.205 152.541 -6.259 126.811 C-6.285 114.865 -6.32 102.918 -6.377 90.972 C-6.427 80.561 -6.459 70.15 -6.47 59.739 C-6.477 54.225 -6.492 48.711 -6.529 43.197 C-6.563 38.009 -6.573 32.821 -6.566 27.633 C-6.567 25.727 -6.577 23.822 -6.596 21.916 C-6.621 19.316 -6.615 16.718 -6.601 14.118 C-6.616 13.362 -6.63 12.606 -6.645 11.828 C-6.588 7.804 -6.153 6.182 -3.525 3.055 C-2.692 2.377 -1.858 1.699 -1 1 C-0.67 0.67 -0.34 0.34 0 0 Z " fill="#404040" transform="translate(18,16)"/>
<path d="M0 0 C0.843 0.078 1.687 0.157 2.556 0.237 C6.324 0.644 8.61 0.99 11.812 3.125 C-9.308 3.125 -30.428 3.125 -52.188 3.125 C-39.587 -5.275 -14.34 -1.359 0 0 Z " fill="#1A1A1A" transform="translate(148.1875,32.875)"/>
<path d="M0 0 C2.64 0 5.28 0 8 0 C8 2.64 8 5.28 8 8 C3.71 8 -0.58 8 -5 8 C-5 7.01 -5 6.02 -5 5 C-3.35 5 -1.7 5 0 5 C0 3.35 0 1.7 0 0 Z " fill="#252525" transform="translate(74,57)"/>
<path d="M0 0 C3.96 0 7.92 0 12 0 C12 2.64 12 5.28 12 8 C6.778 7.59 3.7 6.813 0 3 C0 2.01 0 1.02 0 0 Z " fill="#252525" transform="translate(70,67)"/>
<path d="M0 0 C1.32 0 2.64 0 4 0 C4 2.64 4 5.28 4 8 C2.68 8 1.36 8 0 8 C0 5.36 0 2.72 0 0 Z " fill="#740303" transform="translate(132,200)"/>
<path d="M0 0 C1.32 0 2.64 0 4 0 C4 2.64 4 5.28 4 8 C2.68 8 1.36 8 0 8 C0 5.36 0 2.72 0 0 Z " fill="#EC0303" transform="translate(126,200)"/>
<path d="M0 0 C1.32 0 2.64 0 4 0 C4 2.64 4 5.28 4 8 C2.68 8 1.36 8 0 8 C0 5.36 0 2.72 0 0 Z " fill="#740303" transform="translate(120,200)"/>
<path d="M0 0 C2.64 0 5.28 0 8 0 C8 1.32 8 2.64 8 4 C5.36 4 2.72 4 0 4 C0 2.68 0 1.36 0 0 Z " fill="#191919" transform="translate(220,72)"/>
<path d="M0 0 C2.64 0 5.28 0 8 0 C8 1.32 8 2.64 8 4 C5.36 4 2.72 4 0 4 C0 2.68 0 1.36 0 0 Z " fill="#191919" transform="translate(28,72)"/>
<path d="M0 0 C2.64 0 5.28 0 8 0 C8 1.32 8 2.64 8 4 C5.36 4 2.72 4 0 4 C0 2.68 0 1.36 0 0 Z " fill="#191919" transform="translate(220,64)"/>
<path d="M0 0 C2.64 0 5.28 0 8 0 C8 1.32 8 2.64 8 4 C5.36 4 2.72 4 0 4 C0 2.68 0 1.36 0 0 Z " fill="#191919" transform="translate(28,64)"/>
<path d="M0 0 C2.64 0 5.28 0 8 0 C8 1.32 8 2.64 8 4 C5.36 4 2.72 4 0 4 C0 2.68 0 1.36 0 0 Z " fill="#191919" transform="translate(220,56)"/>
<path d="M0 0 C2.64 0 5.28 0 8 0 C8 1.32 8 2.64 8 4 C5.36 4 2.72 4 0 4 C0 2.68 0 1.36 0 0 Z " fill="#191919" transform="translate(28,56)"/>
<path d="M0 0 C1.32 0 2.64 0 4 0 C4 2.31 4 4.62 4 7 C2.68 7 1.36 7 0 7 C0 4.69 0 2.38 0 0 Z " fill="#313131" transform="translate(202,17)"/>
<path d="M0 0 C1.32 0 2.64 0 4 0 C4 2.31 4 4.62 4 7 C2.68 7 1.36 7 0 7 C0 4.69 0 2.38 0 0 Z " fill="#313131" transform="translate(194,17)"/>
<path d="M0 0 C1.32 0 2.64 0 4 0 C4 2.31 4 4.62 4 7 C2.68 7 1.36 7 0 7 C0 4.69 0 2.38 0 0 Z " fill="#313131" transform="translate(186,17)"/>
<path d="M0 0 C1.32 0 2.64 0 4 0 C4 2.31 4 4.62 4 7 C2.68 7 1.36 7 0 7 C0 4.69 0 2.38 0 0 Z " fill="#313131" transform="translate(178,17)"/>
<path d="M0 0 C1.32 0 2.64 0 4 0 C4 2.31 4 4.62 4 7 C2.68 7 1.36 7 0 7 C0 4.69 0 2.38 0 0 Z " fill="#313131" transform="translate(170,17)"/>
<path d="M0 0 C1.32 0 2.64 0 4 0 C4 2.31 4 4.62 4 7 C2.68 7 1.36 7 0 7 C0 4.69 0 2.38 0 0 Z " fill="#313131" transform="translate(162,17)"/>
<path d="M0 0 C1.32 0 2.64 0 4 0 C4 2.31 4 4.62 4 7 C2.68 7 1.36 7 0 7 C0 4.69 0 2.38 0 0 Z " fill="#313131" transform="translate(154,17)"/>
<path d="M0 0 C1.32 0 2.64 0 4 0 C4 2.31 4 4.62 4 7 C2.68 7 1.36 7 0 7 C0 4.69 0 2.38 0 0 Z " fill="#313131" transform="translate(146,17)"/>
<path d="M0 0 C1.32 0 2.64 0 4 0 C4 2.31 4 4.62 4 7 C2.68 7 1.36 7 0 7 C0 4.69 0 2.38 0 0 Z " fill="#313131" transform="translate(138,17)"/>
<path d="M0 0 C1.32 0 2.64 0 4 0 C4 2.31 4 4.62 4 7 C2.68 7 1.36 7 0 7 C0 4.69 0 2.38 0 0 Z " fill="#313131" transform="translate(130,17)"/>
<path d="M0 0 C1.32 0 2.64 0 4 0 C4 2.31 4 4.62 4 7 C2.68 7 1.36 7 0 7 C0 4.69 0 2.38 0 0 Z " fill="#313131" transform="translate(122,17)"/>
<path d="M0 0 C1.32 0 2.64 0 4 0 C4 2.31 4 4.62 4 7 C2.68 7 1.36 7 0 7 C0 4.69 0 2.38 0 0 Z " fill="#313131" transform="translate(114,17)"/>
<path d="M0 0 C1.32 0 2.64 0 4 0 C4 2.31 4 4.62 4 7 C2.68 7 1.36 7 0 7 C0 4.69 0 2.38 0 0 Z " fill="#313131" transform="translate(106,17)"/>
<path d="M0 0 C1.32 0 2.64 0 4 0 C4 2.31 4 4.62 4 7 C2.68 7 1.36 7 0 7 C0 4.69 0 2.38 0 0 Z " fill="#313131" transform="translate(98,17)"/>
<path d="M0 0 C1.32 0 2.64 0 4 0 C4 2.31 4 4.62 4 7 C2.68 7 1.36 7 0 7 C0 4.69 0 2.38 0 0 Z " fill="#313131" transform="translate(90,17)"/>
<path d="M0 0 C1.32 0 2.64 0 4 0 C4 2.31 4 4.62 4 7 C2.68 7 1.36 7 0 7 C0 4.69 0 2.38 0 0 Z " fill="#313131" transform="translate(82,17)"/>
<path d="M0 0 C1.32 0 2.64 0 4 0 C4 2.31 4 4.62 4 7 C2.68 7 1.36 7 0 7 C0 4.69 0 2.38 0 0 Z " fill="#313131" transform="translate(74,17)"/>
<path d="M0 0 C1.32 0 2.64 0 4 0 C4 2.31 4 4.62 4 7 C2.68 7 1.36 7 0 7 C0 4.69 0 2.38 0 0 Z " fill="#313131" transform="translate(66,17)"/>
<path d="M0 0 C1.32 0 2.64 0 4 0 C4 2.31 4 4.62 4 7 C2.68 7 1.36 7 0 7 C0 4.69 0 2.38 0 0 Z " fill="#313131" transform="translate(58,17)"/>
<path d="M0 0 C1.32 0 2.64 0 4 0 C4 2.31 4 4.62 4 7 C2.68 7 1.36 7 0 7 C0 4.69 0 2.38 0 0 Z " fill="#313131" transform="translate(50,17)"/>
<path d="M0 0 C1.32 0 2.64 0 4 0 C4 1.98 4 3.96 4 6 C2.68 6.33 1.36 6.66 0 7 C0 4.69 0 2.38 0 0 Z " fill="#313131" transform="translate(210,17)"/>
<path d="M0 0 C1.32 0 2.64 0 4 0 C4 2.31 4 4.62 4 7 C2.68 6.67 1.36 6.34 0 6 C0 4.02 0 2.04 0 0 Z " fill="#313131" transform="translate(42,17)"/>
<path d="M0 0 C0.557 0.268 1.114 0.536 1.688 0.812 C1.306 1.029 1.306 1.029 -0.625 2.125 C-4.171 4.351 -5.991 6.33 -8.312 9.812 C-8.007 6.243 -7.288 4.782 -5 1.938 C-2.312 -0.188 -2.312 -0.188 0 0 Z " fill="#5C5C5C" transform="translate(20.3125,16.1875)"/>
</svg>
