<?xml version="1.0" encoding="UTF-8"?>
<!-- Generator: visioncortex VTracer 0.6.12 -->
<svg version="1.1" xmlns="http://www.w3.org/2000/svg" width="256" height="256">
<path d="M0 0 C3.217 2.067 6.29 4.29 9 7 C10.641 7.109 12.288 7.149 13.933 7.161 C15.001 7.171 16.069 7.181 17.17 7.191 C17.761 7.194 17.761 7.194 20.752 7.209 C21.371 7.214 21.371 7.214 24.502 7.238 C28.619 7.268 32.735 7.29 36.852 7.309 C37.202 7.31 37.202 7.31 38.973 7.319 C45.578 7.349 52.182 7.376 58.787 7.393 C67.235 7.415 75.682 7.457 84.129 7.526 C90.068 7.574 96.007 7.598 101.946 7.605 C105.493 7.61 109.039 7.625 112.585 7.665 C116.548 7.709 120.509 7.705 124.471 7.697 C125.641 7.717 126.812 7.737 128.017 7.758 C133.359 7.71 136.973 7.616 141.126 4.046 C142.088 3.034 143.046 2.019 144 1 C146.512 -0.426 146.512 -0.426 148.688 -1.312 C149.05 -1.465 149.05 -1.465 150.887 -2.238 C159.286 -5.266 167.139 -4.626 175.387 -1.336 C179.574 0.805 182.755 3.632 186 7 C186.743 7.742 187.485 8.485 188.25 9.25 C192.849 16.477 195.288 24.455 194 33 C192.072 40.734 188.665 47.335 183 53 C182.891 54.641 182.851 56.288 182.839 57.933 C182.829 59.001 182.819 60.069 182.809 61.17 C182.803 62.352 182.797 63.534 182.791 64.752 C182.781 65.99 182.772 67.227 182.762 68.502 C182.732 72.619 182.71 76.735 182.691 80.852 C182.69 81.202 182.69 81.202 182.681 82.973 C182.651 89.578 182.624 96.182 182.607 102.787 C182.585 111.235 182.543 119.682 182.474 128.129 C182.426 134.068 182.402 140.007 182.395 145.946 C182.39 149.493 182.375 153.039 182.335 156.585 C182.291 160.548 182.295 164.509 182.303 168.471 C182.283 169.641 182.263 170.812 182.242 172.017 C182.29 177.359 182.384 180.973 185.954 185.126 C186.966 186.088 187.981 187.046 189 188 C190.426 190.512 190.426 190.512 191.312 192.688 C191.465 193.05 191.465 193.05 192.238 194.887 C195.695 204.478 194.112 212.864 190 222 C188.769 224.43 187.439 226.678 186 229 C185.608 229.846 185.216 230.691 184.812 231.562 C180.592 237.239 173.887 240.792 167 242 C159.355 242.842 152.885 241.42 146 238 C142.814 235.424 141.278 233.629 139.627 229.888 C136.606 226.567 135.992 226.531 131.707 226.211 C129.441 226.163 127.174 226.149 124.907 226.16 C123.669 226.143 122.431 226.126 121.156 226.109 C117.763 226.07 114.371 226.059 110.978 226.062 C108.143 226.063 105.307 226.045 102.472 226.029 C95.78 225.99 89.088 225.985 82.395 225.998 C75.5 226.011 68.606 225.966 61.711 225.891 C55.785 225.83 49.859 225.807 43.932 225.815 C40.395 225.819 36.86 225.808 33.323 225.759 C29.375 225.706 25.43 225.734 21.481 225.77 C20.316 225.743 19.15 225.716 17.95 225.689 C10.118 225.852 10.118 225.852 6.84 229.218 C5.013 231.917 5.013 231.917 3.55 234.606 C0.649 239.087 -4.08 240.161 -8.984 241.57 C-17.893 243.469 -26.497 241.478 -34.145 236.645 C-38.382 233.317 -40.131 230.098 -42 225 C-43.273 222.427 -44.59 219.879 -45.914 217.332 C-49.216 210.241 -48.826 202.687 -46.375 195.375 C-44.21 189.913 -41.165 185.165 -37 181 C-36.891 179.359 -36.851 177.712 -36.839 176.067 C-36.829 174.999 -36.819 173.931 -36.809 172.83 C-36.806 172.239 -36.806 172.239 -36.791 169.248 C-36.781 168.01 -36.772 166.773 -36.762 165.498 C-36.732 161.381 -36.71 157.265 -36.691 153.148 C-36.688 152.448 -36.685 151.748 -36.681 151.027 C-36.651 144.422 -36.624 137.818 -36.607 131.213 C-36.585 122.765 -36.543 114.318 -36.474 105.871 C-36.426 99.932 -36.402 93.993 -36.395 88.054 C-36.39 84.507 -36.375 80.961 -36.335 77.415 C-36.291 73.452 -36.295 69.491 -36.303 65.529 C-36.293 64.944 -36.293 64.944 -36.242 61.983 C-36.29 56.641 -36.384 53.027 -39.954 48.874 C-40.966 47.912 -41.981 46.954 -43 46 C-44.426 43.488 -44.426 43.488 -45.312 41.312 C-45.618 40.587 -45.924 39.861 -46.238 39.113 C-49.266 30.714 -48.626 22.861 -45.336 14.613 C-43.195 10.426 -40.368 7.245 -37 4 C-36.629 3.629 -36.629 3.629 -34.75 1.75 C-23.333 -5.515 -12.036 -5.893 0 0 Z " fill="#3E3E3E" transform="translate(55,11)"/>
<path d="M0 0 C3.217 2.067 6.29 4.29 9 7 C10.641 7.109 12.288 7.149 13.933 7.161 C15.001 7.171 16.069 7.181 17.17 7.191 C17.761 7.194 17.761 7.194 20.752 7.209 C21.371 7.214 21.371 7.214 24.502 7.238 C28.619 7.268 32.735 7.29 36.852 7.309 C37.202 7.31 37.202 7.31 38.973 7.319 C45.578 7.349 52.182 7.376 58.787 7.393 C67.235 7.415 75.682 7.457 84.129 7.526 C90.068 7.574 96.007 7.598 101.946 7.605 C105.493 7.61 109.039 7.625 112.585 7.665 C116.548 7.709 120.509 7.705 124.471 7.697 C125.641 7.717 126.812 7.737 128.017 7.758 C133.359 7.71 136.973 7.616 141.126 4.046 C142.088 3.034 143.046 2.019 144 1 C146.512 -0.426 146.512 -0.426 148.688 -1.312 C149.05 -1.465 149.05 -1.465 150.887 -2.238 C159.286 -5.266 167.139 -4.626 175.387 -1.336 C179.574 0.805 182.755 3.632 186 7 C186.743 7.742 187.485 8.485 188.25 9.25 C192.849 16.477 195.288 24.455 194 33 C192.072 40.734 188.665 47.335 183 53 C182.891 54.641 182.851 56.288 182.839 57.933 C182.829 59.001 182.819 60.069 182.809 61.17 C182.803 62.352 182.797 63.534 182.791 64.752 C182.781 65.99 182.772 67.227 182.762 68.502 C182.732 72.619 182.71 76.735 182.691 80.852 C182.69 81.202 182.69 81.202 182.681 82.973 C182.651 89.578 182.624 96.182 182.607 102.787 C182.585 111.235 182.543 119.682 182.474 128.129 C182.426 134.068 182.402 140.007 182.395 145.946 C182.39 149.493 182.375 153.039 182.335 156.585 C182.291 160.548 182.295 164.509 182.303 168.471 C182.283 169.641 182.263 170.812 182.242 172.017 C182.29 177.359 182.384 180.973 185.954 185.126 C186.966 186.088 187.981 187.046 189 188 C190.426 190.512 190.426 190.512 191.312 192.688 C191.465 193.05 191.465 193.05 192.238 194.887 C195.695 204.478 194.112 212.864 190 222 C188.769 224.43 187.439 226.678 186 229 C185.608 229.846 185.216 230.691 184.812 231.562 C180.592 237.239 173.887 240.792 167 242 C159.355 242.842 152.885 241.42 146 238 C142.814 235.424 141.278 233.629 139.627 229.888 C136.606 226.567 135.992 226.531 131.707 226.211 C129.441 226.163 127.174 226.149 124.907 226.16 C123.669 226.143 122.431 226.126 121.156 226.109 C117.763 226.07 114.371 226.059 110.978 226.062 C108.143 226.063 105.307 226.045 102.472 226.029 C95.78 225.99 89.088 225.985 82.395 225.998 C75.5 226.011 68.606 225.966 61.711 225.891 C55.785 225.83 49.859 225.807 43.932 225.815 C40.395 225.819 36.86 225.808 33.323 225.759 C29.375 225.706 25.43 225.734 21.481 225.77 C20.316 225.743 19.15 225.716 17.95 225.689 C10.118 225.852 10.118 225.852 6.84 229.218 C5.013 231.917 5.013 231.917 3.55 234.606 C0.649 239.087 -4.08 240.161 -8.984 241.57 C-17.893 243.469 -26.497 241.478 -34.145 236.645 C-38.382 233.317 -40.131 230.098 -42 225 C-43.273 222.427 -44.59 219.879 -45.914 217.332 C-49.216 210.241 -48.826 202.687 -46.375 195.375 C-44.21 189.913 -41.165 185.165 -37 181 C-36.891 179.359 -36.851 177.712 -36.839 176.067 C-36.829 174.999 -36.819 173.931 -36.809 172.83 C-36.806 172.239 -36.806 172.239 -36.791 169.248 C-36.781 168.01 -36.772 166.773 -36.762 165.498 C-36.732 161.381 -36.71 157.265 -36.691 153.148 C-36.688 152.448 -36.685 151.748 -36.681 151.027 C-36.651 144.422 -36.624 137.818 -36.607 131.213 C-36.585 122.765 -36.543 114.318 -36.474 105.871 C-36.426 99.932 -36.402 93.993 -36.395 88.054 C-36.39 84.507 -36.375 80.961 -36.335 77.415 C-36.291 73.452 -36.295 69.491 -36.303 65.529 C-36.293 64.944 -36.293 64.944 -36.242 61.983 C-36.29 56.641 -36.384 53.027 -39.954 48.874 C-40.966 47.912 -41.981 46.954 -43 46 C-44.426 43.488 -44.426 43.488 -45.312 41.312 C-45.618 40.587 -45.924 39.861 -46.238 39.113 C-49.266 30.714 -48.626 22.861 -45.336 14.613 C-43.195 10.426 -40.368 7.245 -37 4 C-36.629 3.629 -36.629 3.629 -34.75 1.75 C-23.333 -5.515 -12.036 -5.893 0 0 Z M-35.773 15.254 C-39.919 21.155 -39.794 26.953 -39 34 C-36.985 40.177 -33.812 44.723 -29 49 C-27.721 51.557 -27.871 53.361 -27.866 56.225 C-27.862 57.332 -27.858 58.44 -27.853 59.581 C-27.854 60.802 -27.854 62.023 -27.855 63.281 C-27.851 64.562 -27.848 65.843 -27.845 67.164 C-27.836 70.684 -27.833 74.205 -27.833 77.726 C-27.832 80.663 -27.828 83.6 -27.825 86.538 C-27.816 93.468 -27.814 100.398 -27.815 107.328 C-27.815 114.479 -27.805 121.631 -27.789 128.782 C-27.776 134.919 -27.771 141.056 -27.771 147.193 C-27.771 150.859 -27.769 154.526 -27.758 158.192 C-27.747 162.282 -27.751 166.371 -27.757 170.46 C-27.751 171.677 -27.746 172.894 -27.74 174.148 C-27.742 174.704 -27.742 174.704 -27.753 177.521 C-27.752 178.488 -27.752 179.455 -27.751 180.452 C-28.15 184.534 -29.459 186.473 -32.375 189.312 C-37.513 194.572 -39.255 198.13 -39.5 205.438 C-39.303 211.779 -38.089 217.033 -33.41 221.527 C-32 223 -32 223 -31.25 225.938 C-29.884 229.284 -28.562 230.686 -25.324 232.309 C-19.196 234.132 -11.863 233.993 -5.812 231.875 C-2.3 229.533 -2.187 227.956 -1 224 C1.851 220.954 5.018 218.111 9.296 217.871 C9.78 217.871 9.78 217.871 12.225 217.866 C13.332 217.862 14.44 217.858 15.581 217.853 C16.802 217.854 18.023 217.854 19.281 217.855 C20.562 217.851 21.843 217.848 23.164 217.845 C26.684 217.836 30.205 217.833 33.726 217.833 C36.663 217.832 39.6 217.828 42.538 217.825 C49.468 217.816 56.398 217.814 63.328 217.815 C70.479 217.815 77.631 217.805 84.782 217.789 C90.919 217.776 97.056 217.771 103.193 217.771 C106.859 217.771 110.526 217.769 114.192 217.758 C118.282 217.747 122.371 217.751 126.46 217.757 C127.677 217.751 128.894 217.746 130.148 217.74 C130.704 217.742 130.704 217.742 133.521 217.753 C134.005 217.752 134.005 217.752 136.452 217.751 C141.695 218.263 144.631 221.085 148 225 C148.144 225.866 148.289 226.732 148.438 227.625 C149 230 149 230 151.25 231.812 C158.123 233.989 165.892 234.33 172.625 231.438 C176.515 229.142 177.52 226.219 179 222 C180.319 220.322 181.651 218.654 183 217 C185.808 211.172 185.853 205.337 185 199 C182.676 193.342 179.296 189.269 175 185 C173.721 182.443 173.871 180.639 173.866 177.775 C173.864 177.221 173.864 177.221 173.853 174.419 C173.854 173.198 173.854 171.977 173.855 170.719 C173.851 169.438 173.848 168.157 173.845 166.836 C173.836 163.316 173.833 159.795 173.833 156.274 C173.832 153.337 173.828 150.4 173.825 147.462 C173.816 140.532 173.814 133.602 173.815 126.672 C173.815 119.521 173.805 112.369 173.789 105.218 C173.776 99.081 173.771 92.944 173.771 86.807 C173.771 83.141 173.769 79.474 173.758 75.808 C173.747 71.718 173.751 67.629 173.757 63.54 C173.751 62.323 173.746 61.106 173.74 59.852 C173.744 58.739 173.748 57.626 173.753 56.479 C173.752 55.512 173.752 54.545 173.751 53.548 C174.149 49.474 175.426 47.544 178.375 44.75 C183.436 39.448 185.255 34.87 185.562 27.5 C185.313 20.298 183.249 16.308 178.285 11.254 C172.131 5.638 166.653 4.434 158.375 4.547 C153.098 5.255 148.973 7.487 145 11 C144.664 11.706 144.327 12.413 143.98 13.141 C143 15 143 15 141.28 15.608 C138.659 16.059 136.196 16.129 133.535 16.134 C132.424 16.138 131.314 16.142 130.17 16.147 C129.563 16.146 129.563 16.146 126.492 16.145 C125.211 16.149 123.929 16.152 122.608 16.155 C119.096 16.164 115.584 16.167 112.072 16.167 C109.877 16.168 107.683 16.17 105.488 16.173 C97.833 16.182 90.177 16.186 82.521 16.185 C75.385 16.185 68.248 16.195 61.111 16.211 C54.983 16.224 48.854 16.229 42.726 16.229 C39.066 16.229 35.406 16.231 31.747 16.242 C27.667 16.253 23.587 16.249 19.508 16.243 C18.901 16.246 18.901 16.246 15.83 16.26 C14.72 16.256 13.609 16.252 12.465 16.247 C11.501 16.248 10.536 16.248 9.543 16.249 C5.473 15.85 3.542 14.572 0.75 11.625 C-4.552 6.564 -9.13 4.745 -16.5 4.438 C-25.443 4.748 -30.232 8.552 -35.773 15.254 Z " fill="#FBFBFB" transform="translate(55,11)"/>
<path d="M0 0 C0.33 1.32 0.66 2.64 1 4 C-6.837 8.499 -11.741 9.673 -21 9 C-23.422 8.257 -24.899 7.441 -27 6 C-27 4.68 -27 3.36 -27 2 C-26.443 2.165 -26.443 2.165 -23.625 3 C-14.761 5.157 -8.021 4.34 0 0 Z " fill="#A48652" transform="translate(231,235)"/>
<path d="M0 0 C0.522 0.289 1.044 0.577 1.582 0.875 C10.475 5.36 18.64 4.826 28 2 C28 3.32 28 4.64 28 6 C21.58 9.583 15.251 9.962 8 9 C4.887 7.829 2.204 6.531 0 4 C0 2.68 0 1.36 0 0 Z " fill="#A58854" transform="translate(24,235)"/>
</svg>
