<?xml version="1.0" encoding="UTF-8"?>
<!-- Generator: visioncortex VTracer 0.6.12 -->
<svg version="1.1" xmlns="http://www.w3.org/2000/svg" width="256" height="256">
<path d="M0 0 C0.375 -0.001 0.375 -0.001 2.271 -0.009 C4.777 -0.018 7.283 -0.019 9.789 -0.021 C11.588 -0.025 13.387 -0.03 15.186 -0.036 C20.071 -0.049 24.955 -0.055 29.839 -0.06 C32.893 -0.063 35.946 -0.067 38.999 -0.071 C48.557 -0.085 58.115 -0.095 67.673 -0.098 C78.698 -0.103 89.722 -0.12 100.746 -0.149 C109.273 -0.171 117.801 -0.181 126.328 -0.182 C131.419 -0.184 136.509 -0.189 141.599 -0.207 C146.389 -0.224 151.179 -0.226 155.97 -0.217 C157.723 -0.216 159.477 -0.221 161.231 -0.231 C172.438 -0.29 182.264 -0.228 191.474 7.14 C199.283 14.987 201.627 22.339 201.614 33.274 C201.617 34.089 201.62 34.903 201.623 35.743 C201.632 38.47 201.634 41.197 201.635 43.925 C201.64 45.881 201.645 47.838 201.65 49.794 C201.663 55.108 201.67 60.423 201.674 65.737 C201.677 69.058 201.681 72.379 201.686 75.701 C201.699 86.096 201.709 96.491 201.713 106.886 C201.717 118.88 201.735 130.873 201.764 142.866 C201.785 152.141 201.796 161.415 201.797 170.69 C201.798 176.228 201.804 181.765 201.822 187.303 C201.838 192.513 201.84 197.723 201.832 202.934 C201.831 204.842 201.835 206.751 201.845 208.66 C201.858 211.273 201.852 213.886 201.841 216.499 C201.845 216.873 201.845 216.873 201.866 218.767 C201.786 227.389 199.08 235.557 192.872 241.734 C185.491 248.368 178.735 250.293 168.948 250.281 C168.573 250.282 168.573 250.282 166.677 250.29 C164.171 250.299 161.665 250.3 159.159 250.302 C157.36 250.306 155.561 250.311 153.762 250.317 C148.877 250.33 143.993 250.336 139.108 250.341 C136.055 250.344 133.002 250.348 129.949 250.352 C120.391 250.366 110.833 250.375 101.275 250.379 C90.25 250.384 79.226 250.401 68.202 250.43 C59.675 250.452 51.147 250.462 42.619 250.463 C37.529 250.464 32.439 250.47 27.349 250.488 C22.559 250.505 17.769 250.507 12.978 250.498 C11.224 250.497 9.47 250.502 7.717 250.512 C-3.49 250.571 -13.316 250.509 -22.526 243.14 C-30.335 235.293 -32.679 227.942 -32.667 217.007 C-32.669 216.192 -32.672 215.378 -32.676 214.538 C-32.684 211.811 -32.686 209.084 -32.687 206.356 C-32.692 204.4 -32.697 202.443 -32.702 200.487 C-32.715 195.172 -32.722 189.858 -32.726 184.544 C-32.729 181.223 -32.733 177.901 -32.738 174.58 C-32.751 164.185 -32.761 153.79 -32.765 143.394 C-32.769 131.401 -32.787 119.408 -32.816 107.415 C-32.838 98.14 -32.848 88.865 -32.849 79.59 C-32.85 74.053 -32.856 68.516 -32.874 62.978 C-32.89 57.768 -32.892 52.558 -32.884 47.347 C-32.883 45.439 -32.887 43.53 -32.897 41.621 C-32.91 39.008 -32.904 36.395 -32.894 33.782 C-32.902 33.033 -32.91 32.285 -32.918 31.513 C-32.838 22.891 -30.132 14.724 -23.924 8.547 C-16.543 1.913 -9.787 -0.012 0 0 Z " fill="#626262" transform="translate(43.52606201171875,2.85955810546875)"/>
<path d="M0 0 C0.375 -0.001 0.375 -0.001 2.271 -0.009 C4.777 -0.018 7.283 -0.019 9.789 -0.021 C11.588 -0.025 13.387 -0.03 15.186 -0.036 C20.071 -0.049 24.955 -0.055 29.839 -0.06 C32.893 -0.063 35.946 -0.067 38.999 -0.071 C48.557 -0.085 58.115 -0.095 67.673 -0.098 C78.698 -0.103 89.722 -0.12 100.746 -0.149 C109.273 -0.171 117.801 -0.181 126.328 -0.182 C131.419 -0.184 136.509 -0.189 141.599 -0.207 C146.389 -0.224 151.179 -0.226 155.97 -0.217 C157.723 -0.216 159.477 -0.221 161.231 -0.231 C172.438 -0.29 182.264 -0.228 191.474 7.14 C199.283 14.987 201.627 22.339 201.614 33.274 C201.617 34.089 201.62 34.903 201.623 35.743 C201.632 38.47 201.634 41.197 201.635 43.925 C201.64 45.881 201.645 47.838 201.65 49.794 C201.663 55.108 201.67 60.423 201.674 65.737 C201.677 69.058 201.681 72.379 201.686 75.701 C201.699 86.096 201.709 96.491 201.713 106.886 C201.717 118.88 201.735 130.873 201.764 142.866 C201.785 152.141 201.796 161.415 201.797 170.69 C201.798 176.228 201.804 181.765 201.822 187.303 C201.838 192.513 201.84 197.723 201.832 202.934 C201.831 204.842 201.835 206.751 201.845 208.66 C201.858 211.273 201.852 213.886 201.841 216.499 C201.845 216.873 201.845 216.873 201.866 218.767 C201.786 227.389 199.08 235.557 192.872 241.734 C185.491 248.368 178.735 250.293 168.948 250.281 C168.573 250.282 168.573 250.282 166.677 250.29 C164.171 250.299 161.665 250.3 159.159 250.302 C157.36 250.306 155.561 250.311 153.762 250.317 C148.877 250.33 143.993 250.336 139.108 250.341 C136.055 250.344 133.002 250.348 129.949 250.352 C120.391 250.366 110.833 250.375 101.275 250.379 C90.25 250.384 79.226 250.401 68.202 250.43 C59.675 250.452 51.147 250.462 42.619 250.463 C37.529 250.464 32.439 250.47 27.349 250.488 C22.559 250.505 17.769 250.507 12.978 250.498 C11.224 250.497 9.47 250.502 7.717 250.512 C-3.49 250.571 -13.316 250.509 -22.526 243.14 C-30.335 235.293 -32.679 227.942 -32.667 217.007 C-32.669 216.192 -32.672 215.378 -32.676 214.538 C-32.684 211.811 -32.686 209.084 -32.687 206.356 C-32.692 204.4 -32.697 202.443 -32.702 200.487 C-32.715 195.172 -32.722 189.858 -32.726 184.544 C-32.729 181.223 -32.733 177.901 -32.738 174.58 C-32.751 164.185 -32.761 153.79 -32.765 143.394 C-32.769 131.401 -32.787 119.408 -32.816 107.415 C-32.838 98.14 -32.848 88.865 -32.849 79.59 C-32.85 74.053 -32.856 68.516 -32.874 62.978 C-32.89 57.768 -32.892 52.558 -32.884 47.347 C-32.883 45.439 -32.887 43.53 -32.897 41.621 C-32.91 39.008 -32.904 36.395 -32.894 33.782 C-32.902 33.033 -32.91 32.285 -32.918 31.513 C-32.838 22.891 -30.132 14.724 -23.924 8.547 C-16.543 1.913 -9.787 -0.012 0 0 Z M8.474 23.14 C8.28 26.057 8.212 28.879 8.231 31.797 C8.229 32.693 8.227 33.589 8.225 34.512 C8.222 37.483 8.232 40.454 8.243 43.426 C8.245 45.483 8.245 47.54 8.245 49.598 C8.246 53.913 8.255 58.228 8.268 62.543 C8.285 68.087 8.289 73.632 8.288 79.176 C8.288 83.425 8.294 87.674 8.301 91.923 C8.304 93.968 8.306 96.013 8.307 98.058 C8.309 100.91 8.318 103.761 8.329 106.613 C8.328 107.467 8.328 108.32 8.327 109.2 C8.359 115.026 8.359 115.026 9.474 116.14 C8.682 116.155 7.89 116.17 7.075 116.185 C3.478 116.259 -0.118 116.356 -3.714 116.453 C-4.959 116.476 -6.205 116.498 -7.489 116.521 C-8.691 116.557 -9.893 116.592 -11.132 116.629 C-11.684 116.642 -11.684 116.642 -14.48 116.708 C-18.151 117.229 -20.881 118.496 -23.526 121.14 C-23.632 122.501 -23.67 123.867 -23.68 125.231 C-23.689 126.113 -23.697 126.994 -23.706 127.903 C-23.71 128.878 -23.715 129.853 -23.719 130.857 C-23.727 131.879 -23.735 132.9 -23.744 133.952 C-23.769 137.349 -23.785 140.747 -23.799 144.144 C-23.805 145.303 -23.81 146.461 -23.816 147.655 C-23.842 153.792 -23.862 159.928 -23.876 166.065 C-23.893 172.401 -23.938 178.737 -23.989 185.073 C-24.022 189.945 -24.034 194.817 -24.039 199.689 C-24.046 202.024 -24.061 204.359 -24.085 206.694 C-24.117 209.969 -24.117 213.243 -24.11 216.518 C-24.126 217.478 -24.142 218.439 -24.159 219.429 C-24.1 225.895 -22.655 230.122 -18.526 235.14 C-13.241 240.039 -9.564 241.391 -2.363 241.381 C-1.641 241.383 -0.919 241.384 -0.175 241.386 C2.245 241.389 4.664 241.378 7.084 241.367 C8.819 241.367 10.553 241.367 12.288 241.368 C16.998 241.369 21.709 241.357 26.419 241.343 C31.341 241.331 36.263 241.33 41.185 241.327 C50.507 241.321 59.828 241.305 69.149 241.284 C79.761 241.262 90.373 241.251 100.985 241.241 C122.814 241.22 144.644 241.185 166.474 241.14 C166.474 239.82 166.474 238.5 166.474 237.14 C167.134 237.14 167.794 237.14 168.474 237.14 C168.474 238.46 168.474 239.78 168.474 241.14 C174.95 241.738 179.414 241.404 184.786 237.57 C188.658 234.29 192.114 230.169 192.728 225.001 C192.729 224.614 192.729 224.614 192.735 222.655 C192.742 221.762 192.749 220.869 192.756 219.949 C192.754 218.977 192.751 218.005 192.749 217.003 C192.754 215.974 192.759 214.944 192.764 213.883 C192.778 210.478 192.777 207.073 192.775 203.668 C192.779 201.304 192.783 198.941 192.788 196.577 C192.795 191.623 192.795 186.669 192.79 181.715 C192.784 175.357 192.801 169 192.824 162.642 C192.839 157.761 192.84 152.881 192.836 148.001 C192.837 145.656 192.842 143.311 192.852 140.966 C192.865 137.693 192.858 134.421 192.846 131.148 C192.854 130.174 192.862 129.2 192.869 128.196 C192.862 127.306 192.855 126.416 192.848 125.498 C192.848 124.725 192.848 123.951 192.849 123.154 C192.37 120.582 191.521 119.728 189.474 118.14 C186.235 117.061 183.682 116.936 180.275 116.824 C179.066 116.782 177.858 116.74 176.613 116.697 C175.35 116.658 174.087 116.618 172.786 116.578 C171.512 116.535 170.238 116.492 168.925 116.447 C165.775 116.341 162.624 116.239 159.474 116.14 C159.804 115.81 160.134 115.48 160.474 115.14 C160.58 112.29 160.621 109.464 160.619 106.613 C160.623 105.719 160.626 104.825 160.629 103.903 C160.639 100.932 160.641 97.96 160.642 94.988 C160.645 92.932 160.648 90.875 160.652 88.819 C160.658 84.502 160.66 80.185 160.659 75.868 C160.659 70.325 160.673 64.782 160.69 59.239 C160.701 54.99 160.703 50.741 160.703 46.492 C160.704 44.448 160.708 42.404 160.716 40.359 C160.726 37.505 160.723 34.651 160.717 31.797 C160.722 30.945 160.728 30.094 160.734 29.217 C160.702 23.369 160.702 23.369 158.474 21.14 C155.922 20.889 155.922 20.889 152.628 20.886 C152.006 20.884 152.006 20.884 148.855 20.869 C147.468 20.873 146.08 20.877 144.693 20.882 C143.238 20.879 141.782 20.875 140.327 20.871 C136.369 20.862 132.41 20.865 128.452 20.872 C124.315 20.877 120.179 20.872 116.042 20.869 C109.095 20.865 102.148 20.87 95.201 20.88 C87.16 20.891 79.121 20.887 71.08 20.876 C64.186 20.867 57.292 20.866 50.398 20.871 C46.276 20.874 42.155 20.874 38.033 20.868 C34.159 20.862 30.285 20.866 26.411 20.878 C24.986 20.88 23.562 20.88 22.137 20.875 C20.198 20.87 18.259 20.878 16.32 20.886 C15.776 20.887 15.776 20.887 13.026 20.889 C10.474 21.14 10.474 21.14 8.474 23.14 Z " fill="#656565" transform="translate(43.52606201171875,2.85955810546875)"/>
<path d="M0 0 C47.52 0 95.04 0 144 0 C144 29.04 144 58.08 144 88 C96.48 88 48.96 88 0 88 C0 58.96 0 29.92 0 0 Z " fill="#7E7E7E" transform="translate(56,28)"/>
<path d="M0 0 C39.6 0 79.2 0 120 0 C120 29.04 120 58.08 120 88 C80.4 88 40.8 88 0 88 C0 58.96 0 29.92 0 0 Z " fill="#7E7E7E" transform="translate(68,142)"/>
<path d="M0 0 C0.375 -0.001 0.375 -0.001 2.271 -0.009 C4.777 -0.018 7.283 -0.019 9.789 -0.021 C11.588 -0.025 13.387 -0.03 15.186 -0.036 C20.071 -0.049 24.955 -0.055 29.839 -0.06 C32.893 -0.063 35.946 -0.067 38.999 -0.071 C48.557 -0.085 58.115 -0.095 67.673 -0.098 C78.698 -0.103 89.722 -0.12 100.746 -0.149 C109.273 -0.171 117.801 -0.181 126.328 -0.182 C131.419 -0.184 136.509 -0.189 141.599 -0.207 C146.389 -0.224 151.179 -0.226 155.97 -0.217 C157.723 -0.216 159.477 -0.221 161.231 -0.231 C172.438 -0.29 182.264 -0.228 191.474 7.14 C199.283 14.987 201.627 22.339 201.614 33.274 C201.617 34.089 201.62 34.903 201.623 35.743 C201.632 38.47 201.634 41.197 201.635 43.925 C201.64 45.881 201.645 47.838 201.65 49.794 C201.663 55.108 201.67 60.423 201.674 65.737 C201.677 69.058 201.681 72.379 201.686 75.701 C201.699 86.096 201.709 96.491 201.713 106.886 C201.717 118.88 201.735 130.873 201.764 142.866 C201.785 152.141 201.796 161.415 201.797 170.69 C201.798 176.228 201.804 181.765 201.822 187.303 C201.838 192.513 201.84 197.723 201.832 202.934 C201.831 204.842 201.835 206.751 201.845 208.66 C201.858 211.273 201.852 213.886 201.841 216.499 C201.845 216.873 201.845 216.873 201.866 218.767 C201.786 227.389 199.08 235.557 192.872 241.734 C185.491 248.368 178.735 250.293 168.948 250.281 C168.573 250.282 168.573 250.282 166.677 250.29 C164.171 250.299 161.665 250.3 159.159 250.302 C157.36 250.306 155.561 250.311 153.762 250.317 C148.877 250.33 143.993 250.336 139.108 250.341 C136.055 250.344 133.002 250.348 129.949 250.352 C120.391 250.366 110.833 250.375 101.275 250.379 C90.25 250.384 79.226 250.401 68.202 250.43 C59.675 250.452 51.147 250.462 42.619 250.463 C37.529 250.464 32.439 250.47 27.349 250.488 C22.559 250.505 17.769 250.507 12.978 250.498 C11.224 250.497 9.47 250.502 7.717 250.512 C-3.49 250.571 -13.316 250.509 -22.526 243.14 C-30.335 235.293 -32.679 227.942 -32.667 217.007 C-32.669 216.192 -32.672 215.378 -32.676 214.538 C-32.684 211.811 -32.686 209.084 -32.687 206.356 C-32.692 204.4 -32.697 202.443 -32.702 200.487 C-32.715 195.172 -32.722 189.858 -32.726 184.544 C-32.729 181.223 -32.733 177.901 -32.738 174.58 C-32.751 164.185 -32.761 153.79 -32.765 143.394 C-32.769 131.401 -32.787 119.408 -32.816 107.415 C-32.838 98.14 -32.848 88.865 -32.849 79.59 C-32.85 74.053 -32.856 68.516 -32.874 62.978 C-32.89 57.768 -32.892 52.558 -32.884 47.347 C-32.883 45.439 -32.887 43.53 -32.897 41.621 C-32.91 39.008 -32.904 36.395 -32.894 33.782 C-32.902 33.033 -32.91 32.285 -32.918 31.513 C-32.838 22.891 -30.132 14.724 -23.924 8.547 C-16.543 1.913 -9.787 -0.012 0 0 Z M-19.901 16.703 C-22.268 20.253 -23.778 22.868 -23.767 27.19 C-23.769 27.986 -23.772 28.783 -23.775 29.603 C-23.768 30.468 -23.761 31.333 -23.753 32.223 C-23.753 33.141 -23.754 34.058 -23.754 35.004 C-23.753 38.034 -23.737 41.063 -23.721 44.094 C-23.718 46.195 -23.715 48.297 -23.713 50.399 C-23.705 55.929 -23.686 61.46 -23.663 66.99 C-23.643 72.634 -23.634 78.278 -23.624 83.922 C-23.602 94.995 -23.568 106.068 -23.526 117.14 C-22.536 117.47 -21.546 117.8 -20.526 118.14 C-21.013 118.546 -21.5 118.952 -22.001 119.37 C-23.897 121.572 -23.907 122.6 -23.92 125.472 C-23.932 126.356 -23.943 127.24 -23.955 128.152 C-23.952 129.12 -23.949 130.087 -23.946 131.085 C-23.954 132.106 -23.963 133.127 -23.972 134.18 C-23.995 137.567 -23.996 140.953 -23.995 144.34 C-24.002 146.693 -24.01 149.046 -24.018 151.399 C-24.031 156.338 -24.033 161.277 -24.027 166.215 C-24.021 172.536 -24.052 178.856 -24.092 185.177 C-24.118 190.04 -24.121 194.903 -24.117 199.767 C-24.119 202.096 -24.129 204.426 -24.146 206.756 C-24.169 210.021 -24.159 213.284 -24.141 216.549 C-24.155 217.507 -24.168 218.465 -24.181 219.452 C-24.101 225.902 -22.641 230.132 -18.526 235.14 C-13.241 240.039 -9.564 241.391 -2.363 241.381 C-1.641 241.383 -0.919 241.384 -0.175 241.386 C2.245 241.389 4.664 241.378 7.084 241.367 C8.819 241.367 10.553 241.367 12.288 241.368 C16.998 241.369 21.709 241.357 26.419 241.343 C31.341 241.331 36.263 241.33 41.185 241.327 C50.507 241.321 59.828 241.305 69.149 241.284 C79.761 241.262 90.373 241.251 100.985 241.241 C122.814 241.22 144.644 241.185 166.474 241.14 C166.474 239.82 166.474 238.5 166.474 237.14 C167.134 237.14 167.794 237.14 168.474 237.14 C168.474 238.46 168.474 239.78 168.474 241.14 C174.95 241.738 179.414 241.404 184.786 237.57 C188.658 234.29 192.114 230.169 192.728 225.001 C192.729 224.614 192.729 224.614 192.735 222.655 C192.742 221.762 192.749 220.869 192.756 219.949 C192.754 218.977 192.751 218.005 192.749 217.003 C192.754 215.974 192.759 214.944 192.764 213.883 C192.778 210.478 192.777 207.073 192.775 203.668 C192.779 201.304 192.783 198.941 192.788 196.577 C192.795 191.623 192.795 186.669 192.79 181.715 C192.784 175.357 192.801 169 192.824 162.642 C192.839 157.761 192.84 152.881 192.836 148.001 C192.837 145.656 192.842 143.311 192.852 140.966 C192.865 137.693 192.858 134.421 192.846 131.148 C192.854 130.174 192.862 129.2 192.869 128.196 C192.862 127.306 192.855 126.416 192.848 125.498 C192.848 124.725 192.848 123.951 192.849 123.154 C192.381 120.642 191.406 119.747 189.474 118.14 C190.464 117.81 191.454 117.48 192.474 117.14 C192.59 105.023 192.679 92.905 192.733 80.787 C192.759 75.159 192.794 69.532 192.851 63.905 C192.906 58.472 192.935 53.038 192.948 47.605 C192.958 45.535 192.976 43.465 193.003 41.395 C193.039 38.489 193.044 35.584 193.042 32.678 C193.06 31.827 193.078 30.977 193.096 30.101 C193.043 23.952 191.326 19.931 187.474 15.14 C182.134 10.191 178.112 8.842 170.91 8.866 C170.144 8.861 169.379 8.856 168.59 8.85 C166.023 8.835 163.456 8.835 160.889 8.834 C159.049 8.826 157.209 8.818 155.37 8.809 C150.369 8.787 145.369 8.778 140.369 8.773 C137.245 8.769 134.12 8.763 130.996 8.756 C120.094 8.731 109.192 8.718 98.289 8.715 C88.131 8.711 77.972 8.681 67.813 8.64 C59.09 8.605 50.366 8.589 41.642 8.589 C36.433 8.588 31.224 8.579 26.014 8.551 C21.112 8.524 16.211 8.522 11.309 8.538 C9.513 8.54 7.717 8.533 5.92 8.517 C-4.718 8.429 -12.206 8.401 -19.901 16.703 Z " fill="#FBFBFB" transform="translate(43.52606201171875,2.85955810546875)"/>
<path d="M0 0 C1.245 -0.006 2.49 -0.011 3.773 -0.017 C5.161 -0.013 6.548 -0.009 7.936 -0.005 C9.391 -0.008 10.846 -0.011 12.301 -0.015 C16.26 -0.025 20.218 -0.021 24.177 -0.015 C28.313 -0.01 32.45 -0.014 36.586 -0.017 C43.533 -0.021 50.48 -0.016 57.428 -0.007 C65.468 0.004 73.508 0.001 81.548 -0.01 C88.442 -0.019 95.336 -0.021 102.231 -0.016 C106.352 -0.012 110.473 -0.012 114.595 -0.019 C118.469 -0.024 122.343 -0.02 126.217 -0.009 C127.642 -0.006 129.067 -0.007 130.491 -0.011 C132.43 -0.017 134.369 -0.009 136.309 0 C136.852 0 136.852 0 139.602 0.002 C142.154 0.254 142.154 0.254 144.154 2.254 C144.348 5.171 144.416 7.993 144.397 10.91 C144.399 11.806 144.401 12.702 144.403 13.626 C144.407 16.597 144.396 19.568 144.385 22.539 C144.384 24.597 144.383 26.654 144.383 28.711 C144.382 33.026 144.374 37.341 144.36 41.657 C144.343 47.201 144.339 52.745 144.34 58.29 C144.34 62.538 144.334 66.787 144.327 71.036 C144.324 73.081 144.322 75.126 144.321 77.171 C144.319 80.023 144.31 82.875 144.3 85.727 C144.3 86.58 144.3 87.434 144.301 88.313 C144.269 94.139 144.269 94.139 143.154 95.254 C143.946 95.269 144.738 95.283 145.553 95.298 C149.15 95.373 152.746 95.469 156.342 95.566 C157.588 95.589 158.834 95.612 160.117 95.635 C160.718 95.653 160.718 95.653 163.76 95.742 C164.865 95.768 165.97 95.795 167.108 95.822 C170.78 96.343 173.51 97.609 176.154 100.254 C176.619 106.413 176.619 106.413 174.842 109.629 C171.257 113.081 166.737 112.4 162.083 112.394 C161.25 112.397 160.418 112.4 159.561 112.403 C156.763 112.412 153.965 112.414 151.167 112.415 C149.164 112.42 147.162 112.425 145.16 112.43 C139.714 112.443 134.268 112.45 128.821 112.454 C125.421 112.457 122.02 112.461 118.619 112.466 C107.985 112.479 97.35 112.489 86.716 112.493 C74.43 112.497 62.143 112.515 49.857 112.544 C40.366 112.565 30.876 112.576 21.385 112.577 C15.714 112.578 10.043 112.584 4.371 112.602 C-0.962 112.618 -6.296 112.62 -11.629 112.612 C-13.588 112.611 -15.547 112.615 -17.505 112.625 C-20.177 112.638 -22.848 112.632 -25.52 112.621 C-26.297 112.63 -27.074 112.638 -27.875 112.646 C-32.367 112.605 -35.281 112.051 -38.846 109.254 C-40.371 106.204 -40.081 103.612 -39.846 100.254 C-38.015 97.638 -36.936 97.284 -33.846 96.254 C-31.782 96.104 -29.714 96.006 -27.646 95.938 C-26.438 95.896 -25.229 95.854 -23.984 95.811 C-22.722 95.771 -21.459 95.732 -20.158 95.691 C-18.884 95.648 -17.61 95.605 -16.297 95.561 C-13.147 95.454 -9.996 95.352 -6.846 95.254 C-7.176 94.924 -7.506 94.594 -7.846 94.254 C-7.952 91.404 -7.992 88.578 -7.991 85.727 C-7.994 84.833 -7.998 83.938 -8.001 83.017 C-8.011 80.045 -8.013 77.073 -8.014 74.102 C-8.017 72.045 -8.02 69.989 -8.024 67.932 C-8.03 63.615 -8.032 59.299 -8.031 54.982 C-8.031 49.439 -8.045 43.896 -8.062 38.352 C-8.073 34.103 -8.075 29.854 -8.074 25.606 C-8.076 23.561 -8.08 21.517 -8.088 19.473 C-8.097 16.619 -8.095 13.765 -8.089 10.91 C-8.094 10.059 -8.1 9.207 -8.106 8.33 C-8.068 1.278 -6.958 0.005 0 0 Z M-3.846 4.254 C-3.846 33.294 -3.846 62.334 -3.846 92.254 C43.674 92.254 91.194 92.254 140.154 92.254 C140.154 63.214 140.154 34.174 140.154 4.254 C92.634 4.254 45.114 4.254 -3.846 4.254 Z " fill="#4C4D4C" transform="translate(59.845703125,23.74603271484375)"/>
<path d="M0 0 C1.245 -0.006 2.49 -0.011 3.773 -0.017 C5.161 -0.013 6.548 -0.009 7.936 -0.005 C9.391 -0.008 10.846 -0.011 12.301 -0.015 C16.26 -0.025 20.218 -0.021 24.177 -0.015 C28.313 -0.01 32.45 -0.014 36.586 -0.017 C43.533 -0.021 50.48 -0.016 57.428 -0.007 C65.468 0.004 73.508 0.001 81.548 -0.01 C88.442 -0.019 95.336 -0.021 102.231 -0.016 C106.352 -0.012 110.473 -0.012 114.595 -0.019 C118.469 -0.024 122.343 -0.02 126.217 -0.009 C127.642 -0.006 129.067 -0.007 130.491 -0.011 C132.43 -0.017 134.369 -0.009 136.309 0 C136.852 0 136.852 0 139.602 0.002 C142.154 0.254 142.154 0.254 144.154 2.254 C144.358 5.165 144.437 7.982 144.429 10.895 C144.434 11.789 144.439 12.683 144.444 13.605 C144.458 16.571 144.457 19.538 144.455 22.504 C144.459 24.559 144.463 26.614 144.468 28.669 C144.476 32.98 144.475 37.291 144.47 41.602 C144.464 47.137 144.481 52.672 144.504 58.207 C144.519 62.452 144.52 66.697 144.517 70.941 C144.517 72.983 144.523 75.024 144.533 77.066 C144.545 79.915 144.538 82.764 144.527 85.613 C144.534 86.463 144.542 87.313 144.55 88.189 C144.529 90.534 144.529 90.534 144.154 94.254 C140.683 96.568 139.365 96.505 135.271 96.508 C134.043 96.514 132.814 96.519 131.549 96.525 C130.186 96.521 128.822 96.517 127.459 96.513 C126.025 96.515 124.591 96.519 123.157 96.523 C119.26 96.533 115.364 96.529 111.467 96.523 C107.393 96.518 103.318 96.522 99.244 96.525 C92.401 96.529 85.558 96.524 78.715 96.515 C70.799 96.504 62.884 96.507 54.968 96.518 C48.176 96.527 41.385 96.529 34.593 96.523 C30.535 96.52 26.477 96.52 22.418 96.527 C18.603 96.532 14.788 96.528 10.973 96.517 C9.572 96.514 8.17 96.515 6.768 96.519 C4.858 96.525 2.948 96.517 1.038 96.508 C-0.032 96.507 -1.102 96.506 -2.205 96.506 C-4.846 96.254 -4.846 96.254 -7.846 94.254 C-8.142 91.305 -8.245 88.565 -8.218 85.613 C-8.222 84.719 -8.225 83.825 -8.229 82.903 C-8.237 79.936 -8.224 76.97 -8.209 74.004 C-8.208 71.949 -8.209 69.894 -8.21 67.839 C-8.21 63.528 -8.2 59.217 -8.182 54.906 C-8.159 49.371 -8.159 43.836 -8.165 38.301 C-8.169 34.056 -8.162 29.811 -8.152 25.567 C-8.148 23.525 -8.147 21.484 -8.149 19.442 C-8.149 16.593 -8.137 13.744 -8.12 10.895 C-8.123 10.045 -8.125 9.195 -8.128 8.319 C-8.063 1.274 -6.949 0.005 0 0 Z M-3.846 4.254 C-3.846 33.294 -3.846 62.334 -3.846 92.254 C43.674 92.254 91.194 92.254 140.154 92.254 C140.154 63.214 140.154 34.174 140.154 4.254 C92.634 4.254 45.114 4.254 -3.846 4.254 Z " fill="#424242" transform="translate(59.845703125,23.74603271484375)"/>
<path d="M0 0 C3.98 2.601 6.027 5.94 7.25 10.5 C7.567 15.183 6.654 18.661 4.625 22.875 C0.889 27.004 -2.795 28.256 -8.25 28.938 C-13.209 28.318 -16.777 26.793 -20.078 22.957 C-22.418 19.357 -23.446 15.93 -23.199 11.555 C-22.057 6.332 -19.236 2.557 -14.938 -0.5 C-9.58 -2.181 -5.067 -2.441 0 0 Z " fill="#4F504F" transform="translate(50.75,145.5)"/>
<path d="M0 0 C3.954 0.264 5.654 0.861 8.75 3.25 C11.234 6.976 11.13 8.837 10.75 13.25 C9.495 16.073 8.466 17.713 6 19.562 C2.688 20.575 0.196 20.673 -3.25 20.25 C-7.129 17.045 -9.058 14.944 -9.625 9.938 C-9.158 5.344 -7.73 4.136 -4.25 1.25 C-3.25 0.25 -3.25 0.25 0 0 Z " fill="#999999" transform="translate(42.25,148.75)"/>
<path d="M0 0 C0.33 0 0.66 0 1 0 C1 1.98 1 3.96 1 6 C2.32 6 3.64 6 5 6 C5 4.02 5 2.04 5 0 C5.33 0 5.66 0 6 0 C6 2.64 6 5.28 6 8 C8.97 8 11.94 8 15 8 C15 10.31 15 12.62 15 15 C12.03 15 9.06 15 6 15 C6 16.98 6 18.96 6 21 C5.67 19.68 5.34 18.36 5 17 C3.68 17 2.36 17 1 17 C1 18.98 1 20.96 1 23 C0.67 23 0.34 23 0 23 C0 20.36 0 17.72 0 15 C-2.97 15 -5.94 15 -9 15 C-9 12.69 -9 10.38 -9 8 C-6.03 8 -3.06 8 0 8 C0 5.36 0 2.72 0 0 Z " fill="#4C4D4C" transform="translate(40,181)"/>
<path d="M0 0 C3.954 0.264 5.654 0.861 8.75 3.25 C11.234 6.976 11.13 8.837 10.75 13.25 C9.495 16.073 8.466 17.713 6 19.562 C2.688 20.575 0.196 20.673 -3.25 20.25 C-7.129 17.045 -9.058 14.944 -9.625 9.938 C-9.158 5.344 -7.73 4.136 -4.25 1.25 C-3.25 0.25 -3.25 0.25 0 0 Z M-5.25 4.25 C-6.881 7.512 -6.77 10.686 -6.25 14.25 C-5.25 16.25 -5.25 16.25 -3.25 17.25 C0.314 17.77 3.488 17.881 6.75 16.25 C8.381 12.988 8.27 9.814 7.75 6.25 C6.75 4.25 6.75 4.25 4.75 3.25 C1.186 2.73 -1.988 2.619 -5.25 4.25 Z " fill="#A7A8A7" transform="translate(42.25,148.75)"/>
<path d="M0 0 C2 3 2 3 1.812 6.062 C1 9 1 9 -2 11 C-5.062 10.812 -5.062 10.812 -8 10 C-10.155 6.767 -10.469 5.748 -10 2 C-7.597 -2.241 -4.215 -1.073 0 0 Z " fill="#4D4E4D" transform="translate(218,177)"/>
<path d="M0 0 C2 3 2 3 1.812 6.062 C1 9 1 9 -2 11 C-5.062 10.812 -5.062 10.812 -8 10 C-10.155 6.767 -10.469 5.748 -10 2 C-7.597 -2.241 -4.215 -1.073 0 0 Z " fill="#4D4E4D" transform="translate(230,165)"/>
<path d="M0 0 C2 3 2 3 1.812 6.062 C1 9 1 9 -2 11 C-5.062 10.812 -5.062 10.812 -8 10 C-10.155 6.767 -10.469 5.748 -10 2 C-7.597 -2.241 -4.215 -1.073 0 0 Z " fill="#4D4E4D" transform="translate(206,165)"/>
<path d="M0 0 C2 3 2 3 1.812 6.062 C1 9 1 9 -2 11 C-5.062 10.812 -5.062 10.812 -8 10 C-10.155 6.767 -10.469 5.748 -10 2 C-7.597 -2.241 -4.215 -1.073 0 0 Z " fill="#4D4E4D" transform="translate(218,153)"/>
<path d="M0 0 C0.33 0 0.66 0 1 0 C1 20.46 1 40.92 1 62 C-0.32 62 -1.64 62 -3 62 C-3 59.36 -3 56.72 -3 54 C-2.01 54 -1.02 54 0 54 C0 36.18 0 18.36 0 0 Z " fill="#727272" transform="translate(235,26)"/>
<path d="M0 0 C6.577 0.577 6.577 0.577 8 2 C7.713 4.339 7.381 6.674 7 9 C4.69 9.33 2.38 9.66 0 10 C-2.149 6.776 -2.383 5.733 -2 2 C-1.34 1.34 -0.68 0.68 0 0 Z " fill="#949494" transform="translate(198,142)"/>
<path d="M0 0 C1.32 0 2.64 0 4 0 C4 5.28 4 10.56 4 16 C2.68 16 1.36 16 0 16 C0 10.72 0 5.44 0 0 Z " fill="#444444" transform="translate(232,88)"/>
<path d="M0 0 C2.625 0.375 2.625 0.375 5 1 C5.625 3.375 5.625 3.375 6 6 C5.34 6.66 4.68 7.32 4 8 C1.375 7.625 1.375 7.625 -1 7 C-1.625 4.625 -1.625 4.625 -2 2 C-1.34 1.34 -0.68 0.68 0 0 Z " fill="#4D4E4D" transform="translate(198,216)"/>
<path d="M0 0 C2.625 0.375 2.625 0.375 5 1 C5.625 3.375 5.625 3.375 6 6 C5.34 6.66 4.68 7.32 4 8 C1.375 7.625 1.375 7.625 -1 7 C-1.625 4.625 -1.625 4.625 -2 2 C-1.34 1.34 -0.68 0.68 0 0 Z " fill="#4D4E4D" transform="translate(198,200)"/>
<path d="M0 0 C2.625 0.375 2.625 0.375 5 1 C5.625 3.375 5.625 3.375 6 6 C5.34 6.66 4.68 7.32 4 8 C1.375 7.625 1.375 7.625 -1 7 C-1.625 4.625 -1.625 4.625 -2 2 C-1.34 1.34 -0.68 0.68 0 0 Z " fill="#282828" transform="translate(126,14)"/>
<path d="M0 0 C1.32 0 2.64 0 4 0 C4 3.96 4 7.92 4 12 C2.68 12 1.36 12 0 12 C0 8.04 0 4.08 0 0 Z " fill="#444444" transform="translate(20,92)"/>
<path d="M0 0 C0.99 0.66 1.98 1.32 3 2 C3 2.66 3 3.32 3 4 C-0.96 4 -4.92 4 -9 4 C-8.67 3.01 -8.34 2.02 -8 1 C-5.229 -0.386 -3.067 -0.188 0 0 Z " fill="#414141" transform="translate(205,132)"/>
<path d="M0 0 C1.32 0 2.64 0 4 0 C4 2.64 4 5.28 4 8 C2.68 8 1.36 8 0 8 C0 5.36 0 2.72 0 0 Z " fill="#7E7E7E" transform="translate(20,84)"/>
<path d="M0 0 C1.32 0 2.64 0 4 0 C4 2.64 4 5.28 4 8 C2.68 8 1.36 8 0 8 C0 5.36 0 2.72 0 0 Z " fill="#979797" transform="translate(232,80)"/>
<path d="M0 0 C1.65 0.33 3.3 0.66 5 1 C4.67 2.65 4.34 4.3 4 6 C2.35 5.67 0.7 5.34 -1 5 C-0.67 3.35 -0.34 1.7 0 0 Z " fill="#5A5A5A" transform="translate(177,16)"/>
<path d="M0 0 C1.65 0.33 3.3 0.66 5 1 C4.67 2.65 4.34 4.3 4 6 C2.35 5.67 0.7 5.34 -1 5 C-0.67 3.35 -0.34 1.7 0 0 Z " fill="#5A5A5A" transform="translate(75,16)"/>
<path d="M0 0 C0.33 0 0.66 0 1 0 C1.481 6.25 1.481 6.25 -0.562 9.438 C-3.819 11.525 -6.21 11.292 -10 11 C-9.722 10.887 -9.722 10.887 -8.312 10.312 C-4.657 8.238 -1.605 5.721 -0.188 1.688 C-0.126 1.131 -0.064 0.574 0 0 Z " fill="#AFB0AF" transform="translate(51,157)"/>
<path d="M0 0 C1.98 0 3.96 0 6 0 C6 0.99 6 1.98 6 3 C4.02 3 2.04 3 0 3 C0 2.01 0 1.02 0 0 Z " fill="#767676" transform="translate(48,191)"/>
<path d="M0 0 C1.98 0 3.96 0 6 0 C6 0.99 6 1.98 6 3 C4.02 3 2.04 3 0 3 C0 2.01 0 1.02 0 0 Z " fill="#767676" transform="translate(32,191)"/>
</svg>
