<?xml version="1.0" encoding="UTF-8"?>
<!-- Generator: visioncortex VTracer 0.6.12 -->
<svg version="1.1" xmlns="http://www.w3.org/2000/svg" width="256" height="256">
<path d="M0 0 C82.5 0 165 0 250 0 C250 64.02 250 128.04 250 194 C167.5 194 85 194 0 194 C0 129.98 0 65.96 0 0 Z " fill="#A1A1A1" transform="translate(3,31)"/>
<path d="M0 0 C58.08 0 116.16 0 176 0 C176 19.8 176 39.6 176 60 C117.92 60 59.84 60 0 60 C0 40.2 0 20.4 0 0 Z " fill="#8C8C8C" transform="translate(40,40)"/>
<path d="M0 0 C52.8 0 105.6 0 160 0 C160 7.92 160 15.84 160 24 C156.04 24 152.08 24 148 24 C148 30.6 148 37.2 148 44 C140.08 44 132.16 44 124 44 C124 47.96 124 51.92 124 56 C92.32 56 60.64 56 28 56 C28 52.04 28 48.08 28 44 C20.08 44 12.16 44 4 44 C4 37.4 4 30.8 4 24 C2.68 24 1.36 24 0 24 C0 16.08 0 8.16 0 0 Z " fill="#262626" transform="translate(36,152)"/>
<path d="M0 0 C82.5 0 165 0 250 0 C250 64.02 250 128.04 250 194 C167.5 194 85 194 0 194 C0 129.98 0 65.96 0 0 Z M9 9 C9 67.08 9 125.16 9 185 C85.56 185 162.12 185 241 185 C241 126.92 241 68.84 241 9 C164.44 9 87.88 9 9 9 Z " fill="#FCFCFC" transform="translate(3,31)"/>
<path d="M0 0 C9.24 0 18.48 0 28 0 C28 33.99 28 67.98 28 103 C27.67 103.165 27.67 103.165 26 104 C26 103.34 26 102.68 26 102 C25.432 101.731 24.863 101.461 24.278 101.183 C20.102 99.014 16.313 96.222 12.438 93.562 C12.006 93.27 12.006 93.27 9.822 91.787 C8.993 91.219 8.163 90.651 7.309 90.066 C6.554 89.55 5.799 89.034 5.021 88.502 C4.354 88.006 3.687 87.511 3 87 C2.735 86.82 2.735 86.82 1.395 85.909 C-0.825 82.871 -0.391 79.567 -0.341 75.948 C-0.341 75.129 -0.341 74.309 -0.342 73.464 C-0.34 70.753 -0.316 68.043 -0.293 65.332 C-0.287 63.453 -0.283 61.574 -0.28 59.695 C-0.269 54.748 -0.239 49.802 -0.206 44.855 C-0.175 39.808 -0.162 34.76 -0.146 29.713 C-0.114 19.808 -0.062 9.904 0 0 Z " fill="#A6A6A6" transform="translate(216,40)"/>
<path d="M0 0 C9.24 0 18.48 0 28 0 C28.226 10.814 28.41 21.626 28.518 32.442 C28.57 37.465 28.641 42.486 28.754 47.508 C28.863 52.358 28.923 57.206 28.949 62.058 C28.967 63.905 29.003 65.751 29.057 67.598 C29.464 82.048 29.464 82.048 25.862 86.85 C23.329 88.905 20.868 90.459 18 92 C16.518 93.045 15.047 94.104 13.594 95.188 C12.232 96.129 10.867 97.067 9.5 98 C9.149 98.244 9.149 98.244 7.375 99.48 C2.249 103 2.249 103 0 103 C0 69.01 0 35.02 0 0 Z " fill="#A6A6A6" transform="translate(12,40)"/>
<path d="M0 0 C3.96 0 7.92 0 12 0 C12 2.64 12 5.28 12 8 C8.37 8 4.74 8 1 8 C1 9.32 1 10.64 1 12 C5.95 12 10.9 12 16 12 C16 14.31 16 16.62 16 19 C17.32 19 18.64 19 20 19 C20 16.69 20 14.38 20 12 C22.64 12 25.28 12 28 12 C28 14.64 28 17.28 28 20 C27.01 20 26.02 20 25 20 C25 21.32 25 22.64 25 24 C56.02 24 87.04 24 119 24 C119 22.68 119 21.36 119 20 C118.01 20 117.02 20 116 20 C116 17.36 116 14.72 116 12 C118.64 12 121.28 12 124 12 C124 14.31 124 16.62 124 19 C125.32 19 126.64 19 128 19 C128 16.69 128 14.38 128 12 C130.64 12 133.28 12 136 12 C136 14.31 136 16.62 136 19 C138.31 19 140.62 19 143 19 C143 15.37 143 11.74 143 8 C140.69 8 138.38 8 136 8 C136 5.36 136 2.72 136 0 C138.64 0 141.28 0 144 0 C144 6.6 144 13.2 144 20 C136.08 20 128.16 20 120 20 C120 23.96 120 27.92 120 32 C88.32 32 56.64 32 24 32 C24 28.04 24 24.08 24 20 C16.08 20 8.16 20 0 20 C0 13.4 0 6.8 0 0 Z " fill="#343434" transform="translate(40,176)"/>
<path d="M0 0 C52.8 0 105.6 0 160 0 C160 7.92 160 15.84 160 24 C156.04 24 152.08 24 148 24 C148 23.67 148 23.34 148 23 C151.63 23 155.26 23 159 23 C159 22.01 159 21.02 159 20 C155.37 20 151.74 20 148 20 C148 17.36 148 14.72 148 12 C151.63 12 155.26 12 159 12 C159 10.68 159 9.36 159 8 C158.01 8 157.02 8 156 8 C156 5.69 156 3.38 156 1 C154.68 1 153.36 1 152 1 C152 3.31 152 5.62 152 8 C149.36 8 146.72 8 144 8 C144 5.69 144 3.38 144 1 C142.68 1 141.36 1 140 1 C140 3.31 140 5.62 140 8 C137.36 8 134.72 8 132 8 C132 5.69 132 3.38 132 1 C130.68 1 129.36 1 128 1 C128 3.31 128 5.62 128 8 C125.36 8 122.72 8 120 8 C120 5.69 120 3.38 120 1 C118.68 1 117.36 1 116 1 C116 3.31 116 5.62 116 8 C113.36 8 110.72 8 108 8 C108 5.69 108 3.38 108 1 C106.68 1 105.36 1 104 1 C104 3.31 104 5.62 104 8 C101.36 8 98.72 8 96 8 C96 5.69 96 3.38 96 1 C94.68 1 93.36 1 92 1 C92 3.31 92 5.62 92 8 C89.36 8 86.72 8 84 8 C84 5.69 84 3.38 84 1 C82.68 1 81.36 1 80 1 C80 3.31 80 5.62 80 8 C77.36 8 74.72 8 72 8 C72 5.69 72 3.38 72 1 C70.68 1 69.36 1 68 1 C68 3.31 68 5.62 68 8 C65.36 8 62.72 8 60 8 C60 5.69 60 3.38 60 1 C58.68 1 57.36 1 56 1 C56 3.31 56 5.62 56 8 C53.36 8 50.72 8 48 8 C48 5.69 48 3.38 48 1 C46.68 1 45.36 1 44 1 C44 3.31 44 5.62 44 8 C41.36 8 38.72 8 36 8 C36 5.69 36 3.38 36 1 C34.68 1 33.36 1 32 1 C32 3.31 32 5.62 32 8 C29.36 8 26.72 8 24 8 C24 5.69 24 3.38 24 1 C22.68 1 21.36 1 20 1 C20 3.31 20 5.62 20 8 C17.36 8 14.72 8 12 8 C12 5.69 12 3.38 12 1 C10.68 1 9.36 1 8 1 C8 3.31 8 5.62 8 8 C5.69 8 3.38 8 1 8 C1 9.32 1 10.64 1 12 C4.63 12 8.26 12 12 12 C12 14.64 12 17.28 12 20 C8.37 20 4.74 20 1 20 C1 20.99 1 21.98 1 23 C1.99 23.33 2.98 23.66 4 24 C2.68 24 1.36 24 0 24 C0 16.08 0 8.16 0 0 Z " fill="#343434" transform="translate(36,152)"/>
<path d="M0 0 C5.28 0 10.56 0 16 0 C16 15.84 16 31.68 16 48 C10.72 48 5.44 48 0 48 C0 32.16 0 16.32 0 0 Z " fill="#E57D22" transform="translate(204,152)"/>
<path d="M0 0 C58.08 0 116.16 0 176 0 C174.68 1.32 173.36 2.64 172 4 C171.34 4 170.68 4 170 4 C170 3.01 170 2.02 170 1 C169.34 1 168.68 1 168 1 C168 1.99 168 2.98 168 4 C167.34 4 166.68 4 166 4 C166 3.01 166 2.02 166 1 C165.34 1 164.68 1 164 1 C164 1.99 164 2.98 164 4 C163.34 4 162.68 4 162 4 C162 3.01 162 2.02 162 1 C161.34 1 160.68 1 160 1 C160 1.99 160 2.98 160 4 C159.34 4 158.68 4 158 4 C158 3.01 158 2.02 158 1 C157.34 1 156.68 1 156 1 C156 1.99 156 2.98 156 4 C155.34 4 154.68 4 154 4 C154 3.01 154 2.02 154 1 C153.34 1 152.68 1 152 1 C152 1.99 152 2.98 152 4 C151.34 4 150.68 4 150 4 C150 3.01 150 2.02 150 1 C149.34 1 148.68 1 148 1 C148 1.99 148 2.98 148 4 C147.34 4 146.68 4 146 4 C146 3.01 146 2.02 146 1 C145.34 1 144.68 1 144 1 C144 1.99 144 2.98 144 4 C143.34 4 142.68 4 142 4 C142 3.01 142 2.02 142 1 C141.34 1 140.68 1 140 1 C140 1.99 140 2.98 140 4 C139.34 4 138.68 4 138 4 C138 3.01 138 2.02 138 1 C137.34 1 136.68 1 136 1 C136 1.99 136 2.98 136 4 C135.34 4 134.68 4 134 4 C134 3.01 134 2.02 134 1 C133.34 1 132.68 1 132 1 C132 1.99 132 2.98 132 4 C131.34 4 130.68 4 130 4 C130 3.01 130 2.02 130 1 C129.34 1 128.68 1 128 1 C128 1.99 128 2.98 128 4 C127.34 4 126.68 4 126 4 C126 3.01 126 2.02 126 1 C125.34 1 124.68 1 124 1 C124 1.99 124 2.98 124 4 C123.34 4 122.68 4 122 4 C122 3.01 122 2.02 122 1 C121.34 1 120.68 1 120 1 C120 1.99 120 2.98 120 4 C119.34 4 118.68 4 118 4 C118 3.01 118 2.02 118 1 C117.34 1 116.68 1 116 1 C116 1.99 116 2.98 116 4 C115.34 4 114.68 4 114 4 C114 3.01 114 2.02 114 1 C113.34 1 112.68 1 112 1 C112 1.99 112 2.98 112 4 C111.34 4 110.68 4 110 4 C110 3.01 110 2.02 110 1 C109.34 1 108.68 1 108 1 C108 1.99 108 2.98 108 4 C107.34 4 106.68 4 106 4 C106 3.01 106 2.02 106 1 C105.34 1 104.68 1 104 1 C104 1.99 104 2.98 104 4 C103.34 4 102.68 4 102 4 C102 3.01 102 2.02 102 1 C101.34 1 100.68 1 100 1 C100 1.99 100 2.98 100 4 C99.34 4 98.68 4 98 4 C98 3.01 98 2.02 98 1 C97.34 1 96.68 1 96 1 C96 1.99 96 2.98 96 4 C95.34 4 94.68 4 94 4 C94 3.01 94 2.02 94 1 C93.34 1 92.68 1 92 1 C92 1.99 92 2.98 92 4 C91.34 4 90.68 4 90 4 C90 3.01 90 2.02 90 1 C89.34 1 88.68 1 88 1 C88 1.99 88 2.98 88 4 C87.34 4 86.68 4 86 4 C86 3.01 86 2.02 86 1 C85.34 1 84.68 1 84 1 C84 1.99 84 2.98 84 4 C83.34 4 82.68 4 82 4 C82 3.01 82 2.02 82 1 C81.34 1 80.68 1 80 1 C80 1.99 80 2.98 80 4 C79.34 4 78.68 4 78 4 C78 3.01 78 2.02 78 1 C77.34 1 76.68 1 76 1 C76 1.99 76 2.98 76 4 C75.34 4 74.68 4 74 4 C74 3.01 74 2.02 74 1 C73.34 1 72.68 1 72 1 C72 1.99 72 2.98 72 4 C71.34 4 70.68 4 70 4 C70 3.01 70 2.02 70 1 C69.34 1 68.68 1 68 1 C68 1.99 68 2.98 68 4 C67.34 4 66.68 4 66 4 C66 3.01 66 2.02 66 1 C65.34 1 64.68 1 64 1 C64 1.99 64 2.98 64 4 C63.34 4 62.68 4 62 4 C62 3.01 62 2.02 62 1 C61.34 1 60.68 1 60 1 C60 1.99 60 2.98 60 4 C59.34 4 58.68 4 58 4 C58 3.01 58 2.02 58 1 C57.34 1 56.68 1 56 1 C56 1.99 56 2.98 56 4 C55.34 4 54.68 4 54 4 C54 3.01 54 2.02 54 1 C53.34 1 52.68 1 52 1 C52 1.99 52 2.98 52 4 C51.34 4 50.68 4 50 4 C50 3.01 50 2.02 50 1 C49.34 1 48.68 1 48 1 C48 1.99 48 2.98 48 4 C47.34 4 46.68 4 46 4 C46 3.01 46 2.02 46 1 C45.34 1 44.68 1 44 1 C44 1.99 44 2.98 44 4 C43.34 4 42.68 4 42 4 C42 3.01 42 2.02 42 1 C41.34 1 40.68 1 40 1 C40 1.99 40 2.98 40 4 C39.34 4 38.68 4 38 4 C38 3.01 38 2.02 38 1 C37.34 1 36.68 1 36 1 C36 1.99 36 2.98 36 4 C35.34 4 34.68 4 34 4 C34 3.01 34 2.02 34 1 C33.34 1 32.68 1 32 1 C32 1.99 32 2.98 32 4 C31.34 4 30.68 4 30 4 C30 3.01 30 2.02 30 1 C29.34 1 28.68 1 28 1 C28 1.99 28 2.98 28 4 C27.34 4 26.68 4 26 4 C26 3.01 26 2.02 26 1 C25.34 1 24.68 1 24 1 C24 1.99 24 2.98 24 4 C23.34 4 22.68 4 22 4 C22 3.01 22 2.02 22 1 C21.34 1 20.68 1 20 1 C20 1.99 20 2.98 20 4 C19.34 4 18.68 4 18 4 C18 3.01 18 2.02 18 1 C17.34 1 16.68 1 16 1 C16 1.99 16 2.98 16 4 C15.34 4 14.68 4 14 4 C14 3.01 14 2.02 14 1 C13.34 1 12.68 1 12 1 C12 1.99 12 2.98 12 4 C11.34 4 10.68 4 10 4 C10 3.01 10 2.02 10 1 C9.34 1 8.68 1 8 1 C8 1.99 8 2.98 8 4 C7.34 4 6.68 4 6 4 C6 3.01 6 2.02 6 1 C5.34 1 4.68 1 4 1 C4 1.99 4 2.98 4 4 C3.34 4 2.68 4 2 4 C2 3.01 2 2.02 2 1 C1.34 0.67 0.68 0.34 0 0 Z " fill="#979797" transform="translate(40,40)"/>
<path d="M0 0 C5.28 0 10.56 0 16 0 C16 3.96 16 7.92 16 12 C10.72 12 5.44 12 0 12 C0 8.04 0 4.08 0 0 Z " fill="#E9C203" transform="translate(204,188)"/>
<path d="M0 0 C5.28 0 10.56 0 16 0 C16 3.96 16 7.92 16 12 C10.72 12 5.44 12 0 12 C0 8.04 0 4.08 0 0 Z " fill="#D15504" transform="translate(204,152)"/>
<path d="M0 0 C5.28 0 10.56 0 16 0 C16 2.64 16 5.28 16 8 C10.72 8 5.44 8 0 8 C0 5.36 0 2.72 0 0 Z " fill="#8E8C8B" transform="translate(204,200)"/>
<path d="M0 0 C10.56 0 21.12 0 32 0 C32 1.32 32 2.64 32 4 C21.44 4 10.88 4 0 4 C0 2.68 0 1.36 0 0 Z " fill="#8D8D8D" transform="translate(112,140)"/>
<path d="M0 0 C4.62 0 9.24 0 14 0 C14 2.64 14 5.28 14 8 C9.38 8 4.76 8 0 8 C0 5.36 0 2.72 0 0 Z " fill="#F29910" transform="translate(205,176)"/>
<path d="M0 0 C0.33 0 0.66 0 1 0 C1 2.64 1 5.28 1 8 C5.62 8 10.24 8 15 8 C15 5.36 15 2.72 15 0 C15.33 0 15.66 0 16 0 C16 3.96 16 7.92 16 12 C10.72 12 5.44 12 0 12 C0 8.04 0 4.08 0 0 Z " fill="#E78722" transform="translate(204,176)"/>
<path d="M0 0 C5.28 0 10.56 0 16 0 C16 1.32 16 2.64 16 4 C10.72 4 5.44 4 0 4 C0 2.68 0 1.36 0 0 Z " fill="#E48125" transform="translate(204,196)"/>
<path d="M0 0 C2.64 0 5.28 0 8 0 C8 2.64 8 5.28 8 8 C5.36 8 2.72 8 0 8 C0 5.36 0 2.72 0 0 Z " fill="#323232" transform="translate(144,188)"/>
<path d="M0 0 C2.64 0 5.28 0 8 0 C8 2.64 8 5.28 8 8 C5.36 8 2.72 8 0 8 C0 5.36 0 2.72 0 0 Z " fill="#323232" transform="translate(132,188)"/>
<path d="M0 0 C2.64 0 5.28 0 8 0 C8 2.64 8 5.28 8 8 C5.36 8 2.72 8 0 8 C0 5.36 0 2.72 0 0 Z " fill="#323232" transform="translate(120,188)"/>
<path d="M0 0 C2.64 0 5.28 0 8 0 C8 2.64 8 5.28 8 8 C5.36 8 2.72 8 0 8 C0 5.36 0 2.72 0 0 Z " fill="#323232" transform="translate(108,188)"/>
<path d="M0 0 C2.64 0 5.28 0 8 0 C8 2.64 8 5.28 8 8 C5.36 8 2.72 8 0 8 C0 5.36 0 2.72 0 0 Z " fill="#323232" transform="translate(96,188)"/>
<path d="M0 0 C2.64 0 5.28 0 8 0 C8 2.64 8 5.28 8 8 C5.36 8 2.72 8 0 8 C0 5.36 0 2.72 0 0 Z " fill="#323232" transform="translate(84,188)"/>
<path d="M0 0 C2.64 0 5.28 0 8 0 C8 2.64 8 5.28 8 8 C5.36 8 2.72 8 0 8 C0 5.36 0 2.72 0 0 Z " fill="#323232" transform="translate(72,188)"/>
<path d="M0 0 C2.64 0 5.28 0 8 0 C8 2.64 8 5.28 8 8 C5.36 8 2.72 8 0 8 C0 5.36 0 2.72 0 0 Z " fill="#323232" transform="translate(164,176)"/>
<path d="M0 0 C2.64 0 5.28 0 8 0 C8 2.64 8 5.28 8 8 C5.36 8 2.72 8 0 8 C0 5.36 0 2.72 0 0 Z " fill="#323232" transform="translate(152,176)"/>
<path d="M0 0 C2.64 0 5.28 0 8 0 C8 2.64 8 5.28 8 8 C5.36 8 2.72 8 0 8 C0 5.36 0 2.72 0 0 Z " fill="#323232" transform="translate(140,176)"/>
<path d="M0 0 C2.64 0 5.28 0 8 0 C8 2.64 8 5.28 8 8 C5.36 8 2.72 8 0 8 C0 5.36 0 2.72 0 0 Z " fill="#323232" transform="translate(128,176)"/>
<path d="M0 0 C2.64 0 5.28 0 8 0 C8 2.64 8 5.28 8 8 C5.36 8 2.72 8 0 8 C0 5.36 0 2.72 0 0 Z " fill="#323232" transform="translate(116,176)"/>
<path d="M0 0 C2.64 0 5.28 0 8 0 C8 2.64 8 5.28 8 8 C5.36 8 2.72 8 0 8 C0 5.36 0 2.72 0 0 Z " fill="#323232" transform="translate(104,176)"/>
<path d="M0 0 C2.64 0 5.28 0 8 0 C8 2.64 8 5.28 8 8 C5.36 8 2.72 8 0 8 C0 5.36 0 2.72 0 0 Z " fill="#323232" transform="translate(92,176)"/>
<path d="M0 0 C2.64 0 5.28 0 8 0 C8 2.64 8 5.28 8 8 C5.36 8 2.72 8 0 8 C0 5.36 0 2.72 0 0 Z " fill="#323232" transform="translate(80,176)"/>
<path d="M0 0 C2.64 0 5.28 0 8 0 C8 2.64 8 5.28 8 8 C5.36 8 2.72 8 0 8 C0 5.36 0 2.72 0 0 Z " fill="#323232" transform="translate(68,176)"/>
<path d="M0 0 C2.64 0 5.28 0 8 0 C8 2.64 8 5.28 8 8 C5.36 8 2.72 8 0 8 C0 5.36 0 2.72 0 0 Z " fill="#323232" transform="translate(56,176)"/>
<path d="M0 0 C5.28 0 10.56 0 16 0 C16 1.32 16 2.64 16 4 C10.72 4 5.44 4 0 4 C0 2.68 0 1.36 0 0 Z " fill="#D45703" transform="translate(204,172)"/>
<path d="M0 0 C2.64 0 5.28 0 8 0 C8 2.64 8 5.28 8 8 C5.36 8 2.72 8 0 8 C0 5.36 0 2.72 0 0 Z " fill="#323232" transform="translate(172,164)"/>
<path d="M0 0 C2.64 0 5.28 0 8 0 C8 2.64 8 5.28 8 8 C5.36 8 2.72 8 0 8 C0 5.36 0 2.72 0 0 Z " fill="#323232" transform="translate(160,164)"/>
<path d="M0 0 C2.64 0 5.28 0 8 0 C8 2.64 8 5.28 8 8 C5.36 8 2.72 8 0 8 C0 5.36 0 2.72 0 0 Z " fill="#323232" transform="translate(148,164)"/>
<path d="M0 0 C2.64 0 5.28 0 8 0 C8 2.64 8 5.28 8 8 C5.36 8 2.72 8 0 8 C0 5.36 0 2.72 0 0 Z " fill="#323232" transform="translate(136,164)"/>
<path d="M0 0 C2.64 0 5.28 0 8 0 C8 2.64 8 5.28 8 8 C5.36 8 2.72 8 0 8 C0 5.36 0 2.72 0 0 Z " fill="#323232" transform="translate(124,164)"/>
<path d="M0 0 C2.64 0 5.28 0 8 0 C8 2.64 8 5.28 8 8 C5.36 8 2.72 8 0 8 C0 5.36 0 2.72 0 0 Z " fill="#323232" transform="translate(112,164)"/>
<path d="M0 0 C2.64 0 5.28 0 8 0 C8 2.64 8 5.28 8 8 C5.36 8 2.72 8 0 8 C0 5.36 0 2.72 0 0 Z " fill="#323232" transform="translate(100,164)"/>
<path d="M0 0 C2.64 0 5.28 0 8 0 C8 2.64 8 5.28 8 8 C5.36 8 2.72 8 0 8 C0 5.36 0 2.72 0 0 Z " fill="#323232" transform="translate(88,164)"/>
<path d="M0 0 C2.64 0 5.28 0 8 0 C8 2.64 8 5.28 8 8 C5.36 8 2.72 8 0 8 C0 5.36 0 2.72 0 0 Z " fill="#323232" transform="translate(76,164)"/>
<path d="M0 0 C2.64 0 5.28 0 8 0 C8 2.64 8 5.28 8 8 C5.36 8 2.72 8 0 8 C0 5.36 0 2.72 0 0 Z " fill="#323232" transform="translate(64,164)"/>
<path d="M0 0 C2.64 0 5.28 0 8 0 C8 2.64 8 5.28 8 8 C5.36 8 2.72 8 0 8 C0 5.36 0 2.72 0 0 Z " fill="#323232" transform="translate(52,164)"/>
<path d="M0 0 C5.28 0 10.56 0 16 0 C16 1.32 16 2.64 16 4 C10.72 4 5.44 4 0 4 C0 2.68 0 1.36 0 0 Z " fill="#BA0803" transform="translate(204,160)"/>
<path d="M0 0 C2.64 0 5.28 0 8 0 C8 2.31 8 4.62 8 7 C5.36 7 2.72 7 0 7 C0 4.69 0 2.38 0 0 Z " fill="#323232" transform="translate(60,153)"/>
<path d="M0 0 C2.64 0 5.28 0 8 0 C8 2.31 8 4.62 8 7 C5.36 7 2.72 7 0 7 C0 4.69 0 2.38 0 0 Z " fill="#323232" transform="translate(48,153)"/>
<path d="M0 0 C2.31 0 4.62 0 7 0 C7 2.31 7 4.62 7 7 C4.69 7 2.38 7 0 7 C0 4.69 0 2.38 0 0 Z " fill="#323232" transform="translate(37,153)"/>
<path d="M0 0 C0.99 0 1.98 0 3 0 C3 2.31 3 4.62 3 7 C2.01 7 1.02 7 0 7 C0 4.69 0 2.38 0 0 Z " fill="#313131" transform="translate(180,188)"/>
<path d="M0 0 C0.99 0 1.98 0 3 0 C3 2.31 3 4.62 3 7 C2.01 7 1.02 7 0 7 C0 4.69 0 2.38 0 0 Z " fill="#313131" transform="translate(192,153)"/>
</svg>
