<?xml version="1.0" encoding="UTF-8"?>
<!-- Generator: visioncortex VTracer 0.6.12 -->
<svg version="1.1" xmlns="http://www.w3.org/2000/svg" width="256" height="256">
<path d="M0 0 C0.445 -0.002 0.445 -0.002 2.697 -0.012 C5.686 -0.022 8.674 -0.018 11.663 -0.014 C13.803 -0.018 15.943 -0.023 18.084 -0.029 C23.902 -0.043 29.72 -0.043 35.538 -0.041 C40.392 -0.04 45.245 -0.045 50.099 -0.049 C61.547 -0.061 72.995 -0.061 84.443 -0.055 C96.262 -0.049 108.08 -0.061 119.899 -0.083 C130.039 -0.1 140.179 -0.106 150.32 -0.103 C156.379 -0.101 162.438 -0.104 168.497 -0.118 C174.195 -0.13 179.891 -0.128 185.589 -0.115 C187.681 -0.113 189.774 -0.116 191.866 -0.124 C194.72 -0.134 197.573 -0.126 200.426 -0.114 C201.257 -0.121 202.088 -0.128 202.944 -0.136 C210.636 -0.064 213.919 2.903 219.277 8.261 C220.163 8.776 221.05 9.292 221.964 9.823 C224.653 11.495 225.158 12.344 226.277 15.261 C226.577 18.101 226.577 18.101 226.589 21.198 C226.606 22.218 226.623 23.237 226.64 24.288 C226.229 27.652 225.107 29.451 223.277 32.261 C222.846 35.706 222.718 37.486 224.775 40.34 C226.939 44.548 226.704 48.321 226.681 52.989 C226.687 53.963 226.694 54.938 226.701 55.942 C226.72 59.16 226.716 62.378 226.71 65.597 C226.715 67.837 226.72 70.078 226.726 72.318 C226.735 77.014 226.732 81.71 226.723 86.405 C226.711 92.417 226.731 98.427 226.76 104.439 C226.779 109.066 226.779 113.693 226.773 118.321 C226.773 120.537 226.779 122.753 226.791 124.969 C226.806 128.071 226.795 131.172 226.778 134.274 C226.783 134.73 226.783 134.73 226.808 137.036 C226.739 142.934 225.899 146.526 222.277 151.261 C217.149 154.602 212.779 154.689 206.87 154.648 C206.401 154.651 206.401 154.651 204.024 154.665 C200.88 154.679 197.737 154.672 194.593 154.665 C192.338 154.67 190.082 154.677 187.827 154.686 C181.703 154.704 175.579 154.702 169.455 154.697 C164.343 154.694 159.231 154.7 154.119 154.706 C141.37 154.72 128.622 154.717 115.873 154.705 C104.808 154.695 93.742 154.708 82.677 154.732 C71.307 154.756 59.938 154.765 48.569 154.759 C42.188 154.756 35.808 154.758 29.428 154.775 C23.429 154.791 17.43 154.787 11.431 154.768 C9.229 154.764 7.028 154.767 4.827 154.778 C1.821 154.791 -1.184 154.78 -4.19 154.762 C-4.626 154.767 -4.626 154.767 -6.828 154.791 C-12.603 154.721 -15.976 153.597 -20.723 150.261 C-24.826 144.91 -24.146 138.631 -24.112 132.184 C-24.117 130.972 -24.122 129.76 -24.128 128.511 C-24.139 125.199 -24.136 121.888 -24.126 118.576 C-24.119 115.104 -24.126 111.633 -24.131 108.161 C-24.136 102.333 -24.129 96.505 -24.115 90.677 C-24.098 83.944 -24.104 77.212 -24.12 70.48 C-24.134 64.692 -24.136 58.904 -24.128 53.116 C-24.123 49.663 -24.122 46.209 -24.132 42.755 C-24.143 38.906 -24.128 35.057 -24.112 31.208 C-24.118 30.066 -24.124 28.925 -24.13 27.749 C-24.122 26.699 -24.113 25.649 -24.104 24.567 C-24.103 23.658 -24.102 22.748 -24.101 21.811 C-23.457 17.457 -20.781 14.237 -18.223 10.761 C-16.706 8.681 -15.417 6.709 -14.161 4.448 C-10.775 -0.705 -5.641 -0.026 0 0 Z " fill="#BFBFBF" transform="translate(26.723495483398438,50.73930358886719)"/>
<path d="M0 0 C0.66 0 1.32 0 2 0 C2 1.32 2 2.64 2 4 C2.66 4 3.32 4 4 4 C4 2.68 4 1.36 4 0 C4.66 0 5.32 0 6 0 C6 1.32 6 2.64 6 4 C6.66 4 7.32 4 8 4 C8 2.68 8 1.36 8 0 C8.66 0 9.32 0 10 0 C10 1.32 10 2.64 10 4 C10.66 4 11.32 4 12 4 C12 2.68 12 1.36 12 0 C12.66 0 13.32 0 14 0 C14 1.32 14 2.64 14 4 C14.66 4 15.32 4 16 4 C16 2.68 16 1.36 16 0 C16.66 0 17.32 0 18 0 C18 1.32 18 2.64 18 4 C18.66 4 19.32 4 20 4 C20 2.68 20 1.36 20 0 C20.66 0 21.32 0 22 0 C22 1.32 22 2.64 22 4 C22.66 4 23.32 4 24 4 C24 2.68 24 1.36 24 0 C24.66 0 25.32 0 26 0 C26 1.32 26 2.64 26 4 C26.66 4 27.32 4 28 4 C28 2.68 28 1.36 28 0 C28.66 0 29.32 0 30 0 C30 1.32 30 2.64 30 4 C30.66 4 31.32 4 32 4 C32 2.68 32 1.36 32 0 C32.66 0 33.32 0 34 0 C34 1.32 34 2.64 34 4 C34.66 4 35.32 4 36 4 C36 2.68 36 1.36 36 0 C36.66 0 37.32 0 38 0 C38 1.32 38 2.64 38 4 C38.66 4 39.32 4 40 4 C40 2.68 40 1.36 40 0 C40.66 0 41.32 0 42 0 C42 1.32 42 2.64 42 4 C42.66 4 43.32 4 44 4 C44 2.68 44 1.36 44 0 C44.66 0 45.32 0 46 0 C46 1.32 46 2.64 46 4 C46.66 4 47.32 4 48 4 C48 2.68 48 1.36 48 0 C48.66 0 49.32 0 50 0 C50 1.32 50 2.64 50 4 C50.66 4 51.32 4 52 4 C52 2.68 52 1.36 52 0 C52.66 0 53.32 0 54 0 C54 1.32 54 2.64 54 4 C54.66 4 55.32 4 56 4 C56 2.68 56 1.36 56 0 C56.66 0 57.32 0 58 0 C58 1.32 58 2.64 58 4 C58.66 4 59.32 4 60 4 C60 2.68 60 1.36 60 0 C60.66 0 61.32 0 62 0 C62 1.32 62 2.64 62 4 C62.66 4 63.32 4 64 4 C64 2.68 64 1.36 64 0 C64.66 0 65.32 0 66 0 C66 1.32 66 2.64 66 4 C66.66 4 67.32 4 68 4 C68 2.68 68 1.36 68 0 C68.66 0 69.32 0 70 0 C70 1.32 70 2.64 70 4 C70.66 4 71.32 4 72 4 C72 2.68 72 1.36 72 0 C72.66 0 73.32 0 74 0 C74 1.32 74 2.64 74 4 C74.66 4 75.32 4 76 4 C76 2.68 76 1.36 76 0 C76.66 0 77.32 0 78 0 C78 1.32 78 2.64 78 4 C78.66 4 79.32 4 80 4 C80 2.68 80 1.36 80 0 C80.66 0 81.32 0 82 0 C82 1.32 82 2.64 82 4 C82.66 4 83.32 4 84 4 C84 2.68 84 1.36 84 0 C84.66 0 85.32 0 86 0 C86 1.32 86 2.64 86 4 C86.66 4 87.32 4 88 4 C88 2.68 88 1.36 88 0 C88.66 0 89.32 0 90 0 C90 1.32 90 2.64 90 4 C90.66 4 91.32 4 92 4 C92 2.68 92 1.36 92 0 C92.66 0 93.32 0 94 0 C94 1.32 94 2.64 94 4 C94.66 4 95.32 4 96 4 C96 2.68 96 1.36 96 0 C96.66 0 97.32 0 98 0 C98 1.32 98 2.64 98 4 C98.66 4 99.32 4 100 4 C100 2.68 100 1.36 100 0 C100.66 0 101.32 0 102 0 C102 1.32 102 2.64 102 4 C102.66 4 103.32 4 104 4 C104 2.68 104 1.36 104 0 C104.66 0 105.32 0 106 0 C106 1.32 106 2.64 106 4 C106.66 4 107.32 4 108 4 C108 2.68 108 1.36 108 0 C108.66 0 109.32 0 110 0 C110 1.32 110 2.64 110 4 C110.66 4 111.32 4 112 4 C112 2.68 112 1.36 112 0 C112.66 0 113.32 0 114 0 C114 1.32 114 2.64 114 4 C114.66 4 115.32 4 116 4 C116 2.68 116 1.36 116 0 C116.66 0 117.32 0 118 0 C118 1.32 118 2.64 118 4 C118.66 4 119.32 4 120 4 C120 2.68 120 1.36 120 0 C120.66 0 121.32 0 122 0 C122 1.32 122 2.64 122 4 C122.66 4 123.32 4 124 4 C124 2.68 124 1.36 124 0 C124.66 0 125.32 0 126 0 C126 1.32 126 2.64 126 4 C126.66 4 127.32 4 128 4 C128 2.68 128 1.36 128 0 C128.66 0 129.32 0 130 0 C130 1.32 130 2.64 130 4 C130.66 4 131.32 4 132 4 C132 2.68 132 1.36 132 0 C132.66 0 133.32 0 134 0 C134 1.32 134 2.64 134 4 C134.66 4 135.32 4 136 4 C136 2.68 136 1.36 136 0 C136.66 0 137.32 0 138 0 C138 1.32 138 2.64 138 4 C138.66 4 139.32 4 140 4 C140 2.68 140 1.36 140 0 C140.66 0 141.32 0 142 0 C142 1.32 142 2.64 142 4 C142.66 4 143.32 4 144 4 C144 2.68 144 1.36 144 0 C144.66 0 145.32 0 146 0 C146 1.32 146 2.64 146 4 C146.66 4 147.32 4 148 4 C148 2.68 148 1.36 148 0 C148.66 0 149.32 0 150 0 C150 1.32 150 2.64 150 4 C150.66 4 151.32 4 152 4 C152 2.68 152 1.36 152 0 C152.66 0 153.32 0 154 0 C154 1.32 154 2.64 154 4 C154.66 4 155.32 4 156 4 C156 2.68 156 1.36 156 0 C156.66 0 157.32 0 158 0 C158 1.32 158 2.64 158 4 C158.66 4 159.32 4 160 4 C160 2.68 160 1.36 160 0 C160.66 0 161.32 0 162 0 C162 1.32 162 2.64 162 4 C162.66 4 163.32 4 164 4 C164 2.68 164 1.36 164 0 C164.66 0 165.32 0 166 0 C166 1.32 166 2.64 166 4 C166.66 4 167.32 4 168 4 C168 2.68 168 1.36 168 0 C168.66 0 169.32 0 170 0 C170 1.32 170 2.64 170 4 C170.66 4 171.32 4 172 4 C172 2.68 172 1.36 172 0 C172.66 0 173.32 0 174 0 C174 1.32 174 2.64 174 4 C174.66 4 175.32 4 176 4 C176 2.68 176 1.36 176 0 C176.66 0 177.32 0 178 0 C178 1.32 178 2.64 178 4 C178.66 4 179.32 4 180 4 C180 2.68 180 1.36 180 0 C180.66 0 181.32 0 182 0 C182 1.32 182 2.64 182 4 C182.66 4 183.32 4 184 4 C184 2.68 184 1.36 184 0 C184.66 0 185.32 0 186 0 C186 1.32 186 2.64 186 4 C186.66 4 187.32 4 188 4 C188 2.68 188 1.36 188 0 C188.66 0 189.32 0 190 0 C190 1.32 190 2.64 190 4 C190.66 4 191.32 4 192 4 C192 2.68 192 1.36 192 0 C192.66 0 193.32 0 194 0 C194 1.32 194 2.64 194 4 C194.66 4 195.32 4 196 4 C196 2.68 196 1.36 196 0 C196.66 0 197.32 0 198 0 C198 1.32 198 2.64 198 4 C198.66 4 199.32 4 200 4 C200 2.68 200 1.36 200 0 C200.66 0 201.32 0 202 0 C202 1.32 202 2.64 202 4 C202.66 4 203.32 4 204 4 C204 2.68 204 1.36 204 0 C204.66 0 205.32 0 206 0 C206 1.32 206 2.64 206 4 C206.66 4 207.32 4 208 4 C208 2.68 208 1.36 208 0 C208.66 0 209.32 0 210 0 C210 1.32 210 2.64 210 4 C210.66 4 211.32 4 212 4 C212 2.68 212 1.36 212 0 C212.66 0 213.32 0 214 0 C214 1.32 214 2.64 214 4 C215.65 4.33 217.3 4.66 219 5 C219.33 5.99 219.66 6.98 220 8 C221.32 8 222.64 8 224 8 C224 10.64 224 13.28 224 16 C222.68 16 221.36 16 220 16 C220 22.6 220 29.2 220 36 C221.32 36 222.64 36 224 36 C224 45.24 224 54.48 224 64 C222.68 64 221.36 64 220 64 C220 65.32 220 66.64 220 68 C146.08 68 72.16 68 -4 68 C-4 66.68 -4 65.36 -4 64 C-5.32 64 -6.64 64 -8 64 C-8 54.76 -8 45.52 -8 36 C-6.68 36 -5.36 36 -4 36 C-4 34.68 -4 33.36 -4 32 C-5.32 32 -6.64 32 -8 32 C-8 30.68 -8 29.36 -8 28 C-6.68 28 -5.36 28 -4 28 C-4 26.68 -4 25.36 -4 24 C-5.32 24 -6.64 24 -8 24 C-8 22.68 -8 21.36 -8 20 C-6.68 20 -5.36 20 -4 20 C-4 18.68 -4 17.36 -4 16 C-5.32 16 -6.64 16 -8 16 C-8 14.68 -8 13.36 -8 12 C-6.68 12 -5.36 12 -4 12 C-4 10.02 -4 8.04 -4 6 C-2.68 5.34 -1.36 4.68 0 4 C0 2.68 0 1.36 0 0 Z " fill="#BCBCBC" transform="translate(20,60)"/>
<path d="M0 0 C0.445 -0.002 0.445 -0.002 2.697 -0.012 C5.686 -0.022 8.674 -0.018 11.663 -0.014 C13.803 -0.018 15.943 -0.023 18.084 -0.029 C23.902 -0.043 29.72 -0.043 35.538 -0.041 C40.392 -0.04 45.245 -0.045 50.099 -0.049 C61.547 -0.061 72.995 -0.061 84.443 -0.055 C96.262 -0.049 108.08 -0.061 119.899 -0.083 C130.039 -0.1 140.179 -0.106 150.32 -0.103 C156.379 -0.101 162.438 -0.104 168.497 -0.118 C174.195 -0.13 179.891 -0.128 185.589 -0.115 C187.681 -0.113 189.774 -0.116 191.866 -0.124 C194.72 -0.134 197.573 -0.126 200.426 -0.114 C201.257 -0.121 202.088 -0.128 202.944 -0.136 C210.636 -0.064 213.919 2.903 219.277 8.261 C220.163 8.776 221.05 9.292 221.964 9.823 C224.653 11.495 225.158 12.344 226.277 15.261 C226.577 18.101 226.577 18.101 226.589 21.198 C226.606 22.218 226.623 23.237 226.64 24.288 C226.229 27.652 225.107 29.451 223.277 32.261 C222.846 35.706 222.718 37.486 224.775 40.34 C226.939 44.548 226.704 48.321 226.681 52.989 C226.687 53.963 226.694 54.938 226.701 55.942 C226.72 59.16 226.716 62.378 226.71 65.597 C226.715 67.837 226.72 70.078 226.726 72.318 C226.735 77.014 226.732 81.71 226.723 86.405 C226.711 92.417 226.731 98.427 226.76 104.439 C226.779 109.066 226.779 113.693 226.773 118.321 C226.773 120.537 226.779 122.753 226.791 124.969 C226.806 128.071 226.795 131.172 226.778 134.274 C226.783 134.73 226.783 134.73 226.808 137.036 C226.739 142.934 225.899 146.526 222.277 151.261 C217.149 154.602 212.779 154.689 206.87 154.648 C206.401 154.651 206.401 154.651 204.024 154.665 C200.88 154.679 197.737 154.672 194.593 154.665 C192.338 154.67 190.082 154.677 187.827 154.686 C181.703 154.704 175.579 154.702 169.455 154.697 C164.343 154.694 159.231 154.7 154.119 154.706 C141.37 154.72 128.622 154.717 115.873 154.705 C104.808 154.695 93.742 154.708 82.677 154.732 C71.307 154.756 59.938 154.765 48.569 154.759 C42.188 154.756 35.808 154.758 29.428 154.775 C23.429 154.791 17.43 154.787 11.431 154.768 C9.229 154.764 7.028 154.767 4.827 154.778 C1.821 154.791 -1.184 154.78 -4.19 154.762 C-4.626 154.767 -4.626 154.767 -6.828 154.791 C-12.603 154.721 -15.976 153.597 -20.723 150.261 C-24.826 144.91 -24.146 138.631 -24.112 132.184 C-24.117 130.972 -24.122 129.76 -24.128 128.511 C-24.139 125.199 -24.136 121.888 -24.126 118.576 C-24.119 115.104 -24.126 111.633 -24.131 108.161 C-24.136 102.333 -24.129 96.505 -24.115 90.677 C-24.098 83.944 -24.104 77.212 -24.12 70.48 C-24.134 64.692 -24.136 58.904 -24.128 53.116 C-24.123 49.663 -24.122 46.209 -24.132 42.755 C-24.143 38.906 -24.128 35.057 -24.112 31.208 C-24.118 30.066 -24.124 28.925 -24.13 27.749 C-24.122 26.699 -24.113 25.649 -24.104 24.567 C-24.103 23.658 -24.102 22.748 -24.101 21.811 C-23.457 17.457 -20.781 14.237 -18.223 10.761 C-16.706 8.681 -15.417 6.709 -14.161 4.448 C-10.775 -0.705 -5.641 -0.026 0 0 Z M-6.723 9.261 C-6.723 10.581 -6.723 11.901 -6.723 13.261 C-7.383 13.591 -7.383 13.591 -10.723 15.261 C-10.723 17.241 -10.723 19.221 -10.723 21.261 C-12.043 21.261 -13.363 21.261 -14.723 21.261 C-14.723 22.581 -14.723 23.901 -14.723 25.261 C-13.403 25.261 -12.083 25.261 -10.723 25.261 C-10.723 26.581 -10.723 27.901 -10.723 29.261 C-12.043 29.261 -13.363 29.261 -14.723 29.261 C-14.723 30.581 -14.723 31.901 -14.723 33.261 C-13.403 33.261 -12.083 33.261 -10.723 33.261 C-10.723 34.581 -10.723 35.901 -10.723 37.261 C-12.043 37.261 -13.363 37.261 -14.723 37.261 C-14.723 38.581 -14.723 39.901 -14.723 41.261 C-13.403 41.261 -12.083 41.261 -10.723 41.261 C-10.723 42.581 -10.723 43.901 -10.723 45.261 C-12.043 45.261 -13.363 45.261 -14.723 45.261 C-14.723 54.501 -14.723 63.741 -14.723 73.261 C-13.403 73.261 -12.083 73.261 -10.723 73.261 C-10.723 74.581 -10.723 75.901 -10.723 77.261 C-12.043 77.261 -13.363 77.261 -14.723 77.261 C-14.77 85.831 -14.805 94.402 -14.827 102.973 C-14.838 106.953 -14.852 110.932 -14.874 114.912 C-14.896 118.75 -14.908 122.588 -14.913 126.427 C-14.917 127.893 -14.924 129.36 -14.935 130.826 C-14.949 132.876 -14.951 134.925 -14.951 136.975 C-14.955 138.143 -14.959 139.311 -14.964 140.515 C-14.723 143.261 -14.723 143.261 -12.723 145.261 C-9.732 145.459 -6.833 145.53 -3.841 145.515 C-2.909 145.518 -1.978 145.521 -1.018 145.524 C2.122 145.532 5.261 145.526 8.402 145.519 C10.645 145.522 12.888 145.526 15.131 145.53 C21.239 145.539 27.346 145.536 33.453 145.529 C39.832 145.524 46.21 145.529 52.589 145.532 C63.99 145.536 75.39 145.53 86.791 145.52 C97.135 145.511 107.479 145.512 117.823 145.521 C129.826 145.532 141.828 145.536 153.83 145.53 C160.187 145.527 166.544 145.527 172.902 145.533 C178.877 145.539 184.852 145.535 190.827 145.523 C193.026 145.521 195.225 145.522 197.423 145.526 C200.414 145.531 203.404 145.525 206.394 145.515 C207.274 145.519 208.154 145.524 209.06 145.528 C215.048 145.489 215.048 145.489 217.277 143.261 C217.517 140.515 217.517 140.515 217.504 136.975 C217.504 136.331 217.504 135.687 217.504 135.023 C217.503 132.891 217.487 130.76 217.472 128.628 C217.468 127.151 217.465 125.674 217.463 124.197 C217.456 120.308 217.436 116.418 217.414 112.528 C217.393 108.56 217.384 104.592 217.374 100.624 C217.353 92.836 217.319 85.048 217.277 77.261 C215.957 77.261 214.637 77.261 213.277 77.261 C213.277 75.941 213.277 74.621 213.277 73.261 C214.597 73.261 215.917 73.261 217.277 73.261 C217.277 64.021 217.277 54.781 217.277 45.261 C215.957 45.261 214.637 45.261 213.277 45.261 C213.277 38.661 213.277 32.061 213.277 25.261 C214.597 25.261 215.917 25.261 217.277 25.261 C217.277 22.621 217.277 19.981 217.277 17.261 C215.957 17.261 214.637 17.261 213.277 17.261 C212.947 16.601 212.947 16.601 211.277 13.261 C209.957 13.261 208.637 13.261 207.277 13.261 C207.277 11.941 207.277 10.621 207.277 9.261 C206.617 9.261 205.957 9.261 205.277 9.261 C205.277 10.581 205.277 11.901 205.277 13.261 C204.617 13.261 203.957 13.261 203.277 13.261 C203.277 11.941 203.277 10.621 203.277 9.261 C202.617 9.261 201.957 9.261 201.277 9.261 C201.277 10.581 201.277 11.901 201.277 13.261 C200.617 13.261 199.957 13.261 199.277 13.261 C199.277 11.941 199.277 10.621 199.277 9.261 C198.617 9.261 197.957 9.261 197.277 9.261 C197.277 10.581 197.277 11.901 197.277 13.261 C196.617 13.261 195.957 13.261 195.277 13.261 C195.277 11.941 195.277 10.621 195.277 9.261 C194.617 9.261 193.957 9.261 193.277 9.261 C193.277 10.581 193.277 11.901 193.277 13.261 C192.617 13.261 191.957 13.261 191.277 13.261 C191.277 11.941 191.277 10.621 191.277 9.261 C190.617 9.261 189.957 9.261 189.277 9.261 C189.277 10.581 189.277 11.901 189.277 13.261 C188.617 13.261 187.957 13.261 187.277 13.261 C187.277 11.941 187.277 10.621 187.277 9.261 C186.617 9.261 185.957 9.261 185.277 9.261 C185.277 10.581 185.277 11.901 185.277 13.261 C184.617 13.261 183.957 13.261 183.277 13.261 C183.277 11.941 183.277 10.621 183.277 9.261 C182.617 9.261 181.957 9.261 181.277 9.261 C181.277 10.581 181.277 11.901 181.277 13.261 C180.617 13.261 179.957 13.261 179.277 13.261 C179.277 11.941 179.277 10.621 179.277 9.261 C178.617 9.261 177.957 9.261 177.277 9.261 C177.277 10.581 177.277 11.901 177.277 13.261 C176.617 13.261 175.957 13.261 175.277 13.261 C175.277 11.941 175.277 10.621 175.277 9.261 C174.617 9.261 173.957 9.261 173.277 9.261 C173.277 10.581 173.277 11.901 173.277 13.261 C172.617 13.261 171.957 13.261 171.277 13.261 C171.277 11.941 171.277 10.621 171.277 9.261 C170.617 9.261 169.957 9.261 169.277 9.261 C169.277 10.581 169.277 11.901 169.277 13.261 C168.617 13.261 167.957 13.261 167.277 13.261 C167.277 11.941 167.277 10.621 167.277 9.261 C166.617 9.261 165.957 9.261 165.277 9.261 C165.277 10.581 165.277 11.901 165.277 13.261 C164.617 13.261 163.957 13.261 163.277 13.261 C163.277 11.941 163.277 10.621 163.277 9.261 C162.617 9.261 161.957 9.261 161.277 9.261 C161.277 10.581 161.277 11.901 161.277 13.261 C160.617 13.261 159.957 13.261 159.277 13.261 C159.277 11.941 159.277 10.621 159.277 9.261 C158.617 9.261 157.957 9.261 157.277 9.261 C157.277 10.581 157.277 11.901 157.277 13.261 C156.617 13.261 155.957 13.261 155.277 13.261 C155.277 11.941 155.277 10.621 155.277 9.261 C154.617 9.261 153.957 9.261 153.277 9.261 C153.277 10.581 153.277 11.901 153.277 13.261 C152.617 13.261 151.957 13.261 151.277 13.261 C151.277 11.941 151.277 10.621 151.277 9.261 C150.617 9.261 149.957 9.261 149.277 9.261 C149.277 10.581 149.277 11.901 149.277 13.261 C148.617 13.261 147.957 13.261 147.277 13.261 C147.277 11.941 147.277 10.621 147.277 9.261 C146.617 9.261 145.957 9.261 145.277 9.261 C145.277 10.581 145.277 11.901 145.277 13.261 C144.617 13.261 143.957 13.261 143.277 13.261 C143.277 11.941 143.277 10.621 143.277 9.261 C142.617 9.261 141.957 9.261 141.277 9.261 C141.277 10.581 141.277 11.901 141.277 13.261 C140.617 13.261 139.957 13.261 139.277 13.261 C139.277 11.941 139.277 10.621 139.277 9.261 C138.617 9.261 137.957 9.261 137.277 9.261 C137.277 10.581 137.277 11.901 137.277 13.261 C136.617 13.261 135.957 13.261 135.277 13.261 C135.277 11.941 135.277 10.621 135.277 9.261 C134.617 9.261 133.957 9.261 133.277 9.261 C133.277 10.581 133.277 11.901 133.277 13.261 C132.617 13.261 131.957 13.261 131.277 13.261 C131.277 11.941 131.277 10.621 131.277 9.261 C130.617 9.261 129.957 9.261 129.277 9.261 C129.277 10.581 129.277 11.901 129.277 13.261 C128.617 13.261 127.957 13.261 127.277 13.261 C127.277 11.941 127.277 10.621 127.277 9.261 C126.617 9.261 125.957 9.261 125.277 9.261 C125.277 10.581 125.277 11.901 125.277 13.261 C124.617 13.261 123.957 13.261 123.277 13.261 C123.277 11.941 123.277 10.621 123.277 9.261 C122.617 9.261 121.957 9.261 121.277 9.261 C121.277 10.581 121.277 11.901 121.277 13.261 C120.617 13.261 119.957 13.261 119.277 13.261 C119.277 11.941 119.277 10.621 119.277 9.261 C118.617 9.261 117.957 9.261 117.277 9.261 C117.277 10.581 117.277 11.901 117.277 13.261 C116.617 13.261 115.957 13.261 115.277 13.261 C115.277 11.941 115.277 10.621 115.277 9.261 C114.617 9.261 113.957 9.261 113.277 9.261 C113.277 10.581 113.277 11.901 113.277 13.261 C112.617 13.261 111.957 13.261 111.277 13.261 C111.277 11.941 111.277 10.621 111.277 9.261 C110.617 9.261 109.957 9.261 109.277 9.261 C109.277 10.581 109.277 11.901 109.277 13.261 C108.617 13.261 107.957 13.261 107.277 13.261 C107.277 11.941 107.277 10.621 107.277 9.261 C106.617 9.261 105.957 9.261 105.277 9.261 C105.277 10.581 105.277 11.901 105.277 13.261 C104.617 13.261 103.957 13.261 103.277 13.261 C103.277 11.941 103.277 10.621 103.277 9.261 C102.617 9.261 101.957 9.261 101.277 9.261 C101.277 10.581 101.277 11.901 101.277 13.261 C100.617 13.261 99.957 13.261 99.277 13.261 C99.277 11.941 99.277 10.621 99.277 9.261 C98.617 9.261 97.957 9.261 97.277 9.261 C97.277 10.581 97.277 11.901 97.277 13.261 C96.617 13.261 95.957 13.261 95.277 13.261 C95.277 11.941 95.277 10.621 95.277 9.261 C94.617 9.261 93.957 9.261 93.277 9.261 C93.277 10.581 93.277 11.901 93.277 13.261 C92.617 13.261 91.957 13.261 91.277 13.261 C91.277 11.941 91.277 10.621 91.277 9.261 C90.617 9.261 89.957 9.261 89.277 9.261 C89.277 10.581 89.277 11.901 89.277 13.261 C88.617 13.261 87.957 13.261 87.277 13.261 C87.277 11.941 87.277 10.621 87.277 9.261 C86.617 9.261 85.957 9.261 85.277 9.261 C85.277 10.581 85.277 11.901 85.277 13.261 C84.617 13.261 83.957 13.261 83.277 13.261 C83.277 11.941 83.277 10.621 83.277 9.261 C82.617 9.261 81.957 9.261 81.277 9.261 C81.277 10.581 81.277 11.901 81.277 13.261 C80.617 13.261 79.957 13.261 79.277 13.261 C79.277 11.941 79.277 10.621 79.277 9.261 C78.617 9.261 77.957 9.261 77.277 9.261 C77.277 10.581 77.277 11.901 77.277 13.261 C76.617 13.261 75.957 13.261 75.277 13.261 C75.277 11.941 75.277 10.621 75.277 9.261 C74.617 9.261 73.957 9.261 73.277 9.261 C73.277 10.581 73.277 11.901 73.277 13.261 C72.617 13.261 71.957 13.261 71.277 13.261 C71.277 11.941 71.277 10.621 71.277 9.261 C70.617 9.261 69.957 9.261 69.277 9.261 C69.277 10.581 69.277 11.901 69.277 13.261 C68.617 13.261 67.957 13.261 67.277 13.261 C67.277 11.941 67.277 10.621 67.277 9.261 C66.617 9.261 65.957 9.261 65.277 9.261 C65.277 10.581 65.277 11.901 65.277 13.261 C64.617 13.261 63.957 13.261 63.277 13.261 C63.277 11.941 63.277 10.621 63.277 9.261 C62.617 9.261 61.957 9.261 61.277 9.261 C61.277 10.581 61.277 11.901 61.277 13.261 C60.617 13.261 59.957 13.261 59.277 13.261 C59.277 11.941 59.277 10.621 59.277 9.261 C58.617 9.261 57.957 9.261 57.277 9.261 C57.277 10.581 57.277 11.901 57.277 13.261 C56.617 13.261 55.957 13.261 55.277 13.261 C55.277 11.941 55.277 10.621 55.277 9.261 C54.617 9.261 53.957 9.261 53.277 9.261 C53.277 10.581 53.277 11.901 53.277 13.261 C52.617 13.261 51.957 13.261 51.277 13.261 C51.277 11.941 51.277 10.621 51.277 9.261 C50.617 9.261 49.957 9.261 49.277 9.261 C49.277 10.581 49.277 11.901 49.277 13.261 C48.617 13.261 47.957 13.261 47.277 13.261 C47.277 11.941 47.277 10.621 47.277 9.261 C46.617 9.261 45.957 9.261 45.277 9.261 C45.277 10.581 45.277 11.901 45.277 13.261 C44.617 13.261 43.957 13.261 43.277 13.261 C43.277 11.941 43.277 10.621 43.277 9.261 C42.617 9.261 41.957 9.261 41.277 9.261 C41.277 10.581 41.277 11.901 41.277 13.261 C40.617 13.261 39.957 13.261 39.277 13.261 C39.277 11.941 39.277 10.621 39.277 9.261 C38.617 9.261 37.957 9.261 37.277 9.261 C37.277 10.581 37.277 11.901 37.277 13.261 C36.617 13.261 35.957 13.261 35.277 13.261 C35.277 11.941 35.277 10.621 35.277 9.261 C34.617 9.261 33.957 9.261 33.277 9.261 C33.277 10.581 33.277 11.901 33.277 13.261 C32.617 13.261 31.957 13.261 31.277 13.261 C31.277 11.941 31.277 10.621 31.277 9.261 C30.617 9.261 29.957 9.261 29.277 9.261 C29.277 10.581 29.277 11.901 29.277 13.261 C28.617 13.261 27.957 13.261 27.277 13.261 C27.277 11.941 27.277 10.621 27.277 9.261 C26.617 9.261 25.957 9.261 25.277 9.261 C25.277 10.581 25.277 11.901 25.277 13.261 C24.617 13.261 23.957 13.261 23.277 13.261 C23.277 11.941 23.277 10.621 23.277 9.261 C22.617 9.261 21.957 9.261 21.277 9.261 C21.277 10.581 21.277 11.901 21.277 13.261 C20.617 13.261 19.957 13.261 19.277 13.261 C19.277 11.941 19.277 10.621 19.277 9.261 C18.617 9.261 17.957 9.261 17.277 9.261 C17.277 10.581 17.277 11.901 17.277 13.261 C16.617 13.261 15.957 13.261 15.277 13.261 C15.277 11.941 15.277 10.621 15.277 9.261 C14.617 9.261 13.957 9.261 13.277 9.261 C13.277 10.581 13.277 11.901 13.277 13.261 C12.617 13.261 11.957 13.261 11.277 13.261 C11.277 11.941 11.277 10.621 11.277 9.261 C10.617 9.261 9.957 9.261 9.277 9.261 C9.277 10.581 9.277 11.901 9.277 13.261 C8.617 13.261 7.957 13.261 7.277 13.261 C7.277 11.941 7.277 10.621 7.277 9.261 C6.617 9.261 5.957 9.261 5.277 9.261 C5.277 10.581 5.277 11.901 5.277 13.261 C4.617 13.261 3.957 13.261 3.277 13.261 C3.277 11.941 3.277 10.621 3.277 9.261 C2.617 9.261 1.957 9.261 1.277 9.261 C1.277 10.581 1.277 11.901 1.277 13.261 C0.617 13.261 -0.043 13.261 -0.723 13.261 C-0.723 11.941 -0.723 10.621 -0.723 9.261 C-1.383 9.261 -2.043 9.261 -2.723 9.261 C-2.723 10.581 -2.723 11.901 -2.723 13.261 C-3.383 13.261 -4.043 13.261 -4.723 13.261 C-4.723 11.941 -4.723 10.621 -4.723 9.261 C-5.383 9.261 -6.043 9.261 -6.723 9.261 Z " fill="#FCFCFC" transform="translate(26.723495483398438,50.73930358886719)"/>
<path d="M0 0 C73.92 0 147.84 0 224 0 C224 1.32 224 2.64 224 4 C150.08 4 76.16 4 0 4 C0 2.68 0 1.36 0 0 Z " fill="#9B9B9B" transform="translate(16,124)"/>
<path d="M0 0 C69.96 0 139.92 0 212 0 C212 1.32 212 2.64 212 4 C142.04 4 72.08 4 0 4 C0 2.68 0 1.36 0 0 Z " fill="#9B9B9B" transform="translate(16,92)"/>
<path d="M0 0 C69.96 0 139.92 0 212 0 C212 1.32 212 2.64 212 4 C142.04 4 72.08 4 0 4 C0 2.68 0 1.36 0 0 Z " fill="#9B9B9B" transform="translate(16,84)"/>
<path d="M0 0 C69.96 0 139.92 0 212 0 C212 1.32 212 2.64 212 4 C142.04 4 72.08 4 0 4 C0 2.68 0 1.36 0 0 Z " fill="#9B9B9B" transform="translate(16,76)"/>
<path d="M0 0 C26.4 0 52.8 0 80 0 C80 2.64 80 5.28 80 8 C53.6 8 27.2 8 0 8 C0 5.36 0 2.72 0 0 Z " fill="#D8D8D8" transform="translate(36,184)"/>
<path d="M0 0 C13.2 0 26.4 0 40 0 C40 2.31 40 4.62 40 7 C39 8 39 8 35.306 8.114 C33.661 8.113 32.016 8.108 30.371 8.098 C29.939 8.097 29.939 8.097 27.752 8.093 C24.981 8.088 22.209 8.075 19.438 8.062 C17.563 8.057 15.689 8.053 13.814 8.049 C9.21 8.038 4.605 8.021 0 8 C0 5.36 0 2.72 0 0 Z " fill="#CBCBCB" transform="translate(196,116)"/>
<path d="M0 0 C2.64 0 5.28 0 8 0 C8 6.6 8 13.2 8 20 C2.72 20 -2.56 20 -8 20 C-8 17.36 -8 14.72 -8 12 C-5.36 12 -2.72 12 0 12 C0 8.04 0 4.08 0 0 Z " fill="#9A9A9A" transform="translate(140,160)"/>
<path d="M0 0 C2.64 0 5.28 0 8 0 C8 6.6 8 13.2 8 20 C5.36 20 2.72 20 0 20 C0 13.4 0 6.8 0 0 Z " fill="#9A9A9A" transform="translate(232,172)"/>
<path d="M0 0 C5.28 0 10.56 0 16 0 C16 2.64 16 5.28 16 8 C10.72 8 5.44 8 0 8 C0 5.36 0 2.72 0 0 Z " fill="#9A9A9A" transform="translate(16,172)"/>
<path d="M0 0 C3.96 0 7.92 0 12 0 C12 2.64 12 5.28 12 8 C8.04 8 4.08 8 0 8 C0 5.36 0 2.72 0 0 Z " fill="#9A9A9A" transform="translate(120,184)"/>
<path d="M0 0 C3.96 0 7.92 0 12 0 C12 2.64 12 5.28 12 8 C8.04 8 4.08 8 0 8 C0 5.36 0 2.72 0 0 Z " fill="#9A9A9A" transform="translate(20,184)"/>
<path d="M0 0 C3.96 0 7.92 0 12 0 C12 2.64 12 5.28 12 8 C8.04 8 4.08 8 0 8 C0 5.36 0 2.72 0 0 Z " fill="#9A9A9A" transform="translate(16,160)"/>
<path d="M0 0 C3.96 0 7.92 0 12 0 C12 2.64 12 5.28 12 8 C8.04 8 4.08 8 0 8 C0 5.36 0 2.72 0 0 Z " fill="#9A9A9A" transform="translate(176,148)"/>
<path d="M0 0 C3.96 0 7.92 0 12 0 C12 2.64 12 5.28 12 8 C8.04 8 4.08 8 0 8 C0 5.36 0 2.72 0 0 Z " fill="#9A9A9A" transform="translate(156,148)"/>
<path d="M0 0 C3.96 0 7.92 0 12 0 C12 2.64 12 5.28 12 8 C8.04 8 4.08 8 0 8 C0 5.36 0 2.72 0 0 Z " fill="#9A9A9A" transform="translate(136,148)"/>
<path d="M0 0 C2.64 0 5.28 0 8 0 C8 2.64 8 5.28 8 8 C5.36 8 2.72 8 0 8 C0 5.36 0 2.72 0 0 Z " fill="#D7D7D7" transform="translate(220,184)"/>
<path d="M0 0 C2.64 0 5.28 0 8 0 C8 2.64 8 5.28 8 8 C5.36 8 2.72 8 0 8 C0 5.36 0 2.72 0 0 Z " fill="#D7D7D7" transform="translate(208,184)"/>
<path d="M0 0 C2.64 0 5.28 0 8 0 C8 2.64 8 5.28 8 8 C5.36 8 2.72 8 0 8 C0 5.36 0 2.72 0 0 Z " fill="#D7D7D7" transform="translate(196,184)"/>
<path d="M0 0 C2.64 0 5.28 0 8 0 C8 2.64 8 5.28 8 8 C5.36 8 2.72 8 0 8 C0 5.36 0 2.72 0 0 Z " fill="#D7D7D7" transform="translate(180,184)"/>
<path d="M0 0 C2.64 0 5.28 0 8 0 C8 2.64 8 5.28 8 8 C5.36 8 2.72 8 0 8 C0 5.36 0 2.72 0 0 Z " fill="#D7D7D7" transform="translate(168,184)"/>
<path d="M0 0 C2.64 0 5.28 0 8 0 C8 2.64 8 5.28 8 8 C5.36 8 2.72 8 0 8 C0 5.36 0 2.72 0 0 Z " fill="#D7D7D7" transform="translate(156,184)"/>
<path d="M0 0 C2.64 0 5.28 0 8 0 C8 2.64 8 5.28 8 8 C5.36 8 2.72 8 0 8 C0 5.36 0 2.72 0 0 Z " fill="#9B9B9B" transform="translate(136,184)"/>
<path d="M0 0 C2.64 0 5.28 0 8 0 C8 2.64 8 5.28 8 8 C5.36 8 2.72 8 0 8 C0 5.36 0 2.72 0 0 Z " fill="#D7D7D7" transform="translate(220,172)"/>
<path d="M0 0 C2.64 0 5.28 0 8 0 C8 2.64 8 5.28 8 8 C5.36 8 2.72 8 0 8 C0 5.36 0 2.72 0 0 Z " fill="#D7D7D7" transform="translate(208,172)"/>
<path d="M0 0 C2.64 0 5.28 0 8 0 C8 2.64 8 5.28 8 8 C5.36 8 2.72 8 0 8 C0 5.36 0 2.72 0 0 Z " fill="#D7D7D7" transform="translate(196,172)"/>
<path d="M0 0 C2.64 0 5.28 0 8 0 C8 2.64 8 5.28 8 8 C5.36 8 2.72 8 0 8 C0 5.36 0 2.72 0 0 Z " fill="#D7D7D7" transform="translate(168,172)"/>
<path d="M0 0 C2.64 0 5.28 0 8 0 C8 2.64 8 5.28 8 8 C5.36 8 2.72 8 0 8 C0 5.36 0 2.72 0 0 Z " fill="#D7D7D7" transform="translate(120,172)"/>
<path d="M0 0 C2.64 0 5.28 0 8 0 C8 2.64 8 5.28 8 8 C5.36 8 2.72 8 0 8 C0 5.36 0 2.72 0 0 Z " fill="#D7D7D7" transform="translate(108,172)"/>
<path d="M0 0 C2.64 0 5.28 0 8 0 C8 2.64 8 5.28 8 8 C5.36 8 2.72 8 0 8 C0 5.36 0 2.72 0 0 Z " fill="#D7D7D7" transform="translate(96,172)"/>
<path d="M0 0 C2.64 0 5.28 0 8 0 C8 2.64 8 5.28 8 8 C5.36 8 2.72 8 0 8 C0 5.36 0 2.72 0 0 Z " fill="#D7D7D7" transform="translate(84,172)"/>
<path d="M0 0 C2.64 0 5.28 0 8 0 C8 2.64 8 5.28 8 8 C5.36 8 2.72 8 0 8 C0 5.36 0 2.72 0 0 Z " fill="#D7D7D7" transform="translate(72,172)"/>
<path d="M0 0 C2.64 0 5.28 0 8 0 C8 2.64 8 5.28 8 8 C5.36 8 2.72 8 0 8 C0 5.36 0 2.72 0 0 Z " fill="#D7D7D7" transform="translate(60,172)"/>
<path d="M0 0 C2.64 0 5.28 0 8 0 C8 2.64 8 5.28 8 8 C5.36 8 2.72 8 0 8 C0 5.36 0 2.72 0 0 Z " fill="#D7D7D7" transform="translate(48,172)"/>
<path d="M0 0 C2.64 0 5.28 0 8 0 C8 2.64 8 5.28 8 8 C5.36 8 2.72 8 0 8 C0 5.36 0 2.72 0 0 Z " fill="#D7D7D7" transform="translate(36,172)"/>
<path d="M0 0 C2.64 0 5.28 0 8 0 C8 2.64 8 5.28 8 8 C5.36 8 2.72 8 0 8 C0 5.36 0 2.72 0 0 Z " fill="#9B9B9B" transform="translate(232,160)"/>
<path d="M0 0 C2.64 0 5.28 0 8 0 C8 2.64 8 5.28 8 8 C5.36 8 2.72 8 0 8 C0 5.36 0 2.72 0 0 Z " fill="#D7D7D7" transform="translate(220,160)"/>
<path d="M0 0 C2.64 0 5.28 0 8 0 C8 2.64 8 5.28 8 8 C5.36 8 2.72 8 0 8 C0 5.36 0 2.72 0 0 Z " fill="#D7D7D7" transform="translate(208,160)"/>
<path d="M0 0 C2.64 0 5.28 0 8 0 C8 2.64 8 5.28 8 8 C5.36 8 2.72 8 0 8 C0 5.36 0 2.72 0 0 Z " fill="#D7D7D7" transform="translate(196,160)"/>
<path d="M0 0 C2.64 0 5.28 0 8 0 C8 2.64 8 5.28 8 8 C5.36 8 2.72 8 0 8 C0 5.36 0 2.72 0 0 Z " fill="#D7D7D7" transform="translate(128,160)"/>
<path d="M0 0 C2.64 0 5.28 0 8 0 C8 2.64 8 5.28 8 8 C5.36 8 2.72 8 0 8 C0 5.36 0 2.72 0 0 Z " fill="#D7D7D7" transform="translate(116,160)"/>
<path d="M0 0 C2.64 0 5.28 0 8 0 C8 2.64 8 5.28 8 8 C5.36 8 2.72 8 0 8 C0 5.36 0 2.72 0 0 Z " fill="#D7D7D7" transform="translate(104,160)"/>
<path d="M0 0 C2.64 0 5.28 0 8 0 C8 2.64 8 5.28 8 8 C5.36 8 2.72 8 0 8 C0 5.36 0 2.72 0 0 Z " fill="#D7D7D7" transform="translate(92,160)"/>
<path d="M0 0 C2.64 0 5.28 0 8 0 C8 2.64 8 5.28 8 8 C5.36 8 2.72 8 0 8 C0 5.36 0 2.72 0 0 Z " fill="#D7D7D7" transform="translate(80,160)"/>
<path d="M0 0 C2.64 0 5.28 0 8 0 C8 2.64 8 5.28 8 8 C5.36 8 2.72 8 0 8 C0 5.36 0 2.72 0 0 Z " fill="#D7D7D7" transform="translate(68,160)"/>
<path d="M0 0 C2.64 0 5.28 0 8 0 C8 2.64 8 5.28 8 8 C5.36 8 2.72 8 0 8 C0 5.36 0 2.72 0 0 Z " fill="#D7D7D7" transform="translate(56,160)"/>
<path d="M0 0 C2.64 0 5.28 0 8 0 C8 2.64 8 5.28 8 8 C5.36 8 2.72 8 0 8 C0 5.36 0 2.72 0 0 Z " fill="#D7D7D7" transform="translate(44,160)"/>
<path d="M0 0 C2.64 0 5.28 0 8 0 C8 2.64 8 5.28 8 8 C5.36 8 2.72 8 0 8 C0 5.36 0 2.72 0 0 Z " fill="#D7D7D7" transform="translate(32,160)"/>
<path d="M0 0 C2.64 0 5.28 0 8 0 C8 2.64 8 5.28 8 8 C5.36 8 2.72 8 0 8 C0 5.36 0 2.72 0 0 Z " fill="#9B9B9B" transform="translate(232,148)"/>
<path d="M0 0 C2.64 0 5.28 0 8 0 C8 2.64 8 5.28 8 8 C5.36 8 2.72 8 0 8 C0 5.36 0 2.72 0 0 Z " fill="#9B9B9B" transform="translate(220,148)"/>
<path d="M0 0 C2.64 0 5.28 0 8 0 C8 2.64 8 5.28 8 8 C5.36 8 2.72 8 0 8 C0 5.36 0 2.72 0 0 Z " fill="#9B9B9B" transform="translate(208,148)"/>
<path d="M0 0 C2.64 0 5.28 0 8 0 C8 2.64 8 5.28 8 8 C5.36 8 2.72 8 0 8 C0 5.36 0 2.72 0 0 Z " fill="#9B9B9B" transform="translate(196,148)"/>
<path d="M0 0 C2.64 0 5.28 0 8 0 C8 2.64 8 5.28 8 8 C5.36 8 2.72 8 0 8 C0 5.36 0 2.72 0 0 Z " fill="#D7D7D7" transform="translate(124,148)"/>
<path d="M0 0 C2.64 0 5.28 0 8 0 C8 2.64 8 5.28 8 8 C5.36 8 2.72 8 0 8 C0 5.36 0 2.72 0 0 Z " fill="#D7D7D7" transform="translate(112,148)"/>
<path d="M0 0 C2.64 0 5.28 0 8 0 C8 2.64 8 5.28 8 8 C5.36 8 2.72 8 0 8 C0 5.36 0 2.72 0 0 Z " fill="#D7D7D7" transform="translate(100,148)"/>
<path d="M0 0 C2.64 0 5.28 0 8 0 C8 2.64 8 5.28 8 8 C5.36 8 2.72 8 0 8 C0 5.36 0 2.72 0 0 Z " fill="#D7D7D7" transform="translate(88,148)"/>
<path d="M0 0 C2.64 0 5.28 0 8 0 C8 2.64 8 5.28 8 8 C5.36 8 2.72 8 0 8 C0 5.36 0 2.72 0 0 Z " fill="#D7D7D7" transform="translate(76,148)"/>
<path d="M0 0 C2.64 0 5.28 0 8 0 C8 2.64 8 5.28 8 8 C5.36 8 2.72 8 0 8 C0 5.36 0 2.72 0 0 Z " fill="#D7D7D7" transform="translate(64,148)"/>
<path d="M0 0 C2.64 0 5.28 0 8 0 C8 2.64 8 5.28 8 8 C5.36 8 2.72 8 0 8 C0 5.36 0 2.72 0 0 Z " fill="#D7D7D7" transform="translate(52,148)"/>
<path d="M0 0 C2.64 0 5.28 0 8 0 C8 2.64 8 5.28 8 8 C5.36 8 2.72 8 0 8 C0 5.36 0 2.72 0 0 Z " fill="#D7D7D7" transform="translate(40,148)"/>
<path d="M0 0 C2.64 0 5.28 0 8 0 C8 2.64 8 5.28 8 8 C5.36 8 2.72 8 0 8 C0 5.36 0 2.72 0 0 Z " fill="#D7D7D7" transform="translate(28,148)"/>
<path d="M0 0 C2.64 0 5.28 0 8 0 C8 2.64 8 5.28 8 8 C5.36 8 2.72 8 0 8 C0 5.36 0 2.72 0 0 Z " fill="#9B9B9B" transform="translate(16,148)"/>
<path d="M0 0 C2.64 0 5.28 0 8 0 C8 2.64 8 5.28 8 8 C5.36 8 2.72 8 0 8 C0 5.36 0 2.72 0 0 Z " fill="#9B9B9B" transform="translate(136,136)"/>
<path d="M0 0 C2.64 0 5.28 0 8 0 C8 2.64 8 5.28 8 8 C5.36 8 2.72 8 0 8 C0 5.36 0 2.72 0 0 Z " fill="#9B9B9B" transform="translate(124,136)"/>
<path d="M0 0 C2.64 0 5.28 0 8 0 C8 2.64 8 5.28 8 8 C5.36 8 2.72 8 0 8 C0 5.36 0 2.72 0 0 Z " fill="#9B9B9B" transform="translate(112,136)"/>
<path d="M0 0 C2.64 0 5.28 0 8 0 C8 2.64 8 5.28 8 8 C5.36 8 2.72 8 0 8 C0 5.36 0 2.72 0 0 Z " fill="#9B9B9B" transform="translate(100,136)"/>
<path d="M0 0 C2.64 0 5.28 0 8 0 C8 2.64 8 5.28 8 8 C5.36 8 2.72 8 0 8 C0 5.36 0 2.72 0 0 Z " fill="#9B9B9B" transform="translate(88,136)"/>
<path d="M0 0 C2.64 0 5.28 0 8 0 C8 2.64 8 5.28 8 8 C5.36 8 2.72 8 0 8 C0 5.36 0 2.72 0 0 Z " fill="#9B9B9B" transform="translate(76,136)"/>
<path d="M0 0 C2.64 0 5.28 0 8 0 C8 2.64 8 5.28 8 8 C5.36 8 2.72 8 0 8 C0 5.36 0 2.72 0 0 Z " fill="#9B9B9B" transform="translate(64,136)"/>
<path d="M0 0 C2.64 0 5.28 0 8 0 C8 2.64 8 5.28 8 8 C5.36 8 2.72 8 0 8 C0 5.36 0 2.72 0 0 Z " fill="#9B9B9B" transform="translate(52,136)"/>
<path d="M0 0 C2.64 0 5.28 0 8 0 C8 2.64 8 5.28 8 8 C5.36 8 2.72 8 0 8 C0 5.36 0 2.72 0 0 Z " fill="#9B9B9B" transform="translate(40,136)"/>
<path d="M0 0 C2.64 0 5.28 0 8 0 C8 2.64 8 5.28 8 8 C5.36 8 2.72 8 0 8 C0 5.36 0 2.72 0 0 Z " fill="#9B9B9B" transform="translate(28,136)"/>
<path d="M0 0 C2.64 0 5.28 0 8 0 C8 2.64 8 5.28 8 8 C5.36 8 2.72 8 0 8 C0 5.36 0 2.72 0 0 Z " fill="#9B9B9B" transform="translate(16,136)"/>
<path d="M0 0 C2.64 0 5.28 0 8 0 C8 1.98 8 3.96 8 6 C5.36 6 2.72 6 0 6 C0 4.02 0 2.04 0 0 Z " fill="#B76969" transform="translate(224,134)"/>
<path d="M0 0 C0.66 0 1.32 0 2 0 C2 2.64 2 5.28 2 8 C0.68 8 -0.64 8 -2 8 C-2.125 5.125 -2.125 5.125 -2 2 C-1.34 1.34 -0.68 0.68 0 0 Z " fill="#9D9D9D" transform="translate(18,64)"/>
<path d="M0 0 C0.825 0.165 0.825 0.165 5 1 C5.33 1.99 5.66 2.98 6 4 C4.02 4 2.04 4 0 4 C0 2.68 0 1.36 0 0 Z " fill="#9E9E9E" transform="translate(234,64)"/>
</svg>
