<?xml version="1.0" encoding="UTF-8"?>
<!-- Generator: visioncortex VTracer 0.6.12 -->
<svg version="1.1" xmlns="http://www.w3.org/2000/svg" width="256" height="256">
<path d="M0 0 C0.939 -0.005 1.879 -0.011 2.847 -0.016 C5.99 -0.031 9.134 -0.023 12.277 -0.016 C14.533 -0.022 16.788 -0.029 19.044 -0.037 C25.168 -0.055 31.291 -0.054 37.415 -0.048 C42.527 -0.045 47.639 -0.051 52.751 -0.057 C65.5 -0.072 78.248 -0.068 90.997 -0.056 C102.063 -0.046 113.128 -0.059 124.194 -0.083 C135.563 -0.108 146.932 -0.117 158.302 -0.111 C164.682 -0.107 171.062 -0.11 177.442 -0.127 C183.441 -0.142 189.44 -0.138 195.44 -0.12 C197.641 -0.116 199.842 -0.119 202.044 -0.13 C205.05 -0.143 208.055 -0.131 211.061 -0.114 C211.496 -0.118 211.496 -0.118 213.698 -0.143 C219.469 -0.073 222.95 0.867 227.594 4.388 C230.532 8.71 230.971 12.204 230.982 17.364 C230.984 17.703 230.984 17.703 230.998 19.419 C231.012 21.678 231.005 23.937 230.998 26.196 C231.004 27.821 231.011 29.446 231.019 31.071 C231.037 35.476 231.036 39.881 231.03 44.286 C231.027 47.966 231.033 51.647 231.039 55.327 C231.053 64.011 231.051 72.695 231.04 81.379 C231.028 90.331 231.043 99.283 231.069 108.235 C231.091 115.928 231.098 123.621 231.092 131.314 C231.089 135.905 231.091 140.497 231.109 145.088 C231.124 149.407 231.12 153.725 231.101 158.043 C231.098 159.625 231.101 161.207 231.111 162.79 C231.205 178.093 231.205 178.093 226.594 183.388 C221.436 186.702 217.113 186.816 211.188 186.775 C210.718 186.778 210.718 186.778 208.341 186.792 C205.197 186.806 202.054 186.799 198.911 186.792 C196.655 186.797 194.4 186.804 192.144 186.813 C186.02 186.83 179.896 186.829 173.772 186.824 C168.66 186.82 163.548 186.827 158.436 186.833 C145.688 186.847 132.939 186.844 120.191 186.832 C109.125 186.822 98.06 186.835 86.994 186.859 C75.625 186.883 64.255 186.892 52.886 186.886 C46.506 186.883 40.126 186.885 33.746 186.902 C27.746 186.918 21.747 186.914 15.748 186.895 C13.547 186.891 11.345 186.894 9.144 186.905 C6.138 186.918 3.133 186.907 0.127 186.889 C-0.308 186.894 -0.308 186.894 -2.511 186.918 C-8.281 186.848 -11.762 185.908 -16.406 182.388 C-19.345 178.066 -19.783 174.572 -19.794 169.411 C-19.799 168.733 -19.805 168.055 -19.81 167.357 C-19.824 165.097 -19.817 162.839 -19.81 160.579 C-19.816 158.954 -19.823 157.329 -19.831 155.704 C-19.849 151.299 -19.848 146.895 -19.842 142.49 C-19.839 138.809 -19.845 135.129 -19.851 131.448 C-19.865 122.764 -19.864 114.081 -19.852 105.397 C-19.841 96.444 -19.855 87.492 -19.882 78.54 C-19.904 70.847 -19.91 63.155 -19.904 55.462 C-19.901 50.87 -19.904 46.279 -19.921 41.687 C-19.936 37.369 -19.932 33.051 -19.913 28.732 C-19.91 27.15 -19.913 25.568 -19.923 23.986 C-20.017 8.683 -20.017 8.683 -15.406 3.388 C-10.248 0.073 -5.925 -0.041 0 0 Z " fill="#989898" transform="translate(22.406112670898438,34.61231994628906)"/>
<path d="M0 0 C0.88 0.004 1.76 0.009 2.667 0.014 C3.598 0.01 4.529 0.007 5.489 0.004 C8.629 -0.004 11.769 0.002 14.909 0.009 C17.152 0.006 19.395 0.002 21.639 -0.002 C27.746 -0.011 33.853 -0.007 39.96 -0.001 C46.339 0.004 52.718 -0.001 59.096 -0.004 C70.497 -0.008 81.897 -0.002 93.298 0.009 C103.642 0.018 113.986 0.016 124.331 0.007 C136.333 -0.004 148.335 -0.008 160.337 -0.002 C166.694 0.001 173.052 0.001 179.409 -0.005 C185.384 -0.011 191.359 -0.007 197.335 0.005 C199.533 0.007 201.732 0.007 203.931 0.002 C206.921 -0.003 209.911 0.004 212.901 0.014 C213.781 0.009 214.661 0.005 215.567 0 C221.555 0.039 221.555 0.039 223.784 2.267 C223.784 25.367 223.784 48.467 223.784 72.267 C147.224 72.267 70.664 72.267 -8.216 72.267 C-8.216 0.054 -8.216 0.054 0 0 Z " fill="#3F3F3F" transform="translate(20.21630859375,43.732513189315796)"/>
<path d="M0 0 C76.56 0 153.12 0 232 0 C232 19.14 232 38.28 232 58 C229.347 60.653 227.393 60.244 223.784 60.267 C222.904 60.263 222.024 60.259 221.117 60.254 C220.652 60.256 220.652 60.256 218.295 60.263 C215.155 60.271 212.015 60.265 208.875 60.259 C206.632 60.261 204.388 60.265 202.145 60.269 C196.038 60.279 189.931 60.275 183.823 60.269 C177.445 60.264 171.066 60.268 164.688 60.271 C153.287 60.275 141.886 60.269 130.486 60.259 C120.141 60.25 109.797 60.252 99.453 60.261 C87.451 60.271 75.449 60.275 63.446 60.27 C57.089 60.266 50.732 60.266 44.375 60.273 C38.4 60.278 32.424 60.274 26.449 60.263 C24.25 60.26 22.052 60.261 19.853 60.265 C16.863 60.271 13.873 60.264 10.883 60.254 C10.003 60.258 9.123 60.263 8.216 60.267 C2.228 60.228 2.228 60.228 0 58 C0 38.86 0 19.72 0 0 Z " fill="#404040" transform="translate(12,152)"/>
<path d="M0 0 C0.939 -0.005 1.879 -0.011 2.847 -0.016 C5.99 -0.031 9.134 -0.023 12.277 -0.016 C14.533 -0.022 16.788 -0.029 19.044 -0.037 C25.168 -0.055 31.291 -0.054 37.415 -0.048 C42.527 -0.045 47.639 -0.051 52.751 -0.057 C65.5 -0.072 78.248 -0.068 90.997 -0.056 C102.063 -0.046 113.128 -0.059 124.194 -0.083 C135.563 -0.108 146.932 -0.117 158.302 -0.111 C164.682 -0.107 171.062 -0.11 177.442 -0.127 C183.441 -0.142 189.44 -0.138 195.44 -0.12 C197.641 -0.116 199.842 -0.119 202.044 -0.13 C205.05 -0.143 208.055 -0.131 211.061 -0.114 C211.496 -0.118 211.496 -0.118 213.698 -0.143 C219.469 -0.073 222.95 0.867 227.594 4.388 C230.532 8.71 230.971 12.204 230.982 17.364 C230.984 17.703 230.984 17.703 230.998 19.419 C231.012 21.678 231.005 23.937 230.998 26.196 C231.004 27.821 231.011 29.446 231.019 31.071 C231.037 35.476 231.036 39.881 231.03 44.286 C231.027 47.966 231.033 51.647 231.039 55.327 C231.053 64.011 231.051 72.695 231.04 81.379 C231.028 90.331 231.043 99.283 231.069 108.235 C231.091 115.928 231.098 123.621 231.092 131.314 C231.089 135.905 231.091 140.497 231.109 145.088 C231.124 149.407 231.12 153.725 231.101 158.043 C231.098 159.625 231.101 161.207 231.111 162.79 C231.205 178.093 231.205 178.093 226.594 183.388 C221.436 186.702 217.113 186.816 211.188 186.775 C210.718 186.778 210.718 186.778 208.341 186.792 C205.197 186.806 202.054 186.799 198.911 186.792 C196.655 186.797 194.4 186.804 192.144 186.813 C186.02 186.83 179.896 186.829 173.772 186.824 C168.66 186.82 163.548 186.827 158.436 186.833 C145.688 186.847 132.939 186.844 120.191 186.832 C109.125 186.822 98.06 186.835 86.994 186.859 C75.625 186.883 64.255 186.892 52.886 186.886 C46.506 186.883 40.126 186.885 33.746 186.902 C27.746 186.918 21.747 186.914 15.748 186.895 C13.547 186.891 11.345 186.894 9.144 186.905 C6.138 186.918 3.133 186.907 0.127 186.889 C-0.308 186.894 -0.308 186.894 -2.511 186.918 C-8.281 186.848 -11.762 185.908 -16.406 182.388 C-19.345 178.066 -19.783 174.572 -19.794 169.411 C-19.799 168.733 -19.805 168.055 -19.81 167.357 C-19.824 165.097 -19.817 162.839 -19.81 160.579 C-19.816 158.954 -19.823 157.329 -19.831 155.704 C-19.849 151.299 -19.848 146.895 -19.842 142.49 C-19.839 138.809 -19.845 135.129 -19.851 131.448 C-19.865 122.764 -19.864 114.081 -19.852 105.397 C-19.841 96.444 -19.855 87.492 -19.882 78.54 C-19.904 70.847 -19.91 63.155 -19.904 55.462 C-19.901 50.87 -19.904 46.279 -19.921 41.687 C-19.936 37.369 -19.932 33.051 -19.913 28.732 C-19.91 27.15 -19.913 25.568 -19.923 23.986 C-20.017 8.683 -20.017 8.683 -15.406 3.388 C-10.248 0.073 -5.925 -0.041 0 0 Z M-10.406 11.388 C-10.658 14.189 -10.658 14.189 -10.66 17.841 C-10.663 18.511 -10.666 19.181 -10.67 19.871 C-10.678 22.127 -10.671 24.382 -10.665 26.638 C-10.668 28.25 -10.671 29.863 -10.676 31.476 C-10.685 35.864 -10.681 40.253 -10.675 44.641 C-10.67 49.226 -10.674 53.811 -10.678 58.395 C-10.681 66.096 -10.676 73.797 -10.667 81.497 C-10.656 90.41 -10.659 99.322 -10.671 108.235 C-10.68 115.876 -10.681 123.518 -10.676 131.159 C-10.673 135.728 -10.672 140.297 -10.679 144.865 C-10.684 149.16 -10.681 153.454 -10.669 157.748 C-10.666 159.328 -10.667 160.907 -10.671 162.487 C-10.677 164.636 -10.67 166.785 -10.66 168.935 C-10.659 170.14 -10.659 171.344 -10.658 172.586 C-10.406 175.388 -10.406 175.388 -8.406 177.388 C-5.415 177.586 -2.516 177.657 0.477 177.642 C1.408 177.645 2.339 177.648 3.299 177.651 C6.439 177.659 9.579 177.653 12.719 177.646 C14.962 177.649 17.206 177.653 19.449 177.657 C25.556 177.666 31.663 177.663 37.771 177.656 C44.149 177.651 50.528 177.656 56.906 177.659 C68.307 177.663 79.708 177.657 91.108 177.647 C101.452 177.638 111.797 177.639 122.141 177.648 C134.143 177.659 146.145 177.663 158.148 177.657 C164.505 177.654 170.862 177.654 177.219 177.66 C183.194 177.666 189.169 177.662 195.145 177.65 C197.343 177.648 199.542 177.649 201.741 177.653 C204.731 177.658 207.721 177.652 210.711 177.642 C211.591 177.646 212.471 177.651 213.378 177.655 C219.366 177.616 219.366 177.616 221.594 175.388 C221.846 172.586 221.846 172.586 221.848 168.935 C221.851 168.265 221.854 167.595 221.857 166.904 C221.865 164.649 221.859 162.393 221.853 160.138 C221.855 158.525 221.859 156.912 221.863 155.299 C221.872 150.911 221.869 146.523 221.863 142.134 C221.857 137.55 221.862 132.965 221.865 128.38 C221.869 120.679 221.864 112.979 221.855 105.278 C221.844 96.366 221.847 87.453 221.858 78.541 C221.867 70.899 221.869 63.258 221.863 55.616 C221.86 51.047 221.86 46.479 221.866 41.91 C221.872 37.616 221.868 33.322 221.857 29.027 C221.854 27.448 221.855 25.868 221.859 24.289 C221.865 22.139 221.858 19.99 221.848 17.841 C221.847 16.636 221.846 15.431 221.846 14.189 C221.594 11.388 221.594 11.388 219.594 9.388 C216.603 9.19 213.704 9.119 210.711 9.134 C209.78 9.131 208.848 9.127 207.889 9.124 C204.749 9.116 201.609 9.123 198.469 9.129 C196.226 9.126 193.982 9.123 191.739 9.118 C185.632 9.109 179.524 9.113 173.417 9.119 C167.039 9.124 160.66 9.119 154.281 9.116 C142.881 9.112 131.48 9.119 120.08 9.129 C109.735 9.138 99.391 9.136 89.047 9.127 C77.045 9.116 65.043 9.112 53.04 9.118 C46.683 9.121 40.326 9.122 33.969 9.115 C27.994 9.109 22.018 9.113 16.043 9.125 C13.844 9.128 11.646 9.127 9.447 9.122 C6.457 9.117 3.467 9.124 0.477 9.134 C-0.403 9.129 -1.283 9.125 -2.19 9.12 C-8.178 9.159 -8.178 9.159 -10.406 11.388 Z " fill="#FAFAFA" transform="translate(22.406112670898438,34.61231994628906)"/>
<path d="M0 0 C0.88 0.004 1.76 0.009 2.667 0.014 C3.598 0.01 4.529 0.007 5.489 0.004 C8.629 -0.004 11.769 0.002 14.909 0.009 C17.152 0.006 19.395 0.002 21.639 -0.002 C27.746 -0.011 33.853 -0.007 39.96 -0.001 C46.339 0.004 52.718 -0.001 59.096 -0.004 C70.497 -0.008 81.897 -0.002 93.298 0.009 C103.642 0.018 113.986 0.016 124.331 0.007 C136.333 -0.004 148.335 -0.008 160.337 -0.002 C166.694 0.001 173.052 0.001 179.409 -0.005 C185.384 -0.011 191.359 -0.007 197.335 0.005 C199.533 0.007 201.732 0.007 203.931 0.002 C206.921 -0.003 209.911 0.004 212.901 0.014 C213.781 0.009 214.661 0.005 215.567 0 C221.555 0.039 221.555 0.039 223.784 2.267 C223.784 25.367 223.784 48.467 223.784 72.267 C147.224 72.267 70.664 72.267 -8.216 72.267 C-8.216 0.054 -8.216 0.054 0 0 Z M-7.216 12.267 C-7.216 31.737 -7.216 51.207 -7.216 71.267 C68.684 71.267 144.584 71.267 222.784 71.267 C222.784 51.797 222.784 32.327 222.784 12.267 C146.884 12.267 70.984 12.267 -7.216 12.267 Z " fill="#4C4C4C" transform="translate(20.21630859375,43.732513189315796)"/>
<path d="M0 0 C75.9 0 151.8 0 230 0 C230 2.64 230 5.28 230 8 C154.1 8 78.2 8 0 8 C0 5.36 0 2.72 0 0 Z " fill="#333333" transform="translate(13,192)"/>
<path d="M0 0 C0.619 -0.002 0.619 -0.002 3.751 -0.01 C5.113 -0.008 6.474 -0.006 7.836 -0.003 C9.222 -0.004 10.608 -0.005 11.995 -0.006 C14.903 -0.008 17.812 -0.006 20.721 -0.001 C24.457 0.005 28.193 0.001 31.929 -0.005 C34.793 -0.008 37.656 -0.007 40.52 -0.004 C41.898 -0.004 43.276 -0.005 44.654 -0.007 C46.576 -0.009 48.499 -0.005 50.422 0 C50.97 0 50.97 0 53.744 0.002 C56.211 0.129 56.211 0.129 57.211 1.129 C57.31 3.461 57.341 5.796 57.336 8.129 C57.337 8.769 57.337 8.769 57.344 12.004 C57.211 15.129 57.211 15.129 56.211 16.129 C54.283 16.229 52.352 16.257 50.422 16.259 C49.184 16.262 47.946 16.265 46.67 16.268 C45.309 16.267 43.947 16.265 42.586 16.262 C41.2 16.263 39.813 16.264 38.427 16.265 C35.519 16.267 32.61 16.264 29.701 16.26 C25.965 16.254 22.229 16.257 18.493 16.263 C15.629 16.267 12.766 16.266 9.902 16.263 C8.524 16.263 7.146 16.263 5.768 16.266 C3.845 16.268 1.923 16.264 0 16.259 C-0.548 16.258 -0.548 16.258 -3.322 16.256 C-5.789 16.129 -5.789 16.129 -6.789 15.129 C-6.888 12.798 -6.919 10.463 -6.914 8.129 C-6.917 6.851 -6.919 5.572 -6.922 4.254 C-6.698 -1.008 -4.759 0.003 0 0 Z " fill="#262626" transform="translate(102.7890625,95.87060546875)"/>
<path d="M0 0 C29.04 0 58.08 0 88 0 C88 1.32 88 2.64 88 4 C58.96 4 29.92 4 0 4 C0 2.68 0 1.36 0 0 Z " fill="#E5C209" transform="translate(20,144)"/>
<path d="M0 0 C27.72 0 55.44 0 84 0 C84 1.32 84 2.64 84 4 C56.28 4 28.56 4 0 4 C0 2.68 0 1.36 0 0 Z " fill="#3595CB" transform="translate(108,144)"/>
<path d="M0 0 C14.52 0 29.04 0 44 0 C44 1.32 44 2.64 44 4 C29.48 4 14.96 4 0 4 C0 2.68 0 1.36 0 0 Z " fill="#4F60A6" transform="translate(192,144)"/>
<path d="M0 0 C14.52 0 29.04 0 44 0 C44 1.32 44 2.64 44 4 C29.48 4 14.96 4 0 4 C0 2.68 0 1.36 0 0 Z " fill="#E28028" transform="translate(20,144)"/>
<path d="M0 0 C13.2 0 26.4 0 40 0 C40 1.32 40 2.64 40 4 C26.8 4 13.6 4 0 4 C0 2.68 0 1.36 0 0 Z " fill="#097D09" transform="translate(108,144)"/>
<path d="M0 0 C1.32 0 2.64 0 4 0 C4 2.64 4 5.28 4 8 C2.68 8 1.36 8 0 8 C0 5.36 0 2.72 0 0 Z " fill="#272727" transform="translate(232,192)"/>
<path d="M0 0 C1.32 0 2.64 0 4 0 C4 2.64 4 5.28 4 8 C2.68 8 1.36 8 0 8 C0 5.36 0 2.72 0 0 Z " fill="#272727" transform="translate(216,192)"/>
<path d="M0 0 C1.32 0 2.64 0 4 0 C4 2.64 4 5.28 4 8 C2.68 8 1.36 8 0 8 C0 5.36 0 2.72 0 0 Z " fill="#272727" transform="translate(204,192)"/>
<path d="M0 0 C1.32 0 2.64 0 4 0 C4 2.64 4 5.28 4 8 C2.68 8 1.36 8 0 8 C0 5.36 0 2.72 0 0 Z " fill="#272727" transform="translate(188,192)"/>
<path d="M0 0 C1.32 0 2.64 0 4 0 C4 2.64 4 5.28 4 8 C2.68 8 1.36 8 0 8 C0 5.36 0 2.72 0 0 Z " fill="#272727" transform="translate(64,192)"/>
<path d="M0 0 C1.32 0 2.64 0 4 0 C4 2.64 4 5.28 4 8 C2.68 8 1.36 8 0 8 C0 5.36 0 2.72 0 0 Z " fill="#272727" transform="translate(48,192)"/>
<path d="M0 0 C1.32 0 2.64 0 4 0 C4 2.64 4 5.28 4 8 C2.68 8 1.36 8 0 8 C0 5.36 0 2.72 0 0 Z " fill="#272727" transform="translate(36,192)"/>
<path d="M0 0 C1.32 0 2.64 0 4 0 C4 2.64 4 5.28 4 8 C2.68 8 1.36 8 0 8 C0 5.36 0 2.72 0 0 Z " fill="#272727" transform="translate(20,192)"/>
<path d="M0 0 C1.32 0 2.64 0 4 0 C4 2.31 4 4.62 4 7 C2.68 7 1.36 7 0 7 C0 4.69 0 2.38 0 0 Z " fill="#404040" transform="translate(212,45)"/>
<path d="M0 0 C1.32 0 2.64 0 4 0 C4 2.31 4 4.62 4 7 C2.68 7 1.36 7 0 7 C0 4.69 0 2.38 0 0 Z " fill="#404040" transform="translate(204,45)"/>
<path d="M0 0 C1.32 0 2.64 0 4 0 C4 2.31 4 4.62 4 7 C2.68 7 1.36 7 0 7 C0 4.69 0 2.38 0 0 Z " fill="#404040" transform="translate(196,45)"/>
<path d="M0 0 C1.32 0 2.64 0 4 0 C4 2.31 4 4.62 4 7 C2.68 7 1.36 7 0 7 C0 4.69 0 2.38 0 0 Z " fill="#404040" transform="translate(188,45)"/>
<path d="M0 0 C1.32 0 2.64 0 4 0 C4 2.31 4 4.62 4 7 C2.68 7 1.36 7 0 7 C0 4.69 0 2.38 0 0 Z " fill="#404040" transform="translate(180,45)"/>
<path d="M0 0 C1.32 0 2.64 0 4 0 C4 2.31 4 4.62 4 7 C2.68 7 1.36 7 0 7 C0 4.69 0 2.38 0 0 Z " fill="#404040" transform="translate(172,45)"/>
<path d="M0 0 C1.32 0 2.64 0 4 0 C4 2.31 4 4.62 4 7 C2.68 7 1.36 7 0 7 C0 4.69 0 2.38 0 0 Z " fill="#404040" transform="translate(164,45)"/>
<path d="M0 0 C1.32 0 2.64 0 4 0 C4 2.31 4 4.62 4 7 C2.68 7 1.36 7 0 7 C0 4.69 0 2.38 0 0 Z " fill="#404040" transform="translate(156,45)"/>
<path d="M0 0 C1.32 0 2.64 0 4 0 C4 2.31 4 4.62 4 7 C2.68 7 1.36 7 0 7 C0 4.69 0 2.38 0 0 Z " fill="#404040" transform="translate(148,45)"/>
<path d="M0 0 C1.32 0 2.64 0 4 0 C4 2.31 4 4.62 4 7 C2.68 7 1.36 7 0 7 C0 4.69 0 2.38 0 0 Z " fill="#404040" transform="translate(140,45)"/>
<path d="M0 0 C1.32 0 2.64 0 4 0 C4 2.31 4 4.62 4 7 C2.68 7 1.36 7 0 7 C0 4.69 0 2.38 0 0 Z " fill="#404040" transform="translate(132,45)"/>
<path d="M0 0 C1.32 0 2.64 0 4 0 C4 2.31 4 4.62 4 7 C2.68 7 1.36 7 0 7 C0 4.69 0 2.38 0 0 Z " fill="#404040" transform="translate(124,45)"/>
<path d="M0 0 C1.32 0 2.64 0 4 0 C4 2.31 4 4.62 4 7 C2.68 7 1.36 7 0 7 C0 4.69 0 2.38 0 0 Z " fill="#404040" transform="translate(116,45)"/>
<path d="M0 0 C1.32 0 2.64 0 4 0 C4 2.31 4 4.62 4 7 C2.68 7 1.36 7 0 7 C0 4.69 0 2.38 0 0 Z " fill="#404040" transform="translate(108,45)"/>
<path d="M0 0 C1.32 0 2.64 0 4 0 C4 2.31 4 4.62 4 7 C2.68 7 1.36 7 0 7 C0 4.69 0 2.38 0 0 Z " fill="#404040" transform="translate(100,45)"/>
<path d="M0 0 C1.32 0 2.64 0 4 0 C4 2.31 4 4.62 4 7 C2.68 7 1.36 7 0 7 C0 4.69 0 2.38 0 0 Z " fill="#404040" transform="translate(92,45)"/>
<path d="M0 0 C1.32 0 2.64 0 4 0 C4 2.31 4 4.62 4 7 C2.68 7 1.36 7 0 7 C0 4.69 0 2.38 0 0 Z " fill="#404040" transform="translate(84,45)"/>
<path d="M0 0 C1.32 0 2.64 0 4 0 C4 2.31 4 4.62 4 7 C2.68 7 1.36 7 0 7 C0 4.69 0 2.38 0 0 Z " fill="#404040" transform="translate(76,45)"/>
<path d="M0 0 C1.32 0 2.64 0 4 0 C4 2.31 4 4.62 4 7 C2.68 7 1.36 7 0 7 C0 4.69 0 2.38 0 0 Z " fill="#404040" transform="translate(68,45)"/>
<path d="M0 0 C1.32 0 2.64 0 4 0 C4 2.31 4 4.62 4 7 C2.68 7 1.36 7 0 7 C0 4.69 0 2.38 0 0 Z " fill="#404040" transform="translate(60,45)"/>
<path d="M0 0 C1.32 0 2.64 0 4 0 C4 2.31 4 4.62 4 7 C2.68 7 1.36 7 0 7 C0 4.69 0 2.38 0 0 Z " fill="#404040" transform="translate(52,45)"/>
<path d="M0 0 C1.32 0 2.64 0 4 0 C4 2.31 4 4.62 4 7 C2.68 7 1.36 7 0 7 C0 4.69 0 2.38 0 0 Z " fill="#404040" transform="translate(44,45)"/>
<path d="M0 0 C1.32 0 2.64 0 4 0 C4 2.31 4 4.62 4 7 C2.68 7 1.36 7 0 7 C0 4.69 0 2.38 0 0 Z " fill="#404040" transform="translate(36,45)"/>
</svg>
