<?xml version="1.0" encoding="UTF-8"?>
<!-- Generator: visioncortex VTracer 0.6.12 -->
<svg version="1.1" xmlns="http://www.w3.org/2000/svg" width="256" height="256">
<path d="M0 0 C82.5 0 165 0 250 0 C250 53.46 250 106.92 250 162 C167.5 162 85 162 0 162 C0 108.54 0 55.08 0 0 Z " fill="#433930" transform="translate(3,47)"/>
<path d="M0 0 C73.92 0 147.84 0 224 0 C224 22.44 224 44.88 224 68 C150.08 68 76.16 68 0 68 C0 45.56 0 23.12 0 0 Z " fill="#181818" transform="translate(16,116)"/>
<path d="M0 0 C82.5 0 165 0 250 0 C250 53.46 250 106.92 250 162 C167.5 162 85 162 0 162 C0 108.54 0 55.08 0 0 Z M9 9 C9 56.52 9 104.04 9 153 C85.56 153 162.12 153 241 153 C241 105.48 241 57.96 241 9 C164.44 9 87.88 9 9 9 Z " fill="#FBFAF9" transform="translate(3,47)"/>
<path d="M0 0 C76.56 0 153.12 0 232 0 C232 47.52 232 95.04 232 144 C155.44 144 78.88 144 0 144 C0 96.48 0 48.96 0 0 Z M4 4 C6 20 6 20 7 25 C7.33 35.23 7.66 45.46 8 56 C79.28 56 150.56 56 224 56 C224.33 45.77 224.66 35.54 225 25 C226.563 15.375 226.563 15.375 227.379 11.898 C228 9 228 9 228 4 C154.08 4 80.16 4 4 4 Z M4 60 C4 82.44 4 104.88 4 128 C77.92 128 151.84 128 228 128 C228 105.56 228 83.12 228 60 C154.08 60 80.16 60 4 60 Z " fill="#12100F" transform="translate(12,56)"/>
<path d="M0 0 C73.92 0 147.84 0 224 0 C223 11 223 11 220 24 C148.72 24 77.44 24 4 24 C0 4 0 4 0 0 Z " fill="#262625" transform="translate(16,60)"/>
<path d="M0 0 C73.92 0 147.84 0 224 0 C224 3.96 224 7.92 224 12 C150.08 12 76.16 12 0 12 C0 8.04 0 4.08 0 0 Z " fill="#E57E22" transform="translate(16,188)"/>
<path d="M0 0 C1.158 -0.003 2.316 -0.006 3.509 -0.01 C4.769 -0.008 6.03 -0.006 7.328 -0.003 C8.612 -0.004 9.895 -0.005 11.218 -0.006 C13.938 -0.008 16.659 -0.006 19.379 -0.001 C22.873 0.005 26.367 0.001 29.861 -0.005 C33.183 -0.009 36.506 -0.006 39.828 -0.003 C41.089 -0.005 42.349 -0.007 43.647 -0.01 C44.805 -0.006 45.963 -0.003 47.156 0 C48.181 0.001 49.207 0.002 50.263 0.002 C52.578 0.129 52.578 0.129 53.578 1.129 C53.677 3.461 53.708 5.796 53.703 8.129 C53.704 8.769 53.704 8.769 53.711 12.004 C53.578 15.129 53.578 15.129 52.578 16.129 C50.773 16.228 48.964 16.257 47.156 16.259 C45.998 16.262 44.84 16.265 43.647 16.268 C43.017 16.267 43.017 16.267 39.828 16.262 C38.545 16.263 37.261 16.264 35.938 16.265 C33.218 16.267 30.498 16.264 27.777 16.26 C24.283 16.254 20.789 16.257 17.295 16.263 C13.973 16.268 10.651 16.265 7.328 16.262 C6.068 16.264 4.807 16.266 3.509 16.268 C2.351 16.265 1.193 16.262 0 16.259 C-1.025 16.258 -2.05 16.257 -3.106 16.256 C-5.422 16.129 -5.422 16.129 -6.422 15.129 C-6.521 12.798 -6.552 10.463 -6.547 8.129 C-6.549 6.851 -6.552 5.572 -6.555 4.254 C-6.337 -0.873 -4.649 0.004 0 0 Z " fill="#313131" transform="translate(102.421875,91.87060546875)"/>
<path d="M0 0 C71.28 0 142.56 0 216 0 C216 1.32 216 2.64 216 4 C144.72 4 73.44 4 0 4 C0 2.68 0 1.36 0 0 Z " fill="#242424" transform="translate(20,180)"/>
<path d="M0 0 C71.28 0 142.56 0 216 0 C216 1.32 216 2.64 216 4 C144.72 4 73.44 4 0 4 C0 2.68 0 1.36 0 0 Z " fill="#242424" transform="translate(20,172)"/>
<path d="M0 0 C71.28 0 142.56 0 216 0 C216 1.32 216 2.64 216 4 C144.72 4 73.44 4 0 4 C0 2.68 0 1.36 0 0 Z " fill="#242424" transform="translate(20,164)"/>
<path d="M0 0 C71.28 0 142.56 0 216 0 C216 1.32 216 2.64 216 4 C144.72 4 73.44 4 0 4 C0 2.68 0 1.36 0 0 Z " fill="#242424" transform="translate(20,156)"/>
<path d="M0 0 C71.28 0 142.56 0 216 0 C216 1.32 216 2.64 216 4 C144.72 4 73.44 4 0 4 C0 2.68 0 1.36 0 0 Z " fill="#242424" transform="translate(20,148)"/>
<path d="M0 0 C71.28 0 142.56 0 216 0 C216 1.32 216 2.64 216 4 C144.72 4 73.44 4 0 4 C0 2.68 0 1.36 0 0 Z " fill="#242424" transform="translate(20,140)"/>
<path d="M0 0 C71.28 0 142.56 0 216 0 C216 1.32 216 2.64 216 4 C144.72 4 73.44 4 0 4 C0 2.68 0 1.36 0 0 Z " fill="#242424" transform="translate(20,132)"/>
<path d="M0 0 C71.28 0 142.56 0 216 0 C216 1.32 216 2.64 216 4 C144.72 4 73.44 4 0 4 C0 2.68 0 1.36 0 0 Z " fill="#242424" transform="translate(20,124)"/>
<path d="M0 0 C71.28 0 142.56 0 216 0 C216 1.32 216 2.64 216 4 C144.72 4 73.44 4 0 4 C0 2.68 0 1.36 0 0 Z " fill="#242424" transform="translate(20,116)"/>
<path d="M0 0 C1.158 -0.003 2.316 -0.006 3.509 -0.01 C4.769 -0.008 6.03 -0.006 7.328 -0.003 C8.612 -0.004 9.895 -0.005 11.218 -0.006 C13.938 -0.008 16.659 -0.006 19.379 -0.001 C22.873 0.005 26.367 0.001 29.861 -0.005 C33.183 -0.009 36.506 -0.006 39.828 -0.003 C41.089 -0.005 42.349 -0.007 43.647 -0.01 C44.805 -0.006 45.963 -0.003 47.156 0 C48.181 0.001 49.207 0.002 50.263 0.002 C52.578 0.129 52.578 0.129 53.578 1.129 C53.677 3.461 53.708 5.796 53.703 8.129 C53.704 8.769 53.704 8.769 53.711 12.004 C53.578 15.129 53.578 15.129 52.578 16.129 C50.773 16.228 48.964 16.257 47.156 16.259 C45.998 16.262 44.84 16.265 43.647 16.268 C43.017 16.267 43.017 16.267 39.828 16.262 C38.545 16.263 37.261 16.264 35.938 16.265 C33.218 16.267 30.498 16.264 27.777 16.26 C24.283 16.254 20.789 16.257 17.295 16.263 C13.973 16.268 10.651 16.265 7.328 16.262 C6.068 16.264 4.807 16.266 3.509 16.268 C2.351 16.265 1.193 16.262 0 16.259 C-1.025 16.258 -2.05 16.257 -3.106 16.256 C-5.422 16.129 -5.422 16.129 -6.422 15.129 C-6.521 12.798 -6.552 10.463 -6.547 8.129 C-6.549 6.851 -6.552 5.572 -6.555 4.254 C-6.337 -0.873 -4.649 0.004 0 0 Z M-4.422 2.129 C-4.422 6.089 -4.422 10.049 -4.422 14.129 C14.058 14.129 32.538 14.129 51.578 14.129 C51.578 10.169 51.578 6.209 51.578 2.129 C33.098 2.129 14.618 2.129 -4.422 2.129 Z " fill="#101010" transform="translate(102.421875,91.87060546875)"/>
<path d="M0 0 C10.56 0 21.12 0 32 0 C32 1.32 32 2.64 32 4 C21.44 4 10.88 4 0 4 C0 2.68 0 1.36 0 0 Z " fill="#0E0E0E" transform="translate(188,144)"/>
<path d="M0 0 C10.56 0 21.12 0 32 0 C32 1.32 32 2.64 32 4 C21.44 4 10.88 4 0 4 C0 2.68 0 1.36 0 0 Z " fill="#0E0E0E" transform="translate(32,144)"/>
<path d="M0 0 C7.92 0 15.84 0 24 0 C24 1.32 24 2.64 24 4 C16.08 4 8.16 4 0 4 C0 2.68 0 1.36 0 0 Z " fill="#0E0E0E" transform="translate(192,152)"/>
<path d="M0 0 C7.92 0 15.84 0 24 0 C24 1.32 24 2.64 24 4 C16.08 4 8.16 4 0 4 C0 2.68 0 1.36 0 0 Z " fill="#0E0E0E" transform="translate(36,152)"/>
<path d="M0 0 C7.92 0 15.84 0 24 0 C24 1.32 24 2.64 24 4 C16.08 4 8.16 4 0 4 C0 2.68 0 1.36 0 0 Z " fill="#0E0E0E" transform="translate(192,136)"/>
<path d="M0 0 C7.92 0 15.84 0 24 0 C24 1.32 24 2.64 24 4 C16.08 4 8.16 4 0 4 C0 2.68 0 1.36 0 0 Z " fill="#0E0E0E" transform="translate(36,136)"/>
<path d="M0 0 C4.556 0.556 4.556 0.556 6 2 C6.072 4.02 6.084 6.042 6.062 8.062 C6.053 9.167 6.044 10.272 6.035 11.41 C6.024 12.265 6.012 13.119 6 14 C5.67 13.01 5.34 12.02 5 11 C3.02 11 1.04 11 -1 11 C-1.33 11.99 -1.66 12.98 -2 14 C-2.054 12.042 -2.093 10.084 -2.125 8.125 C-2.148 7.034 -2.171 5.944 -2.195 4.82 C-2 2 -2 2 0 0 Z " fill="#101010" transform="translate(170,92)"/>
<path d="M0 0 C4.556 0.556 4.556 0.556 6 2 C6.072 4.02 6.084 6.042 6.062 8.062 C6.053 9.167 6.044 10.272 6.035 11.41 C6.024 12.265 6.012 13.119 6 14 C5.67 13.01 5.34 12.02 5 11 C3.02 11 1.04 11 -1 11 C-1.33 11.99 -1.66 12.98 -2 14 C-2.054 12.042 -2.093 10.084 -2.125 8.125 C-2.148 7.034 -2.171 5.944 -2.195 4.82 C-2 2 -2 2 0 0 Z " fill="#101010" transform="translate(78,92)"/>
<path d="M0 0 C0.33 0.99 0.66 1.98 1 3 C2.98 3 4.96 3 7 3 C7.33 2.34 7.66 1.68 8 1 C8.054 2.791 8.093 4.583 8.125 6.375 C8.148 7.373 8.171 8.37 8.195 9.398 C8 12 8 12 6 14 C1.444 13.444 1.444 13.444 0 12 C-0.072 9.98 -0.084 7.958 -0.062 5.938 C-0.053 4.833 -0.044 3.728 -0.035 2.59 C-0.024 1.735 -0.012 0.881 0 0 Z " fill="#101010" transform="translate(208,94)"/>
<path d="M0 0 C0.33 0.99 0.66 1.98 1 3 C2.98 3 4.96 3 7 3 C7.33 2.34 7.66 1.68 8 1 C8.054 2.791 8.093 4.583 8.125 6.375 C8.148 7.373 8.171 8.37 8.195 9.398 C8 12 8 12 6 14 C1.444 13.444 1.444 13.444 0 12 C-0.072 9.98 -0.084 7.958 -0.062 5.938 C-0.053 4.833 -0.044 3.728 -0.035 2.59 C-0.024 1.735 -0.012 0.881 0 0 Z " fill="#101010" transform="translate(188,94)"/>
<path d="M0 0 C0.33 0.99 0.66 1.98 1 3 C2.98 3 4.96 3 7 3 C7.33 2.34 7.66 1.68 8 1 C8.054 2.791 8.093 4.583 8.125 6.375 C8.148 7.373 8.171 8.37 8.195 9.398 C8 12 8 12 6 14 C1.444 13.444 1.444 13.444 0 12 C-0.072 9.98 -0.084 7.958 -0.062 5.938 C-0.053 4.833 -0.044 3.728 -0.035 2.59 C-0.024 1.735 -0.012 0.881 0 0 Z " fill="#101010" transform="translate(56,94)"/>
<path d="M0 0 C0.33 0.99 0.66 1.98 1 3 C2.98 3 4.96 3 7 3 C7.33 2.34 7.66 1.68 8 1 C8.054 2.791 8.093 4.583 8.125 6.375 C8.148 7.373 8.171 8.37 8.195 9.398 C8 12 8 12 6 14 C1.444 13.444 1.444 13.444 0 12 C-0.072 9.98 -0.084 7.958 -0.062 5.938 C-0.053 4.833 -0.044 3.728 -0.035 2.59 C-0.024 1.735 -0.012 0.881 0 0 Z " fill="#101010" transform="translate(36,94)"/>
<path d="M0 0 C2.64 0 5.28 0 8 0 C8 1.32 8 2.64 8 4 C5.36 4 2.72 4 0 4 C0 2.68 0 1.36 0 0 Z " fill="#0E0E0E" transform="translate(200,160)"/>
<path d="M0 0 C2.64 0 5.28 0 8 0 C8 1.32 8 2.64 8 4 C5.36 4 2.72 4 0 4 C0 2.68 0 1.36 0 0 Z " fill="#0E0E0E" transform="translate(44,160)"/>
<path d="M0 0 C2.64 0 5.28 0 8 0 C8 1.32 8 2.64 8 4 C5.36 4 2.72 4 0 4 C0 2.68 0 1.36 0 0 Z " fill="#0E0E0E" transform="translate(200,128)"/>
<path d="M0 0 C2.64 0 5.28 0 8 0 C8 1.32 8 2.64 8 4 C5.36 4 2.72 4 0 4 C0 2.68 0 1.36 0 0 Z " fill="#0E0E0E" transform="translate(44,128)"/>
<path d="M0 0 C2.64 0 5.28 0 8 0 C8 1.32 8 2.64 8 4 C5.36 4 2.72 4 0 4 C0 2.68 0 1.36 0 0 Z " fill="#0F0F0F" transform="translate(144,100)"/>
<path d="M0 0 C2.64 0 5.28 0 8 0 C8 1.32 8 2.64 8 4 C5.36 4 2.72 4 0 4 C0 2.68 0 1.36 0 0 Z " fill="#0F0F0F" transform="translate(100,100)"/>
<path d="M0 0 C2.438 0.375 2.438 0.375 5 1 C5.33 1.66 5.66 2.32 6 3 C4.75 4.562 4.75 4.562 3 6 C0.812 5.688 0.812 5.688 -1 5 C-0.67 3.35 -0.34 1.7 0 0 Z " fill="#585858" transform="translate(210,92)"/>
<path d="M0 0 C2.438 0.375 2.438 0.375 5 1 C5.33 1.66 5.66 2.32 6 3 C4.75 4.562 4.75 4.562 3 6 C0.812 5.688 0.812 5.688 -1 5 C-0.67 3.35 -0.34 1.7 0 0 Z " fill="#585858" transform="translate(190,92)"/>
<path d="M0 0 C2.438 0.375 2.438 0.375 5 1 C5.33 1.66 5.66 2.32 6 3 C4.75 4.562 4.75 4.562 3 6 C0.812 5.688 0.812 5.688 -1 5 C-0.67 3.35 -0.34 1.7 0 0 Z " fill="#585858" transform="translate(58,92)"/>
<path d="M0 0 C2.438 0.375 2.438 0.375 5 1 C5.33 1.66 5.66 2.32 6 3 C4.75 4.562 4.75 4.562 3 6 C0.812 5.688 0.812 5.688 -1 5 C-0.67 3.35 -0.34 1.7 0 0 Z " fill="#585858" transform="translate(38,92)"/>
<path d="M0 0 C-0.33 1.65 -0.66 3.3 -1 5 C-2.65 4.67 -4.3 4.34 -6 4 C-6 2.68 -6 1.36 -6 0 C-3.509 -1.245 -2.589 -0.777 0 0 Z " fill="#5A5A5A" transform="translate(175,103)"/>
<path d="M0 0 C-0.33 1.65 -0.66 3.3 -1 5 C-2.65 4.67 -4.3 4.34 -6 4 C-6 2.68 -6 1.36 -6 0 C-3.509 -1.245 -2.589 -0.777 0 0 Z " fill="#5A5A5A" transform="translate(83,103)"/>
</svg>
