<svg width="300" height="300" viewBox="0 0 300 300" xmlns="http://www.w3.org/2000/svg">
  <rect x="20" y="110" width="260" height="120" rx="8" ry="8" fill="#D1D1D1" />
  
  <rect x="25" y="115" width="250" height="35" rx="4" ry="4" fill="#BDBDBD" />
  <g stroke="#9E9E9E" stroke-width="1.5">
    <line x1="40" y1="122" x2="260" y2="122" />
    <line x1="40" y1="128" x2="260" y2="128" />
    <line x1="40" y1="134" x2="260" y2="134" />
    <line x1="40" y1="140" x2="260" y2="140" />
  </g>

  <rect x="35" y="155" width="230" height="65" rx="2" ry="2" fill="#B0B0B0" />

  <g fill="#E0E0E0">
    <rect x="40" y="160" width="12" height="10" rx="1" />
    <rect x="54" y="160" width="12" height="10" rx="1" />
    <rect x="68" y="160" width="12" height="10" rx="1" />
    <rect x="82" y="160" width="12" height="10" rx="1" />
    <rect x="96" y="160" width="12" height="10" rx="1" />
    <rect x="110" y="160" width="12" height="10" rx="1" />
    <rect x="124" y="160" width="12" height="10" rx="1" />
    <rect x="138" y="160" width="12" height="10" rx="1" />
    <rect x="152" y="160" width="12" height="10" rx="1" />
    <rect x="166" y="160" width="12" height="10" rx="1" />
    <rect x="180" y="160" width="12" height="10" rx="1" />
    
    <rect x="43" y="172" width="12" height="10" rx="1" />
    <rect x="57" y="172" width="12" height="10" rx="1" />
    <rect x="71" y="172" width="12" height="10" rx="1" />
    <rect x="85" y="172" width="12" height="10" rx="1" />
    <rect x="99" y="172" width="12" height="10" rx="1" />
    <rect x="113" y="172" width="12" height="10" rx="1" />
    <rect x="127" y="172" width="12" height="10" rx="1" />
    <rect x="141" y="172" width="12" height="10" rx="1" />
    <rect x="155" y="172" width="12" height="10" rx="1" />
    <rect x="169" y="172" width="23" height="10" rx="1" /> <rect x="40" y="184" width="18" height="10" rx="1" /> <rect x="60" y="184" width="12" height="10" rx="1" />
    <rect x="74" y="184" width="12" height="10" rx="1" />
    <rect x="88" y="184" width="12" height="10" rx="1" />
    <rect x="102" y="184" width="12" height="10" rx="1" />
    <rect x="116" y="184" width="12" height="10" rx="1" />
    <rect x="130" y="184" width="12" height="10" rx="1" />
    <rect x="144" y="184" width="12" height="10" rx="1" />
    <rect x="158" y="184" width="12" height="10" rx="1" />
    <rect x="172" y="184" width="20" height="10" rx="1" />

    <rect x="65" y="196" width="90" height="10" rx="1" />
  </g>

  <g fill="#BDBDBD">
    <rect x="205" y="160" width="12" height="10" rx="1" />
    <rect x="219" y="160" width="12" height="10" rx="1" />
    <rect x="233" y="160" width="12" height="10" rx="1" />
    
    <rect x="205" y="172" width="12" height="10" rx="1" />
    <rect x="219" y="172" width="12" height="10" rx="1" />
    <rect x="233" y="172" width="12" height="10" rx="1" />
    
    <rect x="205" y="184" width="12" height="10" rx="1" />
    <rect x="219" y="184" width="12" height="10" rx="1" />
    <rect x="233" y="184" width="12" height="10" rx="1" />
    
    <rect x="205" y="196" width="26" height="10" rx="1" />
    <rect x="233" y="196" width="12" height="10" rx="1" />
  </g>

  <g fill="#9E9E9E">
    <rect x="250" y="160" width="10" height="12" rx="1" />
    <rect x="250" y="174" width="10" height="12" rx="1" />
    <rect x="250" y="188" width="10" height="12" rx="1" />
    <rect x="250" y="202" width="10" height="12" rx="1" />
  </g>

  <rect x="210" y="212" width="40" height="8" rx="1" fill="#A0A0A0" />
  
  <circle cx="255" cy="145" r="1.5" fill="#FF5252" />
</svg>
