<?xml version="1.0" encoding="UTF-8"?>
<!-- Generator: visioncortex VTracer 0.6.12 -->
<svg version="1.1" xmlns="http://www.w3.org/2000/svg" width="256" height="256">
<path d="M0 0 C0.939 -0.005 1.879 -0.011 2.847 -0.016 C5.99 -0.031 9.134 -0.023 12.277 -0.016 C14.533 -0.022 16.788 -0.029 19.044 -0.037 C25.168 -0.055 31.291 -0.054 37.415 -0.048 C42.527 -0.045 47.639 -0.051 52.751 -0.057 C65.5 -0.072 78.248 -0.068 90.997 -0.056 C102.063 -0.046 113.128 -0.059 124.194 -0.083 C135.563 -0.108 146.932 -0.117 158.302 -0.111 C164.682 -0.107 171.062 -0.11 177.442 -0.127 C183.441 -0.142 189.44 -0.138 195.44 -0.12 C197.641 -0.116 199.842 -0.119 202.044 -0.13 C205.05 -0.143 208.055 -0.131 211.061 -0.114 C211.496 -0.118 211.496 -0.118 213.698 -0.143 C219.472 -0.073 222.851 1.044 227.594 4.388 C231.315 9.457 231.02 14.649 230.982 20.688 C230.985 21.2 230.985 21.2 230.998 23.79 C231.011 27.165 231.002 30.54 230.992 33.915 C230.994 36.266 230.997 38.617 231.001 40.969 C231.005 45.894 230.999 50.819 230.985 55.744 C230.968 62.05 230.978 68.356 230.996 74.662 C231.007 79.516 231.003 84.371 230.995 89.226 C230.993 91.551 230.996 93.875 231.003 96.2 C231.01 99.453 230.999 102.705 230.982 105.958 C230.988 106.914 230.994 107.871 231 108.856 C230.94 115.237 230.214 120.336 225.91 125.349 C225.332 125.815 224.753 126.282 224.156 126.763 C223.58 127.245 223.004 127.727 222.41 128.224 C217.968 131.07 212.828 130.533 207.732 130.528 C206.827 130.531 205.922 130.534 204.989 130.537 C201.95 130.546 198.911 130.547 195.872 130.549 C193.696 130.553 191.519 130.558 189.343 130.564 C183.425 130.577 177.508 130.583 171.591 130.588 C167.895 130.591 164.199 130.595 160.503 130.599 C148.941 130.613 137.38 130.623 125.819 130.627 C125.16 130.627 125.16 130.627 121.828 130.628 C121.168 130.628 120.508 130.628 119.829 130.629 C108.474 130.633 97.12 130.653 85.766 130.678 C75.449 130.699 65.132 130.709 54.815 130.711 C48.652 130.712 42.489 130.718 36.325 130.735 C30.528 130.752 24.731 130.754 18.934 130.745 C16.806 130.745 14.679 130.749 12.552 130.759 C9.647 130.771 6.742 130.766 3.837 130.755 C3.416 130.759 3.416 130.759 1.289 130.78 C-4.743 130.729 -9.643 129.76 -14.367 125.704 C-14.834 125.125 -15.3 124.547 -15.781 123.95 C-16.263 123.374 -16.745 122.798 -17.242 122.204 C-19.323 118.957 -19.532 115.719 -19.553 111.93 C-19.56 111.042 -19.568 110.155 -19.575 109.241 C-19.578 108.275 -19.58 107.309 -19.583 106.314 C-19.59 105.291 -19.596 104.268 -19.603 103.214 C-19.623 99.828 -19.634 96.442 -19.644 93.056 C-19.648 91.899 -19.653 90.742 -19.657 89.549 C-19.678 83.427 -19.692 77.305 -19.701 71.182 C-19.712 64.861 -19.747 58.539 -19.786 52.217 C-19.813 47.354 -19.821 42.491 -19.825 37.627 C-19.829 35.297 -19.841 32.967 -19.86 30.636 C-19.884 27.374 -19.883 24.112 -19.876 20.849 C-19.889 19.89 -19.902 18.93 -19.915 17.941 C-19.868 11.913 -19.137 8.213 -15.406 3.388 C-10.276 0.049 -5.91 -0.041 0 0 Z " fill="#D8D8D8" transform="translate(22.406112670898438,62.61231994628906)"/>
<path d="M0 0 C56.76 0 113.52 0 172 0 C172 7.92 172 15.84 172 24 C170.68 24 169.36 24 168 24 C168 31.92 168 39.84 168 48 C153.48 48 138.96 48 124 48 C124 50.64 124 53.28 124 56 C91 56 58 56 24 56 C24 53.36 24 50.72 24 48 C14.76 48 5.52 48 -4 48 C-4 38.76 -4 29.52 -4 20 C-2.68 20 -1.36 20 0 20 C0 13.4 0 6.8 0 0 Z " fill="#454545" transform="translate(24,108)"/>
<path d="M0 0 C0.939 -0.005 1.879 -0.011 2.847 -0.016 C5.99 -0.031 9.134 -0.023 12.277 -0.016 C14.533 -0.022 16.788 -0.029 19.044 -0.037 C25.168 -0.055 31.291 -0.054 37.415 -0.048 C42.527 -0.045 47.639 -0.051 52.751 -0.057 C65.5 -0.072 78.248 -0.068 90.997 -0.056 C102.063 -0.046 113.128 -0.059 124.194 -0.083 C135.563 -0.108 146.932 -0.117 158.302 -0.111 C164.682 -0.107 171.062 -0.11 177.442 -0.127 C183.441 -0.142 189.44 -0.138 195.44 -0.12 C197.641 -0.116 199.842 -0.119 202.044 -0.13 C205.05 -0.143 208.055 -0.131 211.061 -0.114 C211.496 -0.118 211.496 -0.118 213.698 -0.143 C219.472 -0.073 222.851 1.044 227.594 4.388 C231.315 9.457 231.02 14.649 230.982 20.688 C230.985 21.2 230.985 21.2 230.998 23.79 C231.011 27.165 231.002 30.54 230.992 33.915 C230.994 36.266 230.997 38.617 231.001 40.969 C231.005 45.894 230.999 50.819 230.985 55.744 C230.968 62.05 230.978 68.356 230.996 74.662 C231.007 79.516 231.003 84.371 230.995 89.226 C230.993 91.551 230.996 93.875 231.003 96.2 C231.01 99.453 230.999 102.705 230.982 105.958 C230.988 106.914 230.994 107.871 231 108.856 C230.94 115.237 230.214 120.336 225.91 125.349 C225.332 125.815 224.753 126.282 224.156 126.763 C223.58 127.245 223.004 127.727 222.41 128.224 C217.968 131.07 212.828 130.533 207.732 130.528 C206.827 130.531 205.922 130.534 204.989 130.537 C201.95 130.546 198.911 130.547 195.872 130.549 C193.696 130.553 191.519 130.558 189.343 130.564 C183.425 130.577 177.508 130.583 171.591 130.588 C167.895 130.591 164.199 130.595 160.503 130.599 C148.941 130.613 137.38 130.623 125.819 130.627 C125.16 130.627 125.16 130.627 121.828 130.628 C121.168 130.628 120.508 130.628 119.829 130.629 C108.474 130.633 97.12 130.653 85.766 130.678 C75.449 130.699 65.132 130.709 54.815 130.711 C48.652 130.712 42.489 130.718 36.325 130.735 C30.528 130.752 24.731 130.754 18.934 130.745 C16.806 130.745 14.679 130.749 12.552 130.759 C9.647 130.771 6.742 130.766 3.837 130.755 C3.416 130.759 3.416 130.759 1.289 130.78 C-4.743 130.729 -9.643 129.76 -14.367 125.704 C-14.834 125.125 -15.3 124.547 -15.781 123.95 C-16.263 123.374 -16.745 122.798 -17.242 122.204 C-19.323 118.957 -19.532 115.719 -19.553 111.93 C-19.56 111.042 -19.568 110.155 -19.575 109.241 C-19.578 108.275 -19.58 107.309 -19.583 106.314 C-19.59 105.291 -19.596 104.268 -19.603 103.214 C-19.623 99.828 -19.634 96.442 -19.644 93.056 C-19.648 91.899 -19.653 90.742 -19.657 89.549 C-19.678 83.427 -19.692 77.305 -19.701 71.182 C-19.712 64.861 -19.747 58.539 -19.786 52.217 C-19.813 47.354 -19.821 42.491 -19.825 37.627 C-19.829 35.297 -19.841 32.967 -19.86 30.636 C-19.884 27.374 -19.883 24.112 -19.876 20.849 C-19.889 19.89 -19.902 18.93 -19.915 17.941 C-19.868 11.913 -19.137 8.213 -15.406 3.388 C-10.276 0.049 -5.91 -0.041 0 0 Z M-10.406 11.388 C-10.663 13.26 -10.663 13.26 -10.674 15.581 C-10.682 16.46 -10.691 17.339 -10.699 18.244 C-10.698 19.211 -10.698 20.178 -10.697 21.174 C-10.703 22.19 -10.71 23.207 -10.717 24.254 C-10.736 27.628 -10.74 31.002 -10.742 34.376 C-10.748 36.715 -10.755 39.055 -10.762 41.394 C-10.774 46.304 -10.778 51.214 -10.777 56.125 C-10.777 62.42 -10.804 68.715 -10.838 75.01 C-10.86 79.844 -10.865 84.678 -10.863 89.512 C-10.866 91.833 -10.875 94.154 -10.89 96.475 C-10.91 99.721 -10.904 102.967 -10.892 106.213 C-10.903 107.174 -10.914 108.135 -10.926 109.124 C-10.918 110.012 -10.909 110.899 -10.901 111.814 C-10.902 112.581 -10.903 113.348 -10.904 114.138 C-10.149 117.549 -9.019 119.057 -6.406 121.388 C-3.438 122.126 -0.538 122.062 2.507 122.023 C3.418 122.03 4.328 122.038 5.266 122.046 C8.324 122.066 11.381 122.05 14.439 122.035 C16.629 122.041 18.818 122.05 21.008 122.061 C26.96 122.084 32.912 122.075 38.865 122.059 C45.089 122.047 51.312 122.058 57.536 122.066 C68.66 122.076 79.783 122.06 90.907 122.035 C100.992 122.013 111.076 122.016 121.161 122.04 C132.871 122.066 144.581 122.076 156.292 122.061 C162.491 122.054 168.69 122.053 174.889 122.069 C180.717 122.084 186.545 122.074 192.374 122.045 C194.515 122.038 196.656 122.04 198.797 122.051 C201.716 122.065 204.634 122.048 207.554 122.023 C208.404 122.034 209.254 122.045 210.131 122.056 C214.37 121.986 216.117 121.743 219.62 119.134 C221.642 116.32 222.218 115.202 222.209 111.814 C222.218 110.926 222.228 110.039 222.238 109.124 C222.223 108.164 222.209 107.203 222.193 106.213 C222.197 105.191 222.201 104.17 222.205 103.117 C222.212 99.745 222.183 96.373 222.152 93.001 C222.148 90.659 222.146 88.317 222.145 85.974 C222.139 81.069 222.117 76.165 222.081 71.26 C222.036 64.961 222.021 58.663 222.017 52.364 C222.013 47.53 221.998 42.696 221.978 37.862 C221.969 35.539 221.963 33.215 221.958 30.892 C221.949 27.652 221.927 24.413 221.9 21.174 C221.9 20.207 221.899 19.24 221.898 18.244 C221.888 17.365 221.878 16.486 221.868 15.581 C221.866 15.198 221.866 15.198 221.854 13.26 C221.594 11.388 221.594 11.388 219.594 9.388 C216.603 9.19 213.704 9.119 210.711 9.134 C209.78 9.131 208.848 9.127 207.889 9.124 C204.749 9.116 201.609 9.123 198.469 9.129 C196.226 9.126 193.982 9.123 191.739 9.118 C185.632 9.109 179.524 9.113 173.417 9.119 C167.039 9.124 160.66 9.119 154.281 9.116 C142.881 9.112 131.48 9.119 120.08 9.129 C109.735 9.138 99.391 9.136 89.047 9.127 C77.045 9.116 65.043 9.112 53.04 9.118 C46.683 9.121 40.326 9.122 33.969 9.115 C27.994 9.109 22.018 9.113 16.043 9.125 C13.844 9.128 11.646 9.127 9.447 9.122 C6.457 9.117 3.467 9.124 0.477 9.134 C-0.403 9.129 -1.283 9.125 -2.19 9.12 C-8.178 9.159 -8.178 9.159 -10.406 11.388 Z " fill="#FEFEFE" transform="translate(22.406112670898438,62.61231994628906)"/>
<path d="M0 0 C0.86 0.002 1.72 0.004 2.607 0.007 C3.513 0.005 4.42 0.004 5.354 0.002 C8.417 -0.002 11.479 0.001 14.542 0.004 C16.727 0.003 18.913 0.001 21.099 -0.001 C27.053 -0.006 33.008 -0.004 38.962 -0.001 C45.178 0.002 51.394 -0 57.611 -0.002 C68.722 -0.004 79.833 -0.001 90.944 0.004 C101.028 0.009 111.112 0.008 121.196 0.003 C132.893 -0.002 144.59 -0.004 156.286 -0.001 C162.483 0.001 168.68 0.001 174.876 -0.003 C180.701 -0.005 186.525 -0.003 192.349 0.002 C194.493 0.004 196.638 0.003 198.782 0.001 C201.696 -0.002 204.61 0.002 207.524 0.007 C208.384 0.005 209.244 0.002 210.13 0 C215.951 0.02 215.951 0.02 217.065 1.134 C217.164 3.061 217.193 4.993 217.195 6.923 C217.198 8.161 217.201 9.399 217.204 10.674 C217.202 12.036 217.2 13.397 217.198 14.759 C217.199 16.145 217.2 17.531 217.201 18.917 C217.202 21.826 217.2 24.735 217.196 27.644 C217.19 31.38 217.193 35.116 217.199 38.852 C217.203 41.716 217.202 44.579 217.199 47.443 C217.198 48.82 217.199 50.198 217.201 51.576 C217.204 53.499 217.199 55.422 217.195 57.345 C217.194 58.441 217.193 59.537 217.192 60.666 C217.065 63.134 217.065 63.134 216.065 64.134 C213.21 64.234 210.379 64.268 207.524 64.261 C206.617 64.262 205.71 64.264 204.776 64.265 C201.714 64.269 198.651 64.266 195.589 64.263 C193.403 64.264 191.217 64.266 189.032 64.268 C183.077 64.273 177.123 64.271 171.168 64.268 C164.952 64.266 158.736 64.268 152.52 64.269 C141.409 64.271 130.298 64.268 119.187 64.263 C109.103 64.259 99.018 64.26 88.934 64.264 C77.237 64.269 65.541 64.271 53.844 64.269 C47.647 64.267 41.451 64.267 35.254 64.27 C29.43 64.273 23.605 64.271 17.781 64.265 C15.637 64.264 13.493 64.264 11.348 64.266 C8.434 64.269 5.521 64.266 2.607 64.261 C1.746 64.263 0.886 64.265 0 64.267 C-5.821 64.248 -5.821 64.248 -6.935 63.134 C-7.034 61.206 -7.063 59.275 -7.064 57.345 C-7.067 56.107 -7.071 54.869 -7.074 53.593 C-7.072 52.232 -7.07 50.87 -7.068 49.509 C-7.068 48.123 -7.069 46.736 -7.071 45.35 C-7.072 42.441 -7.07 39.533 -7.065 36.624 C-7.06 32.888 -7.063 29.152 -7.069 25.415 C-7.072 22.552 -7.071 19.688 -7.069 16.825 C-7.068 15.447 -7.069 14.069 -7.071 12.691 C-7.074 10.768 -7.069 8.846 -7.064 6.923 C-7.063 5.827 -7.063 4.73 -7.062 3.601 C-6.817 -1.147 -4.114 0.014 0 0 Z M1.065 4.134 C1.065 10.734 1.065 17.334 1.065 24.134 C-0.255 24.134 -1.575 24.134 -2.935 24.134 C-2.935 33.374 -2.935 42.614 -2.935 52.134 C6.305 52.134 15.545 52.134 25.065 52.134 C25.065 54.774 25.065 57.414 25.065 60.134 C58.065 60.134 91.065 60.134 125.065 60.134 C125.065 57.494 125.065 54.854 125.065 52.134 C139.585 52.134 154.105 52.134 169.065 52.134 C169.065 44.214 169.065 36.294 169.065 28.134 C170.385 28.134 171.705 28.134 173.065 28.134 C173.065 20.214 173.065 12.294 173.065 4.134 C116.305 4.134 59.545 4.134 1.065 4.134 Z " fill="#D7D7D7" transform="translate(22.934850692749023,103.8662565946579)"/>
<path d="M0 0 C0.88 0.004 1.76 0.009 2.667 0.014 C3.598 0.01 4.529 0.007 5.489 0.004 C8.629 -0.004 11.769 0.002 14.909 0.009 C17.152 0.006 19.395 0.002 21.639 -0.002 C27.746 -0.011 33.853 -0.007 39.96 -0.001 C46.339 0.004 52.718 -0.001 59.096 -0.004 C70.497 -0.008 81.897 -0.002 93.298 0.009 C103.642 0.018 113.986 0.016 124.331 0.007 C136.333 -0.004 148.335 -0.008 160.337 -0.002 C166.694 0.001 173.052 0.001 179.409 -0.005 C185.384 -0.011 191.359 -0.007 197.335 0.005 C199.533 0.007 201.732 0.007 203.931 0.002 C206.921 -0.003 209.911 0.004 212.901 0.014 C213.781 0.009 214.661 0.005 215.567 0 C221.555 0.039 221.555 0.039 223.784 2.267 C223.784 7.547 223.784 12.827 223.784 18.267 C147.224 18.267 70.664 18.267 -8.216 18.267 C-8.216 0.054 -8.216 0.054 0 0 Z " fill="#CACACA" transform="translate(20.21630859375,71.7325131893158)"/>
<path d="M0 0 C0.89 0.001 1.781 0.001 2.698 0.002 C3.21 0.001 3.21 0.001 5.799 -0.002 C6.936 0.001 8.073 0.005 9.245 0.008 C9.844 0.008 9.844 0.008 12.873 0.008 C16.208 0.01 19.543 0.016 22.878 0.025 C25.004 0.03 27.131 0.033 29.257 0.035 C64.57 0.077 99.882 0.32 135.194 0.569 C144.041 0.631 152.889 0.691 161.737 0.75 C179.823 0.872 197.909 0.997 215.995 1.124 C215.995 3.104 215.995 5.084 215.995 7.124 C197.021 7.257 178.048 7.387 159.074 7.515 C150.256 7.574 141.437 7.634 132.619 7.696 C110.707 7.85 88.796 7.988 66.884 8.099 C63.621 8.115 60.358 8.132 57.095 8.151 C48.555 8.198 40.016 8.239 31.476 8.261 C27.937 8.27 24.399 8.283 20.86 8.303 C17.021 8.325 13.182 8.332 9.343 8.337 C8.211 8.345 7.078 8.354 5.912 8.363 C4.889 8.362 3.866 8.36 2.812 8.359 C2.368 8.36 2.368 8.36 0.12 8.367 C-2.005 8.124 -2.005 8.124 -4.005 6.124 C-3.283 0.202 -3.283 0.202 0 0 Z " fill="#CACACA" transform="translate(28.0048828125,78.87638092041016)"/>
<path d="M0 0 C0.86 0.002 1.72 0.004 2.607 0.007 C3.513 0.005 4.42 0.004 5.354 0.002 C8.417 -0.002 11.479 0.001 14.542 0.004 C16.727 0.003 18.913 0.001 21.099 -0.001 C27.053 -0.006 33.008 -0.004 38.962 -0.001 C45.178 0.002 51.394 -0 57.611 -0.002 C68.722 -0.004 79.833 -0.001 90.944 0.004 C101.028 0.009 111.112 0.008 121.196 0.003 C132.893 -0.002 144.59 -0.004 156.286 -0.001 C162.483 0.001 168.68 0.001 174.876 -0.003 C180.701 -0.005 186.525 -0.003 192.349 0.002 C194.493 0.004 196.638 0.003 198.782 0.001 C201.696 -0.002 204.61 0.002 207.524 0.007 C208.384 0.005 209.244 0.002 210.13 0 C215.951 0.02 215.951 0.02 217.065 1.134 C217.164 3.061 217.193 4.993 217.195 6.923 C217.198 8.161 217.201 9.399 217.204 10.674 C217.202 12.036 217.2 13.397 217.198 14.759 C217.199 16.145 217.2 17.531 217.201 18.917 C217.202 21.826 217.2 24.735 217.196 27.644 C217.19 31.38 217.193 35.116 217.199 38.852 C217.203 41.716 217.202 44.579 217.199 47.443 C217.198 48.82 217.199 50.198 217.201 51.576 C217.204 53.499 217.199 55.422 217.195 57.345 C217.194 58.441 217.193 59.537 217.192 60.666 C217.065 63.134 217.065 63.134 216.065 64.134 C213.21 64.234 210.379 64.268 207.524 64.261 C206.617 64.262 205.71 64.264 204.776 64.265 C201.714 64.269 198.651 64.266 195.589 64.263 C193.403 64.264 191.217 64.266 189.032 64.268 C183.077 64.273 177.123 64.271 171.168 64.268 C164.952 64.266 158.736 64.268 152.52 64.269 C141.409 64.271 130.298 64.268 119.187 64.263 C109.103 64.259 99.018 64.26 88.934 64.264 C77.237 64.269 65.541 64.271 53.844 64.269 C47.647 64.267 41.451 64.267 35.254 64.27 C29.43 64.273 23.605 64.271 17.781 64.265 C15.637 64.264 13.493 64.264 11.348 64.266 C8.434 64.269 5.521 64.266 2.607 64.261 C1.746 64.263 0.886 64.265 0 64.267 C-5.821 64.248 -5.821 64.248 -6.935 63.134 C-7.034 61.206 -7.063 59.275 -7.064 57.345 C-7.067 56.107 -7.071 54.869 -7.074 53.593 C-7.072 52.232 -7.07 50.87 -7.068 49.509 C-7.068 48.123 -7.069 46.736 -7.071 45.35 C-7.072 42.441 -7.07 39.533 -7.065 36.624 C-7.06 32.888 -7.063 29.152 -7.069 25.415 C-7.072 22.552 -7.071 19.688 -7.069 16.825 C-7.068 15.447 -7.069 14.069 -7.071 12.691 C-7.074 10.768 -7.069 8.846 -7.064 6.923 C-7.063 5.827 -7.063 4.73 -7.062 3.601 C-6.817 -1.147 -4.114 0.014 0 0 Z M-4.935 2.134 C-4.935 21.934 -4.935 41.734 -4.935 62.134 C67.665 62.134 140.265 62.134 215.065 62.134 C215.065 42.334 215.065 22.534 215.065 2.134 C142.465 2.134 69.865 2.134 -4.935 2.134 Z " fill="#C2C2C2" transform="translate(22.934850692749023,103.8662565946579)"/>
<path d="M0 0 C75.24 0 150.48 0 228 0 C228.33 0.66 228.33 0.66 230 4 C153.44 4 76.88 4 -2 4 C-1.34 2.68 -0.68 1.36 0 0 Z " fill="#D9D9D9" transform="translate(14,72)"/>
<path d="M0 0 C33 0 66 0 100 0 C100 2.64 100 5.28 100 8 C67 8 34 8 0 8 C0 5.36 0 2.72 0 0 Z " fill="#4D4E4D" transform="translate(48,156)"/>
<path d="M0 0 C5.28 0 10.56 0 16 0 C16 15.84 16 31.68 16 48 C10.72 48 5.44 48 0 48 C0 32.16 0 16.32 0 0 Z " fill="#A5A5A5" transform="translate(208,108)"/>
<path d="M0 0 C58.74 0.33 117.48 0.66 178 1 C178 1.33 178 1.66 178 2 C121.24 2 64.48 2 6 2 C6 8.6 6 15.2 6 22 C4.68 22 3.36 22 2 22 C2 31.24 2 40.48 2 50 C11.24 50 20.48 50 30 50 C30 52.64 30 55.28 30 58 C63 58 96 58 130 58 C130 58.33 130 58.66 130 59 C117.627 59.132 105.255 59.263 92.882 59.391 C87.133 59.451 81.385 59.511 75.636 59.573 C50.423 59.843 25.215 60.064 0 60 C0 40.2 0 20.4 0 0 Z " fill="#D0D0D0" transform="translate(18,106)"/>
<path d="M0 0 C1.275 -0.006 2.55 -0.013 3.863 -0.019 C5.266 -0.021 6.668 -0.022 8.071 -0.023 C9.499 -0.026 10.928 -0.029 12.357 -0.033 C15.355 -0.039 18.354 -0.041 21.353 -0.04 C25.201 -0.04 29.049 -0.054 32.897 -0.071 C35.849 -0.082 38.801 -0.084 41.753 -0.083 C43.172 -0.085 44.591 -0.089 46.01 -0.097 C47.992 -0.107 49.975 -0.102 51.957 -0.098 C52.522 -0.098 52.522 -0.098 55.38 -0.102 C58.043 0.145 58.043 0.145 60.043 2.145 C59.488 6.701 59.488 6.701 58.043 8.145 C56.06 8.25 54.073 8.284 52.086 8.291 C50.812 8.297 49.537 8.303 48.223 8.31 C46.821 8.311 45.418 8.313 44.016 8.313 C42.587 8.316 41.159 8.32 39.73 8.323 C36.731 8.329 33.733 8.331 30.734 8.331 C26.886 8.33 23.038 8.344 19.189 8.361 C16.237 8.372 13.286 8.374 10.334 8.374 C8.915 8.375 7.496 8.38 6.077 8.387 C4.094 8.397 2.112 8.393 0.129 8.388 C-0.435 8.389 -0.435 8.389 -3.293 8.393 C-5.957 8.145 -5.957 8.145 -7.957 6.145 C-7.2 -0.063 -6.004 0.02 0 0 Z " fill="#A7A7A7" transform="translate(31.956787109375,78.854736328125)"/>
<path d="M0 0 C4.95 0 9.9 0 15 0 C15 1.32 15 2.64 15 4 C1.589 5.351 -11.843 5.127 -25.305 5.098 C-27.841 5.096 -30.376 5.094 -32.912 5.093 C-38.869 5.09 -44.825 5.082 -50.782 5.072 C-57.573 5.061 -64.364 5.055 -71.155 5.05 C-85.103 5.04 -99.052 5.022 -113 5 C-112.67 4.34 -112.34 3.68 -112 3 C-75.04 3 -38.08 3 0 3 C0 2.01 0 1.02 0 0 Z " fill="#C1C1C1" transform="translate(204,81)"/>
<path d="M0 0 C26.07 0 52.14 0 79 0 C78.67 0.66 78.34 1.32 78 2 C56.88 2 35.76 2 14 2 C13.67 3.65 13.34 5.3 13 7 C14.792 8.792 17.475 8.172 19.897 8.205 C21.158 8.225 22.419 8.245 23.719 8.266 C25.105 8.283 26.492 8.3 27.879 8.316 C29.29 8.337 30.701 8.358 32.112 8.379 C35.832 8.435 39.553 8.484 43.273 8.532 C47.067 8.582 50.861 8.638 54.654 8.693 C62.103 8.801 69.551 8.902 77 9 C77 9.33 77 9.66 77 10 C51.59 10 26.18 10 0 10 C0 6.7 0 3.4 0 0 Z " fill="#D1D1D1" transform="translate(12,78)"/>
<path d="M0 0 C56.76 0 113.52 0 172 0 C172 7.92 172 15.84 172 24 C170.68 23.67 169.36 23.34 168 23 C168.99 23 169.98 23 171 23 C171 15.74 171 8.48 171 1 C115.89 1 60.78 1 4 1 C4 2.98 4 4.96 4 7 C3.01 7.33 2.02 7.66 1 8 C1 11.96 1 15.92 1 20 C0.67 20 0.34 20 0 20 C0 13.4 0 6.8 0 0 Z " fill="#565756" transform="translate(24,108)"/>
<path d="M0 0 C5.28 0 10.56 0 16 0 C16 2.64 16 5.28 16 8 C10.72 8 5.44 8 0 8 C0 5.36 0 2.72 0 0 Z " fill="#A6A6A6" transform="translate(208,108)"/>
<path d="M0 0 C4.29 0 8.58 0 13 0 C13 1.98 13 3.96 13 6 C8.71 6 4.42 6 0 6 C0 4.02 0 2.04 0 0 Z " fill="#C8C8C8" transform="translate(12,80)"/>
<path d="M0 0 C5.28 0 10.56 0 16 0 C16 1.32 16 2.64 16 4 C10.72 4 5.44 4 0 4 C0 2.68 0 1.36 0 0 Z " fill="#8F8F8F" transform="translate(208,152)"/>
<path d="M0 0 C5.28 0 10.56 0 16 0 C16 1.32 16 2.64 16 4 C10.72 4 5.44 4 0 4 C0 2.68 0 1.36 0 0 Z " fill="#8E8E8E" transform="translate(208,140)"/>
<path d="M0 0 C5.28 0 10.56 0 16 0 C16 1.32 16 2.64 16 4 C10.72 4 5.44 4 0 4 C0 2.68 0 1.36 0 0 Z " fill="#8E8E8E" transform="translate(208,128)"/>
<path d="M0 0 C5.28 0 10.56 0 16 0 C16 1.32 16 2.64 16 4 C10.72 4 5.44 4 0 4 C0 2.68 0 1.36 0 0 Z " fill="#8E8E8E" transform="translate(208,116)"/>
<path d="M0 0 C4.95 0 9.9 0 15 0 C15 1.32 15 2.64 15 4 C10.05 4 5.1 4 0 4 C0 2.68 0 1.36 0 0 Z " fill="#AD9F9F" transform="translate(204,81)"/>
</svg>
