<?xml version="1.0" encoding="UTF-8"?>
<!-- Generator: visioncortex VTracer 0.6.12 -->
<svg version="1.1" xmlns="http://www.w3.org/2000/svg" width="256" height="256">
<path d="M0 0 C82.5 0 165 0 250 0 C250 53.46 250 106.92 250 162 C167.5 162 85 162 0 162 C0 108.54 0 55.08 0 0 Z " fill="#333333" transform="translate(3,47)"/>
<path d="M0 0 C34.32 0 68.64 0 104 0 C104 30.36 104 60.72 104 92 C97.4 92 90.8 92 84 92 C84 88.04 84 84.08 84 80 C62.88 80 41.76 80 20 80 C20 83.96 20 87.92 20 92 C13.4 92 6.8 92 0 92 C0 61.64 0 31.28 0 0 Z " fill="#323232" transform="translate(132,64)"/>
<path d="M0 0 C82.5 0 165 0 250 0 C250 53.46 250 106.92 250 162 C167.5 162 85 162 0 162 C0 108.54 0 55.08 0 0 Z M9 9 C9 56.52 9 104.04 9 153 C85.56 153 162.12 153 241 153 C241 105.48 241 57.96 241 9 C164.44 9 87.88 9 9 9 Z " fill="#FAFAFA" transform="translate(3,47)"/>
<path d="M0 0 C6.924 -0.046 13.847 -0.086 20.77 -0.11 C23.126 -0.12 25.483 -0.134 27.839 -0.151 C31.222 -0.175 34.605 -0.186 37.988 -0.195 C38.516 -0.2 38.516 -0.2 41.189 -0.227 C42.17 -0.227 43.151 -0.227 44.161 -0.227 C44.593 -0.229 44.593 -0.229 46.779 -0.241 C49 0 49 0 52 2 C52 1.67 52 1.34 52 1 C57.667 1 63.333 1 69 1 C69.66 0.67 70.32 0.34 71 0 C73.178 -0.086 75.359 -0.107 77.539 -0.098 C78.712 -0.095 79.884 -0.093 81.092 -0.09 C81.84 -0.086 81.84 -0.086 85.625 -0.062 C87.997 -0.052 87.997 -0.052 100 0 C100 13.2 100 26.4 100 40 C84 40 68 40 52 40 C52 39.01 52 38.02 52 37 C51.605 37.488 51.21 37.976 50.802 38.479 C48.457 40.458 47.203 40.364 44.161 40.341 C43.181 40.34 42.2 40.34 41.189 40.34 C40.133 40.324 39.077 40.309 37.988 40.293 C36.905 40.289 35.822 40.284 34.705 40.28 C31.241 40.263 27.777 40.226 24.312 40.188 C21.966 40.172 19.618 40.159 17.271 40.146 C11.514 40.116 5.758 40.057 0 40 C0 26.8 0 13.6 0 0 Z " fill="#343434" transform="translate(24,112)"/>
<path d="M0 0 C6.924 -0.046 13.847 -0.086 20.77 -0.11 C23.126 -0.12 25.483 -0.134 27.839 -0.151 C31.222 -0.175 34.605 -0.186 37.988 -0.195 C38.516 -0.2 38.516 -0.2 41.189 -0.227 C42.17 -0.227 43.151 -0.227 44.161 -0.227 C44.593 -0.229 44.593 -0.229 46.779 -0.241 C49 0 49 0 52 2 C52 1.67 52 1.34 52 1 C57.667 1 63.333 1 69 1 C69.66 0.67 70.32 0.34 71 0 C73.178 -0.086 75.359 -0.107 77.539 -0.098 C78.712 -0.095 79.884 -0.093 81.092 -0.09 C81.84 -0.086 81.84 -0.086 85.625 -0.062 C87.997 -0.052 87.997 -0.052 100 0 C100 13.2 100 26.4 100 40 C84 40 68 40 52 40 C52 39.01 52 38.02 52 37 C51.605 37.488 51.21 37.976 50.802 38.479 C48.457 40.458 47.203 40.364 44.161 40.341 C43.181 40.34 42.2 40.34 41.189 40.34 C40.133 40.324 39.077 40.309 37.988 40.293 C36.905 40.289 35.822 40.284 34.705 40.28 C31.241 40.263 27.777 40.226 24.312 40.188 C21.966 40.172 19.618 40.159 17.271 40.146 C11.514 40.116 5.758 40.057 0 40 C0 26.8 0 13.6 0 0 Z " fill="#343434" transform="translate(24,68)"/>
<path d="M0 0 C44.55 0 89.1 0 135 0 C135 8.58 135 17.16 135 26 C90.45 26 45.9 26 0 26 C0 17.42 0 8.84 0 0 Z " fill="#323232" transform="translate(100,165)"/>
<path d="M0 0 C71.28 0 142.56 0 216 0 C216 9.24 216 18.48 216 28 C144.72 28 73.44 28 0 28 C0 18.76 0 9.52 0 0 Z M80 1 C80 9.58 80 18.16 80 27 C124.55 27 169.1 27 215 27 C215 18.42 215 9.84 215 1 C170.45 1 125.9 1 80 1 Z " fill="#1A1A1A" transform="translate(20,164)"/>
<path d="M0 0 C0.875 -0.006 1.75 -0.011 2.651 -0.017 C3.132 -0.015 3.132 -0.015 5.567 -0.005 C6.073 -0.007 6.073 -0.007 8.632 -0.015 C11.988 -0.024 15.344 -0.018 18.7 -0.012 C21.024 -0.013 23.348 -0.015 25.672 -0.017 C30.548 -0.02 35.423 -0.016 40.299 -0.007 C46.561 0.005 52.823 -0.002 59.084 -0.014 C63.885 -0.021 68.685 -0.019 73.486 -0.014 C75.795 -0.012 78.105 -0.014 80.414 -0.019 C83.637 -0.024 86.86 -0.016 90.083 -0.005 C91.045 -0.009 92.007 -0.013 92.998 -0.017 C93.436 -0.014 93.436 -0.014 95.649 0 C96.412 0.001 97.174 0.002 97.96 0.002 C99.825 0.254 99.825 0.254 101.825 2.254 C102.023 5.044 102.097 7.736 102.083 10.527 C102.087 11.383 102.091 12.238 102.094 13.12 C102.103 15.956 102.097 18.792 102.09 21.629 C102.092 23.594 102.094 25.56 102.096 27.525 C102.099 31.648 102.095 35.77 102.085 39.893 C102.074 45.186 102.081 50.479 102.093 55.772 C102.1 59.831 102.098 63.891 102.092 67.95 C102.091 69.902 102.093 71.854 102.097 73.806 C102.102 76.531 102.095 79.256 102.083 81.981 C102.088 82.793 102.092 83.606 102.096 84.443 C102.053 90.025 102.053 90.025 99.825 92.254 C97.96 92.506 97.96 92.506 95.649 92.508 C94.774 92.514 93.9 92.519 92.998 92.525 C92.036 92.521 91.074 92.517 90.083 92.513 C89.577 92.515 89.577 92.515 87.018 92.523 C83.662 92.532 80.306 92.526 76.95 92.52 C74.626 92.521 72.302 92.523 69.978 92.525 C65.102 92.528 60.226 92.524 55.35 92.515 C49.088 92.503 42.827 92.51 36.565 92.522 C31.765 92.529 26.964 92.527 22.164 92.522 C19.854 92.52 17.545 92.522 15.235 92.527 C12.012 92.532 8.79 92.524 5.567 92.513 C5.086 92.515 5.086 92.515 2.651 92.525 C1.776 92.519 0.901 92.514 0 92.508 C-0.762 92.507 -1.525 92.506 -2.311 92.506 C-4.175 92.254 -4.175 92.254 -6.175 90.254 C-6.374 87.463 -6.448 84.772 -6.434 81.981 C-6.438 81.125 -6.441 80.27 -6.445 79.388 C-6.454 76.552 -6.448 73.716 -6.441 70.879 C-6.442 68.914 -6.444 66.948 -6.447 64.983 C-6.45 60.86 -6.445 56.738 -6.436 52.615 C-6.425 47.322 -6.431 42.029 -6.443 36.736 C-6.45 32.677 -6.448 28.617 -6.443 24.558 C-6.442 22.606 -6.443 20.654 -6.448 18.702 C-6.453 15.977 -6.445 13.252 -6.434 10.527 C-6.438 9.715 -6.442 8.902 -6.446 8.065 C-6.403 2.405 -5.955 0.006 0 0 Z M-2.175 4.254 C-2.175 17.454 -2.175 30.654 -2.175 44.254 C4.748 44.3 11.671 44.34 18.595 44.364 C20.951 44.374 23.307 44.388 25.663 44.405 C29.047 44.429 32.43 44.44 35.813 44.449 C36.869 44.46 37.926 44.47 39.014 44.481 C39.504 44.481 39.504 44.481 41.986 44.481 C42.85 44.485 43.714 44.49 44.604 44.494 C46.825 44.254 46.825 44.254 49.825 42.254 C49.825 42.914 49.825 43.574 49.825 44.254 C50.945 44.254 52.065 44.254 53.219 44.254 C68.088 44.254 82.956 44.254 97.825 44.254 C97.825 31.054 97.825 17.854 97.825 4.254 C93.102 4.213 88.378 4.171 83.512 4.129 C82.026 4.111 80.539 4.093 79.007 4.074 C78.422 4.071 78.422 4.071 75.461 4.059 C74.262 4.048 73.063 4.038 71.827 4.027 C68.825 4.254 68.825 4.254 65.825 6.254 C65.66 6.089 65.66 6.089 64.825 5.254 C62.294 5.181 59.792 5.161 57.262 5.191 C56.551 5.196 55.84 5.2 55.108 5.205 C53.347 5.217 51.586 5.235 49.825 5.254 C49.825 5.914 49.825 6.574 49.825 7.254 C49.43 6.766 49.034 6.278 48.627 5.775 C46.282 3.796 45.027 3.89 41.986 3.913 C41.496 3.914 41.496 3.914 39.014 3.914 C38.486 3.922 38.486 3.922 35.813 3.961 C34.73 3.965 33.646 3.969 32.53 3.974 C29.066 3.991 25.602 4.028 22.137 4.066 C19.79 4.082 17.443 4.095 15.096 4.107 C9.339 4.138 3.582 4.197 -2.175 4.254 Z M-2.175 48.254 C-2.175 61.454 -2.175 74.654 -2.175 88.254 C4.748 88.3 11.671 88.34 18.595 88.364 C20.951 88.374 23.307 88.388 25.663 88.405 C29.047 88.429 32.43 88.44 35.813 88.449 C36.869 88.46 37.926 88.47 39.014 88.481 C39.504 88.481 39.504 88.481 41.986 88.481 C42.85 88.485 43.714 88.49 44.604 88.494 C46.825 88.254 46.825 88.254 49.825 86.254 C49.825 86.914 49.825 87.574 49.825 88.254 C50.945 88.254 52.065 88.254 53.219 88.254 C68.088 88.254 82.956 88.254 97.825 88.254 C97.825 75.054 97.825 61.854 97.825 48.254 C93.102 48.213 88.378 48.171 83.512 48.129 C82.026 48.111 80.539 48.093 79.007 48.074 C78.422 48.071 78.422 48.071 75.461 48.059 C74.262 48.048 73.063 48.038 71.827 48.027 C68.825 48.254 68.825 48.254 65.825 50.254 C65.66 50.089 65.66 50.089 64.825 49.254 C62.294 49.181 59.792 49.161 57.262 49.191 C56.551 49.196 55.84 49.2 55.108 49.205 C53.347 49.217 51.586 49.235 49.825 49.254 C49.825 49.914 49.825 50.574 49.825 51.254 C49.43 50.766 49.034 50.278 48.627 49.775 C46.282 47.796 45.027 47.89 41.986 47.913 C41.496 47.914 41.496 47.914 39.014 47.914 C38.486 47.922 38.486 47.922 35.813 47.961 C34.73 47.965 33.646 47.969 32.53 47.974 C29.066 47.991 25.602 48.028 22.137 48.066 C19.79 48.082 17.443 48.095 15.096 48.107 C9.339 48.138 3.582 48.197 -2.175 48.254 Z " fill="#1A1A1A" transform="translate(26.17529296875,63.74603271484375)"/>
<path d="M0 0 C34.32 0 68.64 0 104 0 C104 30.36 104 60.72 104 92 C97.4 92 90.8 92 84 92 C84 88.04 84 84.08 84 80 C62.88 80 41.76 80 20 80 C20 83.96 20 87.92 20 92 C13.4 92 6.8 92 0 92 C0 61.64 0 31.28 0 0 Z M1 1 C1 30.7 1 60.4 1 91 C6.94 91 12.88 91 19 91 C19 86.71 19 82.42 19 78 C40.78 78 62.56 78 85 78 C85 82.29 85 86.58 85 91 C90.94 91 96.88 91 103 91 C103 67.9 103 44.8 103 21 C102.505 20.835 102.505 20.835 100 20 C100 13.73 100 7.46 100 1 C98.68 1 97.36 1 96 1 C96 7.27 96 13.54 96 20 C94.68 20 93.36 20 92 20 C92 13.73 92 7.46 92 1 C90.68 1 89.36 1 88 1 C88 7.27 88 13.54 88 20 C86.68 20 85.36 20 84 20 C84 13.73 84 7.46 84 1 C82.68 1 81.36 1 80 1 C80 7.27 80 13.54 80 20 C78.68 20 77.36 20 76 20 C76 13.73 76 7.46 76 1 C74.68 1 73.36 1 72 1 C72 7.27 72 13.54 72 20 C70.68 20 69.36 20 68 20 C68 13.73 68 7.46 68 1 C66.68 1 65.36 1 64 1 C64 7.27 64 13.54 64 20 C62.68 20 61.36 20 60 20 C60 13.73 60 7.46 60 1 C58.68 1 57.36 1 56 1 C56 7.27 56 13.54 56 20 C54.68 20 53.36 20 52 20 C52 13.73 52 7.46 52 1 C50.68 1 49.36 1 48 1 C48 7.27 48 13.54 48 20 C46.68 20 45.36 20 44 20 C44 13.73 44 7.46 44 1 C42.68 1 41.36 1 40 1 C40 7.27 40 13.54 40 20 C38.68 20 37.36 20 36 20 C36 13.73 36 7.46 36 1 C34.68 1 33.36 1 32 1 C32 7.27 32 13.54 32 20 C30.68 20 29.36 20 28 20 C28 13.73 28 7.46 28 1 C26.68 1 25.36 1 24 1 C24 7.27 24 13.54 24 20 C22.68 20 21.36 20 20 20 C20 13.73 20 7.46 20 1 C18.68 1 17.36 1 16 1 C16 7.27 16 13.54 16 20 C14.68 20 13.36 20 12 20 C12 13.73 12 7.46 12 1 C10.68 1 9.36 1 8 1 C8 7.27 8 13.54 8 20 C6.68 20 5.36 20 4 20 C4 13.73 4 7.46 4 1 C3.01 1 2.02 1 1 1 Z " fill="#1B1B1B" transform="translate(132,64)"/>
<path d="M0 0 C23.76 0 47.52 0 72 0 C72 3.96 72 7.92 72 12 C48.24 12 24.48 12 0 12 C0 8.04 0 4.08 0 0 Z " fill="#C8C8C8" transform="translate(140,168)"/>
<path d="M0 0 C18.48 0 36.96 0 56 0 C56 9 56 9 54.672 12.021 C50.463 15.138 46.358 14.715 41.25 14.664 C40.725 14.666 40.725 14.666 38.067 14.679 C35.848 14.682 33.629 14.673 31.41 14.652 C28.012 14.625 24.617 14.652 21.219 14.684 C19.062 14.68 16.906 14.674 14.75 14.664 C13.733 14.674 12.717 14.684 11.669 14.695 C4.783 14.58 4.783 14.58 1.328 12.021 C0 9 0 9 0 0 Z " fill="#C8C8C8" transform="translate(156,148)"/>
<path d="M0 0 C23.76 0 47.52 0 72 0 C72 2.31 72 4.62 72 7 C48.24 7 24.48 7 0 7 C0 4.69 0 2.38 0 0 Z " fill="#191919" transform="translate(140,181)"/>
<path d="M0 0 C46.2 0 92.4 0 140 0 C140 9.24 140 18.48 140 28 C93.47 28 46.94 28 -1 28 C-0.67 18.76 -0.34 9.52 0 0 Z M4 1 C4 9.58 4 18.16 4 27 C48.55 27 93.1 27 139 27 C139 18.42 139 9.84 139 1 C94.45 1 49.9 1 4 1 Z " fill="#1D1D1D" transform="translate(96,164)"/>
<path d="M0 0 C3.96 0 7.92 0 12 0 C12 6.6 12 13.2 12 20 C8.04 20 4.08 20 0 20 C0 13.4 0 6.8 0 0 Z " fill="#1C1C1C" transform="translate(216,168)"/>
<path d="M0 0 C3.96 0 7.92 0 12 0 C12 6.6 12 13.2 12 20 C8.04 20 4.08 20 0 20 C0 13.4 0 6.8 0 0 Z " fill="#1A1A1A" transform="translate(124,168)"/>
<path d="M0 0 C4.149 0.667 5.819 1.313 8.5 4.562 C9.212 7.388 9.212 9.737 8.5 12.562 C5.819 15.812 4.149 16.458 0 17.125 C-3.5 16.562 -3.5 16.562 -6.438 14.438 C-8.5 11.562 -8.5 11.562 -9.125 8.562 C-8.01 3.209 -5.35 0.86 0 0 Z " fill="#ADAEAD" transform="translate(106.5,123.4375)"/>
<path d="M0 0 C4.149 0.667 5.819 1.313 8.5 4.562 C9.212 7.388 9.212 9.737 8.5 12.562 C5.819 15.812 4.149 16.458 0 17.125 C-3.5 16.562 -3.5 16.562 -6.438 14.438 C-8.5 11.562 -8.5 11.562 -9.125 8.562 C-8.01 3.209 -5.35 0.86 0 0 Z " fill="#ADAEAD" transform="translate(106.5,79.4375)"/>
<path d="M0 0 C5.72 -0.458 8.553 0.362 13 4 C15.604 6.517 15.965 7.732 16.438 11.375 C15.803 16.629 13.765 19.569 9.688 22.875 C6.111 24.372 3.854 24.532 0 24 C-3.926 21.967 -6.579 20.264 -8 16 C-8.402 12.937 -8.503 10.055 -8 7 C-5.5 3.938 -5.5 3.938 -3 2 C-2.375 3.812 -2.375 3.812 -2 6 C-2.33 6.495 -2.33 6.495 -4 9 C-4.457 12.577 -4.438 14.335 -2.438 17.375 C0.913 19.609 3.048 19.494 7 19 C9.438 18 9.438 18 11 16 C11.453 12.828 11.692 11.009 11 8 C8.221 4.716 6.414 4.081 2.188 3.25 C1.662 3.209 1.662 3.209 -1 3 C-0.67 2.01 -0.34 1.02 0 0 Z " fill="#272827" transform="translate(103,120)"/>
<path d="M0 0 C5.72 -0.458 8.553 0.362 13 4 C15.604 6.517 15.965 7.732 16.438 11.375 C15.803 16.629 13.765 19.569 9.688 22.875 C6.111 24.372 3.854 24.532 0 24 C-3.926 21.967 -6.579 20.264 -8 16 C-8.402 12.937 -8.503 10.055 -8 7 C-5.5 3.938 -5.5 3.938 -3 2 C-2.375 3.812 -2.375 3.812 -2 6 C-2.33 6.495 -2.33 6.495 -4 9 C-4.457 12.577 -4.438 14.335 -2.438 17.375 C0.913 19.609 3.048 19.494 7 19 C9.438 18 9.438 18 11 16 C11.453 12.828 11.692 11.009 11 8 C8.221 4.716 6.414 4.081 2.188 3.25 C1.662 3.209 1.662 3.209 -1 3 C-0.67 2.01 -0.34 1.02 0 0 Z " fill="#272827" transform="translate(103,76)"/>
<path d="M0 0 C1.98 0 3.96 0 6 0 C6 5.94 6 11.88 6 18 C4.02 18 2.04 18 0 18 C0 12.06 0 6.12 0 0 Z " fill="#232323" transform="translate(82,123)"/>
<path d="M0 0 C1.98 0 3.96 0 6 0 C6 5.94 6 11.88 6 18 C4.02 18 2.04 18 0 18 C0 12.06 0 6.12 0 0 Z " fill="#232323" transform="translate(82,79)"/>
<path d="M0 0 C1.32 0 2.64 0 4 0 C4 8.58 4 17.16 4 26 C2.68 26 1.36 26 0 26 C0 17.42 0 8.84 0 0 Z " fill="#313131" transform="translate(92,165)"/>
<path d="M0 0 C1.32 0 2.64 0 4 0 C4 8.58 4 17.16 4 26 C2.68 26 1.36 26 0 26 C0 17.42 0 8.84 0 0 Z " fill="#313131" transform="translate(84,165)"/>
<path d="M0 0 C1.32 0 2.64 0 4 0 C4 8.58 4 17.16 4 26 C2.68 26 1.36 26 0 26 C0 17.42 0 8.84 0 0 Z " fill="#313131" transform="translate(76,165)"/>
<path d="M0 0 C1.32 0 2.64 0 4 0 C4 8.58 4 17.16 4 26 C2.68 26 1.36 26 0 26 C0 17.42 0 8.84 0 0 Z " fill="#313131" transform="translate(68,165)"/>
<path d="M0 0 C1.32 0 2.64 0 4 0 C4 8.58 4 17.16 4 26 C2.68 26 1.36 26 0 26 C0 17.42 0 8.84 0 0 Z " fill="#313131" transform="translate(60,165)"/>
<path d="M0 0 C1.32 0 2.64 0 4 0 C4 8.58 4 17.16 4 26 C2.68 26 1.36 26 0 26 C0 17.42 0 8.84 0 0 Z " fill="#313131" transform="translate(52,165)"/>
<path d="M0 0 C1.32 0 2.64 0 4 0 C4 8.58 4 17.16 4 26 C2.68 26 1.36 26 0 26 C0 17.42 0 8.84 0 0 Z " fill="#313131" transform="translate(44,165)"/>
<path d="M0 0 C1.32 0 2.64 0 4 0 C4 8.58 4 17.16 4 26 C2.68 26 1.36 26 0 26 C0 17.42 0 8.84 0 0 Z " fill="#313131" transform="translate(36,165)"/>
<path d="M0 0 C1.32 0 2.64 0 4 0 C4 8.58 4 17.16 4 26 C2.68 26 1.36 26 0 26 C0 17.42 0 8.84 0 0 Z " fill="#313131" transform="translate(28,165)"/>
<path d="M0 0 C2.051 0.033 4.102 0.065 6.152 0.098 C6.152 3.068 6.152 6.038 6.152 9.098 C-0 9.195 -0 9.195 -1.848 9.098 C-2.848 8.098 -2.848 8.098 -2.973 4.598 C-2.814 0.149 -2.814 0.149 0 0 Z " fill="#A8A9A8" transform="translate(60.84765625,139.90234375)"/>
<path d="M0 0 C2.051 0.033 4.102 0.065 6.152 0.098 C6.152 3.068 6.152 6.038 6.152 9.098 C-0 9.195 -0 9.195 -1.848 9.098 C-2.848 8.098 -2.848 8.098 -2.973 4.598 C-2.814 0.149 -2.814 0.149 0 0 Z " fill="#A8A9A8" transform="translate(60.84765625,114.90234375)"/>
<path d="M0 0 C2.051 0.033 4.102 0.065 6.152 0.098 C6.152 3.068 6.152 6.038 6.152 9.098 C-0 9.195 -0 9.195 -1.848 9.098 C-2.848 8.098 -2.848 8.098 -2.973 4.598 C-2.814 0.149 -2.814 0.149 0 0 Z " fill="#A8A9A8" transform="translate(60.84765625,95.90234375)"/>
<path d="M0 0 C2.051 0.033 4.102 0.065 6.152 0.098 C6.152 3.068 6.152 6.038 6.152 9.098 C-0 9.195 -0 9.195 -1.848 9.098 C-2.848 8.098 -2.848 8.098 -2.973 4.598 C-2.814 0.149 -2.814 0.149 0 0 Z " fill="#A8A9A8" transform="translate(60.84765625,70.90234375)"/>
<path d="M0 0 C0.99 0 1.98 0 3 0 C3 8.58 3 17.16 3 26 C2.01 26 1.02 26 0 26 C0 17.42 0 8.84 0 0 Z " fill="#303030" transform="translate(21,165)"/>
<path d="M0 0 C3.5 0.125 3.5 0.125 4.5 1.125 C4.625 4.625 4.625 4.625 4.5 8.125 C3.5 9.125 3.5 9.125 0 9.25 C-3.5 9.125 -3.5 9.125 -4.5 8.125 C-4.625 4.625 -4.625 4.625 -4.5 1.125 C-3.5 0.125 -3.5 0.125 0 0 Z " fill="#A8A8A8" transform="translate(52.5,139.875)"/>
<path d="M0 0 C3.5 0.125 3.5 0.125 4.5 1.125 C4.625 4.625 4.625 4.625 4.5 8.125 C3.5 9.125 3.5 9.125 0 9.25 C-3.5 9.125 -3.5 9.125 -4.5 8.125 C-4.625 4.625 -4.625 4.625 -4.5 1.125 C-3.5 0.125 -3.5 0.125 0 0 Z " fill="#1B1B1B" transform="translate(31.5,139.875)"/>
<path d="M0 0 C3.5 0.125 3.5 0.125 4.5 1.125 C4.625 4.625 4.625 4.625 4.5 8.125 C3.5 9.125 3.5 9.125 0 9.25 C-3.5 9.125 -3.5 9.125 -4.5 8.125 C-4.625 4.625 -4.625 4.625 -4.5 1.125 C-3.5 0.125 -3.5 0.125 0 0 Z " fill="#A8A8A8" transform="translate(52.5,114.875)"/>
<path d="M0 0 C3.5 0.125 3.5 0.125 4.5 1.125 C4.625 4.625 4.625 4.625 4.5 8.125 C3.5 9.125 3.5 9.125 0 9.25 C-3.5 9.125 -3.5 9.125 -4.5 8.125 C-4.625 4.625 -4.625 4.625 -4.5 1.125 C-3.5 0.125 -3.5 0.125 0 0 Z " fill="#1B1B1B" transform="translate(31.5,114.875)"/>
<path d="M0 0 C3.5 0.125 3.5 0.125 4.5 1.125 C4.625 4.625 4.625 4.625 4.5 8.125 C3.5 9.125 3.5 9.125 0 9.25 C-3.5 9.125 -3.5 9.125 -4.5 8.125 C-4.625 4.625 -4.625 4.625 -4.5 1.125 C-3.5 0.125 -3.5 0.125 0 0 Z " fill="#A8A8A8" transform="translate(52.5,95.875)"/>
<path d="M0 0 C3.5 0.125 3.5 0.125 4.5 1.125 C4.625 4.625 4.625 4.625 4.5 8.125 C3.5 9.125 3.5 9.125 0 9.25 C-3.5 9.125 -3.5 9.125 -4.5 8.125 C-4.625 4.625 -4.625 4.625 -4.5 1.125 C-3.5 0.125 -3.5 0.125 0 0 Z " fill="#1B1B1B" transform="translate(31.5,95.875)"/>
<path d="M0 0 C3.5 0.125 3.5 0.125 4.5 1.125 C4.625 4.625 4.625 4.625 4.5 8.125 C3.5 9.125 3.5 9.125 0 9.25 C-3.5 9.125 -3.5 9.125 -4.5 8.125 C-4.625 4.625 -4.625 4.625 -4.5 1.125 C-3.5 0.125 -3.5 0.125 0 0 Z " fill="#A8A8A8" transform="translate(52.5,70.875)"/>
<path d="M0 0 C3.5 0.125 3.5 0.125 4.5 1.125 C4.625 4.625 4.625 4.625 4.5 8.125 C3.5 9.125 3.5 9.125 0 9.25 C-3.5 9.125 -3.5 9.125 -4.5 8.125 C-4.625 4.625 -4.625 4.625 -4.5 1.125 C-3.5 0.125 -3.5 0.125 0 0 Z " fill="#1B1B1B" transform="translate(31.5,70.875)"/>
<path d="M0 0 C2.64 0 5.28 0 8 0 C8 2.97 8 5.94 8 9 C5.36 9 2.72 9 0 9 C0 6.03 0 3.06 0 0 Z " fill="#ADADAD" transform="translate(38,140)"/>
<path d="M0 0 C2.64 0 5.28 0 8 0 C8 2.97 8 5.94 8 9 C5.36 9 2.72 9 0 9 C0 6.03 0 3.06 0 0 Z " fill="#ADADAD" transform="translate(38,115)"/>
<path d="M0 0 C2.64 0 5.28 0 8 0 C8 2.97 8 5.94 8 9 C5.36 9 2.72 9 0 9 C0 6.03 0 3.06 0 0 Z " fill="#ADADAD" transform="translate(38,96)"/>
<path d="M0 0 C2.64 0 5.28 0 8 0 C8 2.97 8 5.94 8 9 C5.36 9 2.72 9 0 9 C0 6.03 0 3.06 0 0 Z " fill="#ADADAD" transform="translate(38,71)"/>
<path d="M0 0 C1.32 0 2.64 0 4 0 C4 5.94 4 11.88 4 18 C2.68 18 1.36 18 0 18 C0 12.06 0 6.12 0 0 Z " fill="#313131" transform="translate(156,65)"/>
<path d="M0 0 C1.32 0 2.64 0 4 0 C4 5.94 4 11.88 4 18 C2.68 18 1.36 18 0 18 C0 12.06 0 6.12 0 0 Z " fill="#313131" transform="translate(148,65)"/>
<path d="M0 0 C1.32 0 2.64 0 4 0 C4 5.94 4 11.88 4 18 C2.68 18 1.36 18 0 18 C0 12.06 0 6.12 0 0 Z " fill="#313131" transform="translate(140,65)"/>
<path d="M0 0 C2.97 0 5.94 0 9 0 C9.042 2.333 9.041 4.667 9 7 C8 8 8 8 6.152 8.098 C4.102 8.065 2.051 8.033 0 8 C0 5.36 0 2.72 0 0 Z " fill="#AFB0AF" transform="translate(48,128)"/>
<path d="M0 0 C2.97 0 5.94 0 9 0 C9.042 2.333 9.041 4.667 9 7 C8 8 8 8 6.152 8.098 C4.102 8.065 2.051 8.033 0 8 C0 5.36 0 2.72 0 0 Z " fill="#AFB0AF" transform="translate(48,84)"/>
<path d="M0 0 C2.051 0.033 4.102 0.065 6.152 0.098 C6.152 2.738 6.152 5.378 6.152 8.098 C-0 8.195 -0 8.195 -1.848 8.098 C-2.848 7.098 -2.848 7.098 -2.973 4.098 C-2.808 0.148 -2.808 0.148 0 0 Z " fill="#B0B0B0" transform="translate(60.84765625,127.90234375)"/>
<path d="M0 0 C2.051 0.033 4.102 0.065 6.152 0.098 C6.152 2.738 6.152 5.378 6.152 8.098 C-0 8.195 -0 8.195 -1.848 8.098 C-2.848 7.098 -2.848 7.098 -2.973 4.098 C-2.808 0.148 -2.808 0.148 0 0 Z " fill="#B0B0B0" transform="translate(29.84765625,127.90234375)"/>
<path d="M0 0 C2.051 0.033 4.102 0.065 6.152 0.098 C6.152 2.738 6.152 5.378 6.152 8.098 C-0 8.195 -0 8.195 -1.848 8.098 C-2.848 7.098 -2.848 7.098 -2.973 4.098 C-2.808 0.148 -2.808 0.148 0 0 Z " fill="#B0B0B0" transform="translate(60.84765625,83.90234375)"/>
<path d="M0 0 C2.051 0.033 4.102 0.065 6.152 0.098 C6.152 2.738 6.152 5.378 6.152 8.098 C-0 8.195 -0 8.195 -1.848 8.098 C-2.848 7.098 -2.848 7.098 -2.973 4.098 C-2.808 0.148 -2.808 0.148 0 0 Z " fill="#B0B0B0" transform="translate(29.84765625,83.90234375)"/>
<path d="M0 0 C2.64 0 5.28 0 8 0 C8 2.64 8 5.28 8 8 C5.36 8 2.72 8 0 8 C0 5.36 0 2.72 0 0 Z " fill="#B5B5B5" transform="translate(38,128)"/>
<path d="M0 0 C2.64 0 5.28 0 8 0 C8 2.64 8 5.28 8 8 C5.36 8 2.72 8 0 8 C0 5.36 0 2.72 0 0 Z " fill="#B5B5B5" transform="translate(38,84)"/>
<path d="M0 0 C0.99 0 1.98 0 3 0 C3 5.94 3 11.88 3 18 C2.01 18 1.02 18 0 18 C0 12.06 0 6.12 0 0 Z " fill="#303030" transform="translate(133,65)"/>
<path d="M0 0 C3.96 0 7.92 0 12 0 C12 1.32 12 2.64 12 4 C8.04 4 4.08 4 0 4 C0 2.68 0 1.36 0 0 Z " fill="#252525" transform="translate(124,176)"/>
<path d="M0 0 C4.95 0 9.9 0 15 0 C14.67 0.66 14.34 1.32 14 2 C13.01 2 12.02 2 11 2 C11 2.66 11 3.32 11 4 C8.69 4 6.38 4 4 4 C4 3.34 4 2.68 4 2 C2.68 1.67 1.36 1.34 0 1 C0 0.67 0 0.34 0 0 Z " fill="#737373" transform="translate(76,113)"/>
<path d="M0 0 C4.95 0 9.9 0 15 0 C14.67 0.66 14.34 1.32 14 2 C13.01 2 12.02 2 11 2 C11 2.66 11 3.32 11 4 C8.69 4 6.38 4 4 4 C4 3.34 4 2.68 4 2 C2.68 1.67 1.36 1.34 0 1 C0 0.67 0 0.34 0 0 Z " fill="#737373" transform="translate(76,69)"/>
<path d="M0 0 C0.688 1.75 0.688 1.75 1 4 C0.546 4.598 0.093 5.196 -0.375 5.812 C-2.563 8.757 -2.654 11.404 -3 15 C-3.66 14.67 -4.32 14.34 -5 14 C-5.788 5.965 -5.788 5.965 -2.5 1.938 C-2.088 1.618 -2.088 1.618 0 0 Z " fill="#1F1F1F" transform="translate(100,122)"/>
<path d="M0 0 C0.688 1.75 0.688 1.75 1 4 C0.546 4.598 0.093 5.196 -0.375 5.812 C-2.563 8.757 -2.654 11.404 -3 15 C-3.66 14.67 -4.32 14.34 -5 14 C-5.788 5.965 -5.788 5.965 -2.5 1.938 C-2.088 1.618 -2.088 1.618 0 0 Z " fill="#1F1F1F" transform="translate(100,78)"/>
<path d="M0 0 C0.258 0.165 0.258 0.165 1.562 1 C1.562 1.33 1.562 1.66 1.562 2 C-3.388 2 -8.338 2 -13.438 2 C-11.13 -2.615 -4.137 -1.697 0 0 Z " fill="#787878" transform="translate(89.4375,149)"/>
<path d="M0 0 C2.31 0 4.62 0 7 0 C7 0.99 7 1.98 7 3 C7.825 3.33 7.825 3.33 12 5 C11.67 5.99 11.34 6.98 11 8 C10.319 7.361 9.639 6.721 8.938 6.062 C5.536 3.674 3.096 3.321 -1 3 C-0.67 2.01 -0.34 1.02 0 0 Z " fill="#272727" transform="translate(103,120)"/>
<path d="M0 0 C0.258 0.165 0.258 0.165 1.562 1 C1.562 1.33 1.562 1.66 1.562 2 C-3.388 2 -8.338 2 -13.438 2 C-11.13 -2.615 -4.137 -1.697 0 0 Z " fill="#787878" transform="translate(89.4375,105)"/>
<path d="M0 0 C2.31 0 4.62 0 7 0 C7 0.99 7 1.98 7 3 C7.825 3.33 7.825 3.33 12 5 C11.67 5.99 11.34 6.98 11 8 C10.319 7.361 9.639 6.721 8.938 6.062 C5.536 3.674 3.096 3.321 -1 3 C-0.67 2.01 -0.34 1.02 0 0 Z " fill="#272727" transform="translate(103,76)"/>
<path d="M0 0 C1.65 0 3.3 0 5 0 C5 1.65 5 3.3 5 5 C3.35 5 1.7 5 0 5 C0 3.35 0 1.7 0 0 Z " fill="#B2B3B2" transform="translate(50,142)"/>
<path d="M0 0 C1.65 0 3.3 0 5 0 C5 1.65 5 3.3 5 5 C3.35 5 1.7 5 0 5 C0 3.35 0 1.7 0 0 Z " fill="#B2B3B2" transform="translate(50,117)"/>
<path d="M0 0 C1.65 0 3.3 0 5 0 C5 1.65 5 3.3 5 5 C3.35 5 1.7 5 0 5 C0 3.35 0 1.7 0 0 Z " fill="#B2B3B2" transform="translate(50,98)"/>
<path d="M0 0 C1.65 0 3.3 0 5 0 C5 1.65 5 3.3 5 5 C3.35 5 1.7 5 0 5 C0 3.35 0 1.7 0 0 Z " fill="#B2B3B2" transform="translate(50,73)"/>
<path d="M0 0 C-1.75 3.875 -1.75 3.875 -4 5 C-6.333 5.04 -8.667 5.043 -11 5 C-11 4.67 -11 4.34 -11 4 C-10.536 3.856 -10.536 3.856 -8.188 3.125 C-5.261 2.092 -3.053 0 0 0 Z " fill="#1B1B1B" transform="translate(116,138)"/>
<path d="M0 0 C-1.75 3.875 -1.75 3.875 -4 5 C-6.333 5.04 -8.667 5.043 -11 5 C-11 4.67 -11 4.34 -11 4 C-10.536 3.856 -10.536 3.856 -8.188 3.125 C-5.261 2.092 -3.053 0 0 0 Z " fill="#1B1B1B" transform="translate(116,94)"/>
</svg>
