<?xml version="1.0" encoding="UTF-8"?>
<!-- Generator: visioncortex VTracer 0.6.12 -->
<svg version="1.1" xmlns="http://www.w3.org/2000/svg" width="256" height="256">
<path d="M0 0 C0.907 -0.005 1.813 -0.011 2.748 -0.016 C5.781 -0.031 8.813 -0.023 11.847 -0.016 C14.023 -0.022 16.2 -0.029 18.377 -0.037 C24.286 -0.055 30.195 -0.054 36.104 -0.048 C41.037 -0.045 45.97 -0.051 50.903 -0.057 C62.54 -0.071 74.177 -0.07 85.814 -0.058 C97.82 -0.047 109.826 -0.061 121.832 -0.088 C132.141 -0.11 142.449 -0.117 152.758 -0.111 C158.914 -0.107 165.071 -0.11 171.227 -0.127 C177.017 -0.142 182.805 -0.138 188.594 -0.12 C190.719 -0.116 192.843 -0.119 194.967 -0.13 C197.867 -0.143 200.767 -0.131 203.668 -0.114 C204.508 -0.123 205.347 -0.133 206.212 -0.143 C211.897 -0.071 215.314 0.934 219.898 4.388 C223.387 9.26 223.326 13.876 223.285 19.642 C223.288 20.103 223.288 20.103 223.302 22.439 C223.316 25.527 223.309 28.615 223.302 31.704 C223.307 33.92 223.314 36.136 223.322 38.352 C223.34 44.369 223.339 50.385 223.334 56.401 C223.33 61.424 223.337 66.446 223.343 71.469 C223.357 83.995 223.354 96.52 223.342 109.046 C223.332 119.917 223.345 130.789 223.369 141.66 C223.393 152.831 223.402 164.001 223.396 175.172 C223.393 181.44 223.395 187.708 223.412 193.977 C223.428 199.871 223.424 205.765 223.405 211.659 C223.401 213.822 223.404 215.984 223.415 218.147 C223.428 221.101 223.416 224.053 223.399 227.006 C223.404 227.434 223.404 227.434 223.428 229.597 C223.357 235.325 222.222 238.687 218.898 243.388 C214.6 246.294 210.975 246.805 205.852 246.988 C205.173 247.016 204.493 247.044 203.794 247.073 C201.554 247.162 199.314 247.232 197.073 247.302 C195.487 247.361 193.902 247.422 192.316 247.483 C188.13 247.643 183.943 247.786 179.756 247.926 C175.598 248.068 171.44 248.224 167.282 248.38 C160.818 248.62 154.353 248.85 147.888 249.072 C142.32 249.264 136.752 249.469 131.184 249.695 C130.002 249.743 128.82 249.79 127.602 249.838 C125.503 249.923 123.404 250.011 121.305 250.102 C105.174 250.743 89.054 250.395 72.929 249.767 C71.189 249.701 69.45 249.637 67.71 249.572 C64.1 249.437 60.49 249.3 56.881 249.161 C52.316 248.985 47.752 248.813 43.187 248.643 C38.747 248.478 34.307 248.31 29.866 248.142 C29.053 248.111 28.24 248.08 27.402 248.049 C23.489 247.901 19.577 247.747 15.665 247.578 C12.282 247.434 8.9 247.337 5.515 247.259 C3.727 247.203 1.938 247.147 0.15 247.091 C-0.261 247.085 -0.261 247.085 -2.341 247.056 C-8.014 246.851 -11.519 245.824 -16.102 242.388 C-19.413 237.299 -19.531 232.995 -19.49 227.133 C-19.493 226.672 -19.493 226.672 -19.506 224.336 C-19.521 221.248 -19.514 218.16 -19.506 215.072 C-19.512 212.855 -19.519 210.639 -19.527 208.423 C-19.545 202.407 -19.544 196.39 -19.538 190.374 C-19.535 185.351 -19.541 180.329 -19.547 175.306 C-19.562 162.781 -19.559 150.255 -19.546 137.73 C-19.537 126.858 -19.549 115.987 -19.573 105.115 C-19.598 93.945 -19.607 82.774 -19.601 71.604 C-19.597 65.335 -19.6 59.067 -19.617 52.799 C-19.632 46.904 -19.629 41.011 -19.61 35.116 C-19.606 32.954 -19.609 30.791 -19.62 28.628 C-19.633 25.675 -19.621 22.722 -19.604 19.769 C-19.613 18.914 -19.623 18.059 -19.633 17.178 C-19.562 11.45 -18.59 8.002 -15.102 3.388 C-10.261 -0.067 -5.723 -0.041 0 0 Z " fill="#EAEAEA" transform="translate(26.102401733398438,2.6123199462890625)"/>
<path d="M0 0 C0.907 -0.005 1.813 -0.011 2.748 -0.016 C5.781 -0.031 8.813 -0.023 11.847 -0.016 C14.023 -0.022 16.2 -0.029 18.377 -0.037 C24.286 -0.055 30.195 -0.054 36.104 -0.048 C41.037 -0.045 45.97 -0.051 50.903 -0.057 C62.54 -0.071 74.177 -0.07 85.814 -0.058 C97.82 -0.047 109.826 -0.061 121.832 -0.088 C132.141 -0.11 142.449 -0.117 152.758 -0.111 C158.914 -0.107 165.071 -0.11 171.227 -0.127 C177.017 -0.142 182.805 -0.138 188.594 -0.12 C190.719 -0.116 192.843 -0.119 194.967 -0.13 C197.867 -0.143 200.767 -0.131 203.668 -0.114 C204.508 -0.123 205.347 -0.133 206.212 -0.143 C211.897 -0.071 215.314 0.934 219.898 4.388 C223.387 9.26 223.326 13.876 223.285 19.642 C223.288 20.103 223.288 20.103 223.302 22.439 C223.316 25.527 223.309 28.615 223.302 31.704 C223.307 33.92 223.314 36.136 223.322 38.352 C223.34 44.369 223.339 50.385 223.334 56.401 C223.33 61.424 223.337 66.446 223.343 71.469 C223.357 83.995 223.354 96.52 223.342 109.046 C223.332 119.917 223.345 130.789 223.369 141.66 C223.393 152.831 223.402 164.001 223.396 175.172 C223.393 181.44 223.395 187.708 223.412 193.977 C223.428 199.871 223.424 205.765 223.405 211.659 C223.401 213.822 223.404 215.984 223.415 218.147 C223.428 221.101 223.416 224.053 223.399 227.006 C223.404 227.434 223.404 227.434 223.428 229.597 C223.357 235.325 222.222 238.687 218.898 243.388 C214.6 246.294 210.975 246.805 205.852 246.988 C205.173 247.016 204.493 247.044 203.794 247.073 C201.554 247.162 199.314 247.232 197.073 247.302 C195.487 247.361 193.902 247.422 192.316 247.483 C188.13 247.643 183.943 247.786 179.756 247.926 C175.598 248.068 171.44 248.224 167.282 248.38 C160.818 248.62 154.353 248.85 147.888 249.072 C142.32 249.264 136.752 249.469 131.184 249.695 C130.002 249.743 128.82 249.79 127.602 249.838 C125.503 249.923 123.404 250.011 121.305 250.102 C105.174 250.743 89.054 250.395 72.929 249.767 C71.189 249.701 69.45 249.637 67.71 249.572 C64.1 249.437 60.49 249.3 56.881 249.161 C52.316 248.985 47.752 248.813 43.187 248.643 C38.747 248.478 34.307 248.31 29.866 248.142 C29.053 248.111 28.24 248.08 27.402 248.049 C23.489 247.901 19.577 247.747 15.665 247.578 C12.282 247.434 8.9 247.337 5.515 247.259 C3.727 247.203 1.938 247.147 0.15 247.091 C-0.261 247.085 -0.261 247.085 -2.341 247.056 C-8.014 246.851 -11.519 245.824 -16.102 242.388 C-19.413 237.299 -19.531 232.995 -19.49 227.133 C-19.493 226.672 -19.493 226.672 -19.506 224.336 C-19.521 221.248 -19.514 218.16 -19.506 215.072 C-19.512 212.855 -19.519 210.639 -19.527 208.423 C-19.545 202.407 -19.544 196.39 -19.538 190.374 C-19.535 185.351 -19.541 180.329 -19.547 175.306 C-19.562 162.781 -19.559 150.255 -19.546 137.73 C-19.537 126.858 -19.549 115.987 -19.573 105.115 C-19.598 93.945 -19.607 82.774 -19.601 71.604 C-19.597 65.335 -19.6 59.067 -19.617 52.799 C-19.632 46.904 -19.629 41.011 -19.61 35.116 C-19.606 32.954 -19.609 30.791 -19.62 28.628 C-19.633 25.675 -19.621 22.722 -19.604 19.769 C-19.613 18.914 -19.623 18.059 -19.633 17.178 C-19.562 11.45 -18.59 8.002 -15.102 3.388 C-10.261 -0.067 -5.723 -0.041 0 0 Z M-10.102 11.388 C-10.3 14.329 -10.372 17.176 -10.356 20.119 C-10.359 21.034 -10.363 21.949 -10.366 22.891 C-10.374 25.976 -10.367 29.061 -10.361 32.145 C-10.364 34.349 -10.367 36.553 -10.372 38.757 C-10.381 44.757 -10.377 50.757 -10.371 56.757 C-10.366 63.023 -10.371 69.29 -10.374 75.556 C-10.378 86.756 -10.371 97.957 -10.361 109.157 C-10.352 119.319 -10.354 129.481 -10.363 139.644 C-10.374 151.435 -10.378 163.226 -10.372 175.017 C-10.369 181.263 -10.368 187.508 -10.375 193.753 C-10.381 199.624 -10.377 205.494 -10.365 211.364 C-10.363 213.524 -10.363 215.684 -10.368 217.844 C-10.373 220.782 -10.366 223.719 -10.356 226.657 C-10.361 227.521 -10.365 228.385 -10.37 229.276 C-10.331 235.159 -10.331 235.159 -8.102 237.388 C-4.509 238.671 -0.789 238.626 2.994 238.777 C3.705 238.806 4.417 238.835 5.15 238.866 C7.516 238.962 9.883 239.052 12.249 239.142 C13.921 239.208 15.594 239.274 17.266 239.34 C22.684 239.552 28.103 239.753 33.523 239.95 C34.448 239.984 35.374 240.018 36.328 240.053 C80.124 241.644 123.611 241.652 167.409 240.111 C170.196 240.013 172.983 239.918 175.77 239.822 C180.17 239.67 184.569 239.506 188.969 239.334 C190.609 239.271 192.249 239.211 193.889 239.155 C196.156 239.075 198.422 238.984 200.688 238.89 C201.965 238.841 203.242 238.792 204.558 238.742 C207.962 238.381 211.38 237.906 213.898 235.388 C214 232.51 214.036 229.656 214.031 226.777 C214.032 226.32 214.032 226.32 214.038 224.007 C214.045 220.919 214.044 217.831 214.043 214.743 C214.046 212.54 214.049 210.336 214.053 208.132 C214.062 202.128 214.064 196.124 214.065 190.12 C214.066 185.117 214.069 180.114 214.073 175.112 C214.081 163.989 214.084 152.866 214.083 141.743 C214.083 141.075 214.083 140.407 214.083 139.719 C214.083 139.385 214.083 139.385 214.083 137.692 C214.082 126.849 214.092 116.006 214.106 105.163 C214.12 94.042 214.127 82.92 214.126 71.799 C214.126 65.55 214.129 59.301 214.14 53.052 C214.149 47.178 214.149 41.304 214.142 35.43 C214.141 33.268 214.143 31.106 214.149 28.945 C214.157 26.005 214.153 23.065 214.145 20.125 C214.147 19.693 214.147 19.693 214.16 17.504 C214.126 11.616 214.126 11.616 211.898 9.388 C209.006 9.19 206.211 9.119 203.318 9.134 C202.42 9.131 201.521 9.127 200.595 9.124 C197.566 9.116 194.536 9.123 191.507 9.129 C189.342 9.126 187.178 9.123 185.013 9.118 C179.121 9.109 173.229 9.113 167.336 9.119 C161.182 9.124 155.028 9.119 148.873 9.116 C138.536 9.113 128.199 9.117 117.862 9.127 C105.896 9.138 93.93 9.134 81.964 9.123 C71.706 9.114 61.449 9.113 51.192 9.118 C45.058 9.121 38.925 9.122 32.791 9.115 C27.026 9.109 21.261 9.113 15.496 9.125 C13.374 9.128 11.253 9.127 9.132 9.122 C6.247 9.117 3.362 9.124 0.477 9.134 C-0.372 9.129 -1.221 9.125 -2.095 9.12 C-7.874 9.159 -7.874 9.159 -10.102 11.388 Z " fill="#FEFEFE" transform="translate(26.102401733398438,2.6123199462890625)"/>
<path d="M0 0 C5.94 0 11.88 0 18 0 C15.36 6.27 12.72 12.54 10 19 C9.34 19 8.68 19 8 19 C5.36 12.73 2.72 6.46 0 0 Z " fill="#F29D16" transform="translate(119,224)"/>
</svg>
