<?xml version="1.0" encoding="UTF-8"?>
<!-- Generator: visioncortex VTracer 0.6.12 -->
<svg version="1.1" xmlns="http://www.w3.org/2000/svg" width="256" height="256">
<path d="M0 0 C0.742 0.006 1.484 0.011 2.249 0.017 C2.644 0.012 2.644 0.012 4.644 -0.013 C7.302 -0.041 9.959 -0.04 12.617 -0.039 C14.519 -0.052 16.421 -0.067 18.323 -0.084 C23.497 -0.124 28.67 -0.137 33.844 -0.144 C37.075 -0.149 40.306 -0.159 43.537 -0.172 C54.807 -0.215 66.076 -0.236 77.346 -0.238 C87.855 -0.24 98.364 -0.291 108.873 -0.365 C117.892 -0.426 126.91 -0.452 135.928 -0.451 C141.317 -0.451 146.704 -0.466 152.092 -0.516 C157.161 -0.561 162.228 -0.563 167.297 -0.533 C169.158 -0.529 171.018 -0.54 172.877 -0.568 C186.903 -0.766 186.903 -0.766 190.772 2.32 C192.318 4.655 193.4 7.015 194.563 9.558 C195.725 10.975 196.927 12.36 198.164 13.713 C213.455 32.579 210.376 56.113 209.981 79.063 C209.9 84.511 209.898 89.959 209.888 95.408 C209.815 111.271 209.619 127.134 209.438 142.996 C209.149 178.491 208.861 213.987 208.563 250.558 C131.343 250.558 54.123 250.558 -25.437 250.558 C-25.787 215.166 -26.138 179.773 -26.499 143.308 C-26.654 132.182 -26.809 121.056 -26.968 109.592 C-27.045 95.881 -27.045 95.881 -27.059 89.438 C-27.075 84.989 -27.138 80.544 -27.232 76.097 C-27.802 47.774 -27.219 26.842 -8.437 4.558 C-8.019 3.812 -7.601 3.065 -7.17 2.296 C-4.92 0.04 -3.103 0.062 0 0 Z " fill="#403E3F" transform="translate(36.43685561418533,2.441715896129608)"/>
<path d="M0 0 C52.47 0 104.94 0 159 0 C159 42.57 159 85.14 159 129 C136.89 129 114.78 129 92 129 C91.01 126.69 90.02 124.38 89 122 C87.312 120.188 87.312 120.188 86 119 C86 118.34 86 117.68 86 117 C83.36 117 80.72 117 78 117 C77.5 114.375 77.5 114.375 78 111 C80.321 108.378 82.876 106.567 86 105 C89.438 104.875 89.438 104.875 93 105 C96.2 104.032 99.248 102.913 102 101 C102.124 100.356 102.249 99.712 102.377 99.048 C103 97 103 97 104.655 95.859 C105.359 95.564 106.063 95.269 106.789 94.965 C107.566 94.63 108.344 94.296 109.145 93.951 C109.963 93.617 110.782 93.282 111.625 92.938 C112.023 92.768 112.023 92.768 114.035 91.912 C115.61 91.244 117.189 90.582 118.77 89.929 C120.788 89.088 122.784 88.209 124.781 87.32 C128.255 85.895 131.507 85.181 135.18 84.527 C135.48 84.44 135.48 84.44 137 84 C137.33 83.34 137.66 82.68 138 82 C140.64 83.98 143.28 85.96 146 88 C145.67 87.34 145.34 86.68 145 86 C144.866 83.328 144.957 80.677 145 78 C146.32 77.67 147.64 77.34 149 77 C149.33 75.35 149.66 73.7 150 72 C150.66 72 151.32 72 152 72 C151.67 71.01 151.34 70.02 151 69 C144.535 70.847 138.712 73.543 132.742 76.586 C126.742 79.642 120.698 82.593 114.625 85.5 C113.703 85.945 112.781 86.391 111.831 86.85 C110.972 87.26 110.112 87.671 109.227 88.094 C108.459 88.462 107.692 88.83 106.901 89.209 C105 90 105 90 103 90 C103 90.66 103 91.32 103 92 C90.363 95.346 90.363 95.346 85 94 C83.191 92.445 81.929 90.8 80.535 88.867 C78.824 86.786 77.212 85.755 74.875 84.438 C70.39 81.811 68.233 78.67 66.051 73.945 C65.725 73.241 65.399 72.538 65.062 71.812 C64.924 71.486 64.924 71.486 64.223 69.832 C62.502 67.254 60.808 66.293 58 65 C54.887 64.707 54.887 64.707 51.688 64.812 C50.619 64.84 49.55 64.867 48.449 64.895 C48.045 64.912 48.045 64.912 46 65 C46 66.65 46 68.3 46 70 C45.34 70 44.68 70 44 70 C44.041 70.763 44.083 71.526 44.125 72.312 C44 75 44 75 42 78 C37.823 78.265 34.957 78.319 31 77 C29.336 76.652 27.67 76.316 26 76 C26 75.34 26 74.68 26 74 C22.014 73.321 20.036 73.371 16.531 75.5 C10.373 80.489 10.373 80.489 9.43 84.312 C9.438 86.5 9.438 86.5 10 90 C9.01 90 8.02 90 7 90 C8.694 97.018 8.694 97.018 12.25 99.691 C14.003 100.69 15.769 101.667 17.547 102.621 C20.689 104.387 22.702 106.243 25 109 C25 109.66 25 110.32 25 111 C24.34 111 23.68 111 23 111 C23 111.66 23 112.32 23 113 C22.67 113.103 22.67 113.103 21 113.625 C16.1 115.871 11.807 119.193 8 123 C7.602 124.988 7.262 126.989 7 129 C4.69 129 2.38 129 0 129 C0 86.43 0 43.86 0 0 Z " fill="#B00208" transform="translate(48,63)"/>
<path d="M0 0 C4.62 0 9.24 0 14 0 C14 13.86 14 27.72 14 42 C11.36 42 8.72 42 6 42 C6 53.22 6 64.44 6 76 C15.24 76 24.48 76 34 76 C34 81.28 34 86.56 34 92 C34.99 91.67 35.98 91.34 37 91 C37.33 86.05 37.66 81.1 38 76 C47.24 76 56.48 76 66 76 C66 81.28 66 86.56 66 92 C66.99 91.67 67.98 91.34 69 91 C69.33 86.05 69.66 81.1 70 76 C88.48 76 106.96 76 126 76 C126.33 80.95 126.66 85.9 127 91 C127.99 91.33 128.98 91.66 130 92 C130 86.72 130 81.44 130 76 C139.24 76 148.48 76 158 76 C158.33 80.95 158.66 85.9 159 91 C159.99 91.33 160.98 91.66 162 92 C162 86.72 162 81.44 162 76 C171.24 76 180.48 76 190 76 C190 64.78 190 53.56 190 42 C187.36 42 184.72 42 182 42 C182 28.14 182 14.28 182 0 C186.62 0 191.24 0 196 0 C198 2 198 2 198.25 4.5 C198 7 198 7 196 9 C194.02 9 192.04 9 190 9 C190 16.92 190 24.84 190 33 C191.98 33 193.96 33 196 33 C198 35 198 35 198.227 38.991 C198.227 40.715 198.215 42.44 198.195 44.164 C198.192 45.071 198.19 45.978 198.187 46.913 C198.176 49.817 198.15 52.721 198.125 55.625 C198.115 57.591 198.106 59.557 198.098 61.523 C198.076 66.349 198.041 71.174 198 76 C200.64 76 203.28 76 206 76 C206 90.52 206 105.04 206 120 C134.72 120 63.44 120 -10 120 C-10 105.48 -10 90.96 -10 76 C-7.36 76 -4.72 76 -2 76 C-2.01 74.768 -2.021 73.537 -2.032 72.268 C-2.068 67.71 -2.091 63.151 -2.11 58.593 C-2.12 56.618 -2.134 54.643 -2.151 52.668 C-2.175 49.833 -2.186 46.999 -2.195 44.164 C-2.206 43.278 -2.216 42.391 -2.227 41.478 C-2.227 39.317 -2.123 37.157 -2 35 C-1.34 34.34 -0.68 33.68 0 33 C1.98 33 3.96 33 6 33 C6 25.08 6 17.16 6 9 C4.02 9 2.04 9 0 9 C-2 7 -2 7 -2.25 4.5 C-2 2 -2 2 0 0 Z " fill="#323232" transform="translate(30,124)"/>
<path d="M0 0 C0.742 0.006 1.484 0.011 2.249 0.017 C2.644 0.012 2.644 0.012 4.644 -0.013 C7.302 -0.041 9.959 -0.04 12.617 -0.039 C14.519 -0.052 16.421 -0.067 18.323 -0.084 C23.497 -0.124 28.67 -0.137 33.844 -0.144 C37.075 -0.149 40.306 -0.159 43.537 -0.172 C54.807 -0.215 66.076 -0.236 77.346 -0.238 C87.855 -0.24 98.364 -0.291 108.873 -0.365 C117.892 -0.426 126.91 -0.452 135.928 -0.451 C141.317 -0.451 146.704 -0.466 152.092 -0.516 C157.161 -0.561 162.228 -0.563 167.297 -0.533 C169.158 -0.529 171.018 -0.54 172.877 -0.568 C186.903 -0.766 186.903 -0.766 190.772 2.32 C192.318 4.655 193.4 7.015 194.563 9.558 C195.725 10.975 196.927 12.36 198.164 13.713 C213.455 32.579 210.376 56.113 209.981 79.063 C209.9 84.511 209.898 89.959 209.888 95.408 C209.815 111.271 209.619 127.134 209.438 142.996 C209.149 178.491 208.861 213.987 208.563 250.558 C131.343 250.558 54.123 250.558 -25.437 250.558 C-25.787 215.166 -26.138 179.773 -26.499 143.308 C-26.654 132.182 -26.809 121.056 -26.968 109.592 C-27.045 95.881 -27.045 95.881 -27.059 89.438 C-27.075 84.989 -27.138 80.544 -27.232 76.097 C-27.802 47.774 -27.219 26.842 -8.437 4.558 C-8.019 3.812 -7.601 3.065 -7.17 2.296 C-4.92 0.04 -3.103 0.062 0 0 Z M-13.09 22.55 C-19.814 40.276 -18.319 60.426 -17.956 79.036 C-17.87 84.203 -17.867 89.368 -17.856 94.536 C-17.778 109.565 -17.568 124.593 -17.374 139.621 C-17.065 173.26 -16.756 206.9 -16.437 241.558 C54.843 241.558 126.123 241.558 199.563 241.558 C199.873 207.919 200.182 174.28 200.501 139.621 C200.637 129.042 200.774 118.462 200.914 107.562 C200.982 94.536 200.982 94.536 200.995 88.416 C201.009 84.187 201.064 79.961 201.147 75.732 C202.043 27.244 202.043 27.244 190.415 13.668 C178.842 3.795 160.202 5.968 145.977 6.2 C140.851 6.264 135.726 6.205 130.6 6.165 C121.994 6.12 113.393 6.18 104.788 6.299 C94.871 6.435 84.966 6.391 75.049 6.253 C66.5 6.139 57.954 6.124 49.405 6.189 C44.313 6.228 39.228 6.234 34.137 6.151 C-4.568 5.611 -4.568 5.611 -13.09 22.55 Z " fill="#FBFBFB" transform="translate(36.43685561418533,2.441715896129608)"/>
<path d="M0 0 C52.47 0 104.94 0 159 0 C159 42.57 159 85.14 159 129 C136.89 129 114.78 129 92 129 C91.01 126.69 90.02 124.38 89 122 C87.312 120.188 87.312 120.188 86 119 C86 118.34 86 117.68 86 117 C83.36 117 80.72 117 78 117 C77.5 114.375 77.5 114.375 78 111 C80.321 108.378 82.876 106.567 86 105 C89.438 104.875 89.438 104.875 93 105 C96.2 104.032 99.248 102.913 102 101 C102.124 100.356 102.249 99.712 102.377 99.048 C103 97 103 97 104.655 95.859 C105.359 95.564 106.063 95.269 106.789 94.965 C107.566 94.63 108.344 94.296 109.145 93.951 C109.963 93.617 110.782 93.282 111.625 92.938 C112.023 92.768 112.023 92.768 114.035 91.912 C115.61 91.244 117.189 90.582 118.77 89.929 C120.788 89.088 122.784 88.209 124.781 87.32 C128.255 85.895 131.507 85.181 135.18 84.527 C135.48 84.44 135.48 84.44 137 84 C137.33 83.34 137.66 82.68 138 82 C140.64 83.98 143.28 85.96 146 88 C145.67 87.34 145.34 86.68 145 86 C144.866 83.328 144.957 80.677 145 78 C146.32 77.67 147.64 77.34 149 77 C149.33 75.35 149.66 73.7 150 72 C150.66 72 151.32 72 152 72 C151.67 71.01 151.34 70.02 151 69 C150.01 69.165 150.01 69.165 145 70 C144.977 62.325 144.959 54.649 144.948 46.974 C144.943 43.41 144.936 39.847 144.925 36.283 C144.912 32.19 144.907 28.097 144.902 24.004 C144.897 22.719 144.892 21.433 144.887 20.109 C144.887 18.928 144.887 17.746 144.886 16.53 C144.884 15.484 144.882 14.438 144.88 13.36 C145 11 145 11 146 10 C141.38 10 136.76 10 132 10 C130.68 13.63 129.36 17.26 128 21 C126.162 17.323 125.063 13.95 124 10 C119.38 10 114.76 10 110 10 C110.165 10.165 110.165 10.165 111 11 C111.093 12.474 111.117 13.952 111.114 15.428 C111.113 15.898 111.113 15.898 111.113 18.279 C111.108 19.302 111.103 20.325 111.098 21.379 C111.096 22.421 111.095 23.463 111.093 24.536 C111.088 27.878 111.075 31.22 111.062 34.562 C111.057 36.822 111.053 39.082 111.049 41.342 C111.038 46.895 111.021 52.447 111 58 C110.34 58 109.68 58 109 58 C109 42.82 109 27.64 109 12 C104.722 10.289 102.949 9.745 98.621 9.734 C97.618 9.732 96.614 9.729 95.58 9.727 C94.543 9.734 93.506 9.742 92.438 9.75 C91.397 9.742 90.356 9.735 89.283 9.727 C88.281 9.729 87.279 9.732 86.246 9.734 C85.335 9.737 84.424 9.739 83.486 9.741 C81 10 81 10 77 12 C77 27.18 77 42.36 77 58 C76.67 58 76.34 58 76 58 C76 42.82 76 27.64 76 12 C72.147 10.073 70.785 9.744 66.684 9.734 C65.672 9.732 64.661 9.729 63.619 9.727 C63.094 9.73 63.094 9.73 60.438 9.75 C59.911 9.746 59.911 9.746 57.244 9.727 C56.739 9.728 56.739 9.728 54.184 9.734 C53.261 9.737 52.339 9.739 51.388 9.741 C49 10 49 10 46 12 C45.601 13.987 45.601 13.987 45.568 16.45 C45.548 17.371 45.528 18.291 45.508 19.24 C45.501 20.236 45.495 21.232 45.488 22.258 C45.47 23.276 45.452 24.294 45.434 25.343 C45.38 28.604 45.346 31.864 45.312 35.125 C45.279 37.332 45.245 39.539 45.209 41.746 C45.124 47.164 45.056 52.582 45 58 C44.67 58 44.34 58 44 58 C43.096 42.654 42.876 27.371 43 12 C39.601 9.957 36.856 9.702 32.922 9.586 C31.762 9.547 30.602 9.509 29.406 9.469 C28.2 9.438 26.993 9.407 25.75 9.375 C24.528 9.336 23.306 9.298 22.047 9.258 C19.031 9.164 16.016 9.078 13 9 C13.33 9.66 13.66 10.32 14 11 C14.132 13.02 14.201 15.043 14.24 17.067 C14.266 18.342 14.292 19.618 14.318 20.932 C14.408 26.782 14.469 32.632 14.515 38.482 C14.542 41.567 14.59 44.651 14.658 47.735 C14.741 51.466 14.783 55.195 14.798 58.927 C14.81 60.344 14.836 61.761 14.876 63.178 C15.177 74.299 15.177 74.299 12.207 78.591 C10.027 80.734 10.027 80.734 7.843 82.464 C6 84 6 84 4.75 87.188 C5.079 90.893 6.513 92.3 9 95 C9.286 95.659 9.572 96.317 9.867 96.996 C11.311 99.549 12.696 100.167 15.312 101.438 C19.319 103.531 22.097 105.535 25 109 C25 109.66 25 110.32 25 111 C24.34 111 23.68 111 23 111 C23 111.66 23 112.32 23 113 C22.67 113.103 22.67 113.103 21 113.625 C16.1 115.871 11.807 119.193 8 123 C7.602 124.988 7.262 126.989 7 129 C4.69 129 2.38 129 0 129 C0 86.43 0 43.86 0 0 Z " fill="#B50002" transform="translate(48,63)"/>
<path d="M0 0 C4.088 0.041 8.175 0.008 12.263 -0.025 C21.916 -0.104 31.563 -0.067 41.216 0.047 C51.14 0.162 61.052 0.104 70.976 -0.043 C79.53 -0.165 88.079 -0.188 96.634 -0.132 C101.728 -0.099 106.817 -0.1 111.911 -0.191 C143.641 -0.692 143.641 -0.692 150.735 5.716 C156.799 12.245 162.516 22.119 162.516 31.155 C91.236 31.155 19.956 31.155 -53.484 31.155 C-47.19 -0.318 -27.348 -0.368 0 0 Z " fill="#666666" transform="translate(73.48435282707214,8.844650268554688)"/>
<path d="M0 0 C7.59 0 15.18 0 23 0 C23 2.64 23 5.28 23 8 C15.74 8 8.48 8 1 8 C1 10.64 1 13.28 1 16 C71.62 16 142.24 16 215 16 C215 13.36 215 10.72 215 8 C207.41 8 199.82 8 192 8 C192 5.36 192 2.72 192 0 C199.92 0 207.84 0 216 0 C216 11.88 216 23.76 216 36 C144.72 36 73.44 36 0 36 C0 24.12 0 12.24 0 0 Z " fill="#262626" transform="translate(20,208)"/>
<path d="M0 0 C4.62 0 9.24 0 14 0 C16 2 16 2 16.25 4.5 C16 7 16 7 14 9 C12.02 9 10.04 9 8 9 C8 16.92 8 24.84 8 33 C9.98 33 11.96 33 14 33 C16 35 16 35 16.227 38.991 C16.227 40.715 16.215 42.44 16.195 44.164 C16.192 45.071 16.19 45.978 16.187 46.913 C16.176 49.817 16.15 52.721 16.125 55.625 C16.115 57.591 16.106 59.557 16.098 61.523 C16.076 66.349 16.041 71.174 16 76 C18.64 76 21.28 76 24 76 C24 78.64 24 81.28 24 84 C16.08 84 8.16 84 0 84 C0 86.64 0 89.28 0 92 C7.59 92 15.18 92 23 92 C23 94.64 23 97.28 23 100 C-8.68 100 -40.36 100 -73 100 C-73 92.08 -73 84.16 -73 76 C-67.39 76 -61.78 76 -56 76 C-55.67 80.95 -55.34 85.9 -55 91 C-54.505 91.165 -54.505 91.165 -52 92 C-52 86.72 -52 81.44 -52 76 C-42.76 76 -33.52 76 -24 76 C-23.835 78.475 -23.835 78.475 -23 91 C-22.01 91.33 -21.02 91.66 -20 92 C-20 86.72 -20 81.44 -20 76 C-10.76 76 -1.52 76 8 76 C8 64.78 8 53.56 8 42 C5.36 42 2.72 42 0 42 C0 28.14 0 14.28 0 0 Z " fill="#323232" transform="translate(212,124)"/>
<path d="M0 0 C0 0.99 0 1.98 0 3 C-0.66 3.33 -1.32 3.66 -2 4 C-2.144 4.66 -2.289 5.32 -2.438 6 C-2.53 6.33 -2.53 6.33 -3 8 C-3.99 8.33 -4.98 8.66 -6 9 C-6 12.3 -6 15.6 -6 19 C-9.05 17.475 -11.364 16.071 -14 14 C-14.495 14.454 -14.99 14.907 -15.5 15.375 C-18 17 -18 17 -21.477 17.812 C-26.885 19.095 -31.813 21.369 -36.875 23.625 C-38.746 24.454 -40.618 25.279 -42.492 26.102 C-43.311 26.466 -44.129 26.83 -44.972 27.206 C-47 28 -47 28 -49 28 C-48.979 28.743 -48.959 29.485 -48.938 30.25 C-50.22 33.57 -50.994 33.829 -54.125 35.312 C-57.331 36.601 -59.098 36.998 -62.625 36.938 C-66.687 37.013 -68.479 38.035 -71.621 40.488 C-73.717 42.786 -73.929 44.968 -74 48 C-73.402 47.918 -73.402 47.918 -70.375 47.5 C-67.449 47.479 -66.359 47.685 -64.133 49.641 C-61.231 53.389 -60 55.121 -60 60 C-75.84 60 -91.68 60 -108 60 C-104 56 -104 56 -101 54 C-101.33 52.02 -101.66 50.04 -102 48 C-101.67 48.66 -101.34 49.32 -101 50 C-100.34 50 -99.68 50 -99 50 C-99 50.66 -99 51.32 -99 52 C-98.67 51.835 -98.67 51.835 -97 51 C-97.471 50.481 -97.941 49.961 -98.426 49.426 C-107 39.822 -107 39.822 -107 36 C-107.66 36 -108.32 36 -109 36 C-109.562 37.937 -109.562 37.937 -110 40 C-109.835 40.165 -109.835 40.165 -109 41 C-109 41.66 -109 42.32 -109 43 C-108.34 43.33 -107.68 43.66 -107 44 C-106.67 43.34 -106.34 42.68 -106 42 C-104.5 43.25 -104.5 43.25 -103 45 C-103 46.32 -103 47.64 -103 49 C-106.588 47.667 -109.836 46.169 -113 44 C-113 43.34 -113 42.68 -113 42 C-113.99 42.165 -113.99 42.165 -119 43 C-119.165 42.505 -119.165 42.505 -120 40 C-120.639 39.752 -121.279 39.505 -121.938 39.25 C-124 38 -124 38 -125.25 34.375 C-125.374 33.818 -125.374 33.818 -126 31 C-125.34 30.67 -124.68 30.34 -124 30 C-124.495 29.423 -124.99 28.845 -125.5 28.25 C-127 26 -127 26 -127 22 C-124.313 22.363 -122.441 22.669 -120.25 24.312 C-118.852 26.2 -118.528 27.737 -118 30 C-117.34 30.33 -116.68 30.66 -116 31 C-115.932 30.386 -115.863 29.773 -115.793 29.141 C-115 27 -115 27 -112.926 25.734 C-103.212 22.075 -103.212 22.075 -99 23 C-96.312 25.957 -95.985 27.559 -96.125 31.562 C-96.084 32.697 -96.043 33.831 -96 35 C-93.5 37.25 -93.5 37.25 -91 39 C-91 39.99 -91 40.98 -91 42 C-90.691 42.062 -90.691 42.062 -89.125 42.375 C-87 43 -87 43 -85 45 C-85 45.99 -85 46.98 -85 48 C-83.02 48.66 -81.04 49.32 -79 50 C-78.34 49.01 -77.68 48.02 -77 47 C-76.34 47 -75.68 47 -75 47 C-76.113 40.929 -76.866 38.667 -82 35 C-86 29.595 -86 29.595 -86 27 C-86.99 26.67 -87.98 26.34 -89 26 C-89.111 25.27 -89.222 24.541 -89.336 23.789 C-90.221 20.071 -92.046 17.312 -94.039 14.086 C-95 12 -95 12 -94 9 C-91.39 6.97 -89.768 6.019 -86.438 5.938 C-83.545 7.198 -82.85 8.661 -81.297 11.316 C-79.119 14.144 -76.119 15.735 -73.129 17.617 C-70.744 19.167 -68.808 20.799 -67 23 C-67 23.66 -67 24.32 -67 25 C-62.677 24.539 -58.367 24.052 -54.062 23.438 C-51 23 -51 23 -49 23 C-49 22.34 -49 21.68 -49 21 C-44.86 18.991 -40.72 16.983 -36.579 14.976 C-35.178 14.297 -33.777 13.617 -32.376 12.937 C-28.281 10.949 -24.181 8.97 -20.076 7.001 C-17.956 5.979 -15.844 4.943 -13.731 3.907 C-12.374 3.251 -11.017 2.596 -9.66 1.941 C-9.033 1.63 -8.407 1.318 -7.761 0.997 C-3.341 -1.114 -3.341 -1.114 0 0 Z " fill="#5C5655" transform="translate(200,132)"/>
<path d="M0 0 C7.59 0 15.18 0 23 0 C23 2.64 23 5.28 23 8 C15.74 8 8.48 8 1 8 C1 10.64 1 13.28 1 16 C71.62 16 142.24 16 215 16 C215 13.36 215 10.72 215 8 C207.41 8 199.82 8 192 8 C192 5.36 192 2.72 192 0 C199.92 0 207.84 0 216 0 C216 11.88 216 23.76 216 36 C197.52 36 179.04 36 160 36 C160.33 33.36 160.66 30.72 161 28 C164.63 28 168.26 28 172 28 C172.33 29.98 172.66 31.96 173 34 C177.95 34.33 182.9 34.66 188 35 C188 32.69 188 30.38 188 28 C196.91 28 205.82 28 215 28 C215 25.36 215 22.72 215 20 C144.38 20 73.76 20 1 20 C1 22.64 1 25.28 1 28 C9.91 28 18.82 28 28 28 C28 30.31 28 32.62 28 35 C33.28 35 38.56 35 44 35 C44 32.69 44 30.38 44 28 C47.63 28 51.26 28 55 28 C55 30.64 55 33.28 55 36 C36.85 36 18.7 36 0 36 C0 24.12 0 12.24 0 0 Z " fill="#3F3F3F" transform="translate(20,208)"/>
<path d="M0 0 C4.95 0 9.9 0 15 0 C16.32 3.3 17.64 6.6 19 10 C20.32 6.7 21.64 3.4 23 0 C27.95 0 32.9 0 38 0 C37.67 0.66 37.34 1.32 37 2 C36.921 3.853 36.906 5.709 36.922 7.564 C36.928 8.729 36.933 9.894 36.939 11.094 C36.948 12.358 36.956 13.623 36.965 14.926 C36.961 17.585 36.956 20.245 36.947 22.904 C36.935 27.112 36.933 31.318 36.976 35.525 C37.003 38.265 37.009 41.003 36.991 43.743 C36.974 46.325 36.987 48.908 37.033 51.489 C36.916 59.982 36.916 59.982 34.26 62.934 C31.044 65.043 28.873 66 25 66 C24.835 61.71 24.835 61.71 24 40 C22.35 46.93 20.7 53.86 19 61 C16.516 58.516 16.395 56.975 15.711 53.555 C15.492 52.478 15.273 51.402 15.047 50.293 C14.825 49.165 14.603 48.037 14.375 46.875 C14.146 45.739 13.916 44.604 13.68 43.434 C13.113 40.624 12.556 37.812 12 35 C11.67 42.92 11.34 50.84 11 59 C5.375 56.75 5.375 56.75 2.688 53.375 C2.176 52.743 1.664 52.112 1.137 51.461 C0.949 51.22 0.949 51.22 0 50 C0.165 49.835 0.165 49.835 1 49 C1.098 47.537 1.128 46.07 1.129 44.604 C1.133 43.669 1.136 42.735 1.139 41.772 C1.137 40.755 1.135 39.739 1.133 38.691 C1.134 37.654 1.135 36.617 1.136 35.549 C1.136 33.35 1.135 31.152 1.13 28.954 C1.125 25.581 1.13 22.207 1.137 18.834 C1.136 16.703 1.135 14.572 1.133 12.441 C1.135 11.427 1.137 10.412 1.139 9.367 C1.136 8.429 1.133 7.492 1.129 6.526 C1.129 5.698 1.128 4.871 1.127 4.018 C1 2 1 2 0 0 Z " fill="#0400B4" transform="translate(157,72)"/>
<path d="M0 0 C0.505 -0.002 0.505 -0.002 3.061 -0.012 C3.587 -0.006 3.587 -0.006 6.254 0.023 C7.304 0.012 8.354 0 9.436 -0.012 C10.447 -0.008 11.458 -0.004 12.5 0 C12.962 0.002 12.962 0.002 15.299 0.01 C18.339 0.479 19.577 1.31 21.816 3.398 C22.385 5.476 22.385 5.476 22.477 7.895 C22.518 8.803 22.56 9.712 22.603 10.648 C22.623 11.629 22.643 12.61 22.664 13.621 C22.689 14.636 22.714 15.652 22.74 16.698 C22.783 18.85 22.813 21.003 22.832 23.156 C22.878 26.428 23.015 29.689 23.154 32.959 C23.518 49.201 23.518 49.201 18.953 54.089 C14.996 57.476 10.763 59.75 5.816 61.398 C0.194 58.916 -4.795 55.63 -8.184 50.398 C-10.55 42.696 -9.633 34.336 -9.246 26.398 C-9.202 24.21 -9.163 22.021 -9.131 19.832 C-9.038 15.846 -8.944 11.861 -8.746 7.879 C-8.711 7.084 -8.675 6.289 -8.639 5.469 C-7.572 0.613 -4.512 0.017 0 0 Z " fill="#0300B4" transform="translate(134.18359375,71.6015625)"/>
<path d="M0 0 C1.011 -0.004 2.023 -0.008 3.064 -0.012 C4.114 -0 5.164 0.011 6.246 0.023 C7.3 0.012 8.354 0 9.439 -0.012 C10.449 -0.008 11.459 -0.004 12.5 0 C12.961 0.002 12.961 0.002 15.295 0.01 C18.192 0.481 18.894 1.116 20.684 3.398 C21.098 5.496 21.098 5.496 21.151 7.942 C21.177 8.861 21.202 9.779 21.229 10.725 C21.233 11.22 21.233 11.22 21.258 13.727 C21.273 14.749 21.287 15.771 21.302 16.825 C21.326 18.99 21.342 21.155 21.349 23.321 C21.371 26.623 21.451 29.921 21.533 33.223 C21.549 35.328 21.562 37.434 21.57 39.539 C21.602 40.522 21.634 41.504 21.667 42.516 C21.627 46.592 21.476 49.32 19.018 52.663 C16.946 54.635 15.27 56.166 12.684 57.398 C9.175 57.123 7.662 56.384 4.684 54.398 C2.489 53.821 0.278 53.306 -1.941 52.836 C-8.215 51.499 -8.215 51.499 -9.316 50.398 C-9.43 48.942 -9.476 47.479 -9.493 46.018 C-9.506 45.087 -9.519 44.156 -9.532 43.196 C-9.536 42.689 -9.536 42.689 -9.555 40.125 C-9.563 39.09 -9.571 38.056 -9.579 36.99 C-9.593 34.795 -9.604 32.601 -9.612 30.407 C-9.629 27.045 -9.673 23.683 -9.717 20.32 C-9.727 18.193 -9.735 16.065 -9.742 13.938 C-9.76 12.928 -9.777 11.919 -9.795 10.879 C-9.792 9.941 -9.789 9.004 -9.786 8.038 C-9.792 7.212 -9.798 6.387 -9.804 5.537 C-9.316 3.398 -9.316 3.398 -7.444 1.633 C-4.8 0.099 -3.047 0.011 0 0 Z " fill="#0700B1" transform="translate(102.31640625,71.6015625)"/>
<path d="M0 0 C2.873 1.195 4.991 2.615 7 5 C7.938 8.312 7.938 8.312 8 11 C6.68 11.66 6.68 11.66 0 15 C1.114 18.064 2.438 20.786 4.125 23.562 C6 27 6 27 6 31 C7.285 32.38 8.63 33.704 10 35 C11.3 36.775 12.534 38.583 13.754 40.414 C15 42 15 42 18 44 C19.222 49.049 19.222 49.049 19 52 C17.062 54.5 17.062 54.5 15 56 C9 53 9 53 7.562 50.5 C6 48 6 48 3 47 C2.333 45.667 1.667 44.333 1 43 C0.299 42.567 -0.403 42.134 -1.125 41.688 C-1.744 41.131 -2.362 40.574 -3 40 C-3.125 36.562 -3.125 36.562 -3 33 C-3.992 30.777 -3.992 30.777 -5 29 C-10.569 29.48 -15.671 30.299 -21 32 C-21 33.65 -21 35.3 -21 37 C-22.891 36.32 -22.891 36.32 -25 35 C-26.047 32.617 -26.047 32.617 -26.75 29.875 C-26.992 28.965 -27.235 28.055 -27.484 27.117 C-27.655 26.419 -27.825 25.72 -28 25 C-33.691 26.62 -38.409 28.618 -43.273 32.012 C-45 33 -45 33 -48 33 C-48 32.34 -48 31.68 -48 31 C-48.99 30.67 -49.98 30.34 -51 30 C-51 28.68 -51 27.36 -51 26 C-50.01 26 -49.02 26 -48 26 C-48.371 24.866 -48.742 23.731 -49.125 22.562 C-49.571 19.201 -49.149 18.2 -47.086 15.43 C-40.684 9.26 -40.684 9.26 -36.773 8.656 C-34.875 8.938 -34.875 8.938 -32 10 C-32 10.66 -32 11.32 -32 12 C-30.866 11.979 -29.731 11.959 -28.562 11.938 C-25 12 -25 12 -24 13 C-22.653 13.231 -21.296 13.412 -19.938 13.562 C-18.638 13.707 -17.339 13.851 -16 14 C-15.34 11.36 -14.68 8.72 -14 6 C-13.34 6 -12.68 6 -12 6 C-12 4.35 -12 2.7 -12 1 C-8.256 -0.872 -4.076 -0.535 0 0 Z " fill="#177714" transform="translate(106,127)"/>
<path d="M0 0 C4.62 0 9.24 0 14 0 C14 13.86 14 27.72 14 42 C11.36 42 8.72 42 6 42 C6 53.22 6 64.44 6 76 C15.24 76 24.48 76 34 76 C34 81.28 34 86.56 34 92 C27.4 92 20.8 92 14 92 C14 89.36 14 86.72 14 84 C6.08 84 -1.84 84 -10 84 C-10 81.36 -10 78.72 -10 76 C-7.36 76 -4.72 76 -2 76 C-2.01 74.768 -2.021 73.537 -2.032 72.268 C-2.068 67.71 -2.091 63.151 -2.11 58.593 C-2.12 56.618 -2.134 54.643 -2.151 52.668 C-2.175 49.833 -2.186 46.999 -2.195 44.164 C-2.206 43.278 -2.216 42.391 -2.227 41.478 C-2.227 39.317 -2.123 37.157 -2 35 C-1.34 34.34 -0.68 33.68 0 33 C1.98 33 3.96 33 6 33 C6 25.08 6 17.16 6 9 C4.02 9 2.04 9 0 9 C-2 7 -2 7 -2.25 4.5 C-2 2 -2 2 0 0 Z " fill="#1A1A1A" transform="translate(30,124)"/>
<path d="M0 0 C4.62 0 9.24 0 14 0 C16 2 16 2 16.25 4.5 C16 7 16 7 14 9 C12.02 9 10.04 9 8 9 C8 16.92 8 24.84 8 33 C9.98 33 11.96 33 14 33 C16 35 16 35 16.227 38.991 C16.227 40.715 16.215 42.44 16.195 44.164 C16.192 45.071 16.19 45.978 16.187 46.913 C16.176 49.817 16.15 52.721 16.125 55.625 C16.115 57.591 16.106 59.557 16.098 61.523 C16.076 66.349 16.041 71.174 16 76 C18.64 76 21.28 76 24 76 C24 78.64 24 81.28 24 84 C15.75 84 7.5 84 -1 84 C-1 86.64 -1 89.28 -1 92 C-7.27 92 -13.54 92 -20 92 C-20 86.72 -20 81.44 -20 76 C-10.76 76 -1.52 76 8 76 C8 64.78 8 53.56 8 42 C5.36 42 2.72 42 0 42 C0 28.14 0 14.28 0 0 Z " fill="#1A1A1A" transform="translate(212,124)"/>
<path d="M0 0 C26 0 26 0 30 3 C30.481 5.183 30.481 5.183 30.454 7.747 C30.454 8.227 30.454 8.227 30.453 10.658 C30.433 11.693 30.412 12.727 30.391 13.793 C30.385 14.854 30.379 15.915 30.373 17.009 C30.351 20.402 30.301 23.794 30.25 27.188 C30.23 29.486 30.212 31.785 30.195 34.084 C30.151 39.723 30.084 45.361 30 51 C29.226 50.194 28.451 49.388 27.654 48.558 C24.955 45.956 23.785 45.278 20.188 44.688 C19.397 44.547 18.607 44.406 17.793 44.262 C17.201 44.175 16.61 44.089 16 44 C16.66 43.01 17.32 42.02 18 41 C18.319 37.906 18.319 37.906 18.414 34.145 C18.433 33.483 18.453 32.821 18.473 32.14 C18.532 30.031 18.579 27.922 18.625 25.812 C18.663 24.381 18.702 22.949 18.742 21.518 C18.838 18.012 18.922 14.506 19 11 C16.69 11 14.38 11 12 11 C12 22.22 12 33.44 12 45 C11.175 45.165 11.175 45.165 7 46 C6.52 47.583 6.041 49.166 5.562 50.75 C5.296 51.632 5.029 52.513 4.754 53.422 C3.645 57.215 3 59.991 3 64 C2.67 64.165 2.67 64.165 1 65 C0.67 43.55 0.34 22.1 0 0 Z " fill="#0501B3" transform="translate(61,72)"/>
<path d="M0 0 C2.687 0.363 4.559 0.669 6.75 2.312 C8.148 4.2 8.472 5.737 9 8 C9.66 8.33 10.32 8.66 11 9 C11.068 8.386 11.137 7.773 11.207 7.141 C12 5 12 5 14.074 3.734 C23.788 0.075 23.788 0.075 28 1 C30.688 3.957 31.015 5.559 30.875 9.562 C30.916 10.697 30.957 11.831 31 13 C33.5 15.25 33.5 15.25 36 17 C36 17.99 36 18.98 36 20 C36.619 20.124 37.237 20.248 37.875 20.375 C40 21 40 21 42 23 C42 23.99 42 24.98 42 26 C43.98 26.66 45.96 27.32 48 28 C48.66 27.01 49.32 26.02 50 25 C50.66 25 51.32 25 52 25 C52 25.66 52 26.32 52 27 C52.332 27.001 52.332 27.001 54.012 27.008 C61.036 27.315 61.036 27.315 63.777 29.262 C66.456 32.345 67 33.866 67 38 C51.16 38 35.32 38 19 38 C23 34 23 34 26 32 C25.67 30.02 25.34 28.04 25 26 C25.33 26.66 25.66 27.32 26 28 C26.66 28 27.32 28 28 28 C28 28.66 28 29.32 28 30 C28.66 29.67 29.32 29.34 30 29 C29.529 28.481 29.059 27.961 28.574 27.426 C20 17.822 20 17.822 20 14 C19.34 14 18.68 14 18 14 C17.438 15.938 17.438 15.938 17 18 C17.33 18.33 17.66 18.66 18 19 C18 19.66 18 20.32 18 21 C18.66 21.33 19.32 21.66 20 22 C20.33 21.34 20.66 20.68 21 20 C22.5 21.25 22.5 21.25 24 23 C24 24.32 24 25.64 24 27 C20.412 25.667 17.164 24.169 14 22 C14 21.34 14 20.68 14 20 C12.02 20.33 10.04 20.66 8 21 C7.67 20.01 7.34 19.02 7 18 C6.361 17.752 5.721 17.505 5.062 17.25 C3 16 3 16 1.75 12.375 C1.502 11.261 1.255 10.148 1 9 C1.66 8.67 2.32 8.34 3 8 C2.505 7.423 2.01 6.845 1.5 6.25 C0 4 0 4 0 0 Z " fill="#878784" transform="translate(73,154)"/>
<path d="M0 0 C2.31 0 4.62 0 7 0 C7.049 4.236 7.086 8.471 7.11 12.708 C7.12 14.149 7.134 15.59 7.151 17.032 C7.175 19.102 7.186 21.172 7.195 23.242 C7.206 24.489 7.216 25.735 7.227 27.019 C7 30 7 30 5 32 C5.699 32.159 6.397 32.317 7.117 32.48 C14.643 34.41 14.643 34.41 16.625 37.688 C16.687 38.069 16.687 38.069 17 40 C17.66 40 18.32 40 19 40 C19 40.99 19 41.98 19 43 C22.96 43 26.92 43 31 43 C31 43.33 31 43.66 31 44 C29.35 44.165 29.35 44.165 21 45 C21 46.65 21 48.3 21 50 C20.34 50 19.68 50 19 50 C19.041 50.763 19.083 51.526 19.125 52.312 C19 55 19 55 17 58 C12.823 58.265 9.957 58.319 6 57 C4.336 56.652 2.67 56.316 1 56 C1 55.34 1 54.68 1 54 C-2.986 53.321 -4.964 53.371 -8.469 55.5 C-14.627 60.489 -14.627 60.489 -15.57 64.312 C-15.562 66.5 -15.562 66.5 -15 70 C-15.99 70 -16.98 70 -18 70 C-18.165 70.33 -18.165 70.33 -19 72 C-21 70 -21 70 -21.125 67.375 C-19.684 63.052 -17.317 60.97 -14.008 57.93 C-12.054 56.052 -10.44 54.297 -9 52 C-9.093 51.557 -9.093 51.557 -9.562 49.312 C-10.2 44.485 -8.181 41.226 -6 37 C-5.67 36.34 -5.34 35.68 -5 35 C-4.175 34.835 -4.175 34.835 0 34 C0 22.78 0 11.56 0 0 Z " fill="#96938F" transform="translate(73,83)"/>
<path d="M0 0 C0.662 -0.001 1.324 -0.002 2.006 -0.003 C3.409 -0.004 4.811 -0.002 6.213 0.002 C8.366 0.008 10.519 0.002 12.672 -0.004 C14.031 -0.003 15.391 -0.002 16.75 0 C17.373 0.001 17.373 0.001 20.523 0.003 C23.375 0.133 23.375 0.133 24.375 1.133 C24.469 2.943 24.492 4.758 24.489 6.571 C24.488 7.732 24.488 8.893 24.488 10.089 C24.483 11.353 24.478 12.616 24.473 13.918 C24.471 15.204 24.47 16.49 24.468 17.815 C24.465 21.239 24.455 24.664 24.444 28.088 C24.433 31.58 24.429 35.072 24.424 38.564 C24.413 45.421 24.396 52.277 24.375 59.133 C25.324 59.112 26.273 59.092 27.25 59.07 C30.375 59.133 30.375 59.133 32.375 60.133 C32.418 62.132 32.416 64.133 32.375 66.133 C31.375 67.133 31.375 67.133 28.25 67.266 C26.971 67.263 25.692 67.26 24.375 67.258 C23.096 67.26 21.817 67.263 20.5 67.266 C17.375 67.133 17.375 67.133 16.375 66.133 C16.281 64.322 16.258 62.508 16.261 60.695 C16.262 59.534 16.262 58.373 16.262 57.176 C16.267 55.913 16.272 54.649 16.277 53.348 C16.279 52.062 16.28 50.776 16.282 49.451 C16.285 46.026 16.295 42.602 16.306 39.178 C16.317 35.685 16.321 32.193 16.326 28.701 C16.337 21.845 16.354 14.989 16.375 8.133 C15.683 8.138 14.992 8.143 14.28 8.149 C11.166 8.169 8.052 8.182 4.938 8.195 C3.849 8.204 2.76 8.212 1.639 8.221 C0.604 8.224 -0.43 8.227 -1.496 8.23 C-1.975 8.233 -1.975 8.233 -4.4 8.246 C-6.625 8.133 -6.625 8.133 -7.625 7.133 C-7.75 4.133 -7.75 4.133 -7.625 1.133 C-5.742 -0.75 -2.506 0.002 0 0 Z " fill="#333333" transform="translate(195.625,47.8671875)"/>
<path d="M0 0 C2.873 1.195 4.991 2.615 7 5 C7.938 8.312 7.938 8.312 8 11 C6.68 11.66 6.68 11.66 0 15 C1.114 18.064 2.438 20.786 4.125 23.562 C6 27 6 27 6 31 C7.285 32.38 8.63 33.704 10 35 C11.3 36.775 12.534 38.583 13.754 40.414 C15 42 15 42 18 44 C19.222 49.049 19.222 49.049 19 52 C17.062 54.5 17.062 54.5 15 56 C9 53 9 53 7.562 50.5 C6 48 6 48 3 47 C2.333 45.667 1.667 44.333 1 43 C0.299 42.567 -0.403 42.134 -1.125 41.688 C-1.744 41.131 -2.362 40.574 -3 40 C-3.125 36.562 -3.125 36.562 -3 33 C-3.992 30.777 -3.992 30.777 -5 29 C-10.569 29.48 -15.671 30.299 -21 32 C-21 33.65 -21 35.3 -21 37 C-22.32 36.34 -23.64 35.68 -25 35 C-23.848 32.532 -22.952 30.952 -21 29 C-19.16 28.438 -19.16 28.438 -17.062 28 C-14.01 27.361 -12.713 26.809 -10 25 C-6.312 25.375 -6.312 25.375 -3 26 C-3 26.66 -3 27.32 -3 28 C-0.69 28.66 1.62 29.32 4 30 C4 29.01 4 28.02 4 27 C3.34 27 2.68 27 2 27 C1.01 24.36 0.02 21.72 -1 19 C-1.99 19 -2.98 19 -4 19 C-4.33 17.68 -4.66 16.36 -5 15 C-5.66 15 -6.32 15 -7 15 C-7.33 15.99 -7.66 16.98 -8 18 C-9.478 15.043 -9.06 12.258 -9 9 C-8.34 9 -7.68 9 -7 9 C-7 7.35 -7 5.7 -7 4 C-7.33 5.32 -7.66 6.64 -8 8 C-8.99 8 -9.98 8 -11 8 C-11.33 5.69 -11.66 3.38 -12 1 C-8.256 -0.872 -4.076 -0.535 0 0 Z " fill="#3D6D27" transform="translate(106,127)"/>
<path d="M0 0 C0.985 -0.001 1.97 -0.003 2.984 -0.004 C4.021 -0 5.057 0.004 6.125 0.008 C6.643 0.006 6.643 0.006 9.266 -0.004 C10.25 -0.003 11.235 -0.001 12.25 0 C13.16 0.001 14.07 0.002 15.008 0.003 C17.125 0.133 17.125 0.133 18.125 1.133 C18.224 2.755 18.256 4.382 18.258 6.008 C18.258 6.5 18.258 6.5 18.262 8.992 C18.258 10.029 18.254 11.065 18.25 12.133 C18.252 12.651 18.252 12.651 18.262 15.273 C18.26 16.258 18.259 17.243 18.258 18.258 C18.257 19.168 18.256 20.078 18.254 21.016 C18.125 23.133 18.125 23.133 17.125 24.133 C15.502 24.232 13.876 24.264 12.25 24.266 C11.265 24.267 10.28 24.268 9.266 24.27 C8.229 24.266 7.193 24.262 6.125 24.258 C5.607 24.26 5.607 24.26 2.984 24.27 C2 24.268 1.015 24.267 0 24.266 C-0.91 24.264 -1.82 24.263 -2.758 24.262 C-4.875 24.133 -4.875 24.133 -5.875 23.133 C-5.974 21.51 -6.006 19.883 -6.008 18.258 C-6.009 17.273 -6.01 16.288 -6.012 15.273 C-6.008 14.237 -6.004 13.201 -6 12.133 C-6.002 11.615 -6.002 11.615 -6.012 8.992 C-6.01 8.007 -6.009 7.023 -6.008 6.008 C-6.007 5.098 -6.006 4.188 -6.004 3.25 C-5.757 -0.792 -3.518 0.004 0 0 Z " fill="#B70000" transform="translate(121.875,199.8671875)"/>
<path d="M0 0 C0.33 1.32 0.66 2.64 1 4 C-0.98 3.34 -2.96 2.68 -5 2 C-2.125 8.75 -2.125 8.75 -1 11 C-1.99 11 -2.98 11 -4 11 C-1.538 17.646 -1.538 17.646 1.188 19.438 C1.786 19.623 2.384 19.809 3 20 C3 20.66 3 21.32 3 22 C4.98 22 6.96 22 9 22 C9 22.66 9 23.32 9 24 C9.536 24.083 10.073 24.165 10.625 24.25 C13.835 25.264 16.263 27.072 19 29 C18.312 26.562 18.312 26.562 17 24 C14.375 23.188 14.375 23.188 12 23 C11.835 22.01 11.835 22.01 11 17 C12.32 16.67 13.64 16.34 15 16 C15.351 16.846 15.701 17.691 16.062 18.562 C18.126 22.224 20.382 24.508 23.477 27.289 C25.171 29.192 25.598 30.514 26 33 C25.01 32.67 24.02 32.34 23 32 C23 31.34 23 30.68 23 30 C22.67 30.165 22.67 30.165 21 31 C21 32.32 21 33.64 21 35 C19.845 35.66 19.845 35.66 14 39 C13.67 38.67 13.34 38.34 13 38 C11.653 37.769 10.296 37.588 8.938 37.438 C7.638 37.293 6.339 37.149 5 37 C5.33 36.835 5.33 36.835 7 36 C7 34.68 7 33.36 7 32 C6.455 32.144 5.909 32.289 5.348 32.438 C-0.25 33.815 -5.239 34.183 -11 34 C-10.403 30.841 -10.08 30.076 -7.625 27.75 C-5 26 -5 26 -2 26 C-2 25.01 -2 24.02 -2 23 C-3.65 23 -5.3 23 -7 23 C-6.34 22.67 -5.68 22.34 -5 22 C-8.76 16.884 -12.364 13.901 -18.145 11.238 C-20 10 -20 10 -20.762 7.855 C-20.84 7.243 -20.919 6.631 -21 6 C-20.67 6.66 -20.34 7.32 -20 8 C-19.287 7.59 -18.574 7.18 -17.84 6.758 C-5.828 0 -5.828 0 0 0 Z " fill="#906131" transform="translate(78,152)"/>
<path d="M0 0 C2.892 1.261 3.587 2.724 5.141 5.379 C7.319 8.207 10.318 9.798 13.309 11.68 C15.694 13.229 17.63 14.862 19.438 17.062 C19.438 17.722 19.438 18.382 19.438 19.062 C22.077 19.062 24.718 19.062 27.438 19.062 C26.312 21.562 26.312 21.562 24.438 24.062 C21.25 24.375 21.25 24.375 18.438 24.062 C18.108 25.713 17.778 27.363 17.438 29.062 C16.118 29.392 14.798 29.722 13.438 30.062 C13.438 31.053 13.438 32.042 13.438 33.062 C12.942 33.227 12.942 33.227 10.438 34.062 C6.019 30.96 3.167 27.787 0.438 23.062 C0.438 22.403 0.438 21.743 0.438 21.062 C-0.552 20.733 -1.543 20.403 -2.562 20.062 C-2.673 19.333 -2.784 18.603 -2.898 17.852 C-3.784 14.133 -5.609 11.374 -7.602 8.148 C-8.562 6.062 -8.562 6.062 -7.562 3.062 C-4.952 1.032 -3.33 0.081 0 0 Z " fill="#907250" transform="translate(113.5625,137.9375)"/>
<path d="M0 0 C0.916 0.005 1.833 0.01 2.777 0.016 C3.766 0.019 4.756 0.022 5.775 0.026 C6.816 0.034 7.857 0.042 8.929 0.051 C9.452 0.053 9.452 0.053 12.095 0.065 C14.686 0.077 17.276 0.093 19.867 0.114 C19.867 2.754 19.867 5.394 19.867 8.114 C33.727 8.114 47.587 8.114 61.867 8.114 C61.867 5.804 61.867 3.494 61.867 1.114 C63.489 -0.508 65.287 -0.016 67.523 -0.019 C68.463 -0.021 69.403 -0.022 70.371 -0.023 C71.36 -0.019 72.348 -0.015 73.367 -0.011 C73.861 -0.013 73.861 -0.013 76.363 -0.023 C76.833 -0.023 76.833 -0.023 79.211 -0.019 C80.079 -0.018 80.947 -0.017 81.842 -0.016 C83.867 0.114 83.867 0.114 84.867 1.114 C84.867 3.754 84.867 6.394 84.867 9.114 C55.827 9.114 26.787 9.114 -3.133 9.114 C-3.133 0.167 -3.133 0.167 0 0 Z " fill="#3E3E3E" transform="translate(87.133056640625,234.886474609375)"/>
<path d="M0 0 C9.24 0 18.48 0 28 0 C28 5.28 28 10.56 28 16 C18.76 16 9.52 16 0 16 C0 10.72 0 5.44 0 0 Z " fill="#252526" transform="translate(160,200)"/>
<path d="M0 0 C9.24 0 18.48 0 28 0 C28 5.28 28 10.56 28 16 C18.76 16 9.52 16 0 16 C0 10.72 0 5.44 0 0 Z " fill="#252526" transform="translate(68,200)"/>
<path d="M0 0 C0.808 0.287 1.616 0.575 2.449 0.871 C2.757 0.985 2.757 0.985 4.312 1.562 C4.312 2.882 4.312 4.203 4.312 5.562 C5.302 5.562 6.293 5.562 7.312 5.562 C7.312 6.222 7.312 6.882 7.312 7.562 C5.332 7.562 3.352 7.562 1.312 7.562 C1.972 9.543 2.632 11.523 3.312 13.562 C1.662 13.893 0.013 14.222 -1.688 14.562 C-1.688 15.222 -1.688 15.882 -1.688 16.562 C-0.698 16.562 0.293 16.562 1.312 16.562 C1.642 17.553 1.972 18.542 2.312 19.562 C2.312 18.243 2.312 16.923 2.312 15.562 C2.614 15.604 2.614 15.604 4.141 15.816 C4.94 15.918 5.739 16.02 6.562 16.125 C7.351 16.229 8.14 16.334 8.953 16.441 C11.318 16.563 13.064 16.259 15.312 15.562 C15.271 14.614 15.23 13.665 15.188 12.688 C15.312 9.562 15.312 9.562 17.312 7.562 C19.914 7.367 19.914 7.367 22.938 7.438 C23.439 7.447 23.439 7.447 25.977 7.492 C26.747 7.515 27.518 7.539 28.312 7.562 C28.312 7.892 28.312 8.222 28.312 8.562 C25.013 8.892 21.713 9.222 18.312 9.562 C18.312 11.213 18.312 12.863 18.312 14.562 C17.653 14.562 16.993 14.562 16.312 14.562 C16.354 15.326 16.395 16.089 16.438 16.875 C16.312 19.562 16.312 19.562 14.312 22.562 C10.136 22.828 7.269 22.881 3.312 21.562 C1.649 21.214 -0.017 20.878 -1.688 20.562 C-1.688 19.903 -1.688 19.243 -1.688 18.562 C-5.674 17.884 -7.652 17.933 -11.156 20.062 C-17.315 25.052 -17.315 25.052 -18.258 28.875 C-18.25 31.062 -18.25 31.062 -17.688 34.562 C-18.678 34.562 -19.668 34.562 -20.688 34.562 C-21.017 35.222 -21.347 35.882 -21.688 36.562 C-23.688 34.562 -23.688 34.562 -23.812 31.938 C-22.372 27.615 -20.004 25.533 -16.695 22.492 C-14.741 20.614 -13.127 18.86 -11.688 16.562 C-11.873 15.676 -12.059 14.789 -12.25 13.875 C-12.888 9.048 -10.868 5.789 -8.688 1.562 C-8.358 0.903 -8.028 0.243 -7.688 -0.438 C-4.209 -1.597 -3.345 -1.212 0 0 Z " fill="#585B57" transform="translate(75.6875,118.4375)"/>
<path d="M0 0 C9.24 0 18.48 0 28 0 C28 5.28 28 10.56 28 16 C21.4 16 14.8 16 8 16 C8 13.36 8 10.72 8 8 C4.7 8 1.4 8 -2 8 C-1.34 5.36 -0.68 2.72 0 0 Z " fill="#262626" transform="translate(36,200)"/>
<path d="M0 0 C9.24 0 18.48 0 28 0 C28 2.31 28 4.62 28 7 C28.66 7.33 29.32 7.66 30 8 C26.37 8 22.74 8 19 8 C19 10.64 19 13.28 19 16 C12.73 16 6.46 16 0 16 C0 10.72 0 5.44 0 0 Z " fill="#262626" transform="translate(192,200)"/>
<path d="M0 0 C2.938 0.75 2.938 0.75 6 2 C6.875 4.125 6.875 4.125 7 6 C7.619 6.124 8.237 6.248 8.875 6.375 C11 7 11 7 13 9 C13 9.99 13 10.98 13 12 C14.98 12.66 16.96 13.32 19 14 C19.66 13.01 20.32 12.02 21 11 C21.66 11 22.32 11 23 11 C23 11.66 23 12.32 23 13 C23.332 13.001 23.332 13.001 25.012 13.008 C32.036 13.315 32.036 13.315 34.777 15.262 C37.456 18.345 38 19.866 38 24 C33.764 24.049 29.529 24.086 25.292 24.11 C23.851 24.12 22.41 24.134 20.968 24.151 C18.898 24.175 16.828 24.186 14.758 24.195 C14.135 24.201 14.135 24.201 10.981 24.227 C8 24 8 24 6 22 C6 21.01 6 20.02 6 19 C7.65 19 9.3 19 11 19 C10.814 17.701 10.629 16.401 10.438 15.062 C10.121 12.848 10.121 12.848 10 11 C10.33 10.67 10.66 10.34 11 10 C10.34 9.67 9.68 9.34 9 9 C9 9.99 9 10.98 9 12 C8.34 12 7.68 12 7 12 C7 10.68 7 9.36 7 8 C6.01 8 5.02 8 4 8 C3.67 7.34 3.34 6.68 3 6 C3.66 5.67 4.32 5.34 5 5 C4.588 4.773 4.588 4.773 2.5 3.625 C1.675 3.089 0.85 2.553 0 2 C0 1.34 0 0.68 0 0 Z " fill="#FDF0E0" transform="translate(102,168)"/>
<path d="M0 0 C2.687 0.363 4.559 0.669 6.75 2.312 C8.148 4.2 8.472 5.737 9 8 C9.66 8.33 10.32 8.66 11 9 C11.068 8.386 11.137 7.773 11.207 7.141 C12 5 12 5 14.074 3.734 C23.788 0.075 23.788 0.075 28 1 C30.311 3.851 31 5.314 31 9 C27.2 13.306 23.442 13.573 18.012 13.922 C17.68 13.935 17.68 13.935 16 14 C15.67 15.65 15.34 17.3 15 19 C11.703 19.363 10.326 19.223 7.543 17.32 C6.766 16.596 5.988 15.871 5.188 15.125 C4.397 14.406 3.607 13.686 2.793 12.945 C1 11 1 11 1 9 C1.66 8.67 2.32 8.34 3 8 C2.505 7.423 2.01 6.845 1.5 6.25 C0 4 0 4 0 0 Z " fill="#A37A4D" transform="translate(73,154)"/>
<path d="M0 0 C0.823 0.002 1.646 0.004 2.494 0.006 C3.333 0.005 4.173 0.004 5.038 0.003 C6.817 0.003 8.596 0.004 10.375 0.009 C13.107 0.014 15.839 0.009 18.572 0.002 C20.296 0.003 22.02 0.004 23.744 0.006 C24.567 0.004 25.389 0.002 26.237 0 C32.004 0.024 32.004 0.024 33.119 1.139 C33.244 4.139 33.244 4.139 33.119 7.139 C31.276 8.982 28.689 8.268 26.237 8.278 C25.414 8.276 24.591 8.274 23.744 8.272 C22.904 8.273 22.064 8.274 21.199 8.275 C19.42 8.275 17.642 8.273 15.863 8.269 C13.13 8.264 10.398 8.269 7.666 8.276 C5.942 8.275 4.218 8.274 2.494 8.272 C1.671 8.274 0.848 8.276 0 8.278 C-5.766 8.254 -5.766 8.254 -6.881 7.139 C-7.006 4.139 -7.006 4.139 -6.881 1.139 C-5.039 -0.704 -2.452 0.01 0 0 Z " fill="#262626" transform="translate(114.88134765625,47.861053466796875)"/>
<path d="M0 0 C0 0.99 0 1.98 0 3 C-0.66 3.33 -1.32 3.66 -2 4 C-2.144 4.66 -2.289 5.32 -2.438 6 C-2.623 6.66 -2.809 7.32 -3 8 C-3.99 8.33 -4.98 8.66 -6 9 C-6 12.3 -6 15.6 -6 19 C-9.05 17.475 -11.364 16.071 -14 14 C-14.495 14.454 -14.99 14.907 -15.5 15.375 C-18.347 17.225 -20.814 17.852 -24.098 18.57 C-26 19 -26 19 -29 20 C-28.34 18.35 -27.68 16.7 -27 15 C-29.31 15.66 -31.62 16.32 -34 17 C-34 16.01 -34 15.02 -34 14 C-33.345 13.688 -32.69 13.375 -32.016 13.054 C-29.01 11.62 -26.005 10.185 -23 8.75 C-21.97 8.259 -20.94 7.768 -19.879 7.262 C-19.373 7.02 -19.373 7.02 -16.812 5.797 C-16.316 5.561 -16.316 5.561 -13.805 4.365 C-11.317 3.154 -8.879 1.877 -6.438 0.578 C-3 -1 -3 -1 0 0 Z " fill="#635858" transform="translate(200,132)"/>
<path d="M0 0 C0 0.99 0 1.98 0 3 C-2.312 4.562 -2.312 4.562 -5 6 C-8 8 -8 8 -9 11 C-7.541 10.859 -6.083 10.712 -4.625 10.562 C-3.813 10.481 -3.001 10.4 -2.164 10.316 C0 10 0 10 2 9 C4.333 8.96 6.667 8.957 9 9 C9 10.32 9 11.64 9 13 C8.434 13.205 7.868 13.41 7.285 13.621 C6.552 13.891 5.818 14.16 5.062 14.438 C4.332 14.704 3.601 14.971 2.848 15.246 C1 16 1 16 0 17 C-1.489 17.087 -2.981 17.107 -4.473 17.098 C-5.372 17.094 -6.271 17.091 -7.197 17.088 C-8.143 17.08 -9.088 17.071 -10.062 17.062 C-11.012 17.058 -11.961 17.053 -12.939 17.049 C-15.293 17.037 -17.646 17.021 -20 17 C-20.398 10.541 -20.398 10.541 -18.609 8.109 C-18.303 7.885 -18.303 7.885 -16.75 6.75 C-16.109 6.267 -15.469 5.783 -14.809 5.285 C-14.51 5.073 -14.51 5.073 -13 4 C-12.278 3.402 -11.556 2.804 -10.812 2.188 C-7.324 -0.098 -4.092 -0.114 0 0 Z " fill="#308224" transform="translate(76,175)"/>
<path d="M0 0 C2.64 0 5.28 0 8 0 C8.149 4.181 8.257 8.36 8.33 12.543 C8.36 13.964 8.401 15.385 8.453 16.805 C8.874 28.598 8.874 28.598 6.708 32.073 C4.598 33.891 2.834 35 0 35 C0 23.45 0 11.9 0 0 Z " fill="#A80010" transform="translate(137,83)"/>
<path d="M0 0 C0.351 0.846 0.701 1.691 1.062 2.562 C3.126 6.224 5.382 8.508 8.477 11.289 C10.171 13.192 10.598 14.514 11 17 C10.01 16.67 9.02 16.34 8 16 C8 15.34 8 14.68 8 14 C7.67 14.165 7.67 14.165 6 15 C6 16.32 6 17.64 6 19 C3.69 20.32 1.38 21.64 -1 23 C-1.33 22.67 -1.66 22.34 -2 22 C-3.347 21.769 -4.704 21.588 -6.062 21.438 C-7.362 21.293 -8.661 21.149 -10 21 C-9.34 20.67 -8.68 20.34 -8 20 C-8 18.68 -8 17.36 -8 16 C-9.65 16 -11.3 16 -13 16 C-12.67 14.35 -12.34 12.7 -12 11 C-12.99 11 -13.98 11 -15 11 C-15.33 9.68 -15.66 8.36 -16 7 C-12.7 6.67 -9.4 6.34 -6 6 C-6 6.66 -6 7.32 -6 8 C-5.464 8.083 -4.927 8.165 -4.375 8.25 C-1.165 9.264 1.263 11.072 4 13 C3.312 10.562 3.312 10.562 2 8 C-0.625 7.188 -0.625 7.188 -3 7 C-3.33 5.02 -3.66 3.04 -4 1 C-2 0 -2 0 0 0 Z " fill="#666765" transform="translate(93,168)"/>
<path d="M0 0 C5.61 0 11.22 0 17 0 C17 5.28 17 10.56 17 16 C11.72 16 6.44 16 1 16 C0.67 10.72 0.34 5.44 0 0 Z " fill="#272525" transform="translate(139,200)"/>
<path d="M0 0 C5.61 0 11.22 0 17 0 C16.67 5.28 16.34 10.56 16 16 C10.72 16 5.44 16 0 16 C0 10.72 0 5.44 0 0 Z " fill="#272525" transform="translate(100,200)"/>
<path d="M0 0 C0.662 -0.001 1.324 -0.002 2.006 -0.003 C3.409 -0.004 4.811 -0.002 6.213 0.002 C8.366 0.008 10.519 0.002 12.672 -0.004 C14.031 -0.003 15.391 -0.002 16.75 0 C17.373 0.001 17.373 0.001 20.523 0.003 C23.375 0.133 23.375 0.133 24.375 1.133 C24.5 4.133 24.5 4.133 24.375 7.133 C23.375 8.133 23.375 8.133 20.416 8.246 C19.122 8.241 17.829 8.236 16.496 8.23 C16.153 8.23 16.153 8.23 14.415 8.226 C12.214 8.221 10.013 8.208 7.812 8.195 C6.324 8.19 4.835 8.186 3.346 8.182 C-0.311 8.171 -3.968 8.153 -7.625 8.133 C-7.667 5.8 -7.666 3.466 -7.625 1.133 C-5.742 -0.75 -2.506 0.002 0 0 Z " fill="#1A1A1A" transform="translate(43.625,47.8671875)"/>
<path d="M0 0 C0.662 -0.001 1.324 -0.002 2.006 -0.003 C3.409 -0.004 4.811 -0.002 6.213 0.002 C8.366 0.008 10.519 0.002 12.672 -0.004 C14.031 -0.003 15.391 -0.002 16.75 0 C17.373 0.001 17.373 0.001 20.523 0.003 C23.375 0.133 23.375 0.133 24.375 1.133 C24.416 3.132 24.418 5.133 24.375 7.133 C17.702 8.142 11.18 8.283 4.438 8.258 C3.385 8.262 2.332 8.266 1.248 8.27 C0.25 8.268 -0.749 8.267 -1.777 8.266 C-2.685 8.264 -3.592 8.263 -4.527 8.262 C-6.625 8.133 -6.625 8.133 -7.625 7.133 C-7.75 4.133 -7.75 4.133 -7.625 1.133 C-5.742 -0.75 -2.506 0.002 0 0 Z " fill="#191919" transform="translate(195.625,47.8671875)"/>
<path d="M0 0 C3.05 1.19 3.66 2.572 5.266 5.316 C7.444 8.144 10.443 9.735 13.434 11.617 C15.819 13.167 17.755 14.799 19.562 17 C19.562 17.66 19.562 18.32 19.562 19 C21.542 19 23.523 19 25.562 19 C24.367 20.508 24.367 20.508 22.562 22 C17.999 22.356 13.683 21.48 9.5 19.688 C7.349 17.814 6.852 16.803 6.562 14 C5.243 14 3.922 14 2.562 14 C2.562 13.01 2.562 12.02 2.562 11 C2.098 11.052 2.098 11.052 -0.25 11.312 C-3.438 11 -3.438 11 -5.375 8.75 C-6.438 6 -6.438 6 -6.312 3.812 C-4.899 0.884 -3.186 0 0 0 Z " fill="#E3B084" transform="translate(113.4375,138)"/>
<path d="M0 0 C0.66 0.33 1.32 0.66 2 1 C1.67 2.65 1.34 4.3 1 6 C0.34 6 -0.32 6 -1 6 C-0.67 8.64 -0.34 11.28 0 14 C0.33 13.34 0.66 12.68 1 12 C1.66 12 2.32 12 3 12 C3.124 12.639 3.248 13.279 3.375 13.938 C3.581 14.618 3.787 15.299 4 16 C4.66 16.33 5.32 16.66 6 17 C2.25 19.5 0.441 19.536 -4 19 C-6.875 16.562 -6.875 16.562 -9 14 C-9.33 13.67 -9.66 13.34 -10 13 C-10 13.99 -10 14.98 -10 16 C-9.34 16 -8.68 16 -8 16 C-7.67 17.32 -7.34 18.64 -7 20 C-9.36 22.097 -10.546 22.969 -13.75 23.188 C-14.121 23.157 -14.121 23.157 -16 23 C-16.33 22.01 -16.66 21.02 -17 20 C-17.66 19.67 -18.32 19.34 -19 19 C-18.75 16.125 -18.75 16.125 -18 13 C-14.946 10.511 -11.808 10.827 -8 11 C-7.89 10.434 -7.781 9.868 -7.668 9.285 C-7.589 8.918 -7.589 8.918 -7.188 7.062 C-7.112 6.697 -7.112 6.697 -6.73 4.848 C-6.489 4.238 -6.248 3.628 -6 3 C-5.01 2.67 -4.02 2.34 -3 2 C-3 2.99 -3 3.98 -3 5 C-2.01 5 -1.02 5 0 5 C0 3.35 0 1.7 0 0 Z " fill="#0EA115" transform="translate(98,130)"/>
<path d="M0 0 C2.31 0 4.62 0 7 0 C7.099 4.199 7.172 8.398 7.22 12.598 C7.24 14.026 7.267 15.453 7.302 16.881 C7.35 18.936 7.373 20.991 7.391 23.047 C7.412 24.283 7.433 25.519 7.454 26.792 C7 30 7 30 5.163 32.435 C3 34 3 34 0 34 C0 22.78 0 11.56 0 0 Z " fill="#B20107" transform="translate(73,83)"/>
<path d="M0 0 C2.31 0 4.62 0 7 0 C7 11.22 7 22.44 7 34 C3 32 3 32 0 30 C-0.341 27.019 -0.341 27.019 -0.293 23.242 C-0.289 22.579 -0.284 21.916 -0.28 21.233 C-0.263 19.113 -0.226 16.994 -0.188 14.875 C-0.172 13.439 -0.159 12.003 -0.146 10.566 C-0.113 7.044 -0.062 3.522 0 0 Z " fill="#B50002" transform="translate(105,84)"/>
<path d="M0 0 C0.33 0 0.66 0 1 0 C1 1.98 1 3.96 1 6 C4.292 5.89 7.584 5.76 10.875 5.625 C11.812 5.594 12.749 5.563 13.715 5.531 C14.163 5.512 14.163 5.512 16.43 5.414 C17.257 5.383 18.085 5.351 18.937 5.319 C21 5 21 5 23 3 C26.039 2.805 26.039 2.805 29.625 2.875 C30.219 2.884 30.219 2.884 33.227 2.93 C34.142 2.953 35.057 2.976 36 3 C36.165 3.495 36.165 3.495 37 6 C74.95 6 112.9 6 152 6 C152 6.33 152 6.66 152 7 C99.53 7 47.06 7 -7 7 C-7 6.67 -7 6.34 -7 6 C-4.69 6 -2.38 6 0 6 C0 4.02 0 2.04 0 0 Z " fill="#70302E" transform="translate(55,186)"/>
<path d="M0 0 C7.92 0 15.84 0 24 0 C24 2.31 24 4.62 24 7 C22.346 8.654 20.397 8.13 18.125 8.133 C17.14 8.134 16.155 8.135 15.141 8.137 C14.104 8.133 13.068 8.129 12 8.125 C11.482 8.127 11.482 8.127 8.859 8.137 C7.875 8.135 6.89 8.134 5.875 8.133 C4.965 8.132 4.055 8.131 3.117 8.129 C1 8 1 8 0 7 C0 4.69 0 2.38 0 0 Z " fill="#790000" transform="translate(116,216)"/>
<path d="M0 0 C0.985 -0.001 1.97 -0.003 2.984 -0.004 C4.021 -0 5.057 0.004 6.125 0.008 C6.643 0.006 6.643 0.006 9.266 -0.004 C10.25 -0.003 11.235 -0.001 12.25 0 C13.16 0.001 14.07 0.002 15.008 0.003 C17.125 0.133 17.125 0.133 18.125 1.133 C18.25 4.133 18.25 4.133 18.125 7.133 C16.471 8.787 14.522 8.263 12.25 8.266 C11.265 8.267 10.28 8.268 9.266 8.27 C8.229 8.266 7.193 8.262 6.125 8.258 C5.607 8.26 5.607 8.26 2.984 8.27 C2 8.268 1.015 8.267 0 8.266 C-0.91 8.264 -1.82 8.263 -2.758 8.262 C-4.875 8.133 -4.875 8.133 -5.875 7.133 C-6 4.133 -6 4.133 -5.875 1.133 C-4.221 -0.521 -2.272 0.003 0 0 Z " fill="#1A1A1A" transform="translate(161.875,47.8671875)"/>
<path d="M0 0 C0.985 -0.001 1.97 -0.003 2.984 -0.004 C4.021 -0 5.057 0.004 6.125 0.008 C6.643 0.006 6.643 0.006 9.266 -0.004 C10.25 -0.003 11.235 -0.001 12.25 0 C13.16 0.001 14.07 0.002 15.008 0.003 C17.125 0.133 17.125 0.133 18.125 1.133 C18.25 4.133 18.25 4.133 18.125 7.133 C16.471 8.787 14.522 8.263 12.25 8.266 C11.265 8.267 10.28 8.268 9.266 8.27 C8.229 8.266 7.193 8.262 6.125 8.258 C5.607 8.26 5.607 8.26 2.984 8.27 C2 8.268 1.015 8.267 0 8.266 C-0.91 8.264 -1.82 8.263 -2.758 8.262 C-4.875 8.133 -4.875 8.133 -5.875 7.133 C-6 4.133 -6 4.133 -5.875 1.133 C-4.221 -0.521 -2.272 0.003 0 0 Z " fill="#1A1A1A" transform="translate(81.875,47.8671875)"/>
<path d="M0 0 C2.873 1.195 4.991 2.615 7 5 C7.938 8.312 7.938 8.312 8 11 C6.711 11.672 5.419 12.337 4.125 13 C3.406 13.371 2.686 13.743 1.945 14.125 C0 15 0 15 -2 15 C-2 14.01 -2 13.02 -2 12 C-2.66 12 -3.32 12 -4 12 C-4 11.34 -4 10.68 -4 10 C-4.99 9.67 -5.98 9.34 -7 9 C-7 7.35 -7 5.7 -7 4 C-7.33 5.32 -7.66 6.64 -8 8 C-8.99 8 -9.98 8 -11 8 C-11.33 5.69 -11.66 3.38 -12 1 C-8.256 -0.872 -4.076 -0.535 0 0 Z " fill="#117711" transform="translate(106,127)"/>
<path d="M0 0 C0.808 0.287 1.616 0.575 2.449 0.871 C2.757 0.985 2.757 0.985 4.312 1.562 C4.312 2.882 4.312 4.203 4.312 5.562 C5.302 5.562 6.293 5.562 7.312 5.562 C7.312 6.222 7.312 6.882 7.312 7.562 C5.332 7.562 3.352 7.562 1.312 7.562 C1.972 9.543 2.632 11.523 3.312 13.562 C2.508 13.686 1.704 13.81 0.875 13.938 C0.029 14.144 -0.816 14.35 -1.688 14.562 C-2.017 15.222 -2.347 15.882 -2.688 16.562 C-3.863 12.888 -3.761 9.393 -3.688 5.562 C-4.513 5.233 -4.513 5.233 -8.688 3.562 C-8.358 4.882 -8.028 6.203 -7.688 7.562 C-7.028 7.562 -6.368 7.562 -5.688 7.562 C-6.017 8.882 -6.347 10.202 -6.688 11.562 C-6.028 11.232 -5.368 10.903 -4.688 10.562 C-4.688 12.542 -4.688 14.523 -4.688 16.562 C-7.531 16.793 -9.149 16.922 -11.562 15.312 C-12.688 13.562 -12.688 13.562 -12.352 11.711 C-11.695 9.588 -10.977 7.514 -10.188 5.438 C-9.93 4.754 -9.672 4.071 -9.406 3.367 C-8.688 1.562 -8.688 1.562 -7.688 -0.438 C-4.209 -1.597 -3.345 -1.212 0 0 Z " fill="#7F7F7F" transform="translate(75.6875,118.4375)"/>
<path d="M0 0 C17.49 0 34.98 0 53 0 C53 0.33 53 0.66 53 1 C49.7 1 46.4 1 43 1 C43 3.31 43 5.62 43 8 C37.72 8 32.44 8 27 8 C27 5.69 27 3.38 27 1 C18.09 1 9.18 1 0 1 C0 0.67 0 0.34 0 0 Z " fill="#333333" transform="translate(21,235)"/>
<path d="M0 0 C17.49 0 34.98 0 53 0 C53 0.33 53 0.66 53 1 C44.09 1 35.18 1 26 1 C26 3.31 26 5.62 26 8 C20.72 8 15.44 8 10 8 C10 5.69 10 3.38 10 1 C6.7 1 3.4 1 0 1 C0 0.67 0 0.34 0 0 Z " fill="#333333" transform="translate(182,235)"/>
<path d="M0 0 C3.775 1.258 4.198 2.559 6 6 C6.33 6.99 6.66 7.98 7 9 C7.99 9.33 8.98 9.66 10 10 C10 10.66 10 11.32 10 12 C10.66 12.33 11.32 12.66 12 13 C11.34 14.65 10.68 16.3 10 18 C10.66 18 11.32 18 12 18 C12.66 16.68 13.32 15.36 14 14 C14.99 14.99 15.98 15.98 17 17 C15.68 17 14.36 17 13 17 C13.66 18.65 14.32 20.3 15 22 C9.06 22 3.12 22 -3 22 C1 18 1 18 4 16 C3.67 14.02 3.34 12.04 3 10 C3.33 10.66 3.66 11.32 4 12 C4.66 12 5.32 12 6 12 C6 12.66 6 13.32 6 14 C6.66 13.67 7.32 13.34 8 13 C7.518 12.469 7.036 11.938 6.539 11.391 C5.907 10.684 5.276 9.978 4.625 9.25 C3.999 8.554 3.372 7.858 2.727 7.141 C1.125 5.155 0.035 3.32 -1 1 C-0.67 0.67 -0.34 0.34 0 0 Z " fill="#9B9898" transform="translate(95,170)"/>
<path d="M0 0 C2.543 0.344 4.495 0.65 6.625 2.125 C8 4 8 4 9.438 7.5 C11 11 11 11 13.188 12.625 C13.786 13.079 14.384 13.532 15 14 C15.25 16.688 15.25 16.688 15 19 C11.703 19.363 10.326 19.223 7.543 17.32 C6.766 16.596 5.988 15.871 5.188 15.125 C4.397 14.406 3.607 13.686 2.793 12.945 C1 11 1 11 1 9 C1.66 8.67 2.32 8.34 3 8 C2.505 7.423 2.01 6.845 1.5 6.25 C0 4 0 4 0 0 Z " fill="#ECC79C" transform="translate(73,154)"/>
<path d="M0 0 C0.66 0 1.32 0 2 0 C5 3.462 5 3.462 5 6 C13.193 6.473 13.193 6.473 16.562 4.5 C17.037 4.005 17.511 3.51 18 3 C21 9.75 21 9.75 21 12 C21.66 12 22.32 12 23 12 C23 12.99 23 13.98 23 15 C18.25 14.125 18.25 14.125 16 13 C16 12.34 16 11.68 16 11 C10.852 10.697 8.286 11.22 4 14 C2.68 14 1.36 14 0 14 C0.309 13.423 0.619 12.845 0.938 12.25 C2.245 9.482 3 7.066 3 4 C2.34 4 1.68 4 1 4 C0.67 2.68 0.34 1.36 0 0 Z " fill="#0B700C" transform="translate(87,142)"/>
<path d="M0 0 C0 0.66 0 1.32 0 2 C-0.804 2.392 -1.609 2.784 -2.438 3.188 C-3.283 3.786 -4.129 4.384 -5 5 C-5.083 6.134 -5.165 7.269 -5.25 8.438 C-5.498 9.613 -5.745 10.789 -6 12 C-8.81 13.822 -11.868 14.848 -15 16 C-17.5 17.375 -17.5 17.375 -19 19 C-19.75 22.188 -19.75 22.188 -20 25 C-17.36 25 -14.72 25 -12 25 C-12 25.66 -12 26.32 -12 27 C-14.97 26.67 -17.94 26.34 -21 26 C-21.33 23.03 -21.66 20.06 -22 17 C-21.01 16.67 -20.02 16.34 -19 16 C-19 15.01 -19 14.02 -19 13 C-18.361 12.773 -17.721 12.546 -17.062 12.312 C-15 11 -15 11 -14.25 8.375 C-14.167 7.591 -14.085 6.808 -14 6 C-13.093 6.103 -12.185 6.206 -11.25 6.312 C-8 6 -8 6 -5.75 3.562 C-5.173 2.717 -4.595 1.871 -4 1 C-2 0 -2 0 0 0 Z " fill="#4F4A49" transform="translate(146,155)"/>
<path d="M0 0 C4.217 1.952 7.803 4.639 11.562 7.344 C13.663 8.771 15.701 9.936 18 11 C16.707 13.884 15.341 15.872 13 18 C8.551 16.517 6.254 12.917 4 9 C4 8.34 4 7.68 4 7 C3.01 6.67 2.02 6.34 1 6 C0.67 4.02 0.34 2.04 0 0 Z " fill="#AD1405" transform="translate(110,152)"/>
<path d="M0 0 C2.494 1.204 4.681 2.454 7 4 C8.222 9.049 8.222 9.049 8 12 C6.062 14.5 6.062 14.5 4 16 C-2 13 -2 13 -3.438 10.562 C-5 8 -5 8 -8 6 C-7.073 6.012 -6.146 6.023 -5.191 6.035 C-4.593 6.04 -4.593 6.04 -1.562 6.062 C-0.965 6.068 -0.965 6.068 2.059 6.098 C5 6 5 6 6 5 C3.69 5 1.38 5 -1 5 C-0.67 3.35 -0.34 1.7 0 0 Z " fill="#479C3C" transform="translate(117,167)"/>
<path d="M0 0 C0.66 0.33 1.32 0.66 2 1 C1.67 2.65 1.34 4.3 1 6 C0.34 6 -0.32 6 -1 6 C-0.67 8.64 -0.34 11.28 0 14 C0.33 13.34 0.66 12.68 1 12 C1.66 12 2.32 12 3 12 C3.124 12.639 3.248 13.279 3.375 13.938 C3.581 14.618 3.787 15.299 4 16 C4.66 16.33 5.32 16.66 6 17 C2.305 19.463 0.367 19.39 -4 19 C-5.938 17.625 -5.938 17.625 -7 16 C-7 15.34 -7 14.68 -7 14 C-5.68 13.34 -4.36 12.68 -3 12 C-3.495 11.629 -3.99 11.257 -4.5 10.875 C-6.598 8.253 -6.217 6.262 -6 3 C-5.01 2.67 -4.02 2.34 -3 2 C-3 2.99 -3 3.98 -3 5 C-2.01 5 -1.02 5 0 5 C0 3.35 0 1.7 0 0 Z " fill="#12AE19" transform="translate(98,130)"/>
<path d="M0 0 C2.355 0.312 2.355 0.312 5.188 1 C10.133 2.021 13.191 1.731 18 0 C20.938 -0.125 20.938 -0.125 23 0 C23 0.99 23 1.98 23 3 C22.434 3.205 21.868 3.41 21.285 3.621 C20.552 3.891 19.818 4.16 19.062 4.438 C18.332 4.704 17.601 4.971 16.848 5.246 C15 6 15 6 14 7 C11.881 7.204 9.753 7.314 7.625 7.375 C6.462 7.424 5.3 7.473 4.102 7.523 C1 7 1 7 -0.914 4.477 C-1.272 3.659 -1.631 2.842 -2 2 C-1.34 1.34 -0.68 0.68 0 0 Z " fill="#1F6012" transform="translate(62,185)"/>
<path d="M0 0 C2.033 3.093 2.157 5.133 1.625 8.75 C1.57 9.15 1.57 9.15 1.289 11.172 C1.241 11.474 1.241 11.474 1 13 C0.34 13 -0.32 13 -1 13 C-1 12.01 -1 11.02 -1 10 C-2.32 9.67 -3.64 9.34 -5 9 C-3.35 9 -1.7 9 0 9 C0 8.34 0 7.68 0 7 C-1.32 6.67 -2.64 6.34 -4 6 C-4.165 5.175 -4.165 5.175 -5 1 C-5.307 1.017 -5.307 1.017 -6.863 1.105 C-7.672 1.133 -8.48 1.16 -9.312 1.188 C-9.713 1.205 -9.713 1.205 -11.738 1.293 C-14.479 0.938 -15.292 0.106 -17 -2 C-10.823 -3.977 -5.452 -3.55 0 0 Z " fill="#9B9BA1" transform="translate(89,119)"/>
<path d="M0 0 C3.96 0 7.92 0 12 0 C12 2.64 12 5.28 12 8 C8.04 8 4.08 8 0 8 C0 5.36 0 2.72 0 0 Z " fill="#FA0000" transform="translate(122,200)"/>
<path d="M0 0 C1.65 0 3.3 0 5 0 C6 1 6 1 6.098 4.379 C6.091 5.773 6.079 7.168 6.062 8.562 C6.058 9.273 6.053 9.984 6.049 10.717 C6.037 12.478 6.019 14.239 6 16 C4.02 16 2.04 16 0 16 C0 10.72 0 5.44 0 0 Z " fill="#7A0000" transform="translate(134,200)"/>
<path d="M0 0 C1.65 0 3.3 0 5 0 C5 5.28 5 10.56 5 16 C3.02 16 1.04 16 -1 16 C-1.027 13.521 -1.047 11.042 -1.062 8.562 C-1.067 8.209 -1.067 8.209 -1.088 6.42 C-1.097 4.613 -1.052 2.806 -1 1 C-0.67 0.67 -0.34 0.34 0 0 Z " fill="#7A0000" transform="translate(117,200)"/>
<path d="M0 0 C2.64 0 5.28 0 8 0 C8 2.31 8 4.62 8 7 C6.68 7.33 5.36 7.66 4 8 C4 10.31 4 12.62 4 15 C2.68 15.33 1.36 15.66 0 16 C0 10.72 0 5.44 0 0 Z " fill="#0303AF" transform="translate(160,200)"/>
<path d="M0 0 C2.64 0 5.28 0 8 0 C8 5.28 8 10.56 8 16 C6.68 15.67 5.36 15.34 4 15 C4 12.69 4 10.38 4 8 C2.68 7.67 1.36 7.34 0 7 C0 4.69 0 2.38 0 0 Z " fill="#0202B0" transform="translate(88,200)"/>
<path d="M0 0 C2.64 0 5.28 0 8 0 C8 2.31 8 4.62 8 7 C6.68 7.33 5.36 7.66 4 8 C4 10.31 4 12.62 4 15 C2.68 15.33 1.36 15.66 0 16 C0 10.72 0 5.44 0 0 Z " fill="#1A1A1A" transform="translate(192,200)"/>
<path d="M0 0 C2.64 0 5.28 0 8 0 C8 5.28 8 10.56 8 16 C6.68 15.67 5.36 15.34 4 15 C4 12.69 4 10.38 4 8 C2.68 7.67 1.36 7.34 0 7 C0 4.69 0 2.38 0 0 Z " fill="#1A1A1A" transform="translate(56,200)"/>
<path d="M0 0 C0.99 0 1.98 0 3 0 C2.67 1.65 2.34 3.3 2 5 C2.99 5.33 3.98 5.66 5 6 C5 7.65 5 9.3 5 11 C6.98 10.34 8.96 9.68 11 9 C11 8.01 11 7.02 11 6 C12.65 6 14.3 6 16 6 C16.66 7.32 17.32 8.64 18 10 C12.457 15.061 12.457 15.061 8.309 14.887 C5.824 14.367 3.42 13.764 1 13 C1.66 12.67 2.32 12.34 3 12 C3 10.68 3 9.36 3 8 C2.01 8 1.02 8 0 8 C0 5.36 0 2.72 0 0 Z " fill="#5E5958" transform="translate(82,176)"/>
<path d="M0 0 C0.33 1.32 0.66 2.64 1 4 C-0.98 3.34 -2.96 2.68 -5 2 C-2.125 8.75 -2.125 8.75 -1 11 C-1.99 11 -2.98 11 -4 11 C-3.67 11.99 -3.34 12.98 -3 14 C-6.595 12.341 -9.864 10.423 -13 8 C-13 6.68 -13 5.36 -13 4 C-9.075 0.883 -4.954 0 0 0 Z " fill="#B0855A" transform="translate(78,152)"/>
<path d="M0 0 C0.998 0.023 1.995 0.046 3.023 0.07 C3.525 0.079 3.525 0.079 6.062 0.125 C6.833 0.148 7.604 0.171 8.398 0.195 C8.398 0.525 8.398 0.855 8.398 1.195 C5.098 1.525 1.798 1.855 -1.602 2.195 C-1.602 3.845 -1.602 5.495 -1.602 7.195 C-2.262 7.195 -2.922 7.195 -3.602 7.195 C-3.56 7.958 -3.519 8.722 -3.477 9.508 C-3.602 12.195 -3.602 12.195 -5.602 15.195 C-7.547 15.488 -7.547 15.488 -9.727 15.383 C-10.366 15.352 -10.366 15.352 -13.602 15.195 C-14.602 12.195 -14.602 12.195 -13.602 9.195 C-13.23 9.206 -13.23 9.206 -11.352 9.258 C-8.897 9.202 -6.94 8.888 -4.602 8.195 C-4.643 7.247 -4.684 6.298 -4.727 5.32 C-4.569 1.387 -4.003 0.301 0 0 Z " fill="#6C8957" transform="translate(95.6015625,125.8046875)"/>
<path d="M0 0 C4.605 0.1 7.477 1.008 11.039 3.926 C13.002 6.257 13.243 8.46 13.312 11.438 C12.157 11.933 12.157 11.933 6.312 14.438 C6.972 12.787 7.632 11.137 8.312 9.438 C9.302 9.438 10.293 9.438 11.312 9.438 C10.653 8.447 9.993 7.458 9.312 6.438 C7.148 6.145 7.148 6.145 4.688 6.25 C3.87 6.277 3.053 6.304 2.211 6.332 C1.898 6.349 1.898 6.349 0.312 6.438 C-0.347 5.118 -1.007 3.798 -1.688 2.438 C-3.338 2.438 -4.987 2.438 -6.688 2.438 C-4.238 -0.012 -3.383 0.088 0 0 Z " fill="#269921" transform="translate(100.6875,126.5625)"/>
<path d="M0 0 C1 1 1 1 1.062 4.062 C1.042 5.032 1.021 6.001 1 7 C-2.015 8.005 -4.042 8.103 -7.188 8.062 C-8.089 8.053 -8.99 8.044 -9.918 8.035 C-10.605 8.024 -11.292 8.012 -12 8 C-11.67 7.34 -11.34 6.68 -11 6 C-11.66 5.67 -12.32 5.34 -13 5 C-12.67 4.01 -12.34 3.02 -12 2 C-7.929 0.201 -4.428 -0.309 0 0 Z " fill="#B89E62" transform="translate(101,155)"/>
<path d="M0 0 C1.32 0 2.64 0 4 0 C4.125 5.75 4.125 5.75 3 8 C2.01 8 1.02 8 0 8 C0.33 8.99 0.66 9.98 1 11 C-2.73 13.034 -4.669 14 -9 14 C-9 13.34 -9 12.68 -9 12 C-8.01 12 -7.02 12 -6 12 C-6.062 10.907 -6.124 9.814 -6.188 8.688 C-6 5 -6 5 -4.688 3.062 C-3 2 -3 2 0 2 C0 1.34 0 0.68 0 0 Z " fill="#575656" transform="translate(146,155)"/>
<path d="M0 0 C6.847 -0.841 6.847 -0.841 10.09 1.523 C15 6.444 15 6.444 15 8 C10.38 8.33 5.76 8.66 1 9 C1 8.34 1 7.68 1 7 C1.66 7 2.32 7 3 7 C3 6.34 3 5.68 3 5 C2.34 5 1.68 5 1 5 C0.835 4.175 0.835 4.175 0 0 Z " fill="#10AF19" transform="translate(61,144)"/>
<path d="M0 0 C2.938 0.75 2.938 0.75 6 2 C6.875 4.125 6.875 4.125 7 6 C7.619 6.124 8.237 6.248 8.875 6.375 C11 7 11 7 13 9 C13 9.99 13 10.98 13 12 C13.309 12.144 13.309 12.144 14.875 12.875 C17 14 17 14 19 16 C18.34 16 17.68 16 17 16 C17 16.66 17 17.32 17 18 C15.68 17.67 14.36 17.34 13 17 C13 17.66 13 18.32 13 19 C12.34 19 11.68 19 11 19 C10.121 12.848 10.121 12.848 10 11 C10.33 10.67 10.66 10.34 11 10 C10.34 9.67 9.68 9.34 9 9 C9 9.99 9 10.98 9 12 C8.34 12 7.68 12 7 12 C7 10.68 7 9.36 7 8 C6.01 8 5.02 8 4 8 C3.67 7.34 3.34 6.68 3 6 C3.66 5.67 4.32 5.34 5 5 C4.588 4.773 4.588 4.773 2.5 3.625 C1.675 3.089 0.85 2.553 0 2 C0 1.34 0 0.68 0 0 Z " fill="#BDBDB3" transform="translate(102,168)"/>
<path d="M0 0 C2.525 1.082 4.035 2.038 5.938 4.062 C8.308 6.29 9.817 6.646 13 7 C12.979 6.196 12.959 5.391 12.938 4.562 C13 2 13 2 14 1 C16 0.959 18 0.957 20 1 C18.68 1.33 17.36 1.66 16 2 C15.438 3.938 15.438 3.938 15 6 C15.33 6.33 15.66 6.66 16 7 C16 7.66 16 8.32 16 9 C16.66 9.33 17.32 9.66 18 10 C18.33 9.34 18.66 8.68 19 8 C20.5 9.25 20.5 9.25 22 11 C22 12.32 22 13.64 22 15 C18.412 13.667 15.164 12.169 12 10 C12 9.34 12 8.68 12 8 C10.02 8.33 8.04 8.66 6 9 C5.67 8.01 5.34 7.02 5 6 C4.34 5.691 3.68 5.381 3 5.062 C1 4 1 4 0.25 1.875 C0.168 1.256 0.085 0.637 0 0 Z " fill="#877D73" transform="translate(75,166)"/>
<path d="M0 0 C0.825 0.165 0.825 0.165 5 1 C5 1.66 5 2.32 5 3 C5.66 3 6.32 3 7 3 C8.151 5.248 9.296 7.498 10.438 9.75 C10.763 10.384 11.088 11.018 11.424 11.672 C12.971 14.734 14.392 17.606 15 21 C14.34 21 13.68 21 13 21 C13 20.01 13 19.02 13 18 C12.34 18 11.68 18 11 18 C10.01 15.36 9.02 12.72 8 10 C7.01 10 6.02 10 5 10 C4.67 8.68 4.34 7.36 4 6 C3.34 6 2.68 6 2 6 C1.67 6.99 1.34 7.98 1 9 C-0.478 6.043 -0.06 3.258 0 0 Z " fill="#2FBE28" transform="translate(97,136)"/>
<path d="M0 0 C0.66 0 1.32 0 2 0 C2 0.66 2 1.32 2 2 C2.332 2.001 2.332 2.001 4.012 2.008 C11.036 2.315 11.036 2.315 13.777 4.262 C16.456 7.345 17 8.866 17 13 C14.36 13 11.72 13 9 13 C9.66 12.34 10.32 11.68 11 11 C10.34 9.02 9.68 7.04 9 5 C8.443 5.021 8.443 5.021 5.625 5.125 C2 5 2 5 0 3 C0 2.01 0 1.02 0 0 Z " fill="#D1B07F" transform="translate(123,179)"/>
<path d="M0 0 C0 0.99 0 1.98 0 3 C-0.33 3.165 -0.33 3.165 -2 4 C-2.625 6.062 -2.625 6.062 -3 8 C-4.031 8.144 -5.062 8.289 -6.125 8.438 C-9.425 8.917 -12.713 9.439 -16 10 C-16 9.34 -16 8.68 -16 8 C-14.21 7.056 -12.419 6.112 -10.629 5.168 C-9 4 -9 4 -8 1 C-4.685 -0.745 -3.634 -1.211 0 0 Z " fill="#695F60" transform="translate(200,132)"/>
<path d="M0 0 C0.33 0 0.66 0 1 0 C1.015 0.626 1.029 1.251 1.044 1.896 C1.119 4.723 1.215 7.549 1.312 10.375 C1.335 11.36 1.358 12.345 1.381 13.359 C1.416 14.3 1.452 15.241 1.488 16.211 C1.514 17.08 1.541 17.95 1.568 18.845 C2 21 2 21 5 23 C6.739 23.349 8.492 23.634 10.25 23.875 C15.333 24.712 18.734 26.156 23 29 C22.01 29.66 21.02 30.32 20 31 C19.093 30.361 18.185 29.721 17.25 29.062 C12.201 26.117 6.717 26.188 1 26 C-0.02 22.941 -0.115 20.876 -0.098 17.676 C-0.094 16.648 -0.091 15.62 -0.088 14.561 C-0.08 13.489 -0.071 12.417 -0.062 11.312 C-0.058 10.229 -0.053 9.146 -0.049 8.029 C-0.037 5.353 -0.021 2.676 0 0 Z " fill="#A50912" transform="translate(91,100)"/>
<path d="M0 0 C1.65 0.33 3.3 0.66 5 1 C4.319 1.536 3.639 2.072 2.938 2.625 C1.968 3.409 0.999 4.192 0 5 C-0.624 5.436 -1.248 5.871 -1.891 6.32 C-6.786 9.962 -6.786 9.962 -7.445 13.164 C-7.438 15.375 -7.438 15.375 -7 19 C-7.99 19 -8.98 19 -10 19 C-10.33 19.66 -10.66 20.32 -11 21 C-13 19 -13 19 -13.125 16.375 C-11.68 12.04 -9.302 9.98 -6.012 6.902 C-3.759 4.772 -1.859 2.478 0 0 Z " fill="#476B34" transform="translate(65,134)"/>
<path d="M0 0 C0.33 0.66 0.66 1.32 1 2 C3.562 2.625 3.562 2.625 6 3 C6 3.99 6 4.98 6 6 C7.98 6 9.96 6 12 6 C12.66 4.68 13.32 3.36 14 2 C14 4.621 13.687 6.509 13 9 C15.31 9 17.62 9 20 9 C19.67 9.66 19.34 10.32 19 11 C17.583 11.027 16.167 11.047 14.75 11.062 C14.356 11.068 14.356 11.068 12.359 11.098 C8.311 10.93 6.471 10.394 3.312 7.75 C0.976 4.971 0.304 3.552 0 0 Z " fill="#1E8E1B" transform="translate(103,163)"/>
<path d="M0 0 C2.64 0 5.28 0 8 0 C8 2.64 8 5.28 8 8 C4.7 8 1.4 8 -2 8 C-1.34 7.67 -0.68 7.34 0 7 C0 4.69 0 2.38 0 0 Z " fill="#272727" transform="translate(228,200)"/>
<path d="M0 0 C2.64 0 5.28 0 8 0 C8 2.31 8 4.62 8 7 C8.66 7.33 9.32 7.66 10 8 C6.7 8 3.4 8 0 8 C0 5.36 0 2.72 0 0 Z " fill="#272727" transform="translate(20,200)"/>
<path d="M0 0 C0.66 0.33 1.32 0.66 2 1 C2 1.66 2 2.32 2 3 C3.155 2.835 3.155 2.835 9 2 C9.99 4.64 10.98 7.28 12 10 C8.527 11.158 5.639 11.069 2 11 C2.99 10.67 3.98 10.34 5 10 C4.835 9.175 4.835 9.175 4 5 C2.35 4.67 0.7 4.34 -1 4 C-1.33 3.01 -1.66 2.02 -2 1 C-1.34 0.67 -0.68 0.34 0 0 Z " fill="#FAE1C7" transform="translate(123,181)"/>
<path d="M0 0 C0.031 0.309 0.031 0.309 0.188 1.875 C1 4 1 4 3.188 5 C3.652 5.165 3.652 5.165 6 6 C10.034 8.373 11.951 9.902 14 14 C16.625 15.25 16.625 15.25 19 16 C19 16.66 19 17.32 19 18 C19.66 18.33 20.32 18.66 21 19 C15.536 18.393 15.536 18.393 13.125 16.625 C12 15 12 15 12 12 C10.68 12 9.36 12 8 12 C8 11.01 8 10.02 8 9 C7.536 9.052 7.536 9.052 5.188 9.312 C2 9 2 9 0.062 6.75 C-1.057 3.854 -1.148 2.818 0 0 Z " fill="#CE9C69" transform="translate(108,140)"/>
<path d="M0 0 C0.808 0.287 1.616 0.575 2.449 0.871 C2.757 0.985 2.757 0.985 4.312 1.562 C4.312 2.882 4.312 4.203 4.312 5.562 C5.302 5.562 6.293 5.562 7.312 5.562 C7.312 6.222 7.312 6.882 7.312 7.562 C5.332 7.562 3.352 7.562 1.312 7.562 C1.972 9.543 2.632 11.523 3.312 13.562 C2.653 13.562 1.993 13.562 1.312 13.562 C1.312 12.903 1.312 12.243 1.312 11.562 C0.653 11.562 -0.007 11.562 -0.688 11.562 C-1.017 9.583 -1.347 7.602 -1.688 5.562 C-1.028 5.562 -0.368 5.562 0.312 5.562 C0.312 4.903 0.312 4.243 0.312 3.562 C-1.007 3.562 -2.328 3.562 -3.688 3.562 C-4.017 2.903 -4.347 2.243 -4.688 1.562 C-5.677 0.903 -6.668 0.243 -7.688 -0.438 C-4.209 -1.597 -3.345 -1.212 0 0 Z " fill="#66625E" transform="translate(75.6875,118.4375)"/>
<path d="M0 0 C0.66 0.33 1.32 0.66 2 1 C0.875 3 0.875 3 -1 5 C-4.188 5.25 -4.188 5.25 -7 5 C-7.33 6.65 -7.66 8.3 -8 10 C-9.32 10.33 -10.64 10.66 -12 11 C-12 11.99 -12 12.98 -12 14 C-12.99 14.33 -13.98 14.66 -15 15 C-15 10.319 -14.004 9.379 -11 6 C-11.66 5.67 -12.32 5.34 -13 5 C-12.34 5 -11.68 5 -11 5 C-11 4.34 -11 3.68 -11 3 C-10.29 2.867 -9.579 2.734 -8.848 2.598 C-7.929 2.421 -7.009 2.244 -6.062 2.062 C-5.146 1.888 -4.229 1.714 -3.285 1.535 C-1 1 -1 1 0 0 Z " fill="#716360" transform="translate(139,157)"/>
<path d="M0 0 C0.289 0.639 0.578 1.279 0.875 1.938 C2 4 2 4 4 5 C5.625 6.438 5.625 6.438 7 8 C7 8.66 7 9.32 7 10 C7.66 10 8.32 10 9 10 C8.505 9.237 8.01 8.474 7.5 7.688 C6 5 6 5 6 2 C7.875 2.188 7.875 2.188 10 3 C11.375 5.375 11.375 5.375 12 8 C11.67 8.495 11.67 8.495 10 11 C6.875 11.188 6.875 11.188 4 11 C4 10.01 4 9.02 4 8 C2.35 7.67 0.7 7.34 -1 7 C-0.67 4.69 -0.34 2.38 0 0 Z " fill="#48B23C" transform="translate(105,158)"/>
<path d="M0 0 C-0.25 2.375 -0.25 2.375 -1 5 C-3.948 6.947 -6.265 7.227 -9.75 7.125 C-10.549 7.107 -11.348 7.089 -12.172 7.07 C-12.775 7.047 -13.378 7.024 -14 7 C-13.67 5.68 -13.34 4.36 -13 3 C-11.907 2.691 -10.814 2.381 -9.688 2.062 C-2.529 0 -2.529 0 0 0 Z " fill="#B08450" transform="translate(81,179)"/>
<path d="M0 0 C0.985 0.009 1.97 0.018 2.984 0.027 C3.358 0.033 3.358 0.033 5.25 0.062 C5.25 0.393 5.25 0.722 5.25 1.062 C4.26 1.289 3.27 1.516 2.25 1.75 C-1.644 2.834 -4.649 4.752 -7.953 7.039 C-9.75 8.062 -9.75 8.062 -12.75 8.062 C-12.75 7.403 -12.75 6.743 -12.75 6.062 C-13.74 5.732 -14.73 5.403 -15.75 5.062 C-15.42 4.403 -15.09 3.743 -14.75 3.062 C-14.255 3.393 -14.255 3.393 -11.75 5.062 C-11.502 4.423 -11.255 3.784 -11 3.125 C-9.75 1.062 -9.75 1.062 -8.031 0.438 C-5.319 -0.008 -2.748 -0.033 0 0 Z " fill="#28781F" transform="translate(70.75,151.9375)"/>
<path d="M0 0 C1.98 0 3.96 0 6 0 C6 0.66 6 1.32 6 2 C4.68 2 3.36 2 2 2 C2.33 2.99 2.66 3.98 3 5 C5.31 5.33 7.62 5.66 10 6 C10 6.33 10 6.66 10 7 C7.541 7.054 5.084 7.094 2.625 7.125 C2.276 7.133 2.276 7.133 0.508 7.176 C-1.329 7.193 -3.166 7.103 -5 7 C-5.66 6.34 -6.32 5.68 -7 5 C-7 4.01 -7 3.02 -7 2 C-4.69 2 -2.38 2 0 2 C0 1.34 0 0.68 0 0 Z " fill="#F4E5DA" transform="translate(115,185)"/>
<path d="M0 0 C0.99 0 1.98 0 3 0 C3 0.66 3 1.32 3 2 C3.66 2.33 4.32 2.66 5 3 C4.67 3.66 4.34 4.32 4 5 C4.66 5 5.32 5 6 5 C6 5.66 6 6.32 6 7 C5.34 7 4.68 7 4 7 C3.691 7.619 3.381 8.238 3.062 8.875 C2.375 10.25 1.688 11.625 1 13 C-0.32 12.34 -1.64 11.68 -3 11 C-3 10.34 -3 9.68 -3 9 C-2.01 9 -1.02 9 0 9 C-0.186 7.701 -0.371 6.401 -0.562 5.062 C-0.879 2.848 -0.879 2.848 -1 1 C-0.67 0.67 -0.34 0.34 0 0 Z " fill="#0E760E" transform="translate(58,144)"/>
<path d="M0 0 C0.66 0.33 1.32 0.66 2 1 C-0.49 3.667 -2.634 5.557 -6 7 C-6.201 10.625 -5.858 12.865 -4 16 C-6.31 16 -8.62 16 -11 16 C-11.438 12.875 -11.438 12.875 -11 9 C-8.97 6.573 -6.574 4.819 -4 3 C-3.196 2.381 -2.391 1.762 -1.562 1.125 C-1.047 0.754 -0.531 0.382 0 0 Z " fill="#677951" transform="translate(67,176)"/>
<path d="M0 0 C0.351 0.846 0.701 1.691 1.062 2.562 C3.126 6.224 5.382 8.508 8.477 11.289 C10.171 13.192 10.598 14.514 11 17 C10.01 16.67 9.02 16.34 8 16 C8 15.34 8 14.68 8 14 C6.35 14 4.7 14 3 14 C3.041 13.216 3.082 12.433 3.125 11.625 C3 9 3 9 1 7 C-0.32 7 -1.64 7 -3 7 C-3.33 5.02 -3.66 3.04 -4 1 C-2 0 -2 0 0 0 Z " fill="#666666" transform="translate(93,168)"/>
<path d="M0 0 C3.257 0.418 4.634 0.634 7 3 C7.125 5.625 7.125 5.625 7 8 C1.375 8.25 1.375 8.25 -2 6 C-1.125 1.125 -1.125 1.125 0 0 Z " fill="#E3B087" transform="translate(111,138)"/>
<path d="M0 0 C0.33 0.99 0.66 1.98 1 3 C2.875 4.062 2.875 4.062 5 5 C5.99 5.66 6.98 6.32 8 7 C8.33 6.34 8.66 5.68 9 5 C10 6 10 6 10.062 8.562 C10.042 9.367 10.021 10.171 10 11 C6.908 11.292 5.402 11.262 2.762 9.539 C2.077 8.907 1.393 8.276 0.688 7.625 C-0.01 6.999 -0.707 6.372 -1.426 5.727 C-3 4 -3 4 -3 2 C-2.01 2 -1.02 2 0 2 C0 1.34 0 0.68 0 0 Z " fill="#E5B587" transform="translate(78,162)"/>
<path d="M0 0 C0.66 0.33 1.32 0.66 2 1 C1.67 2.65 1.34 4.3 1 6 C0.34 6 -0.32 6 -1 6 C-0.794 7.114 -0.588 8.227 -0.375 9.375 C-0.251 10.571 -0.127 11.768 0 13 C-0.66 13.66 -1.32 14.32 -2 15 C-2.66 14.34 -3.32 13.68 -4 13 C-4 12.34 -4 11.68 -4 11 C-4.66 10.34 -5.32 9.68 -6 9 C-6.125 5.875 -6.125 5.875 -6 3 C-5.01 2.67 -4.02 2.34 -3 2 C-3 2.99 -3 3.98 -3 5 C-2.01 5 -1.02 5 0 5 C0 3.35 0 1.7 0 0 Z " fill="#20BD20" transform="translate(98,130)"/>
<path d="M0 0 C0.66 0 1.32 0 2 0 C2 0.66 2 1.32 2 2 C4.906 3.257 6.796 4 10 4 C10 4.66 10 5.32 10 6 C11.98 6 13.96 6 16 6 C14.938 7.562 14.938 7.562 13 9 C9.696 8.768 6.979 8.489 4 7 C4 6.34 4 5.68 4 5 C2.68 4.34 1.36 3.68 0 3 C0 2.01 0 1.02 0 0 Z " fill="#D2AB8D" transform="translate(123,151)"/>
<path d="M0 0 C-1.32 1.65 -2.64 3.3 -4 5 C-3.67 5.66 -3.34 6.32 -3 7 C-4.32 7.33 -5.64 7.66 -7 8 C-7.33 9.65 -7.66 11.3 -8 13 C-8.99 13.33 -9.98 13.66 -11 14 C-11.33 13.01 -11.66 12.02 -12 11 C-11.01 11 -10.02 11 -9 11 C-9.041 10.093 -9.083 9.185 -9.125 8.25 C-9.002 5.063 -8.829 3.56 -7 1 C-4.045 -1.002 -3.504 -1.168 0 0 Z " fill="#5B4F4E" transform="translate(158,152)"/>
<path d="M0 0 C2.565 2.565 2.54 4.477 3 8 C3.66 8 4.32 8 5 8 C5 8.99 5 9.98 5 11 C0.25 10.125 0.25 10.125 -2 9 C-2 8.34 -2 7.68 -2 7 C-3.65 6.67 -5.3 6.34 -7 6 C-3.375 3 -3.375 3 0 3 C0 2.01 0 1.02 0 0 Z " fill="#1DB01E" transform="translate(105,146)"/>
<path d="M0 0 C-0.626 0.28 -1.253 0.559 -1.898 0.848 C-8.494 4.083 -8.494 4.083 -10.043 6.891 C-10.562 8.812 -10.562 8.812 -11 12 C-8.36 12 -5.72 12 -3 12 C-3 12.66 -3 13.32 -3 14 C-5.97 13.67 -8.94 13.34 -12 13 C-12.33 10.03 -12.66 7.06 -13 4 C-12.01 3.67 -11.02 3.34 -10 3 C-10 2.34 -10 1.68 -10 1 C-6.161 -0.483 -3.938 -1.224 0 0 Z " fill="#6D4C3F" transform="translate(137,168)"/>
<path d="M0 0 C1.294 0.451 2.585 0.911 3.875 1.375 C4.594 1.63 5.314 1.885 6.055 2.148 C8 3 8 3 10 5 C9.01 5.66 8.02 6.32 7 7 C7.495 7.433 7.99 7.866 8.5 8.312 C10 10 10 10 10 13 C9.34 13 8.68 13 8 13 C2.469 7.064 2.469 7.064 2 3 C1.34 3 0.68 3 0 3 C0 2.01 0 1.02 0 0 Z " fill="#1E6F12" transform="translate(104,155)"/>
<path d="M0 0 C1.98 0 3.96 0 6 0 C6.042 2.333 6.041 4.667 6 7 C5 8 5 8 2.438 8.062 C1.633 8.042 0.829 8.021 0 8 C0 5.36 0 2.72 0 0 Z " fill="#3E0101" transform="translate(134,216)"/>
<path d="M0 0 C1.98 0 3.96 0 6 0 C6 2.64 6 5.28 6 8 C4.334 8.043 2.666 8.041 1 8 C0 7 0 7 -0.062 3.438 C-0.042 2.303 -0.021 1.169 0 0 Z " fill="#3E0101" transform="translate(116,216)"/>
<path d="M0 0 C1.666 -0.043 3.334 -0.041 5 0 C6 1 6 1 6.062 4.562 C6.042 5.697 6.021 6.831 6 8 C4.02 8 2.04 8 0 8 C0 5.36 0 2.72 0 0 Z " fill="#B40101" transform="translate(134,200)"/>
<path d="M0 0 C0.402 0.01 0.402 0.01 2.438 0.062 C2.438 2.702 2.438 5.343 2.438 8.062 C0.457 8.062 -1.522 8.062 -3.562 8.062 C-3.605 5.73 -3.603 3.395 -3.562 1.062 C-2.562 0.062 -2.562 0.062 0 0 Z " fill="#B40101" transform="translate(119.5625,199.9375)"/>
<path d="M0 0 C0.99 0.33 1.98 0.66 3 1 C2.67 1.165 2.67 1.165 1 2 C1.33 4.64 1.66 7.28 2 10 C0.68 9.34 -0.64 8.68 -2 8 C-2.33 8.495 -2.33 8.495 -4 11 C-4.66 11 -5.32 11 -6 11 C-5.443 7.656 -4.648 4.967 -3 2 C-2.01 2.33 -1.02 2.66 0 3 C0 2.01 0 1.02 0 0 Z " fill="#8B8A8A" transform="translate(111,177)"/>
<path d="M0 0 C0 0.99 0 1.98 0 3 C-1.247 3.508 -2.497 4.006 -3.75 4.5 C-4.446 4.778 -5.142 5.057 -5.859 5.344 C-8 6 -8 6 -12 6 C-12 5.34 -12 4.68 -12 4 C-12.66 3.67 -13.32 3.34 -14 3 C-4.59 -0.444 -4.59 -0.444 0 0 Z " fill="#196E14" transform="translate(85,185)"/>
<path d="M0 0 C-0.33 1.32 -0.66 2.64 -1 4 C-0.34 3.67 0.32 3.34 1 3 C1 4.98 1 6.96 1 9 C-1.843 9.231 -3.461 9.359 -5.875 7.75 C-7 6 -7 6 -6.875 3.938 C-5.362 0.588 -3.529 0 0 0 Z " fill="#7C7C84" transform="translate(70,126)"/>
<path d="M0 0 C0.33 3.3 0.66 6.6 1 10 C-2.904 8.048 -5.038 6.126 -8 3 C-2.25 0 -2.25 0 0 0 Z " fill="#1403A3" transform="translate(193,141)"/>
<path d="M0 0 C1.32 0 2.64 0 4 0 C4.268 0.804 4.536 1.609 4.812 2.438 C5.204 3.283 5.596 4.129 6 5 C6.99 5.33 7.98 5.66 9 6 C9 6.66 9 7.32 9 8 C5.04 8 1.08 8 -3 8 C-3 7.34 -3 6.68 -3 6 C-1.02 6 0.96 6 3 6 C3 5.34 3 4.68 3 4 C2.01 4 1.02 4 0 4 C0 2.68 0 1.36 0 0 Z " fill="#979593" transform="translate(80,120)"/>
<path d="M0 0 C0.33 1.32 0.66 2.64 1 4 C-0.98 3.34 -2.96 2.68 -5 2 C-2.125 8.75 -2.125 8.75 -1 11 C-1.99 11 -2.98 11 -4 11 C-3.67 11.99 -3.34 12.98 -3 14 C-3.66 14 -4.32 14 -5 14 C-5.155 13.433 -5.155 13.433 -5.938 10.562 C-7 7 -7 7 -8 6 C-8.041 4.334 -8.043 2.666 -8 1 C-2.25 0 -2.25 0 0 0 Z " fill="#B09A66" transform="translate(78,152)"/>
<path d="M0 0 C0.66 0.33 1.32 0.66 2 1 C-0.219 3.908 -1.93 5.953 -5 8 C-5.33 8.495 -5.33 8.495 -7 11 C-10 7.375 -10 7.375 -10 4 C-9.362 3.795 -8.724 3.59 -8.066 3.379 C-7.24 3.109 -6.414 2.84 -5.562 2.562 C-4.739 2.296 -3.915 2.029 -3.066 1.754 C-1 1 -1 1 0 0 Z " fill="#12650C" transform="translate(89,150)"/>
<path d="M0 0 C0.33 0.66 0.66 1.32 1 2 C1.361 1.948 1.361 1.948 3.188 1.688 C7.204 2.134 8.344 4.02 11 7 C12.098 8.111 13.202 9.215 14.312 10.312 C15.199 11.199 16.086 12.086 17 13 C16.67 13.66 16.34 14.32 16 15 C15.196 14.113 14.391 13.226 13.562 12.312 C10.376 9.072 6.941 7.203 2.855 5.273 C1 4 1 4 0.238 1.852 C0.16 1.241 0.081 0.63 0 0 Z " fill="#98795D" transform="translate(57,158)"/>
<path d="M0 0 C3.3 0.33 6.6 0.66 10 1 C10 1.99 10 2.98 10 4 C6.7 4.33 3.4 4.66 0 5 C0 3.35 0 1.7 0 0 Z " fill="#B0875F" transform="translate(78,128)"/>
<path d="M0 0 C4.428 1.392 7.031 3.437 10 7 C10 8.32 10 9.64 10 11 C8.845 11.495 8.845 11.495 3 14 C3.66 12.35 4.32 10.7 5 9 C5.99 9 6.98 9 8 9 C2.714 2.571 2.714 2.571 0 0 Z " fill="#65A54A" transform="translate(104,127)"/>
<path d="M0 0 C0.66 0 1.32 0 2 0 C2.248 0.619 2.495 1.238 2.75 1.875 C4.206 4.351 5.378 4.951 8 6 C8 7.65 8 9.3 8 11 C6.661 10.05 5.329 9.089 4 8.125 C3.257 7.591 2.515 7.058 1.75 6.508 C1.172 6.01 0.595 5.513 0 5 C0 4.34 0 3.68 0 3 C-0.66 2.67 -1.32 2.34 -2 2 C-1.34 1.34 -0.68 0.68 0 0 Z " fill="#7E572B" transform="translate(63,157)"/>
<path d="M0 0 C3.775 1.258 4.198 2.559 6 6 C6.33 6.99 6.66 7.98 7 9 C7.99 9.33 8.98 9.66 10 10 C10 10.66 10 11.32 10 12 C10.66 12.33 11.32 12.66 12 13 C11.67 13.165 11.67 13.165 10 14 C6.333 10.333 2.667 6.667 -1 3 C-0.67 2.01 -0.34 1.02 0 0 Z " fill="#A3A2A2" transform="translate(95,170)"/>
<path d="M0 0 C1.155 0.495 1.155 0.495 7 3 C6.01 3.66 5.02 4.32 4 5 C3.812 7.625 3.812 7.625 4 10 C3.01 10.33 2.02 10.66 1 11 C1 10.01 1 9.02 1 8 C-0.32 8.33 -1.64 8.66 -3 9 C-2.34 8.01 -1.68 7.02 -1 6 C-0.01 6 0.98 6 2 6 C2 5.01 2 4.02 2 3 C0.35 3 -1.3 3 -3 3 C-2.01 2.01 -1.02 1.02 0 0 Z " fill="#6D6835" transform="translate(74,172)"/>
<path d="M0 0 C5.538 -0.369 5.538 -0.369 7.875 1.5 C8.246 1.995 8.618 2.49 9 3 C5.366 5.326 2.229 5.163 -2 5 C-2 4.01 -2 3.02 -2 2 C-1.34 2 -0.68 2 0 2 C0 1.34 0 0.68 0 0 Z " fill="#0B6309" transform="translate(75,139)"/>
<path d="M0 0 C0.33 0.99 0.66 1.98 1 3 C0.01 3 -0.98 3 -2 3 C-1.67 3.99 -1.34 4.98 -1 6 C-4.73 8.034 -6.669 9 -11 9 C-11 8.34 -11 7.68 -11 7 C-10.01 7 -9.02 7 -8 7 C-7.67 5.68 -7.34 4.36 -7 3 C-6.67 3.66 -6.34 4.32 -6 5 C-5.34 5 -4.68 5 -4 5 C-4 4.01 -4 3.02 -4 2 C-2.68 1.34 -1.36 0.68 0 0 Z " fill="#756A6A" transform="translate(148,160)"/>
<path d="M0 0 C0.99 0.165 0.99 0.165 6 1 C6 1.99 6 2.98 6 4 C5.402 4.103 4.804 4.206 4.188 4.312 C2 5 2 5 0.5 6.625 C0.005 7.079 -0.49 7.532 -1 8 C-3.188 7.688 -3.188 7.688 -5 7 C-4.68 6.887 -4.68 6.887 -3.062 6.312 C-1 5 -1 5 -0.25 2.375 C-0.167 1.591 -0.085 0.808 0 0 Z " fill="#585757" transform="translate(132,161)"/>
<path d="M0 0 C0 0.66 0 1.32 0 2 C-1.456 2.671 -2.915 3.337 -4.375 4 C-5.187 4.371 -5.999 4.743 -6.836 5.125 C-9 6 -9 6 -11 6 C-11 5.01 -11 4.02 -11 3 C-9.736 2.3 -8.463 1.616 -7.188 0.938 C-6.48 0.555 -5.772 0.172 -5.043 -0.223 C-3 -1 -3 -1 0 0 Z " fill="#7B706F" transform="translate(177,143)"/>
<path d="M0 0 C0 0.99 0 1.98 0 3 C-4.29 3 -8.58 3 -13 3 C-12.67 2.34 -12.34 1.68 -12 1 C-8.016 -0.172 -4.126 -0.081 0 0 Z " fill="#B20603" transform="translate(91,189)"/>
<path d="M0 0 C0.99 0 1.98 0 3 0 C2.67 1.65 2.34 3.3 2 5 C2.99 5.33 3.98 5.66 5 6 C4.67 8.31 4.34 10.62 4 13 C3.01 12.67 2.02 12.34 1 12 C1.66 12 2.32 12 3 12 C3 10.68 3 9.36 3 8 C2.01 8 1.02 8 0 8 C0 5.36 0 2.72 0 0 Z " fill="#4E5445" transform="translate(82,176)"/>
<path d="M0 0 C2 2 2 2 2 5 C3.65 5 5.3 5 7 5 C6.01 6.32 5.02 7.64 4 9 C0.347 7.75 -0.781 7.329 -3 4 C-2.34 4 -1.68 4 -1 4 C-0.67 2.68 -0.34 1.36 0 0 Z " fill="#836139" transform="translate(85,159)"/>
<path d="M0 0 C4.021 4.617 9 10.671 9 17 C8.34 17 7.68 17 7 17 C7 16.01 7 15.02 7 14 C6.34 14 5.68 14 5 14 C4.807 13.434 4.613 12.868 4.414 12.285 C4.154 11.552 3.893 10.818 3.625 10.062 C3.37 9.332 3.115 8.601 2.852 7.848 C2 6 2 6 0 5 C0 3.35 0 1.7 0 0 Z " fill="#78C265" transform="translate(103,140)"/>
<path d="M0 0 C0 0.66 0 1.32 0 2 C-1.32 2 -2.64 2 -4 2 C-4 3.32 -4 4.64 -4 6 C-6.31 6.33 -8.62 6.66 -11 7 C-8.684 1.393 -8.684 1.393 -5.5 -0.438 C-3 -1 -3 -1 0 0 Z " fill="#958082" transform="translate(200,132)"/>
<path d="M0 0 C1.65 0.33 3.3 0.66 5 1 C4.67 3.97 4.34 6.94 4 10 C3.34 10 2.68 10 2 10 C2 9.01 2 8.02 2 7 C0.68 6.67 -0.64 6.34 -2 6 C-0.35 6 1.3 6 3 6 C3 5.34 3 4.68 3 4 C2.01 4 1.02 4 0 4 C0 2.68 0 1.36 0 0 Z " fill="#C8BEB5" transform="translate(86,122)"/>
<path d="M0 0 C2.31 1.65 4.62 3.3 7 5 C6.01 5.33 5.02 5.66 4 6 C4 6.66 4 7.32 4 8 C2.35 8 0.7 8 -1 8 C-0.67 6.68 -0.34 5.36 0 4 C-0.66 4 -1.32 4 -2 4 C-2 3.34 -2 2.68 -2 2 C-1.34 2 -0.68 2 0 2 C0 1.34 0 0.68 0 0 Z " fill="#706F6F" transform="translate(89,176)"/>
<path d="M0 0 C0 0.99 0 1.98 0 3 C-1.266 3.532 -2.538 4.05 -3.812 4.562 C-4.52 4.853 -5.228 5.143 -5.957 5.441 C-8 6 -8 6 -11 5 C-10.34 5 -9.68 5 -9 5 C-8.711 4.361 -8.422 3.721 -8.125 3.062 C-6.145 -0.568 -3.816 -0.1 0 0 Z " fill="#1DA51C" transform="translate(76,175)"/>
<path d="M0 0 C1.65 1.32 3.3 2.64 5 4 C2.625 5.562 2.625 5.562 0 7 C-0.66 6.67 -1.32 6.34 -2 6 C-2 5.34 -2 4.68 -2 4 C-3.65 4 -5.3 4 -7 4 C-7 3.67 -7 3.34 -7 3 C-5.02 3 -3.04 3 -1 3 C-0.67 2.01 -0.34 1.02 0 0 Z " fill="#1D961A" transform="translate(91,138)"/>
<path d="M0 0 C0.99 0.66 1.98 1.32 3 2 C3 2.66 3 3.32 3 4 C2.01 4.33 1.02 4.66 0 5 C-1.012 6.659 -2.013 8.326 -3 10 C-3.66 10 -4.32 10 -5 10 C-4.494 7.831 -4 6 -3 4 C-3.66 4 -4.32 4 -5 4 C-5 3.34 -5 2.68 -5 2 C-4.175 2.165 -4.175 2.165 0 3 C0 2.01 0 1.02 0 0 Z " fill="#279B21" transform="translate(109,132)"/>
<path d="M0 0 C1.32 0 2.64 0 4 0 C4 2.31 4 4.62 4 7 C2.68 7.33 1.36 7.66 0 8 C0 5.36 0 2.72 0 0 Z " fill="#030377" transform="translate(160,208)"/>
<path d="M0 0 C1.32 0 2.64 0 4 0 C4 2.64 4 5.28 4 8 C2.68 7.67 1.36 7.34 0 7 C0 4.69 0 2.38 0 0 Z " fill="#030377" transform="translate(92,208)"/>
<path d="M0 0 C1.32 0 2.64 0 4 0 C4 2.31 4 4.62 4 7 C2.68 7.33 1.36 7.66 0 8 C0 5.36 0 2.72 0 0 Z " fill="#020278" transform="translate(164,200)"/>
<path d="M0 0 C1.32 0 2.64 0 4 0 C4 2.64 4 5.28 4 8 C2.68 7.67 1.36 7.34 0 7 C0 4.69 0 2.38 0 0 Z " fill="#020278" transform="translate(88,200)"/>
<path d="M0 0 C0.99 1.32 1.98 2.64 3 4 C3 2.68 3 1.36 3 0 C4.32 0.33 5.64 0.66 7 1 C6.67 2.65 6.34 4.3 6 6 C2 6 2 6 -1 4 C-0.67 2.68 -0.34 1.36 0 0 Z " fill="#41B838" transform="translate(116,176)"/>
<path d="M0 0 C6.869 -0.844 6.869 -0.844 10.09 1.559 C11.816 3.313 13.444 5.094 15 7 C14.01 7 13.02 7 12 7 C11 6 10 5 9 4 C5.616 2.351 3.862 2 0 2 C0 1.34 0 0.68 0 0 Z " fill="#3BBD31" transform="translate(61,144)"/>
<path d="M0 0 C0.726 0.267 1.451 0.534 2.199 0.809 C1.519 1.345 0.838 1.881 0.137 2.434 C-3.235 5.159 -6.521 7.973 -9.801 10.809 C-10.461 10.479 -11.121 10.149 -11.801 9.809 C-10.426 8.104 -9.025 6.42 -7.613 4.746 C-6.836 3.806 -6.059 2.867 -5.258 1.898 C-2.801 -0.191 -2.801 -0.191 0 0 Z " fill="#405139" transform="translate(67.80078125,134.19140625)"/>
<path d="M0 0 C0.33 0.99 0.66 1.98 1 3 C-0.65 2.67 -2.3 2.34 -4 2 C-4 2.66 -4 3.32 -4 4 C-3.34 4 -2.68 4 -2 4 C-2.33 4.99 -2.66 5.98 -3 7 C-3.99 7 -4.98 7 -6 7 C-6 6.34 -6 5.68 -6 5 C-6.66 4.67 -7.32 4.34 -8 4 C-7.67 3.01 -7.34 2.02 -7 1 C-5.845 0.835 -5.845 0.835 0 0 Z " fill="#108D12" transform="translate(108,132)"/>
<path d="M0 0 C0 0.33 0 0.66 0 1 C-2.125 1.054 -4.25 1.093 -6.375 1.125 C-6.967 1.137 -6.967 1.137 -9.961 1.195 C-13 1 -13 1 -15 -1 C-9.908 -2.629 -4.611 -2.951 0 0 Z " fill="#B7B6BD" transform="translate(87,118)"/>
<path d="M0 0 C2.938 0.75 2.938 0.75 6 2 C6.688 4.062 6.688 4.062 7 6 C7.99 6.33 8.98 6.66 10 7 C8.35 7.66 6.7 8.32 5 9 C4.34 8.01 3.68 7.02 3 6 C3.66 5.67 4.32 5.34 5 5 C4.588 4.773 4.588 4.773 2.5 3.625 C1.675 3.089 0.85 2.553 0 2 C0 1.34 0 0.68 0 0 Z " fill="#AAB4A8" transform="translate(102,168)"/>
<path d="M0 0 C2.375 0.188 2.375 0.188 5 1 C6.949 4.342 7.218 7.181 7 11 C5.108 8.614 3.976 6.928 3 4 C0.938 2.812 0.938 2.812 -1 2 C-0.67 1.34 -0.34 0.68 0 0 Z " fill="#52813C" transform="translate(98,152)"/>
<path d="M0 0 C0.99 0 1.98 0 3 0 C5.357 2.532 6 3.472 6 7 C4.68 7 3.36 7 2 7 C0 4 0 4 0 0 Z " fill="#F6D1AB" transform="translate(111,138)"/>
<path d="M0 0 C0.66 1.98 1.32 3.96 2 6 C1.34 6 0.68 6 0 6 C0 6.66 0 7.32 0 8 C-0.99 7.67 -1.98 7.34 -3 7 C-3.33 5.02 -3.66 3.04 -4 1 C-2 0 -2 0 0 0 Z " fill="#61605E" transform="translate(93,168)"/>
<path d="M0 0 C3.941 1.668 6.789 4.227 10 7 C9.67 7.66 9.34 8.32 9 9 C7.68 8.67 6.36 8.34 5 8 C5 7.34 5 6.68 5 6 C4.361 5.752 3.721 5.505 3.062 5.25 C1 4 1 4 0.25 1.875 C0.168 1.256 0.085 0.637 0 0 Z " fill="#C39363" transform="translate(75,166)"/>
<path d="M0 0 C0.33 0.66 0.66 1.32 1 2 C1.66 2.33 2.32 2.66 3 3 C2.67 3.66 2.34 4.32 2 5 C2.66 5 3.32 5 4 5 C4 5.66 4 6.32 4 7 C3.34 7 2.68 7 2 7 C1.67 7.99 1.34 8.98 1 10 C0.34 10 -0.32 10 -1 10 C-1.027 8.521 -1.046 7.042 -1.062 5.562 C-1.074 4.739 -1.086 3.915 -1.098 3.066 C-1 1 -1 1 0 0 Z " fill="#0E8D12" transform="translate(60,144)"/>
<path d="M0 0 C1.65 0 3.3 0 5 0 C5.33 0.99 5.66 1.98 6 3 C5.67 3.66 5.34 4.32 5 5 C4.01 4.835 4.01 4.835 -1 4 C-0.67 2.68 -0.34 1.36 0 0 Z " fill="#6F736D" transform="translate(82,135)"/>
<path d="M0 0 C0.454 0.041 0.454 0.041 2.75 0.25 C2.75 0.91 2.75 1.57 2.75 2.25 C-0.894 4.679 -2.962 4.412 -7.25 4.25 C-4.839 1.283 -3.903 0.3 0 0 Z " fill="#868080" transform="translate(99.25,187.75)"/>
<path d="M0 0 C1.675 0.286 3.344 0.618 5 1 C5 2.65 5 4.3 5 6 C3.68 6 2.36 6 1 6 C1 4.68 1 3.36 1 2 C0.34 1.67 -0.32 1.34 -1 1 C-0.67 0.67 -0.34 0.34 0 0 Z " fill="#CFAC7B" transform="translate(97,155)"/>
<path d="M0 0 C1.32 0.99 2.64 1.98 4 3 C2.68 3 1.36 3 0 3 C0.66 4.65 1.32 6.3 2 8 C0.68 8 -0.64 8 -2 8 C-2 7.34 -2 6.68 -2 6 C-2.66 6 -3.32 6 -4 6 C-3.67 5.01 -3.34 4.02 -3 3 C-2.34 3.33 -1.68 3.66 -1 4 C-0.67 2.68 -0.34 1.36 0 0 Z " fill="#B9B5B4" transform="translate(108,184)"/>
<path d="M0 0 C6.75 -0.125 6.75 -0.125 9 1 C9 1.66 9 2.32 9 3 C6.03 3 3.06 3 0 3 C0 2.01 0 1.02 0 0 Z " fill="#0A5D09" transform="translate(64,188)"/>
<path d="M0 0 C2.31 0.33 4.62 0.66 7 1 C7.33 1.99 7.66 2.98 8 4 C5.69 4 3.38 4 1 4 C0.67 2.68 0.34 1.36 0 0 Z " fill="#FEFDFC" transform="translate(117,187)"/>
<path d="M0 0 C0.103 0.639 0.206 1.279 0.312 1.938 C0.539 2.618 0.766 3.299 1 4 C1.99 4.33 2.98 4.66 4 5 C5.188 7.062 5.188 7.062 6 9 C3.625 8.75 3.625 8.75 1 8 C-0.375 6.188 -0.375 6.188 -1 4 C-0.625 1.75 -0.625 1.75 0 0 Z " fill="#B19068" transform="translate(108,140)"/>
<path d="M0 0 C0.33 0.66 0.66 1.32 1 2 C3.562 2.625 3.562 2.625 6 3 C6 3.99 6 4.98 6 6 C6.66 6.33 7.32 6.66 8 7 C2.25 6.25 2.25 6.25 0 4 C0 2.68 0 1.36 0 0 Z " fill="#20801E" transform="translate(103,163)"/>
<path d="M0 0 C3.044 -0.082 5.072 0.024 8 1 C8 1.66 8 2.32 8 3 C5 5 5 5 2.812 4.625 C2.214 4.419 1.616 4.213 1 4 C1.33 3.67 1.66 3.34 2 3 C1.34 2.67 0.68 2.34 0 2 C0 1.34 0 0.68 0 0 Z " fill="#D5AA74" transform="translate(88,158)"/>
<path d="M0 0 C2.31 0 4.62 0 7 0 C5.026 2.523 4.033 2.993 0.812 3.688 C0.348 3.739 0.348 3.739 -2 4 C-1.34 2.68 -0.68 1.36 0 0 Z " fill="#119314" transform="translate(89,152)"/>
<path d="M0 0 C0.33 1.32 0.66 2.64 1 4 C0.257 4.144 -0.485 4.289 -1.25 4.438 C-3.52 4.902 -5.758 5.419 -8 6 C-8 5.34 -8 4.68 -8 4 C-3.647 0 -3.647 0 0 0 Z " fill="#11680F" transform="translate(70,136)"/>
<path d="M0 0 C0.99 0 1.98 0 3 0 C3 0.99 3 1.98 3 3 C1.68 3 0.36 3 -1 3 C-0.773 3.578 -0.546 4.155 -0.312 4.75 C0 7 0 7 -1.438 9.25 C-1.953 9.827 -2.469 10.405 -3 11 C-2.886 9.541 -2.758 8.083 -2.625 6.625 C-2.555 5.813 -2.486 5.001 -2.414 4.164 C-2 2 -2 2 0 0 Z " fill="#928D90" transform="translate(68,119)"/>
<path d="M0 0 C0 0.99 0 1.98 0 3 C-3.3 3 -6.6 3 -10 3 C-6.884 -0.116 -4.212 -0.114 0 0 Z " fill="#107810" transform="translate(85,185)"/>
<path d="M0 0 C1.938 0.812 1.938 0.812 4 2 C4.33 2.99 4.66 3.98 5 5 C3.02 5 1.04 5 -1 5 C-0.67 3.35 -0.34 1.7 0 0 Z " fill="#35B625" transform="translate(117,167)"/>
<path d="M0 0 C-0.33 0.99 -0.66 1.98 -1 3 C-1.66 3 -2.32 3 -3 3 C-3 3.99 -3 4.98 -3 6 C-3.99 6.33 -4.98 6.66 -6 7 C-6 3 -6 3 -4.688 1.25 C-3 0 -3 0 0 0 Z " fill="#75736E" transform="translate(130,165)"/>
<path d="M0 0 C2.31 0.66 4.62 1.32 7 2 C7 3.65 7 5.3 7 7 C1.125 3.375 1.125 3.375 0 0 Z " fill="#8B5C2D" transform="translate(113,150)"/>
<path d="M0 0 C3.27 0.564 4.826 1.5 7 4 C6.67 4.99 6.34 5.98 6 7 C1.2 4.538 1.2 4.538 0.188 1.812 C0.126 1.214 0.064 0.616 0 0 Z " fill="#F5C79F" transform="translate(124,149)"/>
<path d="M0 0 C2.125 0.938 2.125 0.938 4 2 C3.34 3.32 2.68 4.64 2 6 C0.68 5.67 -0.64 5.34 -2 5 C-1.34 4.34 -0.68 3.68 0 3 C-0.66 2.34 -1.32 1.68 -2 1 C-1.34 0.67 -0.68 0.34 0 0 Z " fill="#525151" transform="translate(96,182)"/>
<path d="M0 0 C0.66 0.99 1.32 1.98 2 3 C3.32 3.66 4.64 4.32 6 5 C3.03 5 0.06 5 -3 5 C-2.67 3.68 -2.34 2.36 -2 1 C-1.34 0.67 -0.68 0.34 0 0 Z " fill="#917E4B" transform="translate(70,181)"/>
<path d="M0 0 C2 1.25 2 1.25 4 3 C4 4.32 4 5.64 4 7 C3.175 6.67 3.175 6.67 -1 5 C-0.67 3.35 -0.34 1.7 0 0 Z " fill="#908F8F" transform="translate(93,174)"/>
<path d="M0 0 C1.98 0 3.96 0 6 0 C5.67 2.97 5.34 5.94 5 9 C4.34 8.67 3.68 8.34 3 8 C3.33 6.68 3.66 5.36 4 4 C3.01 4 2.02 4 1 4 C0.67 2.68 0.34 1.36 0 0 Z " fill="#84735A" transform="translate(77,175)"/>
<path d="M0 0 C1.32 0.33 2.64 0.66 4 1 C2.68 1.33 1.36 1.66 0 2 C-0.33 3.65 -0.66 5.3 -1 7 C-1.99 7.33 -2.98 7.66 -4 8 C-4.33 7.01 -4.66 6.02 -5 5 C-4.01 5 -3.02 5 -2 5 C-1.34 3.35 -0.68 1.7 0 0 Z " fill="#513A3A" transform="translate(151,158)"/>
<path d="M0 0 C0.66 0.33 1.32 0.66 2 1 C1.67 2.65 1.34 4.3 1 6 C-1.31 6 -3.62 6 -6 6 C-6 5.01 -6 4.02 -6 3 C-5.01 2.67 -4.02 2.34 -3 2 C-3 2.99 -3 3.98 -3 5 C-2.01 5 -1.02 5 0 5 C0 3.35 0 1.7 0 0 Z " fill="#21A01E" transform="translate(98,130)"/>
<path d="M0 0 C0.66 0 1.32 0 2 0 C2 0.99 2 1.98 2 3 C3.32 3 4.64 3 6 3 C6.33 3.99 6.66 4.98 7 6 C4.36 6 1.72 6 -1 6 C-0.34 5.34 0.32 4.68 1 4 C0.625 1.875 0.625 1.875 0 0 Z " fill="#E4B691" transform="translate(133,186)"/>
<path d="M0 0 C0.99 0 1.98 0 3 0 C3 0.66 3 1.32 3 2 C3.66 2 4.32 2 5 2 C5 2.66 5 3.32 5 4 C4.34 4 3.68 4 3 4 C3 4.66 3 5.32 3 6 C2.01 6 1.02 6 0 6 C0.33 4.68 0.66 3.36 1 2 C0.34 1.67 -0.32 1.34 -1 1 C-0.67 0.67 -0.34 0.34 0 0 Z " fill="#615B57" transform="translate(84,174)"/>
<path d="M0 0 C0.99 0.33 1.98 0.66 3 1 C-1.712 4.737 -5.019 5.113 -11 5 C-11 4.67 -11 4.34 -11 4 C-10.371 3.856 -10.371 3.856 -7.188 3.125 C-4.146 2.427 -2.693 1.796 0 0 Z " fill="#348726" transform="translate(96,152)"/>
<path d="M0 0 C0.33 0.99 0.66 1.98 1 3 C-1.64 3.66 -4.28 4.32 -7 5 C-7 4.01 -7 3.02 -7 2 C-2.25 0 -2.25 0 0 0 Z " fill="#675A59" transform="translate(166,147)"/>
<path d="M0 0 C0.66 0.99 1.32 1.98 2 3 C-0.75 4.625 -0.75 4.625 -4 6 C-5.32 5.34 -6.64 4.68 -8 4 C-5.36 2.68 -2.72 1.36 0 0 Z " fill="#545268" transform="translate(190,134)"/>
<path d="M0 0 C2.64 0 5.28 0 8 0 C7.67 0.66 7.34 1.32 7 2 C6.01 1.67 5.02 1.34 4 1 C4.33 2.65 4.66 4.3 5 6 C3.293 4.719 1.626 3.382 0 2 C0 1.34 0 0.68 0 0 Z " fill="#1BA21B" transform="translate(115,175)"/>
<path d="M0 0 C0.289 0.639 0.578 1.279 0.875 1.938 C2 4 2 4 4 5 C3.67 5.99 3.34 6.98 3 8 C1.68 7.67 0.36 7.34 -1 7 C-0.67 4.69 -0.34 2.38 0 0 Z " fill="#32B42A" transform="translate(105,158)"/>
<path d="M0 0 C0 0.99 0 1.98 0 3 C-1.65 3.66 -3.3 4.32 -5 5 C-5.33 3.68 -5.66 2.36 -6 1 C-4 0 -4 0 0 0 Z " fill="#7D7575" transform="translate(185,144)"/>
<path d="M0 0 C0.99 0 1.98 0 3 0 C3 1.65 3 3.3 3 5 C0.333 6.333 -1.167 5.671 -4 5 C-2.68 4.67 -1.36 4.34 0 4 C0 2.68 0 1.36 0 0 Z " fill="#546150" transform="translate(78,134)"/>
<path d="M0 0 C0.66 0.33 1.32 0.66 2 1 C2 1.66 2 2.32 2 3 C3.155 2.835 3.155 2.835 9 2 C5.356 4.429 3.288 4.162 -1 4 C-1.33 3.01 -1.66 2.02 -2 1 C-1.34 0.67 -0.68 0.34 0 0 Z " fill="#F5D5AF" transform="translate(123,181)"/>
<path d="M0 0 C0.66 0.33 1.32 0.66 2 1 C2 1.66 2 2.32 2 3 C3.32 3.66 4.64 4.32 6 5 C5.67 5.165 5.67 5.165 4 6 C3.67 6.66 3.34 7.32 3 8 C0.938 5.688 0.938 5.688 -1 3 C-0.67 2.01 -0.34 1.02 0 0 Z " fill="#757474" transform="translate(97,169)"/>
<path d="M0 0 C2.25 0.25 2.25 0.25 4 1 C3.67 1.66 3.34 2.32 3 3 C0.678 3.407 -1.657 3.744 -4 4 C-2.25 1.938 -2.25 1.938 0 0 Z " fill="#54545D" transform="translate(187,140)"/>
<path d="M0 0 C0.33 0.66 0.66 1.32 1 2 C1.66 2.33 2.32 2.66 3 3 C2.67 3.66 2.34 4.32 2 5 C-0.64 5 -3.28 5 -6 5 C-6.33 4.34 -6.66 3.68 -7 3 C-6.01 3.165 -6.01 3.165 -1 4 C-0.67 2.68 -0.34 1.36 0 0 Z " fill="#45683D" transform="translate(88,136)"/>
<path d="M0 0 C0.825 0.165 0.825 0.165 5 1 C5 1.66 5 2.32 5 3 C5.66 3.33 6.32 3.66 7 4 C6.67 4.495 6.67 4.495 5 7 C5 6.01 5 5.02 5 4 C4.175 3.67 4.175 3.67 0 2 C0 1.34 0 0.68 0 0 Z " fill="#4FD73F" transform="translate(97,136)"/>
<path d="M0 0 C-0.33 0.66 -0.66 1.32 -1 2 C-3.649 2.594 -6.292 2.742 -9 3 C-6.39 -0.48 -4.169 -0.278 0 0 Z " fill="#BA8A5B" transform="translate(99,164)"/>
<path d="M0 0 C2.812 -0.188 2.812 -0.188 6 0 C6.99 0.99 7.98 1.98 9 3 C6.03 2.67 3.06 2.34 0 2 C0 1.34 0 0.68 0 0 Z " fill="#205319" transform="translate(75,139)"/>
<path d="M0 0 C1.32 0 2.64 0 4 0 C4 1.32 4 2.64 4 4 C4.99 4 5.98 4 7 4 C7 4.66 7 5.32 7 6 C2.323 4.523 2.323 4.523 0.688 1.875 C0.461 1.256 0.234 0.638 0 0 Z " fill="#797979" transform="translate(76,120)"/>
<path d="M0 0 C2.688 1.438 2.688 1.438 5 3 C4.67 3.66 4.34 4.32 4 5 C3.01 5 2.02 5 1 5 C0.67 4.34 0.34 3.68 0 3 C-0.99 2.34 -1.98 1.68 -3 1 C-2.01 0.67 -1.02 0.34 0 0 Z " fill="#655D6A" transform="translate(71,117)"/>
<path d="M0 0 C0.99 0.165 0.99 0.165 6 1 C2.356 3.429 0.288 3.162 -4 3 C-2.68 2.67 -1.36 2.34 0 2 C0 1.34 0 0.68 0 0 Z " fill="#F1D2BA" transform="translate(129,189)"/>
<path d="M0 0 C5.571 5.143 5.571 5.143 6 9 C5.67 8.34 5.34 7.68 5 7 C4.01 6.67 3.02 6.34 2 6 C0.812 2.938 0.812 2.938 0 0 Z " fill="#BD7E5B" transform="translate(134,182)"/>
<path d="M0 0 C2.5 1.812 2.5 1.812 5 4 C5 4.99 5 5.98 5 7 C4.34 7 3.68 7 3 7 C1.618 5.374 0.281 3.707 -1 2 C-0.67 1.34 -0.34 0.68 0 0 Z " fill="#3E7435" transform="translate(109,161)"/>
<path d="M0 0 C1.938 0.688 1.938 0.688 4 2 C4.75 4.625 4.75 4.625 5 7 C3.68 6.67 2.36 6.34 1 6 C0.67 4.02 0.34 2.04 0 0 Z " fill="#AE2011" transform="translate(110,152)"/>
<path d="M0 0 C0.33 0 0.66 0 1 0 C1 1.98 1 3.96 1 6 C-0.65 6 -2.3 6 -4 6 C-2.696 3.981 -1.362 1.981 0 0 Z " fill="#757575" transform="translate(70,129)"/>
<path d="M0 0 C4.219 0.479 6.797 1.166 10 4 C7 5 7 5 5.176 4.223 C3.451 3.148 1.725 2.074 0 1 C0 0.67 0 0.34 0 0 Z " fill="#873E13" transform="translate(104,126)"/>
<path d="M0 0 C2.438 0.375 2.438 0.375 5 1 C5.33 1.66 5.66 2.32 6 3 C4.35 3.33 2.7 3.66 1 4 C0.67 2.68 0.34 1.36 0 0 Z " fill="#606060" transform="translate(67,122)"/>
</svg>
