<?xml version="1.0" encoding="UTF-8"?>
<!-- Generator: visioncortex VTracer 0.6.12 -->
<svg version="1.1" xmlns="http://www.w3.org/2000/svg" width="256" height="256">
<path d="M0 0 C54.78 0 109.56 0 166 0 C166 2.64 166 5.28 166 8 C176.56 8 187.12 8 198 8 C198 69.38 198 130.76 198 194 C120.78 194 43.56 194 -36 194 C-36 132.62 -36 71.24 -36 8 C-24.12 8 -12.24 8 0 8 C0 5.36 0 2.72 0 0 Z " fill="#D8D8D8" transform="translate(47,27)"/>
<path d="M0 0 C12.21 0 24.42 0 37 0 C37 41.25 37 82.5 37 125 C35.68 125 34.36 125 33 125 C33.138 129.313 33.287 133.625 33.438 137.938 C33.477 139.169 33.516 140.401 33.557 141.67 C33.599 142.84 33.64 144.01 33.684 145.215 C33.702 145.757 33.702 145.757 33.795 148.5 C34 151 34 151 35 152 C37.162 152.099 39.327 152.126 41.491 152.127 C41.835 152.128 41.835 152.128 43.571 152.132 C45.887 152.136 48.203 152.133 50.52 152.129 C52.173 152.131 53.827 152.133 55.481 152.135 C59.985 152.139 64.489 152.137 68.993 152.134 C73.695 152.132 78.398 152.134 83.101 152.136 C91 152.138 98.899 152.135 106.798 152.13 C115.944 152.125 125.09 152.127 134.236 152.132 C142.074 152.137 149.911 152.137 157.749 152.135 C162.437 152.133 167.124 152.133 171.812 152.136 C176.218 152.139 180.624 152.137 185.03 152.131 C186.652 152.13 188.273 152.13 189.895 152.133 C192.1 152.135 194.304 152.132 196.509 152.127 C197.745 152.127 198.982 152.126 200.256 152.126 C203 152 203 152 204 151 C204.158 149.075 204.251 147.145 204.316 145.215 C204.358 144.045 204.4 142.875 204.443 141.67 C204.483 140.438 204.522 139.207 204.562 137.938 C204.584 137.32 204.584 137.32 204.693 134.193 C204.8 131.129 204.902 128.065 205 125 C203.68 125 202.36 125 201 125 C200.977 108.85 200.959 92.699 200.948 76.549 C200.943 69.051 200.936 61.552 200.925 54.054 C200.915 47.521 200.908 40.987 200.906 34.454 C200.905 30.993 200.902 27.531 200.894 24.07 C200.886 20.212 200.886 16.354 200.886 12.496 C200.883 11.34 200.879 10.185 200.876 8.994 C200.877 7.949 200.878 6.904 200.88 5.828 C200.879 5.371 200.879 5.371 200.877 3.06 C201 1 201 1 202 0 C212.56 0 223.12 0 234 0 C234 61.38 234 122.76 234 186 C156.78 186 79.56 186 0 186 C0 124.62 0 63.24 0 0 Z " fill="#CBCBCC" transform="translate(11,35)"/>
<path d="M0 0 C77.22 0 154.44 0 234 0 C234 8.25 234 16.5 234 25 C156.78 25 79.56 25 0 25 C0 16.75 0 8.5 0 0 Z " fill="#D7D7D7" transform="translate(11,196)"/>
<path d="M0 0 C56.76 0 113.52 0 172 0 C172 8.58 172 17.16 172 26 C169.174 28.826 167.357 28.252 163.395 28.254 C162.709 28.257 162.022 28.26 161.315 28.263 C159.004 28.271 156.694 28.265 154.383 28.259 C152.731 28.261 151.078 28.265 149.426 28.269 C144.93 28.279 140.435 28.275 135.939 28.269 C131.242 28.264 126.545 28.268 121.848 28.271 C113.959 28.275 106.07 28.27 98.182 28.261 C89.051 28.25 79.92 28.253 70.79 28.264 C62.961 28.273 55.133 28.275 47.304 28.27 C42.624 28.266 37.944 28.266 33.263 28.273 C28.864 28.278 24.464 28.274 20.065 28.263 C18.447 28.26 16.829 28.261 15.211 28.265 C13.009 28.271 10.807 28.264 8.605 28.254 C7.988 28.254 7.988 28.254 4.864 28.252 C2 28 2 28 0 26 C0 17.42 0 8.84 0 0 Z " fill="#E4E6E4" transform="translate(44,160)"/>
<path d="M0 0 C1.144 -0.006 2.288 -0.011 3.467 -0.017 C4.729 -0.013 5.99 -0.009 7.29 -0.005 C8.626 -0.008 9.963 -0.011 11.3 -0.015 C14.937 -0.025 18.573 -0.021 22.209 -0.015 C26.009 -0.01 29.809 -0.014 33.609 -0.017 C39.992 -0.021 46.374 -0.016 52.756 -0.007 C60.142 0.004 67.528 0.001 74.913 -0.01 C81.247 -0.019 87.581 -0.021 93.915 -0.016 C97.701 -0.012 101.487 -0.012 105.273 -0.019 C108.832 -0.024 112.391 -0.02 115.95 -0.009 C117.884 -0.005 119.818 -0.011 121.753 -0.017 C122.897 -0.011 124.041 -0.006 125.22 0 C126.218 0.001 127.217 0.002 128.245 0.002 C130.61 0.254 130.61 0.254 132.61 2.254 C132.61 7.204 132.61 12.154 132.61 17.254 C86.41 17.254 40.21 17.254 -7.39 17.254 C-7.39 0.006 -7.39 0.006 0 0 Z " fill="#B0B1B0" transform="translate(103.39013671875,203.74603271484375)"/>
<path d="M0 0 C1.144 -0.006 2.288 -0.011 3.467 -0.017 C4.729 -0.013 5.99 -0.009 7.29 -0.005 C8.626 -0.008 9.963 -0.011 11.3 -0.015 C14.937 -0.025 18.573 -0.021 22.209 -0.015 C26.009 -0.01 29.809 -0.014 33.609 -0.017 C39.992 -0.021 46.374 -0.016 52.756 -0.007 C60.142 0.004 67.528 0.001 74.913 -0.01 C81.247 -0.019 87.581 -0.021 93.915 -0.016 C97.701 -0.012 101.487 -0.012 105.273 -0.019 C108.832 -0.024 112.391 -0.02 115.95 -0.009 C117.884 -0.005 119.818 -0.011 121.753 -0.017 C122.897 -0.011 124.041 -0.006 125.22 0 C126.218 0.001 127.217 0.002 128.245 0.002 C130.61 0.254 130.61 0.254 132.61 2.254 C132.61 4.234 132.61 6.214 132.61 8.254 C86.41 8.254 40.21 8.254 -7.39 8.254 C-7.39 0.82 -6.867 0.005 0 0 Z " fill="#282828" transform="translate(103.39013671875,203.74603271484375)"/>
<path d="M0 0 C47.52 0 95.04 0 144 0 C144 0.33 144 0.66 144 1 C136.934 2.479 129.982 3.22 122.783 3.556 C121.911 3.598 121.039 3.639 120.14 3.682 C110.836 4.097 101.539 4.164 92.227 4.168 C90.402 4.171 88.578 4.175 86.753 4.178 C82.963 4.184 79.174 4.186 75.384 4.185 C71.548 4.185 67.713 4.192 63.877 4.206 C15.231 4.376 15.231 4.376 0 1 C0 0.67 0 0.34 0 0 Z " fill="#191985" transform="translate(57,188)"/>
<path d="M0 0 C21.12 0 42.24 0 64 0 C64 0.99 64 1.98 64 3 C42.88 3 21.76 3 0 3 C0 2.01 0 1.02 0 0 Z " fill="#0D0D0D" transform="translate(168,208)"/>
<path d="M0 0 C21.12 0 42.24 0 64 0 C64 0.99 64 1.98 64 3 C42.88 3 21.76 3 0 3 C0 2.01 0 1.02 0 0 Z " fill="#0D0D0D" transform="translate(100,208)"/>
<path d="M0 0 C1.32 0 2.64 0 4 0 C4 7.92 4 15.84 4 24 C2.68 24 1.36 24 0 24 C0 16.08 0 8.16 0 0 Z " fill="#B4B5B4" transform="translate(204,128)"/>
<path d="M0 0 C1.32 0 2.64 0 4 0 C4 7.92 4 15.84 4 24 C2.68 24 1.36 24 0 24 C0 16.08 0 8.16 0 0 Z " fill="#B4B5B4" transform="translate(196,128)"/>
<path d="M0 0 C1.32 0 2.64 0 4 0 C4 7.92 4 15.84 4 24 C2.68 24 1.36 24 0 24 C0 16.08 0 8.16 0 0 Z " fill="#B4B5B4" transform="translate(188,128)"/>
<path d="M0 0 C1.32 0 2.64 0 4 0 C4 7.92 4 15.84 4 24 C2.68 24 1.36 24 0 24 C0 16.08 0 8.16 0 0 Z " fill="#B4B5B4" transform="translate(180,128)"/>
<path d="M0 0 C1.32 0 2.64 0 4 0 C4 7.92 4 15.84 4 24 C2.68 24 1.36 24 0 24 C0 16.08 0 8.16 0 0 Z " fill="#B4B5B4" transform="translate(172,128)"/>
<path d="M0 0 C1.32 0 2.64 0 4 0 C4 7.92 4 15.84 4 24 C2.68 24 1.36 24 0 24 C0 16.08 0 8.16 0 0 Z " fill="#B4B5B4" transform="translate(164,128)"/>
<path d="M0 0 C1.32 0 2.64 0 4 0 C4 7.92 4 15.84 4 24 C2.68 24 1.36 24 0 24 C0 16.08 0 8.16 0 0 Z " fill="#B4B5B4" transform="translate(156,128)"/>
<path d="M0 0 C1.32 0 2.64 0 4 0 C4 7.92 4 15.84 4 24 C2.68 24 1.36 24 0 24 C0 16.08 0 8.16 0 0 Z " fill="#B4B5B4" transform="translate(148,128)"/>
<path d="M0 0 C1.32 0 2.64 0 4 0 C4 7.92 4 15.84 4 24 C2.68 24 1.36 24 0 24 C0 16.08 0 8.16 0 0 Z " fill="#B4B5B4" transform="translate(140,128)"/>
<path d="M0 0 C1.32 0 2.64 0 4 0 C4 7.92 4 15.84 4 24 C2.68 24 1.36 24 0 24 C0 16.08 0 8.16 0 0 Z " fill="#B4B5B4" transform="translate(132,128)"/>
<path d="M0 0 C1.32 0 2.64 0 4 0 C4 7.92 4 15.84 4 24 C2.68 24 1.36 24 0 24 C0 16.08 0 8.16 0 0 Z " fill="#B4B5B4" transform="translate(124,128)"/>
<path d="M0 0 C1.32 0 2.64 0 4 0 C4 7.92 4 15.84 4 24 C2.68 24 1.36 24 0 24 C0 16.08 0 8.16 0 0 Z " fill="#B4B5B4" transform="translate(116,128)"/>
<path d="M0 0 C1.32 0 2.64 0 4 0 C4 7.92 4 15.84 4 24 C2.68 24 1.36 24 0 24 C0 16.08 0 8.16 0 0 Z " fill="#B4B5B4" transform="translate(108,128)"/>
<path d="M0 0 C1.32 0 2.64 0 4 0 C4 7.92 4 15.84 4 24 C2.68 24 1.36 24 0 24 C0 16.08 0 8.16 0 0 Z " fill="#B4B5B4" transform="translate(100,128)"/>
<path d="M0 0 C1.32 0 2.64 0 4 0 C4 7.92 4 15.84 4 24 C2.68 24 1.36 24 0 24 C0 16.08 0 8.16 0 0 Z " fill="#B4B5B4" transform="translate(92,128)"/>
<path d="M0 0 C1.32 0 2.64 0 4 0 C4 7.92 4 15.84 4 24 C2.68 24 1.36 24 0 24 C0 16.08 0 8.16 0 0 Z " fill="#B4B5B4" transform="translate(84,128)"/>
<path d="M0 0 C1.32 0 2.64 0 4 0 C4 7.92 4 15.84 4 24 C2.68 24 1.36 24 0 24 C0 16.08 0 8.16 0 0 Z " fill="#B4B5B4" transform="translate(76,128)"/>
<path d="M0 0 C1.32 0 2.64 0 4 0 C4 7.92 4 15.84 4 24 C2.68 24 1.36 24 0 24 C0 16.08 0 8.16 0 0 Z " fill="#B4B5B4" transform="translate(68,128)"/>
<path d="M0 0 C1.32 0 2.64 0 4 0 C4 7.92 4 15.84 4 24 C2.68 24 1.36 24 0 24 C0 16.08 0 8.16 0 0 Z " fill="#B4B5B4" transform="translate(60,128)"/>
<path d="M0 0 C1.32 0 2.64 0 4 0 C4 7.92 4 15.84 4 24 C2.68 24 1.36 24 0 24 C0 16.08 0 8.16 0 0 Z " fill="#B4B5B4" transform="translate(52,128)"/>
<path d="M0 0 C1.32 0 2.64 0 4 0 C4 2.97 4 5.94 4 9 C2.68 9 1.36 9 0 9 C0 6.03 0 3.06 0 0 Z " fill="#B5B5B5" transform="translate(80,212)"/>
<path d="M0 0 C1.32 0 2.64 0 4 0 C4 2.97 4 5.94 4 9 C2.68 9 1.36 9 0 9 C0 6.03 0 3.06 0 0 Z " fill="#B5B5B5" transform="translate(72,212)"/>
<path d="M0 0 C1.32 0 2.64 0 4 0 C4 2.97 4 5.94 4 9 C2.68 9 1.36 9 0 9 C0 6.03 0 3.06 0 0 Z " fill="#B5B5B5" transform="translate(64,212)"/>
<path d="M0 0 C1.32 0 2.64 0 4 0 C4 2.97 4 5.94 4 9 C2.68 9 1.36 9 0 9 C0 6.03 0 3.06 0 0 Z " fill="#B5B5B5" transform="translate(56,212)"/>
<path d="M0 0 C1.32 0 2.64 0 4 0 C4 2.97 4 5.94 4 9 C2.68 9 1.36 9 0 9 C0 6.03 0 3.06 0 0 Z " fill="#B5B5B5" transform="translate(48,212)"/>
<path d="M0 0 C1.32 0 2.64 0 4 0 C4 2.97 4 5.94 4 9 C2.68 9 1.36 9 0 9 C0 6.03 0 3.06 0 0 Z " fill="#B5B5B5" transform="translate(40,212)"/>
<path d="M0 0 C1.32 0 2.64 0 4 0 C4 2.97 4 5.94 4 9 C2.68 9 1.36 9 0 9 C0 6.03 0 3.06 0 0 Z " fill="#B5B5B5" transform="translate(32,212)"/>
<path d="M0 0 C1.32 0 2.64 0 4 0 C4 2.97 4 5.94 4 9 C2.68 9 1.36 9 0 9 C0 6.03 0 3.06 0 0 Z " fill="#B5B5B5" transform="translate(24,212)"/>
</svg>
