<?xml version="1.0" encoding="UTF-8"?>
<!-- Generator: visioncortex VTracer 0.6.12 -->
<svg version="1.1" xmlns="http://www.w3.org/2000/svg" width="256" height="256">
<path d="M0 0 C0.884 -0.007 1.767 -0.013 2.678 -0.02 C5.589 -0.039 8.5 -0.043 11.411 -0.045 C13.443 -0.052 15.476 -0.059 17.508 -0.066 C21.766 -0.078 26.024 -0.081 30.281 -0.08 C35.722 -0.08 41.162 -0.107 46.602 -0.142 C50.8 -0.164 54.998 -0.168 59.195 -0.167 C61.2 -0.169 63.205 -0.178 65.21 -0.194 C68.022 -0.213 70.833 -0.207 73.645 -0.195 C74.463 -0.207 75.281 -0.218 76.125 -0.229 C82.755 -0.158 88.905 1.459 93.907 6.011 C99.75 12.261 100.428 19.394 101.218 27.6 C101.323 28.625 101.427 29.651 101.535 30.707 C101.761 32.93 101.985 35.153 102.206 37.376 C102.681 42.127 103.181 46.876 103.679 51.625 C104.604 60.455 105.52 69.285 106.396 78.12 C107.007 84.276 107.649 90.429 108.309 96.581 C108.553 98.909 108.787 101.239 109.009 103.57 C110.169 115.686 111.558 126.521 117.275 137.415 C121.358 145.224 121.642 153.351 119.305 161.888 C116.912 167.36 112.831 171.106 107.325 173.423 C106.563 173.71 105.801 173.996 105.016 174.291 C105.01 175.144 105.005 175.997 104.999 176.876 C104.941 184.925 104.869 192.973 104.781 201.021 C104.736 205.158 104.697 209.296 104.67 213.433 C104.644 217.428 104.603 221.422 104.553 225.416 C104.537 226.938 104.525 228.461 104.519 229.983 C104.509 232.119 104.481 234.254 104.449 236.389 C104.443 236.996 104.443 236.996 104.415 240.07 C103.975 243.626 103.221 245.484 101.016 248.291 C97.907 250.242 95.499 250.543 91.861 250.551 C91.341 250.555 91.341 250.555 88.705 250.573 C87.568 250.57 86.431 250.568 85.259 250.565 C84.057 250.57 82.855 250.575 81.616 250.581 C78.323 250.592 75.03 250.595 71.736 250.592 C68.985 250.591 66.234 250.596 63.483 250.601 C56.992 250.612 50.502 250.612 44.011 250.606 C37.318 250.6 30.626 250.612 23.933 250.634 C18.183 250.651 12.434 250.657 6.684 250.654 C3.252 250.652 -0.181 250.655 -3.613 250.669 C-7.441 250.684 -11.269 250.674 -15.097 250.663 C-16.232 250.67 -17.367 250.678 -18.537 250.686 C-19.581 250.679 -20.626 250.672 -21.702 250.665 C-22.606 250.665 -23.511 250.665 -24.443 250.665 C-27.545 250.208 -29.436 249.087 -31.984 247.291 C-34.45 243.926 -34.258 240.578 -34.302 236.502 C-34.313 235.829 -34.323 235.155 -34.333 234.461 C-34.364 232.243 -34.381 230.025 -34.398 227.806 C-34.416 226.265 -34.436 224.724 -34.456 223.182 C-34.508 219.132 -34.547 215.081 -34.585 211.03 C-34.625 206.894 -34.676 202.758 -34.726 198.623 C-34.823 190.512 -34.907 182.401 -34.984 174.291 C-35.256 174.163 -35.256 174.163 -36.633 173.519 C-37.349 173.174 -38.066 172.829 -38.804 172.474 C-39.513 172.137 -40.222 171.8 -40.953 171.452 C-45.701 168.736 -48.303 164.412 -49.984 159.291 C-51.247 150.305 -50.61 143.666 -46.203 135.818 C-40.587 124.813 -39.424 113.219 -37.843 101.103 C-37.508 98.705 -37.17 96.307 -36.83 93.909 C-35.947 87.649 -35.094 81.385 -34.25 75.12 C-32.893 65.066 -31.498 55.017 -30.087 44.97 C-29.602 41.479 -29.136 37.987 -28.671 34.493 C-28.375 32.345 -28.077 30.196 -27.78 28.048 C-27.718 27.568 -27.718 27.568 -27.408 25.139 C-26.167 16.408 -23.885 9.242 -16.96 3.482 C-11.495 0.187 -6.181 -0.007 0 0 Z " fill="#7E7E7E" transform="translate(92.983642578125,2.70947265625)"/>
<path d="M0 0 C0.884 -0.007 1.767 -0.013 2.678 -0.02 C5.589 -0.039 8.5 -0.043 11.411 -0.045 C13.443 -0.052 15.476 -0.059 17.508 -0.066 C21.766 -0.078 26.024 -0.081 30.281 -0.08 C35.722 -0.08 41.162 -0.107 46.602 -0.142 C50.8 -0.164 54.998 -0.168 59.195 -0.167 C61.2 -0.169 63.205 -0.178 65.21 -0.194 C68.022 -0.213 70.833 -0.207 73.645 -0.195 C74.463 -0.207 75.281 -0.218 76.125 -0.229 C82.755 -0.158 88.905 1.459 93.907 6.011 C99.75 12.261 100.428 19.394 101.218 27.6 C101.323 28.625 101.427 29.651 101.535 30.707 C101.761 32.93 101.985 35.153 102.206 37.376 C102.681 42.127 103.181 46.876 103.679 51.625 C104.604 60.455 105.52 69.285 106.396 78.12 C107.007 84.276 107.649 90.429 108.309 96.581 C108.553 98.909 108.787 101.239 109.009 103.57 C110.169 115.686 111.558 126.521 117.275 137.415 C121.358 145.224 121.642 153.351 119.305 161.888 C116.912 167.36 112.831 171.106 107.325 173.423 C106.563 173.71 105.801 173.996 105.016 174.291 C105.01 175.144 105.005 175.997 104.999 176.876 C104.941 184.925 104.869 192.973 104.781 201.021 C104.736 205.158 104.697 209.296 104.67 213.433 C104.644 217.428 104.603 221.422 104.553 225.416 C104.537 226.938 104.525 228.461 104.519 229.983 C104.509 232.119 104.481 234.254 104.449 236.389 C104.443 236.996 104.443 236.996 104.415 240.07 C103.975 243.626 103.221 245.484 101.016 248.291 C97.907 250.242 95.499 250.543 91.861 250.551 C91.341 250.555 91.341 250.555 88.705 250.573 C87.568 250.57 86.431 250.568 85.259 250.565 C84.057 250.57 82.855 250.575 81.616 250.581 C78.323 250.592 75.03 250.595 71.736 250.592 C68.985 250.591 66.234 250.596 63.483 250.601 C56.992 250.612 50.502 250.612 44.011 250.606 C37.318 250.6 30.626 250.612 23.933 250.634 C18.183 250.651 12.434 250.657 6.684 250.654 C3.252 250.652 -0.181 250.655 -3.613 250.669 C-7.441 250.684 -11.269 250.674 -15.097 250.663 C-16.232 250.67 -17.367 250.678 -18.537 250.686 C-19.581 250.679 -20.626 250.672 -21.702 250.665 C-22.606 250.665 -23.511 250.665 -24.443 250.665 C-27.545 250.208 -29.436 249.087 -31.984 247.291 C-34.45 243.926 -34.258 240.578 -34.302 236.502 C-34.313 235.829 -34.323 235.155 -34.333 234.461 C-34.364 232.243 -34.381 230.025 -34.398 227.806 C-34.416 226.265 -34.436 224.724 -34.456 223.182 C-34.508 219.132 -34.547 215.081 -34.585 211.03 C-34.625 206.894 -34.676 202.758 -34.726 198.623 C-34.823 190.512 -34.907 182.401 -34.984 174.291 C-35.256 174.163 -35.256 174.163 -36.633 173.519 C-37.349 173.174 -38.066 172.829 -38.804 172.474 C-39.513 172.137 -40.222 171.8 -40.953 171.452 C-45.701 168.736 -48.303 164.412 -49.984 159.291 C-51.247 150.305 -50.61 143.666 -46.203 135.818 C-40.587 124.813 -39.424 113.219 -37.843 101.103 C-37.508 98.705 -37.17 96.307 -36.83 93.909 C-35.947 87.649 -35.094 81.385 -34.25 75.12 C-32.893 65.066 -31.498 55.017 -30.087 44.97 C-29.602 41.479 -29.136 37.987 -28.671 34.493 C-28.375 32.345 -28.077 30.196 -27.78 28.048 C-27.718 27.568 -27.718 27.568 -27.408 25.139 C-26.167 16.408 -23.885 9.242 -16.96 3.482 C-11.495 0.187 -6.181 -0.007 0 0 Z M-14.984 13.291 C-17.52 17.095 -17.802 20.707 -18.386 25.138 C-18.509 26.023 -18.632 26.909 -18.759 27.821 C-19.154 30.664 -19.538 33.508 -19.921 36.353 C-20.427 40.053 -20.937 43.752 -21.448 47.451 C-21.575 48.369 -21.701 49.287 -21.832 50.232 C-22.741 56.755 -23.785 63.246 -24.896 69.736 C-26.411 78.666 -27.587 87.64 -28.786 96.616 C-29.487 101.846 -30.214 107.071 -30.984 112.291 C-31.097 113.058 -31.21 113.825 -31.326 114.615 C-31.671 116.903 -32.037 119.187 -32.409 121.47 C-32.512 122.153 -32.614 122.835 -32.72 123.538 C-33.56 128.488 -35.211 132.05 -37.671 136.353 C-41.728 143.804 -42.691 150.934 -40.984 159.291 C-39.395 162.249 -38.698 163.501 -35.984 165.291 C-31.517 166.203 -27.097 166.089 -22.552 166.035 C-21.17 166.04 -19.788 166.047 -18.407 166.057 C-14.661 166.076 -10.915 166.057 -7.169 166.031 C-3.247 166.008 0.676 166.016 4.599 166.02 C11.186 166.022 17.773 166 24.361 165.963 C31.973 165.921 39.585 165.914 47.197 165.926 C54.525 165.937 61.852 165.926 69.179 165.904 C72.295 165.894 75.412 165.893 78.528 165.897 C82.199 165.901 85.869 165.884 89.54 165.853 C91.527 165.84 93.514 165.847 95.502 165.855 C96.095 165.848 96.095 165.848 99.096 165.812 C100.125 165.808 101.153 165.804 102.213 165.799 C105.752 165.157 107.44 163.749 110.016 161.291 C111.504 158.316 111.406 155.304 111.516 152.041 C111.589 150.736 111.661 149.431 111.735 148.087 C111.478 143.779 109.835 141.084 107.66 137.399 C102.52 127.796 102.026 117.431 100.997 106.759 C100.767 104.593 100.536 102.427 100.301 100.261 C99.695 94.594 99.12 88.924 98.553 83.253 C97.974 77.509 97.367 71.769 96.76 66.029 C96.077 59.557 95.396 53.086 94.741 46.612 C94.27 41.975 93.784 37.341 93.279 32.708 C93.11 31.156 92.945 29.602 92.785 28.048 C92.581 26.095 92.351 24.145 92.119 22.195 C92.001 21.157 91.883 20.119 91.762 19.049 C90.673 15.021 88.617 12.514 85.323 9.996 C81.637 8.868 77.924 8.996 74.104 9 C73.205 8.993 72.305 8.987 71.378 8.98 C68.405 8.961 65.431 8.957 62.458 8.955 C60.39 8.948 58.323 8.941 56.256 8.934 C51.922 8.922 47.589 8.919 43.255 8.92 C37.702 8.92 32.15 8.893 26.597 8.858 C22.327 8.836 18.058 8.832 13.788 8.833 C11.741 8.831 9.693 8.822 7.646 8.806 C4.783 8.787 1.921 8.793 -0.942 8.805 C-1.788 8.793 -2.633 8.782 -3.504 8.771 C-8.6 8.825 -11.303 9.436 -14.984 13.291 Z " fill="#999999" transform="translate(92.983642578125,2.70947265625)"/>
<path d="M0 0 C33 0 66 0 100 0 C102.251 14.629 102.251 14.629 102.778 20.132 C102.898 21.367 103.018 22.601 103.141 23.873 C103.262 25.159 103.383 26.445 103.508 27.77 C103.639 29.144 103.771 30.519 103.903 31.894 C104.176 34.748 104.446 37.603 104.714 40.458 C105.057 44.097 105.406 47.736 105.757 51.374 C106.029 54.202 106.297 57.031 106.565 59.86 C106.753 61.847 106.945 63.834 107.137 65.822 C107.193 66.431 107.193 66.431 107.481 69.515 C107.582 70.577 107.682 71.639 107.786 72.734 C108.032 76.482 108 80.244 108 84 C68.4 84 28.8 84 -12 84 C-11.417 78.755 -10.83 73.568 -10.076 68.354 C-9.899 67.125 -9.722 65.897 -9.54 64.631 C-9.352 63.331 -9.163 62.031 -8.969 60.691 C-8.771 59.316 -8.573 57.94 -8.375 56.564 C-7.541 50.768 -6.704 44.972 -5.866 39.177 C-5.351 35.613 -4.837 32.05 -4.326 28.486 C-4.039 26.493 -3.749 24.5 -3.46 22.507 C-2.569 16.303 -1.752 10.123 -1.245 3.875 C-1 2 -1 2 0 0 Z " fill="#1D1D1D" transform="translate(80,40)"/>
<path d="M0 0 C0.884 -0.007 1.767 -0.013 2.678 -0.02 C5.589 -0.039 8.5 -0.043 11.411 -0.045 C13.443 -0.052 15.476 -0.059 17.508 -0.066 C21.766 -0.078 26.024 -0.081 30.281 -0.08 C35.722 -0.08 41.162 -0.107 46.602 -0.142 C50.8 -0.164 54.998 -0.168 59.195 -0.167 C61.2 -0.169 63.205 -0.178 65.21 -0.194 C68.022 -0.213 70.833 -0.207 73.645 -0.195 C74.463 -0.207 75.281 -0.218 76.125 -0.229 C82.755 -0.158 88.905 1.459 93.907 6.011 C99.75 12.261 100.428 19.394 101.218 27.6 C101.323 28.625 101.427 29.651 101.535 30.707 C101.761 32.93 101.985 35.153 102.206 37.376 C102.681 42.127 103.181 46.876 103.679 51.625 C104.604 60.455 105.52 69.285 106.396 78.12 C107.007 84.276 107.649 90.429 108.309 96.581 C108.553 98.909 108.787 101.239 109.009 103.57 C110.169 115.686 111.558 126.521 117.275 137.415 C121.358 145.224 121.642 153.351 119.305 161.888 C116.912 167.36 112.831 171.106 107.325 173.423 C106.563 173.71 105.801 173.996 105.016 174.291 C105.01 175.144 105.005 175.997 104.999 176.876 C104.941 184.925 104.869 192.973 104.781 201.021 C104.736 205.158 104.697 209.296 104.67 213.433 C104.644 217.428 104.603 221.422 104.553 225.416 C104.537 226.938 104.525 228.461 104.519 229.983 C104.509 232.119 104.481 234.254 104.449 236.389 C104.443 236.996 104.443 236.996 104.415 240.07 C103.975 243.626 103.221 245.484 101.016 248.291 C97.907 250.242 95.499 250.543 91.861 250.551 C91.341 250.555 91.341 250.555 88.705 250.573 C87.568 250.57 86.431 250.568 85.259 250.565 C84.057 250.57 82.855 250.575 81.616 250.581 C78.323 250.592 75.03 250.595 71.736 250.592 C68.985 250.591 66.234 250.596 63.483 250.601 C56.992 250.612 50.502 250.612 44.011 250.606 C37.318 250.6 30.626 250.612 23.933 250.634 C18.183 250.651 12.434 250.657 6.684 250.654 C3.252 250.652 -0.181 250.655 -3.613 250.669 C-7.441 250.684 -11.269 250.674 -15.097 250.663 C-16.232 250.67 -17.367 250.678 -18.537 250.686 C-19.581 250.679 -20.626 250.672 -21.702 250.665 C-22.606 250.665 -23.511 250.665 -24.443 250.665 C-27.545 250.208 -29.436 249.087 -31.984 247.291 C-34.45 243.926 -34.258 240.578 -34.302 236.502 C-34.313 235.829 -34.323 235.155 -34.333 234.461 C-34.364 232.243 -34.381 230.025 -34.398 227.806 C-34.416 226.265 -34.436 224.724 -34.456 223.182 C-34.508 219.132 -34.547 215.081 -34.585 211.03 C-34.625 206.894 -34.676 202.758 -34.726 198.623 C-34.823 190.512 -34.907 182.401 -34.984 174.291 C-35.256 174.163 -35.256 174.163 -36.633 173.519 C-37.349 173.174 -38.066 172.829 -38.804 172.474 C-39.513 172.137 -40.222 171.8 -40.953 171.452 C-45.701 168.736 -48.303 164.412 -49.984 159.291 C-51.247 150.305 -50.61 143.666 -46.203 135.818 C-40.587 124.813 -39.424 113.219 -37.843 101.103 C-37.508 98.705 -37.17 96.307 -36.83 93.909 C-35.947 87.649 -35.094 81.385 -34.25 75.12 C-32.893 65.066 -31.498 55.017 -30.087 44.97 C-29.602 41.479 -29.136 37.987 -28.671 34.493 C-28.375 32.345 -28.077 30.196 -27.78 28.048 C-27.718 27.568 -27.718 27.568 -27.408 25.139 C-26.167 16.408 -23.885 9.242 -16.96 3.482 C-11.495 0.187 -6.181 -0.007 0 0 Z M-14.984 13.291 C-17.52 17.095 -17.802 20.707 -18.386 25.138 C-18.509 26.023 -18.632 26.909 -18.759 27.821 C-19.154 30.664 -19.538 33.508 -19.921 36.353 C-20.427 40.053 -20.937 43.752 -21.448 47.451 C-21.575 48.369 -21.701 49.287 -21.832 50.232 C-22.741 56.755 -23.785 63.246 -24.896 69.736 C-26.411 78.666 -27.587 87.64 -28.786 96.616 C-29.487 101.846 -30.214 107.071 -30.984 112.291 C-31.097 113.058 -31.21 113.825 -31.326 114.615 C-31.671 116.903 -32.037 119.187 -32.409 121.47 C-32.512 122.153 -32.614 122.835 -32.72 123.538 C-33.56 128.488 -35.211 132.05 -37.671 136.353 C-41.728 143.804 -42.691 150.934 -40.984 159.291 C-39.124 162.759 -39.124 162.759 -35.984 165.291 C-32.354 165.291 -28.724 165.291 -24.984 165.291 C-24.984 190.371 -24.984 215.451 -24.984 241.291 C14.616 241.291 54.216 241.291 95.016 241.291 C95.016 216.211 95.016 191.131 95.016 165.291 C98.316 165.291 101.616 165.291 105.016 165.291 C107.951 163.494 109.488 162.346 111.016 159.291 C111.278 156.849 111.433 154.488 111.516 152.041 C111.589 150.736 111.661 149.431 111.735 148.087 C111.478 143.779 109.835 141.084 107.66 137.399 C102.52 127.796 102.026 117.431 100.997 106.759 C100.767 104.593 100.536 102.427 100.301 100.261 C99.695 94.594 99.12 88.924 98.553 83.253 C97.974 77.509 97.367 71.769 96.76 66.029 C96.077 59.557 95.396 53.086 94.741 46.612 C94.27 41.975 93.784 37.341 93.279 32.708 C93.11 31.156 92.945 29.602 92.785 28.048 C92.581 26.095 92.351 24.145 92.119 22.195 C92.001 21.157 91.883 20.119 91.762 19.049 C90.673 15.021 88.617 12.514 85.323 9.996 C81.637 8.868 77.924 8.996 74.104 9 C73.205 8.993 72.305 8.987 71.378 8.98 C68.405 8.961 65.431 8.957 62.458 8.955 C60.39 8.948 58.323 8.941 56.256 8.934 C51.922 8.922 47.589 8.919 43.255 8.92 C37.702 8.92 32.15 8.893 26.597 8.858 C22.327 8.836 18.058 8.832 13.788 8.833 C11.741 8.831 9.693 8.822 7.646 8.806 C4.783 8.787 1.921 8.793 -0.942 8.805 C-1.788 8.793 -2.633 8.782 -3.504 8.771 C-8.6 8.825 -11.303 9.436 -14.984 13.291 Z " fill="#FDFDFD" transform="translate(92.983642578125,2.70947265625)"/>
<path d="M0 0 C0.898 -0.007 1.796 -0.013 2.721 -0.02 C5.695 -0.039 8.669 -0.043 11.643 -0.045 C13.71 -0.052 15.776 -0.059 17.843 -0.066 C22.178 -0.078 26.513 -0.081 30.848 -0.08 C36.4 -0.08 41.951 -0.107 47.503 -0.142 C51.773 -0.164 56.042 -0.168 60.312 -0.167 C62.359 -0.169 64.405 -0.178 66.452 -0.194 C69.317 -0.213 72.181 -0.207 75.047 -0.195 C75.469 -0.201 75.469 -0.201 77.602 -0.229 C82.937 -0.172 86 0.726 90.218 4.291 C92.592 7.852 92.757 10.097 93.26 14.337 C93.305 14.705 93.305 14.705 93.531 16.565 C93.831 19.056 94.118 21.548 94.405 24.041 C94.615 25.815 94.824 27.589 95.035 29.363 C95.637 34.482 96.226 39.602 96.81 44.723 C97.171 47.882 97.533 51.04 97.896 54.199 C98.871 62.687 99.834 71.176 100.79 79.666 C101.029 81.784 101.27 83.903 101.511 86.021 C101.968 90.037 102.415 94.054 102.862 98.072 C102.999 99.273 103.137 100.475 103.278 101.713 C103.402 102.843 103.526 103.972 103.654 105.136 C103.764 106.112 103.873 107.087 103.985 108.092 C104.28 112.149 104.218 116.224 104.218 120.291 C90.028 120.291 75.838 120.291 61.218 120.291 C60.888 119.301 60.558 118.311 60.218 117.291 C58.898 117.291 57.578 117.291 56.218 117.291 C56.053 117.786 56.053 117.786 55.218 120.291 C54.352 120.301 53.486 120.311 52.594 120.322 C44.428 120.42 36.262 120.522 28.096 120.63 C23.898 120.685 19.7 120.738 15.502 120.788 C11.449 120.836 7.397 120.888 3.345 120.943 C1.8 120.964 0.255 120.983 -1.29 121 C-3.457 121.024 -5.623 121.054 -7.789 121.085 C-9.022 121.101 -10.254 121.116 -11.524 121.132 C-14.782 121.291 -14.782 121.291 -17.657 121.866 C-18.358 122.006 -19.06 122.146 -19.782 122.291 C-20.112 121.961 -20.442 121.631 -20.782 121.291 C-22.631 121.057 -24.487 120.877 -26.345 120.728 C-26.851 120.686 -26.851 120.686 -29.411 120.474 C-30.194 120.414 -30.976 120.353 -31.782 120.291 C-31.245 110.143 -29.799 100.233 -28.233 90.204 C-27.41 84.883 -26.631 79.555 -25.845 74.228 C-25.503 71.916 -25.16 69.603 -24.818 67.291 C-23.97 61.559 -23.124 55.826 -22.28 50.094 C-21.786 46.749 -21.284 43.404 -20.782 40.06 C-20.082 35.374 -19.422 30.684 -18.782 25.99 C-18.449 23.632 -18.116 21.274 -17.782 18.916 C-17.641 17.822 -17.499 16.728 -17.353 15.601 C-15.99 6.163 -15.99 6.163 -11.782 2.291 C-7.867 -0.32 -4.544 -0.005 0 0 Z M-11.782 28.291 C-13.251 31.228 -13.397 34.343 -13.798 37.568 C-13.846 37.941 -13.846 37.941 -14.089 39.829 C-14.297 41.448 -14.504 43.066 -14.71 44.685 C-15.257 48.995 -15.816 53.303 -16.376 57.611 C-16.434 58.053 -16.434 58.053 -16.724 60.289 C-18.107 70.867 -19.632 81.424 -21.17 91.98 C-21.271 92.675 -21.372 93.37 -21.476 94.086 C-21.745 95.944 -22.017 97.801 -22.289 99.659 C-22.86 103.86 -23.314 108.077 -23.782 112.291 C15.818 112.291 55.418 112.291 96.218 112.291 C95.582 101.483 94.878 90.755 93.843 79.99 C93.712 78.611 93.581 77.233 93.45 75.854 C93.18 73.006 92.908 70.159 92.634 67.311 C92.283 63.668 91.938 60.025 91.595 56.381 C91.328 53.552 91.058 50.724 90.787 47.896 C90.596 45.902 90.408 43.907 90.22 41.913 C90.103 40.707 89.986 39.501 89.866 38.258 C89.765 37.199 89.663 36.14 89.559 35.049 C89.218 32.291 89.218 32.291 88.218 28.291 C55.218 28.291 22.218 28.291 -11.782 28.291 Z " fill="#909090" transform="translate(91.782470703125,11.70947265625)"/>
<path d="M0 0 C1.65 0.33 3.3 0.66 5 1 C5 1.99 5 2.98 5 4 C19.52 4 34.04 4 49 4 C55 16 55 16 55 20 C5.5 20 -44 20 -95 20 C-94.195 15.172 -93.602 12.732 -91.438 8.625 C-90.982 7.751 -90.527 6.877 -90.059 5.977 C-89.709 5.324 -89.36 4.672 -89 4 C-87.104 3.973 -85.208 3.954 -83.312 3.938 C-82.257 3.926 -81.201 3.914 -80.113 3.902 C-77.277 3.991 -74.77 4.446 -72 5 C-71.67 4.67 -71.34 4.34 -71 4 C-68.822 3.906 -66.641 3.883 -64.461 3.886 C-63.778 3.886 -63.095 3.886 -62.391 3.886 C-60.124 3.887 -57.857 3.895 -55.59 3.902 C-54.022 3.904 -52.454 3.906 -50.886 3.907 C-46.751 3.91 -42.617 3.92 -38.482 3.931 C-34.266 3.942 -30.05 3.946 -25.834 3.951 C-17.556 3.962 -9.278 3.979 -1 4 C-0.67 2.68 -0.34 1.36 0 0 Z " fill="#282928" transform="translate(148,128)"/>
<path d="M0 0 C1.262 -0.012 2.524 -0.024 3.824 -0.037 C5.027 -0.039 6.23 -0.041 7.469 -0.043 C8.023 -0.045 8.023 -0.045 10.826 -0.055 C13.5 0.188 13.5 0.188 15.5 2.188 C15.727 4.709 15.727 4.709 15.695 7.852 C15.689 8.973 15.682 10.095 15.676 11.25 C15.659 12.426 15.642 13.601 15.625 14.812 C15.616 15.996 15.607 17.179 15.598 18.398 C15.574 21.328 15.541 24.258 15.5 27.188 C12.755 28.56 10.538 28.317 7.469 28.32 C6.867 28.321 6.867 28.321 3.824 28.324 C2.562 28.32 1.3 28.316 0 28.312 C-1.262 28.316 -2.524 28.32 -3.824 28.324 C-5.027 28.323 -6.23 28.322 -7.469 28.32 C-8.577 28.319 -9.685 28.318 -10.826 28.317 C-13.5 28.188 -13.5 28.188 -15.5 27.188 C-15.5 18.608 -15.5 10.028 -15.5 1.188 C-11.037 -1.044 -4.901 0.003 0 0 Z " fill="#959595" transform="translate(165.5,173.8125)"/>
<path d="M0 0 C0.517 -0.003 0.517 -0.003 3.135 -0.019 C3.695 -0.017 3.695 -0.017 6.531 -0.007 C7.678 -0.009 8.824 -0.011 10.006 -0.013 C12.434 -0.014 14.861 -0.01 17.289 -0.002 C21.016 0.009 24.742 -0.002 28.469 -0.015 C30.823 -0.013 33.177 -0.011 35.531 -0.007 C36.652 -0.011 37.773 -0.015 38.928 -0.019 C39.962 -0.013 40.997 -0.006 42.062 0 C42.519 0.001 42.519 0.001 44.83 0.005 C47.031 0.259 47.031 0.259 49.031 2.259 C49.285 4.764 49.285 4.764 49.29 7.962 C49.296 9.157 49.303 10.351 49.309 11.582 C49.305 12.878 49.301 14.174 49.297 15.509 C49.298 16.846 49.3 18.184 49.303 19.521 C49.306 22.326 49.301 25.13 49.292 27.935 C49.281 31.533 49.287 35.131 49.299 38.729 C49.306 41.491 49.304 44.254 49.299 47.016 C49.297 48.989 49.303 50.962 49.309 52.936 C49.303 54.13 49.297 55.325 49.29 56.556 C49.288 57.611 49.287 58.667 49.285 59.754 C49.031 62.259 49.031 62.259 47.031 64.259 C44.83 64.513 44.83 64.513 42.062 64.518 C41.028 64.524 39.994 64.53 38.928 64.537 C38.367 64.535 38.367 64.535 35.531 64.524 C34.958 64.525 34.958 64.525 32.057 64.53 C29.629 64.532 27.201 64.528 24.773 64.52 C21.047 64.509 17.32 64.519 13.594 64.532 C11.24 64.531 8.885 64.528 6.531 64.524 C5.41 64.528 4.29 64.533 3.135 64.537 C2.1 64.53 1.066 64.524 0 64.518 C-0.913 64.516 -1.827 64.514 -2.768 64.513 C-4.969 64.259 -4.969 64.259 -6.969 62.259 C-7.223 59.754 -7.223 59.754 -7.228 56.556 C-7.234 55.361 -7.24 54.166 -7.247 52.936 C-7.243 51.64 -7.239 50.344 -7.234 49.009 C-7.236 47.671 -7.238 46.334 -7.24 44.996 C-7.243 42.192 -7.239 39.387 -7.229 36.583 C-7.218 32.985 -7.225 29.387 -7.237 25.789 C-7.244 23.026 -7.242 20.264 -7.236 17.502 C-7.234 15.528 -7.24 13.555 -7.247 11.582 C-7.24 10.387 -7.234 9.193 -7.228 7.962 C-7.226 6.906 -7.224 5.851 -7.223 4.764 C-6.736 -0.039 -4.184 0.007 0 0 Z M-4.969 3.259 C-5.068 5.064 -5.097 6.873 -5.098 8.681 C-5.101 9.839 -5.104 10.996 -5.108 12.189 C-5.106 13.45 -5.104 14.71 -5.102 16.009 C-5.103 17.292 -5.103 18.576 -5.104 19.898 C-5.106 22.619 -5.104 25.339 -5.099 28.06 C-5.093 31.554 -5.097 35.048 -5.103 38.542 C-5.107 41.864 -5.104 45.186 -5.102 48.509 C-5.104 49.769 -5.106 51.03 -5.108 52.328 C-5.105 53.486 -5.101 54.644 -5.098 55.837 C-5.097 56.862 -5.097 57.887 -5.096 58.943 C-4.969 61.259 -4.969 61.259 -3.969 62.259 C-2.409 62.357 -0.844 62.387 0.719 62.388 C1.716 62.391 2.714 62.394 3.742 62.398 C4.828 62.396 5.913 62.394 7.031 62.392 C7.584 62.392 7.584 62.392 10.383 62.395 C12.727 62.395 15.07 62.393 17.414 62.389 C21.016 62.384 24.617 62.389 28.219 62.396 C30.49 62.395 32.76 62.394 35.031 62.392 C36.117 62.394 37.202 62.396 38.32 62.398 C39.318 62.395 40.316 62.391 41.344 62.388 C41.785 62.388 41.785 62.388 44.02 62.386 C46.031 62.259 46.031 62.259 47.031 61.259 C47.13 59.454 47.159 57.645 47.161 55.837 C47.162 55.258 47.162 55.258 47.17 52.328 C47.168 51.068 47.166 49.807 47.164 48.509 C47.165 47.225 47.166 45.942 47.167 44.619 C47.168 41.899 47.166 39.178 47.162 36.458 C47.156 32.964 47.159 29.47 47.165 25.976 C47.17 22.654 47.167 19.331 47.164 16.009 C47.166 14.748 47.168 13.488 47.17 12.189 C47.167 11.032 47.164 9.874 47.161 8.681 C47.16 7.656 47.159 6.63 47.158 5.574 C47.031 3.259 47.031 3.259 46.031 2.259 C44.471 2.16 42.907 2.131 41.344 2.129 C40.346 2.126 39.348 2.123 38.32 2.12 C37.778 2.121 37.778 2.121 35.031 2.126 C33.925 2.125 32.819 2.124 31.68 2.123 C29.336 2.122 26.992 2.124 24.648 2.128 C21.047 2.134 17.445 2.128 13.844 2.122 C11.573 2.123 9.302 2.124 7.031 2.126 C6.489 2.125 6.489 2.125 3.742 2.12 C2.744 2.123 1.747 2.126 0.719 2.129 C0.277 2.13 0.277 2.13 -1.957 2.132 C-3.969 2.259 -3.969 2.259 -4.969 3.259 Z " fill="#AFB0AF" transform="translate(78.96875,171.7412109375)"/>
<path d="M0 0 C6.6 0 13.2 0 20 0 C20 5.28 20 10.56 20 16 C13.4 16 6.8 16 0 16 C0 10.72 0 5.44 0 0 Z " fill="#282828" transform="translate(152,20)"/>
<path d="M0 0 C6.6 0 13.2 0 20 0 C20 5.28 20 10.56 20 16 C13.4 16 6.8 16 0 16 C0 10.72 0 5.44 0 0 Z " fill="#282828" transform="translate(88,20)"/>
<path d="M0 0 C0.415 -0.005 0.415 -0.005 2.518 -0.029 C3.412 -0.028 4.306 -0.027 5.227 -0.026 C6.147 -0.03 7.068 -0.035 8.017 -0.039 C9.964 -0.045 11.911 -0.045 13.857 -0.041 C16.84 -0.038 19.822 -0.061 22.805 -0.087 C24.695 -0.089 26.586 -0.09 28.477 -0.089 C29.37 -0.098 30.264 -0.107 31.185 -0.117 C31.601 -0.113 31.601 -0.113 33.703 -0.098 C34.434 -0.098 35.164 -0.099 35.917 -0.1 C38.423 0.385 39.311 1.272 40.852 3.275 C41.24 5.954 41.24 5.954 41.25 9.15 C41.252 9.725 41.252 9.725 41.262 12.634 C41.25 13.835 41.239 15.037 41.227 16.275 C41.238 17.476 41.25 18.677 41.262 19.915 C41.258 21.065 41.254 22.215 41.25 23.4 C41.247 24.454 41.243 25.509 41.24 26.595 C40.789 29.705 40.278 30.377 37.852 32.275 C35.917 32.656 35.917 32.656 33.703 32.663 C33.288 32.668 33.288 32.668 31.185 32.691 C30.291 32.685 29.397 32.679 28.477 32.673 C28.016 32.675 28.016 32.675 25.686 32.682 C23.739 32.684 21.792 32.678 19.846 32.666 C16.863 32.65 13.881 32.666 10.898 32.685 C9.008 32.683 7.117 32.679 5.227 32.673 C4.333 32.679 3.439 32.685 2.518 32.691 C2.103 32.687 2.103 32.687 0 32.663 C-0.73 32.66 -1.461 32.658 -2.213 32.656 C-4.719 32.162 -5.61 31.281 -7.148 29.275 C-7.537 26.487 -7.537 26.487 -7.547 23.146 C-7.549 22.546 -7.549 22.546 -7.559 19.511 C-7.547 18.257 -7.535 17.004 -7.523 15.712 C-7.535 14.455 -7.547 13.197 -7.559 11.902 C-7.555 10.703 -7.551 9.505 -7.547 8.271 C-7.543 7.169 -7.54 6.068 -7.537 4.933 C-7.409 4.055 -7.28 3.178 -7.148 2.275 C-4.087 0.234 -3.451 0.022 0 0 Z M-5.148 4.275 C-5.407 6.673 -5.407 6.673 -5.414 9.65 C-5.417 10.717 -5.419 11.784 -5.422 12.884 C-5.414 14.003 -5.406 15.122 -5.398 16.275 C-5.406 17.394 -5.414 18.512 -5.422 19.665 C-5.419 20.733 -5.417 21.8 -5.414 22.9 C-5.412 23.882 -5.41 24.864 -5.407 25.876 C-5.148 28.275 -5.148 28.275 -3.148 30.275 C-0.159 30.475 2.736 30.554 5.727 30.54 C6.607 30.542 7.487 30.544 8.394 30.546 C10.257 30.547 12.12 30.544 13.982 30.535 C16.84 30.525 19.697 30.535 22.555 30.548 C24.362 30.547 26.169 30.544 27.977 30.54 C28.406 30.542 28.406 30.542 30.578 30.553 C36.622 30.505 36.622 30.505 38.852 28.275 C39.11 25.876 39.11 25.876 39.117 22.9 C39.12 21.832 39.122 20.765 39.125 19.665 C39.121 19.106 39.121 19.106 39.102 16.275 C39.109 15.156 39.117 14.037 39.125 12.884 C39.122 11.817 39.12 10.749 39.117 9.65 C39.115 8.667 39.113 7.685 39.11 6.673 C38.852 4.275 38.852 4.275 36.852 2.275 C33.862 2.075 30.967 1.995 27.977 2.009 C27.096 2.007 26.216 2.005 25.309 2.003 C23.446 2.002 21.583 2.006 19.721 2.014 C16.863 2.025 14.006 2.014 11.148 2.001 C9.341 2.003 7.534 2.005 5.727 2.009 C5.297 2.007 5.297 2.007 3.125 1.997 C-2.919 2.045 -2.919 2.045 -5.148 4.275 Z " fill="#AEAFAE" transform="translate(143.1484375,207.725341796875)"/>
<path d="M0 0 C0.652 -0.004 1.304 -0.008 1.976 -0.012 C3.354 -0.014 4.732 -0.007 6.109 0.01 C8.213 0.031 10.313 0.01 12.416 -0.016 C13.757 -0.013 15.097 -0.008 16.438 0 C17.654 0.005 18.871 0.009 20.125 0.014 C23.285 0.531 23.285 0.531 25.68 2.221 C27.638 5.04 27.8 6.619 27.816 10.031 C27.819 10.557 27.819 10.557 27.832 13.219 C27.817 14.312 27.801 15.405 27.785 16.531 C27.801 17.624 27.816 18.718 27.832 19.844 C27.827 20.896 27.822 21.947 27.816 23.031 C27.812 23.99 27.807 24.949 27.803 25.938 C27.117 29.376 26.141 30.514 23.285 32.531 C20.125 33.065 20.125 33.065 16.438 33.098 C15.784 33.104 15.131 33.11 14.458 33.116 C13.083 33.124 11.707 33.12 10.331 33.108 C8.225 33.094 6.123 33.128 4.018 33.166 C2.678 33.167 1.339 33.165 0 33.16 C-1.216 33.161 -2.431 33.162 -3.684 33.162 C-6.715 32.531 -6.715 32.531 -8.61 30.328 C-9.772 27.387 -10.102 25.303 -10.113 22.152 C-10.117 21.149 -10.121 20.145 -10.125 19.111 C-10.113 18.074 -10.102 17.037 -10.09 15.969 C-10.101 14.928 -10.113 13.887 -10.125 12.814 C-10.121 11.812 -10.117 10.81 -10.113 9.777 C-10.11 8.867 -10.107 7.956 -10.103 7.017 C-9.11 0.655 -5.978 0.022 0 0 Z M-6.715 3.531 C-6.715 12.111 -6.715 20.691 -6.715 29.531 C-3.97 30.904 -1.753 30.661 1.316 30.664 C2.519 30.665 3.722 30.667 4.961 30.668 C5.592 30.666 5.592 30.666 8.785 30.656 C10.047 30.66 11.309 30.664 12.609 30.668 C13.211 30.667 13.211 30.667 16.254 30.664 C17.362 30.663 18.47 30.662 19.611 30.661 C22.285 30.531 22.285 30.531 24.285 29.531 C24.343 25.406 24.379 21.281 24.41 17.156 C24.419 16.568 24.419 16.568 24.461 13.594 C24.467 12.472 24.474 11.351 24.48 10.195 C24.491 9.158 24.501 8.122 24.512 7.053 C24.285 4.531 24.285 4.531 22.285 2.531 C19.611 2.288 19.611 2.288 16.254 2.301 C15.051 2.303 13.849 2.305 12.609 2.307 C11.347 2.319 10.085 2.331 8.785 2.344 C7.523 2.344 6.261 2.345 4.961 2.346 C-4.434 2.391 -4.434 2.391 -6.715 3.531 Z " fill="#ACADAC" transform="translate(156.71484375,171.46875)"/>
<path d="M0 0 C0.833 0.005 1.665 0.01 2.523 0.016 C3.422 0.019 4.321 0.022 5.248 0.026 C5.721 0.03 5.721 0.03 8.113 0.051 C9.062 0.056 10.012 0.06 10.99 0.065 C13.344 0.077 15.697 0.093 18.051 0.114 C18.051 1.434 18.051 2.754 18.051 4.114 C18.355 5.786 18.682 7.454 19.051 9.114 C14.613 10.225 10.281 10.229 5.738 10.176 C4.997 10.172 4.257 10.167 3.494 10.162 C1.679 10.151 -0.135 10.133 -1.949 10.114 C-1.949 8.794 -1.949 7.474 -1.949 6.114 C-2.135 5.227 -2.321 4.34 -2.512 3.426 C-2.656 2.663 -2.801 1.9 -2.949 1.114 C-1.949 0.114 -1.949 0.114 0 0 Z " fill="#26282D" transform="translate(91.949462890625,133.886474609375)"/>
<path d="M0 0 C1.675 0.286 3.344 0.618 5 1 C5 1.66 5 2.32 5 3 C28.1 3 51.2 3 75 3 C75 3.33 75 3.66 75 4 C74.134 4.01 73.268 4.021 72.376 4.031 C64.21 4.129 56.044 4.232 47.878 4.339 C43.68 4.394 39.482 4.448 35.284 4.497 C31.232 4.545 27.18 4.597 23.127 4.653 C21.582 4.673 20.037 4.692 18.492 4.709 C16.326 4.733 14.16 4.763 11.993 4.795 C11.377 4.802 11.377 4.802 8.259 4.842 C5.387 4.981 2.792 5.341 0 6 C-0.382 4.344 -0.714 2.675 -1 1 C-0.67 0.67 -0.34 0.34 0 0 Z " fill="#828282" transform="translate(72,128)"/>
<path d="M0 0 C0.833 0.005 1.665 0.01 2.523 0.016 C3.422 0.019 4.321 0.022 5.248 0.026 C5.721 0.03 5.721 0.03 8.113 0.051 C9.062 0.056 10.012 0.06 10.99 0.065 C13.344 0.077 15.697 0.093 18.051 0.114 C17.721 1.764 17.391 3.414 17.051 5.114 C10.451 5.114 3.851 5.114 -2.949 5.114 C-2.949 0.172 -2.949 0.172 0 0 Z " fill="#222B22" transform="translate(168.949462890625,132.886474609375)"/>
<path d="M0 0 C-0.165 0.743 -0.33 1.485 -0.5 2.25 C-1 5 -1 5 -1 9 C-3.31 8.67 -5.62 8.34 -8 8 C-9.125 5.688 -9.125 5.688 -10 3 C-7.01 -1.485 -4.878 -1.187 0 0 Z " fill="#26282D" transform="translate(111,135)"/>
<path d="M0 0 C0.66 0.99 1.32 1.98 2 3 C2.66 3 3.32 3 4 3 C4.66 2.01 5.32 1.02 6 0 C6.99 0.66 7.98 1.32 9 2 C8.67 2.99 8.34 3.98 8 5 C5.229 6.386 3.067 6.188 0 6 C-0.99 5.34 -1.98 4.68 -3 4 C-2.67 3.01 -2.34 2.02 -2 1 C-1.34 0.67 -0.68 0.34 0 0 Z " fill="#191919" transform="translate(147,136)"/>
<path d="M0 0 C0.66 0.99 1.32 1.98 2 3 C2.66 3 3.32 3 4 3 C4.66 2.01 5.32 1.02 6 0 C6.99 0.66 7.98 1.32 9 2 C8.67 2.99 8.34 3.98 8 5 C5.229 6.386 3.067 6.188 0 6 C-0.99 5.34 -1.98 4.68 -3 4 C-2.67 3.01 -2.34 2.02 -2 1 C-1.34 0.67 -0.68 0.34 0 0 Z " fill="#191919" transform="translate(71,136)"/>
<path d="M0 0 C1.65 0.33 3.3 0.66 5 1 C4.67 2.65 4.34 4.3 4 6 C2.35 5.67 0.7 5.34 -1 5 C-0.67 3.35 -0.34 1.7 0 0 Z " fill="#0D770D" transform="translate(148,128)"/>
<path d="M0 0 C1.65 0.33 3.3 0.66 5 1 C4.67 2.65 4.34 4.3 4 6 C2.35 5.67 0.7 5.34 -1 5 C-0.67 3.35 -0.34 1.7 0 0 Z " fill="#3B5196" transform="translate(72,128)"/>
<path d="M0 0 C1.65 0.33 3.3 0.66 5 1 C4.67 1.99 4.34 2.98 4 4 C2.35 3.67 0.7 3.34 -1 3 C-0.67 2.01 -0.34 1.02 0 0 Z " fill="#047004" transform="translate(182,140)"/>
<path d="M0 0 C1.65 0.33 3.3 0.66 5 1 C4.67 1.99 4.34 2.98 4 4 C2.35 3.67 0.7 3.34 -1 3 C-0.67 2.01 -0.34 1.02 0 0 Z " fill="#047004" transform="translate(174,140)"/>
<path d="M0 0 C1.65 0.33 3.3 0.66 5 1 C4.67 1.99 4.34 2.98 4 4 C2.35 3.67 0.7 3.34 -1 3 C-0.67 2.01 -0.34 1.02 0 0 Z " fill="#047004" transform="translate(166,140)"/>
<path d="M0 0 C1.65 0.33 3.3 0.66 5 1 C4.67 1.99 4.34 2.98 4 4 C2.35 3.67 0.7 3.34 -1 3 C-0.67 2.01 -0.34 1.02 0 0 Z " fill="#334990" transform="translate(106,140)"/>
<path d="M0 0 C1.65 0.33 3.3 0.66 5 1 C4.67 1.99 4.34 2.98 4 4 C2.35 3.67 0.7 3.34 -1 3 C-0.67 2.01 -0.34 1.02 0 0 Z " fill="#334990" transform="translate(98,140)"/>
<path d="M0 0 C1.65 0.33 3.3 0.66 5 1 C4.67 1.99 4.34 2.98 4 4 C2.35 3.67 0.7 3.34 -1 3 C-0.67 2.01 -0.34 1.02 0 0 Z " fill="#334990" transform="translate(90,140)"/>
<path d="M0 0 C1.65 0.33 3.3 0.66 5 1 C4.67 1.99 4.34 2.98 4 4 C2.35 3.67 0.7 3.34 -1 3 C-0.67 2.01 -0.34 1.02 0 0 Z " fill="#D2B104" transform="translate(130,136)"/>
<path d="M0 0 C1.65 0.33 3.3 0.66 5 1 C4.67 1.99 4.34 2.98 4 4 C2.35 3.67 0.7 3.34 -1 3 C-0.67 2.01 -0.34 1.02 0 0 Z " fill="#D2B104" transform="translate(122,136)"/>
<path d="M0 0 C1.65 0.33 3.3 0.66 5 1 C4.67 1.99 4.34 2.98 4 4 C2.35 3.67 0.7 3.34 -1 3 C-0.67 2.01 -0.34 1.02 0 0 Z " fill="#047004" transform="translate(182,134)"/>
<path d="M0 0 C1.65 0.33 3.3 0.66 5 1 C4.67 1.99 4.34 2.98 4 4 C2.35 3.67 0.7 3.34 -1 3 C-0.67 2.01 -0.34 1.02 0 0 Z " fill="#047004" transform="translate(174,134)"/>
<path d="M0 0 C1.65 0.33 3.3 0.66 5 1 C4.67 1.99 4.34 2.98 4 4 C2.35 3.67 0.7 3.34 -1 3 C-0.67 2.01 -0.34 1.02 0 0 Z " fill="#047004" transform="translate(166,134)"/>
<path d="M0 0 C1.65 0.33 3.3 0.66 5 1 C4.67 1.99 4.34 2.98 4 4 C2.35 3.67 0.7 3.34 -1 3 C-0.67 2.01 -0.34 1.02 0 0 Z " fill="#334990" transform="translate(106,134)"/>
<path d="M0 0 C1.65 0.33 3.3 0.66 5 1 C4.67 1.99 4.34 2.98 4 4 C2.35 3.67 0.7 3.34 -1 3 C-0.67 2.01 -0.34 1.02 0 0 Z " fill="#334990" transform="translate(98,134)"/>
<path d="M0 0 C1.65 0.33 3.3 0.66 5 1 C4.67 1.99 4.34 2.98 4 4 C2.35 3.67 0.7 3.34 -1 3 C-0.67 2.01 -0.34 1.02 0 0 Z " fill="#334990" transform="translate(90,134)"/>
</svg>
