<?xml version="1.0" encoding="UTF-8"?>
<!-- Generator: visioncortex VTracer 0.6.12 -->
<svg version="1.1" xmlns="http://www.w3.org/2000/svg" width="256" height="256">
<path d="M0 0 C0.67 -0.004 1.339 -0.008 2.029 -0.012 C4.271 -0.022 6.514 -0.018 8.756 -0.014 C10.364 -0.018 11.972 -0.023 13.581 -0.029 C17.948 -0.043 22.316 -0.043 26.684 -0.041 C30.33 -0.04 33.975 -0.045 37.621 -0.049 C46.221 -0.061 54.822 -0.061 63.422 -0.055 C72.296 -0.049 81.17 -0.061 90.044 -0.083 C97.662 -0.1 105.279 -0.106 112.897 -0.103 C117.448 -0.101 121.998 -0.104 126.548 -0.118 C130.827 -0.13 135.105 -0.128 139.384 -0.115 C140.954 -0.113 142.525 -0.116 144.095 -0.124 C146.239 -0.134 148.382 -0.126 150.526 -0.114 C151.726 -0.114 152.925 -0.114 154.161 -0.114 C158.217 0.366 161.055 1.659 163.62 4.89 C164.941 9.32 164.648 14.023 164.629 18.618 C164.74 22.943 164.83 24.683 167.745 28.077 C168.597 28.798 169.449 29.518 170.327 30.261 C172.263 33.34 172.58 35.719 172.594 39.326 C172.598 39.837 172.598 39.837 172.62 42.423 C172.619 42.981 172.619 42.981 172.617 45.803 C172.624 46.982 172.631 48.161 172.637 49.376 C172.653 52.608 172.66 55.839 172.661 59.071 C172.662 61.092 172.667 63.113 172.672 65.134 C172.691 72.19 172.699 79.246 172.697 86.302 C172.696 92.87 172.717 99.437 172.749 106.005 C172.775 111.651 172.786 117.297 172.784 122.943 C172.784 126.312 172.789 129.68 172.811 133.049 C172.83 136.81 172.824 140.57 172.812 144.33 C172.824 145.44 172.835 146.549 172.846 147.692 C172.794 154.093 172.204 158.085 168.327 163.261 C167.337 163.921 166.347 164.581 165.327 165.261 C165.026 167.776 164.92 170.05 164.942 172.569 C164.936 173.322 164.931 174.075 164.926 174.85 C164.916 176.489 164.913 178.127 164.916 179.765 C164.92 182.358 164.906 184.951 164.887 187.545 C164.851 193.054 164.837 198.564 164.827 204.073 C164.814 210.447 164.793 216.82 164.747 223.194 C164.733 225.747 164.737 228.3 164.742 230.853 C164.733 232.424 164.722 233.994 164.711 235.565 C164.714 235.919 164.714 235.919 164.73 237.711 C164.676 242.056 164.07 244.853 161.327 248.261 C157.835 250.569 154.773 250.514 150.653 250.521 C149.984 250.525 149.314 250.529 148.624 250.533 C146.382 250.543 144.14 250.539 141.897 250.535 C140.289 250.54 138.681 250.545 137.072 250.551 C132.705 250.564 128.337 250.565 123.969 250.562 C120.324 250.561 116.678 250.566 113.032 250.571 C104.432 250.582 95.831 250.582 87.231 250.576 C78.357 250.57 69.483 250.583 60.61 250.604 C52.992 250.622 45.374 250.628 37.756 250.624 C33.205 250.622 28.655 250.625 24.105 250.639 C19.826 250.652 15.548 250.65 11.269 250.637 C9.699 250.634 8.128 250.637 6.558 250.645 C4.414 250.656 2.271 250.648 0.127 250.635 C-1.073 250.635 -2.272 250.635 -3.508 250.635 C-6.993 250.223 -8.866 249.323 -11.673 247.261 C-14.291 243.798 -13.946 239.89 -13.913 235.726 C-13.914 235.349 -13.914 235.349 -13.919 233.443 C-13.923 231.81 -13.922 230.178 -13.917 228.545 C-13.912 225.96 -13.921 223.375 -13.934 220.79 C-13.972 213.441 -13.99 206.092 -13.979 198.743 C-13.973 194.245 -13.991 189.748 -14.025 185.25 C-14.033 183.537 -14.031 181.825 -14.021 180.112 C-14.006 177.716 -14.023 175.321 -14.046 172.925 C-14.04 172.572 -14.04 172.572 -14.01 170.788 C-14.082 166.952 -14.509 165.446 -17.088 162.532 C-17.514 162.157 -17.514 162.157 -19.673 160.261 C-21.607 157.178 -21.927 154.804 -21.941 151.195 C-21.949 150.173 -21.958 149.151 -21.967 148.098 C-21.966 146.983 -21.965 145.868 -21.964 144.718 C-21.971 143.539 -21.977 142.36 -21.984 141.145 C-22 137.913 -22.007 134.682 -22.008 131.45 C-22.009 129.429 -22.014 127.408 -22.019 125.388 C-22.037 118.331 -22.046 111.276 -22.044 104.219 C-22.043 97.652 -22.064 91.084 -22.096 84.517 C-22.122 78.871 -22.132 73.225 -22.131 67.579 C-22.131 64.21 -22.136 60.841 -22.157 57.472 C-22.177 53.712 -22.171 49.952 -22.159 46.191 C-22.165 45.636 -22.165 45.636 -22.193 42.829 C-22.141 36.429 -21.551 32.436 -17.673 27.261 C-16.683 26.601 -15.693 25.941 -14.673 25.261 C-14.367 22.273 -14.206 19.44 -14.173 16.448 C-14.06 6.302 -14.06 6.302 -10.673 2.261 C-7.175 -0.041 -4.124 0.007 0 0 Z " fill="#E3E3E2" transform="translate(52.67344665527344,2.7393035888671875)"/>
<path d="M0 0 C3.96 0 7.92 0 12 0 C12 2.64 12 5.28 12 8 C12.571 7.999 13.142 7.998 13.731 7.997 C27.609 7.975 41.488 7.959 55.366 7.948 C62.077 7.943 68.789 7.936 75.5 7.925 C81.971 7.914 88.442 7.908 94.913 7.905 C97.388 7.903 99.863 7.9 102.338 7.894 C105.791 7.887 109.244 7.886 112.697 7.886 C113.731 7.883 114.766 7.879 115.831 7.876 C116.767 7.877 117.702 7.878 118.666 7.88 C119.483 7.879 120.301 7.878 121.143 7.877 C123 8 123 8 124 9 C124.098 10.427 124.126 11.859 124.127 13.29 C124.13 14.215 124.133 15.141 124.136 16.094 C124.135 16.606 124.135 16.606 124.129 19.195 C124.13 19.731 124.13 19.731 124.135 22.442 C124.139 26.003 124.136 29.564 124.133 33.125 C124.133 35.587 124.134 38.05 124.136 40.512 C124.137 45.681 124.135 50.849 124.13 56.018 C124.125 62.659 124.128 69.301 124.134 75.943 C124.138 81.03 124.136 86.117 124.134 91.204 C124.133 93.654 124.134 96.104 124.136 98.553 C124.139 101.97 124.135 105.388 124.129 108.805 C124.131 109.828 124.133 110.852 124.136 111.906 C124.133 112.831 124.13 113.757 124.127 114.71 C124.127 115.115 124.127 115.115 124.126 117.162 C124 119 124 119 123 120 C121.269 120.098 119.533 120.126 117.799 120.127 C116.672 120.13 115.544 120.133 114.383 120.136 C113.135 120.134 111.887 120.131 110.602 120.129 C109.296 120.131 107.991 120.133 106.645 120.135 C103.055 120.139 99.464 120.137 95.873 120.134 C92.123 120.132 88.373 120.134 84.624 120.136 C78.325 120.138 72.027 120.135 65.729 120.13 C58.437 120.125 51.145 120.127 43.853 120.132 C37.603 120.137 31.354 120.137 25.104 120.135 C21.366 120.133 17.629 120.133 13.891 120.136 C9.727 120.14 5.563 120.135 1.398 120.129 C0.151 120.131 -1.097 120.133 -2.383 120.136 C-2.947 120.134 -2.947 120.134 -5.799 120.127 C-6.785 120.127 -7.771 120.126 -8.787 120.126 C-11 120 -11 120 -12 119 C-12.098 117.573 -12.126 116.141 -12.127 114.71 C-12.13 113.785 -12.133 112.859 -12.136 111.906 C-12.135 111.394 -12.135 111.394 -12.129 108.805 C-12.131 107.733 -12.133 106.662 -12.135 105.558 C-12.139 101.997 -12.136 98.436 -12.133 94.875 C-12.133 92.413 -12.134 89.95 -12.136 87.488 C-12.137 82.319 -12.135 77.151 -12.13 71.982 C-12.125 65.341 -12.128 58.699 -12.134 52.057 C-12.138 46.97 -12.136 41.883 -12.134 36.796 C-12.133 34.346 -12.134 31.896 -12.136 29.447 C-12.139 26.03 -12.135 22.612 -12.129 19.195 C-12.131 18.172 -12.133 17.148 -12.136 16.094 C-12.133 15.169 -12.13 14.243 -12.127 13.29 C-12.127 12.885 -12.127 12.885 -12.126 10.838 C-12 9 -12 9 -11 8 C-9.147 7.928 -7.292 7.916 -5.438 7.938 C-4.426 7.947 -3.414 7.956 -2.371 7.965 C-1.98 7.971 -1.98 7.971 0 8 C0 5.36 0 2.72 0 0 Z " fill="#191919" transform="translate(72,8)"/>
<path d="M0 0 C0.67 -0.004 1.339 -0.008 2.029 -0.012 C4.271 -0.022 6.514 -0.018 8.756 -0.014 C10.364 -0.018 11.972 -0.023 13.581 -0.029 C17.948 -0.043 22.316 -0.043 26.684 -0.041 C30.33 -0.04 33.975 -0.045 37.621 -0.049 C46.221 -0.061 54.822 -0.061 63.422 -0.055 C72.296 -0.049 81.17 -0.061 90.044 -0.083 C97.662 -0.1 105.279 -0.106 112.897 -0.103 C117.448 -0.101 121.998 -0.104 126.548 -0.118 C130.827 -0.13 135.105 -0.128 139.384 -0.115 C140.954 -0.113 142.525 -0.116 144.095 -0.124 C146.239 -0.134 148.382 -0.126 150.526 -0.114 C151.726 -0.114 152.925 -0.114 154.161 -0.114 C158.217 0.366 161.055 1.659 163.62 4.89 C164.941 9.32 164.648 14.023 164.629 18.618 C164.74 22.943 164.83 24.683 167.745 28.077 C168.597 28.798 169.449 29.518 170.327 30.261 C172.263 33.34 172.58 35.719 172.594 39.326 C172.598 39.837 172.598 39.837 172.62 42.423 C172.619 42.981 172.619 42.981 172.617 45.803 C172.624 46.982 172.631 48.161 172.637 49.376 C172.653 52.608 172.66 55.839 172.661 59.071 C172.662 61.092 172.667 63.113 172.672 65.134 C172.691 72.19 172.699 79.246 172.697 86.302 C172.696 92.87 172.717 99.437 172.749 106.005 C172.775 111.651 172.786 117.297 172.784 122.943 C172.784 126.312 172.789 129.68 172.811 133.049 C172.83 136.81 172.824 140.57 172.812 144.33 C172.824 145.44 172.835 146.549 172.846 147.692 C172.794 154.093 172.204 158.085 168.327 163.261 C167.337 163.921 166.347 164.581 165.327 165.261 C165.026 167.776 164.92 170.05 164.942 172.569 C164.936 173.322 164.931 174.075 164.926 174.85 C164.916 176.489 164.913 178.127 164.916 179.765 C164.92 182.358 164.906 184.951 164.887 187.545 C164.851 193.054 164.837 198.564 164.827 204.073 C164.814 210.447 164.793 216.82 164.747 223.194 C164.733 225.747 164.737 228.3 164.742 230.853 C164.733 232.424 164.722 233.994 164.711 235.565 C164.714 235.919 164.714 235.919 164.73 237.711 C164.676 242.056 164.07 244.853 161.327 248.261 C157.835 250.569 154.773 250.514 150.653 250.521 C149.984 250.525 149.314 250.529 148.624 250.533 C146.382 250.543 144.14 250.539 141.897 250.535 C140.289 250.54 138.681 250.545 137.072 250.551 C132.705 250.564 128.337 250.565 123.969 250.562 C120.324 250.561 116.678 250.566 113.032 250.571 C104.432 250.582 95.831 250.582 87.231 250.576 C78.357 250.57 69.483 250.583 60.61 250.604 C52.992 250.622 45.374 250.628 37.756 250.624 C33.205 250.622 28.655 250.625 24.105 250.639 C19.826 250.652 15.548 250.65 11.269 250.637 C9.699 250.634 8.128 250.637 6.558 250.645 C4.414 250.656 2.271 250.648 0.127 250.635 C-1.073 250.635 -2.272 250.635 -3.508 250.635 C-6.993 250.223 -8.866 249.323 -11.673 247.261 C-14.291 243.798 -13.946 239.89 -13.913 235.726 C-13.914 235.349 -13.914 235.349 -13.919 233.443 C-13.923 231.81 -13.922 230.178 -13.917 228.545 C-13.912 225.96 -13.921 223.375 -13.934 220.79 C-13.972 213.441 -13.99 206.092 -13.979 198.743 C-13.973 194.245 -13.991 189.748 -14.025 185.25 C-14.033 183.537 -14.031 181.825 -14.021 180.112 C-14.006 177.716 -14.023 175.321 -14.046 172.925 C-14.04 172.572 -14.04 172.572 -14.01 170.788 C-14.082 166.952 -14.509 165.446 -17.088 162.532 C-17.514 162.157 -17.514 162.157 -19.673 160.261 C-21.607 157.178 -21.927 154.804 -21.941 151.195 C-21.949 150.173 -21.958 149.151 -21.967 148.098 C-21.966 146.983 -21.965 145.868 -21.964 144.718 C-21.971 143.539 -21.977 142.36 -21.984 141.145 C-22 137.913 -22.007 134.682 -22.008 131.45 C-22.009 129.429 -22.014 127.408 -22.019 125.388 C-22.037 118.331 -22.046 111.276 -22.044 104.219 C-22.043 97.652 -22.064 91.084 -22.096 84.517 C-22.122 78.871 -22.132 73.225 -22.131 67.579 C-22.131 64.21 -22.136 60.841 -22.157 57.472 C-22.177 53.712 -22.171 49.952 -22.159 46.191 C-22.165 45.636 -22.165 45.636 -22.193 42.829 C-22.141 36.429 -21.551 32.436 -17.673 27.261 C-16.683 26.601 -15.693 25.941 -14.673 25.261 C-14.367 22.273 -14.206 19.44 -14.173 16.448 C-14.06 6.302 -14.06 6.302 -10.673 2.261 C-7.175 -0.041 -4.124 0.007 0 0 Z M19.327 5.261 C18.997 6.581 18.667 7.901 18.327 9.261 C10.737 9.261 3.147 9.261 -4.673 9.261 C-4.673 16.851 -4.673 24.441 -4.673 32.261 C-6.323 32.261 -7.973 32.261 -9.673 32.261 C-11.463 33.454 -11.463 33.454 -12.673 35.261 C-13.048 37.498 -13.048 37.498 -13.048 40.164 C-13.055 41.175 -13.062 42.186 -13.069 43.227 C-13.061 44.335 -13.054 45.443 -13.046 46.585 C-13.049 47.753 -13.053 48.92 -13.057 50.124 C-13.065 53.994 -13.051 57.863 -13.037 61.733 C-13.036 64.415 -13.037 67.096 -13.038 69.777 C-13.039 75.401 -13.028 81.024 -13.01 86.647 C-12.988 93.152 -12.985 99.658 -12.991 106.164 C-12.997 112.418 -12.991 118.672 -12.98 124.926 C-12.976 127.59 -12.975 130.254 -12.977 132.917 C-12.977 136.634 -12.964 140.349 -12.948 144.066 C-12.951 145.176 -12.953 146.286 -12.956 147.43 C-12.949 148.438 -12.941 149.446 -12.934 150.485 C-12.932 151.364 -12.93 152.243 -12.928 153.149 C-12.673 155.261 -12.673 155.261 -10.673 157.261 C-8.693 157.261 -6.713 157.261 -4.673 157.261 C-4.673 184.981 -4.673 212.701 -4.673 241.261 C48.127 241.261 100.927 241.261 155.327 241.261 C155.327 213.871 155.327 186.481 155.327 158.261 C156.977 158.261 158.627 158.261 160.327 158.261 C162.115 157.067 162.115 157.067 163.327 155.261 C163.704 153.026 163.704 153.026 163.708 150.364 C163.712 149.86 163.712 149.86 163.733 147.305 C163.727 146.199 163.721 145.092 163.715 143.952 C163.72 142.786 163.725 141.62 163.731 140.419 C163.744 136.553 163.735 132.688 163.725 128.823 C163.727 126.144 163.73 123.465 163.734 120.786 C163.739 115.167 163.732 109.549 163.718 103.93 C163.701 97.432 163.707 90.934 163.723 84.436 C163.737 78.859 163.739 73.282 163.731 67.705 C163.726 64.373 163.727 61.041 163.735 57.71 C163.743 53.996 163.731 50.283 163.715 46.569 C163.718 46.016 163.718 46.016 163.733 43.216 C163.725 42.207 163.716 41.197 163.708 40.157 C163.706 39.279 163.705 38.4 163.704 37.496 C163.327 35.261 163.327 35.261 162.115 33.455 C160.327 32.261 160.327 32.261 155.327 32.261 C155.327 24.671 155.327 17.081 155.327 9.261 C114.407 9.261 73.487 9.261 31.327 9.261 C31.327 7.941 31.327 6.621 31.327 5.261 C27.367 5.261 23.407 5.261 19.327 5.261 Z " fill="#FCFBFB" transform="translate(52.67344665527344,2.7393035888671875)"/>
<path d="M0 0 C2.64 0 5.28 0 8 0 C8 36.3 8 72.6 8 110 C5.36 110 2.72 110 0 110 C0 94.49 0 78.98 0 63 C-39.6 63 -79.2 63 -120 63 C-120 56.4 -120 49.8 -120 43 C-80.4 43 -40.8 43 0 43 C0 28.81 0 14.62 0 0 Z " fill="#0E0E0E" transform="translate(188,17)"/>
<path d="M0 0 C52.8 0 105.6 0 160 0 C160 5.28 160 10.56 160 16 C107.2 16 54.4 16 0 16 C0 10.72 0 5.44 0 0 Z " fill="#3E0202" transform="translate(48,228)"/>
<path d="M0 0 C1.072 0.005 2.145 0.01 3.25 0.016 C3.786 0.013 3.786 0.013 6.5 0 C9.25 0.266 9.25 0.266 11.25 2.266 C11.502 4.38 11.502 4.38 11.504 7.048 C11.51 8.058 11.515 9.067 11.521 10.108 C11.517 11.219 11.513 12.331 11.509 13.477 C11.512 14.644 11.516 15.812 11.519 17.014 C11.527 20.221 11.525 23.427 11.519 26.634 C11.514 29.986 11.518 33.337 11.521 36.689 C11.525 42.318 11.52 47.947 11.511 53.576 C11.5 60.089 11.503 66.602 11.514 73.116 C11.523 78.702 11.525 84.288 11.52 89.875 C11.516 93.214 11.516 96.553 11.523 99.892 C11.528 103.613 11.52 107.334 11.509 111.055 C11.513 112.166 11.517 113.278 11.521 114.424 C11.515 115.433 11.51 116.443 11.504 117.483 C11.503 118.363 11.502 119.244 11.502 120.151 C11.25 122.266 11.25 122.266 9.25 124.266 C6.5 124.531 6.5 124.531 3.25 124.516 C2.714 124.518 2.714 124.518 0 124.531 C-2.75 124.266 -2.75 124.266 -4.75 122.266 C-5.002 120.151 -5.002 120.151 -5.004 117.483 C-5.01 116.473 -5.015 115.464 -5.021 114.424 C-5.017 113.312 -5.013 112.2 -5.009 111.055 C-5.012 109.887 -5.016 108.72 -5.019 107.517 C-5.027 104.31 -5.025 101.104 -5.019 97.897 C-5.014 94.546 -5.018 91.194 -5.021 87.842 C-5.025 82.213 -5.02 76.584 -5.011 70.955 C-5 64.442 -5.003 57.929 -5.014 51.416 C-5.023 45.829 -5.025 40.243 -5.02 34.656 C-5.016 31.317 -5.016 27.978 -5.023 24.639 C-5.028 20.918 -5.02 17.198 -5.009 13.477 C-5.013 12.365 -5.017 11.253 -5.021 10.108 C-5.015 9.098 -5.01 8.088 -5.004 7.048 C-5.003 6.168 -5.002 5.287 -5.002 4.38 C-4.591 0.932 -3.339 0.322 0 0 Z " fill="#7A0303" transform="translate(204.75,35.734375)"/>
<path d="M0 0 C1.072 0.005 2.145 0.01 3.25 0.016 C3.786 0.013 3.786 0.013 6.5 0 C9.25 0.266 9.25 0.266 11.25 2.266 C11.502 4.38 11.502 4.38 11.504 7.048 C11.51 8.058 11.515 9.067 11.521 10.108 C11.517 11.219 11.513 12.331 11.509 13.477 C11.512 14.644 11.516 15.812 11.519 17.014 C11.527 20.221 11.525 23.427 11.519 26.634 C11.514 29.986 11.518 33.337 11.521 36.689 C11.525 42.318 11.52 47.947 11.511 53.576 C11.5 60.089 11.503 66.602 11.514 73.116 C11.523 78.702 11.525 84.288 11.52 89.875 C11.516 93.214 11.516 96.553 11.523 99.892 C11.528 103.613 11.52 107.334 11.509 111.055 C11.513 112.166 11.517 113.278 11.521 114.424 C11.515 115.433 11.51 116.443 11.504 117.483 C11.503 118.363 11.502 119.244 11.502 120.151 C11.25 122.266 11.25 122.266 9.25 124.266 C6.5 124.531 6.5 124.531 3.25 124.516 C2.714 124.518 2.714 124.518 0 124.531 C-2.75 124.266 -2.75 124.266 -4.75 122.266 C-5.002 120.151 -5.002 120.151 -5.004 117.483 C-5.01 116.473 -5.015 115.464 -5.021 114.424 C-5.017 113.312 -5.013 112.2 -5.009 111.055 C-5.012 109.887 -5.016 108.72 -5.019 107.517 C-5.027 104.31 -5.025 101.104 -5.019 97.897 C-5.014 94.546 -5.018 91.194 -5.021 87.842 C-5.025 82.213 -5.02 76.584 -5.011 70.955 C-5 64.442 -5.003 57.929 -5.014 51.416 C-5.023 45.829 -5.025 40.243 -5.02 34.656 C-5.016 31.317 -5.016 27.978 -5.023 24.639 C-5.028 20.918 -5.02 17.198 -5.009 13.477 C-5.013 12.365 -5.017 11.253 -5.021 10.108 C-5.015 9.098 -5.01 8.088 -5.004 7.048 C-5.003 6.168 -5.002 5.287 -5.002 4.38 C-4.591 0.932 -3.339 0.322 0 0 Z " fill="#7B0202" transform="translate(44.75,35.734375)"/>
<path d="M0 0 C15.84 0 31.68 0 48 0 C48 9.24 48 18.48 48 28 C32.16 28 16.32 28 0 28 C0 18.76 0 9.52 0 0 Z " fill="#3D0000" transform="translate(104,156)"/>
<path d="M0 0 C15.84 0 31.68 0 48 0 C48 9.24 48 18.48 48 28 C32.16 28 16.32 28 0 28 C0 18.76 0 9.52 0 0 Z " fill="#BEBEBE" transform="translate(104,128)"/>
<path d="M0 0 C40.92 0 81.84 0 124 0 C124 7.59 124 15.18 124 23 C125.65 23 127.3 23 129 23 C129 23.33 129 23.66 129 24 C128.218 24.061 127.435 24.121 126.629 24.184 C126.123 24.225 126.123 24.225 123.562 24.438 C122.553 24.519 121.544 24.6 120.504 24.684 C118 25 118 25 117 26 C116.892 27.543 116.853 29.091 116.842 30.638 C116.832 31.641 116.822 32.643 116.812 33.676 C116.806 34.785 116.801 35.895 116.795 37.037 C116.785 38.198 116.775 39.359 116.765 40.555 C116.733 44.413 116.708 48.271 116.684 52.129 C116.663 54.795 116.642 57.462 116.621 60.129 C116.571 66.443 116.526 72.758 116.483 79.073 C116.433 86.26 116.378 93.447 116.323 100.634 C116.209 115.423 116.102 130.211 116 145 C115.67 145 115.34 145 115 145 C115 132.79 115 120.58 115 108 C114.34 108 113.68 108 113 108 C113 110.31 113 112.62 113 115 C112.67 115 112.34 115 112 115 C111.67 78.7 111.34 42.4 111 5 C74.37 4.67 37.74 4.34 0 4 C0 2.68 0 1.36 0 0 Z " fill="#E3E4E3" transform="translate(84,12)"/>
<path d="M0 0 C44.88 0 89.76 0 136 0 C136 2.64 136 5.28 136 8 C91.12 8 46.24 8 0 8 C0 5.36 0 2.72 0 0 Z " fill="#7E0707" transform="translate(60,208)"/>
<path d="M0 0 C0.372 23.177 0.57 46.151 -4 69 C46.16 69 96.32 69 148 69 C147.01 60.75 146.02 52.5 145 44 C144.405 37.451 143.852 31.227 143.902 24.707 C143.903 24.349 143.903 24.349 143.907 22.535 C143.912 20.294 143.925 18.053 143.938 15.812 C143.943 14.273 143.947 12.733 143.951 11.193 C143.962 7.462 143.979 3.731 144 0 C144.33 0.165 144.33 0.165 146 1 C147.871 1.228 149.747 1.41 151.625 1.562 C152.628 1.646 153.631 1.73 154.664 1.816 C155.049 1.847 155.049 1.847 157 2 C157 2.33 157 2.66 157 3 C155.35 3 153.7 3 152 3 C152 25.11 152 47.22 152 70 C99.2 70 46.4 70 -8 70 C-8 47.56 -8 25.12 -8 2 C-1 0 -1 0 0 0 Z " fill="#C2C1C1" transform="translate(56,158)"/>
<path d="M0 0 C0.505 0.006 0.505 0.006 3.059 0.035 C4.071 0.044 5.082 0.053 6.125 0.062 C6.516 0.068 6.516 0.068 8.496 0.098 C7.176 0.428 5.856 0.758 4.496 1.098 C4.496 37.398 4.496 73.698 4.496 111.098 C46.406 111.098 88.316 111.098 131.496 111.098 C131.496 111.428 131.496 111.758 131.496 112.098 C114.042 112.121 96.588 112.139 79.134 112.149 C71.03 112.155 62.926 112.162 54.823 112.173 C47.762 112.183 40.701 112.19 33.641 112.192 C29.9 112.193 26.159 112.196 22.418 112.203 C18.249 112.211 14.08 112.212 9.91 112.211 C9.286 112.213 9.286 112.213 6.124 112.222 C4.995 112.221 3.867 112.219 2.704 112.218 C1.716 112.219 0.729 112.22 -0.288 112.221 C-2.504 112.098 -2.504 112.098 -3.504 111.098 C-3.602 109.671 -3.63 108.239 -3.631 106.808 C-3.634 105.883 -3.637 104.957 -3.639 104.004 C-3.638 103.492 -3.638 103.492 -3.633 100.902 C-3.635 99.831 -3.637 98.759 -3.639 97.656 C-3.643 94.095 -3.64 90.534 -3.637 86.973 C-3.637 84.51 -3.638 82.048 -3.64 79.585 C-3.641 74.417 -3.639 69.249 -3.634 64.08 C-3.629 57.438 -3.632 50.796 -3.638 44.155 C-3.641 39.068 -3.64 33.981 -3.638 28.894 C-3.637 26.444 -3.638 23.994 -3.64 21.544 C-3.643 18.127 -3.639 14.71 -3.633 11.293 C-3.635 10.27 -3.637 9.246 -3.639 8.192 C-3.637 7.266 -3.634 6.341 -3.631 5.387 C-3.631 4.983 -3.631 4.983 -3.63 2.936 C-3.431 0.033 -2.917 0.114 0 0 Z " fill="#292929" transform="translate(63.50390625,15.90234375)"/>
<path d="M0 0 C0.33 0 0.66 0 1 0 C1 2.31 1 4.62 1 7 C-2.63 7.33 -6.26 7.66 -10 8 C-10.33 44.3 -10.66 80.6 -11 118 C-11.33 118 -11.66 118 -12 118 C-12 115.69 -12 113.38 -12 111 C-12.66 111 -13.32 111 -14 111 C-14 123.21 -14 135.42 -14 148 C-14.33 148 -14.66 148 -15 148 C-15.004 147.388 -15.008 146.775 -15.013 146.144 C-15.116 131.264 -15.225 116.385 -15.339 101.505 C-15.395 94.309 -15.448 87.113 -15.497 79.918 C-15.54 73.648 -15.586 67.379 -15.637 61.109 C-15.663 57.787 -15.688 54.466 -15.709 51.144 C-15.733 47.442 -15.763 43.74 -15.795 40.037 C-15.8 38.928 -15.806 37.819 -15.812 36.676 C-15.822 35.674 -15.832 34.671 -15.842 33.638 C-15.848 32.761 -15.855 31.885 -15.861 30.982 C-16 29 -16 29 -17 28 C-18.849 27.766 -20.705 27.587 -22.562 27.438 C-23.574 27.354 -24.586 27.27 -25.629 27.184 C-26.02 27.153 -26.02 27.153 -28 27 C-28 26.67 -28 26.34 -28 26 C-26.35 26 -24.7 26 -23 26 C-23 18.41 -23 10.82 -23 3 C-15.41 3 -7.82 3 0 3 C0 2.01 0 1.02 0 0 Z " fill="#D2CECD" transform="translate(71,9)"/>
<path d="M0 0 C9.24 0 18.48 0 28 0 C28 7.92 28 15.84 28 24 C18.76 24 9.52 24 0 24 C0 16.08 0 8.16 0 0 Z " fill="#BFBDBD" transform="translate(160,176)"/>
<path d="M0 0 C9.24 0 18.48 0 28 0 C28 7.92 28 15.84 28 24 C18.76 24 9.52 24 0 24 C0 16.08 0 8.16 0 0 Z " fill="#BFBDBD" transform="translate(68,176)"/>
<path d="M0 0 C44.88 0 89.76 0 136 0 C136 1.32 136 2.64 136 4 C91.12 4 46.24 4 0 4 C0 2.68 0 1.36 0 0 Z " fill="#810D0D" transform="translate(60,220)"/>
<path d="M0 0 C14.52 0 29.04 0 44 0 C44 3.96 44 7.92 44 12 C29.48 12 14.96 12 0 12 C0 8.04 0 4.08 0 0 Z " fill="#252525" transform="translate(140,64)"/>
<path d="M0 0 C2.875 -0.125 2.875 -0.125 6 0 C8.512 2.512 8.251 3.311 8.254 6.783 C8.257 7.287 8.257 7.287 8.271 9.842 C8.267 10.954 8.263 12.065 8.259 13.211 C8.262 14.378 8.266 15.546 8.269 16.749 C8.277 19.955 8.275 23.162 8.269 26.368 C8.264 29.72 8.268 33.072 8.271 36.423 C8.275 42.052 8.27 47.681 8.261 53.311 C8.25 59.824 8.253 66.337 8.264 72.85 C8.273 78.436 8.275 84.023 8.27 89.609 C8.266 92.948 8.266 96.287 8.273 99.626 C8.278 103.347 8.27 107.068 8.259 110.789 C8.263 111.901 8.267 113.013 8.271 114.158 C8.265 115.168 8.26 116.177 8.254 117.217 C8.253 118.098 8.252 118.978 8.252 119.885 C8 122 8 122 6 124 C3.18 124.195 3.18 124.195 -0.125 124.125 C-1.221 124.107 -2.316 124.089 -3.445 124.07 C-4.288 124.047 -5.131 124.024 -6 124 C-6 123.67 -6 123.34 -6 123 C-2.7 123 0.6 123 4 123 C4 82.74 4 42.48 4 1 C2.68 0.67 1.36 0.34 0 0 Z " fill="#7B0707" transform="translate(48,36)"/>
<path d="M0 0 C1.32 0 2.64 0 4 0 C4 40.26 4 80.52 4 122 C2.68 122 1.36 122 0 122 C0 81.74 0 41.48 0 0 Z " fill="#410000" transform="translate(203,37)"/>
<path d="M0 0 C1.32 0 2.64 0 4 0 C4 40.26 4 80.52 4 122 C2.68 122 1.36 122 0 122 C0 81.74 0 41.48 0 0 Z " fill="#3F0000" transform="translate(48,37)"/>
<path d="M0 0 C30.36 0 60.72 0 92 0 C92 1.32 92 2.64 92 4 C61.64 4 31.28 4 0 4 C0 2.68 0 1.36 0 0 Z " fill="#B4B5B4" transform="translate(84,12)"/>
<path d="M0 0 C0.33 0 0.66 0 1 0 C1 11.55 1 23.1 1 35 C1.66 35 2.32 35 3 35 C3 30.71 3 26.42 3 22 C3.33 22 3.66 22 4 22 C4 60.94 4 99.88 4 140 C3.67 140 3.34 140 3 140 C3 127.79 3 115.58 3 103 C2.34 103 1.68 103 1 103 C1 105.31 1 107.62 1 110 C0.67 110 0.34 110 0 110 C0 73.7 0 37.4 0 0 Z " fill="#D1CDCD" transform="translate(196,17)"/>
<path d="M0 0 C0.33 0 0.66 0 1 0 C1 2.31 1 4.62 1 7 C-1.145 7.165 -1.145 7.165 -12 8 C-12 19.55 -12 31.1 -12 43 C-12.66 43 -13.32 43 -14 43 C-14.049 42.085 -14.098 41.17 -14.148 40.227 C-14.186 39.632 -14.186 39.632 -14.375 36.625 C-14.445 35.442 -14.514 34.258 -14.586 33.039 C-15 30 -15 30 -17 28 C-19.602 27.586 -19.602 27.586 -22.625 27.375 C-23.628 27.3 -24.631 27.225 -25.664 27.148 C-26.435 27.099 -27.206 27.05 -28 27 C-28 26.67 -28 26.34 -28 26 C-26.35 26 -24.7 26 -23 26 C-23 18.41 -23 10.82 -23 3 C-15.41 3 -7.82 3 0 3 C0 2.01 0 1.02 0 0 Z " fill="#E3E4E3" transform="translate(71,9)"/>
<path d="M0 0 C29.04 0 58.08 0 88 0 C88 1.32 88 2.64 88 4 C58.96 4 29.92 4 0 4 C0 2.68 0 1.36 0 0 Z " fill="#242424" transform="translate(96,80)"/>
<path d="M0 0 C15.84 0 31.68 0 48 0 C48 9.24 48 18.48 48 28 C32.16 28 16.32 28 0 28 C0 18.76 0 9.52 0 0 Z M3 5 C2.594 6.99 2.251 8.993 1.938 11 C1.761 12.093 1.584 13.186 1.402 14.312 C0.943 18.519 1 22.769 1 27 C16.18 27 31.36 27 47 27 C47 21.222 46.958 16.544 46.062 11 C45.888 9.886 45.714 8.773 45.535 7.625 C45 5 45 5 44 4 C41.055 3.899 38.133 3.86 35.188 3.867 C34.303 3.866 33.419 3.865 32.509 3.864 C30.636 3.864 28.763 3.865 26.89 3.87 C24.012 3.875 21.135 3.87 18.258 3.863 C16.443 3.864 14.628 3.865 12.812 3.867 C12.379 3.866 12.379 3.866 10.186 3.861 C4.115 3.885 4.115 3.885 3 5 Z " fill="#750B0B" transform="translate(104,156)"/>
<path d="M0 0 C23.76 0 47.52 0 72 0 C72 1.32 72 2.64 72 4 C48.24 4 24.48 4 0 4 C0 2.68 0 1.36 0 0 Z " fill="#181818" transform="translate(68,72)"/>
<path d="M0 0 C23.76 0 47.52 0 72 0 C72 1.32 72 2.64 72 4 C48.24 4 24.48 4 0 4 C0 2.68 0 1.36 0 0 Z " fill="#181818" transform="translate(68,64)"/>
<path d="M0 0 C5.28 0 10.56 0 16 0 C16 5.28 16 10.56 16 16 C10.72 16 5.44 16 0 16 C0 10.72 0 5.44 0 0 Z " fill="#7D0505" transform="translate(160,180)"/>
<path d="M0 0 C5.28 0 10.56 0 16 0 C16 5.28 16 10.56 16 16 C10.72 16 5.44 16 0 16 C0 10.72 0 5.44 0 0 Z " fill="#790000" transform="translate(80,180)"/>
<path d="M0 0 C2.64 0 5.28 0 8 0 C8 7.59 8 15.18 8 23 C14.6 23 21.2 23 28 23 C28 23.33 28 23.66 28 24 C12.16 24 -3.68 24 -20 24 C-20 23.67 -20 23.34 -20 23 C-13.4 23 -6.8 23 0 23 C0 15.41 0 7.82 0 0 Z " fill="#B3B1B0" transform="translate(124,132)"/>
<path d="M0 0 C5.28 0 10.56 0 16 0 C16 5.28 16 10.56 16 16 C10.72 16 5.44 16 0 16 C0 10.72 0 5.44 0 0 Z M1 1 C1 4.63 1 8.26 1 12 C5.62 12 10.24 12 15 12 C15 8.37 15 4.74 15 1 C10.38 1 5.76 1 1 1 Z " fill="#7D1818" transform="translate(80,180)"/>
<path d="M0 0 C1.32 0 2.64 0 4 0 C4 7.59 4 15.18 4 23 C5.65 23 7.3 23 9 23 C9 23.33 9 23.66 9 24 C5.7 24 2.4 24 -1 24 C-0.67 16.08 -0.34 8.16 0 0 Z " fill="#CECCCC" transform="translate(204,12)"/>
<path d="M0 0 C1.32 0 2.64 0 4 0 C4 7.92 4 15.84 4 24 C1.03 24 -1.94 24 -5 24 C-5 23.67 -5 23.34 -5 23 C-3.35 23 -1.7 23 0 23 C0 15.41 0 7.82 0 0 Z " fill="#CECCCC" transform="translate(48,12)"/>
<path d="M0 0 C3.3 0 6.6 0 10 0 C10 2.31 10 4.62 10 7 C6.7 7 3.4 7 0 7 C0 4.69 0 2.38 0 0 Z " fill="#0C0C0C" transform="translate(73,9)"/>
<path d="M0 0 C4.62 0 9.24 0 14 0 C14 1.32 14 2.64 14 4 C9.38 4 4.76 4 0 4 C0 2.68 0 1.36 0 0 Z " fill="#3F0000" transform="translate(81,188)"/>
<path d="M0 0 C4.62 0 9.24 0 14 0 C14 0.99 14 1.98 14 3 C9.38 3 4.76 3 0 3 C0 2.01 0 1.02 0 0 Z " fill="#780000" transform="translate(81,192)"/>
<path d="M0 0 C3.3 0 6.6 0 10 0 C10 0.99 10 1.98 10 3 C6.7 3 3.4 3 0 3 C0 2.01 0 1.02 0 0 Z " fill="#C1C1C1" transform="translate(166,12)"/>
</svg>
