<?xml version="1.0" encoding="UTF-8"?>
<!-- Generator: visioncortex VTracer 0.6.12 -->
<svg version="1.1" xmlns="http://www.w3.org/2000/svg" width="256" height="256">
<path d="M0 0 C1.137 -0.007 2.274 -0.014 3.445 -0.022 C4.069 -0.023 4.069 -0.023 7.228 -0.03 C8.542 -0.036 9.856 -0.043 11.21 -0.05 C15.571 -0.071 19.931 -0.081 24.292 -0.091 C25.794 -0.095 27.297 -0.099 28.8 -0.103 C35.862 -0.123 42.924 -0.137 49.985 -0.145 C58.128 -0.155 66.271 -0.181 74.414 -0.222 C80.713 -0.252 87.012 -0.267 93.311 -0.27 C97.07 -0.272 100.83 -0.281 104.589 -0.306 C108.129 -0.33 111.669 -0.334 115.209 -0.324 C117.119 -0.323 119.028 -0.342 120.937 -0.362 C127.938 -0.319 132.615 0.293 138.53 4.147 C142.906 9.645 143.678 13.928 143.67 20.754 C143.673 21.536 143.676 22.319 143.679 23.125 C143.688 25.754 143.69 28.384 143.691 31.014 C143.696 32.897 143.701 34.779 143.706 36.661 C143.719 41.784 143.726 46.906 143.73 52.028 C143.733 55.231 143.737 58.433 143.742 61.636 C143.755 71.661 143.765 81.686 143.769 91.711 C143.773 103.272 143.791 114.833 143.82 126.393 C143.842 135.334 143.852 144.276 143.853 153.217 C143.854 158.554 143.86 163.89 143.878 169.227 C143.894 174.255 143.896 179.282 143.888 184.309 C143.887 186.147 143.891 187.986 143.901 189.824 C143.989 207.051 141.781 222.186 129.491 235.307 C117.777 246.298 104.147 250.279 88.429 250.324 C87.928 250.327 87.928 250.327 85.391 250.344 C82.086 250.364 78.781 250.375 75.475 250.385 C74.343 250.39 73.211 250.394 72.045 250.398 C66.058 250.419 60.071 250.433 54.083 250.442 C47.907 250.453 41.732 250.488 35.556 250.528 C30.798 250.554 26.04 250.562 21.282 250.566 C19.006 250.57 16.729 250.582 14.453 250.601 C11.265 250.625 8.078 250.624 4.89 250.617 C4.423 250.624 4.423 250.624 2.059 250.656 C-3.877 250.609 -8.565 249.643 -13.47 246.147 C-18.145 240.274 -18.619 235.615 -18.617 228.336 C-18.621 227.425 -18.625 226.513 -18.628 225.574 C-18.639 222.506 -18.643 219.439 -18.647 216.371 C-18.653 214.177 -18.66 211.982 -18.667 209.788 C-18.684 203.817 -18.695 197.846 -18.703 191.874 C-18.708 188.145 -18.714 184.415 -18.721 180.685 C-18.739 169.688 -18.753 158.691 -18.761 147.694 C-18.762 145.682 -18.764 143.669 -18.765 141.657 C-18.766 140.991 -18.766 140.325 -18.767 139.639 C-18.775 128.852 -18.8 118.065 -18.833 107.278 C-18.866 96.199 -18.884 85.12 -18.887 74.041 C-18.889 67.822 -18.898 61.604 -18.924 55.385 C-18.947 49.534 -18.951 43.683 -18.941 37.831 C-18.94 35.685 -18.947 33.539 -18.96 31.393 C-18.978 28.459 -18.971 25.526 -18.958 22.593 C-18.969 21.747 -18.98 20.9 -18.991 20.029 C-18.93 14.342 -17.761 9.858 -14.47 5.147 C-9.675 1.331 -6.046 0.026 0 0 Z " fill="#BEBEBE" transform="translate(65.47001647949219,2.8528289794921875)"/>
<path d="M0 0 C0.976 -0.006 1.952 -0.011 2.957 -0.017 C3.494 -0.015 3.494 -0.015 6.213 -0.005 C7.341 -0.008 8.47 -0.012 9.633 -0.015 C13.378 -0.024 17.124 -0.018 20.869 -0.012 C23.462 -0.013 26.055 -0.015 28.648 -0.017 C34.089 -0.02 39.53 -0.016 44.971 -0.007 C51.266 0.004 57.561 0.001 63.856 -0.01 C69.905 -0.021 75.955 -0.02 82.004 -0.014 C84.581 -0.012 87.159 -0.014 89.736 -0.019 C93.333 -0.024 96.929 -0.016 100.525 -0.005 C101.6 -0.009 102.674 -0.013 103.781 -0.017 C104.757 -0.011 105.733 -0.006 106.738 0 C107.589 0.001 108.44 0.002 109.317 0.002 C111.369 0.254 111.369 0.254 113.369 2.254 C113.637 5.212 113.637 5.212 113.66 9.055 C113.666 9.755 113.673 10.454 113.68 11.175 C113.699 13.496 113.703 15.816 113.705 18.137 C113.712 19.751 113.718 21.366 113.725 22.981 C113.737 26.372 113.741 29.763 113.74 33.154 C113.74 37.485 113.767 41.816 113.801 46.146 C113.824 49.486 113.828 52.824 113.827 56.164 C113.829 57.759 113.838 59.355 113.853 60.95 C113.937 70.437 114.003 77.966 107.404 85.496 C106.753 86.035 106.102 86.574 105.432 87.129 C104.783 87.683 104.135 88.238 103.467 88.809 C97.987 92.584 93.002 92.541 86.562 92.513 C86.07 92.515 86.07 92.515 83.584 92.523 C80.342 92.532 77.1 92.526 73.857 92.52 C71.605 92.521 69.352 92.523 67.1 92.525 C62.383 92.528 57.667 92.524 52.95 92.515 C46.893 92.503 40.837 92.51 34.781 92.522 C30.132 92.529 25.483 92.527 20.835 92.522 C18.601 92.52 16.367 92.522 14.133 92.527 C11.018 92.532 7.903 92.524 4.788 92.513 C4.324 92.515 4.324 92.515 1.972 92.525 C1.127 92.519 0.281 92.514 -0.59 92.508 C-1.326 92.507 -2.063 92.506 -2.821 92.506 C-4.631 92.254 -4.631 92.254 -6.631 90.254 C-6.829 87.463 -6.904 84.772 -6.89 81.981 C-6.893 81.125 -6.897 80.27 -6.9 79.388 C-6.909 76.552 -6.903 73.716 -6.896 70.879 C-6.898 68.914 -6.9 66.948 -6.902 64.983 C-6.905 60.86 -6.901 56.738 -6.892 52.615 C-6.88 47.322 -6.887 42.029 -6.899 36.736 C-6.906 32.677 -6.904 28.617 -6.898 24.558 C-6.897 22.606 -6.899 20.654 -6.903 18.702 C-6.909 15.977 -6.901 13.252 -6.89 10.527 C-6.894 9.715 -6.898 8.902 -6.902 8.065 C-6.856 2.029 -6.193 0.005 0 0 Z " fill="#5A5959" transform="translate(74.630859375,27.74603271484375)"/>
<path d="M0 0 C1.137 -0.007 2.274 -0.014 3.445 -0.022 C4.069 -0.023 4.069 -0.023 7.228 -0.03 C8.542 -0.036 9.856 -0.043 11.21 -0.05 C15.571 -0.071 19.931 -0.081 24.292 -0.091 C25.794 -0.095 27.297 -0.099 28.8 -0.103 C35.862 -0.123 42.924 -0.137 49.985 -0.145 C58.128 -0.155 66.271 -0.181 74.414 -0.222 C80.713 -0.252 87.012 -0.267 93.311 -0.27 C97.07 -0.272 100.83 -0.281 104.589 -0.306 C108.129 -0.33 111.669 -0.334 115.209 -0.324 C117.119 -0.323 119.028 -0.342 120.937 -0.362 C127.938 -0.319 132.615 0.293 138.53 4.147 C142.906 9.645 143.678 13.928 143.67 20.754 C143.673 21.536 143.676 22.319 143.679 23.125 C143.688 25.754 143.69 28.384 143.691 31.014 C143.696 32.897 143.701 34.779 143.706 36.661 C143.719 41.784 143.726 46.906 143.73 52.028 C143.733 55.231 143.737 58.433 143.742 61.636 C143.755 71.661 143.765 81.686 143.769 91.711 C143.773 103.272 143.791 114.833 143.82 126.393 C143.842 135.334 143.852 144.276 143.853 153.217 C143.854 158.554 143.86 163.89 143.878 169.227 C143.894 174.255 143.896 179.282 143.888 184.309 C143.887 186.147 143.891 187.986 143.901 189.824 C143.989 207.051 141.781 222.186 129.491 235.307 C117.777 246.298 104.147 250.279 88.429 250.324 C87.928 250.327 87.928 250.327 85.391 250.344 C82.086 250.364 78.781 250.375 75.475 250.385 C74.343 250.39 73.211 250.394 72.045 250.398 C66.058 250.419 60.071 250.433 54.083 250.442 C47.907 250.453 41.732 250.488 35.556 250.528 C30.798 250.554 26.04 250.562 21.282 250.566 C19.006 250.57 16.729 250.582 14.453 250.601 C11.265 250.625 8.078 250.624 4.89 250.617 C4.423 250.624 4.423 250.624 2.059 250.656 C-3.877 250.609 -8.565 249.643 -13.47 246.147 C-18.145 240.274 -18.619 235.615 -18.617 228.336 C-18.621 227.425 -18.625 226.513 -18.628 225.574 C-18.639 222.506 -18.643 219.439 -18.647 216.371 C-18.653 214.177 -18.66 211.982 -18.667 209.788 C-18.684 203.817 -18.695 197.846 -18.703 191.874 C-18.708 188.145 -18.714 184.415 -18.721 180.685 C-18.739 169.688 -18.753 158.691 -18.761 147.694 C-18.762 145.682 -18.764 143.669 -18.765 141.657 C-18.766 140.991 -18.766 140.325 -18.767 139.639 C-18.775 128.852 -18.8 118.065 -18.833 107.278 C-18.866 96.199 -18.884 85.12 -18.887 74.041 C-18.889 67.822 -18.898 61.604 -18.924 55.385 C-18.947 49.534 -18.951 43.683 -18.941 37.831 C-18.94 35.685 -18.947 33.539 -18.96 31.393 C-18.978 28.459 -18.971 25.526 -18.958 22.593 C-18.969 21.747 -18.98 20.9 -18.991 20.029 C-18.93 14.342 -17.761 9.858 -14.47 5.147 C-9.675 1.331 -6.046 0.026 0 0 Z M-7.789 10.619 C-10.287 14.376 -10.024 17.683 -9.978 22.105 C-9.984 23.02 -9.99 23.936 -9.997 24.879 C-10.013 27.953 -10 31.026 -9.988 34.1 C-9.993 36.301 -10 38.502 -10.009 40.703 C-10.027 46.687 -10.02 52.67 -10.007 58.653 C-9.997 64.908 -10.007 71.163 -10.013 77.418 C-10.021 88.596 -10.008 99.774 -9.988 110.952 C-9.97 121.089 -9.973 131.225 -9.992 141.362 C-10.013 153.131 -10.021 164.901 -10.009 176.67 C-10.003 182.901 -10.002 189.132 -10.015 195.363 C-10.027 201.22 -10.019 207.077 -9.996 212.934 C-9.99 215.087 -9.992 217.239 -10.001 219.392 C-10.012 222.325 -9.998 225.256 -9.978 228.189 C-9.987 229.046 -9.996 229.904 -10.005 230.787 C-9.955 234.543 -9.898 236.532 -7.714 239.675 C-5.228 241.306 -4.004 241.651 -1.059 241.662 C-0.182 241.675 0.695 241.687 1.599 241.7 C2.076 241.697 2.076 241.697 4.492 241.681 C5.504 241.689 6.516 241.698 7.559 241.707 C10.912 241.729 14.263 241.723 17.616 241.714 C19.953 241.719 22.291 241.725 24.628 241.732 C29.536 241.743 34.443 241.738 39.351 241.724 C45.609 241.706 51.867 241.73 58.125 241.765 C62.959 241.787 67.792 241.786 72.626 241.777 C74.931 241.776 77.236 241.783 79.541 241.798 C108.009 241.953 108.009 241.953 120.03 231.835 C121.564 230.306 123.067 228.745 124.53 227.147 C125.126 226.508 125.721 225.868 126.335 225.21 C135.38 214.409 135.111 201.336 135.048 188.04 C135.053 186.133 135.06 184.227 135.069 182.32 C135.087 177.176 135.08 172.032 135.067 166.888 C135.057 161.495 135.067 156.103 135.073 150.71 C135.08 141.665 135.071 132.621 135.051 123.576 C135.03 113.117 135.037 102.658 135.059 92.199 C135.077 83.209 135.079 74.218 135.069 65.228 C135.063 59.862 135.062 54.497 135.075 49.131 C135.087 44.095 135.079 39.059 135.056 34.022 C135.05 32.172 135.052 30.323 135.061 28.473 C135.072 25.953 135.058 23.433 135.038 20.912 C135.047 20.177 135.056 19.442 135.065 18.685 C135.014 15.392 134.728 13.437 132.849 10.694 C129.983 8.782 128.345 8.644 124.913 8.639 C124.341 8.634 124.341 8.634 121.446 8.605 C120.82 8.609 120.82 8.609 117.655 8.63 C116.321 8.624 114.987 8.617 113.653 8.608 C110.033 8.59 106.414 8.597 102.794 8.61 C99.005 8.62 95.217 8.611 91.428 8.604 C85.066 8.597 78.705 8.607 72.342 8.626 C64.987 8.647 57.633 8.64 50.278 8.618 C43.962 8.6 37.647 8.598 31.332 8.608 C27.56 8.614 23.789 8.615 20.017 8.602 C16.471 8.59 12.926 8.598 9.38 8.622 C7.458 8.629 5.536 8.617 3.614 8.605 C2.47 8.616 1.326 8.628 0.147 8.639 C-0.847 8.641 -1.841 8.642 -2.865 8.644 C-5.47 9.147 -5.47 9.147 -7.789 10.619 Z " fill="#FDFDFD" transform="translate(65.47001647949219,2.8528289794921875)"/>
<path d="M0 0 C23.76 0 47.52 0 72 0 C72 22.44 72 44.88 72 68 C48.24 68 24.48 68 0 68 C0 45.56 0 23.12 0 0 Z " fill="#485815" transform="translate(92,44)"/>
<path d="M0 0 C0.165 0.495 0.165 0.495 1 3 C1.34 3.289 1.34 3.289 3.062 4.75 C5 7 5 7 5.438 10.438 C4.984 14.129 4.288 16.096 2 19 C1.34 19 0.68 19 0 19 C-0.021 19.297 -0.021 19.297 -0.129 20.798 C-1.464 24.172 -3.712 24.72 -6.941 26.234 C-7.543 26.517 -8.144 26.8 -8.763 27.092 C-10.038 27.687 -11.317 28.275 -12.599 28.856 C-14.541 29.74 -16.467 30.655 -18.393 31.574 C-30.034 37.012 -30.034 37.012 -37 36 C-41.569 33.861 -41.569 33.861 -43 31 C-43.99 30.67 -44.98 30.34 -46 30 C-47.338 22.825 -47.338 22.825 -45.875 19.25 C-40.898 13.278 -34.146 10.377 -27.264 7.144 C-25.391 6.258 -23.534 5.342 -21.676 4.426 C-14.31 0.898 -8.213 -0.949 0 0 Z " fill="#B0AEAD" transform="translate(185,147)"/>
<path d="M0 0 C34.32 0 68.64 0 104 0 C104 1.98 104 3.96 104 6 C69.68 6 35.36 6 0 6 C0 4.02 0 2.04 0 0 Z " fill="#472033" transform="translate(76,32)"/>
<path d="M0 0 C25.08 0 50.16 0 76 0 C76 23.76 76 47.52 76 72 C50.92 72 25.84 72 0 72 C0 48.24 0 24.48 0 0 Z M2 2 C2 24.44 2 46.88 2 70 C25.76 70 49.52 70 74 70 C74 47.56 74 25.12 74 2 C50.24 2 26.48 2 2 2 Z " fill="#4C4E49" transform="translate(90,42)"/>
<path d="M0 0 C0.722 0.003 1.444 0.005 2.188 0.008 C2.909 0.005 3.631 0.003 4.375 0 C6.188 0.133 6.188 0.133 7.188 1.133 C7.26 2.819 7.271 4.508 7.25 6.195 C7.241 7.114 7.232 8.034 7.223 8.98 C7.211 9.691 7.199 10.401 7.188 11.133 C7.898 11.121 8.608 11.11 9.34 11.098 C10.259 11.089 11.178 11.08 12.125 11.07 C13.042 11.059 13.958 11.047 14.902 11.035 C17.188 11.133 17.188 11.133 18.188 12.133 C18.32 13.945 18.32 13.945 18.312 16.133 C18.314 16.494 18.314 16.494 18.32 18.32 C18.188 20.133 18.188 20.133 17.188 21.133 C15.501 21.205 13.812 21.217 12.125 21.195 C11.206 21.186 10.287 21.177 9.34 21.168 C8.63 21.156 7.919 21.145 7.188 21.133 C7.199 21.843 7.211 22.553 7.223 23.285 C7.232 24.204 7.241 25.123 7.25 26.07 C7.262 26.987 7.273 27.903 7.285 28.848 C7.188 31.133 7.188 31.133 6.188 32.133 C4.375 32.266 4.375 32.266 2.188 32.258 C1.466 32.26 0.744 32.263 0 32.266 C-1.812 32.133 -1.812 32.133 -2.812 31.133 C-2.885 29.447 -2.896 27.758 -2.875 26.07 C-2.866 25.151 -2.857 24.232 -2.848 23.285 C-2.836 22.575 -2.824 21.865 -2.812 21.133 C-3.523 21.144 -4.233 21.156 -4.965 21.168 C-5.884 21.177 -6.803 21.186 -7.75 21.195 C-8.667 21.207 -9.583 21.219 -10.527 21.23 C-12.812 21.133 -12.812 21.133 -13.812 20.133 C-13.945 18.32 -13.945 18.32 -13.938 16.133 C-13.939 15.772 -13.939 15.772 -13.945 13.945 C-13.812 12.133 -13.812 12.133 -12.812 11.133 C-11.126 11.061 -9.437 11.049 -7.75 11.07 C-6.831 11.079 -5.912 11.088 -4.965 11.098 C-4.255 11.109 -3.544 11.121 -2.812 11.133 C-2.824 10.423 -2.836 9.712 -2.848 8.98 C-2.852 8.521 -2.852 8.521 -2.875 6.195 C-2.887 5.279 -2.898 4.362 -2.91 3.418 C-2.792 0.652 -2.762 0.202 0 0 Z " fill="#1E1E1E" transform="translate(81.8125,155.8671875)"/>
<path d="M0 0 C3.954 0.264 5.654 0.861 8.75 3.25 C11.234 6.976 11.13 8.837 10.75 13.25 C9.495 16.073 8.466 17.713 6 19.562 C2.688 20.575 0.196 20.673 -3.25 20.25 C-7.129 17.045 -9.058 14.944 -9.625 9.938 C-9.158 5.344 -7.73 4.136 -4.25 1.25 C-3.25 0.25 -3.25 0.25 0 0 Z " fill="#7C0605" transform="translate(149.25,161.75)"/>
<path d="M0 0 C3.954 0.264 5.654 0.861 8.75 3.25 C11.234 6.976 11.13 8.837 10.75 13.25 C9.495 16.073 8.466 17.713 6 19.562 C2.688 20.575 0.196 20.673 -3.25 20.25 C-7.129 17.045 -9.058 14.944 -9.625 9.938 C-9.158 5.344 -7.73 4.136 -4.25 1.25 C-3.25 0.25 -3.25 0.25 0 0 Z " fill="#7C0605" transform="translate(179.25,147.75)"/>
<path d="M0 0 C9.216 -0.485 9.216 -0.485 12.625 1.625 C14 4 14 4 14 10 C9.38 10 4.76 10 0 10 C0 6.7 0 3.4 0 0 Z " fill="#BFBFBF" transform="translate(186,12)"/>
<path d="M0 0 C0 3.3 0 6.6 0 10 C-4.62 10 -9.24 10 -14 10 C-14 4 -14 4 -12.625 1.625 C-8.484 -0.938 -4.808 -0.253 0 0 Z " fill="#BFBFBF" transform="translate(70,12)"/>
<path d="M0 0 C-0.141 1.762 -0.141 1.762 -1 4 C-3.547 5.957 -3.547 5.957 -6.75 7.812 C-7.797 8.438 -8.843 9.063 -9.922 9.707 C-13.256 11.108 -14.626 11.118 -18 10 C-17.859 8.238 -17.859 8.238 -17 6 C-14.453 4.043 -14.453 4.043 -11.25 2.188 C-10.727 1.875 -10.727 1.875 -8.078 0.293 C-4.744 -1.108 -3.374 -1.118 0 0 Z " fill="#848484" transform="translate(144,201)"/>
<path d="M0 0 C0.355 2.258 0.355 2.258 0 5 C-2.449 7.055 -2.449 7.055 -5.688 8.875 C-6.743 9.491 -7.799 10.107 -8.887 10.742 C-12.232 12.094 -13.632 12.112 -17 11 C-16.863 9.234 -16.863 9.234 -16 7 C-13.418 5.078 -13.418 5.078 -10.188 3.25 C-9.658 2.943 -9.658 2.943 -6.98 1.391 C-4 0 -4 0 0 0 Z " fill="#838383" transform="translate(117,200)"/>
<path d="M0 0 C0.99 0 1.98 0 3 0 C5.281 2.653 6.953 5.753 8.75 8.75 C9.269 9.575 9.789 10.4 10.324 11.25 C10.81 12.049 11.296 12.848 11.797 13.672 C12.244 14.405 12.691 15.138 13.151 15.894 C14.157 18.389 13.916 19.517 13 22 C9.558 20.853 9.291 20.319 7.52 17.324 C7.078 16.578 6.637 15.833 6.182 15.064 C5.73 14.28 5.278 13.496 4.812 12.688 C4.349 11.915 3.886 11.142 3.408 10.346 C0 4.508 0 4.508 0 0 Z " fill="#9B9B9B" transform="translate(174,204)"/>
<path d="M0 0 C3.442 1.147 3.709 1.681 5.48 4.676 C5.922 5.422 6.363 6.167 6.818 6.936 C7.044 7.328 7.044 7.328 8.188 9.312 C8.651 10.085 9.114 10.858 9.592 11.654 C13 17.492 13 17.492 13 22 C12.01 22 11.02 22 10 22 C8.757 20.503 8.757 20.503 7.555 18.422 C7.118 17.673 6.681 16.924 6.23 16.152 C5.783 15.36 5.336 14.567 4.875 13.75 C4.42 12.973 3.965 12.195 3.496 11.395 C-0.392 4.646 -0.392 4.646 -1 1 C-0.67 0.67 -0.34 0.34 0 0 Z " fill="#919191" transform="translate(145,218)"/>
<path d="M0 0 C0.99 0 1.98 0 3 0 C4.35 1.589 4.35 1.589 5.699 3.797 C6.186 4.591 6.672 5.385 7.174 6.203 C7.673 7.044 8.173 7.884 8.688 8.75 C9.199 9.575 9.71 10.4 10.236 11.25 C14 17.481 14 17.481 14 22 C13.01 22 12.02 22 11 22 C9.65 20.411 9.65 20.411 8.301 18.203 C7.814 17.409 7.328 16.615 6.826 15.797 C6.327 14.956 5.827 14.116 5.312 13.25 C4.801 12.425 4.29 11.6 3.764 10.75 C0 4.519 0 4.519 0 0 Z " fill="#9B9B9B" transform="translate(159,211)"/>
<path d="M0 0 C0.99 0 1.98 0 3 0 C4.35 1.605 4.35 1.605 5.699 3.832 C6.186 4.631 6.672 5.429 7.174 6.252 C7.673 7.097 8.173 7.942 8.688 8.812 C9.199 9.646 9.71 10.479 10.236 11.338 C14 17.594 14 17.594 14 21 C11.462 20.627 10.273 20.3 8.52 18.374 C8.074 17.686 7.628 16.998 7.168 16.289 C6.924 15.914 6.924 15.914 5.689 14.016 C5.194 13.227 4.698 12.438 4.188 11.625 C3.673 10.844 3.158 10.063 2.627 9.258 C-0.162 4.897 -0.162 4.897 -1 3 C-0.67 2.01 -0.34 1.02 0 0 Z " fill="#9A9A9A" transform="translate(152,215)"/>
<path d="M0 0 C2.442 0.377 3.689 0.656 5.372 2.519 C5.77 3.158 6.168 3.798 6.578 4.457 C7.016 5.158 7.455 5.858 7.906 6.58 C8.35 7.317 8.793 8.053 9.25 8.812 C9.709 9.538 10.168 10.263 10.641 11.01 C14 16.474 14 16.474 14 21 C13.01 21 12.02 21 11 21 C9.65 19.395 9.65 19.395 8.301 17.168 C7.814 16.369 7.328 15.571 6.826 14.748 C6.327 13.903 5.827 13.058 5.312 12.188 C4.801 11.354 4.29 10.521 3.764 9.662 C0 3.406 0 3.406 0 0 Z " fill="#9A9A9A" transform="translate(166,208)"/>
<path d="M0 0 C1.32 0.33 2.64 0.66 4 1 C4 1.66 4 2.32 4 3 C4.66 3 5.32 3 6 3 C6.081 4.937 6.139 6.875 6.188 8.812 C6.222 9.891 6.257 10.97 6.293 12.082 C6 15 6 15 4.488 16.887 C3.997 17.254 3.506 17.621 3 18 C2.01 17.67 1.02 17.34 0 17 C0.66 17 1.32 17 2 17 C4.447 11.953 4.779 7.336 3 2 C2.01 1.67 1.02 1.34 0 1 C0 0.67 0 0.34 0 0 Z " fill="#AB9C9B" transform="translate(185,149)"/>
</svg>
