<?xml version="1.0" encoding="UTF-8"?>
<!-- Generator: visioncortex VTracer 0.6.12 -->
<svg version="1.1" xmlns="http://www.w3.org/2000/svg" width="256" height="256">
<path d="M0 0 C1.365 -0.003 2.731 -0.006 4.096 -0.01 C7.762 -0.019 11.428 -0.021 15.094 -0.022 C17.398 -0.023 19.702 -0.025 22.006 -0.027 C30.084 -0.037 38.163 -0.041 46.241 -0.04 C53.706 -0.039 61.171 -0.05 68.636 -0.066 C75.098 -0.079 81.56 -0.084 88.021 -0.084 C91.857 -0.083 95.693 -0.086 99.529 -0.097 C158.736 -0.251 158.736 -0.251 170.725 11.145 C175.065 16.941 177.711 22.242 178.006 29.496 C178.024 29.921 178.024 29.921 178.117 32.076 C178.153 32.99 178.188 33.903 178.225 34.844 C178.265 35.794 178.306 36.744 178.348 37.722 C178.477 40.759 178.601 43.796 178.725 46.833 C178.848 49.852 178.973 52.871 179.102 55.89 C179.181 57.766 179.258 59.643 179.332 61.52 C179.541 66.443 179.923 71.3 180.504 76.193 C181.956 89.043 182.279 103.596 175.029 114.755 C166.375 125.476 152.464 128.466 139.787 132.27 C138.903 132.537 138.018 132.805 137.107 133.08 C121.986 137.602 107.52 140.28 91.725 141.145 C90.241 141.265 88.758 141.39 87.275 141.52 C61.966 143.574 35.951 142.584 10.725 140.145 C9.512 140.042 8.3 139.939 7.051 139.833 C-3.359 138.776 -13.038 136.224 -23.023 133.142 C-25.663 132.329 -28.31 131.539 -30.959 130.753 C-56.104 123.183 -56.104 123.183 -63.275 112.145 C-69.076 100.675 -68.281 86.454 -66.785 73.966 C-66.214 68.977 -66.029 64.01 -65.881 58.993 C-65.812 57.063 -65.742 55.132 -65.672 53.202 C-65.565 50.203 -65.463 47.204 -65.377 44.204 C-65.291 41.279 -65.181 38.355 -65.068 35.43 C-65.058 34.989 -65.058 34.989 -65.008 32.756 C-64.625 23.84 -61.922 15.359 -55.275 9.145 C-40.344 -1.349 -17.281 -0.006 0 0 Z " fill="#F4F4F4" transform="translate(71.275390625,58.854736328125)"/>
<path d="M0 0 C2.727 0 5.454 -0.007 8.181 -0.021 C21.678 -0.087 35.157 -0.063 48.623 0.947 C49.566 1.008 50.509 1.069 51.481 1.132 C51.912 1.17 51.912 1.17 54.095 1.364 C54.839 1.425 55.582 1.487 56.348 1.551 C59.281 2.451 60.55 3.771 62.416 6.185 C62.973 8.727 62.973 8.727 63.054 11.63 C63.094 12.723 63.133 13.817 63.174 14.943 C63.197 16.125 63.221 17.307 63.244 18.525 C63.283 19.757 63.322 20.989 63.362 22.258 C63.461 25.546 63.543 28.834 63.618 32.122 C63.697 35.388 63.8 38.653 63.901 41.918 C64.087 48.182 64.224 54.446 64.341 60.712 C64.412 64.001 64.52 67.286 64.637 70.573 C64.684 72.466 64.731 74.359 64.776 76.252 C64.815 77.096 64.854 77.94 64.894 78.809 C64.962 83.151 64.842 84.657 62.014 88.165 C46.456 100.263 22.124 98.385 3.405 98.426 C0.684 98.435 -2.035 98.466 -4.756 98.498 C-20.834 98.595 -39.873 98.318 -53.218 88.186 C-56.531 83.984 -56.162 80.894 -55.924 75.705 C-55.913 75.243 -55.913 75.243 -55.857 72.905 C-55.81 70.965 -55.751 69.024 -55.683 67.084 C-55.588 64.32 -55.529 61.558 -55.487 58.792 C-55.417 54.373 -55.321 49.954 -55.211 45.536 C-55.146 42.856 -55.086 40.176 -55.027 37.496 C-54.909 32.391 -54.757 27.288 -54.584 22.185 C-54.559 21.396 -54.535 20.607 -54.509 19.793 C-54.434 17.575 -54.339 15.359 -54.236 13.142 C-54.183 11.89 -54.13 10.638 -54.076 9.349 C-53.546 5.944 -53.155 4.467 -50.584 2.185 C-47.862 1.47 -47.862 1.47 -44.584 1.185 C-43.447 1.083 -42.31 0.981 -41.139 0.875 C-27.439 -0.012 -13.723 -0.002 0 0 Z " fill="#7E7E7E" transform="translate(123.583740234375,81.814697265625)"/>
<path d="M0 0 C2.727 0 5.454 -0.007 8.181 -0.021 C21.678 -0.087 35.157 -0.063 48.623 0.947 C49.566 1.008 50.509 1.069 51.481 1.132 C51.912 1.17 51.912 1.17 54.095 1.364 C54.839 1.425 55.582 1.487 56.348 1.551 C59.281 2.451 60.55 3.771 62.416 6.185 C62.973 8.727 62.973 8.727 63.054 11.63 C63.094 12.723 63.133 13.817 63.174 14.943 C63.197 16.125 63.221 17.307 63.244 18.525 C63.283 19.757 63.322 20.989 63.362 22.258 C63.461 25.546 63.543 28.834 63.618 32.122 C63.697 35.388 63.8 38.653 63.901 41.918 C64.087 48.182 64.224 54.446 64.341 60.712 C64.412 64.001 64.52 67.286 64.637 70.573 C64.684 72.466 64.731 74.359 64.776 76.252 C64.815 77.096 64.854 77.94 64.894 78.809 C64.962 83.151 64.842 84.657 62.014 88.165 C46.456 100.263 22.124 98.385 3.405 98.426 C0.684 98.435 -2.035 98.466 -4.756 98.498 C-20.834 98.595 -39.873 98.318 -53.218 88.186 C-56.531 83.984 -56.162 80.894 -55.924 75.705 C-55.913 75.243 -55.913 75.243 -55.857 72.905 C-55.81 70.965 -55.751 69.024 -55.683 67.084 C-55.588 64.32 -55.529 61.558 -55.487 58.792 C-55.417 54.373 -55.321 49.954 -55.211 45.536 C-55.146 42.856 -55.086 40.176 -55.027 37.496 C-54.909 32.391 -54.757 27.288 -54.584 22.185 C-54.559 21.396 -54.535 20.607 -54.509 19.793 C-54.434 17.575 -54.339 15.359 -54.236 13.142 C-54.183 11.89 -54.13 10.638 -54.076 9.349 C-53.546 5.944 -53.155 4.467 -50.584 2.185 C-47.862 1.47 -47.862 1.47 -44.584 1.185 C-43.447 1.083 -42.31 0.981 -41.139 0.875 C-27.439 -0.012 -13.723 -0.002 0 0 Z M-47.584 10.185 C-47.584 31.305 -47.584 52.425 -47.584 74.185 C-13.264 74.185 21.056 74.185 56.416 74.185 C56.416 53.065 56.416 31.945 56.416 10.185 C22.096 10.185 -12.224 10.185 -47.584 10.185 Z " fill="#1D1D1D" transform="translate(123.583740234375,81.814697265625)"/>
<path d="M0 0 C0.907 0.003 1.815 0.005 2.75 0.008 C3.204 0.007 3.204 0.007 5.5 0 C7.75 0.133 7.75 0.133 8.75 1.133 C8.822 2.652 8.834 4.174 8.812 5.695 C8.803 6.522 8.794 7.348 8.785 8.199 C8.774 8.837 8.762 9.475 8.75 10.133 C9.388 10.121 10.026 10.11 10.684 10.098 C11.51 10.089 12.336 10.08 13.188 10.07 C14.011 10.059 14.835 10.047 15.684 10.035 C17.75 10.133 17.75 10.133 18.75 11.133 C18.848 12.797 18.88 14.466 18.875 16.133 C18.876 16.587 18.876 16.587 18.883 18.883 C18.75 21.133 18.75 21.133 17.75 22.133 C16.231 22.205 14.708 22.217 13.188 22.195 C12.361 22.186 11.535 22.177 10.684 22.168 C10.365 22.162 10.365 22.162 8.75 22.133 C8.762 22.771 8.773 23.409 8.785 24.066 C8.794 24.893 8.803 25.719 8.812 26.57 C8.824 27.394 8.836 28.218 8.848 29.066 C8.75 31.133 8.75 31.133 7.75 32.133 C6.086 32.231 4.417 32.263 2.75 32.258 C2.296 32.259 2.296 32.259 0 32.266 C-2.25 32.133 -2.25 32.133 -3.25 31.133 C-3.322 29.614 -3.334 28.091 -3.312 26.57 C-3.303 25.744 -3.294 24.918 -3.285 24.066 C-3.274 23.428 -3.262 22.79 -3.25 22.133 C-3.888 22.144 -4.526 22.156 -5.184 22.168 C-5.597 22.172 -5.597 22.172 -7.688 22.195 C-8.099 22.201 -8.099 22.201 -10.184 22.23 C-12.25 22.133 -12.25 22.133 -13.25 21.133 C-13.348 19.469 -13.38 17.8 -13.375 16.133 C-13.378 15.225 -13.38 14.318 -13.383 13.383 C-13.25 11.133 -13.25 11.133 -12.25 10.133 C-10.731 10.061 -9.208 10.049 -7.688 10.07 C-6.861 10.079 -6.035 10.088 -5.184 10.098 C-4.546 10.109 -3.907 10.121 -3.25 10.133 C-3.262 9.495 -3.273 8.857 -3.285 8.199 C-3.294 7.373 -3.303 6.547 -3.312 5.695 C-3.324 4.872 -3.336 4.048 -3.348 3.199 C-3.21 0.281 -2.917 0.172 0 0 Z " fill="#989898" transform="translate(37.25,103.8671875)"/>
<path d="M0 0 C4.074 0.849 5.544 2.302 8 5.625 C8.625 8.625 8.625 8.625 8 11.625 C5.544 14.948 4.074 16.401 0 17.25 C-4.074 16.401 -5.544 14.948 -8 11.625 C-8.625 8.625 -8.625 8.625 -8 5.625 C-5.544 2.302 -4.074 0.849 0 0 Z " fill="#9D9D9D" transform="translate(204,115.375)"/>
<path d="M0 0 C4.074 0.849 5.544 2.302 8 5.625 C8.625 8.625 8.625 8.625 8 11.625 C5.544 14.948 4.074 16.401 0 17.25 C-4.074 16.401 -5.544 14.948 -8 11.625 C-8.625 8.625 -8.625 8.625 -8 5.625 C-5.544 2.302 -4.074 0.849 0 0 Z " fill="#9D9D9D" transform="translate(224,107.375)"/>
<path d="M0 0 C28.66 0.869 28.66 0.869 37.477 9.184 C40.459 12.74 41.257 15.375 41 20 C40.01 20 39.02 20 38 20 C37.841 19.385 37.683 18.77 37.52 18.137 C37.403 17.733 37.403 17.733 36.812 15.688 C36.592 14.887 36.372 14.086 36.145 13.262 C34.611 10.232 33.01 9.543 30 8 C26.894 7.14 26.894 7.14 23.457 6.465 C22.838 6.339 22.838 6.339 19.705 5.701 C18.421 5.449 17.136 5.197 15.812 4.938 C13.255 4.435 10.699 3.921 8.145 3.402 C7.014 3.181 5.883 2.959 4.718 2.73 C2 2 2 2 0 0 Z " fill="#A6A6A6" transform="translate(199,72)"/>
<path d="M0 0 C-2.979 1.986 -4.677 2.515 -8.113 3.219 C-9.114 3.429 -10.115 3.639 -11.146 3.855 C-12.191 4.068 -13.236 4.281 -14.312 4.5 C-32.383 8.22 -32.383 8.22 -36 13 C-37.25 16.75 -37.25 16.75 -38 20 C-38.99 20 -39.98 20 -41 20 C-40.878 14.131 -39.039 11.223 -35.277 6.797 C-29.641 2.35 -22.904 1.457 -15.938 0.812 C-15.174 0.731 -14.41 0.649 -13.623 0.564 C-9.059 0.1 -4.586 -0.079 0 0 Z " fill="#A5A5A5" transform="translate(57,72)"/>
<path d="M0 0 C2.562 0.188 2.562 0.188 4.562 2.188 C4.188 4.812 4.188 4.812 3.562 7.188 C1.188 7.812 1.188 7.812 -1.438 8.188 C-3.438 6.188 -3.438 6.188 -3.625 3.625 C-3.373 0.348 -3.277 0.252 0 0 Z " fill="#A1A1A1" transform="translate(59.4375,159.8125)"/>
<path d="M0 0 C2.562 0.188 2.562 0.188 4.562 2.188 C4.188 4.812 4.188 4.812 3.562 7.188 C1.188 7.812 1.188 7.812 -1.438 8.188 C-3.438 6.188 -3.438 6.188 -3.625 3.625 C-3.373 0.348 -3.277 0.252 0 0 Z " fill="#A1A1A1" transform="translate(59.4375,147.8125)"/>
<path d="M0 0 C0.99 0.33 1.98 0.66 3 1 C3 8.59 3 16.18 3 24 C2.67 24 2.34 24 2 24 C0.562 15.924 -0.296 8.206 0 0 Z " fill="#B1B1B1" transform="translate(238,94)"/>
<path d="M0 0 C0.66 0 1.32 0 2 0 C2.296 8.206 1.438 15.924 0 24 C-0.33 24 -0.66 24 -1 24 C-1.029 20.188 -1.047 16.375 -1.062 12.562 C-1.071 11.474 -1.079 10.385 -1.088 9.264 C-1.091 8.229 -1.094 7.195 -1.098 6.129 C-1.103 5.171 -1.108 4.212 -1.114 3.225 C-1 1 -1 1 0 0 Z " fill="#B1B1B1" transform="translate(16,94)"/>
<path d="M0 0 C4.75 0.875 4.75 0.875 7 2 C7 2.66 7 3.32 7 4 C4.353 5.461 3.106 6 0 6 C0 4.02 0 2.04 0 0 Z " fill="#8D8D8D" transform="translate(48,117)"/>
<path d="M0 0 C0.66 0 1.32 0 2 0 C2 1.98 2 3.96 2 6 C0.35 5.67 -1.3 5.34 -3 5 C-1.125 1.125 -1.125 1.125 0 0 Z " fill="#8C8C8C" transform="translate(30,117)"/>
</svg>
