<?xml version="1.0" encoding="UTF-8"?>
<!-- Generator: visioncortex VTracer 0.6.12 -->
<svg version="1.1" xmlns="http://www.w3.org/2000/svg" width="256" height="256">
<path d="M0 0 C1.158 -0.005 2.317 -0.01 3.51 -0.015 C7.335 -0.029 11.16 -0.028 14.985 -0.026 C16.974 -0.029 18.964 -0.032 20.953 -0.036 C27.207 -0.047 33.46 -0.047 39.713 -0.041 C46.149 -0.035 52.584 -0.047 59.02 -0.069 C64.559 -0.086 70.098 -0.092 75.638 -0.089 C78.94 -0.087 82.242 -0.091 85.544 -0.104 C89.23 -0.116 92.916 -0.109 96.602 -0.098 C97.685 -0.105 98.769 -0.113 99.886 -0.121 C106.92 -0.072 113.02 0.488 118.672 5.107 C119.211 5.76 119.75 6.414 120.305 7.087 C120.859 7.733 121.414 8.379 121.985 9.044 C125.432 14.364 125.72 19.712 125.691 25.89 C125.695 26.745 125.699 27.599 125.702 28.479 C125.713 31.335 125.709 34.19 125.705 37.046 C125.709 39.096 125.714 41.147 125.72 43.197 C125.734 48.761 125.734 54.325 125.732 59.889 C125.731 64.533 125.736 69.178 125.74 73.823 C125.751 84.779 125.752 95.736 125.746 106.692 C125.74 117.997 125.752 129.302 125.773 140.607 C125.791 150.314 125.797 160.02 125.794 169.726 C125.792 175.523 125.795 181.321 125.808 187.118 C125.821 192.568 125.819 198.018 125.806 203.468 C125.804 205.468 125.806 207.468 125.815 209.469 C125.825 212.199 125.817 214.929 125.804 217.659 C125.812 218.451 125.819 219.242 125.827 220.058 C125.771 225.717 124.523 229.768 120.809 234.216 C99.032 253.652 58.489 251.407 31.441 250.134 C12.844 248.991 -9.508 247.104 -23.949 234.216 C-28.253 229.061 -29.006 224.204 -28.951 217.673 C-28.953 217.246 -28.953 217.246 -28.965 215.088 C-28.977 212.237 -28.967 209.386 -28.958 206.535 C-28.962 204.488 -28.967 202.441 -28.974 200.394 C-28.988 194.838 -28.982 189.282 -28.973 183.727 C-28.965 177.91 -28.972 172.093 -28.977 166.277 C-28.982 156.507 -28.975 146.737 -28.961 136.967 C-28.945 125.678 -28.95 114.389 -28.966 103.1 C-28.98 93.403 -28.982 83.707 -28.974 74.011 C-28.969 68.222 -28.969 62.432 -28.979 56.643 C-28.987 51.198 -28.981 45.753 -28.964 40.308 C-28.96 38.311 -28.961 36.315 -28.968 34.319 C-28.976 31.589 -28.966 28.86 -28.951 26.131 C-28.957 25.345 -28.964 24.559 -28.971 23.75 C-28.906 17.556 -27.763 11.959 -23.738 7.032 C-23.084 6.494 -22.431 5.955 -21.757 5.4 C-21.112 4.845 -20.466 4.291 -19.8 3.72 C-13.564 -0.321 -7.171 -0.016 0 0 Z " fill="#2D8BBE" transform="translate(79.56982421875,2.725341796875)"/>
<path d="M0 0 C0.538 -0.004 0.538 -0.004 3.258 -0.021 C6.816 -0.039 10.374 -0.027 13.932 -0.014 C16.403 -0.016 18.874 -0.02 21.345 -0.025 C26.526 -0.031 31.706 -0.023 36.887 -0.004 C43.53 0.019 50.172 0.006 56.815 -0.018 C61.918 -0.033 67.021 -0.028 72.125 -0.018 C74.574 -0.015 77.023 -0.018 79.473 -0.028 C82.896 -0.038 86.319 -0.022 89.742 0 C90.756 -0.008 91.77 -0.016 92.814 -0.025 C96.944 0.025 99.802 0.216 103.565 2.004 C106.246 5.605 106.128 8.928 106.067 13.246 C106.074 14.126 106.081 15.006 106.089 15.913 C106.105 18.822 106.086 21.73 106.065 24.639 C106.066 26.661 106.068 28.684 106.072 30.706 C106.075 34.946 106.06 39.185 106.033 43.424 C105.999 48.856 106.005 54.287 106.023 59.719 C106.034 63.896 106.025 68.073 106.01 72.25 C106.005 74.253 106.005 76.256 106.012 78.258 C106.017 81.059 105.997 83.859 105.969 86.66 C105.976 87.487 105.982 88.313 105.989 89.165 C105.925 93.045 105.69 95.09 103.664 98.493 C101.376 100.572 100.251 101.262 97.251 101.76 C96.461 101.898 95.671 102.036 94.857 102.178 C94.058 102.29 93.259 102.402 92.436 102.518 C91.706 102.626 90.976 102.735 90.224 102.848 C77.283 104.598 64.337 104.802 51.298 104.723 C48.175 104.705 45.051 104.703 41.928 104.703 C30.723 104.684 19.607 104.404 8.436 103.518 C7.495 103.45 6.554 103.382 5.585 103.313 C3.282 103.139 0.985 102.93 -1.314 102.705 C-2.067 102.648 -2.82 102.59 -3.595 102.531 C-7.096 102.181 -9.232 101.782 -12.017 99.568 C-15.072 95.519 -14.725 91.9 -14.741 87 C-14.748 86.119 -14.754 85.238 -14.761 84.329 C-14.781 81.405 -14.793 78.481 -14.802 75.557 C-14.807 74.56 -14.811 73.562 -14.815 72.535 C-14.836 67.259 -14.85 61.983 -14.859 56.707 C-14.87 51.25 -14.905 45.794 -14.945 40.337 C-14.971 36.147 -14.979 31.958 -14.983 27.768 C-14.988 25.756 -14.999 23.744 -15.018 21.732 C-15.042 18.919 -15.041 16.107 -15.034 13.293 C-15.047 12.46 -15.06 11.627 -15.073 10.768 C-15.043 7.435 -14.8 4.95 -13.195 2.001 C-8.959 -0.388 -4.781 -0.038 0 0 Z " fill="#383939" transform="translate(82.564208984375,19.482421875)"/>
<path d="M0 0 C29.04 0 58.08 0 88 0 C88 8.25 88 16.5 88 25 C86.02 25.99 84.04 26.98 82 28 C80.58 30.841 80.685 32.855 81 36 C83.232 38.848 84.55 39.85 88 41 C88 53.21 88 65.42 88 78 C79 78 79 78 76 77 C76.33 78.32 76.66 79.64 77 81 C76.67 81.165 76.67 81.165 75 82 C74.505 81.835 74.505 81.835 72 81 C72.093 81.505 72.093 81.505 72.562 84.062 C72.998 87.979 72.709 91.142 72 95 C72.66 95 73.32 95 74 95 C74.165 94.34 74.165 94.34 75 91 C75.99 91 76.98 91 78 91 C78.165 90.34 78.165 90.34 79 87 C79.99 87 80.98 87 82 87 C82.165 86.34 82.165 86.34 83 83 C83.99 83 84.98 83 86 83 C86.165 82.34 86.165 82.34 87 79 C87.33 79 87.66 79 88 79 C88 81.31 88 83.62 88 86 C87.34 85.835 87.34 85.835 84 85 C84.33 86.32 84.66 87.64 85 89 C84.67 89.165 84.67 89.165 83 90 C82.505 89.835 82.505 89.835 80 89 C80.33 90.32 80.66 91.64 81 93 C80.67 93.165 80.67 93.165 79 94 C78.505 93.835 78.505 93.835 76 93 C76.33 94.32 76.66 95.64 77 97 C51.59 97 26.18 97 0 97 C0 84.13 0 71.26 0 58 C2.64 58 5.28 58 8 58 C8 53.71 8 49.42 8 45 C11.96 45 15.92 45 20 45 C20 41.04 20 37.08 20 33 C16.04 33 12.08 33 8 33 C8 28.71 8 24.42 8 20 C5.36 20 2.72 20 0 20 C0 13.4 0 6.8 0 0 Z " fill="#2F95CE" transform="translate(84,123)"/>
<path d="M0 0 C1.158 -0.005 2.317 -0.01 3.51 -0.015 C7.335 -0.029 11.16 -0.028 14.985 -0.026 C16.974 -0.029 18.964 -0.032 20.953 -0.036 C27.207 -0.047 33.46 -0.047 39.713 -0.041 C46.149 -0.035 52.584 -0.047 59.02 -0.069 C64.559 -0.086 70.098 -0.092 75.638 -0.089 C78.94 -0.087 82.242 -0.091 85.544 -0.104 C89.23 -0.116 92.916 -0.109 96.602 -0.098 C97.685 -0.105 98.769 -0.113 99.886 -0.121 C106.92 -0.072 113.02 0.488 118.672 5.107 C119.211 5.76 119.75 6.414 120.305 7.087 C120.859 7.733 121.414 8.379 121.985 9.044 C125.432 14.364 125.72 19.712 125.691 25.89 C125.695 26.745 125.699 27.599 125.702 28.479 C125.713 31.335 125.709 34.19 125.705 37.046 C125.709 39.096 125.714 41.147 125.72 43.197 C125.734 48.761 125.734 54.325 125.732 59.889 C125.731 64.533 125.736 69.178 125.74 73.823 C125.751 84.779 125.752 95.736 125.746 106.692 C125.74 117.997 125.752 129.302 125.773 140.607 C125.791 150.314 125.797 160.02 125.794 169.726 C125.792 175.523 125.795 181.321 125.808 187.118 C125.821 192.568 125.819 198.018 125.806 203.468 C125.804 205.468 125.806 207.468 125.815 209.469 C125.825 212.199 125.817 214.929 125.804 217.659 C125.812 218.451 125.819 219.242 125.827 220.058 C125.771 225.717 124.523 229.768 120.809 234.216 C99.032 253.652 58.489 251.407 31.441 250.134 C12.844 248.991 -9.508 247.104 -23.949 234.216 C-28.253 229.061 -29.006 224.204 -28.951 217.673 C-28.953 217.246 -28.953 217.246 -28.965 215.088 C-28.977 212.237 -28.967 209.386 -28.958 206.535 C-28.962 204.488 -28.967 202.441 -28.974 200.394 C-28.988 194.838 -28.982 189.282 -28.973 183.727 C-28.965 177.91 -28.972 172.093 -28.977 166.277 C-28.982 156.507 -28.975 146.737 -28.961 136.967 C-28.945 125.678 -28.95 114.389 -28.966 103.1 C-28.98 93.403 -28.982 83.707 -28.974 74.011 C-28.969 68.222 -28.969 62.432 -28.979 56.643 C-28.987 51.198 -28.981 45.753 -28.964 40.308 C-28.96 38.311 -28.961 36.315 -28.968 34.319 C-28.976 31.589 -28.966 28.86 -28.951 26.131 C-28.957 25.345 -28.964 24.559 -28.971 23.75 C-28.906 17.556 -27.763 11.959 -23.738 7.032 C-23.084 6.494 -22.431 5.955 -21.757 5.4 C-21.112 4.845 -20.466 4.291 -19.8 3.72 C-13.564 -0.321 -7.171 -0.016 0 0 Z M-18.57 14.275 C-20.163 17.461 -19.722 20.909 -19.724 24.409 C-19.728 25.26 -19.732 26.111 -19.737 26.988 C-19.75 29.856 -19.757 32.724 -19.763 35.592 C-19.771 37.642 -19.779 39.691 -19.787 41.741 C-19.814 48.487 -19.829 55.232 -19.843 61.978 C-19.849 64.297 -19.854 66.617 -19.859 68.937 C-19.881 78.584 -19.9 88.231 -19.911 97.879 C-19.927 111.717 -19.96 125.556 -20.017 139.394 C-20.056 149.117 -20.076 158.84 -20.081 168.564 C-20.085 174.374 -20.097 180.185 -20.129 185.995 C-20.159 191.462 -20.165 196.928 -20.154 202.395 C-20.153 204.401 -20.162 206.408 -20.179 208.415 C-20.202 211.155 -20.194 213.892 -20.178 216.632 C-20.192 217.427 -20.206 218.221 -20.22 219.039 C-20.138 224.774 -18.667 227.255 -14.57 231.275 C-11.751 233.09 -8.72 234.143 -5.57 235.275 C-4.876 235.54 -4.183 235.806 -3.468 236.079 C12.736 241.633 30.5 241.848 47.43 241.775 C48.451 241.774 49.472 241.773 50.524 241.772 C100.69 241.637 100.69 241.637 115.43 227.275 C117.023 224.088 116.582 220.64 116.584 217.14 C116.588 216.289 116.593 215.438 116.597 214.561 C116.611 211.693 116.617 208.825 116.623 205.957 C116.631 203.908 116.639 201.858 116.648 199.808 C116.674 193.063 116.689 186.317 116.704 179.572 C116.709 177.252 116.714 174.932 116.72 172.612 C116.741 162.965 116.76 153.318 116.771 143.671 C116.788 129.832 116.821 115.994 116.878 102.155 C116.916 92.432 116.936 82.709 116.941 72.986 C116.945 67.175 116.957 61.365 116.989 55.554 C117.019 50.087 117.026 44.621 117.014 39.155 C117.014 37.148 117.022 35.141 117.04 33.134 C117.062 30.395 117.054 27.657 117.038 24.917 C117.052 24.123 117.066 23.328 117.08 22.51 C117.023 18.498 116.607 15.993 114.08 12.797 C110.561 9.448 108.185 9.15 103.516 9.121 C102.503 9.112 101.489 9.104 100.445 9.095 C99.334 9.09 98.222 9.086 97.077 9.082 C95.906 9.074 94.735 9.065 93.529 9.057 C89.646 9.032 85.763 9.015 81.879 9.001 C80.541 8.996 79.203 8.99 77.865 8.985 C72.299 8.963 66.732 8.945 61.165 8.933 C53.194 8.917 45.223 8.884 37.251 8.827 C31.643 8.788 26.034 8.769 20.426 8.764 C17.077 8.76 13.73 8.745 10.382 8.715 C6.644 8.684 2.908 8.684 -0.829 8.691 C-1.934 8.675 -3.039 8.658 -4.178 8.641 C-10.772 8.695 -14.09 9.295 -18.57 14.275 Z " fill="#FAFCFD" transform="translate(79.56982421875,2.725341796875)"/>
<path d="M0 0 C26.4 0 52.8 0 80 0 C80 22.44 80 44.88 80 68 C53.6 68 27.2 68 0 68 C0 45.56 0 23.12 0 0 Z " fill="#BEBEBE" transform="translate(88,32)"/>
<path d="M0 0 C3.96 0 7.92 0 12 0 C12 3.96 12 7.92 12 12 C15.96 12 19.92 12 24 12 C24 15.96 24 19.92 24 24 C20.04 24 16.08 24 12 24 C12 27.96 12 31.92 12 36 C8.04 36 4.08 36 0 36 C0 32.04 0 28.08 0 24 C-3.96 24 -7.92 24 -12 24 C-12 20.04 -12 16.08 -12 12 C-8.04 12 -4.08 12 0 12 C0 8.04 0 4.08 0 0 Z " fill="#333637" transform="translate(80,144)"/>
<path d="M0 0 C39.93 0 79.86 0 121 0 C121 0.33 121 0.66 121 1 C115.72 1 110.44 1 105 1 C105 2.98 105 4.96 105 7 C75.96 7 46.92 7 17 7 C17 5.02 17 3.04 17 1 C11.39 1 5.78 1 0 1 C0 0.67 0 0.34 0 0 Z " fill="#3297CE" transform="translate(67,12)"/>
<path d="M0 0 C1.98 0 3.96 0 6 0 C6 2 6 4 6 6 C4.68 6 3.36 6 2 6 C2.66 6.66 3.32 7.32 4 8 C4.66 8 5.32 8 6 8 C6 10 6 12 6 14 C4.68 14 3.36 14 2 14 C2 15.32 2 16.64 2 18 C1.34 18 0.68 18 0 18 C-0.33 17.01 -0.66 16.02 -1 15 C-1.66 16.32 -2.32 17.64 -3 19 C0.623 20.208 1.641 19.543 5 18 C5.33 19.32 5.66 20.64 6 22 C4.68 22 3.36 22 2 22 C2 23.32 2 24.64 2 26 C1.34 26 0.68 26 0 26 C-0.33 25.01 -0.66 24.02 -1 23 C-1.33 23.99 -1.66 24.98 -2 26 C-2.66 26 -3.32 26 -4 26 C-4 25.01 -4 24.02 -4 23 C-4.66 22.67 -5.32 22.34 -6 22 C-5.67 20.35 -5.34 18.7 -5 17 C-5.825 17.165 -5.825 17.165 -10 18 C-10 19.32 -10 20.64 -10 22 C-11.32 22 -12.64 22 -14 22 C-14 23.32 -14 24.64 -14 26 C-14.66 26 -15.32 26 -16 26 C-16.33 25.01 -16.66 24.02 -17 23 C-17.33 23.99 -17.66 24.98 -18 26 C-18.66 26 -19.32 26 -20 26 C-20 23.69 -20 21.38 -20 19 C-20.66 19.99 -21.32 20.98 -22 22 C-22.66 22 -23.32 22 -24 22 C-24 20.02 -24 18.04 -24 16 C-22.68 15.67 -21.36 15.34 -20 15 C-20 14.01 -20 13.02 -20 12 C-18.68 11.67 -17.36 11.34 -16 11 C-16 10.01 -16 9.02 -16 8 C-14.68 7.67 -13.36 7.34 -12 7 C-12 6.01 -12 5.02 -12 4 C-8.7 4 -5.4 4 -2 4 C-2 4.66 -2 5.32 -2 6 C-3.32 6 -4.64 6 -6 6 C-6 7.32 -6 8.64 -6 10 C-7.32 10 -8.64 10 -10 10 C-10 11.32 -10 12.64 -10 14 C-10.66 14 -11.32 14 -12 14 C-12.33 13.01 -12.66 12.02 -13 11 C-13.33 11.99 -13.66 12.98 -14 14 C-14.99 14.33 -15.98 14.66 -17 15 C-16.01 15.33 -15.02 15.66 -14 16 C-14 16.66 -14 17.32 -14 18 C-15.32 18 -16.64 18 -18 18 C-17.34 18.66 -16.68 19.32 -16 20 C-15.423 19.34 -14.845 18.68 -14.25 18 C-12 16 -12 16 -8 16 C-8 14.68 -8 13.36 -8 12 C-5.36 12 -2.72 12 0 12 C0 8.04 0 4.08 0 0 Z M-7 22 C-6.67 23.32 -6.34 24.64 -6 26 C-6.66 26 -7.32 26 -8 26 C-7.67 24.68 -7.34 23.36 -7 22 Z " fill="#2C77A1" transform="translate(180,204)"/>
<path d="M0 0 C4.074 0.849 5.544 2.302 8 5.625 C8.625 8.625 8.625 8.625 8 11.625 C5.544 14.948 4.074 16.401 0 17.25 C-4.074 16.401 -5.544 14.948 -8 11.625 C-8.625 8.625 -8.625 8.625 -8 5.625 C-5.544 2.302 -4.074 0.849 0 0 Z " fill="#32373A" transform="translate(150,157.375)"/>
<path d="M0 0 C4.074 0.849 5.544 2.302 8 5.625 C8.625 8.625 8.625 8.625 8 11.625 C5.544 14.948 4.074 16.401 0 17.25 C-4.074 16.401 -5.544 14.948 -8 11.625 C-8.625 8.625 -8.625 8.625 -8 5.625 C-5.544 2.302 -4.074 0.849 0 0 Z " fill="#323739" transform="translate(172,147.375)"/>
<path d="M0 0 C5.94 0 11.88 0 18 0 C18 0.66 18 1.32 18 2 C16.68 2 15.36 2 14 2 C14 3.32 14 4.64 14 6 C13.34 6 12.68 6 12 6 C11.67 5.01 11.34 4.02 11 3 C10.67 3.99 10.34 4.98 10 6 C9.01 6.33 8.02 6.66 7 7 C6.67 7.99 6.34 8.98 6 10 C5.01 10.33 4.02 10.66 3 11 C2.67 11.99 2.34 12.98 2 14 C1.01 14.33 0.02 14.66 -1 15 C-1.33 15.99 -1.66 16.98 -2 18 C-2.66 18 -3.32 18 -4 18 C-4 13.38 -4 8.76 -4 4 C-2.68 3.67 -1.36 3.34 0 3 C0 2.01 0 1.02 0 0 Z " fill="#2F93CB" transform="translate(160,200)"/>
<path d="M0 0 C2.125 -0.054 4.25 -0.093 6.375 -0.125 C7.558 -0.148 8.742 -0.171 9.961 -0.195 C13 0 13 0 15 2 C15 2.99 15 3.98 15 5 C12.275 6.363 10.039 6.169 7 6.188 C5.928 6.202 4.855 6.216 3.75 6.23 C1 6 1 6 -1 4 C-0.625 1.875 -0.625 1.875 0 0 Z " fill="#32383B" transform="translate(133,198)"/>
<path d="M0 0 C2.125 -0.054 4.25 -0.093 6.375 -0.125 C7.558 -0.148 8.742 -0.171 9.961 -0.195 C13 0 13 0 15 2 C15 2.99 15 3.98 15 5 C12.275 6.363 10.039 6.169 7 6.188 C5.927 6.202 4.855 6.216 3.75 6.23 C1 6 1 6 -1 4 C-0.625 1.875 -0.625 1.875 0 0 Z " fill="#32383B" transform="translate(105,198)"/>
<path d="M0 0 C3.3 0 6.6 0 10 0 C10 0.66 10 1.32 10 2 C8.68 2 7.36 2 6 2 C6 3.32 6 4.64 6 6 C5.34 6 4.68 6 4 6 C3.67 5.01 3.34 4.02 3 3 C2.67 3.99 2.34 4.98 2 6 C1.01 6.33 0.02 6.66 -1 7 C-1.33 7.99 -1.66 8.98 -2 10 C-2.99 10.33 -3.98 10.66 -5 11 C-5.33 11.99 -5.66 12.98 -6 14 C-6.99 14.33 -7.98 14.66 -9 15 C-9.33 15.99 -9.66 16.98 -10 18 C-10.66 18 -11.32 18 -12 18 C-12 16.02 -12 14.04 -12 12 C-10.68 11.67 -9.36 11.34 -8 11 C-8 10.01 -8 9.02 -8 8 C-6.68 7.67 -5.36 7.34 -4 7 C-4 6.01 -4 5.02 -4 4 C-2.68 3.67 -1.36 3.34 0 3 C0 2.01 0 1.02 0 0 Z " fill="#2E7AA4" transform="translate(168,200)"/>
<path d="M0 0 C2.625 0.375 2.625 0.375 5 1 C5.625 3.375 5.625 3.375 6 6 C5.34 6.66 4.68 7.32 4 8 C1.375 7.625 1.375 7.625 -1 7 C-1.625 4.625 -1.625 4.625 -2 2 C-1.34 1.34 -0.68 0.68 0 0 Z " fill="#3E3E3E" transform="translate(84,158)"/>
<path d="M0 0 C0.66 0.33 1.32 0.66 2 1 C1.67 1.99 1.34 2.98 1 4 C1.66 4 2.32 4 3 4 C3 2.68 3 1.36 3 0 C3.66 0 4.32 0 5 0 C5 1.98 5 3.96 5 6 C3.68 6 2.36 6 1 6 C0.866 6.32 0.866 6.32 0.188 7.938 C-1 10 -1 10 -4 11 C-4.33 10.01 -4.66 9.02 -5 8 C-3.68 8 -2.36 8 -1 8 C-1 7.34 -1 6.68 -1 6 C-2.32 5.67 -3.64 5.34 -5 5 C-3.68 4.67 -2.36 4.34 -1 4 C-0.67 2.68 -0.34 1.36 0 0 Z " fill="#2E90C7" transform="translate(167,214)"/>
<path d="M0 0 C1.98 0 3.96 0 6 0 C6 2 6 4 6 6 C4.68 6 3.36 6 2 6 C2 7.32 2 8.64 2 10 C1.34 10 0.68 10 0 10 C0 6.7 0 3.4 0 0 Z " fill="#2D6F93" transform="translate(180,204)"/>
<path d="M0 0 C3.3 0 6.6 0 10 0 C10 0.66 10 1.32 10 2 C8.68 2 7.36 2 6 2 C6 3.32 6 4.64 6 6 C5.34 6 4.68 6 4 6 C3.67 5.01 3.34 4.02 3 3 C2.67 3.99 2.34 4.98 2 6 C1.34 6 0.68 6 0 6 C0 4.02 0 2.04 0 0 Z " fill="#2D7297" transform="translate(168,200)"/>
<path d="M0 0 C1.98 0 3.96 0 6 0 C6 0.66 6 1.32 6 2 C5.01 2.33 4.02 2.66 3 3 C2.67 3.99 2.34 4.98 2 6 C1.01 6.33 0.02 6.66 -1 7 C-1.33 7.99 -1.66 8.98 -2 10 C-2.66 10 -3.32 10 -4 10 C-4 8.02 -4 6.04 -4 4 C-2.68 3.67 -1.36 3.34 0 3 C0 2.01 0 1.02 0 0 Z " fill="#2D7AA5" transform="translate(160,200)"/>
<path d="M0 0 C0.66 0.66 1.32 1.32 2 2 C1.188 3.938 1.188 3.938 0 6 C-0.99 6.33 -1.98 6.66 -3 7 C-3.33 7.99 -3.66 8.98 -4 10 C-4.66 10 -5.32 10 -6 10 C-6 8.68 -6 7.36 -6 6 C-5.34 6 -4.68 6 -4 6 C-4 4.68 -4 3.36 -4 2 C-2.68 2 -1.36 2 0 2 C0 1.34 0 0.68 0 0 Z " fill="#2983B4" transform="translate(174,220)"/>
<path d="M0 0 C0.66 0.33 1.32 0.66 2 1 C2.33 1.99 2.66 2.98 3 4 C1.68 4 0.36 4 -1 4 C-0.67 2.68 -0.34 1.36 0 0 Z M-2 4 C-1.67 5.32 -1.34 6.64 -1 8 C-1.66 8 -2.32 8 -3 8 C-2.67 6.68 -2.34 5.36 -2 4 Z " fill="#2D6F93" transform="translate(183,222)"/>
<path d="M0 0 C1.98 0 3.96 0 6 0 C6 0.66 6 1.32 6 2 C4.68 2 3.36 2 2 2 C2 3.32 2 4.64 2 6 C1.34 6 0.68 6 0 6 C0 4.02 0 2.04 0 0 Z " fill="#2C6B8D" transform="translate(172,216)"/>
<path d="M0 0 C0.66 0.33 1.32 0.66 2 1 C2.33 1.99 2.66 2.98 3 4 C1.68 4 0.36 4 -1 4 C-0.67 2.68 -0.34 1.36 0 0 Z M-2 4 C-1.67 5.32 -1.34 6.64 -1 8 C-1.66 8 -2.32 8 -3 8 C-2.67 6.68 -2.34 5.36 -2 4 Z " fill="#2D6F93" transform="translate(183,214)"/>
<path d="M0 0 C1.98 0 3.96 0 6 0 C6 0.66 6 1.32 6 2 C5.01 2.33 4.02 2.66 3 3 C2.67 3.99 2.34 4.98 2 6 C1.34 6 0.68 6 0 6 C0 4.02 0 2.04 0 0 Z " fill="#2A749C" transform="translate(180,204)"/>
</svg>
