<?xml version="1.0" encoding="UTF-8"?>
<!-- Generator: visioncortex VTracer 0.6.12 -->
<svg version="1.1" xmlns="http://www.w3.org/2000/svg" width="256" height="256">
<path d="M0 0 C7.708 7.084 14.83 14.33 19.178 23.99 C19.178 24.65 19.178 25.31 19.178 25.99 C19.983 26.135 20.787 26.279 21.616 26.428 C24.178 26.99 24.178 26.99 25.178 27.99 C26.592 28.259 28.009 28.505 29.428 28.74 C33.975 29.696 36.229 31.304 39.178 34.99 C40.646 37.925 40.326 40.883 40.326 44.1 C40.329 44.84 40.333 45.581 40.337 46.344 C40.348 48.839 40.352 51.334 40.355 53.829 C40.362 55.613 40.368 57.396 40.375 59.18 C40.393 64.036 40.403 68.891 40.412 73.747 C40.417 76.779 40.423 79.811 40.429 82.843 C40.448 92.327 40.462 101.811 40.471 111.295 C40.48 122.249 40.507 133.203 40.547 144.157 C40.577 152.619 40.592 161.081 40.595 169.543 C40.598 174.599 40.607 179.655 40.632 184.711 C40.655 189.469 40.659 194.226 40.649 198.983 C40.649 200.729 40.655 202.474 40.669 204.22 C40.686 206.604 40.679 208.988 40.666 211.373 C40.677 212.062 40.688 212.751 40.699 213.462 C40.634 218.392 39.225 221.173 36.178 224.99 C31.871 228.242 25.967 227.39 20.807 227.549 C17.178 227.99 17.178 227.99 14.815 229.494 C11.73 231.245 9.896 231.367 6.372 231.371 C5.791 231.375 5.791 231.375 2.854 231.397 C1.59 231.391 0.325 231.385 -0.978 231.378 C-2.33 231.382 -3.682 231.388 -5.034 231.394 C-8.7 231.408 -12.365 231.403 -16.03 231.393 C-19.869 231.386 -23.707 231.393 -27.546 231.397 C-33.992 231.403 -40.438 231.396 -46.884 231.381 C-54.333 231.365 -61.781 231.37 -69.23 231.387 C-75.629 231.4 -82.029 231.402 -88.428 231.395 C-92.248 231.39 -96.068 231.389 -99.889 231.399 C-103.481 231.408 -107.072 231.402 -110.664 231.384 C-112.608 231.379 -114.553 231.387 -116.497 231.397 C-117.658 231.388 -118.819 231.38 -120.015 231.371 C-121.021 231.37 -122.028 231.369 -123.065 231.368 C-126.279 230.928 -128.108 229.714 -130.822 227.99 C-134.606 227.596 -138.327 227.552 -142.13 227.494 C-146.409 226.91 -148.526 225.742 -151.822 222.99 C-154.257 219.431 -154.108 215.802 -154.089 211.64 C-154.093 210.898 -154.098 210.155 -154.103 209.39 C-154.115 206.902 -154.114 204.413 -154.112 201.924 C-154.118 200.14 -154.125 198.356 -154.132 196.573 C-154.15 191.725 -154.155 186.878 -154.156 182.031 C-154.158 177.985 -154.165 173.94 -154.172 169.894 C-154.189 160.349 -154.194 150.804 -154.192 141.259 C-154.191 131.412 -154.212 121.564 -154.244 111.717 C-154.27 103.263 -154.281 94.81 -154.279 86.356 C-154.279 81.307 -154.284 76.257 -154.306 71.208 C-154.325 66.459 -154.325 61.71 -154.311 56.961 C-154.308 55.218 -154.313 53.476 -154.325 51.734 C-154.341 49.354 -154.331 46.975 -154.316 44.594 C-154.326 43.906 -154.337 43.218 -154.347 42.51 C-154.277 37.586 -152.866 34.802 -149.822 30.99 C-147.245 29.125 -145.468 28.941 -142.259 28.49 C-138.822 27.99 -138.822 27.99 -135.822 25.99 C-134.832 25.99 -133.842 25.99 -132.822 25.99 C-132.636 25.206 -132.45 24.423 -132.259 23.615 C-125.243 5.923 -108.667 -5.381 -91.883 -12.654 C-85.682 -15.214 -79.433 -16.857 -72.822 -18.01 C-71.563 -18.237 -70.305 -18.464 -69.009 -18.697 C-45.201 -21.038 -18.398 -16.188 0 0 Z M-91.822 23.99 C-91.822 24.32 -91.822 24.65 -91.822 24.99 C-68.722 24.99 -45.622 24.99 -21.822 24.99 C-42.922 8.11 -69.635 12.011 -91.822 23.99 Z " fill="#36509F" transform="translate(184.821533203125,22.009765625)"/>
<path d="M0 0 C44.88 0 89.76 0 136 0 C136 44.88 136 89.76 136 136 C134.515 136.66 134.515 136.66 127 140 C124.065 142.935 122.307 145.164 120.879 149.059 C119 152 119 152 115.395 153.355 C113.873 153.662 112.345 153.938 110.812 154.188 C109.983 154.341 109.154 154.494 108.299 154.651 C105.538 155.141 102.773 155.578 100 156 C99.02 156.151 98.041 156.302 97.032 156.458 C72.512 160.123 49.464 159.5 25.188 154 C24.841 153.923 24.841 153.923 23.088 153.534 C19.598 152.677 17.161 151.951 15 149 C14.701 148.433 14.701 148.433 13.188 145.562 C10.171 140.105 5.662 138.265 0 136 C0 110.92 0 85.84 0 60 C1.65 59.175 1.65 59.175 10 55 C14.066 50.041 15.451 45.716 15.328 39.41 C14.702 34.811 13.006 32.608 10 29 C6.7 27.35 3.4 25.7 0 24 C0 16.08 0 8.16 0 0 Z " fill="#344E9E" transform="translate(60,60)"/>
<path d="M0 0 C7.708 7.084 14.83 14.33 19.178 23.99 C19.178 24.65 19.178 25.31 19.178 25.99 C19.983 26.135 20.787 26.279 21.616 26.428 C24.178 26.99 24.178 26.99 25.178 27.99 C26.592 28.259 28.009 28.505 29.428 28.74 C33.975 29.696 36.229 31.304 39.178 34.99 C40.646 37.925 40.326 40.883 40.326 44.1 C40.329 44.84 40.333 45.581 40.337 46.344 C40.348 48.839 40.352 51.334 40.355 53.829 C40.362 55.613 40.368 57.396 40.375 59.18 C40.393 64.036 40.403 68.891 40.412 73.747 C40.417 76.779 40.423 79.811 40.429 82.843 C40.448 92.327 40.462 101.811 40.471 111.295 C40.48 122.249 40.507 133.203 40.547 144.157 C40.577 152.619 40.592 161.081 40.595 169.543 C40.598 174.599 40.607 179.655 40.632 184.711 C40.655 189.469 40.659 194.226 40.649 198.983 C40.649 200.729 40.655 202.474 40.669 204.22 C40.686 206.604 40.679 208.988 40.666 211.373 C40.677 212.062 40.688 212.751 40.699 213.462 C40.634 218.392 39.225 221.173 36.178 224.99 C31.871 228.242 25.967 227.39 20.807 227.549 C17.178 227.99 17.178 227.99 14.815 229.494 C11.73 231.245 9.896 231.367 6.372 231.371 C5.791 231.375 5.791 231.375 2.854 231.397 C1.59 231.391 0.325 231.385 -0.978 231.378 C-2.33 231.382 -3.682 231.388 -5.034 231.394 C-8.7 231.408 -12.365 231.403 -16.03 231.393 C-19.869 231.386 -23.707 231.393 -27.546 231.397 C-33.992 231.403 -40.438 231.396 -46.884 231.381 C-54.333 231.365 -61.781 231.37 -69.23 231.387 C-75.629 231.4 -82.029 231.402 -88.428 231.395 C-92.248 231.39 -96.068 231.389 -99.889 231.399 C-103.481 231.408 -107.072 231.402 -110.664 231.384 C-112.608 231.379 -114.553 231.387 -116.497 231.397 C-117.658 231.388 -118.819 231.38 -120.015 231.371 C-121.021 231.37 -122.028 231.369 -123.065 231.368 C-126.279 230.928 -128.108 229.714 -130.822 227.99 C-134.606 227.596 -138.327 227.552 -142.13 227.494 C-146.409 226.91 -148.526 225.742 -151.822 222.99 C-154.257 219.431 -154.108 215.802 -154.089 211.64 C-154.093 210.898 -154.098 210.155 -154.103 209.39 C-154.115 206.902 -154.114 204.413 -154.112 201.924 C-154.118 200.14 -154.125 198.356 -154.132 196.573 C-154.15 191.725 -154.155 186.878 -154.156 182.031 C-154.158 177.985 -154.165 173.94 -154.172 169.894 C-154.189 160.349 -154.194 150.804 -154.192 141.259 C-154.191 131.412 -154.212 121.564 -154.244 111.717 C-154.27 103.263 -154.281 94.81 -154.279 86.356 C-154.279 81.307 -154.284 76.257 -154.306 71.208 C-154.325 66.459 -154.325 61.71 -154.311 56.961 C-154.308 55.218 -154.313 53.476 -154.325 51.734 C-154.341 49.354 -154.331 46.975 -154.316 44.594 C-154.326 43.906 -154.337 43.218 -154.347 42.51 C-154.277 37.586 -152.866 34.802 -149.822 30.99 C-147.245 29.125 -145.468 28.941 -142.259 28.49 C-138.822 27.99 -138.822 27.99 -135.822 25.99 C-134.832 25.99 -133.842 25.99 -132.822 25.99 C-132.636 25.206 -132.45 24.423 -132.259 23.615 C-125.243 5.923 -108.667 -5.381 -91.883 -12.654 C-85.682 -15.214 -79.433 -16.857 -72.822 -18.01 C-71.563 -18.237 -70.305 -18.464 -69.009 -18.697 C-45.201 -21.038 -18.398 -16.188 0 0 Z M-110.822 8.99 C-111.505 9.582 -112.188 10.174 -112.892 10.783 C-119.496 16.873 -125.512 24.922 -126.822 33.99 C-128.802 33.99 -130.782 33.99 -132.822 33.99 C-132.822 35.31 -132.822 36.63 -132.822 37.99 C-136.782 37.99 -140.742 37.99 -144.822 37.99 C-144.822 97.39 -144.822 156.79 -144.822 217.99 C-86.742 217.99 -28.662 217.99 31.178 217.99 C31.178 158.59 31.178 99.19 31.178 37.99 C27.218 37.99 23.258 37.99 19.178 37.99 C19.178 36.67 19.178 35.35 19.178 33.99 C17.198 33.99 15.218 33.99 13.178 33.99 C13.111 33.723 13.111 33.723 12.768 32.373 C8.598 17.939 -2.556 7.275 -15.22 -0.154 C-45.385 -16.293 -84.922 -14.465 -110.822 8.99 Z " fill="#FBFCFC" transform="translate(184.821533203125,22.009765625)"/>
<path d="M0 0 C10.694 8.003 18.27 18.402 20.344 31.754 C21.7 47.076 18.049 60.111 8.449 72.125 C0.166 81.238 -11.756 87.102 -24.016 88 C-37.53 88.455 -48.23 85.442 -58.656 76.754 C-59.365 76.18 -60.074 75.607 -60.805 75.016 C-69.593 67.153 -75.048 55.06 -75.902 43.395 C-76.404 28.505 -72.408 17.763 -62.777 6.57 C-46.077 -11.277 -20.345 -13.178 0 0 Z " fill="#000001" transform="translate(155.65625,108.24609375)"/>
<path d="M0 0 C9.445 7.337 19.375 16.319 21.875 28.551 C21.978 29.421 22.081 30.291 22.188 31.188 C23.838 31.188 25.488 31.188 27.188 31.188 C27.188 32.178 27.188 33.167 27.188 34.188 C26.197 34.188 25.208 34.188 24.188 34.188 C24.188 80.388 24.188 126.588 24.188 174.188 C21.548 174.847 18.907 175.507 16.188 176.188 C11.644 178.812 10.39 181.518 9.059 186.383 C7.836 188.916 6.836 189.221 4.188 190.188 C1.419 190.929 -1.332 191.615 -4.125 192.25 C-4.859 192.423 -5.593 192.597 -6.35 192.775 C-12.445 194.187 -18.466 195.347 -24.75 195.25 C-25.522 195.241 -26.294 195.232 -27.09 195.223 C-27.374 195.217 -27.374 195.217 -28.812 195.188 C-28.812 195.847 -28.812 196.507 -28.812 197.188 C-30.227 197.837 -31.644 198.482 -33.062 199.125 C-33.851 199.485 -34.64 199.844 -35.453 200.215 C-43.576 203.564 -53.669 203.411 -61.812 200.188 C-64.75 198.688 -64.75 198.688 -66.812 197.188 C-66.812 196.528 -66.812 195.868 -66.812 195.188 C-67.968 195.249 -69.123 195.311 -70.312 195.375 C-76.974 195.375 -83.405 193.969 -89.888 192.58 C-91.62 192.227 -93.367 191.945 -95.113 191.672 C-101.997 190.368 -101.997 190.368 -104.383 186.914 C-105.204 185.153 -105.981 183.371 -106.711 181.57 C-108.322 178.086 -110.393 176.793 -113.812 175.188 C-115.793 174.857 -117.773 174.528 -119.812 174.188 C-119.812 146.468 -119.812 118.748 -119.812 90.188 C-118.493 89.858 -118.493 89.858 -111.812 88.188 C-108.439 85.987 -106.005 84.09 -104.812 80.188 C-104.35 75.411 -104.313 73.168 -106.5 68.875 C-110.69 64.005 -113.369 63.261 -119.812 62.188 C-119.812 52.948 -119.812 43.707 -119.812 34.188 C-120.803 34.188 -121.792 34.188 -122.812 34.188 C-122.483 32.867 -122.153 31.547 -121.812 30.188 C-120.493 30.188 -119.172 30.188 -117.812 30.188 C-117.677 29.654 -117.542 29.12 -117.402 28.57 C-113.057 13.529 -101.151 2.6 -87.812 -4.812 C-84.222 -6.736 -80.616 -8.355 -76.812 -9.812 C-75.785 -10.207 -74.758 -10.601 -73.699 -11.008 C-49.738 -18.769 -20.595 -14.388 0 0 Z M-82.812 20.188 C-82.812 20.517 -82.812 20.847 -82.812 21.188 C-59.713 21.188 -36.613 21.188 -12.812 21.188 C-33.913 4.307 -60.626 8.208 -82.812 20.188 Z M-115.812 34.188 C-115.812 42.108 -115.812 50.028 -115.812 58.188 C-112.513 59.838 -109.213 61.487 -105.812 63.188 C-101.792 68.012 -99.991 71.638 -100.395 77.949 C-101.411 83.393 -103.445 87.082 -107.75 90.562 C-110.812 92.188 -110.812 92.188 -115.812 94.188 C-115.812 119.267 -115.812 144.347 -115.812 170.188 C-114.162 171.012 -114.162 171.012 -105.812 175.188 C-103.3 177.7 -102.071 179.332 -101.051 182.711 C-99.812 185.188 -99.812 185.188 -97.512 186.445 C-87.101 189.443 -76.551 190.892 -65.812 192.188 C-65.42 192.236 -65.42 192.236 -63.436 192.482 C-48.353 194.272 -33.722 192.872 -18.768 190.627 C-16.841 190.341 -14.913 190.069 -12.982 189.814 C1.516 187.867 1.516 187.867 5.516 183.848 C6.971 181.345 8.076 178.855 9.188 176.188 C12.906 172.469 14.896 171.951 20.188 170.188 C20.188 125.308 20.188 80.427 20.188 34.188 C-24.692 34.188 -69.573 34.188 -115.812 34.188 Z " fill="#273A7A" transform="translate(175.8125,25.8125)"/>
<path d="M0 0 C9.014 7.002 16.569 14.555 21.188 25.188 C21.371 28.047 21.371 28.047 21.188 30.188 C16.031 30.792 11.331 31.036 6.188 30.188 C2.671 27.408 0.634 23.903 -1.812 20.188 C-8.045 13.292 -15.212 9.499 -23.812 6.188 C-24.882 5.772 -25.952 5.357 -27.055 4.93 C-44.399 -0.906 -62.822 1.299 -79.285 8.762 C-87.377 13.15 -94.699 18.957 -98.938 27.25 C-100.02 28.945 -100.02 28.945 -101.812 30.188 C-106.88 30.786 -111.736 30.59 -116.812 30.188 C-115.626 18.311 -107.611 9.724 -98.812 2.188 C-92.028 -2.849 -84.696 -6.792 -76.812 -9.812 C-75.785 -10.207 -74.758 -10.601 -73.699 -11.008 C-49.738 -18.769 -20.595 -14.388 0 0 Z " fill="#060606" transform="translate(175.8125,25.8125)"/>
<path d="M0 0 C5.931 4.668 11.048 9.545 15 16 C15 16.66 15 17.32 15 18 C-19.98 18 -54.96 18 -91 18 C-86.549 6.873 -76.975 -0.61 -66.344 -5.609 C-44.696 -14.612 -19.626 -13.606 0 0 Z M-73 8 C-73 8.33 -73 8.66 -73 9 C-49.9 9 -26.8 9 -3 9 C-24.1 -7.88 -50.813 -3.98 -73 8 Z " fill="#F8F8F9" transform="translate(166,38)"/>
<path d="M0 0 C57.42 0 114.84 0 174 0 C174 0.33 174 0.66 174 1 C167.73 1 161.46 1 155 1 C155 1.99 155 2.98 155 4 C110.12 4 65.24 4 19 4 C19 3.01 19 2.02 19 1 C12.73 1 6.46 1 0 1 C0 0.67 0 0.34 0 0 Z " fill="#D5D6D9" transform="translate(41,240)"/>
<path d="M0 0 C2.809 1.277 4.501 2.311 6.312 4.812 C7.585 8.861 7.509 11.88 5.75 15.75 C3.869 18.169 2.902 19.088 0 20 C-4.632 20.493 -7.31 19.87 -11 17 C-13.342 13.246 -13.267 10.409 -12.668 6.129 C-12 4 -12 4 -9.312 1.438 C-5.757 -0.105 -3.818 -0.569 0 0 Z " fill="#4A5CA6" transform="translate(61,204)"/>
<path d="M0 0 C3.954 0.264 5.654 0.861 8.75 3.25 C11.234 6.976 11.13 8.837 10.75 13.25 C9.495 16.073 8.466 17.713 6 19.562 C2.688 20.575 0.196 20.673 -3.25 20.25 C-7.129 17.045 -9.058 14.944 -9.625 9.938 C-9.158 5.344 -7.73 4.136 -4.25 1.25 C-3.25 0.25 -3.25 0.25 0 0 Z " fill="#D3D4D7" transform="translate(57.25,91.75)"/>
<path d="M0 0 C23.76 0 47.52 0 72 0 C72 1.32 72 2.64 72 4 C48.24 4 24.48 4 0 4 C0 2.68 0 1.36 0 0 Z " fill="#050608" transform="translate(92,56)"/>
<path d="M0 0 C11.88 0 23.76 0 36 0 C30.672 5.328 24.773 6.193 17.375 6.312 C9.677 6.106 5.648 5.648 0 0 Z " fill="#D97A29" transform="translate(110,222)"/>
<path d="M0 0 C2.938 0.812 2.938 0.812 4.938 3.812 C4.75 6.875 4.75 6.875 3.938 9.812 C0.938 11.812 0.938 11.812 -2.125 11.625 C-5.062 10.812 -5.062 10.812 -7.062 7.812 C-6.875 4.75 -6.875 4.75 -6.062 1.812 C-3.062 -0.188 -3.062 -0.188 0 0 Z " fill="#354F9F" transform="translate(199.0625,208.1875)"/>
</svg>
