<?xml version="1.0" encoding="UTF-8"?>
<!-- Generator: visioncortex VTracer 0.6.12 -->
<svg version="1.1" xmlns="http://www.w3.org/2000/svg" width="256" height="256">
<path d="M0 0 C2.735 0.184 5.471 0.359 8.206 0.534 C21.148 1.36 34.085 2.255 47.013 3.27 C47.96 3.341 48.908 3.411 49.885 3.483 C66.64 4.854 66.64 4.854 72.602 10.262 C76.381 16.619 77.495 23.201 78.29 30.45 C78.407 31.389 78.523 32.328 78.643 33.296 C80.203 46.308 80.809 59.292 80.79 72.387 C80.79 72.745 80.79 72.745 80.789 74.557 C80.774 83.377 80.626 92.163 79.79 100.95 C79.755 101.338 79.755 101.338 79.578 103.3 C78.904 109.249 77.237 114.351 72.602 118.325 C57.79 130.029 36.71 131.494 18.602 133.512 C17.867 133.595 17.132 133.678 16.375 133.764 C-3.59 135.978 -23.573 136.472 -43.648 136.45 C-44.688 136.449 -45.729 136.449 -46.801 136.448 C-138.909 136.304 -138.909 136.304 -162.53 117.571 C-172.375 107.322 -169.633 86.912 -169.648 73.887 C-169.649 73.189 -169.65 72.49 -169.652 71.771 C-169.647 60.759 -169.102 49.851 -168.085 38.887 C-167.968 37.582 -167.85 36.277 -167.729 34.933 C-165.576 13.754 -165.576 13.754 -159.398 8.262 C-154.272 5.712 -149.795 4.669 -144.128 4.13 C-143.366 4.047 -142.604 3.965 -141.818 3.881 C-139.408 3.622 -136.997 3.379 -134.585 3.137 C-132.156 2.886 -129.727 2.631 -127.298 2.373 C-125.793 2.213 -124.287 2.058 -122.781 1.909 C-117.619 1.373 -117.619 1.373 -115.398 0.262 C-108.104 -0.779 -100.81 -0.835 -93.46 -0.738 C-87.082 -0.693 -80.736 -0.703 -74.368 -1.089 C-49.518 -2.587 -24.804 -1.69 0 0 Z " fill="#343434" transform="translate(172.39764404296875,60.7376708984375)"/>
<path d="M0 0 C2.283 0.001 4.567 -0 6.85 -0.002 C11.62 -0.001 16.39 0.009 21.16 0.027 C27.243 0.05 33.326 0.05 39.409 0.044 C44.12 0.04 48.831 0.047 53.542 0.057 C55.784 0.061 58.025 0.062 60.267 0.06 C92.471 0.056 92.471 0.056 101.535 7.363 C102.535 8.363 102.535 8.363 102.91 11.988 C102.82 21.439 98.201 30.904 94.633 39.5 C92.835 44.19 91.326 48.979 89.817 53.769 C87.236 61.764 84.738 68.515 77.535 73.363 C72.288 75.873 67.43 76.806 61.61 76.767 C61.236 76.771 61.236 76.771 59.344 76.788 C56.899 76.806 54.454 76.803 52.008 76.797 C50.292 76.801 48.576 76.807 46.86 76.813 C43.274 76.822 39.687 76.819 36.101 76.809 C31.523 76.798 26.947 76.818 22.37 76.847 C18.829 76.866 15.288 76.865 11.748 76.86 C10.061 76.859 8.374 76.865 6.687 76.878 C-10.174 76.985 -10.174 76.985 -17.465 72.363 C-18.393 71.786 -19.321 71.208 -20.277 70.613 C-26.326 64.392 -28.378 55.039 -30.965 46.988 C-33.55 38.996 -36.225 31.116 -39.465 23.363 C-41.481 18.423 -42.522 13.657 -41.465 8.363 C-32.623 -2.934 -12.66 -0.057 0 0 Z " fill="#0D0D0D" transform="translate(97.46484375,75.63671875)"/>
<path d="M0 0 C2.735 0.184 5.471 0.359 8.206 0.534 C21.148 1.36 34.085 2.255 47.013 3.27 C47.96 3.341 48.908 3.411 49.885 3.483 C66.64 4.854 66.64 4.854 72.602 10.262 C76.381 16.619 77.495 23.201 78.29 30.45 C78.407 31.389 78.523 32.328 78.643 33.296 C80.203 46.308 80.809 59.292 80.79 72.387 C80.79 72.745 80.79 72.745 80.789 74.557 C80.774 83.377 80.626 92.163 79.79 100.95 C79.755 101.338 79.755 101.338 79.578 103.3 C78.904 109.249 77.237 114.351 72.602 118.325 C57.79 130.029 36.71 131.494 18.602 133.512 C17.867 133.595 17.132 133.678 16.375 133.764 C-3.59 135.978 -23.573 136.472 -43.648 136.45 C-44.688 136.449 -45.729 136.449 -46.801 136.448 C-138.909 136.304 -138.909 136.304 -162.53 117.571 C-172.375 107.322 -169.633 86.912 -169.648 73.887 C-169.649 73.189 -169.65 72.49 -169.652 71.771 C-169.647 60.759 -169.102 49.851 -168.085 38.887 C-167.968 37.582 -167.85 36.277 -167.729 34.933 C-165.576 13.754 -165.576 13.754 -159.398 8.262 C-154.272 5.712 -149.795 4.669 -144.128 4.13 C-143.366 4.047 -142.604 3.965 -141.818 3.881 C-139.408 3.622 -136.997 3.379 -134.585 3.137 C-132.156 2.886 -129.727 2.631 -127.298 2.373 C-125.793 2.213 -124.287 2.058 -122.781 1.909 C-117.619 1.373 -117.619 1.373 -115.398 0.262 C-108.104 -0.779 -100.81 -0.835 -93.46 -0.738 C-87.082 -0.693 -80.736 -0.703 -74.368 -1.089 C-49.518 -2.587 -24.804 -1.69 0 0 Z M-113.398 8.262 C-113.398 9.252 -113.398 10.242 -113.398 11.262 C-114.584 11.239 -115.77 11.216 -116.991 11.192 C-148.061 10.773 -148.061 10.773 -154.981 16.594 C-157.401 19.444 -157.499 23.105 -158.023 26.7 C-158.144 27.444 -158.265 28.189 -158.39 28.956 C-159.988 39.198 -160.552 49.445 -160.53 59.801 C-160.531 60.848 -160.532 61.895 -160.533 62.974 C-160.534 65.167 -160.532 67.36 -160.528 69.553 C-160.523 72.886 -160.528 76.219 -160.534 79.551 C-160.534 81.697 -160.532 83.843 -160.53 85.989 C-160.532 86.971 -160.535 87.954 -160.537 88.966 C-160.474 107.615 -160.474 107.615 -156.14 111.962 C-130.059 131.434 -82.386 127.628 -51.618 127.578 C-48.529 127.573 -45.44 127.58 -42.351 127.599 C-25.474 127.697 -8.742 127.385 8.075 125.868 C8.771 125.805 9.467 125.743 10.184 125.678 C55.073 121.542 55.073 121.542 69.165 110.2 C73.898 100.529 71.788 85.907 71.788 75.375 C71.79 72.297 71.808 69.219 71.827 66.141 C71.946 23.528 71.946 23.528 65.54 15.762 C57.546 11.681 48.321 11.755 39.54 11.262 C36.85 11.101 34.16 10.934 31.47 10.766 C30.8 10.725 30.13 10.684 29.439 10.642 C22.494 10.208 15.563 9.618 8.635 8.96 C-9.411 7.341 -27.54 7.09 -45.648 7.137 C-46.141 7.138 -46.141 7.138 -48.636 7.14 C-70.231 7.162 -91.812 7.643 -113.398 8.262 Z " fill="#FCFCFC" transform="translate(172.39764404296875,60.7376708984375)"/>
<path d="M0 0 C26.4 0 52.8 0 80 0 C80 19.8 80 39.6 80 60 C53.6 60 27.2 60 0 60 C0 40.2 0 20.4 0 0 Z M4 4 C4 21.16 4 38.32 4 56 C27.76 56 51.52 56 76 56 C76 38.84 76 21.68 76 4 C52.24 4 28.48 4 4 4 Z " fill="#181818" transform="translate(88,80)"/>
<path d="M0 0 C4.682 1.744 7.212 3.87 10 8 C11.243 11.729 11.528 15.127 11 19 C8.779 23.36 6.564 26.133 2 28 C-3.723 28.545 -6.967 28.02 -12 25 C-12 24.01 -12 23.02 -12 22 C-12.99 22 -13.98 22 -15 22 C-17.008 17.857 -17.483 14.585 -17 10 C-13.301 2.744 -8.26 -1.032 0 0 Z " fill="#292929" transform="translate(39,106)"/>
<path d="M0 0 C-0.435 4.779 -2.665 7.359 -5.875 10.688 C-6.369 11.209 -6.863 11.731 -7.372 12.269 C-17.786 23.142 -29.116 32.834 -43 39 C-45.875 38.688 -45.875 38.688 -48 38 C-47.288 31.042 -42.221 26.252 -37 22 C-34.334 21.369 -32.584 21.402 -29.91 21.906 C-28 22 -28 22 -26.277 20.785 C-24.778 18.69 -24.614 17.487 -24.5 14.938 C-24.417 14.288 -24.417 14.288 -24 11 C-23.01 10.34 -22.02 9.68 -21 9 C-20.67 9.33 -20.34 9.66 -20 10 C-12.818 10.463 -12.818 10.463 -10.125 8.938 C-8.496 6.132 -7.865 3.113 -7 0 C-4.333 -1.333 -2.833 -0.671 0 0 Z " fill="#262626" transform="translate(240,109)"/>
<path d="M0 0 C0.33 0 0.66 0 1 0 C0.616 8.298 -1.173 14.705 -7.438 20.438 C-10.196 22.631 -12.399 23.782 -16 24 C-15.134 23.01 -14.267 22.02 -13.375 21 C-7.714 14.351 -3.219 8.179 0 0 Z " fill="#3D3D3D" transform="translate(55,127)"/>
<path d="M0 0 C0.91 0.009 1.82 0.018 2.758 0.027 C3.107 0.033 3.107 0.033 4.875 0.062 C4.545 0.722 4.215 1.382 3.875 2.062 C1.766 2.555 1.766 2.555 -0.875 2.938 C-6.083 3.89 -9.23 5.41 -12.375 9.812 C-13.5 13.188 -13.771 16.524 -14.125 20.062 C-14.785 20.062 -15.445 20.062 -16.125 20.062 C-16.5 15.375 -16.61 12.014 -14.438 7.75 C-10.038 2.637 -6.747 -0.086 0 0 Z " fill="#3C3C3C" transform="translate(36.125,103.9375)"/>
<path d="M0 0 C3.875 1.875 3.875 1.875 5 3 C5.125 6 5.125 6 5 9 C4 10 4 10 1 10.125 C-2 10 -2 10 -3 9 C-3.471 3.588 -3.471 3.588 -1.5 1.125 C-1.005 0.754 -0.51 0.382 0 0 Z " fill="#313131" transform="translate(35,122)"/>
<path d="M0 0 C3.125 0.25 3.125 0.25 5 1.75 C5.371 2.245 5.742 2.74 6.125 3.25 C4.25 7.125 4.25 7.125 3.125 8.25 C0.125 8.375 0.125 8.375 -2.875 8.25 C-3.875 7.25 -3.875 7.25 -4 4.25 C-3.837 0.334 -3.837 0.334 0 0 Z " fill="#313131" transform="translate(27.875,115.75)"/>
<path d="M0 0 C3 0.125 3 0.125 4 1.125 C4.471 6.537 4.471 6.537 2.5 9 C2.252 9.186 2.252 9.186 1 10.125 C-2.875 8.25 -2.875 8.25 -4 7.125 C-4.125 4.125 -4.125 4.125 -4 1.125 C-3 0.125 -3 0.125 0 0 Z " fill="#313131" transform="translate(36,107.875)"/>
<path d="M0 0 C1.32 0.33 2.64 0.66 4 1 C5.33 7.286 5.33 7.286 3.875 10.438 C2 12 2 12 -3 12 C-2.01 8.04 -1.02 4.08 0 0 Z " fill="#48589A" transform="translate(207,87)"/>
<path d="M0 0 C0.99 0 1.98 0 3 0 C2.83 0.559 2.66 1.119 2.484 1.695 C0.244 9.108 -1.885 16.551 -4 24 C-4.99 24 -5.98 24 -7 24 C-5.406 15.738 -2.74 7.937 0 0 Z " fill="#28282A" transform="translate(209,73)"/>
<path d="M0 0 C0.66 0 1.32 0 2 0 C2.375 4.687 2.485 8.049 0.312 12.312 C-2.445 15.517 -5.202 18.101 -9 20 C-10.54 20.07 -12.083 20.085 -13.625 20.062 C-14.034 20.058 -14.034 20.058 -16.102 20.035 C-16.728 20.024 -17.355 20.012 -18 20 C-18 19.34 -18 18.68 -18 18 C-17.408 17.963 -16.817 17.925 -16.207 17.887 C-11.456 17.491 -7.8 17.13 -4 14 C-0.518 9.772 -0.333 5.274 0 0 Z " fill="#3D3D3D" transform="translate(50,116)"/>
</svg>
