<?xml version="1.0" encoding="UTF-8"?>
<!-- Generator: visioncortex VTracer 0.6.12 -->
<svg version="1.1" xmlns="http://www.w3.org/2000/svg" width="256" height="256">
<path d="M0 0 C2.886 0.001 5.771 0.001 8.657 0.001 C32.211 0.007 55.742 0.161 79.281 1.064 C79.805 1.083 79.805 1.083 82.46 1.183 C98.041 1.788 113.697 2.623 129.093 5.189 C129.093 52.709 129.093 100.229 129.093 149.189 C113.318 151.443 113.318 151.443 107.703 151.787 C107.058 151.826 107.058 151.826 103.793 152.027 C103.141 152.064 103.141 152.064 99.843 152.251 C98.617 152.329 97.392 152.407 96.128 152.488 C66.847 154.223 37.509 154.392 8.187 154.378 C5.301 154.376 2.415 154.376 -0.471 154.377 C-24.024 154.371 -47.555 154.217 -71.094 153.314 C-72.143 153.275 -73.192 153.235 -74.273 153.195 C-89.855 152.59 -105.51 151.755 -120.907 149.189 C-120.907 101.669 -120.907 54.149 -120.907 5.189 C-105.131 2.935 -105.131 2.935 -99.516 2.591 C-98.871 2.552 -98.871 2.552 -95.606 2.351 C-94.303 2.277 -92.999 2.203 -91.657 2.126 C-90.431 2.048 -89.205 1.97 -87.942 1.89 C-58.661 0.155 -29.323 -0.014 0 0 Z " fill="#424241" transform="translate(123.90667343139648,50.811119079589844)"/>
<path d="M0 0 C2.886 0.001 5.771 0.001 8.657 0.001 C32.211 0.007 55.742 0.161 79.281 1.064 C79.805 1.083 79.805 1.083 82.46 1.183 C98.041 1.788 113.697 2.623 129.093 5.189 C129.093 52.709 129.093 100.229 129.093 149.189 C113.318 151.443 113.318 151.443 107.703 151.787 C107.058 151.826 107.058 151.826 103.793 152.027 C103.141 152.064 103.141 152.064 99.843 152.251 C98.617 152.329 97.392 152.407 96.128 152.488 C66.847 154.223 37.509 154.392 8.187 154.378 C5.301 154.376 2.415 154.376 -0.471 154.377 C-24.024 154.371 -47.555 154.217 -71.094 153.314 C-72.143 153.275 -73.192 153.235 -74.273 153.195 C-89.855 152.59 -105.51 151.755 -120.907 149.189 C-120.907 101.669 -120.907 54.149 -120.907 5.189 C-105.131 2.935 -105.131 2.935 -99.516 2.591 C-98.871 2.552 -98.871 2.552 -95.606 2.351 C-94.303 2.277 -92.999 2.203 -91.657 2.126 C-90.431 2.048 -89.205 1.97 -87.942 1.89 C-58.661 0.155 -29.323 -0.014 0 0 Z M-111.907 12.189 C-111.907 55.089 -111.907 97.989 -111.907 142.189 C-86.299 144.238 -61.232 145.349 -35.61 145.357 C-33.604 145.359 -31.599 145.362 -29.593 145.364 C-23.296 145.372 -16.998 145.375 -10.701 145.374 C-5.04 145.374 0.62 145.381 6.28 145.395 C106.745 145.638 106.745 145.638 120.093 141.189 C120.093 98.949 120.093 56.709 120.093 13.189 C115.087 11.52 109.836 11.553 104.593 11.189 C103.498 11.106 102.402 11.024 101.273 10.939 C78.632 9.332 55.954 9.027 33.265 9.021 C31.257 9.019 29.249 9.016 27.241 9.013 C20.949 9.005 14.658 9.003 8.366 9.004 C2.706 9.004 -2.955 8.997 -8.615 8.983 C-81.469 8.807 -81.469 8.807 -111.907 12.189 Z " fill="#FBFBFB" transform="translate(123.90667343139648,50.811119079589844)"/>
<path d="M0 0 C0.409 0.002 0.409 0.002 2.478 0.014 C3.344 0.01 4.21 0.007 5.102 0.004 C8.021 -0.004 10.94 0.002 13.859 0.009 C15.944 0.006 18.03 0.002 20.116 -0.002 C25.793 -0.011 31.471 -0.007 37.148 -0.001 C43.079 0.004 49.009 -0.001 54.939 -0.004 C64.899 -0.008 74.859 -0.003 84.82 0.007 C96.35 0.018 107.88 0.014 119.41 0.003 C129.293 -0.006 139.177 -0.007 149.061 -0.002 C154.971 0.001 160.881 0.001 166.791 -0.005 C172.346 -0.011 177.901 -0.007 183.456 0.005 C185.5 0.007 187.543 0.007 189.587 0.002 C192.367 -0.003 195.147 0.004 197.927 0.014 C198.745 0.009 199.562 0.005 200.405 0 C205.974 0.039 205.974 0.039 208.202 2.267 C208.461 4.666 208.461 4.666 208.468 7.642 C208.471 8.71 208.473 9.777 208.476 10.877 C208.468 11.996 208.46 13.115 208.452 14.267 C208.46 15.386 208.468 16.505 208.476 17.658 C208.473 18.725 208.471 19.793 208.468 20.892 C208.466 21.875 208.464 22.857 208.461 23.869 C208.202 26.267 208.202 26.267 206.202 28.267 C203.411 28.465 200.719 28.537 197.927 28.521 C197.061 28.525 196.195 28.528 195.303 28.531 C192.384 28.539 189.465 28.533 186.546 28.526 C184.461 28.529 182.375 28.533 180.289 28.537 C174.612 28.546 168.934 28.542 163.257 28.536 C157.326 28.531 151.396 28.536 145.466 28.539 C135.506 28.543 125.546 28.538 115.585 28.528 C104.055 28.517 92.525 28.521 80.995 28.532 C71.112 28.541 61.228 28.542 51.344 28.537 C45.434 28.534 39.524 28.533 33.614 28.54 C28.059 28.546 22.504 28.542 16.949 28.53 C14.905 28.528 12.861 28.528 10.818 28.533 C8.038 28.538 5.258 28.531 2.478 28.521 C2.069 28.524 2.069 28.524 0 28.535 C-5.569 28.496 -5.569 28.496 -7.798 26.267 C-8.056 23.869 -8.056 23.869 -8.063 20.892 C-8.066 19.825 -8.068 18.758 -8.071 17.658 C-8.067 17.099 -8.067 17.099 -8.048 14.267 C-8.055 13.149 -8.063 12.03 -8.071 10.877 C-8.068 9.81 -8.066 8.742 -8.063 7.642 C-8.061 6.66 -8.059 5.678 -8.056 4.666 C-7.509 -0.407 -4.356 0.031 0 0 Z " fill="#BE9956" transform="translate(27.79753875732422,155.7325131893158)"/>
<path d="M0 0 C0.409 0.002 0.409 0.002 2.478 0.014 C3.344 0.01 4.21 0.007 5.102 0.004 C8.021 -0.004 10.94 0.002 13.859 0.009 C15.944 0.006 18.03 0.002 20.116 -0.002 C25.793 -0.011 31.471 -0.007 37.148 -0.001 C43.079 0.004 49.009 -0.001 54.939 -0.004 C64.899 -0.008 74.859 -0.003 84.82 0.007 C96.35 0.018 107.88 0.014 119.41 0.003 C129.293 -0.006 139.177 -0.007 149.061 -0.002 C154.971 0.001 160.881 0.001 166.791 -0.005 C172.346 -0.011 177.901 -0.007 183.456 0.005 C185.5 0.007 187.543 0.007 189.587 0.002 C192.367 -0.003 195.147 0.004 197.927 0.014 C198.745 0.009 199.562 0.005 200.405 0 C205.974 0.039 205.974 0.039 208.202 2.267 C208.461 4.666 208.461 4.666 208.468 7.642 C208.471 8.71 208.473 9.777 208.476 10.877 C208.468 11.996 208.46 13.115 208.452 14.267 C208.46 15.386 208.468 16.505 208.476 17.658 C208.473 18.725 208.471 19.793 208.468 20.892 C208.466 21.875 208.464 22.857 208.461 23.869 C208.202 26.267 208.202 26.267 206.202 28.267 C203.411 28.465 200.719 28.537 197.927 28.521 C197.061 28.525 196.195 28.528 195.303 28.531 C192.384 28.539 189.465 28.533 186.546 28.526 C184.461 28.529 182.375 28.533 180.289 28.537 C174.612 28.546 168.934 28.542 163.257 28.536 C157.326 28.531 151.396 28.536 145.466 28.539 C135.506 28.543 125.546 28.538 115.585 28.528 C104.055 28.517 92.525 28.521 80.995 28.532 C71.112 28.541 61.228 28.542 51.344 28.537 C45.434 28.534 39.524 28.533 33.614 28.54 C28.059 28.546 22.504 28.542 16.949 28.53 C14.905 28.528 12.861 28.528 10.818 28.533 C8.038 28.538 5.258 28.531 2.478 28.521 C2.069 28.524 2.069 28.524 0 28.535 C-5.569 28.496 -5.569 28.496 -7.798 26.267 C-8.056 23.869 -8.056 23.869 -8.063 20.892 C-8.066 19.825 -8.068 18.758 -8.071 17.658 C-8.067 17.099 -8.067 17.099 -8.048 14.267 C-8.055 13.149 -8.063 12.03 -8.071 10.877 C-8.068 9.81 -8.066 8.742 -8.063 7.642 C-8.061 6.66 -8.059 5.678 -8.056 4.666 C-7.509 -0.407 -4.356 0.031 0 0 Z " fill="#BE9956" transform="translate(27.79753875732422,71.7325131893158)"/>
<path d="M0 0 C30.03 0 60.06 0 91 0 C91 15.84 91 31.68 91 48 C60.97 48 30.94 48 0 48 C0 32.16 0 16.32 0 0 Z " fill="#353433" transform="translate(152,104)"/>
<path d="M0 0 C30.03 0 60.06 0 91 0 C91 15.84 91 31.68 91 48 C60.97 48 30.94 48 0 48 C0 32.16 0 16.32 0 0 Z " fill="#353433" transform="translate(13,104)"/>
<path d="M0 0 C0.409 0.002 0.409 0.002 2.478 0.014 C3.344 0.01 4.21 0.007 5.102 0.004 C8.021 -0.004 10.94 0.002 13.859 0.009 C15.944 0.006 18.03 0.002 20.116 -0.002 C25.793 -0.011 31.471 -0.007 37.148 -0.001 C43.079 0.004 49.009 -0.001 54.939 -0.004 C64.899 -0.008 74.859 -0.003 84.82 0.007 C96.35 0.018 107.88 0.014 119.41 0.003 C129.293 -0.006 139.177 -0.007 149.061 -0.002 C154.971 0.001 160.881 0.001 166.791 -0.005 C172.346 -0.011 177.901 -0.007 183.456 0.005 C185.5 0.007 187.543 0.007 189.587 0.002 C192.367 -0.003 195.147 0.004 197.927 0.014 C198.745 0.009 199.562 0.005 200.405 0 C205.974 0.039 205.974 0.039 208.202 2.267 C208.461 4.666 208.461 4.666 208.468 7.642 C208.471 8.71 208.473 9.777 208.476 10.877 C208.468 11.996 208.46 13.115 208.452 14.267 C208.46 15.386 208.468 16.505 208.476 17.658 C208.473 18.725 208.471 19.793 208.468 20.892 C208.466 21.875 208.464 22.857 208.461 23.869 C208.202 26.267 208.202 26.267 206.202 28.267 C203.411 28.465 200.719 28.537 197.927 28.521 C197.061 28.525 196.195 28.528 195.303 28.531 C192.384 28.539 189.465 28.533 186.546 28.526 C184.461 28.529 182.375 28.533 180.289 28.537 C174.612 28.546 168.934 28.542 163.257 28.536 C157.326 28.531 151.396 28.536 145.466 28.539 C135.506 28.543 125.546 28.538 115.585 28.528 C104.055 28.517 92.525 28.521 80.995 28.532 C71.112 28.541 61.228 28.542 51.344 28.537 C45.434 28.534 39.524 28.533 33.614 28.54 C28.059 28.546 22.504 28.542 16.949 28.53 C14.905 28.528 12.861 28.528 10.818 28.533 C8.038 28.538 5.258 28.531 2.478 28.521 C2.069 28.524 2.069 28.524 0 28.535 C-5.569 28.496 -5.569 28.496 -7.798 26.267 C-8.056 23.869 -8.056 23.869 -8.063 20.892 C-8.066 19.825 -8.068 18.758 -8.071 17.658 C-8.067 17.099 -8.067 17.099 -8.048 14.267 C-8.055 13.149 -8.063 12.03 -8.071 10.877 C-8.068 9.81 -8.066 8.742 -8.063 7.642 C-8.061 6.66 -8.059 5.678 -8.056 4.666 C-7.509 -0.407 -4.356 0.031 0 0 Z M-3.798 6.267 C-3.996 8.977 -4.076 11.561 -4.048 14.267 C-4.055 15.005 -4.063 15.742 -4.071 16.502 C-4.051 22.014 -4.051 22.014 -1.798 24.267 C0.898 24.461 3.491 24.528 6.188 24.508 C7.022 24.51 7.857 24.511 8.717 24.513 C11.53 24.516 14.343 24.505 17.156 24.495 C19.166 24.494 21.176 24.494 23.186 24.495 C28.657 24.496 34.128 24.484 39.599 24.47 C45.311 24.458 51.023 24.457 56.735 24.454 C67.558 24.448 78.381 24.432 89.205 24.412 C101.524 24.389 113.843 24.378 126.162 24.368 C151.509 24.347 176.856 24.312 202.202 24.267 C202.862 22.947 203.522 21.627 204.202 20.267 C187.042 20.267 169.882 20.267 152.202 20.267 C152.202 16.307 152.202 12.347 152.202 8.267 C169.362 8.267 186.522 8.267 204.202 8.267 C203.872 7.607 203.872 7.607 202.202 4.267 C175.639 4.221 149.075 4.186 122.511 4.164 C110.178 4.154 97.845 4.139 85.512 4.117 C74.765 4.097 64.019 4.084 53.273 4.079 C47.58 4.077 41.887 4.071 36.194 4.056 C30.841 4.043 25.488 4.038 20.135 4.041 C18.165 4.041 16.195 4.037 14.225 4.029 C11.546 4.019 8.867 4.021 6.188 4.027 C5.4 4.021 4.612 4.015 3.8 4.009 C-1.569 4.039 -1.569 4.039 -3.798 6.267 Z " fill="#A08149" transform="translate(27.79753875732422,155.7325131893158)"/>
<path d="M0 0 C0.477 -0.003 0.477 -0.003 2.892 -0.019 C3.925 -0.015 4.959 -0.011 6.023 -0.007 C7.081 -0.009 8.139 -0.011 9.229 -0.013 C11.468 -0.014 13.708 -0.01 15.947 -0.002 C19.384 0.009 22.821 -0.002 26.258 -0.015 C28.43 -0.013 30.602 -0.011 32.773 -0.007 C33.807 -0.011 34.84 -0.015 35.905 -0.019 C36.859 -0.013 37.814 -0.006 38.797 0 C39.639 0.002 40.481 0.003 41.349 0.005 C43.398 0.259 43.398 0.259 45.398 2.259 C45.598 4.96 45.678 7.557 45.664 10.259 C45.665 10.655 45.665 10.655 45.67 12.657 C45.671 14.332 45.668 16.006 45.659 17.681 C45.648 20.249 45.659 22.816 45.672 25.384 C45.671 27.009 45.668 28.634 45.664 30.259 C45.668 31.03 45.672 31.801 45.676 32.595 C45.628 38.029 45.628 38.029 43.398 40.259 C41.349 40.513 41.349 40.513 38.797 40.518 C37.842 40.524 36.888 40.53 35.905 40.537 C34.871 40.533 33.838 40.529 32.773 40.524 C31.716 40.526 30.658 40.528 29.568 40.53 C27.328 40.532 25.089 40.528 22.85 40.52 C19.413 40.509 15.976 40.519 12.539 40.532 C10.367 40.531 8.195 40.528 6.023 40.524 C4.99 40.528 3.957 40.533 2.892 40.537 C1.938 40.53 0.983 40.524 0 40.518 C-0.842 40.516 -1.684 40.514 -2.552 40.513 C-4.602 40.259 -4.602 40.259 -6.602 38.259 C-6.801 35.557 -6.881 32.961 -6.867 30.259 C-6.869 29.467 -6.871 28.676 -6.873 27.86 C-6.874 26.186 -6.871 24.511 -6.862 22.837 C-6.852 20.269 -6.862 17.702 -6.875 15.134 C-6.874 13.509 -6.871 11.884 -6.867 10.259 C-6.871 9.488 -6.875 8.717 -6.879 7.923 C-6.827 1.963 -6.089 0.012 0 0 Z " fill="#997B45" transform="translate(166.6015625,107.7412109375)"/>
<path d="M0 0 C0.477 -0.003 0.477 -0.003 2.892 -0.019 C3.925 -0.015 4.959 -0.011 6.023 -0.007 C7.081 -0.009 8.139 -0.011 9.229 -0.013 C11.468 -0.014 13.708 -0.01 15.947 -0.002 C19.384 0.009 22.821 -0.002 26.258 -0.015 C28.43 -0.013 30.602 -0.011 32.773 -0.007 C33.807 -0.011 34.84 -0.015 35.905 -0.019 C36.859 -0.013 37.814 -0.006 38.797 0 C39.639 0.002 40.481 0.003 41.349 0.005 C43.398 0.259 43.398 0.259 45.398 2.259 C45.598 4.96 45.678 7.557 45.664 10.259 C45.665 10.655 45.665 10.655 45.67 12.657 C45.671 14.332 45.668 16.006 45.659 17.681 C45.648 20.249 45.659 22.816 45.672 25.384 C45.671 27.009 45.668 28.634 45.664 30.259 C45.668 31.03 45.672 31.801 45.676 32.595 C45.628 38.029 45.628 38.029 43.398 40.259 C41.349 40.513 41.349 40.513 38.797 40.518 C37.842 40.524 36.888 40.53 35.905 40.537 C34.871 40.533 33.838 40.529 32.773 40.524 C31.716 40.526 30.658 40.528 29.568 40.53 C27.328 40.532 25.089 40.528 22.85 40.52 C19.413 40.509 15.976 40.519 12.539 40.532 C10.367 40.531 8.195 40.528 6.023 40.524 C4.99 40.528 3.957 40.533 2.892 40.537 C1.938 40.53 0.983 40.524 0 40.518 C-0.842 40.516 -1.684 40.514 -2.552 40.513 C-4.602 40.259 -4.602 40.259 -6.602 38.259 C-6.801 35.557 -6.881 32.961 -6.867 30.259 C-6.869 29.467 -6.871 28.676 -6.873 27.86 C-6.874 26.186 -6.871 24.511 -6.862 22.837 C-6.852 20.269 -6.862 17.702 -6.875 15.134 C-6.874 13.509 -6.871 11.884 -6.867 10.259 C-6.871 9.488 -6.875 8.717 -6.879 7.923 C-6.827 1.963 -6.089 0.012 0 0 Z " fill="#997B45" transform="translate(50.6015625,107.7412109375)"/>
<path d="M0 0 C0.409 0.002 0.409 0.002 2.478 0.014 C3.344 0.01 4.21 0.007 5.102 0.004 C8.021 -0.004 10.94 0.002 13.859 0.009 C15.944 0.006 18.03 0.002 20.116 -0.002 C25.793 -0.011 31.471 -0.007 37.148 -0.001 C43.079 0.004 49.009 -0.001 54.939 -0.004 C64.899 -0.008 74.859 -0.003 84.82 0.007 C96.35 0.018 107.88 0.014 119.41 0.003 C129.293 -0.006 139.177 -0.007 149.061 -0.002 C154.971 0.001 160.881 0.001 166.791 -0.005 C172.346 -0.011 177.901 -0.007 183.456 0.005 C185.5 0.007 187.543 0.007 189.587 0.002 C192.367 -0.003 195.147 0.004 197.927 0.014 C198.745 0.009 199.562 0.005 200.405 0 C205.974 0.039 205.974 0.039 208.202 2.267 C208.461 4.666 208.461 4.666 208.468 7.642 C208.471 8.71 208.473 9.777 208.476 10.877 C208.468 11.996 208.46 13.115 208.452 14.267 C208.46 15.386 208.468 16.505 208.476 17.658 C208.473 18.725 208.471 19.793 208.468 20.892 C208.466 21.875 208.464 22.857 208.461 23.869 C208.202 26.267 208.202 26.267 206.202 28.267 C203.411 28.465 200.719 28.537 197.927 28.521 C197.061 28.525 196.195 28.528 195.303 28.531 C192.384 28.539 189.465 28.533 186.546 28.526 C184.461 28.529 182.375 28.533 180.289 28.537 C174.612 28.546 168.934 28.542 163.257 28.536 C157.326 28.531 151.396 28.536 145.466 28.539 C135.506 28.543 125.546 28.538 115.585 28.528 C104.055 28.517 92.525 28.521 80.995 28.532 C71.112 28.541 61.228 28.542 51.344 28.537 C45.434 28.534 39.524 28.533 33.614 28.54 C28.059 28.546 22.504 28.542 16.949 28.53 C14.905 28.528 12.861 28.528 10.818 28.533 C8.038 28.538 5.258 28.531 2.478 28.521 C2.069 28.524 2.069 28.524 0 28.535 C-5.569 28.496 -5.569 28.496 -7.798 26.267 C-8.056 23.869 -8.056 23.869 -8.063 20.892 C-8.066 19.825 -8.068 18.758 -8.071 17.658 C-8.067 17.099 -8.067 17.099 -8.048 14.267 C-8.055 13.149 -8.063 12.03 -8.071 10.877 C-8.068 9.81 -8.066 8.742 -8.063 7.642 C-8.061 6.66 -8.059 5.678 -8.056 4.666 C-7.509 -0.407 -4.356 0.031 0 0 Z M-3.798 6.267 C-3.996 8.977 -4.076 11.561 -4.048 14.267 C-4.055 15.005 -4.063 15.742 -4.071 16.502 C-4.051 22.014 -4.051 22.014 -1.798 24.267 C0.894 24.465 3.482 24.537 6.174 24.521 C7.007 24.525 7.841 24.528 8.699 24.531 C11.508 24.539 14.316 24.533 17.124 24.526 C19.131 24.529 21.138 24.533 23.145 24.537 C28.608 24.546 34.07 24.542 39.533 24.536 C45.239 24.531 50.945 24.536 56.651 24.539 C66.234 24.543 75.818 24.538 85.402 24.528 C96.495 24.517 107.589 24.521 118.683 24.532 C128.193 24.541 137.703 24.542 147.213 24.537 C152.899 24.534 158.586 24.533 164.272 24.54 C169.617 24.546 174.962 24.542 180.307 24.53 C182.273 24.528 184.24 24.528 186.206 24.533 C188.881 24.538 191.556 24.531 194.231 24.521 C194.624 24.524 194.624 24.524 196.614 24.535 C201.974 24.496 201.974 24.496 204.202 22.267 C204.401 19.558 204.481 16.974 204.452 14.267 C204.46 13.53 204.468 12.793 204.476 12.033 C204.456 6.521 204.456 6.521 202.202 4.267 C199.511 4.07 196.923 3.998 194.231 4.014 C193.397 4.01 192.564 4.007 191.706 4.004 C188.897 3.996 186.089 4.002 183.281 4.009 C181.274 4.006 179.267 4.002 177.26 3.998 C171.797 3.989 166.335 3.993 160.872 3.999 C155.166 4.004 149.46 3.999 143.754 3.996 C134.171 3.992 124.587 3.997 115.003 4.007 C103.909 4.018 92.816 4.014 81.722 4.003 C72.212 3.994 62.702 3.993 53.192 3.998 C47.506 4.001 41.819 4.001 36.133 3.995 C30.788 3.989 25.443 3.993 20.098 4.005 C18.132 4.007 16.165 4.007 14.199 4.002 C11.524 3.997 8.849 4.004 6.174 4.014 C5.388 4.009 4.601 4.005 3.791 4 C-1.569 4.039 -1.569 4.039 -3.798 6.267 Z " fill="#A08149" transform="translate(27.79753875732422,71.7325131893158)"/>
<path d="M0 0 C17.16 0 34.32 0 52 0 C52 3.96 52 7.92 52 12 C34.84 12 17.68 12 0 12 C0 8.04 0 4.08 0 0 Z " fill="#43413D" transform="translate(180,164)"/>
<path d="M0 0 C3.127 2.061 4.335 3.354 5.75 6.812 C6.316 12.002 5.705 15.479 2.75 19.812 C-1.583 22.767 -5.061 23.379 -10.25 22.812 C-13.709 21.397 -15.001 20.19 -17.062 17.062 C-18.788 12.341 -19.076 8.724 -17.062 4.062 C-12.348 -1.79 -6.952 -2.54 0 0 Z " fill="#D4AB61" transform="translate(234.25,117.1875)"/>
<path d="M0 0 C3.127 2.061 4.335 3.354 5.75 6.812 C6.316 12.002 5.705 15.479 2.75 19.812 C-1.583 22.767 -5.061 23.379 -10.25 22.812 C-13.709 21.397 -15.001 20.19 -17.062 17.062 C-18.788 12.341 -19.076 8.724 -17.062 4.062 C-12.348 -1.79 -6.952 -2.54 0 0 Z " fill="#D4AB61" transform="translate(34.25,117.1875)"/>
<path d="M0 0 C2.979 -0.027 5.958 -0.047 8.938 -0.062 C9.788 -0.071 10.638 -0.079 11.514 -0.088 C12.323 -0.091 13.131 -0.094 13.965 -0.098 C14.714 -0.103 15.463 -0.108 16.234 -0.114 C18 0 18 0 19 1 C19.133 2.812 19.133 2.812 19.125 5 C19.126 5.361 19.126 5.361 19.133 7.188 C19 9 19 9 18 10 C16.657 10.086 15.31 10.107 13.965 10.098 C13.156 10.094 12.347 10.091 11.514 10.088 C10.664 10.08 9.813 10.071 8.938 10.062 C8.083 10.058 7.229 10.053 6.35 10.049 C4.233 10.037 2.117 10.019 0 10 C0 6.7 0 3.4 0 0 Z " fill="#323232" transform="translate(181,165)"/>
<path d="M0 0 C1.134 0.021 2.269 0.041 3.438 0.062 C3.438 3.363 3.438 6.662 3.438 10.062 C1.105 10.105 -1.23 10.103 -3.562 10.062 C-4.562 9.062 -4.562 9.062 -4.695 7.25 C-4.693 6.528 -4.69 5.806 -4.688 5.062 C-4.689 4.702 -4.689 4.702 -4.695 2.875 C-4.447 -0.516 -3.511 0.062 0 0 Z " fill="#333333" transform="translate(216.5625,164.9375)"/>
<path d="M0 0 C2.31 0 4.62 0 7 0 C7 3.3 7 6.6 7 10 C4.69 10 2.38 10 0 10 C0 6.7 0 3.4 0 0 Z " fill="#323233" transform="translate(224,165)"/>
<path d="M0 0 C0.99 0.33 1.98 0.66 3 1 C3 5.62 3 10.24 3 15 C1.68 15 0.36 15 -1 15 C-1.027 12.688 -1.046 10.375 -1.062 8.062 C-1.074 6.775 -1.086 5.487 -1.098 4.16 C-1 1 -1 1 0 0 Z " fill="#272727" transform="translate(147,132)"/>
<path d="M0 0 C0.99 0.33 1.98 0.66 3 1 C3 5.62 3 10.24 3 15 C1.68 15 0.36 15 -1 15 C-1.027 12.688 -1.046 10.375 -1.062 8.062 C-1.074 6.775 -1.086 5.487 -1.098 4.16 C-1 1 -1 1 0 0 Z " fill="#272727" transform="translate(139,132)"/>
<path d="M0 0 C0.99 0.33 1.98 0.66 3 1 C3 5.62 3 10.24 3 15 C1.68 15 0.36 15 -1 15 C-1.027 12.688 -1.046 10.375 -1.062 8.062 C-1.074 6.775 -1.086 5.487 -1.098 4.16 C-1 1 -1 1 0 0 Z " fill="#272727" transform="translate(131,132)"/>
<path d="M0 0 C0.99 0.33 1.98 0.66 3 1 C3 5.62 3 10.24 3 15 C1.68 15 0.36 15 -1 15 C-1.027 12.688 -1.046 10.375 -1.062 8.062 C-1.074 6.775 -1.086 5.487 -1.098 4.16 C-1 1 -1 1 0 0 Z " fill="#272727" transform="translate(123,132)"/>
<path d="M0 0 C0.99 0.33 1.98 0.66 3 1 C3 5.62 3 10.24 3 15 C1.68 15 0.36 15 -1 15 C-1.027 12.688 -1.046 10.375 -1.062 8.062 C-1.074 6.775 -1.086 5.487 -1.098 4.16 C-1 1 -1 1 0 0 Z " fill="#272727" transform="translate(115,132)"/>
<path d="M0 0 C0.99 0.33 1.98 0.66 3 1 C3 5.62 3 10.24 3 15 C1.68 15 0.36 15 -1 15 C-1.027 12.688 -1.046 10.375 -1.062 8.062 C-1.074 6.775 -1.086 5.487 -1.098 4.16 C-1 1 -1 1 0 0 Z " fill="#272727" transform="translate(107,132)"/>
<path d="M0 0 C0.99 0.33 1.98 0.66 3 1 C3 5.62 3 10.24 3 15 C1.68 15 0.36 15 -1 15 C-1.027 12.688 -1.046 10.375 -1.062 8.062 C-1.074 6.775 -1.086 5.487 -1.098 4.16 C-1 1 -1 1 0 0 Z " fill="#272727" transform="translate(147,108)"/>
<path d="M0 0 C0.99 0.33 1.98 0.66 3 1 C3 5.62 3 10.24 3 15 C1.68 15 0.36 15 -1 15 C-1.027 12.688 -1.046 10.375 -1.062 8.062 C-1.074 6.775 -1.086 5.487 -1.098 4.16 C-1 1 -1 1 0 0 Z " fill="#272727" transform="translate(139,108)"/>
<path d="M0 0 C0.99 0.33 1.98 0.66 3 1 C3 5.62 3 10.24 3 15 C1.68 15 0.36 15 -1 15 C-1.027 12.688 -1.046 10.375 -1.062 8.062 C-1.074 6.775 -1.086 5.487 -1.098 4.16 C-1 1 -1 1 0 0 Z " fill="#272727" transform="translate(131,108)"/>
<path d="M0 0 C0.99 0.33 1.98 0.66 3 1 C3 5.62 3 10.24 3 15 C1.68 15 0.36 15 -1 15 C-1.027 12.688 -1.046 10.375 -1.062 8.062 C-1.074 6.775 -1.086 5.487 -1.098 4.16 C-1 1 -1 1 0 0 Z " fill="#272727" transform="translate(123,108)"/>
<path d="M0 0 C0.99 0.33 1.98 0.66 3 1 C3 5.62 3 10.24 3 15 C1.68 15 0.36 15 -1 15 C-1.027 12.688 -1.046 10.375 -1.062 8.062 C-1.074 6.775 -1.086 5.487 -1.098 4.16 C-1 1 -1 1 0 0 Z " fill="#272727" transform="translate(115,108)"/>
<path d="M0 0 C0.99 0.33 1.98 0.66 3 1 C3 5.62 3 10.24 3 15 C1.68 15 0.36 15 -1 15 C-1.027 12.688 -1.046 10.375 -1.062 8.062 C-1.074 6.775 -1.086 5.487 -1.098 4.16 C-1 1 -1 1 0 0 Z " fill="#272727" transform="translate(107,108)"/>
<path d="M0 0 C0.598 0.227 1.196 0.454 1.812 0.688 C2.5 2.5 2.5 2.5 2.812 4.688 C1.625 6.5 1.625 6.5 -0.188 7.688 C-2.375 7.375 -2.375 7.375 -4.188 6.688 C-4.875 4.875 -4.875 4.875 -5.188 2.688 C-3.585 0.241 -2.955 -0.422 0 0 Z " fill="#D5AC61" transform="translate(205.1875,136.3125)"/>
<path d="M0 0 C0.598 0.227 1.196 0.454 1.812 0.688 C2.5 2.5 2.5 2.5 2.812 4.688 C1.625 6.5 1.625 6.5 -0.188 7.688 C-2.375 7.375 -2.375 7.375 -4.188 6.688 C-4.875 4.875 -4.875 4.875 -5.188 2.688 C-3.585 0.241 -2.955 -0.422 0 0 Z " fill="#D5AC61" transform="translate(193.1875,136.3125)"/>
<path d="M0 0 C0.598 0.227 1.196 0.454 1.812 0.688 C2.5 2.5 2.5 2.5 2.812 4.688 C1.625 6.5 1.625 6.5 -0.188 7.688 C-2.375 7.375 -2.375 7.375 -4.188 6.688 C-4.875 4.875 -4.875 4.875 -5.188 2.688 C-3.585 0.241 -2.955 -0.422 0 0 Z " fill="#D5AC61" transform="translate(181.1875,136.3125)"/>
<path d="M0 0 C0.598 0.227 1.196 0.454 1.812 0.688 C2.5 2.5 2.5 2.5 2.812 4.688 C1.625 6.5 1.625 6.5 -0.188 7.688 C-2.375 7.375 -2.375 7.375 -4.188 6.688 C-4.875 4.875 -4.875 4.875 -5.188 2.688 C-3.585 0.241 -2.955 -0.422 0 0 Z " fill="#D5AC61" transform="translate(169.1875,136.3125)"/>
<path d="M0 0 C0.598 0.227 1.196 0.454 1.812 0.688 C2.5 2.5 2.5 2.5 2.812 4.688 C1.625 6.5 1.625 6.5 -0.188 7.688 C-2.375 7.375 -2.375 7.375 -4.188 6.688 C-4.875 4.875 -4.875 4.875 -5.188 2.688 C-3.585 0.241 -2.955 -0.422 0 0 Z " fill="#D5AC61" transform="translate(89.1875,136.3125)"/>
<path d="M0 0 C0.598 0.227 1.196 0.454 1.812 0.688 C2.5 2.5 2.5 2.5 2.812 4.688 C1.625 6.5 1.625 6.5 -0.188 7.688 C-2.375 7.375 -2.375 7.375 -4.188 6.688 C-4.875 4.875 -4.875 4.875 -5.188 2.688 C-3.585 0.241 -2.955 -0.422 0 0 Z " fill="#D5AC61" transform="translate(77.1875,136.3125)"/>
<path d="M0 0 C0.598 0.227 1.196 0.454 1.812 0.688 C2.5 2.5 2.5 2.5 2.812 4.688 C1.625 6.5 1.625 6.5 -0.188 7.688 C-2.375 7.375 -2.375 7.375 -4.188 6.688 C-4.875 4.875 -4.875 4.875 -5.188 2.688 C-3.585 0.241 -2.955 -0.422 0 0 Z " fill="#D5AC61" transform="translate(65.1875,136.3125)"/>
<path d="M0 0 C0.598 0.227 1.196 0.454 1.812 0.688 C2.5 2.5 2.5 2.5 2.812 4.688 C1.625 6.5 1.625 6.5 -0.188 7.688 C-2.375 7.375 -2.375 7.375 -4.188 6.688 C-4.875 4.875 -4.875 4.875 -5.188 2.688 C-3.585 0.241 -2.955 -0.422 0 0 Z " fill="#D5AC61" transform="translate(53.1875,136.3125)"/>
<path d="M0 0 C0.598 0.227 1.196 0.454 1.812 0.688 C2.5 2.5 2.5 2.5 2.812 4.688 C1.625 6.5 1.625 6.5 -0.188 7.688 C-2.375 7.375 -2.375 7.375 -4.188 6.688 C-4.875 4.875 -4.875 4.875 -5.188 2.688 C-3.585 0.241 -2.955 -0.422 0 0 Z " fill="#D5AC61" transform="translate(205.1875,124.3125)"/>
<path d="M0 0 C0.598 0.227 1.196 0.454 1.812 0.688 C2.5 2.5 2.5 2.5 2.812 4.688 C1.625 6.5 1.625 6.5 -0.188 7.688 C-2.375 7.375 -2.375 7.375 -4.188 6.688 C-4.875 4.875 -4.875 4.875 -5.188 2.688 C-3.585 0.241 -2.955 -0.422 0 0 Z " fill="#D5AC61" transform="translate(193.1875,124.3125)"/>
<path d="M0 0 C0.598 0.227 1.196 0.454 1.812 0.688 C2.5 2.5 2.5 2.5 2.812 4.688 C1.625 6.5 1.625 6.5 -0.188 7.688 C-2.375 7.375 -2.375 7.375 -4.188 6.688 C-4.875 4.875 -4.875 4.875 -5.188 2.688 C-3.585 0.241 -2.955 -0.422 0 0 Z " fill="#D5AC61" transform="translate(181.1875,124.3125)"/>
<path d="M0 0 C0.598 0.227 1.196 0.454 1.812 0.688 C2.5 2.5 2.5 2.5 2.812 4.688 C1.625 6.5 1.625 6.5 -0.188 7.688 C-2.375 7.375 -2.375 7.375 -4.188 6.688 C-4.875 4.875 -4.875 4.875 -5.188 2.688 C-3.585 0.241 -2.955 -0.422 0 0 Z " fill="#D5AC61" transform="translate(169.1875,124.3125)"/>
<path d="M0 0 C0.598 0.227 1.196 0.454 1.812 0.688 C2.5 2.5 2.5 2.5 2.812 4.688 C1.625 6.5 1.625 6.5 -0.188 7.688 C-2.375 7.375 -2.375 7.375 -4.188 6.688 C-4.875 4.875 -4.875 4.875 -5.188 2.688 C-3.585 0.241 -2.955 -0.422 0 0 Z " fill="#D5AC61" transform="translate(89.1875,124.3125)"/>
<path d="M0 0 C0.598 0.227 1.196 0.454 1.812 0.688 C2.5 2.5 2.5 2.5 2.812 4.688 C1.625 6.5 1.625 6.5 -0.188 7.688 C-2.375 7.375 -2.375 7.375 -4.188 6.688 C-4.875 4.875 -4.875 4.875 -5.188 2.688 C-3.585 0.241 -2.955 -0.422 0 0 Z " fill="#D5AC61" transform="translate(77.1875,124.3125)"/>
<path d="M0 0 C0.598 0.227 1.196 0.454 1.812 0.688 C2.5 2.5 2.5 2.5 2.812 4.688 C1.625 6.5 1.625 6.5 -0.188 7.688 C-2.375 7.375 -2.375 7.375 -4.188 6.688 C-4.875 4.875 -4.875 4.875 -5.188 2.688 C-3.585 0.241 -2.955 -0.422 0 0 Z " fill="#D5AC61" transform="translate(65.1875,124.3125)"/>
<path d="M0 0 C0.598 0.227 1.196 0.454 1.812 0.688 C2.5 2.5 2.5 2.5 2.812 4.688 C1.625 6.5 1.625 6.5 -0.188 7.688 C-2.375 7.375 -2.375 7.375 -4.188 6.688 C-4.875 4.875 -4.875 4.875 -5.188 2.688 C-3.585 0.241 -2.955 -0.422 0 0 Z " fill="#D5AC61" transform="translate(53.1875,124.3125)"/>
<path d="M0 0 C0.598 0.227 1.196 0.454 1.812 0.688 C2.5 2.5 2.5 2.5 2.812 4.688 C1.625 6.5 1.625 6.5 -0.188 7.688 C-2.375 7.375 -2.375 7.375 -4.188 6.688 C-4.875 4.875 -4.875 4.875 -5.188 2.688 C-3.585 0.241 -2.955 -0.422 0 0 Z " fill="#D5AC61" transform="translate(205.1875,112.3125)"/>
<path d="M0 0 C0.598 0.227 1.196 0.454 1.812 0.688 C2.5 2.5 2.5 2.5 2.812 4.688 C1.625 6.5 1.625 6.5 -0.188 7.688 C-2.375 7.375 -2.375 7.375 -4.188 6.688 C-4.875 4.875 -4.875 4.875 -5.188 2.688 C-3.585 0.241 -2.955 -0.422 0 0 Z " fill="#D5AC61" transform="translate(193.1875,112.3125)"/>
<path d="M0 0 C0.598 0.227 1.196 0.454 1.812 0.688 C2.5 2.5 2.5 2.5 2.812 4.688 C1.625 6.5 1.625 6.5 -0.188 7.688 C-2.375 7.375 -2.375 7.375 -4.188 6.688 C-4.875 4.875 -4.875 4.875 -5.188 2.688 C-3.585 0.241 -2.955 -0.422 0 0 Z " fill="#D5AC61" transform="translate(181.1875,112.3125)"/>
<path d="M0 0 C0.598 0.227 1.196 0.454 1.812 0.688 C2.5 2.5 2.5 2.5 2.812 4.688 C1.625 6.5 1.625 6.5 -0.188 7.688 C-2.375 7.375 -2.375 7.375 -4.188 6.688 C-4.875 4.875 -4.875 4.875 -5.188 2.688 C-3.585 0.241 -2.955 -0.422 0 0 Z " fill="#D5AC61" transform="translate(169.1875,112.3125)"/>
<path d="M0 0 C0.598 0.227 1.196 0.454 1.812 0.688 C2.5 2.5 2.5 2.5 2.812 4.688 C1.625 6.5 1.625 6.5 -0.188 7.688 C-2.375 7.375 -2.375 7.375 -4.188 6.688 C-4.875 4.875 -4.875 4.875 -5.188 2.688 C-3.585 0.241 -2.955 -0.422 0 0 Z " fill="#D5AC61" transform="translate(89.1875,112.3125)"/>
<path d="M0 0 C0.598 0.227 1.196 0.454 1.812 0.688 C2.5 2.5 2.5 2.5 2.812 4.688 C1.625 6.5 1.625 6.5 -0.188 7.688 C-2.375 7.375 -2.375 7.375 -4.188 6.688 C-4.875 4.875 -4.875 4.875 -5.188 2.688 C-3.585 0.241 -2.955 -0.422 0 0 Z " fill="#D5AC61" transform="translate(77.1875,112.3125)"/>
<path d="M0 0 C0.598 0.227 1.196 0.454 1.812 0.688 C2.5 2.5 2.5 2.5 2.812 4.688 C1.625 6.5 1.625 6.5 -0.188 7.688 C-2.375 7.375 -2.375 7.375 -4.188 6.688 C-4.875 4.875 -4.875 4.875 -5.188 2.688 C-3.585 0.241 -2.955 -0.422 0 0 Z " fill="#D5AC61" transform="translate(65.1875,112.3125)"/>
<path d="M0 0 C0.598 0.227 1.196 0.454 1.812 0.688 C2.5 2.5 2.5 2.5 2.812 4.688 C1.625 6.5 1.625 6.5 -0.188 7.688 C-2.375 7.375 -2.375 7.375 -4.188 6.688 C-4.875 4.875 -4.875 4.875 -5.188 2.688 C-3.585 0.241 -2.955 -0.422 0 0 Z " fill="#D5AC61" transform="translate(53.1875,112.3125)"/>
<path d="M0 0 C1.32 0 2.64 0 4 0 C4 3.3 4 6.6 4 10 C2.68 10 1.36 10 0 10 C0 6.7 0 3.4 0 0 Z " fill="#3E3E3F" transform="translate(220,165)"/>
</svg>
