<?xml version="1.0" encoding="UTF-8"?>
<!-- Generator: visioncortex VTracer 0.6.12 -->
<svg version="1.1" xmlns="http://www.w3.org/2000/svg" width="256" height="256">
<path d="M0 0 C1.198 -0.01 2.396 -0.02 3.63 -0.03 C6.9 -0.054 10.169 -0.069 13.438 -0.078 C15.492 -0.084 17.545 -0.092 19.598 -0.101 C26.052 -0.128 32.506 -0.148 38.961 -0.156 C46.354 -0.164 53.746 -0.199 61.139 -0.258 C66.888 -0.301 72.638 -0.321 78.388 -0.324 C81.805 -0.326 85.221 -0.337 88.638 -0.373 C109.155 -0.559 133.016 0.865 149.651 14.842 C152.203 18.012 151.929 21.319 152.03 25.197 C152.421 30.77 152.421 30.77 154.241 33.15 C155.905 34.447 155.905 34.447 158.843 36.322 C158.843 36.982 158.843 37.642 158.843 38.322 C159.833 38.652 160.823 38.982 161.843 39.322 C163.562 41.475 163.562 41.475 165.343 44.26 C165.931 45.156 166.518 46.052 167.124 46.975 C170.94 54.407 172.292 61.637 172.231 69.928 C172.234 70.379 172.234 70.379 172.247 72.662 C172.26 75.611 172.251 78.56 172.241 81.51 C172.243 83.579 172.246 85.648 172.25 87.718 C172.254 92.041 172.248 96.365 172.234 100.688 C172.217 106.209 172.227 111.73 172.245 117.251 C172.255 121.52 172.252 125.789 172.244 130.058 C172.242 132.093 172.245 134.127 172.252 136.162 C172.259 139.014 172.248 141.865 172.231 144.717 C172.237 145.544 172.243 146.371 172.249 147.224 C172.193 152.531 171.245 157.006 169.521 162.027 C168.399 165.823 168.44 169.548 168.472 173.479 C168.454 175.178 168.437 176.877 168.419 178.576 C168.409 181.202 168.405 183.828 168.407 186.455 C168.389 199.143 168.251 209.787 158.843 219.322 C150.59 226.133 141.822 230.553 131.843 234.322 C130.984 234.663 130.126 235.003 129.241 235.354 C123.341 237.543 117.962 238.362 111.843 236.322 C109.756 236.544 109.756 236.544 107.327 237.029 C106.873 237.116 106.873 237.116 104.573 237.556 C103.59 237.747 102.606 237.938 101.593 238.135 C67.013 244.425 31.223 244.307 -3.268 237.468 C-10.543 236.105 -10.543 236.105 -14.204 237.4 C-18.959 238.885 -22.785 236.967 -27.345 235.322 C-28.283 234.994 -29.221 234.666 -30.188 234.328 C-43.975 229.38 -56.709 222.766 -64.099 209.619 C-66.343 204.749 -66.32 200.043 -66.368 194.752 C-66.396 193.033 -66.425 191.314 -66.454 189.596 C-66.495 186.904 -66.532 184.212 -66.559 181.52 C-66.586 178.909 -66.632 176.3 -66.681 173.689 C-66.682 173.295 -66.682 173.295 -66.691 171.299 C-66.781 167.113 -67.298 163.599 -68.658 159.63 C-70.22 154.569 -70.59 150.019 -70.561 144.749 C-70.568 143.85 -70.575 142.95 -70.582 142.024 C-70.6 139.084 -70.597 136.145 -70.591 133.205 C-70.595 131.141 -70.601 129.076 -70.607 127.012 C-70.616 122.696 -70.613 118.381 -70.603 114.066 C-70.592 108.563 -70.612 103.061 -70.641 97.558 C-70.66 93.297 -70.659 89.037 -70.654 84.777 C-70.653 82.749 -70.659 80.721 -70.672 78.694 C-70.741 65.673 -70.649 53.513 -62.532 42.572 C-61.942 41.752 -61.351 40.933 -60.743 40.088 C-60.481 39.797 -60.481 39.797 -59.157 38.322 C-58.497 38.322 -57.837 38.322 -57.157 38.322 C-56.91 37.724 -56.662 37.126 -56.407 36.51 C-55.157 34.322 -55.157 34.322 -53.114 33.053 C-51.157 31.322 -51.157 31.322 -50.653 28.58 C-50.634 27.546 -50.615 26.512 -50.595 25.447 C-50.496 20.8 -50.13 17.983 -47.157 14.322 C-41.892 10.187 -35.917 7.84 -29.657 5.635 C-28.854 5.34 -28.051 5.046 -27.224 4.742 C-17.913 1.385 -9.892 0.02 0 0 Z " fill="#272727" transform="translate(77.1572265625,2.677734375)"/>
<path d="M0 0 C1.198 -0.01 2.396 -0.02 3.63 -0.03 C6.9 -0.054 10.169 -0.069 13.438 -0.078 C15.492 -0.084 17.545 -0.092 19.598 -0.101 C26.052 -0.128 32.506 -0.148 38.961 -0.156 C46.354 -0.164 53.746 -0.199 61.139 -0.258 C66.888 -0.301 72.638 -0.321 78.388 -0.324 C81.805 -0.326 85.221 -0.337 88.638 -0.373 C109.155 -0.559 133.016 0.865 149.651 14.842 C152.203 18.012 151.929 21.319 152.03 25.197 C152.421 30.77 152.421 30.77 154.241 33.15 C155.905 34.447 155.905 34.447 158.843 36.322 C158.843 36.982 158.843 37.642 158.843 38.322 C159.833 38.652 160.823 38.982 161.843 39.322 C163.562 41.475 163.562 41.475 165.343 44.26 C165.931 45.156 166.518 46.052 167.124 46.975 C170.94 54.407 172.292 61.637 172.231 69.928 C172.234 70.379 172.234 70.379 172.247 72.662 C172.26 75.611 172.251 78.56 172.241 81.51 C172.243 83.579 172.246 85.648 172.25 87.718 C172.254 92.041 172.248 96.365 172.234 100.688 C172.217 106.209 172.227 111.73 172.245 117.251 C172.255 121.52 172.252 125.789 172.244 130.058 C172.242 132.093 172.245 134.127 172.252 136.162 C172.259 139.014 172.248 141.865 172.231 144.717 C172.237 145.544 172.243 146.371 172.249 147.224 C172.193 152.531 171.245 157.006 169.521 162.027 C168.399 165.823 168.44 169.548 168.472 173.479 C168.454 175.178 168.437 176.877 168.419 178.576 C168.409 181.202 168.405 183.828 168.407 186.455 C168.389 199.143 168.251 209.787 158.843 219.322 C150.59 226.133 141.822 230.553 131.843 234.322 C130.984 234.663 130.126 235.003 129.241 235.354 C123.341 237.543 117.962 238.362 111.843 236.322 C109.756 236.544 109.756 236.544 107.327 237.029 C106.873 237.116 106.873 237.116 104.573 237.556 C103.59 237.747 102.606 237.938 101.593 238.135 C67.013 244.425 31.223 244.307 -3.268 237.468 C-10.543 236.105 -10.543 236.105 -14.204 237.4 C-18.959 238.885 -22.785 236.967 -27.345 235.322 C-28.283 234.994 -29.221 234.666 -30.188 234.328 C-43.975 229.38 -56.709 222.766 -64.099 209.619 C-66.343 204.749 -66.32 200.043 -66.368 194.752 C-66.396 193.033 -66.425 191.314 -66.454 189.596 C-66.495 186.904 -66.532 184.212 -66.559 181.52 C-66.586 178.909 -66.632 176.3 -66.681 173.689 C-66.682 173.295 -66.682 173.295 -66.691 171.299 C-66.781 167.113 -67.298 163.599 -68.658 159.63 C-70.22 154.569 -70.59 150.019 -70.561 144.749 C-70.568 143.85 -70.575 142.95 -70.582 142.024 C-70.6 139.084 -70.597 136.145 -70.591 133.205 C-70.595 131.141 -70.601 129.076 -70.607 127.012 C-70.616 122.696 -70.613 118.381 -70.603 114.066 C-70.592 108.563 -70.612 103.061 -70.641 97.558 C-70.66 93.297 -70.659 89.037 -70.654 84.777 C-70.653 82.749 -70.659 80.721 -70.672 78.694 C-70.741 65.673 -70.649 53.513 -62.532 42.572 C-61.942 41.752 -61.351 40.933 -60.743 40.088 C-60.481 39.797 -60.481 39.797 -59.157 38.322 C-58.497 38.322 -57.837 38.322 -57.157 38.322 C-56.91 37.724 -56.662 37.126 -56.407 36.51 C-55.157 34.322 -55.157 34.322 -53.114 33.053 C-51.157 31.322 -51.157 31.322 -50.653 28.58 C-50.634 27.546 -50.615 26.512 -50.595 25.447 C-50.496 20.8 -50.13 17.983 -47.157 14.322 C-41.892 10.187 -35.917 7.84 -29.657 5.635 C-28.854 5.34 -28.051 5.046 -27.224 4.742 C-17.913 1.385 -9.892 0.02 0 0 Z M-41.157 21.322 C-41.704 24.337 -41.851 26.194 -41.595 29.135 C-41.563 29.828 -41.532 30.521 -41.499 31.234 C-41.417 32.932 -41.292 34.628 -41.157 36.322 C-41.933 36.608 -42.709 36.895 -43.509 37.189 C-46.936 38.655 -48.641 40.566 -51.157 43.322 C-51.74 43.936 -52.323 44.549 -52.923 45.182 C-53.536 45.847 -54.15 46.512 -54.782 47.197 C-55.067 47.505 -55.067 47.505 -56.509 49.064 C-60.972 55.178 -61.597 60.559 -61.545 67.91 C-61.551 68.846 -61.556 69.782 -61.561 70.746 C-61.574 73.824 -61.566 76.901 -61.556 79.979 C-61.558 82.127 -61.561 84.274 -61.564 86.422 C-61.569 90.918 -61.562 95.413 -61.548 99.909 C-61.531 105.662 -61.541 111.415 -61.559 117.168 C-61.57 121.602 -61.566 126.035 -61.559 130.469 C-61.557 132.59 -61.559 134.711 -61.566 136.832 C-61.574 139.8 -61.562 142.767 -61.545 145.734 C-61.551 146.605 -61.558 147.476 -61.564 148.373 C-61.507 153.829 -60.478 157.401 -58.157 162.322 C-57.785 164.673 -57.785 164.673 -57.788 166.77 C-57.785 167.168 -57.785 167.168 -57.767 169.187 C-57.774 170.026 -57.78 170.864 -57.786 171.729 C-57.769 173.542 -57.751 175.356 -57.733 177.17 C-57.723 180.001 -57.72 182.831 -57.721 185.662 C-57.718 188.413 -57.69 191.164 -57.661 193.916 C-57.665 194.335 -57.665 194.335 -57.686 196.458 C-57.601 203.218 -55.734 207.236 -51.36 212.475 C-43.431 219.722 -30.332 227.967 -19.282 228.447 C-18.581 228.406 -17.88 228.365 -17.157 228.322 C-17.157 227.332 -17.157 226.342 -17.157 225.322 C-16.471 225.565 -15.786 225.807 -15.079 226.057 C5.763 232.73 27.078 233.7 48.78 233.697 C49.766 233.699 50.753 233.701 51.769 233.703 C70.034 233.699 88.164 232.803 106.03 228.76 C106.547 228.649 106.547 228.649 109.161 228.09 C116.496 226.496 116.496 226.496 118.843 225.322 C119.173 226.312 119.503 227.302 119.843 228.322 C127.143 227.244 133.059 225.142 139.53 221.635 C139.931 221.43 139.931 221.43 141.962 220.395 C149.573 216.35 155.601 211.505 158.843 203.322 C159.255 200.216 159.26 197.144 159.249 194.014 C159.254 193.571 159.254 193.571 159.282 191.332 C159.316 188.516 159.332 185.701 159.343 182.885 C159.357 179.177 159.391 175.471 159.437 171.764 C159.434 170.922 159.43 170.08 159.427 169.213 C159.437 168.412 159.448 167.611 159.458 166.785 C159.46 166.091 159.462 165.396 159.464 164.68 C159.843 162.322 159.843 162.322 161.341 159.14 C163.321 154.722 163.279 150.563 163.263 145.782 C163.271 144.851 163.28 143.92 163.288 142.961 C163.312 139.897 163.313 136.835 163.312 133.771 C163.319 131.631 163.326 129.49 163.335 127.349 C163.348 122.866 163.35 118.384 163.344 113.901 C163.338 108.174 163.368 102.449 163.409 96.723 C163.435 92.302 163.438 87.881 163.434 83.46 C163.436 81.35 163.445 79.24 163.463 77.13 C163.572 62.661 162.673 53.133 152.687 42.029 C150.86 40.338 149.153 39.357 146.968 38.197 C145.19 37.064 145.19 37.064 143.843 35.322 C143.422 31.718 143.405 28.321 143.597 24.697 C142.843 21.322 142.843 21.322 141.324 20.031 C124.06 9.732 107.495 8.246 87.66 8.382 C84.191 8.4 80.723 8.383 77.255 8.372 C71.437 8.36 65.619 8.376 59.8 8.41 C53.134 8.448 46.47 8.435 39.804 8.397 C34.016 8.365 28.229 8.361 22.441 8.379 C19.013 8.39 15.585 8.392 12.157 8.368 C-6.407 8.281 -26.23 8.768 -41.157 21.322 Z " fill="#FBFBFB" transform="translate(77.1572265625,2.677734375)"/>
<path d="M0 0 C0 7.92 0 15.84 0 24 C-34.32 24 -68.64 24 -104 24 C-104 16.08 -104 8.16 -104 0 C-94.663 -3.059 -85.784 -5.831 -76 -7 C-75.577 -7.055 -75.577 -7.055 -73.438 -7.336 C-50.664 -9.785 -21.038 -10.519 0 0 Z " fill="#191919" transform="translate(180,40)"/>
<path d="M0 0 C4.165 5.553 4.153 9.448 4.161 16.134 C4.166 17.069 4.171 18.004 4.176 18.968 C4.191 22.067 4.198 25.166 4.203 28.266 C4.209 30.419 4.215 32.573 4.22 34.727 C4.231 39.246 4.237 43.765 4.24 48.285 C4.246 54.069 4.27 59.854 4.298 65.639 C4.317 70.09 4.322 74.54 4.324 78.991 C4.327 81.123 4.335 83.255 4.348 85.388 C4.365 88.375 4.363 91.361 4.356 94.349 C4.366 95.226 4.375 96.103 4.384 97.007 C4.348 102.423 3.467 106.164 1 111 C0.67 111 0.34 111 0 111 C0 74.37 0 37.74 0 0 Z " fill="#2B2B2B" transform="translate(236,54)"/>
<path d="M0 0 C0.33 0 0.66 0 1 0 C1 36.63 1 73.26 1 111 C-2.738 107.262 -3.119 104.987 -3.14 99.884 C-3.146 99.072 -3.152 98.26 -3.158 97.424 C-3.159 96.543 -3.16 95.661 -3.161 94.753 C-3.166 93.817 -3.171 92.882 -3.176 91.918 C-3.191 88.824 -3.198 85.731 -3.203 82.637 C-3.209 80.484 -3.215 78.332 -3.22 76.18 C-3.231 71.667 -3.237 67.153 -3.24 62.64 C-3.246 56.863 -3.27 51.086 -3.298 45.309 C-3.317 40.863 -3.322 36.417 -3.324 31.97 C-3.327 29.841 -3.335 27.711 -3.348 25.582 C-3.365 22.6 -3.363 19.618 -3.356 16.635 C-3.366 15.76 -3.375 14.884 -3.384 13.982 C-3.348 8.57 -2.464 4.833 0 0 Z " fill="#2B2B2B" transform="translate(19,54)"/>
<path d="M0 0 C2.515 1.074 3.933 2.163 6 4 C5.747 7.125 5.409 8.605 3.125 10.812 C-2.269 12.862 -8.228 12.912 -13.719 11.105 C-16 10 -16 10 -18 8 C-17.938 5.562 -17.938 5.562 -17 3 C-11.691 -0.963 -6.382 -0.818 0 0 Z " fill="#AF0101" transform="translate(134,196)"/>
<path d="M0 0 C1.32 0.33 2.64 0.66 4 1 C4 20.14 4 39.28 4 59 C2.68 59 1.36 59 0 59 C0 39.53 0 20.06 0 0 Z " fill="#191919" transform="translate(192,25)"/>
<path d="M0 0 C0 19.47 0 38.94 0 59 C-1.32 59 -2.64 59 -4 59 C-4 39.86 -4 20.72 -4 1 C-2 0 -2 0 0 0 Z " fill="#191919" transform="translate(64,25)"/>
<path d="M0 0 C1.32 0.33 2.64 0.66 4 1 C4 19.15 4 37.3 4 56 C2.68 56 1.36 56 0 56 C0 37.52 0 19.04 0 0 Z " fill="#191919" transform="translate(200,28)"/>
<path d="M0 0 C0 18.48 0 36.96 0 56 C-1.32 56 -2.64 56 -4 56 C-4 37.85 -4 19.7 -4 1 C-2 0 -2 0 0 0 Z " fill="#191919" transform="translate(56,28)"/>
<path d="M0 0 C1.32 0.33 2.64 0.66 4 1 C4 17.83 4 34.66 4 52 C2.68 52 1.36 52 0 52 C0 34.84 0 17.68 0 0 Z " fill="#191919" transform="translate(208,32)"/>
<path d="M0 0 C0.99 0 1.98 0 3 0 C3 17.16 3 34.32 3 52 C1.68 52 0.36 52 -1 52 C-1.025 44.755 -1.043 37.51 -1.055 30.265 C-1.06 27.799 -1.067 25.332 -1.075 22.865 C-1.088 19.328 -1.093 15.791 -1.098 12.254 C-1.103 11.144 -1.108 10.033 -1.113 8.889 C-1.113 7.868 -1.113 6.847 -1.114 5.795 C-1.116 4.891 -1.118 3.988 -1.12 3.056 C-1 1 -1 1 0 0 Z " fill="#191919" transform="translate(45,32)"/>
<path d="M0 0 C0.66 0.33 0.66 0.33 4 2 C4 17.18 4 32.36 4 48 C2.68 48 1.36 48 0 48 C0 32.16 0 16.32 0 0 Z " fill="#191919" transform="translate(216,36)"/>
<path d="M0 0 C0.66 0 1.32 0 2 0 C2 15.84 2 31.68 2 48 C0.68 48 -0.64 48 -2 48 C-2.051 41.486 -2.086 34.971 -2.11 28.457 C-2.12 26.239 -2.134 24.022 -2.151 21.804 C-2.175 18.622 -2.186 15.44 -2.195 12.258 C-2.206 11.262 -2.216 10.266 -2.227 9.24 C-2.227 8.319 -2.227 7.398 -2.227 6.45 C-2.231 5.637 -2.236 4.824 -2.241 3.987 C-2 2 -2 2 0 0 Z " fill="#191919" transform="translate(38,36)"/>
<path d="M0 0 C1.32 0.33 2.64 0.66 4 1 C4 14.53 4 28.06 4 42 C2.68 42 1.36 42 0 42 C0 28.14 0 14.28 0 0 Z " fill="#1A1A1A" transform="translate(224,42)"/>
<path d="M0 0 C0 13.53 0 27.06 0 41 C-1.32 41 -2.64 41 -4 41 C-4.074 35.643 -4.129 30.287 -4.165 24.929 C-4.18 23.107 -4.2 21.284 -4.226 19.462 C-4.263 16.843 -4.28 14.224 -4.293 11.605 C-4.308 10.79 -4.324 9.974 -4.34 9.134 C-4.342 3.407 -4.342 3.407 -2.541 1.261 C-1 0 -1 0 0 0 Z " fill="#191919" transform="translate(32,43)"/>
</svg>
