<?xml version="1.0" encoding="UTF-8"?>
<!-- Generator: visioncortex VTracer 0.6.12 -->
<svg version="1.1" xmlns="http://www.w3.org/2000/svg" width="256" height="256">
<path d="M0 0 C0.406 -0.005 0.406 -0.005 2.459 -0.029 C2.894 -0.028 2.894 -0.028 5.095 -0.026 C6 -0.03 6.905 -0.035 7.838 -0.039 C9.754 -0.045 11.669 -0.045 13.585 -0.041 C16.493 -0.038 19.4 -0.061 22.308 -0.087 C24.174 -0.089 26.041 -0.09 27.907 -0.089 C28.767 -0.098 29.627 -0.107 30.513 -0.117 C31.34 -0.11 32.167 -0.104 33.02 -0.098 C33.734 -0.098 34.448 -0.099 35.183 -0.1 C37.692 0.255 39.609 0.896 41.971 1.774 C47.177 3.572 51.974 3.698 57.443 3.663 C57.953 3.665 57.953 3.665 60.536 3.679 C63.885 3.692 67.234 3.683 70.583 3.673 C72.925 3.675 75.267 3.678 77.61 3.682 C82.508 3.686 87.407 3.68 92.306 3.666 C98.57 3.649 104.834 3.659 111.098 3.676 C115.932 3.687 120.765 3.684 125.599 3.676 C127.908 3.674 130.217 3.677 132.526 3.684 C135.759 3.691 138.991 3.679 142.224 3.663 C142.696 3.666 142.696 3.666 145.087 3.681 C150.491 3.63 154.839 2.836 159.904 0.955 C162.19 0.149 164.211 -0.105 166.631 -0.114 C167.043 -0.118 167.043 -0.118 169.128 -0.142 C169.985 -0.136 170.841 -0.13 171.724 -0.124 C172.632 -0.127 173.539 -0.13 174.474 -0.132 C176.377 -0.135 178.279 -0.129 180.182 -0.116 C183.09 -0.1 185.996 -0.116 188.904 -0.135 C190.76 -0.134 192.617 -0.13 194.474 -0.124 C195.339 -0.13 196.203 -0.136 197.094 -0.142 C201.804 -0.087 205.056 0.146 208.833 3.275 C210.056 4.938 210.056 4.938 210.896 6.759 C211.215 7.439 211.535 8.119 211.864 8.82 C212.184 9.547 212.504 10.275 212.833 11.025 C213.176 11.783 213.518 12.542 213.871 13.323 C227.017 43.029 228.377 72.687 216.735 103.08 C215.232 106.737 213.534 110.269 211.708 113.775 C211.384 114.404 211.059 115.033 210.725 115.681 C208.833 119.121 207.473 120.847 203.833 122.275 C201.818 122.535 201.818 122.535 199.667 122.549 C198.855 122.559 198.043 122.568 197.207 122.578 C196.338 122.577 195.468 122.576 194.572 122.575 C194.119 122.578 194.119 122.578 191.828 122.588 C189.913 122.594 187.997 122.595 186.082 122.59 C183.174 122.587 180.267 122.611 177.359 122.636 C175.492 122.638 173.626 122.639 171.759 122.638 C170.899 122.647 170.04 122.656 169.154 122.666 C168.74 122.663 168.74 122.663 166.647 122.647 C165.933 122.648 165.219 122.648 164.483 122.649 C161.975 122.295 160.058 121.653 157.695 120.776 C152.49 118.977 147.693 118.851 142.224 118.886 C141.203 118.881 140.182 118.876 139.131 118.871 C135.781 118.857 132.433 118.866 129.083 118.876 C126.741 118.874 124.399 118.871 122.057 118.868 C117.158 118.863 112.259 118.869 107.361 118.884 C101.096 118.901 94.832 118.891 88.568 118.873 C83.735 118.862 78.901 118.865 74.068 118.873 C71.759 118.875 69.45 118.873 67.141 118.866 C63.908 118.858 60.675 118.87 57.443 118.886 C56.498 118.88 55.553 118.874 54.58 118.868 C49.176 118.919 44.828 119.713 39.763 121.595 C37.477 122.4 35.455 122.655 33.035 122.663 C32.211 122.672 31.387 122.682 30.538 122.691 C29.682 122.685 28.825 122.679 27.943 122.673 C27.035 122.676 26.127 122.679 25.192 122.682 C23.29 122.684 21.387 122.678 19.485 122.666 C16.577 122.65 13.671 122.666 10.763 122.685 C8.906 122.683 7.049 122.679 5.193 122.673 C4.328 122.679 3.463 122.685 2.572 122.691 C-2.137 122.637 -5.39 122.403 -9.167 119.275 C-10.389 117.612 -10.389 117.612 -11.229 115.79 C-11.549 115.11 -11.868 114.43 -12.197 113.73 C-12.517 113.002 -12.837 112.274 -13.167 111.525 C-13.509 110.766 -13.852 110.007 -14.205 109.226 C-27.351 79.521 -28.71 49.863 -17.069 19.469 C-15.566 15.813 -13.867 12.28 -12.042 8.775 C-11.717 8.145 -11.393 7.516 -11.059 6.868 C-8.299 1.85 -5.705 0.037 0 0 Z " fill="#444444" transform="translate(28.166748046875,66.725341796875)"/>
<path d="M0 0 C34.98 0 69.96 0 106 0 C113.475 17.939 117.745 34.491 117 54 C116.985 54.523 116.985 54.523 116.91 57.172 C116.199 71.393 111.619 82.889 106 96 C71.02 96 36.04 96 0 96 C-7.12 79.386 -7.12 79.386 -8.875 71.812 C-8.979 71.371 -8.979 71.371 -9.502 69.135 C-11.315 60.736 -11.555 52.618 -11.106 44.063 C-11.012 42.23 -10.969 40.394 -10.934 38.559 C-10.683 32.095 -9.43 26.094 -7.75 19.875 C-7.654 19.517 -7.654 19.517 -7.167 17.705 C-5.34 11.371 -2.805 6.171 0 0 Z " fill="#262626" transform="translate(75,80)"/>
<path d="M0 0 C0.406 -0.005 0.406 -0.005 2.459 -0.029 C2.894 -0.028 2.894 -0.028 5.095 -0.026 C6 -0.03 6.905 -0.035 7.838 -0.039 C9.754 -0.045 11.669 -0.045 13.585 -0.041 C16.493 -0.038 19.4 -0.061 22.308 -0.087 C24.174 -0.089 26.041 -0.09 27.907 -0.089 C28.767 -0.098 29.627 -0.107 30.513 -0.117 C31.34 -0.11 32.167 -0.104 33.02 -0.098 C33.734 -0.098 34.448 -0.099 35.183 -0.1 C37.692 0.255 39.609 0.896 41.971 1.774 C47.177 3.572 51.974 3.698 57.443 3.663 C57.953 3.665 57.953 3.665 60.536 3.679 C63.885 3.692 67.234 3.683 70.583 3.673 C72.925 3.675 75.267 3.678 77.61 3.682 C82.508 3.686 87.407 3.68 92.306 3.666 C98.57 3.649 104.834 3.659 111.098 3.676 C115.932 3.687 120.765 3.684 125.599 3.676 C127.908 3.674 130.217 3.677 132.526 3.684 C135.759 3.691 138.991 3.679 142.224 3.663 C142.696 3.666 142.696 3.666 145.087 3.681 C150.491 3.63 154.839 2.836 159.904 0.955 C162.19 0.149 164.211 -0.105 166.631 -0.114 C167.043 -0.118 167.043 -0.118 169.128 -0.142 C169.985 -0.136 170.841 -0.13 171.724 -0.124 C172.632 -0.127 173.539 -0.13 174.474 -0.132 C176.377 -0.135 178.279 -0.129 180.182 -0.116 C183.09 -0.1 185.996 -0.116 188.904 -0.135 C190.76 -0.134 192.617 -0.13 194.474 -0.124 C195.339 -0.13 196.203 -0.136 197.094 -0.142 C201.804 -0.087 205.056 0.146 208.833 3.275 C210.056 4.938 210.056 4.938 210.896 6.759 C211.215 7.439 211.535 8.119 211.864 8.82 C212.184 9.547 212.504 10.275 212.833 11.025 C213.176 11.783 213.518 12.542 213.871 13.323 C227.017 43.029 228.377 72.687 216.735 103.08 C215.232 106.737 213.534 110.269 211.708 113.775 C211.384 114.404 211.059 115.033 210.725 115.681 C208.833 119.121 207.473 120.847 203.833 122.275 C201.818 122.535 201.818 122.535 199.667 122.549 C198.855 122.559 198.043 122.568 197.207 122.578 C196.338 122.577 195.468 122.576 194.572 122.575 C194.119 122.578 194.119 122.578 191.828 122.588 C189.913 122.594 187.997 122.595 186.082 122.59 C183.174 122.587 180.267 122.611 177.359 122.636 C175.492 122.638 173.626 122.639 171.759 122.638 C170.899 122.647 170.04 122.656 169.154 122.666 C168.74 122.663 168.74 122.663 166.647 122.647 C165.933 122.648 165.219 122.648 164.483 122.649 C161.975 122.295 160.058 121.653 157.695 120.776 C152.49 118.977 147.693 118.851 142.224 118.886 C141.203 118.881 140.182 118.876 139.131 118.871 C135.781 118.857 132.433 118.866 129.083 118.876 C126.741 118.874 124.399 118.871 122.057 118.868 C117.158 118.863 112.259 118.869 107.361 118.884 C101.096 118.901 94.832 118.891 88.568 118.873 C83.735 118.862 78.901 118.865 74.068 118.873 C71.759 118.875 69.45 118.873 67.141 118.866 C63.908 118.858 60.675 118.87 57.443 118.886 C56.498 118.88 55.553 118.874 54.58 118.868 C49.176 118.919 44.828 119.713 39.763 121.595 C37.477 122.4 35.455 122.655 33.035 122.663 C32.211 122.672 31.387 122.682 30.538 122.691 C29.682 122.685 28.825 122.679 27.943 122.673 C27.035 122.676 26.127 122.679 25.192 122.682 C23.29 122.684 21.387 122.678 19.485 122.666 C16.577 122.65 13.671 122.666 10.763 122.685 C8.906 122.683 7.049 122.679 5.193 122.673 C4.328 122.679 3.463 122.685 2.572 122.691 C-2.137 122.637 -5.39 122.403 -9.167 119.275 C-10.389 117.612 -10.389 117.612 -11.229 115.79 C-11.549 115.11 -11.868 114.43 -12.197 113.73 C-12.517 113.002 -12.837 112.274 -13.167 111.525 C-13.509 110.766 -13.852 110.007 -14.205 109.226 C-27.351 79.521 -28.71 49.863 -17.069 19.469 C-15.566 15.813 -13.867 12.28 -12.042 8.775 C-11.717 8.145 -11.393 7.516 -11.059 6.868 C-8.299 1.85 -5.705 0.037 0 0 Z M-2.167 9.275 C-11.051 26.414 -11.051 26.414 -13.104 34.462 C-13.298 35.159 -13.492 35.856 -13.692 36.573 C-20.887 62.789 -15.019 88.527 -3.167 112.275 C-1.068 114.373 3.536 113.439 6.435 113.443 C6.87 113.444 6.87 113.444 9.071 113.453 C10.918 113.458 12.766 113.46 14.614 113.46 C17.426 113.462 20.237 113.48 23.048 113.499 C24.844 113.502 26.639 113.504 28.435 113.505 C28.853 113.509 28.853 113.509 30.967 113.527 C31.764 113.524 32.561 113.521 33.383 113.518 C34.075 113.519 34.767 113.52 35.48 113.522 C37.833 113.275 37.833 113.275 40.937 112.276 C45.782 110.828 50.611 110.995 55.63 111.016 C56.695 111.012 57.759 111.009 58.855 111.005 C62.36 110.996 65.864 111.002 69.368 111.009 C71.81 111.008 74.252 111.006 76.694 111.003 C81.806 111 86.917 111.005 92.029 111.014 C98.578 111.025 105.127 111.019 111.676 111.007 C116.717 111 121.757 111.002 126.797 111.007 C129.211 111.008 131.626 111.007 134.041 111.002 C137.416 110.997 140.791 111.005 144.166 111.016 C145.162 111.012 146.158 111.008 147.184 111.004 C152.192 111.034 156.103 111.467 160.833 113.275 C163.111 113.515 163.111 113.515 165.278 113.502 C165.688 113.502 165.688 113.502 167.764 113.501 C168.63 113.491 169.496 113.481 170.388 113.47 C171.289 113.467 172.191 113.464 173.12 113.461 C175.983 113.45 178.845 113.425 181.708 113.4 C183.656 113.39 185.604 113.38 187.552 113.372 C192.313 113.35 197.073 113.316 201.833 113.275 C206.208 104.715 209.962 96.458 212.833 87.275 C213.156 86.256 213.478 85.238 213.81 84.189 C220.355 59.413 214.958 34.693 203.833 12.275 C203.503 11.78 203.503 11.78 201.833 9.275 C198.78 8.983 195.934 8.879 192.88 8.911 C192.434 8.911 192.434 8.911 190.174 8.91 C188.281 8.912 186.388 8.922 184.495 8.938 C181.609 8.962 178.723 8.959 175.837 8.952 C173.997 8.958 172.157 8.965 170.318 8.974 C169.458 8.973 168.598 8.972 167.713 8.971 C166.899 8.981 166.085 8.99 165.246 9 C164.537 9.005 163.828 9.009 163.098 9.014 C160.833 9.275 160.833 9.275 158.224 10.276 C153.507 11.665 149.058 11.553 144.166 11.533 C143.103 11.537 142.04 11.54 140.946 11.544 C137.441 11.553 133.936 11.547 130.431 11.54 C127.99 11.542 125.549 11.544 123.108 11.546 C117.995 11.549 112.881 11.545 107.768 11.535 C101.22 11.524 94.672 11.531 88.124 11.543 C83.084 11.55 78.044 11.547 73.004 11.542 C70.59 11.541 68.176 11.543 65.762 11.547 C62.384 11.552 59.007 11.545 55.63 11.533 C55.133 11.535 55.133 11.535 52.618 11.546 C47.254 11.513 42.93 10.913 37.833 9.275 C35.473 9.034 35.473 9.034 33.367 9.048 C32.566 9.048 31.766 9.048 30.942 9.048 C30.103 9.058 29.264 9.069 28.4 9.079 C27.522 9.082 26.644 9.085 25.739 9.088 C22.958 9.099 20.177 9.124 17.396 9.15 C15.501 9.16 13.605 9.169 11.71 9.177 C7.084 9.199 2.459 9.233 -2.167 9.275 Z " fill="#FCFCFC" transform="translate(28.166748046875,66.725341796875)"/>
<path d="M0 0 C0.821 0 1.641 0 2.487 0 C2.927 0.003 2.927 0.003 5.157 0.016 C5.61 0.017 5.61 0.017 7.902 0.02 C10.796 0.026 13.69 0.038 16.583 0.051 C18.545 0.056 20.506 0.061 22.468 0.065 C27.277 0.076 32.087 0.093 36.896 0.114 C45.78 17.253 45.78 17.253 47.833 25.301 C48.027 25.998 48.221 26.695 48.421 27.412 C55.616 53.628 49.748 79.366 37.896 103.114 C35.771 105.238 31.017 104.302 28.075 104.317 C27.629 104.32 27.629 104.32 25.372 104.334 C23.477 104.343 21.583 104.35 19.688 104.354 C16.804 104.363 13.92 104.394 11.036 104.426 C9.195 104.433 7.354 104.438 5.513 104.442 C4.655 104.454 3.798 104.466 2.914 104.479 C-2.491 104.459 -6.358 103.785 -11.104 101.114 C-12.444 97.096 -10.969 94.855 -9.354 91.176 C-4.808 80.279 -2.572 69.94 -2.104 58.114 C-2.051 57.109 -1.999 56.105 -1.944 55.071 C-1.425 37.262 -6.334 20.776 -12.104 4.114 C-7.993 1.558 -4.874 -0.015 0 0 Z " fill="#404040" transform="translate(193.104248046875,75.886474609375)"/>
<path d="M0 0 C22.44 0 44.88 0 68 0 C68 14.52 68 29.04 68 44 C45.56 44 23.12 44 0 44 C0 29.48 0 14.96 0 0 Z " fill="#878787" transform="translate(94,106)"/>
<path d="M0 0 C27.72 0 55.44 0 84 0 C84 19.8 84 39.6 84 60 C56.28 60 28.56 60 0 60 C0 40.2 0 20.4 0 0 Z M8 8 C8 22.52 8 37.04 8 52 C30.44 52 52.88 52 76 52 C76 37.48 76 22.96 76 8 C53.56 8 31.12 8 8 8 Z " fill="#404040" transform="translate(86,98)"/>
<path d="M0 0 C3.17 7.897 3.17 7.897 2.5 12.25 C1.979 16.155 2.43 18.113 3.445 21.859 C5.159 28.983 5.448 35.698 5.375 43 C5.387 44.168 5.398 45.336 5.41 46.539 C5.386 53.827 4.479 60.398 2.643 67.453 C2 70 2 70 2 72 C2.33 72.33 2.66 72.66 3 73 C2.605 77.735 2.035 81.659 0 86 C-1.606 85.717 -3.21 85.423 -4.812 85.125 C-5.706 84.963 -6.599 84.8 -7.52 84.633 C-10 84 -10 84 -13 82 C-12.67 80.02 -12.34 78.04 -12 76 C-10 79.75 -10 79.75 -10 82 C-7.03 82 -4.06 82 -1 82 C0 75.25 0 75.25 0 73 C-1.258 72.959 -2.516 72.918 -3.812 72.875 C-4.52 72.852 -5.228 72.829 -5.957 72.805 C-8 73 -8 73 -11 75 C-10.502 71.312 -9.899 69.395 -7 67 C-7.66 67 -8.32 67 -9 67 C-8.929 66.42 -8.859 65.839 -8.786 65.241 C-8.021 58.414 -7.849 51.678 -7.875 44.812 C-7.871 43.772 -7.867 42.731 -7.863 41.658 C-7.87 36.326 -8.159 31.277 -9 26 C-9.025 23.628 -8.942 21.287 -8.84 18.918 C-9 17 -9 17 -11 15 C-11.703 12.469 -11.703 12.469 -12.25 9.5 C-12.441 8.52 -12.632 7.541 -12.828 6.531 C-12.885 5.696 -12.942 4.861 -13 4 C-10.842 1.842 -9.944 1.551 -7.062 0.875 C-6.373 0.707 -5.683 0.54 -4.973 0.367 C-3 0 -3 0 0 0 Z " fill="#3D3D3D" transform="translate(202,85)"/>
<path d="M0 0 C3.3 0 6.6 0 10 0 C10 2.97 10 5.94 10 9 C12.97 9 15.94 9 19 9 C19 12.3 19 15.6 19 19 C16.03 19 13.06 19 10 19 C10 21.97 10 24.94 10 28 C6.7 28 3.4 28 0 28 C0 25.03 0 22.06 0 19 C-2.97 19 -5.94 19 -9 19 C-9 15.7 -9 12.4 -9 9 C-6.03 9 -3.06 9 0 9 C0 6.03 0 3.06 0 0 Z " fill="#2E2E2E" transform="translate(33,114)"/>
<path d="M0 0 C0.99 0 1.98 0 3 0 C9.17 17.74 9.946 40.071 4 58 C3.67 58.66 3.34 59.32 3 60 C1.68 59.67 0.36 59.34 -1 59 C-0.783 57.956 -0.567 56.912 -0.344 55.836 C3.038 38.44 3.033 21.637 -0.441 4.262 C-0.626 3.185 -0.81 2.109 -1 1 C-0.67 0.67 -0.34 0.34 0 0 Z " fill="#282828" transform="translate(216,98)"/>
<path d="M0 0 C1.32 0 2.64 0 4 0 C9.405 17.117 9.405 38.883 4 56 C2.68 56 1.36 56 0 56 C0.142 54.416 0.289 52.833 0.438 51.25 C0.519 50.368 0.6 49.487 0.684 48.578 C1 46 1 46 1.509 44.179 C2.549 39.561 2.185 34.712 2.188 30 C2.2 28.926 2.212 27.852 2.225 26.746 C2.236 20.208 1.689 14.075 0.431 7.656 C0.008 5.052 -0.075 2.633 0 0 Z " fill="#272727" transform="translate(208,100)"/>
<path d="M0 0 C1.32 0 2.64 0 4 0 C6.647 8.779 7.465 16.855 7.375 26 C7.387 27.181 7.398 28.362 7.41 29.578 C7.384 37.454 6.273 44.462 4 52 C2.68 52 1.36 52 0 52 C0.886 44.407 0.886 44.407 1.509 42.184 C2.496 37.794 2.19 33.23 2.188 28.75 C2.188 27.682 2.189 26.614 2.189 25.514 C2.132 16.871 1.404 8.527 0 0 Z " fill="#272727" transform="translate(200,102)"/>
<path d="M0 0 C1.32 0.33 2.64 0.66 4 1 C3.856 1.599 3.711 2.199 3.562 2.816 C2.065 10.129 1.779 17.238 1.75 24.688 C1.741 25.661 1.732 26.634 1.723 27.637 C1.745 33.034 2.204 37.911 3.608 43.13 C4.129 45.617 3.774 47.601 3 50 C2.01 50 1.02 50 0 50 C-2.586 41.363 -3.467 33.433 -3.375 24.438 C-3.387 23.296 -3.398 22.155 -3.41 20.979 C-3.385 13.543 -2.346 7.056 0 0 Z " fill="#282828" transform="translate(59,103)"/>
<path d="M0 0 C0.66 0.33 1.32 0.66 2 1 C4.368 8.766 4.307 16.96 4.25 25 C4.258 26.098 4.265 27.197 4.273 28.328 C4.257 35.271 4.04 42.309 2 49 C1.67 49.165 1.67 49.165 0 50 C-0.66 49.67 -1.32 49.34 -2 49 C-1.929 48.414 -1.859 47.829 -1.786 47.226 C-1.041 40.548 -0.845 33.965 -0.875 27.25 C-0.876 26.727 -0.876 26.727 -0.881 24.08 C-0.924 16.349 -1.241 8.697 -2 1 C-1.34 0.67 -0.68 0.34 0 0 Z " fill="#272727" transform="translate(195,103)"/>
<path d="M0 0 C4.038 0.265 6.354 1.226 9.812 3.25 C9.009 11.286 9.009 11.286 6.812 15.25 C5.208 15.136 3.604 15.008 2 14.875 C1.553 14.84 1.553 14.84 -0.707 14.664 C-3.188 14.25 -3.188 14.25 -6.188 12.25 C-5.88 10.437 -5.566 8.624 -5.25 6.812 C-5.076 5.803 -4.902 4.794 -4.723 3.754 C-3.936 0.075 -3.887 0.305 0 0 Z " fill="#3E3E3E" transform="translate(217.1875,160.75)"/>
<path d="M0 0 C3.629 8.262 3.629 8.262 2 13 C-2.177 14.591 -5.532 15.213 -10 15 C-13.629 6.738 -13.629 6.738 -12 2 C-7.823 0.409 -4.468 -0.213 0 0 Z " fill="#3F3F3F" transform="translate(224,80)"/>
<path d="M0 0 C2 3 2 3 1.75 6.625 C1.502 7.739 1.255 8.852 1 10 C-1.829 11.414 -3.874 11.319 -7 11 C-8.938 9.375 -8.938 9.375 -10 7 C-9.812 3.812 -9.812 3.812 -9 1 C-5.957 -0.522 -3.346 -0.239 0 0 Z " fill="#3E3E3E" transform="translate(201,88)"/>
<path d="M0 0 C3.629 8.262 3.629 8.262 2 13 C-2.177 14.591 -5.532 15.213 -10 15 C-13.629 6.738 -13.629 6.738 -12 2 C-7.823 0.409 -4.468 -0.213 0 0 Z M-9.875 3.188 C-11.407 5.655 -11.428 7.145 -11 10 C-9.875 11.812 -9.875 11.812 -8 13 C-4.824 13.397 -2.86 13.499 -0.062 11.875 C1 10 1 10 0.812 6.938 C0 4 0 4 -2 2 C-5.137 1.666 -7.166 1.472 -9.875 3.188 Z " fill="#2C2C2C" transform="translate(224,80)"/>
<path d="M0 0 C3.629 9.41 3.629 9.41 2 14 C-2.177 15.591 -5.532 16.213 -10 16 C-10.534 14.588 -11.052 13.17 -11.562 11.75 C-11.853 10.961 -12.143 10.172 -12.441 9.359 C-13.065 6.725 -13.165 5.447 -12 3 C-10.039 1.953 -10.039 1.953 -7.625 1.25 C-6.834 1.008 -6.042 0.765 -5.227 0.516 C-3 0 -3 0 0 0 Z M-10 4.125 C-11.527 6.989 -10.843 8.953 -10 12 C-8 14 -8 14 -5.062 14.312 C-2 14 -2 14 -0.062 12.938 C1.632 9.848 0.74 7.328 0 4 C-1 3 -1 3 -4.375 2.75 C-8 3 -8 3 -10 4.125 Z " fill="#2C2C2C" transform="translate(202,85)"/>
<path d="M0 0 C4.038 0.265 6.354 1.226 9.812 3.25 C9.482 5.23 9.153 7.21 8.812 9.25 C6.812 5.5 6.812 5.5 6.812 3.25 C5.534 3.188 4.255 3.126 2.938 3.062 C2.218 3.028 1.499 2.993 0.758 2.957 C0.116 3.054 -0.526 3.15 -1.188 3.25 C-3.478 6.685 -3.366 8.235 -3.188 12.25 C-2.558 12.271 -2.558 12.271 0.625 12.375 C1.333 12.398 2.04 12.421 2.77 12.445 C4.812 12.25 4.812 12.25 7.812 10.25 C7.482 11.9 7.153 13.55 6.812 15.25 C5.208 15.136 3.604 15.008 2 14.875 C1.553 14.84 1.553 14.84 -0.707 14.664 C-3.188 14.25 -3.188 14.25 -6.188 12.25 C-5.88 10.437 -5.566 8.624 -5.25 6.812 C-5.076 5.803 -4.902 4.794 -4.723 3.754 C-3.936 0.075 -3.887 0.305 0 0 Z " fill="#2B2B2B" transform="translate(217.1875,160.75)"/>
<path d="M0 0 C1.418 0.115 2.834 0.243 4.25 0.375 C5.039 0.445 5.828 0.514 6.641 0.586 C9.086 1.015 10.848 1.786 13 3 C12.521 7.714 12.032 11.666 10 16 C8.394 15.717 6.79 15.423 5.188 15.125 C4.294 14.963 3.401 14.8 2.48 14.633 C0 14 0 14 -3 12 C-2.67 10.02 -2.34 8.04 -2 6 C0 9.75 0 9.75 0 12 C2.97 12 5.94 12 9 12 C10 5.25 10 5.25 10 3 C9.371 2.979 9.371 2.979 6.188 2.875 C5.48 2.852 4.772 2.829 4.043 2.805 C2 3 2 3 -1 5 C-0.67 3.35 -0.34 1.7 0 0 Z " fill="#2B2B2B" transform="translate(192,155)"/>
<path d="M0 0 C1.32 0 2.64 0 4 0 C4 3.96 4 7.92 4 12 C2.68 12 1.36 12 0 12 C0 8.04 0 4.08 0 0 Z " fill="#3D3D3D" transform="translate(176,136)"/>
<path d="M0 0 C1.32 0 2.64 0 4 0 C4 3.96 4 7.92 4 12 C2.68 12 1.36 12 0 12 C0 8.04 0 4.08 0 0 Z " fill="#3D3D3D" transform="translate(76,136)"/>
<path d="M0 0 C1.32 0 2.64 0 4 0 C4 3.96 4 7.92 4 12 C2.68 12 1.36 12 0 12 C0 8.04 0 4.08 0 0 Z " fill="#3D3D3D" transform="translate(180,122)"/>
<path d="M0 0 C1.32 0 2.64 0 4 0 C4 3.96 4 7.92 4 12 C2.68 12 1.36 12 0 12 C0 8.04 0 4.08 0 0 Z " fill="#3D3D3D" transform="translate(72,122)"/>
<path d="M0 0 C1.32 0 2.64 0 4 0 C4 3.96 4 7.92 4 12 C2.68 12 1.36 12 0 12 C0 8.04 0 4.08 0 0 Z " fill="#3D3D3D" transform="translate(176,108)"/>
<path d="M0 0 C1.32 0 2.64 0 4 0 C4 3.96 4 7.92 4 12 C2.68 12 1.36 12 0 12 C0 8.04 0 4.08 0 0 Z " fill="#3D3D3D" transform="translate(76,108)"/>
</svg>
