<?xml version="1.0" encoding="UTF-8"?>
<!-- Generator: visioncortex VTracer 0.6.12 -->
<svg version="1.1" xmlns="http://www.w3.org/2000/svg" width="256" height="256">
<path d="M0 0 C37.62 0 75.24 0 114 0 C114 48 114 48 111 56 C110.619 59.235 110.619 59.235 110.612 62.409 C110.607 63.01 110.607 63.01 110.583 66.051 C110.589 67.329 110.595 68.606 110.602 69.922 C110.6 71.272 110.597 72.622 110.593 73.971 C110.588 76.792 110.595 79.613 110.609 82.434 C110.626 86.015 110.616 89.596 110.598 93.178 C110.587 95.964 110.591 98.751 110.599 101.538 C110.601 103.489 110.592 105.441 110.583 107.393 C110.638 114.395 111.335 120.592 113.319 127.319 C114.501 131.971 114.435 136.602 114.375 141.375 C114.387 142.32 114.398 143.265 114.41 144.238 C114.388 149.545 114.09 153.484 111 158 C110.316 158.387 109.631 158.773 108.926 159.172 C107 161 107 161 106.481 164.436 C106.452 165.882 106.444 167.329 106.454 168.776 C106.444 169.579 106.433 170.383 106.423 171.21 C106.393 173.811 106.392 176.411 106.391 179.012 C106.377 180.617 106.361 182.222 106.343 183.828 C106.291 189.781 106.272 195.734 106.25 201.688 C106.168 214.991 106.085 228.294 106 242 C73.66 242 41.32 242 8 242 C7.812 201.75 7.812 201.75 7.792 189.046 C7.751 183.922 7.751 183.922 7.726 181.523 C7.713 179.849 7.71 178.175 7.714 176.501 C7.719 173.963 7.693 171.427 7.659 168.89 C7.668 168.145 7.677 167.401 7.686 166.634 C7.6 162.811 7.349 161.335 4.54 158.638 C3.702 158.097 2.863 157.557 2 157 C-0.894 152.323 -0.331 146.762 -0.312 141.438 C-0.329 140.511 -0.345 139.585 -0.361 138.631 C-0.365 133.651 0.085 129.323 1.498 124.54 C3.313 117.507 3.433 110.78 3.398 103.547 C3.4 102.193 3.403 100.839 3.407 99.486 C3.412 96.672 3.405 93.859 3.391 91.045 C3.374 87.459 3.384 83.873 3.402 80.287 C3.413 77.5 3.409 74.714 3.401 71.927 C3.399 69.969 3.408 68.01 3.417 66.051 C3.407 64.85 3.398 63.648 3.388 62.409 C3.386 61.362 3.383 60.314 3.381 59.235 C3 56 3 56 0 48 C0 32.16 0 16.32 0 0 Z " fill="#1E1E1E" transform="translate(71,7)"/>
<path d="M0 0 C37.62 0 75.24 0 114 0 C114 48 114 48 111 56 C110.619 59.235 110.619 59.235 110.612 62.409 C110.607 63.01 110.607 63.01 110.583 66.051 C110.589 67.329 110.595 68.606 110.602 69.922 C110.6 71.272 110.597 72.622 110.593 73.971 C110.588 76.792 110.595 79.613 110.609 82.434 C110.626 86.015 110.616 89.596 110.598 93.178 C110.587 95.964 110.591 98.751 110.599 101.538 C110.601 103.489 110.592 105.441 110.583 107.393 C110.638 114.395 111.335 120.592 113.319 127.319 C114.501 131.971 114.435 136.602 114.375 141.375 C114.387 142.32 114.398 143.265 114.41 144.238 C114.388 149.545 114.09 153.484 111 158 C110.316 158.387 109.631 158.773 108.926 159.172 C107 161 107 161 106.481 164.436 C106.452 165.882 106.444 167.329 106.454 168.776 C106.444 169.579 106.433 170.383 106.423 171.21 C106.393 173.811 106.392 176.411 106.391 179.012 C106.377 180.617 106.361 182.222 106.343 183.828 C106.291 189.781 106.272 195.734 106.25 201.688 C106.168 214.991 106.085 228.294 106 242 C73.66 242 41.32 242 8 242 C7.812 201.75 7.812 201.75 7.792 189.046 C7.751 183.922 7.751 183.922 7.726 181.523 C7.713 179.849 7.71 178.175 7.714 176.501 C7.719 173.963 7.693 171.427 7.659 168.89 C7.668 168.145 7.677 167.401 7.686 166.634 C7.6 162.811 7.349 161.335 4.54 158.638 C3.702 158.097 2.863 157.557 2 157 C-0.894 152.323 -0.331 146.762 -0.312 141.438 C-0.329 140.511 -0.345 139.585 -0.361 138.631 C-0.365 133.651 0.085 129.323 1.498 124.54 C3.313 117.507 3.433 110.78 3.398 103.547 C3.4 102.193 3.403 100.839 3.407 99.486 C3.412 96.672 3.405 93.859 3.391 91.045 C3.374 87.459 3.384 83.873 3.402 80.287 C3.413 77.5 3.409 74.714 3.401 71.927 C3.399 69.969 3.408 68.01 3.417 66.051 C3.407 64.85 3.398 63.648 3.388 62.409 C3.386 61.362 3.383 60.314 3.381 59.235 C3 56 3 56 0 48 C0 32.16 0 16.32 0 0 Z M9 9 C9 47 9 47 12 55 C12.381 58.28 12.381 58.28 12.388 61.517 C12.393 62.129 12.393 62.129 12.417 65.23 C12.411 66.532 12.405 67.834 12.398 69.176 C12.4 70.55 12.403 71.925 12.407 73.3 C12.412 76.172 12.405 79.044 12.391 81.916 C12.374 85.567 12.384 89.217 12.402 92.869 C12.413 95.706 12.409 98.543 12.401 101.38 C12.399 103.371 12.408 105.363 12.417 107.354 C12.364 114.212 11.702 120.128 9.676 126.684 C8.848 129.522 8.641 132.119 8.672 135.07 C8.677 136.068 8.682 137.066 8.688 138.094 C8.708 139.094 8.729 140.094 8.75 141.125 C8.753 141.644 8.753 141.644 8.766 144.273 C8.845 151.845 8.845 151.845 10 153 C12.31 153 14.62 153 17 153 C17 179.4 17 205.8 17 233 C43.4 233 69.8 233 97 233 C97 206.6 97 180.2 97 153 C99.31 153 101.62 153 104 153 C106.424 150.576 105.234 144.374 105.25 141.125 C105.271 140.125 105.291 139.124 105.312 138.094 C105.318 137.096 105.323 136.098 105.328 135.07 C105.337 134.171 105.347 133.271 105.356 132.344 C105.034 129.318 104.397 126.921 103.504 124.031 C101.556 117.164 101.568 110.524 101.602 103.426 C101.6 102.048 101.597 100.671 101.593 99.293 C101.588 96.426 101.595 93.56 101.609 90.693 C101.626 87.038 101.616 83.384 101.598 79.73 C101.587 76.892 101.591 74.055 101.599 71.218 C101.601 69.222 101.592 67.226 101.583 65.23 C101.588 64.617 101.588 64.617 101.612 61.517 C101.614 60.449 101.617 59.38 101.619 58.28 C102 55 102 55 105 47 C105 34.46 105 21.92 105 9 C73.32 9 41.64 9 9 9 Z " fill="#FAFAFA" transform="translate(71,7)"/>
<path d="M0 0 C25.08 0 50.16 0 76 0 C76 25.74 76 51.48 76 78 C50.92 78 25.84 78 0 78 C0 52.26 0 26.52 0 0 Z " fill="#4B4C4B" transform="translate(90,160)"/>
<path d="M0 0 C0.644 0.006 0.644 0.006 3.902 0.035 C5.193 0.044 6.483 0.053 7.812 0.062 C8.812 0.074 9.811 0.086 10.84 0.098 C10.927 4.058 10.947 6.674 8.84 10.098 C11.48 10.098 14.12 10.098 16.84 10.098 C16.51 9.561 16.18 9.025 15.84 8.473 C14.84 6.098 14.84 6.098 14.84 0.098 C28.04 0.098 41.24 0.098 54.84 0.098 C54.84 6.848 54.84 6.848 52.84 10.098 C55.48 10.098 58.12 10.098 60.84 10.098 C60.51 9.561 60.18 9.025 59.84 8.473 C58.84 6.098 58.84 6.098 58.84 0.098 C67.42 0.098 76 0.098 84.84 0.098 C88.965 11.098 88.965 11.098 88.973 17.484 C88.974 18.505 88.975 19.525 88.977 20.576 C88.973 21.635 88.969 22.694 88.965 23.785 C88.969 24.856 88.973 25.926 88.977 27.029 C88.975 28.046 88.974 29.062 88.973 30.109 C88.972 31.042 88.97 31.975 88.969 32.936 C88.84 35.098 88.84 35.098 87.84 36.098 C85.53 36.098 83.22 36.098 80.84 36.098 C80.84 62.498 80.84 88.898 80.84 116.098 C54.44 116.098 28.04 116.098 0.84 116.098 C0.84 89.698 0.84 63.298 0.84 36.098 C-1.47 36.098 -3.78 36.098 -6.16 36.098 C-8.584 33.674 -7.394 27.471 -7.41 24.223 C-7.431 23.222 -7.451 22.222 -7.473 21.191 C-7.509 14.109 -6.558 7.784 -4.16 1.098 C-3.16 0.098 -3.16 0.098 0 0 Z M2.84 36.098 C2.84 61.838 2.84 87.578 2.84 114.098 C27.92 114.098 53 114.098 78.84 114.098 C78.84 88.358 78.84 62.618 78.84 36.098 C53.76 36.098 28.68 36.098 2.84 36.098 Z " fill="#252525" transform="translate(87.16015625,123.90234375)"/>
<path d="M0 0 C29.04 0 58.08 0 88 0 C88 9.24 88 18.48 88 28 C58.96 28 29.92 28 0 28 C0 18.76 0 9.52 0 0 Z " fill="#263878" transform="translate(84,20)"/>
<path d="M0 0 C4.62 0 9.24 0 14 0 C14 6.75 14 6.75 12 10 C14.64 10 17.28 10 20 10 C19.67 9.464 19.34 8.928 19 8.375 C18 6 18 6 18 0 C31.2 0 44.4 0 58 0 C58 6.75 58 6.75 56 10 C58.64 10 61.28 10 64 10 C63.67 9.464 63.34 8.928 63 8.375 C62 6 62 6 62 0 C70.58 0 79.16 0 88 0 C91 8 91 8 92 16 C60.32 16 28.64 16 -4 16 C-3.181 9.446 -2.376 5.785 0 0 Z " fill="#4B4D50" transform="translate(84,124)"/>
<path d="M0 0 C29.04 0 58.08 0 88 0 C86 9 86 9 85 12 C57.94 12 30.88 12 3 12 C0 3 0 3 0 0 Z " fill="#3F3F3F" transform="translate(84,52)"/>
<path d="M0 0 C0.985 -0.001 1.97 -0.003 2.984 -0.004 C4.021 -0 5.057 0.004 6.125 0.008 C6.643 0.006 6.643 0.006 9.266 -0.004 C10.25 -0.003 11.235 -0.001 12.25 0 C13.16 0.001 14.07 0.002 15.008 0.003 C17.125 0.133 17.125 0.133 18.125 1.133 C18.225 3.339 18.256 5.549 18.258 7.758 C18.258 8.089 18.258 8.089 18.261 9.764 C18.261 11.166 18.26 12.569 18.255 13.971 C18.25 16.124 18.255 18.277 18.262 20.43 C18.261 21.789 18.26 23.148 18.258 24.508 C18.257 25.753 18.256 26.998 18.254 28.281 C18.125 31.133 18.125 31.133 17.125 32.133 C15.502 32.232 13.876 32.264 12.25 32.266 C11.265 32.267 10.28 32.268 9.266 32.27 C8.229 32.266 7.193 32.262 6.125 32.258 C5.607 32.26 5.607 32.26 2.984 32.27 C2 32.268 1.015 32.267 0 32.266 C-0.91 32.264 -1.82 32.263 -2.758 32.262 C-4.875 32.133 -4.875 32.133 -5.875 31.133 C-5.975 28.926 -6.006 26.717 -6.008 24.508 C-6.009 23.846 -6.01 23.184 -6.011 22.501 C-6.011 21.099 -6.01 19.697 -6.005 18.295 C-6 16.142 -6.005 13.989 -6.012 11.836 C-6.011 10.477 -6.01 9.117 -6.008 7.758 C-6.007 7.135 -6.007 7.135 -6.004 3.984 C-5.792 -0.696 -4.227 0.005 0 0 Z " fill="#2C1D1D" transform="translate(121.875,171.8671875)"/>
<path d="M0 0 C0.985 -0.001 1.97 -0.003 2.984 -0.004 C4.021 -0 5.057 0.004 6.125 0.008 C6.643 0.006 6.643 0.006 9.266 -0.004 C10.25 -0.003 11.235 -0.001 12.25 0 C13.16 0.001 14.07 0.002 15.008 0.003 C17.125 0.133 17.125 0.133 18.125 1.133 C18.225 3.339 18.256 5.549 18.258 7.758 C18.258 8.089 18.258 8.089 18.261 9.764 C18.261 11.166 18.26 12.569 18.255 13.971 C18.25 16.124 18.255 18.277 18.262 20.43 C18.261 21.789 18.26 23.148 18.258 24.508 C18.257 25.753 18.256 26.998 18.254 28.281 C18.125 31.133 18.125 31.133 17.125 32.133 C15.502 32.232 13.876 32.264 12.25 32.266 C11.265 32.267 10.28 32.268 9.266 32.27 C8.229 32.266 7.193 32.262 6.125 32.258 C5.607 32.26 5.607 32.26 2.984 32.27 C2 32.268 1.015 32.267 0 32.266 C-0.91 32.264 -1.82 32.263 -2.758 32.262 C-4.875 32.133 -4.875 32.133 -5.875 31.133 C-5.975 28.926 -6.006 26.717 -6.008 24.508 C-6.009 23.846 -6.01 23.184 -6.011 22.501 C-6.011 21.099 -6.01 19.697 -6.005 18.295 C-6 16.142 -6.005 13.989 -6.012 11.836 C-6.011 10.477 -6.01 9.117 -6.008 7.758 C-6.007 7.135 -6.007 7.135 -6.004 3.984 C-5.792 -0.696 -4.227 0.005 0 0 Z M-3.875 4.133 C-3.875 10.733 -3.875 17.333 -3.875 24.133 C2.725 24.133 9.325 24.133 16.125 24.133 C16.125 17.533 16.125 10.933 16.125 4.133 C9.525 4.133 2.925 4.133 -3.875 4.133 Z " fill="#262626" transform="translate(121.875,171.8671875)"/>
<path d="M0 0 C6.6 0 13.2 0 20 0 C20 6.6 20 13.2 20 20 C13.4 20 6.8 20 0 20 C0 13.4 0 6.8 0 0 Z M2 2 C2 7.28 2 12.56 2 18 C7.28 18 12.56 18 18 18 C18 12.72 18 7.44 18 2 C12.72 2 7.44 2 2 2 Z " fill="#1A1A1A" transform="translate(118,176)"/>
<path d="M0 0 C1.32 0 2.64 0 4 0 C4.66 3.3 5.32 6.6 6 10 C3.36 10 0.72 10 -2 10 C-1.34 6.7 -0.68 3.4 0 0 Z " fill="#333333" transform="translate(142,124)"/>
<path d="M0 0 C1.32 0 2.64 0 4 0 C4.66 3.3 5.32 6.6 6 10 C3.36 10 0.72 10 -2 10 C-1.34 6.7 -0.68 3.4 0 0 Z " fill="#333333" transform="translate(98,124)"/>
<path d="M0 0 C0.99 0 1.98 0 3 0 C3 0.66 3 1.32 3 2 C3.66 2 4.32 2 5 2 C5 1.34 5 0.68 5 0 C5.99 0 6.98 0 8 0 C8 0.99 8 1.98 8 3 C5.36 3 2.72 3 0 3 C0 2.01 0 1.02 0 0 Z " fill="#1C1C1C" transform="translate(140,131)"/>
<path d="M0 0 C0.99 0 1.98 0 3 0 C3 0.66 3 1.32 3 2 C3.66 2 4.32 2 5 2 C5 1.34 5 0.68 5 0 C5.99 0 6.98 0 8 0 C8 0.99 8 1.98 8 3 C5.36 3 2.72 3 0 3 C0 2.01 0 1.02 0 0 Z " fill="#1C1C1C" transform="translate(96,131)"/>
</svg>
