<?xml version="1.0" encoding="UTF-8"?>
<!-- Generator: visioncortex VTracer 0.6.12 -->
<svg version="1.1" xmlns="http://www.w3.org/2000/svg" width="256" height="256">
<path d="M0 0 C13.841 2.898 28.329 1.979 42.394 2.019 C46.205 2.035 50.017 2.068 53.828 2.102 C54.994 2.099 56.159 2.096 57.36 2.092 C66.61 2.178 71.382 4.142 78.008 10.758 C78.94 11.67 79.872 12.583 80.832 13.523 C87.048 20.979 86.753 27.873 86.708 37.258 C86.713 38.65 86.718 40.042 86.724 41.434 C86.738 45.198 86.733 48.962 86.723 52.727 C86.716 56.672 86.723 60.618 86.727 64.563 C86.733 71.186 86.726 77.808 86.711 84.43 C86.695 92.082 86.7 99.734 86.717 107.386 C86.731 113.964 86.732 120.542 86.725 127.119 C86.72 131.045 86.719 134.97 86.729 138.895 C86.738 142.584 86.732 146.273 86.715 149.961 C86.709 151.958 86.718 153.955 86.727 155.952 C86.723 156.548 86.723 156.548 86.701 159.563 C86.7 160.596 86.699 161.63 86.698 162.694 C85.92 168.493 82.046 172.101 78.07 176.133 C77.158 177.074 76.245 178.015 75.305 178.984 C69.365 184.007 64.151 184.953 56.636 184.895 C55.786 184.901 54.936 184.906 54.061 184.912 C51.227 184.926 48.393 184.919 45.559 184.912 C43.522 184.918 41.484 184.925 39.447 184.933 C33.922 184.951 28.398 184.949 22.873 184.944 C18.258 184.941 13.643 184.947 9.028 184.953 C-1.86 184.967 -12.748 184.965 -23.635 184.954 C-34.863 184.942 -46.09 184.956 -57.317 184.983 C-66.962 185.005 -76.608 185.012 -86.253 185.006 C-92.011 185.003 -97.769 185.005 -103.527 185.022 C-108.942 185.038 -114.356 185.034 -119.771 185.015 C-121.756 185.011 -123.741 185.015 -125.726 185.025 C-128.441 185.038 -131.154 185.027 -133.868 185.009 C-134.65 185.019 -135.431 185.028 -136.236 185.038 C-144.242 184.931 -150.031 181.648 -155.6 176.037 C-155.85 175.774 -155.85 175.774 -157.117 174.445 C-157.645 173.916 -158.173 173.387 -158.717 172.842 C-162.965 168.495 -163.802 165.766 -163.827 159.81 C-163.834 158.623 -163.841 157.435 -163.849 156.212 C-163.851 154.907 -163.854 153.603 -163.857 152.259 C-163.863 150.873 -163.87 149.486 -163.877 148.1 C-163.898 143.544 -163.908 138.989 -163.918 134.434 C-163.922 132.864 -163.926 131.294 -163.93 129.725 C-163.949 122.349 -163.964 114.973 -163.972 107.597 C-163.982 99.091 -164.008 90.585 -164.048 82.079 C-164.079 75.5 -164.093 68.921 -164.097 62.341 C-164.099 58.414 -164.108 54.487 -164.133 50.56 C-164.157 46.862 -164.161 43.165 -164.15 39.467 C-164.15 37.472 -164.169 35.476 -164.188 33.481 C-164.138 24.801 -162.949 19.021 -157.059 12.391 C-156.129 11.481 -155.2 10.57 -154.242 9.633 C-153.315 8.707 -152.389 7.782 -151.434 6.828 C-145.829 2.106 -140.76 2.217 -133.727 2.237 C-132.728 2.231 -131.729 2.226 -130.7 2.221 C-128.531 2.211 -126.363 2.205 -124.195 2.203 C-120.749 2.199 -117.304 2.182 -113.859 2.162 C-104.064 2.107 -94.268 2.076 -84.473 2.052 C-78.476 2.036 -72.479 2.005 -66.482 1.967 C-64.209 1.955 -61.937 1.949 -59.664 1.949 C-48.214 1.948 -37.296 1.763 -26.105 -0.815 C-17.342 -2.548 -8.652 -2.065 0 0 Z " fill="#383838" transform="translate(166.6796875,36.4921875)"/>
<path d="M0 0 C13.841 2.898 28.329 1.979 42.394 2.019 C46.205 2.035 50.017 2.068 53.828 2.102 C54.994 2.099 56.159 2.096 57.36 2.092 C66.61 2.178 71.382 4.142 78.008 10.758 C78.94 11.67 79.872 12.583 80.832 13.523 C87.048 20.979 86.753 27.873 86.708 37.258 C86.713 38.65 86.718 40.042 86.724 41.434 C86.738 45.198 86.733 48.962 86.723 52.727 C86.716 56.672 86.723 60.618 86.727 64.563 C86.733 71.186 86.726 77.808 86.711 84.43 C86.695 92.082 86.7 99.734 86.717 107.386 C86.731 113.964 86.732 120.542 86.725 127.119 C86.72 131.045 86.719 134.97 86.729 138.895 C86.738 142.584 86.732 146.273 86.715 149.961 C86.709 151.958 86.718 153.955 86.727 155.952 C86.723 156.548 86.723 156.548 86.701 159.563 C86.7 160.596 86.699 161.63 86.698 162.694 C85.92 168.493 82.046 172.101 78.07 176.133 C77.158 177.074 76.245 178.015 75.305 178.984 C69.365 184.007 64.151 184.953 56.636 184.895 C55.786 184.901 54.936 184.906 54.061 184.912 C51.227 184.926 48.393 184.919 45.559 184.912 C43.522 184.918 41.484 184.925 39.447 184.933 C33.922 184.951 28.398 184.949 22.873 184.944 C18.258 184.941 13.643 184.947 9.028 184.953 C-1.86 184.967 -12.748 184.965 -23.635 184.954 C-34.863 184.942 -46.09 184.956 -57.317 184.983 C-66.962 185.005 -76.608 185.012 -86.253 185.006 C-92.011 185.003 -97.769 185.005 -103.527 185.022 C-108.942 185.038 -114.356 185.034 -119.771 185.015 C-121.756 185.011 -123.741 185.015 -125.726 185.025 C-128.441 185.038 -131.154 185.027 -133.868 185.009 C-134.65 185.019 -135.431 185.028 -136.236 185.038 C-144.242 184.931 -150.031 181.648 -155.6 176.037 C-155.85 175.774 -155.85 175.774 -157.117 174.445 C-157.645 173.916 -158.173 173.387 -158.717 172.842 C-162.965 168.495 -163.802 165.766 -163.827 159.81 C-163.834 158.623 -163.841 157.435 -163.849 156.212 C-163.851 154.907 -163.854 153.603 -163.857 152.259 C-163.863 150.873 -163.87 149.486 -163.877 148.1 C-163.898 143.544 -163.908 138.989 -163.918 134.434 C-163.922 132.864 -163.926 131.294 -163.93 129.725 C-163.949 122.349 -163.964 114.973 -163.972 107.597 C-163.982 99.091 -164.008 90.585 -164.048 82.079 C-164.079 75.5 -164.093 68.921 -164.097 62.341 C-164.099 58.414 -164.108 54.487 -164.133 50.56 C-164.157 46.862 -164.161 43.165 -164.15 39.467 C-164.15 37.472 -164.169 35.476 -164.188 33.481 C-164.138 24.801 -162.949 19.021 -157.059 12.391 C-156.129 11.481 -155.2 10.57 -154.242 9.633 C-153.315 8.707 -152.389 7.782 -151.434 6.828 C-145.829 2.106 -140.76 2.217 -133.727 2.237 C-132.728 2.231 -131.729 2.226 -130.7 2.221 C-128.531 2.211 -126.363 2.205 -124.195 2.203 C-120.749 2.199 -117.304 2.182 -113.859 2.162 C-104.064 2.107 -94.268 2.076 -84.473 2.052 C-78.476 2.036 -72.479 2.005 -66.482 1.967 C-64.209 1.955 -61.937 1.949 -59.664 1.949 C-48.214 1.948 -37.296 1.763 -26.105 -0.815 C-17.342 -2.548 -8.652 -2.065 0 0 Z M-32.712 9.015 C-38.393 10.583 -43.544 10.89 -49.408 10.781 C-49.913 10.779 -49.913 10.779 -52.468 10.764 C-54.64 10.75 -56.811 10.73 -58.983 10.705 C-62.427 10.667 -65.87 10.655 -69.314 10.65 C-79.1 10.636 -88.884 10.6 -98.669 10.491 C-104.673 10.426 -110.676 10.409 -116.68 10.424 C-118.958 10.42 -121.236 10.398 -123.513 10.357 C-142.224 10.031 -142.224 10.031 -147.323 13.737 C-152.287 18.607 -154.786 22.112 -154.867 29.034 C-154.883 30.209 -154.899 31.383 -154.915 32.594 C-154.927 33.889 -154.939 35.185 -154.952 36.52 C-154.968 37.893 -154.984 39.266 -155.001 40.639 C-155.146 53.194 -155.221 65.75 -155.28 78.306 C-155.324 87.583 -155.402 96.858 -155.522 106.135 C-155.603 112.661 -155.646 119.187 -155.661 125.715 C-155.671 129.61 -155.698 133.504 -155.768 137.399 C-155.832 141.07 -155.848 144.739 -155.829 148.411 C-155.831 150.387 -155.882 152.362 -155.935 154.338 C-155.844 161.496 -154.831 165.137 -149.733 170.323 C-144.445 174.992 -141.525 175.659 -134.597 175.675 C-134.174 175.678 -134.174 175.678 -132.035 175.693 C-129.185 175.711 -126.335 175.722 -123.486 175.732 C-121.449 175.744 -119.413 175.755 -117.376 175.767 C-110.673 175.804 -103.969 175.829 -97.266 175.852 C-96.126 175.856 -94.986 175.859 -93.812 175.864 C-83.065 175.9 -72.318 175.931 -61.57 175.953 C-47.816 175.98 -34.063 176.031 -20.309 176.113 C-10.643 176.169 -0.976 176.198 8.69 176.207 C14.465 176.213 20.24 176.232 26.015 176.278 C31.45 176.322 36.885 176.333 42.321 176.318 C44.314 176.318 46.307 176.33 48.299 176.356 C65.24 176.559 65.24 176.559 70.318 172.207 C71.358 171.006 72.36 169.772 73.32 168.508 C74.031 167.891 74.742 167.274 75.475 166.638 C77.871 163.872 77.829 162.354 77.848 158.728 C77.856 158.138 77.856 158.138 77.896 155.151 C77.894 154.505 77.894 154.505 77.885 151.237 C77.896 149.861 77.908 148.484 77.921 147.107 C77.952 143.369 77.958 139.632 77.956 135.894 C77.957 132.77 77.969 129.647 77.981 126.523 C78.009 119.15 78.014 111.777 78.007 104.404 C77.999 96.808 78.033 89.213 78.086 81.617 C78.129 75.088 78.146 68.56 78.142 62.031 C78.139 58.135 78.148 54.24 78.183 50.344 C78.215 46.676 78.213 43.01 78.185 39.342 C78.179 37.364 78.207 35.385 78.236 33.407 C78.159 27.491 77.968 23.487 74.017 18.896 C72.805 17.745 71.575 16.612 70.32 15.508 C69.975 15.1 69.975 15.1 68.225 13.039 C65.678 10.992 64.084 11.009 60.84 11.01 C59.741 10.999 58.642 10.989 57.51 10.979 C56.325 10.987 55.139 10.995 53.918 11.004 C52.689 10.994 51.461 10.985 50.195 10.975 C46.257 10.947 42.32 10.944 38.383 10.945 C34.477 10.942 30.573 10.932 26.667 10.905 C24.239 10.888 21.81 10.885 19.381 10.898 C12.359 10.855 6.075 10.003 -0.715 8.19 C-5.727 7.037 -10.686 7.073 -15.805 7.133 C-16.799 7.121 -17.792 7.11 -18.816 7.098 C-19.805 7.102 -20.794 7.105 -21.812 7.109 C-22.678 7.113 -23.543 7.116 -24.434 7.12 C-27.408 7.475 -29.86 8.142 -32.712 9.015 Z " fill="#FAFAFA" transform="translate(166.6796875,36.4921875)"/>
<path d="M0 0 C0.33 0 0.66 0 1 0 C1 3.3 1 6.6 1 10 C11.56 10 22.12 10 33 10 C33 37.72 33 65.44 33 94 C27.885 94.165 27.885 94.165 2 95 C1.67 98.96 1.34 102.92 1 107 C-0.791 108.33 -2.585 109.658 -4.415 110.935 C-8.364 116.08 -6.981 125.12 -6.938 131.375 C-6.951 133.082 -6.967 134.789 -6.986 136.496 C-7.027 140.665 -7.025 144.831 -7 149 C-7.99 149 -8.98 149 -10 149 C-10.187 130.867 -10.328 112.735 -10.414 94.601 C-10.456 86.182 -10.512 77.762 -10.604 69.343 C-10.683 62.003 -10.735 54.663 -10.753 47.323 C-10.763 43.437 -10.788 39.553 -10.846 35.668 C-10.9 32.007 -10.917 28.349 -10.905 24.688 C-10.908 22.71 -10.951 20.733 -10.995 18.756 C-10.916 10.202 -10.916 10.202 -8.228 6.675 C-6.233 4.917 -4.224 3.449 -2 2 C-1.34 1.34 -0.68 0.68 0 0 Z " fill="#262626" transform="translate(23,50)"/>
<path d="M0 0 C0.467 -0.003 0.467 -0.003 2.831 -0.019 C3.838 -0.01 4.844 -0 5.881 0.009 C6.915 0.009 7.949 0.008 9.015 0.008 C11.201 0.01 13.387 0.02 15.574 0.036 C18.93 0.06 22.285 0.057 25.64 0.05 C27.762 0.056 29.884 0.063 32.006 0.072 C33.014 0.071 34.022 0.07 35.061 0.069 C35.992 0.078 36.923 0.088 37.883 0.098 C38.704 0.102 39.526 0.107 40.372 0.112 C42.377 0.372 42.377 0.372 44.377 2.372 C44.655 4.511 44.655 4.511 44.696 7.189 C44.715 8.19 44.735 9.191 44.756 10.222 C44.767 11.306 44.779 12.389 44.791 13.505 C44.81 14.612 44.83 15.719 44.849 16.86 C44.909 20.405 44.956 23.951 45.002 27.497 C45.04 29.897 45.079 32.297 45.119 34.697 C45.215 40.588 45.3 46.48 45.377 52.372 C30.638 58.42 11.093 58.494 -3.801 52.827 C-4.518 52.555 -5.235 52.283 -5.973 52.003 C-6.246 51.899 -6.246 51.899 -7.623 51.372 C-7.699 44.591 -7.752 37.811 -7.788 31.029 C-7.803 28.722 -7.824 26.414 -7.85 24.106 C-7.886 20.793 -7.903 17.479 -7.916 14.165 C-7.932 13.131 -7.947 12.096 -7.963 11.031 C-7.963 10.07 -7.964 9.109 -7.964 8.119 C-7.971 7.273 -7.977 6.427 -7.984 5.555 C-7.623 3.372 -7.623 3.372 -6.391 1.599 C-4.119 0.022 -2.755 -0.002 0 0 Z " fill="#333232" transform="translate(131.623291015625,131.627685546875)"/>
<path d="M0 0 C4.591 0.793 7.14 3.093 10.299 6.404 C13.614 11.463 13.039 16.986 12.908 22.852 C12.906 24.242 12.907 25.632 12.912 27.023 C12.914 30.777 12.867 34.529 12.811 38.283 C12.761 42.213 12.756 46.144 12.747 50.074 C12.722 57.508 12.657 64.942 12.576 72.375 C12.487 80.842 12.443 89.308 12.403 97.775 C12.319 115.184 12.178 132.592 12 150 C11.01 150 10.02 150 9 150 C9.006 148.941 9.013 147.882 9.019 146.791 C9.034 142.843 9.002 138.896 8.957 134.949 C8.944 133.244 8.943 131.539 8.955 129.833 C8.97 127.375 8.941 124.92 8.902 122.461 C8.909 122.083 8.909 122.083 8.946 120.169 C8.884 117.904 8.703 116.156 8 114 C6.413 112.671 6.413 112.671 4.5 111.413 C2.258 109.578 1.157 108.541 0.342 105.737 C0.1 102.94 0.069 100.212 0.114 97.405 C0.103 96.351 0.092 95.296 0.081 94.21 C0.054 90.736 0.075 87.263 0.098 83.789 C0.088 81.376 0.076 78.963 0.06 76.551 C0.028 70.208 0.038 63.866 0.056 57.523 C0.067 51.048 0.039 44.573 0.014 38.098 C-0.029 25.398 -0.03 12.699 0 0 Z " fill="#191919" transform="translate(231,49)"/>
<path d="M0 0 C0.33 0 0.66 0 1 0 C1.916 12.683 1.916 12.683 -0.266 15.82 C-2.452 17.253 -4.374 18 -7 18 C-7 18.99 -7 19.98 -7 21 C-6.237 20.67 -5.474 20.34 -4.688 20 C-2 19 -2 19 1 19 C0.812 20.812 0.812 20.812 0 23 C-4.179 26 -4.179 26 -7 26 C-7 26.99 -7 27.98 -7 29 C-6.237 28.67 -5.474 28.34 -4.688 28 C-2 27 -2 27 1 27 C0.812 28.812 0.812 28.812 0 31 C-4.179 34 -4.179 34 -7 34 C-7 34.99 -7 35.98 -7 37 C-6.618 36.835 -6.618 36.835 -4.688 36 C-2 35 -2 35 1 35 C0.812 36.812 0.812 36.812 0 39 C-4.179 42 -4.179 42 -7 42 C-7 42.99 -7 43.98 -7 45 C-6.618 44.835 -6.618 44.835 -4.688 44 C-2 43 -2 43 1 43 C0.812 44.812 0.812 44.812 0 47 C-4.179 50 -4.179 50 -7 50 C-7 50.99 -7 51.98 -7 53 C-6.618 52.835 -6.618 52.835 -4.688 52 C-2 51 -2 51 1 51 C0.812 52.812 0.812 52.812 0 55 C-4.179 58 -4.179 58 -7 58 C-7 58.99 -7 59.98 -7 61 C-6.618 60.835 -6.618 60.835 -4.688 60 C-2 59 -2 59 1 59 C0.812 60.812 0.812 60.812 0 63 C-4.179 66 -4.179 66 -7 66 C-7 66.99 -7 67.98 -7 69 C-6.618 68.835 -6.618 68.835 -4.688 68 C-2 67 -2 67 1 67 C0.812 68.812 0.812 68.812 0 71 C-4.179 74 -4.179 74 -7 74 C-7 74.99 -7 75.98 -7 77 C-6.618 76.835 -6.618 76.835 -4.688 76 C-2 75 -2 75 1 75 C0.812 76.813 0.812 76.813 0 79 C-4.179 82 -4.179 82 -7 82 C-7 82.99 -7 83.98 -7 85 C-6.618 84.835 -6.618 84.835 -4.688 84 C-2 83 -2 83 1 83 C0.812 84.812 0.812 84.812 0 87 C-4.179 90 -4.179 90 -7 90 C-7 90.99 -7 91.98 -7 93 C-6.618 92.835 -6.618 92.835 -4.688 92 C-2 91 -2 91 1 91 C1.19 93.545 1.328 96.076 1.438 98.625 C1.496 99.338 1.555 100.051 1.615 100.785 C1.688 103.045 1.648 104.828 1 107 C-0.556 108.216 -0.556 108.216 -2.469 109.375 C-5.609 111.71 -5.98 112.884 -6.67 116.837 C-7.001 121.681 -6.972 126.523 -6.938 131.375 C-6.951 133.082 -6.967 134.789 -6.986 136.496 C-7.027 140.665 -7.025 144.831 -7 149 C-7.99 149 -8.98 149 -10 149 C-10.187 130.867 -10.328 112.735 -10.414 94.601 C-10.456 86.182 -10.512 77.762 -10.604 69.343 C-10.683 62.003 -10.735 54.663 -10.753 47.323 C-10.763 43.437 -10.788 39.553 -10.846 35.668 C-10.9 32.007 -10.917 28.349 -10.905 24.688 C-10.908 22.71 -10.951 20.733 -10.995 18.756 C-10.916 10.202 -10.916 10.202 -8.228 6.675 C-6.233 4.917 -4.224 3.449 -2 2 C-1.34 1.34 -0.68 0.68 0 0 Z " fill="#252525" transform="translate(23,50)"/>
<path d="M0 0 C5.28 0 10.56 0 16 0 C16 11.88 16 23.76 16 36 C10.72 36 5.44 36 0 36 C0 24.12 0 12.24 0 0 Z " fill="#1D1919" transform="translate(32,164)"/>
<path d="M0 0 C1.237 0.454 2.475 0.907 3.75 1.375 C17.455 5.886 31.331 6.407 45.258 2.656 C48 2 48 2 52 2 C52 4.64 52 7.28 52 10 C39.872 16.744 21.027 15.18 8 12 C5.249 11.124 2.662 10.126 0 9 C0 6.03 0 3.06 0 0 Z " fill="#770303" transform="translate(124,174)"/>
<path d="M0 0 C0.495 0.33 0.495 0.33 3 2 C3.369 4.448 3.369 4.448 3.361 7.593 C3.363 8.188 3.363 8.188 3.373 11.197 C3.362 12.508 3.352 13.819 3.341 15.17 C3.34 16.56 3.34 17.949 3.342 19.339 C3.343 23.118 3.325 26.896 3.304 30.675 C3.285 34.621 3.284 38.568 3.28 42.514 C3.271 49.991 3.246 57.467 3.216 64.943 C3.183 73.453 3.166 81.963 3.151 90.473 C3.12 107.982 3.067 125.491 3 143 C2.01 143 1.02 143 0 143 C0 95.81 0 48.62 0 0 Z " fill="#252525" transform="translate(240,56)"/>
<path d="M0 0 C7.92 0 15.84 0 24 0 C24 5.28 24 10.56 24 16 C16.08 16 8.16 16 0 16 C0 10.72 0 5.44 0 0 Z " fill="#1F1919" transform="translate(52,164)"/>
<path d="M0 0 C7.92 0 15.84 0 24 0 C24 2.64 24 5.28 24 8 C16.08 8 8.16 8 0 8 C0 5.36 0 2.72 0 0 Z " fill="#E0E0E0" transform="translate(52,192)"/>
<path d="M0 0 C1.365 0.02 2.73 0.038 4.096 0.055 C7.419 0.102 10.74 0.167 14.062 0.25 C14.062 1.57 14.062 2.89 14.062 4.25 C13.634 4.26 13.634 4.26 11.464 4.31 C8.273 4.388 5.083 4.475 1.892 4.567 C0.513 4.606 -0.866 4.64 -2.246 4.672 C-4.232 4.718 -6.217 4.777 -8.203 4.836 C-9.397 4.867 -10.591 4.899 -11.821 4.931 C-14.798 5.236 -16.372 5.835 -18.938 7.25 C-19.928 7.25 -20.918 7.25 -21.938 7.25 C-21.938 6.26 -21.938 5.27 -21.938 4.25 C-15.187 -0.97 -8.207 -0.21 0 0 Z " fill="#313131" transform="translate(37.9375,135.75)"/>
<path d="M0 0 C1.365 0.02 2.73 0.038 4.096 0.055 C7.419 0.102 10.74 0.167 14.062 0.25 C14.062 1.57 14.062 2.89 14.062 4.25 C13.634 4.26 13.634 4.26 11.464 4.31 C8.273 4.388 5.083 4.475 1.892 4.567 C0.513 4.606 -0.866 4.64 -2.246 4.672 C-4.232 4.718 -6.217 4.777 -8.203 4.836 C-9.397 4.867 -10.591 4.899 -11.821 4.931 C-14.798 5.236 -16.372 5.835 -18.938 7.25 C-19.928 7.25 -20.918 7.25 -21.938 7.25 C-21.938 6.26 -21.938 5.27 -21.938 4.25 C-15.187 -0.97 -8.207 -0.21 0 0 Z " fill="#313131" transform="translate(37.9375,127.75)"/>
<path d="M0 0 C1.365 0.02 2.73 0.038 4.096 0.055 C7.419 0.102 10.74 0.167 14.062 0.25 C14.062 1.57 14.062 2.89 14.062 4.25 C13.634 4.26 13.634 4.26 11.464 4.31 C8.273 4.388 5.083 4.475 1.892 4.567 C0.513 4.606 -0.866 4.64 -2.246 4.672 C-4.232 4.718 -6.217 4.777 -8.203 4.836 C-9.397 4.867 -10.591 4.899 -11.821 4.931 C-14.798 5.236 -16.372 5.835 -18.938 7.25 C-19.928 7.25 -20.918 7.25 -21.938 7.25 C-21.938 6.26 -21.938 5.27 -21.938 4.25 C-15.187 -0.97 -8.207 -0.21 0 0 Z " fill="#313131" transform="translate(37.9375,119.75)"/>
<path d="M0 0 C1.365 0.02 2.73 0.038 4.096 0.055 C7.419 0.102 10.74 0.167 14.062 0.25 C14.062 1.57 14.062 2.89 14.062 4.25 C13.634 4.26 13.634 4.26 11.464 4.31 C8.273 4.388 5.083 4.475 1.892 4.567 C0.513 4.606 -0.866 4.64 -2.246 4.672 C-4.232 4.718 -6.217 4.777 -8.203 4.836 C-9.397 4.867 -10.591 4.899 -11.821 4.931 C-14.798 5.236 -16.372 5.835 -18.938 7.25 C-19.928 7.25 -20.918 7.25 -21.938 7.25 C-21.938 6.26 -21.938 5.27 -21.938 4.25 C-15.187 -0.97 -8.207 -0.21 0 0 Z " fill="#313131" transform="translate(37.9375,111.75)"/>
<path d="M0 0 C1.365 0.02 2.73 0.038 4.096 0.055 C7.419 0.102 10.74 0.167 14.062 0.25 C14.062 1.57 14.062 2.89 14.062 4.25 C13.634 4.26 13.634 4.26 11.464 4.31 C8.273 4.388 5.083 4.475 1.892 4.567 C0.513 4.606 -0.866 4.64 -2.246 4.672 C-4.232 4.718 -6.217 4.777 -8.203 4.836 C-9.397 4.867 -10.591 4.899 -11.821 4.931 C-14.798 5.236 -16.372 5.835 -18.938 7.25 C-19.928 7.25 -20.918 7.25 -21.938 7.25 C-21.938 6.26 -21.938 5.27 -21.938 4.25 C-15.187 -0.97 -8.207 -0.21 0 0 Z " fill="#313131" transform="translate(37.9375,103.75)"/>
<path d="M0 0 C1.365 0.02 2.73 0.038 4.096 0.055 C7.419 0.102 10.74 0.167 14.062 0.25 C14.062 1.57 14.062 2.89 14.062 4.25 C13.634 4.26 13.634 4.26 11.464 4.31 C8.273 4.388 5.083 4.475 1.892 4.567 C0.513 4.606 -0.866 4.64 -2.246 4.672 C-4.232 4.718 -6.217 4.777 -8.203 4.836 C-9.397 4.867 -10.591 4.899 -11.821 4.931 C-14.798 5.236 -16.372 5.835 -18.938 7.25 C-19.928 7.25 -20.918 7.25 -21.938 7.25 C-21.938 6.26 -21.938 5.27 -21.938 4.25 C-15.187 -0.97 -8.207 -0.21 0 0 Z " fill="#313131" transform="translate(37.9375,95.75)"/>
<path d="M0 0 C1.365 0.02 2.73 0.038 4.096 0.055 C7.419 0.102 10.74 0.167 14.062 0.25 C14.062 1.57 14.062 2.89 14.062 4.25 C13.634 4.26 13.634 4.26 11.464 4.31 C8.273 4.388 5.083 4.475 1.892 4.567 C0.513 4.606 -0.866 4.64 -2.246 4.672 C-4.232 4.718 -6.217 4.777 -8.203 4.836 C-9.397 4.867 -10.591 4.899 -11.821 4.931 C-14.798 5.236 -16.372 5.835 -18.938 7.25 C-19.928 7.25 -20.918 7.25 -21.938 7.25 C-21.938 6.26 -21.938 5.27 -21.938 4.25 C-15.187 -0.97 -8.207 -0.21 0 0 Z " fill="#313131" transform="translate(37.9375,87.75)"/>
<path d="M0 0 C1.365 0.02 2.73 0.038 4.096 0.055 C7.419 0.102 10.74 0.167 14.062 0.25 C14.062 1.57 14.062 2.89 14.062 4.25 C13.634 4.26 13.634 4.26 11.464 4.31 C8.273 4.388 5.083 4.475 1.892 4.567 C0.513 4.606 -0.866 4.64 -2.246 4.672 C-4.232 4.718 -6.217 4.777 -8.203 4.836 C-9.397 4.867 -10.591 4.899 -11.821 4.931 C-14.798 5.236 -16.372 5.835 -18.938 7.25 C-19.928 7.25 -20.918 7.25 -21.938 7.25 C-21.938 6.26 -21.938 5.27 -21.938 4.25 C-15.187 -0.97 -8.207 -0.21 0 0 Z " fill="#313131" transform="translate(37.9375,79.75)"/>
<path d="M0 0 C1.365 0.02 2.73 0.038 4.096 0.055 C7.419 0.102 10.74 0.167 14.062 0.25 C14.062 1.57 14.062 2.89 14.062 4.25 C13.634 4.26 13.634 4.26 11.464 4.31 C8.273 4.388 5.083 4.475 1.892 4.567 C0.513 4.606 -0.866 4.64 -2.246 4.672 C-4.232 4.718 -6.217 4.777 -8.203 4.836 C-9.397 4.867 -10.591 4.899 -11.821 4.931 C-14.798 5.236 -16.372 5.835 -18.938 7.25 C-19.928 7.25 -20.918 7.25 -21.938 7.25 C-21.938 6.26 -21.938 5.27 -21.938 4.25 C-15.187 -0.97 -8.207 -0.21 0 0 Z " fill="#313131" transform="translate(37.9375,71.75)"/>
<path d="M0 0 C1.365 0.02 2.73 0.038 4.096 0.055 C7.419 0.102 10.74 0.167 14.062 0.25 C14.062 1.57 14.062 2.89 14.062 4.25 C13.634 4.26 13.634 4.26 11.464 4.31 C8.273 4.388 5.083 4.475 1.892 4.567 C0.513 4.606 -0.866 4.64 -2.246 4.672 C-4.232 4.718 -6.217 4.777 -8.203 4.836 C-9.397 4.867 -10.591 4.899 -11.821 4.931 C-14.798 5.236 -16.372 5.835 -18.938 7.25 C-19.928 7.25 -20.918 7.25 -21.938 7.25 C-21.938 6.26 -21.938 5.27 -21.938 4.25 C-15.187 -0.97 -8.207 -0.21 0 0 Z " fill="#313131" transform="translate(37.9375,63.75)"/>
<path d="M0 0 C1.227 14.348 1.227 14.348 -1.781 18.398 C-3.804 19.858 -5.763 20.918 -8 22 C-8.145 18.896 -8.234 15.794 -8.312 12.688 C-8.354 11.806 -8.396 10.925 -8.439 10.018 C-8.486 7.584 -8.472 5.389 -8 3 C-5.157 0.433 -3.813 0 0 0 Z " fill="#191919" transform="translate(24,141)"/>
<path d="M0 0 C0.135 2.269 0.232 4.541 0.312 6.812 C0.371 8.077 0.429 9.342 0.488 10.645 C0 14 0 14 -2.332 15.949 C-5 17 -5 17 -8 17 C-9.07 8.561 -9.07 8.561 -6.477 4.777 C-1.67 0 -1.67 0 0 0 Z " fill="#191919" transform="translate(24,50)"/>
<path d="M0 0 C3.63 0 7.26 0 11 0 C11 2.64 11 5.28 11 8 C7.37 8 3.74 8 0 8 C0 5.36 0 2.72 0 0 Z " fill="#323232" transform="translate(61,168)"/>
<path d="M0 0 C0.66 0 1.32 0 2 0 C2 0.66 2 1.32 2 2 C2.66 2 3.32 2 4 2 C4 1.34 4 0.68 4 0 C4.66 0 5.32 0 6 0 C6 0.66 6 1.32 6 2 C6.66 2 7.32 2 8 2 C8 1.34 8 0.68 8 0 C8.66 0 9.32 0 10 0 C10 0.66 10 1.32 10 2 C10.66 2 11.32 2 12 2 C12 1.34 12 0.68 12 0 C12.66 0 13.32 0 14 0 C14 0.66 14 1.32 14 2 C14.66 2 15.32 2 16 2 C16 1.34 16 0.68 16 0 C16.66 0 17.32 0 18 0 C18 0.66 18 1.32 18 2 C18.66 2 19.32 2 20 2 C20 2.66 20 3.32 20 4 C19.34 4 18.68 4 18 4 C18 4.66 18 5.32 18 6 C17.34 6 16.68 6 16 6 C16 5.34 16 4.68 16 4 C15.34 4 14.68 4 14 4 C14 4.66 14 5.32 14 6 C13.34 6 12.68 6 12 6 C12 5.34 12 4.68 12 4 C11.34 4 10.68 4 10 4 C10 4.66 10 5.32 10 6 C9.34 6 8.68 6 8 6 C8 5.34 8 4.68 8 4 C7.34 4 6.68 4 6 4 C6 4.66 6 5.32 6 6 C5.34 6 4.68 6 4 6 C4 5.34 4 4.68 4 4 C3.34 4 2.68 4 2 4 C2 4.66 2 5.32 2 6 C1.34 6 0.68 6 0 6 C0 5.34 0 4.68 0 4 C-0.66 4 -1.32 4 -2 4 C-2 3.34 -2 2.68 -2 2 C-1.34 2 -0.68 2 0 2 C0 1.34 0 0.68 0 0 Z " fill="#FDFDFD" transform="translate(55,193)"/>
<path d="M0 0 C2.64 0 5.28 0 8 0 C8 2.31 8 4.62 8 7 C7.01 7 6.02 7 5 7 C5 10.96 5 14.92 5 19 C4.34 19 3.68 19 3 19 C3 15.04 3 11.08 3 7 C2.01 7 1.02 7 0 7 C0 4.69 0 2.38 0 0 Z " fill="#313030" transform="translate(36,177)"/>
<path d="M0 0 C2.64 0 5.28 0 8 0 C8 2.31 8 4.62 8 7 C5.36 7 2.72 7 0 7 C0 4.69 0 2.38 0 0 Z " fill="#4A4948" transform="translate(36,168)"/>
<path d="M0 0 C-0.25 1.875 -0.25 1.875 -1 4 C-3.582 5.721 -4.849 6 -8 6 C-8 5.01 -8 4.02 -8 3 C-5.112 0.892 -3.615 0 0 0 Z " fill="#1A1A1A" transform="translate(24,133)"/>
<path d="M0 0 C-0.25 1.875 -0.25 1.875 -1 4 C-3.582 5.721 -4.849 6 -8 6 C-8 5.01 -8 4.02 -8 3 C-5.112 0.892 -3.615 0 0 0 Z " fill="#1A1A1A" transform="translate(24,125)"/>
<path d="M0 0 C-0.25 1.875 -0.25 1.875 -1 4 C-3.582 5.721 -4.849 6 -8 6 C-8 5.01 -8 4.02 -8 3 C-5.112 0.892 -3.615 0 0 0 Z " fill="#1A1A1A" transform="translate(24,117)"/>
<path d="M0 0 C-0.25 1.875 -0.25 1.875 -1 4 C-3.582 5.721 -4.849 6 -8 6 C-8 5.01 -8 4.02 -8 3 C-5.112 0.892 -3.615 0 0 0 Z " fill="#1A1A1A" transform="translate(24,109)"/>
<path d="M0 0 C-0.25 1.875 -0.25 1.875 -1 4 C-3.582 5.721 -4.849 6 -8 6 C-8 5.01 -8 4.02 -8 3 C-5.112 0.892 -3.615 0 0 0 Z " fill="#1A1A1A" transform="translate(24,101)"/>
<path d="M0 0 C-0.25 1.875 -0.25 1.875 -1 4 C-3.582 5.721 -4.849 6 -8 6 C-8 5.01 -8 4.02 -8 3 C-5.112 0.892 -3.615 0 0 0 Z " fill="#1A1A1A" transform="translate(24,93)"/>
<path d="M0 0 C-0.25 1.875 -0.25 1.875 -1 4 C-3.582 5.721 -4.849 6 -8 6 C-8 5.01 -8 4.02 -8 3 C-5.112 0.892 -3.615 0 0 0 Z " fill="#1A1A1A" transform="translate(24,85)"/>
<path d="M0 0 C-0.25 1.875 -0.25 1.875 -1 4 C-3.582 5.721 -4.849 6 -8 6 C-8 5.01 -8 4.02 -8 3 C-5.112 0.892 -3.615 0 0 0 Z " fill="#1A1A1A" transform="translate(24,77)"/>
<path d="M0 0 C-0.25 1.875 -0.25 1.875 -1 4 C-3.582 5.721 -4.849 6 -8 6 C-8 5.01 -8 4.02 -8 3 C-5.112 0.892 -3.615 0 0 0 Z " fill="#1A1A1A" transform="translate(24,69)"/>
<path d="M0 0 C0.99 0 1.98 0 3 0 C3 2.64 3 5.28 3 8 C2.01 8 1.02 8 0 8 C0 5.36 0 2.72 0 0 Z " fill="#4B4746" transform="translate(61,168)"/>
<path d="M0 0 C0.99 0 1.98 0 3 0 C3 2.64 3 5.28 3 8 C2.01 8 1.02 8 0 8 C0 5.36 0 2.72 0 0 Z " fill="#4A4645" transform="translate(56,168)"/>
</svg>
