<?xml version="1.0" encoding="UTF-8"?>
<!-- Generator: visioncortex VTracer 0.6.12 -->
<svg version="1.1" xmlns="http://www.w3.org/2000/svg" width="256" height="256">
<path d="M0 0 C34.98 0 69.96 0 106 0 C106 1.32 106 2.64 106 4 C149.56 4 193.12 4 238 4 C238 21.82 238 39.64 238 58 C236.68 58 235.36 58 234 58 C234 87.04 234 116.08 234 146 C154.14 146 74.28 146 -8 146 C-8 116.96 -8 87.92 -8 58 C-9.32 58 -10.64 58 -12 58 C-12 40.18 -12 22.36 -12 4 C-8.04 4 -4.08 4 0 4 C0 2.68 0 1.36 0 0 Z " fill="#4E4F4E" transform="translate(15,55)"/>
<path d="M0 0 C34.98 0 69.96 0 106 0 C106 1.32 106 2.64 106 4 C149.56 4 193.12 4 238 4 C238 21.82 238 39.64 238 58 C236.68 58 235.36 58 234 58 C234 87.04 234 116.08 234 146 C154.14 146 74.28 146 -8 146 C-8 116.96 -8 87.92 -8 58 C-9.32 58 -10.64 58 -12 58 C-12 40.18 -12 22.36 -12 4 C-8.04 4 -4.08 4 0 4 C0 2.68 0 1.36 0 0 Z M-3 13 C-3 24.88 -3 36.76 -3 49 C-0.69 49 1.62 49 4 49 C3.998 49.987 3.996 50.975 3.993 51.992 C3.973 61.278 3.958 70.564 3.948 79.849 C3.943 84.623 3.936 89.398 3.925 94.172 C3.914 98.776 3.908 103.379 3.905 107.983 C3.903 109.743 3.9 111.503 3.894 113.264 C3.887 115.721 3.886 118.178 3.886 120.635 C3.883 121.37 3.879 122.105 3.876 122.862 C3.886 127.886 3.886 127.886 5 129 C7.782 129.098 10.538 129.13 13.32 129.12 C14.203 129.121 15.086 129.122 15.996 129.123 C18.978 129.125 21.96 129.119 24.942 129.114 C27.07 129.113 29.198 129.113 31.326 129.114 C37.124 129.114 42.921 129.108 48.718 129.101 C54.769 129.095 60.82 129.095 66.872 129.093 C78.339 129.09 89.807 129.082 101.275 129.072 C114.326 129.061 127.378 129.055 140.43 129.05 C167.287 129.04 194.143 129.022 221 129 C221 102.6 221 76.2 221 49 C151.04 49 81.08 49 9 49 C9 45.7 9 42.4 9 39 C38.04 39 67.08 39 97 39 C97 38.34 97 37.68 97 37 C67.96 37 38.92 37 9 37 C9 36.34 9 35.68 9 35 C38.04 35 67.08 35 97 35 C97 34.34 97 33.68 97 33 C67.96 33 38.92 33 9 33 C9 32.34 9 31.68 9 31 C38.04 31 67.08 31 97 31 C97 30.34 97 29.68 97 29 C67.96 29 38.92 29 9 29 C9 28.34 9 27.68 9 27 C38.04 27 67.08 27 97 27 C97 26.34 97 25.68 97 25 C67.96 25 38.92 25 9 25 C9 24.34 9 23.68 9 23 C38.04 23 67.08 23 97 23 C97 22.34 97 21.68 97 21 C67.96 21 38.92 21 9 21 C9 20.34 9 19.68 9 19 C38.04 19 67.08 19 97 19 C97 18.34 97 17.68 97 17 C67.96 17 38.92 17 9 17 C9 15.68 9 14.36 9 13 C5.04 13 1.08 13 -3 13 Z " fill="#939393" transform="translate(15,55)"/>
<path d="M0 0 C34.98 0 69.96 0 106 0 C106 1.32 106 2.64 106 4 C149.56 4 193.12 4 238 4 C238 21.82 238 39.64 238 58 C236.68 58 235.36 58 234 58 C234 87.04 234 116.08 234 146 C154.14 146 74.28 146 -8 146 C-8 116.96 -8 87.92 -8 58 C-9.32 58 -10.64 58 -12 58 C-12 40.18 -12 22.36 -12 4 C-8.04 4 -4.08 4 0 4 C0 2.68 0 1.36 0 0 Z M9 9 C9 10.32 9 11.64 9 13 C5.04 13 1.08 13 -3 13 C-3 24.88 -3 36.76 -3 49 C-1.68 49 -0.36 49 1 49 C1 78.04 1 107.08 1 137 C74.92 137 148.84 137 225 137 C225 107.96 225 78.92 225 49 C226.32 49 227.64 49 229 49 C229 37.12 229 25.24 229 13 C185.44 13 141.88 13 97 13 C97 11.68 97 10.36 97 9 C67.96 9 38.92 9 9 9 Z " fill="#FCFCFC" transform="translate(15,55)"/>
<path d="M0 0 C42.9 0 85.8 0 130 0 C130 2.31 130 4.62 130 7 C129.01 7 128.02 7 127 7 C127 36.37 127 65.74 127 96 C53.08 96 -20.84 96 -97 96 C-97 66.96 -97 37.92 -97 8 C-96.01 8 -95.02 8 -94 8 C-93.67 34.07 -93.34 60.14 -93 87 C-57.36 87.165 -57.36 87.165 123 88 C123 61.6 123 35.2 123 8 C82.08 8 41.16 8 -1 8 C-0.67 5.36 -0.34 2.72 0 0 Z " fill="#8D8D8D" transform="translate(113,96)"/>
<path d="M0 0 C3.96 0 7.92 0 12 0 C12 1.32 12 2.64 12 4 C41.04 4 70.08 4 100 4 C100 4.66 100 5.32 100 6 C70.96 6 41.92 6 12 6 C12 6.66 12 7.32 12 8 C41.04 8 70.08 8 100 8 C100 8.66 100 9.32 100 10 C70.96 10 41.92 10 12 10 C12 10.66 12 11.32 12 12 C41.04 12 70.08 12 100 12 C100 12.66 100 13.32 100 14 C70.96 14 41.92 14 12 14 C12 14.66 12 15.32 12 16 C41.04 16 70.08 16 100 16 C100 16.66 100 17.32 100 18 C70.96 18 41.92 18 12 18 C12 18.66 12 19.32 12 20 C41.04 20 70.08 20 100 20 C100 20.66 100 21.32 100 22 C70.96 22 41.92 22 12 22 C12 22.66 12 23.32 12 24 C41.04 24 70.08 24 100 24 C100 24.66 100 25.32 100 26 C70.96 26 41.92 26 12 26 C12 29.3 12 32.6 12 36 C81.96 36 151.92 36 224 36 C224 62.4 224 88.8 224 116 C195.854 116.023 167.709 116.041 139.563 116.052 C126.496 116.057 113.428 116.064 100.361 116.075 C88.975 116.085 77.59 116.092 66.205 116.094 C60.173 116.095 54.14 116.098 48.108 116.106 C42.437 116.112 36.767 116.115 31.096 116.113 C29.008 116.113 26.92 116.115 24.832 116.119 C21.995 116.124 19.158 116.123 16.32 116.12 C15.902 116.122 15.902 116.122 13.782 116.129 C8.114 116.114 8.114 116.114 7 115 C6.905 112.536 6.874 110.099 6.886 107.635 C6.886 106.864 6.886 106.093 6.886 105.299 C6.887 102.74 6.895 100.18 6.902 97.621 C6.904 95.851 6.906 94.082 6.907 92.312 C6.91 87.644 6.92 82.977 6.931 78.31 C6.942 73.551 6.946 68.792 6.951 64.033 C6.962 54.689 6.979 45.344 7 36 C4.69 36 2.38 36 0 36 C0 24.12 0 12.24 0 0 Z M9 37 C9 62.74 9 88.48 9 115 C79.62 115 150.24 115 223 115 C223 89.26 223 63.52 223 37 C152.38 37 81.76 37 9 37 Z " fill="#585858" transform="translate(12,68)"/>
<path d="M0 0 C29.04 0 58.08 0 88 0 C88 5.28 88 10.56 88 16 C58.96 16 29.92 16 0 16 C0 10.72 0 5.44 0 0 Z " fill="#969696" transform="translate(148,76)"/>
<path d="M0 0 C42.9 0 85.8 0 130 0 C130 2.31 130 4.62 130 7 C128.02 7.33 126.04 7.66 124 8 C124 34.4 124 60.8 124 88 C123.67 88 123.34 88 123 88 C123 61.6 123 35.2 123 8 C82.08 8 41.16 8 -1 8 C-0.67 5.36 -0.34 2.72 0 0 Z M-92 88 C-21.05 88 49.9 88 123 88 C123 88.33 123 88.66 123 89 C52.05 89 -18.9 89 -92 89 C-92 88.67 -92 88.34 -92 88 Z " fill="#7F7F7F" transform="translate(113,96)"/>
<path d="M0 0 C7.92 0 15.84 0 24 0 C24.33 0.99 24.66 1.98 25 3 C25.99 3.33 26.98 3.66 28 4 C28 11.92 28 19.84 28 28 C27.01 28.33 26.02 28.66 25 29 C24.67 29.99 24.34 30.98 24 32 C16.08 32 8.16 32 0 32 C-0.33 31.01 -0.66 30.02 -1 29 C-1.99 28.67 -2.98 28.34 -4 28 C-4 20.08 -4 12.16 -4 4 C-3.01 3.67 -2.02 3.34 -1 3 C-0.67 2.01 -0.34 1.02 0 0 Z " fill="#3B94C8" transform="translate(200,128)"/>
<path d="M0 0 C29.04 0 58.08 0 88 0 C88 3.3 88 6.6 88 10 C58.96 10 29.92 10 0 10 C0 6.7 0 3.4 0 0 Z " fill="#AFB0AF" transform="translate(24,94)"/>
<path d="M0 0 C31.68 0 63.36 0 96 0 C96 2.64 96 5.28 96 8 C64.32 8 32.64 8 0 8 C0 5.36 0 2.72 0 0 Z " fill="#D4D4D4" transform="translate(52,168)"/>
<path d="M0 0 C29.04 0 58.08 0 88 0 C88 2.64 88 5.28 88 8 C58.96 8 29.92 8 0 8 C0 5.36 0 2.72 0 0 Z " fill="#B1B2B1" transform="translate(24,64)"/>
<path d="M0 0 C21.12 0 42.24 0 64 0 C64 2.64 64 5.28 64 8 C42.88 8 21.76 8 0 8 C0 5.36 0 2.72 0 0 Z " fill="#363636" transform="translate(160,80)"/>
<path d="M0 0 C42.9 0 85.8 0 130 0 C130 0.99 130 1.98 130 3 C87.1 3 44.2 3 0 3 C0 2.01 0 1.02 0 0 Z " fill="#7F7F7F" transform="translate(113,69)"/>
<path d="M0 0 C7.92 0 15.84 0 24 0 C22.957 5.214 22.278 6.29 18.688 9.875 C17.908 10.677 17.128 11.479 16.324 12.305 C14 14 14 14 12.035 14.062 C9.1 12.53 7.076 10.472 4.75 8.125 C3.858 7.241 2.966 6.356 2.047 5.445 C0 3 0 3 0 0 Z " fill="#3B94C8" transform="translate(200,128)"/>
<path d="M0 0 C3.38 1.504 5.958 3.457 8.75 5.875 C9.549 6.553 10.348 7.231 11.172 7.93 C13 10 13 10 13 14 C5.08 14 -2.84 14 -11 14 C-9.835 9.34 -8.348 8.031 -4.938 4.75 C-4.018 3.858 -3.099 2.966 -2.152 2.047 C-1.797 1.709 -1.797 1.709 0 0 Z " fill="#3B94CA" transform="translate(211,146)"/>
<path d="M0 0 C7.92 0 15.84 0 24 0 C24 2.64 24 5.28 24 8 C16.08 8 8.16 8 0 8 C0 5.36 0 2.72 0 0 Z " fill="#969696" transform="translate(24,156)"/>
<path d="M0 0 C3.96 0 7.92 0 12 0 C12 6.6 12 13.2 12 20 C9.36 20 6.72 20 4 20 C4 16.04 4 12.08 4 8 C2.68 8 1.36 8 0 8 C0 5.36 0 2.72 0 0 Z " fill="#969696" transform="translate(172,132)"/>
<path d="M0 0 C3.63 0 7.26 0 11 0 C11 2.64 11 5.28 11 8 C9.68 8 8.36 8 7 8 C7 34.07 7 60.14 7 87 C6.67 87 6.34 87 6 87 C6 60.93 6 34.86 6 8 C5.01 7.835 5.01 7.835 0 7 C0 4.69 0 2.38 0 0 Z " fill="#818281" transform="translate(13,96)"/>
<path d="M0 0 C5.28 0 10.56 0 16 0 C16 2.64 16 5.28 16 8 C10.72 8 5.44 8 0 8 C0 5.36 0 2.72 0 0 Z " fill="#969696" transform="translate(24,144)"/>
<path d="M0 0 C5.28 0 10.56 0 16 0 C16 2.64 16 5.28 16 8 C10.72 8 5.44 8 0 8 C0 5.36 0 2.72 0 0 Z " fill="#969696" transform="translate(168,120)"/>
<path d="M0 0 C0.681 0.681 1.361 1.361 2.062 2.062 C2.516 2.51 2.97 2.957 3.438 3.418 C4.568 4.562 5.668 5.736 6.75 6.926 C7.049 7.247 7.049 7.247 8.562 8.875 C9.121 9.491 9.679 10.107 10.254 10.742 C12 12 12 12 13.957 11.938 C16.568 10.739 18.134 9.191 20.125 7.125 C20.808 6.426 21.491 5.728 22.195 5.008 C24 3 24 3 26 0 C26 0.66 26 1.32 26 2 C26.66 2.33 27.32 2.66 28 3 C27.469 3.459 26.938 3.918 26.391 4.391 C22.817 7.495 19.281 10.582 16 14 C17.668 17.941 20.227 20.789 23 24 C20 24 20 24 18.395 22.688 C17.872 22.131 17.35 21.574 16.812 21 C16.283 20.443 15.753 19.886 15.207 19.312 C14.809 18.879 14.41 18.446 14 18 C10.604 19.462 8.435 21.352 5.875 24 C5.192 24.701 4.509 25.403 3.805 26.125 C3.209 26.744 2.614 27.363 2 28 C1.34 28.66 0.68 29.32 0 30 C0 29.34 0 28.68 0 28 C-0.66 27.67 -1.32 27.34 -2 27 C-1.319 26.649 -0.639 26.299 0.062 25.938 C3.791 23.478 7.437 20.701 10 17 C9.958 14.029 8.962 12.956 7.004 10.711 C6.601 10.326 6.601 10.326 4.562 8.375 C3.759 7.599 2.956 6.823 2.129 6.023 C1.426 5.356 0.724 4.688 0 4 C-0.66 3.34 -1.32 2.68 -2 2 C-1.34 2 -0.68 2 0 2 C0 1.34 0 0.68 0 0 Z " fill="#417796" transform="translate(199,129)"/>
<path d="M0 0 C3.96 0 7.92 0 12 0 C12 2.64 12 5.28 12 8 C8.04 8 4.08 8 0 8 C0 5.36 0 2.72 0 0 Z " fill="#959595" transform="translate(172,156)"/>
<path d="M0 0 C3.96 0 7.92 0 12 0 C12 2.64 12 5.28 12 8 C8.04 8 4.08 8 0 8 C0 5.36 0 2.72 0 0 Z " fill="#959595" transform="translate(24,132)"/>
<path d="M0 0 C2.64 0 5.28 0 8 0 C8 2.64 8 5.28 8 8 C5.36 8 2.72 8 0 8 C0 5.36 0 2.72 0 0 Z " fill="#959595" transform="translate(152,168)"/>
<path d="M0 0 C2.64 0 5.28 0 8 0 C8 2.64 8 5.28 8 8 C5.36 8 2.72 8 0 8 C0 5.36 0 2.72 0 0 Z " fill="#959595" transform="translate(40,168)"/>
<path d="M0 0 C2.64 0 5.28 0 8 0 C8 2.64 8 5.28 8 8 C5.36 8 2.72 8 0 8 C0 5.36 0 2.72 0 0 Z " fill="#959595" transform="translate(28,168)"/>
<path d="M0 0 C2.64 0 5.28 0 8 0 C8 2.64 8 5.28 8 8 C5.36 8 2.72 8 0 8 C0 5.36 0 2.72 0 0 Z " fill="#D1D1D1" transform="translate(160,156)"/>
<path d="M0 0 C2.64 0 5.28 0 8 0 C8 2.64 8 5.28 8 8 C5.36 8 2.72 8 0 8 C0 5.36 0 2.72 0 0 Z " fill="#D1D1D1" transform="translate(148,156)"/>
<path d="M0 0 C2.64 0 5.28 0 8 0 C8 2.64 8 5.28 8 8 C5.36 8 2.72 8 0 8 C0 5.36 0 2.72 0 0 Z " fill="#D1D1D1" transform="translate(136,156)"/>
<path d="M0 0 C2.64 0 5.28 0 8 0 C8 2.64 8 5.28 8 8 C5.36 8 2.72 8 0 8 C0 5.36 0 2.72 0 0 Z " fill="#D1D1D1" transform="translate(124,156)"/>
<path d="M0 0 C2.64 0 5.28 0 8 0 C8 2.64 8 5.28 8 8 C5.36 8 2.72 8 0 8 C0 5.36 0 2.72 0 0 Z " fill="#D1D1D1" transform="translate(112,156)"/>
<path d="M0 0 C2.64 0 5.28 0 8 0 C8 2.64 8 5.28 8 8 C5.36 8 2.72 8 0 8 C0 5.36 0 2.72 0 0 Z " fill="#D1D1D1" transform="translate(100,156)"/>
<path d="M0 0 C2.64 0 5.28 0 8 0 C8 2.64 8 5.28 8 8 C5.36 8 2.72 8 0 8 C0 5.36 0 2.72 0 0 Z " fill="#D1D1D1" transform="translate(88,156)"/>
<path d="M0 0 C2.64 0 5.28 0 8 0 C8 2.64 8 5.28 8 8 C5.36 8 2.72 8 0 8 C0 5.36 0 2.72 0 0 Z " fill="#D1D1D1" transform="translate(76,156)"/>
<path d="M0 0 C2.64 0 5.28 0 8 0 C8 2.64 8 5.28 8 8 C5.36 8 2.72 8 0 8 C0 5.36 0 2.72 0 0 Z " fill="#D1D1D1" transform="translate(64,156)"/>
<path d="M0 0 C2.64 0 5.28 0 8 0 C8 2.64 8 5.28 8 8 C5.36 8 2.72 8 0 8 C0 5.36 0 2.72 0 0 Z " fill="#D1D1D1" transform="translate(52,156)"/>
<path d="M0 0 C2.64 0 5.28 0 8 0 C8 2.64 8 5.28 8 8 C5.36 8 2.72 8 0 8 C0 5.36 0 2.72 0 0 Z " fill="#D1D1D1" transform="translate(164,144)"/>
<path d="M0 0 C2.64 0 5.28 0 8 0 C8 2.64 8 5.28 8 8 C5.36 8 2.72 8 0 8 C0 5.36 0 2.72 0 0 Z " fill="#D1D1D1" transform="translate(152,144)"/>
<path d="M0 0 C2.64 0 5.28 0 8 0 C8 2.64 8 5.28 8 8 C5.36 8 2.72 8 0 8 C0 5.36 0 2.72 0 0 Z " fill="#D1D1D1" transform="translate(140,144)"/>
<path d="M0 0 C2.64 0 5.28 0 8 0 C8 2.64 8 5.28 8 8 C5.36 8 2.72 8 0 8 C0 5.36 0 2.72 0 0 Z " fill="#D1D1D1" transform="translate(128,144)"/>
<path d="M0 0 C2.64 0 5.28 0 8 0 C8 2.64 8 5.28 8 8 C5.36 8 2.72 8 0 8 C0 5.36 0 2.72 0 0 Z " fill="#D1D1D1" transform="translate(116,144)"/>
<path d="M0 0 C2.64 0 5.28 0 8 0 C8 2.64 8 5.28 8 8 C5.36 8 2.72 8 0 8 C0 5.36 0 2.72 0 0 Z " fill="#D1D1D1" transform="translate(104,144)"/>
<path d="M0 0 C2.64 0 5.28 0 8 0 C8 2.64 8 5.28 8 8 C5.36 8 2.72 8 0 8 C0 5.36 0 2.72 0 0 Z " fill="#D1D1D1" transform="translate(92,144)"/>
<path d="M0 0 C2.64 0 5.28 0 8 0 C8 2.64 8 5.28 8 8 C5.36 8 2.72 8 0 8 C0 5.36 0 2.72 0 0 Z " fill="#D1D1D1" transform="translate(80,144)"/>
<path d="M0 0 C2.64 0 5.28 0 8 0 C8 2.64 8 5.28 8 8 C5.36 8 2.72 8 0 8 C0 5.36 0 2.72 0 0 Z " fill="#D1D1D1" transform="translate(68,144)"/>
<path d="M0 0 C2.64 0 5.28 0 8 0 C8 2.64 8 5.28 8 8 C5.36 8 2.72 8 0 8 C0 5.36 0 2.72 0 0 Z " fill="#D1D1D1" transform="translate(56,144)"/>
<path d="M0 0 C2.64 0 5.28 0 8 0 C8 2.64 8 5.28 8 8 C5.36 8 2.72 8 0 8 C0 5.36 0 2.72 0 0 Z " fill="#D1D1D1" transform="translate(44,144)"/>
<path d="M0 0 C2.64 0 5.28 0 8 0 C8 2.64 8 5.28 8 8 C5.36 8 2.72 8 0 8 C0 5.36 0 2.72 0 0 Z " fill="#D1D1D1" transform="translate(160,132)"/>
<path d="M0 0 C2.64 0 5.28 0 8 0 C8 2.64 8 5.28 8 8 C5.36 8 2.72 8 0 8 C0 5.36 0 2.72 0 0 Z " fill="#D1D1D1" transform="translate(148,132)"/>
<path d="M0 0 C2.64 0 5.28 0 8 0 C8 2.64 8 5.28 8 8 C5.36 8 2.72 8 0 8 C0 5.36 0 2.72 0 0 Z " fill="#D1D1D1" transform="translate(136,132)"/>
<path d="M0 0 C2.64 0 5.28 0 8 0 C8 2.64 8 5.28 8 8 C5.36 8 2.72 8 0 8 C0 5.36 0 2.72 0 0 Z " fill="#D1D1D1" transform="translate(124,132)"/>
<path d="M0 0 C2.64 0 5.28 0 8 0 C8 2.64 8 5.28 8 8 C5.36 8 2.72 8 0 8 C0 5.36 0 2.72 0 0 Z " fill="#D1D1D1" transform="translate(112,132)"/>
<path d="M0 0 C2.64 0 5.28 0 8 0 C8 2.64 8 5.28 8 8 C5.36 8 2.72 8 0 8 C0 5.36 0 2.72 0 0 Z " fill="#D1D1D1" transform="translate(100,132)"/>
<path d="M0 0 C2.64 0 5.28 0 8 0 C8 2.64 8 5.28 8 8 C5.36 8 2.72 8 0 8 C0 5.36 0 2.72 0 0 Z " fill="#D1D1D1" transform="translate(88,132)"/>
<path d="M0 0 C2.64 0 5.28 0 8 0 C8 2.64 8 5.28 8 8 C5.36 8 2.72 8 0 8 C0 5.36 0 2.72 0 0 Z " fill="#D1D1D1" transform="translate(76,132)"/>
<path d="M0 0 C2.64 0 5.28 0 8 0 C8 2.64 8 5.28 8 8 C5.36 8 2.72 8 0 8 C0 5.36 0 2.72 0 0 Z " fill="#D1D1D1" transform="translate(64,132)"/>
<path d="M0 0 C2.64 0 5.28 0 8 0 C8 2.64 8 5.28 8 8 C5.36 8 2.72 8 0 8 C0 5.36 0 2.72 0 0 Z " fill="#D1D1D1" transform="translate(52,132)"/>
<path d="M0 0 C2.64 0 5.28 0 8 0 C8 2.64 8 5.28 8 8 C5.36 8 2.72 8 0 8 C0 5.36 0 2.72 0 0 Z " fill="#D1D1D1" transform="translate(40,132)"/>
<path d="M0 0 C2.64 0 5.28 0 8 0 C8 2.64 8 5.28 8 8 C5.36 8 2.72 8 0 8 C0 5.36 0 2.72 0 0 Z " fill="#D1D1D1" transform="translate(156,120)"/>
<path d="M0 0 C2.64 0 5.28 0 8 0 C8 2.64 8 5.28 8 8 C5.36 8 2.72 8 0 8 C0 5.36 0 2.72 0 0 Z " fill="#D1D1D1" transform="translate(144,120)"/>
<path d="M0 0 C2.64 0 5.28 0 8 0 C8 2.64 8 5.28 8 8 C5.36 8 2.72 8 0 8 C0 5.36 0 2.72 0 0 Z " fill="#D1D1D1" transform="translate(132,120)"/>
<path d="M0 0 C2.64 0 5.28 0 8 0 C8 2.64 8 5.28 8 8 C5.36 8 2.72 8 0 8 C0 5.36 0 2.72 0 0 Z " fill="#D1D1D1" transform="translate(120,120)"/>
<path d="M0 0 C2.64 0 5.28 0 8 0 C8 2.64 8 5.28 8 8 C5.36 8 2.72 8 0 8 C0 5.36 0 2.72 0 0 Z " fill="#D1D1D1" transform="translate(108,120)"/>
<path d="M0 0 C2.64 0 5.28 0 8 0 C8 2.64 8 5.28 8 8 C5.36 8 2.72 8 0 8 C0 5.36 0 2.72 0 0 Z " fill="#D1D1D1" transform="translate(96,120)"/>
<path d="M0 0 C2.64 0 5.28 0 8 0 C8 2.64 8 5.28 8 8 C5.36 8 2.72 8 0 8 C0 5.36 0 2.72 0 0 Z " fill="#D1D1D1" transform="translate(84,120)"/>
<path d="M0 0 C2.64 0 5.28 0 8 0 C8 2.64 8 5.28 8 8 C5.36 8 2.72 8 0 8 C0 5.36 0 2.72 0 0 Z " fill="#D1D1D1" transform="translate(72,120)"/>
<path d="M0 0 C2.64 0 5.28 0 8 0 C8 2.64 8 5.28 8 8 C5.36 8 2.72 8 0 8 C0 5.36 0 2.72 0 0 Z " fill="#D1D1D1" transform="translate(60,120)"/>
<path d="M0 0 C2.64 0 5.28 0 8 0 C8 2.64 8 5.28 8 8 C5.36 8 2.72 8 0 8 C0 5.36 0 2.72 0 0 Z " fill="#D1D1D1" transform="translate(48,120)"/>
<path d="M0 0 C2.64 0 5.28 0 8 0 C8 2.64 8 5.28 8 8 C5.36 8 2.72 8 0 8 C0 5.36 0 2.72 0 0 Z " fill="#D1D1D1" transform="translate(36,120)"/>
<path d="M0 0 C2.64 0 5.28 0 8 0 C8 2.64 8 5.28 8 8 C5.36 8 2.72 8 0 8 C0 5.36 0 2.72 0 0 Z " fill="#959595" transform="translate(24,120)"/>
<path d="M0 0 C3.96 0 7.92 0 12 0 C12 1.32 12 2.64 12 4 C8.04 4 4.08 4 0 4 C0 2.68 0 1.36 0 0 Z " fill="#939393" transform="translate(220,108)"/>
<path d="M0 0 C3.96 0 7.92 0 12 0 C12 1.32 12 2.64 12 4 C8.04 4 4.08 4 0 4 C0 2.68 0 1.36 0 0 Z " fill="#939393" transform="translate(204,108)"/>
<path d="M0 0 C3.96 0 7.92 0 12 0 C12 1.32 12 2.64 12 4 C8.04 4 4.08 4 0 4 C0 2.68 0 1.36 0 0 Z " fill="#939393" transform="translate(188,108)"/>
<path d="M0 0 C3.96 0 7.92 0 12 0 C12 1.32 12 2.64 12 4 C8.04 4 4.08 4 0 4 C0 2.68 0 1.36 0 0 Z " fill="#939393" transform="translate(172,108)"/>
<path d="M0 0 C3.96 0 7.92 0 12 0 C12 1.32 12 2.64 12 4 C8.04 4 4.08 4 0 4 C0 2.68 0 1.36 0 0 Z " fill="#939393" transform="translate(156,108)"/>
<path d="M0 0 C3.96 0 7.92 0 12 0 C12 1.32 12 2.64 12 4 C8.04 4 4.08 4 0 4 C0 2.68 0 1.36 0 0 Z " fill="#939393" transform="translate(100,108)"/>
<path d="M0 0 C3.96 0 7.92 0 12 0 C12 1.32 12 2.64 12 4 C8.04 4 4.08 4 0 4 C0 2.68 0 1.36 0 0 Z " fill="#939393" transform="translate(84,108)"/>
<path d="M0 0 C3.96 0 7.92 0 12 0 C12 1.32 12 2.64 12 4 C8.04 4 4.08 4 0 4 C0 2.68 0 1.36 0 0 Z " fill="#939393" transform="translate(68,108)"/>
<path d="M0 0 C3.96 0 7.92 0 12 0 C12 1.32 12 2.64 12 4 C8.04 4 4.08 4 0 4 C0 2.68 0 1.36 0 0 Z " fill="#939393" transform="translate(52,108)"/>
<path d="M0 0 C3.96 0 7.92 0 12 0 C12 1.32 12 2.64 12 4 C8.04 4 4.08 4 0 4 C0 2.68 0 1.36 0 0 Z " fill="#939393" transform="translate(36,108)"/>
<path d="M0 0 C3.3 0 6.6 0 10 0 C10.33 1.65 10.66 3.3 11 5 C10.67 4.34 10.34 3.68 10 3 C6.7 3 3.4 3 0 3 C0 2.01 0 1.02 0 0 Z " fill="#808080" transform="translate(13,69)"/>
</svg>
