<?xml version="1.0" encoding="UTF-8"?>
<!-- Generator: visioncortex VTracer 0.6.12 -->
<svg version="1.1" xmlns="http://www.w3.org/2000/svg" width="256" height="256">
<path d="M0 0 C0.716 -0.003 1.433 -0.006 2.171 -0.009 C4.572 -0.018 6.973 -0.019 9.375 -0.021 C11.096 -0.025 12.818 -0.03 14.539 -0.036 C19.217 -0.049 23.895 -0.055 28.573 -0.06 C31.496 -0.063 34.42 -0.067 37.343 -0.071 C46.493 -0.085 55.642 -0.095 64.792 -0.098 C75.349 -0.103 85.905 -0.12 96.462 -0.149 C104.625 -0.171 112.788 -0.181 120.951 -0.182 C125.825 -0.184 130.699 -0.189 135.573 -0.207 C140.16 -0.224 144.746 -0.226 149.333 -0.217 C151.013 -0.216 152.693 -0.221 154.373 -0.231 C164.83 -0.289 173.577 -0.006 182.286 6.551 C187.178 11.396 189.822 17.765 189.962 24.568 C189.943 25.957 189.919 27.346 189.89 28.734 C189.867 30.315 189.845 31.896 189.823 33.477 C189.817 33.897 189.817 33.897 189.785 36.019 C189.713 41.499 189.708 46.98 189.691 52.46 C189.673 57.227 189.632 61.99 189.538 66.756 C189.062 92.03 191.708 112.567 201.736 135.887 C206.252 146.481 207.421 155.694 203.145 166.465 C198.825 175.683 191.939 181.412 182.454 185.015 C174.101 187.433 167.39 186.392 159.434 183.113 C156.901 182.144 154.579 181.501 151.891 181.14 C151.231 181.47 150.571 181.8 149.891 182.14 C148.271 182.236 146.647 182.271 145.024 182.273 C144.54 182.274 144.54 182.274 142.09 182.277 C141.583 182.275 141.583 182.275 139.016 182.265 C138.009 182.269 137.003 182.273 135.965 182.277 C134.995 182.276 134.024 182.275 133.024 182.273 C132.58 182.273 132.58 182.273 130.333 182.27 C127.891 182.14 127.891 182.14 125.695 181.57 C123.891 181.14 123.891 181.14 121.891 182.14 C118.293 182.408 114.686 182.372 111.079 182.39 C110.579 182.401 110.579 182.401 108.053 182.453 C107.086 182.458 106.118 182.463 105.122 182.469 C104.239 182.478 103.356 182.487 102.447 182.497 C99.891 182.14 99.891 182.14 97.467 180.645 C94.265 178.775 92.143 178.753 88.454 178.742 C87.229 178.738 86.004 178.734 84.743 178.73 C83.472 178.742 82.201 178.753 80.891 178.765 C79.62 178.754 78.349 178.742 77.04 178.73 C75.815 178.734 74.59 178.738 73.329 178.742 C72.214 178.745 71.099 178.749 69.95 178.752 C66.532 179.186 64.786 180.351 61.891 182.14 C59.367 182.497 59.367 182.497 56.731 182.469 C55.773 182.463 54.814 182.458 53.827 182.453 C52.837 182.432 51.848 182.412 50.829 182.39 C49.835 182.385 48.842 182.38 47.819 182.375 C40.482 182.296 40.482 182.296 37.702 181.565 C35.891 181.14 35.891 181.14 33.891 182.14 C32.283 182.236 30.67 182.271 29.059 182.273 C28.096 182.275 27.132 182.276 26.139 182.277 C25.129 182.273 24.119 182.269 23.079 182.265 C22.08 182.269 21.082 182.273 20.053 182.277 C19.086 182.276 18.118 182.275 17.122 182.273 C16.239 182.272 15.356 182.271 14.447 182.27 C11.891 182.14 11.891 182.14 9.209 181.586 C6.262 181.02 4.978 181.679 2.329 183.015 C-5.627 186.959 -13.258 187.356 -21.734 184.515 C-31.561 180.537 -37.776 174.536 -42.144 164.844 C-46.684 152.596 -42.479 140.103 -37.347 128.638 C-27.928 107.394 -27.672 87.571 -28.065 64.608 C-28.182 57.044 -28.195 49.479 -28.217 41.915 C-28.233 39.304 -28.274 36.695 -28.319 34.084 C-28.335 32.484 -28.351 30.884 -28.367 29.284 C-28.385 28.574 -28.404 27.864 -28.423 27.133 C-28.459 19.899 -26.032 13.502 -21.699 7.746 C-15.592 1.579 -8.344 0.019 0 0 Z " fill="#3E3E3E" transform="translate(47.10882568359375,34.85955810546875)"/>
<path d="M0 0 C0.716 -0.003 1.433 -0.006 2.171 -0.009 C4.572 -0.018 6.973 -0.019 9.375 -0.021 C11.096 -0.025 12.818 -0.03 14.539 -0.036 C19.217 -0.049 23.895 -0.055 28.573 -0.06 C31.496 -0.063 34.42 -0.067 37.343 -0.071 C46.493 -0.085 55.642 -0.095 64.792 -0.098 C75.349 -0.103 85.905 -0.12 96.462 -0.149 C104.625 -0.171 112.788 -0.181 120.951 -0.182 C125.825 -0.184 130.699 -0.189 135.573 -0.207 C140.16 -0.224 144.746 -0.226 149.333 -0.217 C151.013 -0.216 152.693 -0.221 154.373 -0.231 C164.83 -0.289 173.577 -0.006 182.286 6.551 C187.178 11.396 189.822 17.765 189.962 24.568 C189.943 25.957 189.919 27.346 189.89 28.734 C189.867 30.315 189.845 31.896 189.823 33.477 C189.817 33.897 189.817 33.897 189.785 36.019 C189.713 41.499 189.708 46.98 189.691 52.46 C189.673 57.227 189.632 61.99 189.538 66.756 C189.062 92.03 191.708 112.567 201.736 135.887 C206.252 146.481 207.421 155.694 203.145 166.465 C198.825 175.683 191.939 181.412 182.454 185.015 C174.101 187.433 167.39 186.392 159.434 183.113 C156.901 182.144 154.579 181.501 151.891 181.14 C151.231 181.47 150.571 181.8 149.891 182.14 C148.271 182.236 146.647 182.271 145.024 182.273 C144.54 182.274 144.54 182.274 142.09 182.277 C141.583 182.275 141.583 182.275 139.016 182.265 C138.009 182.269 137.003 182.273 135.965 182.277 C134.995 182.276 134.024 182.275 133.024 182.273 C132.58 182.273 132.58 182.273 130.333 182.27 C127.891 182.14 127.891 182.14 125.695 181.57 C123.891 181.14 123.891 181.14 121.891 182.14 C118.293 182.408 114.686 182.372 111.079 182.39 C110.579 182.401 110.579 182.401 108.053 182.453 C107.086 182.458 106.118 182.463 105.122 182.469 C104.239 182.478 103.356 182.487 102.447 182.497 C99.891 182.14 99.891 182.14 97.467 180.645 C94.265 178.775 92.143 178.753 88.454 178.742 C87.229 178.738 86.004 178.734 84.743 178.73 C83.472 178.742 82.201 178.753 80.891 178.765 C79.62 178.754 78.349 178.742 77.04 178.73 C75.815 178.734 74.59 178.738 73.329 178.742 C72.214 178.745 71.099 178.749 69.95 178.752 C66.532 179.186 64.786 180.351 61.891 182.14 C59.367 182.497 59.367 182.497 56.731 182.469 C55.773 182.463 54.814 182.458 53.827 182.453 C52.837 182.432 51.848 182.412 50.829 182.39 C49.835 182.385 48.842 182.38 47.819 182.375 C40.482 182.296 40.482 182.296 37.702 181.565 C35.891 181.14 35.891 181.14 33.891 182.14 C32.283 182.236 30.67 182.271 29.059 182.273 C28.096 182.275 27.132 182.276 26.139 182.277 C25.129 182.273 24.119 182.269 23.079 182.265 C22.08 182.269 21.082 182.273 20.053 182.277 C19.086 182.276 18.118 182.275 17.122 182.273 C16.239 182.272 15.356 182.271 14.447 182.27 C11.891 182.14 11.891 182.14 9.209 181.586 C6.262 181.02 4.978 181.679 2.329 183.015 C-5.627 186.959 -13.258 187.356 -21.734 184.515 C-31.561 180.537 -37.776 174.536 -42.144 164.844 C-46.684 152.596 -42.479 140.103 -37.347 128.638 C-27.928 107.394 -27.672 87.571 -28.065 64.608 C-28.182 57.044 -28.195 49.479 -28.217 41.915 C-28.233 39.304 -28.274 36.695 -28.319 34.084 C-28.335 32.484 -28.351 30.884 -28.367 29.284 C-28.385 28.574 -28.404 27.864 -28.423 27.133 C-28.459 19.899 -26.032 13.502 -21.699 7.746 C-15.592 1.579 -8.344 0.019 0 0 Z M-16.421 15.765 C-19.346 19.882 -19.226 22.972 -19.171 27.881 C-19.162 29.542 -19.153 31.203 -19.144 32.863 C-19.137 33.748 -19.131 34.633 -19.125 35.545 C-19.098 40.268 -19.108 44.991 -19.113 49.715 C-19.119 55.709 -19.114 61.702 -19.058 67.697 C-18.687 109.405 -18.687 109.405 -27.993 127.858 C-33.113 138.329 -37.86 150.308 -34.253 161.887 C-31.57 168.05 -27.859 171.756 -22.109 175.14 C-21.494 175.513 -20.879 175.886 -20.246 176.269 C-14.697 178.531 -7.714 178.032 -2.14 176.125 C4.157 173.05 4.157 173.05 6.151 170.578 C8.665 168.501 10.522 168.757 13.754 168.746 C14.366 168.74 14.366 168.74 17.463 168.712 C18.822 168.714 20.18 168.717 21.539 168.721 C22.968 168.713 24.397 168.705 25.826 168.695 C29.711 168.673 33.595 168.67 37.479 168.672 C40.722 168.672 43.965 168.663 47.208 168.655 C54.861 168.636 62.513 168.633 70.166 168.639 C78.058 168.646 85.949 168.623 93.841 168.586 C100.617 168.555 107.393 168.544 114.17 168.548 C118.217 168.55 122.263 168.545 126.31 168.52 C130.118 168.498 133.925 168.5 137.733 168.52 C139.128 168.523 140.524 168.518 141.92 168.504 C153.776 168.391 153.776 168.391 157.608 171.566 C158.362 172.415 159.115 173.265 159.891 174.14 C165.651 178.214 172.116 177.968 178.891 177.14 C187.292 174.658 191.647 169.707 195.929 162.361 C200.868 150.967 194 137.575 189.954 126.953 C189.286 125.151 188.62 123.348 187.956 121.545 C183.296 108.951 183.296 108.951 181.891 106.14 C181.789 103.457 181.748 100.798 181.749 98.114 C181.746 97.285 181.742 96.455 181.739 95.601 C181.731 93.796 181.726 91.991 181.723 90.186 C181.715 87.327 181.7 84.469 181.681 81.611 C181.629 73.483 181.581 65.355 181.565 57.226 C181.555 52.257 181.526 47.288 181.484 42.319 C181.472 40.427 181.466 38.534 181.469 36.641 C181.471 33.988 181.449 31.337 181.421 28.684 C181.428 27.905 181.434 27.125 181.441 26.322 C181.353 21.157 180.252 18.265 176.891 14.14 C171.884 9.622 168.501 9.015 161.851 8.993 C161.13 8.99 160.409 8.986 159.666 8.982 C157.243 8.971 154.821 8.967 152.398 8.963 C150.663 8.957 148.929 8.951 147.194 8.944 C142.477 8.926 137.76 8.916 133.043 8.907 C130.097 8.902 127.15 8.896 124.204 8.89 C114.987 8.871 105.77 8.857 96.554 8.848 C85.911 8.838 75.268 8.812 64.625 8.772 C56.401 8.742 48.177 8.727 39.953 8.723 C35.039 8.721 30.127 8.712 25.214 8.687 C20.592 8.664 15.97 8.659 11.348 8.67 C9.652 8.67 7.957 8.664 6.261 8.65 C3.945 8.632 1.629 8.64 -0.688 8.653 C-1.984 8.65 -3.28 8.648 -4.615 8.645 C-9.904 9.395 -12.949 11.824 -16.421 15.765 Z " fill="#FCFCFC" transform="translate(47.10882568359375,34.85955810546875)"/>
<path d="M0 0 C44.88 0 89.76 0 136 0 C133.03 17.16 130.06 34.32 127 52 C126.01 52.66 125.02 53.32 124 54 C123.67 49.38 123.34 44.76 123 40 C86.04 40 49.08 40 11 40 C11 44.29 11 48.58 11 53 C10.34 53 9.68 53 9 53 C7.716 45.774 6.434 38.547 5.155 31.32 C4.719 28.86 4.282 26.4 3.845 23.94 C3.218 20.411 2.593 16.881 1.969 13.352 C1.772 12.246 1.575 11.141 1.372 10.002 C1.192 8.981 1.012 7.961 0.826 6.909 C0.746 6.458 0.746 6.458 0.342 4.177 C0 2 0 2 0 0 Z " fill="#333333" transform="translate(60,45)"/>
<path d="M0 0 C0.925 -0.003 1.851 -0.006 2.805 -0.009 C3.316 -0.008 3.316 -0.008 5.906 -0.002 C6.977 -0.004 8.049 -0.006 9.153 -0.008 C12.714 -0.012 16.274 -0.009 19.835 -0.006 C22.298 -0.007 24.76 -0.007 27.223 -0.009 C32.391 -0.01 37.56 -0.008 42.728 -0.003 C49.37 0.002 56.012 -0.001 62.653 -0.007 C67.74 -0.011 72.827 -0.009 77.914 -0.007 C80.364 -0.006 82.814 -0.007 85.264 -0.009 C88.681 -0.012 92.098 -0.008 95.515 -0.002 C96.539 -0.004 97.562 -0.006 98.616 -0.009 C99.079 -0.007 99.079 -0.007 101.421 0 C102.23 0 103.039 0.001 103.872 0.001 C105.71 0.127 105.71 0.127 106.71 1.127 C106.916 3.371 107.025 5.624 107.085 7.877 C107.134 9.109 107.183 10.342 107.234 11.611 C106.55 16.207 105.408 17.344 101.71 20.127 C98.426 20.858 95.213 20.811 91.859 20.774 C90.871 20.783 89.884 20.791 88.866 20.801 C85.606 20.822 82.346 20.808 79.085 20.791 C76.818 20.794 74.55 20.799 72.282 20.806 C67.531 20.813 62.78 20.802 58.029 20.779 C51.939 20.75 45.85 20.767 39.759 20.797 C35.077 20.815 30.395 20.809 25.713 20.796 C23.467 20.793 21.222 20.797 18.976 20.808 C15.838 20.821 12.701 20.802 9.562 20.774 C8.634 20.784 7.706 20.794 6.75 20.805 C2.269 20.731 0.305 20.575 -3.373 17.806 C-5.876 14.307 -5.834 12.138 -5.665 7.877 C-5.631 6.634 -5.598 5.392 -5.563 4.111 C-5.149 -0.408 -4.161 0.002 0 0 Z " fill="#BEBEBE" transform="translate(77.28955078125,83.87301635742188)"/>
<path d="M0 0 C0.99 0 1.98 0 3 0 C4.879 4.879 6.729 9.767 8.554 14.667 C9.177 16.327 9.807 17.984 10.446 19.638 C18.91 41.61 18.91 41.61 14.849 51.923 C11.247 58.963 5.46 63.513 -2 66 C-9.675 66.744 -15.689 66.447 -22.391 62.484 C-24.296 60.727 -24.633 59.529 -25 57 C-23.688 56.562 -22.375 56.125 -21.062 55.688 C-20.244 55.409 -19.425 55.131 -18.582 54.844 C-16.926 54.302 -15.256 53.799 -13.574 53.344 C-7.879 51.736 -5.302 49.953 -2 45 C-1.097 42.291 -0.853 40.599 -0.795 37.804 C-0.775 36.963 -0.755 36.123 -0.734 35.257 C-0.726 34.805 -0.726 34.805 -0.684 32.52 C-0.663 31.592 -0.642 30.664 -0.621 29.707 C-0.555 26.743 -0.496 23.778 -0.438 20.812 C-0.394 18.803 -0.351 16.793 -0.307 14.783 C-0.2 9.856 -0.098 4.928 0 0 Z " fill="#373737" transform="translate(228,146)"/>
<path d="M0 0 C27.72 0 55.44 0 84 0 C84 2.64 84 5.28 84 8 C56.28 8 28.56 8 0 8 C0 5.36 0 2.72 0 0 Z " fill="#BEBEBE" transform="translate(86,95)"/>
<path d="M0 0 C0.33 0 0.66 0 1 0 C1 2.64 1 5.28 1 8 C37.3 8 73.6 8 111 8 C111 5.36 111 2.72 111 0 C111.33 0 111.66 0 112 0 C112.136 2.227 112.232 4.457 112.312 6.688 C112.371 7.929 112.429 9.17 112.488 10.449 C112 14 112 14 110.085 16.681 C105.763 19.93 102.424 19.705 97.148 19.647 C96.161 19.656 95.173 19.664 94.156 19.674 C90.895 19.696 87.636 19.681 84.375 19.664 C82.107 19.667 79.84 19.672 77.572 19.679 C72.82 19.686 68.07 19.675 63.318 19.652 C57.228 19.623 51.139 19.64 45.049 19.67 C40.367 19.688 35.685 19.682 31.002 19.669 C28.757 19.666 26.511 19.67 24.266 19.681 C21.127 19.694 17.99 19.675 14.852 19.647 C13.924 19.657 12.996 19.667 12.04 19.678 C7.56 19.604 5.594 19.446 1.915 16.681 C-0.6 13.159 -0.513 10.969 -0.312 6.688 C-0.267 5.433 -0.222 4.179 -0.176 2.887 C-0.118 1.934 -0.06 0.981 0 0 Z M14 10 C14 12.64 14 15.28 14 18 C41.72 18 69.44 18 98 18 C98 15.36 98 12.72 98 10 C70.28 10 42.56 10 14 10 Z " fill="#AAABAA" transform="translate(72,85)"/>
<path d="M0 0 C44.88 0 89.76 0 136 0 C136 1.32 136 2.64 136 4 C129.4 4 122.8 4 116 4 C116 3.01 116 2.02 116 1 C113.36 1 110.72 1 108 1 C108 1.99 108 2.98 108 4 C101.4 4 94.8 4 88 4 C88 3.01 88 2.02 88 1 C74.8 1 61.6 1 48 1 C48 1.99 48 2.98 48 4 C41.4 4 34.8 4 28 4 C28 3.01 28 2.02 28 1 C25.36 1 22.72 1 20 1 C20 1.99 20 2.98 20 4 C13.4 4 6.8 4 0 4 C0 2.68 0 1.36 0 0 Z " fill="#C1C1C1" transform="translate(60,204)"/>
<path d="M0 0 C36.3 0 72.6 0 110 0 C110 2.97 110 5.94 110 9 C105.71 9 101.42 9 97 9 C97 6.36 97 3.72 97 1 C69.28 1 41.56 1 13 1 C13 3.64 13 6.28 13 9 C8.71 9 4.42 9 0 9 C0 6.03 0 3.06 0 0 Z " fill="#AFAFAF" transform="translate(73,84)"/>
<path d="M0 0 C2.929 1.813 5.436 3.873 7 7 C7 9.31 7 11.62 7 14 C0.4 14 -6.2 14 -13 14 C-13 6.11 -13 6.11 -10.625 3.625 C-7 -0 -5.105 -0.589 0 0 Z " fill="#4B4C4B" transform="translate(69,160)"/>
<path d="M0 0 C1.014 0.007 2.028 0.014 3.073 0.021 C6.303 0.049 9.532 0.112 12.762 0.176 C14.955 0.201 17.148 0.224 19.342 0.244 C24.712 0.299 30.08 0.383 35.449 0.488 C35.119 1.478 34.789 2.468 34.449 3.488 C32.139 3.323 32.139 3.323 20.449 2.488 C20.449 4.138 20.449 5.788 20.449 7.488 C19.449 8.488 19.449 8.488 16.07 8.586 C14.676 8.579 13.281 8.567 11.887 8.551 C11.176 8.546 10.465 8.542 9.732 8.537 C7.971 8.525 6.21 8.507 4.449 8.488 C4.449 6.508 4.449 4.528 4.449 2.488 C2.219 2.549 -0.01 2.638 -2.238 2.738 C-3.48 2.785 -4.721 2.831 -6 2.879 C-9.967 3.56 -11.678 4.742 -14.551 7.488 C-14.881 6.828 -15.211 6.168 -15.551 5.488 C-11.136 -0.435 -7.067 -0.186 0 0 Z " fill="#343434" transform="translate(115.55078125,155.51171875)"/>
<path d="M0 0 C0.33 0 0.66 0 1 0 C1.124 4.181 1.215 8.361 1.275 12.543 C1.3 13.964 1.334 15.385 1.377 16.805 C1.438 18.854 1.466 20.9 1.488 22.949 C1.514 24.18 1.541 25.411 1.568 26.678 C1 30 1 30 -0.88 32.901 C-5.366 35.919 -9.114 35.701 -14.41 35.629 C-15.415 35.631 -16.419 35.634 -17.454 35.636 C-19.573 35.635 -21.692 35.622 -23.811 35.597 C-27.055 35.563 -30.297 35.576 -33.541 35.596 C-35.602 35.589 -37.662 35.579 -39.723 35.566 C-40.693 35.571 -41.662 35.576 -42.662 35.581 C-49.398 35.463 -49.398 35.463 -52.642 32.965 C-53.09 32.316 -53.538 31.668 -54 31 C-53.34 30.34 -52.68 29.68 -52 29 C-51.594 29.487 -51.189 29.974 -50.771 30.476 C-48.57 32.37 -47.537 32.379 -44.668 32.388 C-44.232 32.393 -44.232 32.393 -42.029 32.417 C-41.091 32.411 -40.153 32.405 -39.188 32.398 C-38.705 32.4 -38.705 32.4 -36.262 32.407 C-34.222 32.409 -32.181 32.404 -30.14 32.391 C-27.012 32.375 -23.885 32.391 -20.758 32.41 C-18.776 32.408 -16.794 32.404 -14.812 32.398 C-13.875 32.405 -12.937 32.411 -11.971 32.417 C-11.1 32.407 -10.229 32.398 -9.332 32.388 C-8.566 32.386 -7.8 32.383 -7.011 32.381 C-4.448 31.895 -3.561 31.06 -2 29 C-1.583 26.105 -1.583 26.105 -1.523 22.617 C-1.493 21.368 -1.462 20.119 -1.43 18.832 C-1.412 17.526 -1.394 16.22 -1.375 14.875 C-1.324 12.289 -1.27 9.703 -1.211 7.117 C-1.202 6.543 -1.202 6.543 -1.158 3.636 C-1 1 -1 1 0 0 Z " fill="#343434" transform="translate(155,161)"/>
<path d="M0 0 C1.32 0 2.64 0 4 0 C4 7.92 4 15.84 4 24 C2.68 24 1.36 24 0 24 C0 16.08 0 8.16 0 0 Z " fill="#262626" transform="translate(126,112)"/>
<path d="M0 0 C1.32 0 2.64 0 4 0 C4 7.59 4 15.18 4 23 C2.68 23.33 1.36 23.66 0 24 C0 16.08 0 8.16 0 0 Z " fill="#262626" transform="translate(134,112)"/>
<path d="M0 0 C1.32 0 2.64 0 4 0 C4 7.92 4 15.84 4 24 C2.68 23.67 1.36 23.34 0 23 C0 15.41 0 7.82 0 0 Z " fill="#262626" transform="translate(118,112)"/>
<path d="M0 0 C1.32 0 2.64 0 4 0 C4 7.26 4 14.52 4 22 C2.68 22.33 1.36 22.66 0 23 C0 15.41 0 7.82 0 0 Z " fill="#262626" transform="translate(142,112)"/>
<path d="M0 0 C1.32 0 2.64 0 4 0 C4 7.59 4 15.18 4 23 C2.68 22.67 1.36 22.34 0 22 C0 14.74 0 7.48 0 0 Z " fill="#262626" transform="translate(110,112)"/>
<path d="M0 0 C3.63 0 7.26 0 11 0 C11 2.64 11 5.28 11 8 C7.37 8 3.74 8 0 8 C0 5.36 0 2.72 0 0 Z " fill="#BEBEBE" transform="translate(172,85)"/>
<path d="M0 0 C3.63 0 7.26 0 11 0 C11 2.64 11 5.28 11 8 C7.37 8 3.74 8 0 8 C0 5.36 0 2.72 0 0 Z " fill="#BEBEBE" transform="translate(73,85)"/>
<path d="M0 0 C3.63 0 7.26 0 11 0 C11.125 2.875 11.125 2.875 11 6 C9 8 9 8 6.836 8.195 C6.43 8.184 6.43 8.184 4.375 8.125 C3.558 8.107 2.74 8.089 1.898 8.07 C1.272 8.047 0.645 8.024 0 8 C0 5.36 0 2.72 0 0 Z " fill="#BCBCBC" transform="translate(172,95)"/>
<path d="M0 0 C3.63 0 7.26 0 11 0 C11 2.64 11 5.28 11 8 C9.542 8.054 8.084 8.093 6.625 8.125 C5.813 8.148 5.001 8.171 4.164 8.195 C2 8 2 8 0 6 C-0.125 2.875 -0.125 2.875 0 0 Z " fill="#BCBCBC" transform="translate(73,95)"/>
<path d="M0 0 C1.32 0 2.64 0 4 0 C4 6.6 4 13.2 4 20 C2.68 20.33 1.36 20.66 0 21 C0 14.07 0 7.14 0 0 Z " fill="#262626" transform="translate(150,112)"/>
<path d="M0 0 C1.32 0 2.64 0 4 0 C4 6.93 4 13.86 4 21 C2.68 20.67 1.36 20.34 0 20 C0 13.4 0 6.8 0 0 Z " fill="#262626" transform="translate(102,112)"/>
<path d="M0 0 C6.6 0 13.2 0 20 0 C20 1.32 20 2.64 20 4 C13.4 4 6.8 4 0 4 C0 2.68 0 1.36 0 0 Z " fill="#343434" transform="translate(56,174)"/>
<path d="M0 0 C1.32 0 2.64 0 4 0 C4 5.61 4 11.22 4 17 C3.34 17.33 3.34 17.33 0 19 C0 12.73 0 6.46 0 0 Z " fill="#262626" transform="translate(158,112)"/>
<path d="M0 0 C1.32 0 2.64 0 4 0 C4 6.27 4 12.54 4 19 C2.68 18.34 1.36 17.68 0 17 C0 11.39 0 5.78 0 0 Z " fill="#262626" transform="translate(94,112)"/>
<path d="M0 0 C1.32 0 2.64 0 4 0 C4 3.96 4 7.92 4 12 C3.34 12.33 3.34 12.33 0 14 C0 9.38 0 4.76 0 0 Z " fill="#262626" transform="translate(166,112)"/>
<path d="M0 0 C1.32 0 2.64 0 4 0 C4 4.62 4 9.24 4 14 C2.68 13.34 1.36 12.68 0 12 C0 8.04 0 4.08 0 0 Z " fill="#262626" transform="translate(86,112)"/>
<path d="M0 0 C3.96 0 7.92 0 12 0 C12 1.32 12 2.64 12 4 C8.04 4 4.08 4 0 4 C0 2.68 0 1.36 0 0 Z " fill="#3E3E3E" transform="translate(122,158)"/>
<path d="M0 0 C1.32 0 2.64 0 4 0 C3.502 3.688 2.899 5.605 0 8 C0 5.36 0 2.72 0 0 Z " fill="#272727" transform="translate(174,112)"/>
<path d="M0 0 C1.32 0 2.64 0 4 0 C4 2.64 4 5.28 4 8 C2 6.25 2 6.25 0 4 C0 2.68 0 1.36 0 0 Z " fill="#272727" transform="translate(78,112)"/>
</svg>
