<?xml version="1.0" encoding="UTF-8"?>
<!-- Generator: visioncortex VTracer 0.6.12 -->
<svg version="1.1" xmlns="http://www.w3.org/2000/svg" width="256" height="256">
<path d="M0 0 C0.872 -0.003 1.745 -0.006 2.644 -0.009 C5.572 -0.018 8.501 -0.019 11.429 -0.021 C13.527 -0.025 15.625 -0.03 17.722 -0.036 C23.425 -0.049 29.127 -0.055 34.83 -0.06 C38.392 -0.063 41.954 -0.067 45.516 -0.071 C56.658 -0.085 67.801 -0.095 78.944 -0.098 C91.81 -0.103 104.677 -0.12 117.543 -0.149 C127.486 -0.171 137.43 -0.181 147.373 -0.182 C153.313 -0.184 159.252 -0.189 165.192 -0.207 C170.779 -0.224 176.366 -0.226 181.953 -0.217 C184.003 -0.216 186.053 -0.221 188.103 -0.231 C190.903 -0.243 193.703 -0.237 196.503 -0.227 C197.312 -0.235 198.122 -0.243 198.956 -0.251 C204.897 -0.2 209.755 0.834 214.403 4.824 C214.636 5.113 214.636 5.113 215.817 6.578 C216.058 6.866 216.058 6.866 217.278 8.324 C220.124 12.766 219.587 17.906 219.582 23.002 C219.585 23.907 219.588 24.812 219.591 25.745 C219.6 28.784 219.601 31.823 219.603 34.862 C219.608 37.039 219.613 39.215 219.618 41.392 C219.631 47.309 219.638 53.226 219.642 59.144 C219.645 62.84 219.649 66.536 219.654 70.232 C219.667 81.793 219.677 93.354 219.681 104.916 C219.681 105.574 219.681 105.574 219.682 108.906 C219.682 109.236 219.682 109.236 219.683 110.906 C219.687 122.26 219.707 133.614 219.732 144.969 C219.753 155.285 219.763 165.602 219.765 175.919 C219.766 182.083 219.772 188.246 219.79 194.409 C219.806 200.206 219.808 206.003 219.799 211.801 C219.799 213.928 219.803 216.055 219.813 218.182 C219.826 221.088 219.82 223.992 219.809 226.898 C219.813 227.318 219.813 227.318 219.834 229.445 C219.783 235.477 218.815 240.377 214.758 245.101 C214.179 245.568 213.601 246.035 213.004 246.515 C212.428 246.998 211.852 247.48 211.258 247.976 C206.896 250.772 201.892 250.286 196.884 250.281 C196.011 250.284 195.139 250.287 194.24 250.29 C191.311 250.299 188.383 250.3 185.454 250.302 C183.357 250.306 181.259 250.311 179.162 250.317 C173.459 250.33 167.756 250.336 162.054 250.341 C158.492 250.344 154.93 250.348 151.368 250.352 C140.225 250.366 129.083 250.375 117.94 250.379 C105.073 250.384 92.207 250.401 79.34 250.43 C69.397 250.452 59.454 250.462 49.511 250.463 C43.571 250.464 37.631 250.47 31.692 250.488 C26.104 250.505 20.517 250.507 14.93 250.498 C12.88 250.497 10.831 250.502 8.781 250.512 C5.981 250.524 3.181 250.518 0.381 250.508 C-0.429 250.516 -1.238 250.524 -2.072 250.532 C-8.013 250.481 -12.871 249.447 -17.519 245.457 C-17.986 244.878 -18.452 244.299 -18.933 243.703 C-19.415 243.127 -19.897 242.551 -20.394 241.957 C-23.241 237.515 -22.704 232.375 -22.699 227.279 C-22.702 226.374 -22.705 225.468 -22.708 224.536 C-22.716 221.497 -22.718 218.458 -22.719 215.419 C-22.724 213.242 -22.729 211.066 -22.734 208.889 C-22.747 202.972 -22.754 197.055 -22.758 191.137 C-22.761 187.441 -22.765 183.745 -22.77 180.049 C-22.784 168.488 -22.793 156.926 -22.797 145.365 C-22.798 144.048 -22.798 142.731 -22.798 141.375 C-22.799 140.715 -22.799 140.055 -22.799 139.375 C-22.803 128.021 -22.823 116.667 -22.848 105.312 C-22.87 94.995 -22.88 84.679 -22.881 74.362 C-22.882 68.198 -22.888 62.035 -22.906 55.872 C-22.922 50.075 -22.925 44.277 -22.916 38.48 C-22.915 36.353 -22.919 34.226 -22.929 32.098 C-22.942 29.193 -22.936 26.289 -22.926 23.383 C-22.934 22.543 -22.942 21.702 -22.95 20.836 C-22.899 14.803 -21.931 9.904 -17.875 5.18 C-17.296 4.713 -16.717 4.246 -16.121 3.765 C-15.833 3.524 -15.833 3.524 -14.375 2.305 C-10.012 -0.491 -5.009 -0.005 0 0 Z " fill="#E0E0E0" transform="translate(29.558181762695313,2.85955810546875)"/>
<path d="M0 0 C0.878 -0.007 1.756 -0.014 2.66 -0.021 C5.608 -0.039 8.554 -0.029 11.501 -0.019 C13.612 -0.026 15.723 -0.035 17.834 -0.045 C23.571 -0.067 29.308 -0.064 35.046 -0.056 C39.833 -0.05 44.619 -0.058 49.405 -0.065 C60.696 -0.082 71.985 -0.078 83.275 -0.062 C94.931 -0.045 106.585 -0.061 118.24 -0.093 C128.24 -0.12 138.24 -0.127 148.241 -0.118 C154.216 -0.114 160.191 -0.116 166.167 -0.136 C171.785 -0.155 177.403 -0.149 183.022 -0.124 C185.085 -0.119 187.149 -0.123 189.212 -0.135 C192.027 -0.151 194.839 -0.136 197.654 -0.114 C198.063 -0.119 198.063 -0.119 200.136 -0.149 C204.305 -0.081 205.956 0.189 209.399 2.772 C211.43 5.569 212.012 6.651 211.992 10.026 C211.999 10.9 212.005 11.773 212.012 12.673 C211.995 13.618 211.977 14.564 211.958 15.537 C211.958 16.04 211.958 16.04 211.96 18.584 C211.957 21.901 211.918 25.217 211.879 28.534 C211.869 30.836 211.862 33.138 211.857 35.441 C211.838 41.496 211.789 47.55 211.734 53.605 C211.683 59.785 211.66 65.965 211.635 72.146 C211.581 84.269 211.496 96.392 211.39 108.515 C206.395 109.518 201.64 109.656 196.572 109.642 C195.695 109.643 194.819 109.645 193.916 109.646 C190.987 109.65 188.058 109.647 185.128 109.644 C183.025 109.645 180.923 109.647 178.82 109.649 C173.114 109.654 167.407 109.652 161.701 109.649 C155.732 109.646 149.762 109.649 143.793 109.65 C133.771 109.652 123.749 109.65 113.727 109.645 C102.133 109.64 90.539 109.641 78.946 109.647 C68.996 109.651 59.046 109.652 49.096 109.649 C43.151 109.648 37.206 109.648 31.262 109.651 C25.676 109.654 20.089 109.652 14.503 109.646 C12.45 109.645 10.398 109.645 8.345 109.647 C5.548 109.65 2.752 109.647 -0.045 109.642 C-0.862 109.644 -1.679 109.646 -2.52 109.648 C-6.055 109.636 -9.208 109.465 -12.61 108.515 C-12.702 95.024 -12.773 81.533 -12.817 68.042 C-12.838 61.778 -12.866 55.514 -12.911 49.25 C-12.955 43.207 -12.979 37.164 -12.989 31.121 C-12.997 28.813 -13.011 26.506 -13.033 24.198 C-13.061 20.97 -13.066 17.743 -13.064 14.516 C-13.071 14.037 -13.071 14.037 -13.107 11.612 C-13.102 10.732 -13.096 9.851 -13.091 8.944 C-13.094 8.181 -13.098 7.417 -13.102 6.631 C-11.513 -0.202 -5.937 -0.06 0 0 Z " fill="#E2E3E2" transform="translate(28.609603881835938,11.485336303710938)"/>
<path d="M0 0 C0.872 -0.003 1.745 -0.006 2.644 -0.009 C5.572 -0.018 8.501 -0.019 11.429 -0.021 C13.527 -0.025 15.625 -0.03 17.722 -0.036 C23.425 -0.049 29.127 -0.055 34.83 -0.06 C38.392 -0.063 41.954 -0.067 45.516 -0.071 C56.658 -0.085 67.801 -0.095 78.944 -0.098 C91.81 -0.103 104.677 -0.12 117.543 -0.149 C127.486 -0.171 137.43 -0.181 147.373 -0.182 C153.313 -0.184 159.252 -0.189 165.192 -0.207 C170.779 -0.224 176.366 -0.226 181.953 -0.217 C184.003 -0.216 186.053 -0.221 188.103 -0.231 C190.903 -0.243 193.703 -0.237 196.503 -0.227 C197.312 -0.235 198.122 -0.243 198.956 -0.251 C204.897 -0.2 209.755 0.834 214.403 4.824 C214.636 5.113 214.636 5.113 215.817 6.578 C216.058 6.866 216.058 6.866 217.278 8.324 C220.124 12.766 219.587 17.906 219.582 23.002 C219.585 23.907 219.588 24.812 219.591 25.745 C219.6 28.784 219.601 31.823 219.603 34.862 C219.608 37.039 219.613 39.215 219.618 41.392 C219.631 47.309 219.638 53.226 219.642 59.144 C219.645 62.84 219.649 66.536 219.654 70.232 C219.667 81.793 219.677 93.354 219.681 104.916 C219.681 105.574 219.681 105.574 219.682 108.906 C219.682 109.236 219.682 109.236 219.683 110.906 C219.687 122.26 219.707 133.614 219.732 144.969 C219.753 155.285 219.763 165.602 219.765 175.919 C219.766 182.083 219.772 188.246 219.79 194.409 C219.806 200.206 219.808 206.003 219.799 211.801 C219.799 213.928 219.803 216.055 219.813 218.182 C219.826 221.088 219.82 223.992 219.809 226.898 C219.813 227.318 219.813 227.318 219.834 229.445 C219.783 235.477 218.815 240.377 214.758 245.101 C214.179 245.568 213.601 246.035 213.004 246.515 C212.428 246.998 211.852 247.48 211.258 247.976 C206.896 250.772 201.892 250.286 196.884 250.281 C196.011 250.284 195.139 250.287 194.24 250.29 C191.311 250.299 188.383 250.3 185.454 250.302 C183.357 250.306 181.259 250.311 179.162 250.317 C173.459 250.33 167.756 250.336 162.054 250.341 C158.492 250.344 154.93 250.348 151.368 250.352 C140.225 250.366 129.083 250.375 117.94 250.379 C105.073 250.384 92.207 250.401 79.34 250.43 C69.397 250.452 59.454 250.462 49.511 250.463 C43.571 250.464 37.631 250.47 31.692 250.488 C26.104 250.505 20.517 250.507 14.93 250.498 C12.88 250.497 10.831 250.502 8.781 250.512 C5.981 250.524 3.181 250.518 0.381 250.508 C-0.429 250.516 -1.238 250.524 -2.072 250.532 C-8.013 250.481 -12.871 249.447 -17.519 245.457 C-17.986 244.878 -18.452 244.299 -18.933 243.703 C-19.415 243.127 -19.897 242.551 -20.394 241.957 C-23.241 237.515 -22.704 232.375 -22.699 227.279 C-22.702 226.374 -22.705 225.468 -22.708 224.536 C-22.716 221.497 -22.718 218.458 -22.719 215.419 C-22.724 213.242 -22.729 211.066 -22.734 208.889 C-22.747 202.972 -22.754 197.055 -22.758 191.137 C-22.761 187.441 -22.765 183.745 -22.77 180.049 C-22.784 168.488 -22.793 156.926 -22.797 145.365 C-22.798 144.048 -22.798 142.731 -22.798 141.375 C-22.799 140.715 -22.799 140.055 -22.799 139.375 C-22.803 128.021 -22.823 116.667 -22.848 105.312 C-22.87 94.995 -22.88 84.679 -22.881 74.362 C-22.882 68.198 -22.888 62.035 -22.906 55.872 C-22.922 50.075 -22.925 44.277 -22.916 38.48 C-22.915 36.353 -22.919 34.226 -22.929 32.098 C-22.942 29.193 -22.936 26.289 -22.926 23.383 C-22.934 22.543 -22.942 21.702 -22.95 20.836 C-22.899 14.803 -21.931 9.904 -17.875 5.18 C-17.296 4.713 -16.717 4.246 -16.121 3.765 C-15.833 3.524 -15.833 3.524 -14.375 2.305 C-10.012 -0.491 -5.009 -0.005 0 0 Z M-12.066 10.896 C-13.729 13.398 -14.054 14.596 -14.039 17.57 C-14.045 18.45 -14.05 19.331 -14.056 20.238 C-14.041 21.196 -14.027 22.154 -14.012 23.141 C-14.013 24.156 -14.013 25.171 -14.014 26.217 C-14.011 29.572 -13.98 32.926 -13.949 36.281 C-13.941 38.607 -13.936 40.933 -13.932 43.259 C-13.916 49.381 -13.877 55.503 -13.833 61.626 C-13.792 67.873 -13.774 74.12 -13.753 80.367 C-13.711 92.625 -13.642 104.883 -13.558 117.14 C-12.568 117.47 -11.578 117.8 -10.558 118.14 C-11.045 118.539 -11.532 118.938 -12.034 119.35 C-13.985 121.642 -13.935 122.814 -13.939 125.795 C-13.948 126.752 -13.956 127.708 -13.965 128.693 C-13.959 129.74 -13.953 130.787 -13.946 131.867 C-13.952 132.971 -13.957 134.075 -13.962 135.213 C-13.976 138.874 -13.967 142.534 -13.957 146.195 C-13.959 148.735 -13.962 151.274 -13.965 153.814 C-13.97 159.142 -13.964 164.47 -13.949 169.798 C-13.933 175.953 -13.938 182.107 -13.955 188.262 C-13.97 194.186 -13.968 200.11 -13.96 206.034 C-13.958 208.553 -13.96 211.072 -13.967 213.591 C-13.975 217.113 -13.963 220.634 -13.946 224.156 C-13.952 225.199 -13.959 226.242 -13.965 227.317 C-13.885 236.388 -13.885 236.388 -10.558 240.14 C-6.742 241.412 -3.159 241.285 0.817 241.281 C1.682 241.284 2.547 241.287 3.438 241.29 C6.346 241.299 9.255 241.3 12.164 241.302 C14.245 241.306 16.326 241.311 18.407 241.317 C24.068 241.33 29.729 241.336 35.39 241.341 C38.925 241.344 42.46 241.348 45.994 241.352 C57.047 241.366 68.1 241.375 79.153 241.379 C91.924 241.384 104.695 241.401 117.466 241.43 C127.33 241.452 137.194 241.462 147.058 241.463 C152.953 241.464 158.848 241.47 164.743 241.488 C170.287 241.505 175.83 241.507 181.374 241.498 C183.41 241.497 185.446 241.502 187.483 241.512 C190.259 241.524 193.036 241.518 195.812 241.508 C196.621 241.516 197.429 241.524 198.262 241.532 C202.807 241.492 205.883 241.069 209.442 238.14 C210.4 235.266 210.572 233.457 210.582 230.472 C210.588 229.513 210.594 228.554 210.6 227.566 C210.601 226.515 210.602 225.465 210.603 224.383 C210.608 223.275 210.613 222.168 210.618 221.026 C210.633 217.356 210.639 213.686 210.645 210.015 C210.651 207.471 210.656 204.927 210.662 202.382 C210.671 197.728 210.678 193.074 210.681 188.42 C210.685 181.567 210.703 174.714 210.732 167.861 C210.756 161.926 210.764 155.992 210.765 150.057 C210.768 147.531 210.776 145.004 210.79 142.478 C210.807 138.951 210.805 135.425 210.798 131.898 C210.803 131.373 210.803 131.373 210.826 128.715 C210.821 127.756 210.815 126.797 210.809 125.809 C210.811 124.975 210.812 124.141 210.814 123.282 C210.361 120.673 209.458 119.79 207.442 118.14 C208.432 117.81 209.422 117.48 210.442 117.14 C210.558 103.797 210.646 90.454 210.701 77.111 C210.727 70.915 210.762 64.72 210.819 58.524 C210.873 52.546 210.903 46.568 210.916 40.59 C210.925 38.308 210.944 36.026 210.97 33.744 C211.007 30.55 211.012 27.357 211.009 24.163 C211.027 23.218 211.045 22.273 211.064 21.299 C211.057 20.426 211.05 19.552 211.043 18.652 C211.048 17.897 211.052 17.142 211.057 16.364 C210.066 12.784 208.389 11.352 205.442 9.14 C202.523 8.432 199.698 8.469 196.705 8.512 C195.826 8.505 194.946 8.498 194.04 8.491 C191.094 8.473 188.148 8.491 185.201 8.509 C183.089 8.504 180.976 8.497 178.864 8.488 C173.126 8.469 167.389 8.482 161.652 8.502 C155.652 8.518 149.652 8.509 143.652 8.504 C133.577 8.5 123.502 8.516 113.426 8.544 C101.771 8.576 90.115 8.576 78.46 8.558 C67.255 8.542 56.05 8.549 44.846 8.566 C40.073 8.573 35.301 8.572 30.529 8.565 C24.912 8.557 19.296 8.569 13.679 8.597 C11.615 8.603 9.551 8.604 7.487 8.596 C4.675 8.588 1.864 8.604 -0.949 8.626 C-1.359 8.622 -1.359 8.622 -3.438 8.601 C-6.963 8.652 -9.142 8.849 -12.066 10.896 Z " fill="#FEFEFE" transform="translate(29.558181762695313,2.85955810546875)"/>
<path d="M0 0 C34.32 0 68.64 0 104 0 C104 26.4 104 52.8 104 80 C69.68 80 35.36 80 0 80 C0 53.6 0 27.2 0 0 Z " fill="#191919" transform="translate(76,148)"/>
<path d="M0 0 C34.32 0 68.64 0 104 0 C104 26.4 104 52.8 104 80 C69.68 80 35.36 80 0 80 C0 53.6 0 27.2 0 0 Z " fill="#191919" transform="translate(76,28)"/>
<path d="M0 0 C0.865 -0.003 1.729 -0.006 2.62 -0.009 C5.529 -0.018 8.438 -0.019 11.347 -0.021 C13.428 -0.025 15.509 -0.03 17.59 -0.036 C23.251 -0.049 28.912 -0.055 34.573 -0.06 C38.108 -0.063 41.642 -0.067 45.177 -0.071 C56.23 -0.085 67.283 -0.095 78.336 -0.098 C91.107 -0.103 103.878 -0.12 116.649 -0.149 C126.513 -0.171 136.377 -0.181 146.241 -0.182 C152.136 -0.184 158.031 -0.189 163.926 -0.207 C169.47 -0.224 175.013 -0.226 180.557 -0.217 C182.593 -0.216 184.629 -0.221 186.665 -0.231 C189.442 -0.243 192.218 -0.238 194.995 -0.227 C195.803 -0.235 196.612 -0.243 197.444 -0.251 C202.467 -0.207 206.002 0.518 209.625 4.14 C209.679 6.101 209.679 6.101 209.5 8.515 C209.478 8.911 209.478 8.911 209.367 10.914 C208.625 13.14 208.625 13.14 206.619 14.756 C202.711 16.563 199.184 16.556 194.964 16.521 C194.528 16.524 194.528 16.524 192.324 16.536 C189.405 16.548 186.487 16.538 183.568 16.529 C181.475 16.533 179.382 16.538 177.289 16.545 C171.606 16.558 165.922 16.553 160.238 16.543 C154.295 16.536 148.351 16.543 142.407 16.548 C132.426 16.553 122.445 16.546 112.464 16.532 C100.917 16.515 89.371 16.521 77.824 16.537 C67.917 16.551 58.009 16.553 48.102 16.545 C42.181 16.54 36.261 16.539 30.341 16.549 C24.777 16.558 19.213 16.552 13.649 16.535 C11.604 16.531 9.56 16.532 7.515 16.538 C4.729 16.547 1.944 16.536 -0.842 16.521 C-1.655 16.528 -2.469 16.535 -3.308 16.542 C-6.6 16.507 -8.959 16.373 -11.864 14.751 C-13.778 12.711 -14.05 11.406 -14.313 8.64 C-14.404 7.867 -14.496 7.094 -14.59 6.297 C-14.375 4.14 -14.375 4.14 -13.067 2.422 C-9.14 -0.553 -4.682 -0.005 0 0 Z " fill="#CBCCCB" transform="translate(30.375457763671875,119.85955810546875)"/>
<path d="M0 0 C0.878 -0.007 1.756 -0.014 2.66 -0.021 C5.608 -0.039 8.554 -0.029 11.501 -0.019 C13.612 -0.026 15.723 -0.035 17.834 -0.045 C23.571 -0.067 29.308 -0.064 35.046 -0.056 C39.833 -0.05 44.619 -0.058 49.405 -0.065 C60.696 -0.082 71.985 -0.078 83.275 -0.062 C94.931 -0.045 106.585 -0.061 118.24 -0.093 C128.24 -0.12 138.24 -0.127 148.241 -0.118 C154.216 -0.114 160.191 -0.116 166.167 -0.136 C171.785 -0.155 177.403 -0.149 183.022 -0.124 C185.085 -0.119 187.149 -0.123 189.212 -0.135 C192.027 -0.151 194.839 -0.136 197.654 -0.114 C198.063 -0.119 198.063 -0.119 200.136 -0.149 C204.305 -0.081 205.956 0.189 209.399 2.772 C211.43 5.569 212.012 6.651 211.992 10.026 C211.999 10.9 212.005 11.773 212.012 12.673 C211.995 13.618 211.977 14.564 211.958 15.537 C211.958 16.04 211.958 16.04 211.96 18.584 C211.957 21.901 211.918 25.217 211.879 28.534 C211.869 30.836 211.862 33.138 211.857 35.441 C211.838 41.496 211.789 47.55 211.734 53.605 C211.683 59.785 211.66 65.965 211.635 72.146 C211.581 84.269 211.496 96.392 211.39 108.515 C210.07 108.515 208.75 108.515 207.39 108.515 C207.385 107.99 207.385 107.99 207.359 105.332 C207.262 95.458 207.159 85.584 207.051 75.71 C206.996 70.633 206.942 65.556 206.893 60.479 C206.846 55.583 206.793 50.688 206.737 45.793 C206.717 43.921 206.698 42.049 206.681 40.177 C206.657 37.564 206.627 34.952 206.596 32.339 C206.59 31.557 206.584 30.775 206.578 29.97 C206.504 24.629 206.504 24.629 205.39 23.515 C205.398 20.114 205.469 16.726 205.605 13.329 C205.648 11.175 205.648 11.175 205.39 7.515 C201.606 4.992 198.612 5.236 194.229 5.261 C193.388 5.258 192.546 5.254 191.679 5.251 C188.848 5.243 186.018 5.25 183.187 5.256 C181.162 5.253 179.137 5.25 177.112 5.245 C171.604 5.236 166.096 5.24 160.588 5.246 C154.831 5.251 149.075 5.246 143.319 5.243 C133.651 5.24 123.984 5.244 114.316 5.254 C103.129 5.265 91.941 5.261 80.754 5.25 C71.16 5.241 61.566 5.24 51.971 5.245 C46.236 5.248 40.501 5.249 34.766 5.242 C29.375 5.236 23.984 5.24 18.594 5.252 C16.611 5.255 14.629 5.254 12.647 5.249 C9.948 5.244 7.25 5.251 4.552 5.261 C3.761 5.256 2.97 5.252 2.155 5.247 C-1.64 5.275 -3.372 5.356 -6.61 7.515 C-6.804 10.279 -6.845 12.824 -6.735 15.577 C-6.657 18.226 -6.615 20.864 -6.61 23.515 C-6.94 23.845 -7.27 24.175 -7.61 24.515 C-7.735 27.131 -7.796 29.722 -7.815 32.339 C-7.825 33.159 -7.835 33.978 -7.845 34.822 C-7.877 37.544 -7.901 40.266 -7.926 42.987 C-7.947 44.869 -7.968 46.751 -7.989 48.633 C-8.044 53.596 -8.094 58.559 -8.142 63.523 C-8.192 68.583 -8.248 73.644 -8.303 78.704 C-8.411 88.641 -8.512 98.578 -8.61 108.515 C-9.93 108.515 -11.25 108.515 -12.61 108.515 C-12.702 95.024 -12.773 81.533 -12.817 68.042 C-12.838 61.778 -12.866 55.514 -12.911 49.25 C-12.955 43.207 -12.979 37.164 -12.989 31.121 C-12.997 28.813 -13.011 26.506 -13.033 24.198 C-13.061 20.97 -13.066 17.743 -13.064 14.516 C-13.071 14.037 -13.071 14.037 -13.107 11.612 C-13.102 10.732 -13.096 9.851 -13.091 8.944 C-13.094 8.181 -13.098 7.417 -13.102 6.631 C-11.513 -0.202 -5.937 -0.06 0 0 Z " fill="#DADADA" transform="translate(28.609603881835938,11.485336303710938)"/>
<path d="M0 0 C2.64 0 5.28 0 8 0 C8 2.64 8 5.28 8 8 C5.36 8 2.72 8 0 8 C0 5.36 0 2.72 0 0 Z " fill="#DADADA" transform="translate(204,108)"/>
<path d="M0 0 C2.64 0 5.28 0 8 0 C8 2.64 8 5.28 8 8 C5.36 8 2.72 8 0 8 C0 5.36 0 2.72 0 0 Z " fill="#DADADA" transform="translate(44,108)"/>
<path d="M0 0 C2.64 0 5.28 0 8 0 C8 2.64 8 5.28 8 8 C5.36 8 2.72 8 0 8 C0 5.36 0 2.72 0 0 Z " fill="#DADADA" transform="translate(204,20)"/>
<path d="M0 0 C2.64 0 5.28 0 8 0 C8 2.64 8 5.28 8 8 C5.36 8 2.72 8 0 8 C0 5.36 0 2.72 0 0 Z " fill="#DADADA" transform="translate(44,20)"/>
<path d="M0 0 C0.99 0.33 1.98 0.66 3 1 C3 5.62 3 10.24 3 15 C1.68 15 0.36 15 -1 15 C-1.027 12.688 -1.046 10.375 -1.062 8.062 C-1.074 6.775 -1.086 5.487 -1.098 4.16 C-1 1 -1 1 0 0 Z " fill="#CDCDCD" transform="translate(235,20)"/>
<path d="M0 0 C0.99 0.33 1.98 0.66 3 1 C3 5.62 3 10.24 3 15 C1.68 15 0.36 15 -1 15 C-1.027 12.688 -1.046 10.375 -1.062 8.062 C-1.074 6.775 -1.086 5.487 -1.098 4.16 C-1 1 -1 1 0 0 Z " fill="#CDCDCD" transform="translate(19,20)"/>
<path d="M0 0 C1.32 0.66 2.64 1.32 4 2 C3.34 3.32 2.68 4.64 2 6 C0.68 5.34 -0.64 4.68 -2 4 C-1.34 2.68 -0.68 1.36 0 0 Z " fill="#E3E4E3" transform="translate(196,222)"/>
<path d="M0 0 C1.32 0.66 2.64 1.32 4 2 C3.34 3.32 2.68 4.64 2 6 C0.68 5.34 -0.64 4.68 -2 4 C-1.34 2.68 -0.68 1.36 0 0 Z " fill="#E3E4E3" transform="translate(196,210)"/>
</svg>
