<?xml version="1.0" encoding="UTF-8"?>
<!-- Generator: visioncortex VTracer 0.6.12 -->
<svg version="1.1" xmlns="http://www.w3.org/2000/svg" width="256" height="256">
<path d="M0 0 C0.939 -0.005 1.879 -0.011 2.847 -0.016 C5.99 -0.031 9.134 -0.023 12.277 -0.016 C14.533 -0.022 16.788 -0.029 19.044 -0.037 C25.168 -0.055 31.291 -0.054 37.415 -0.048 C42.527 -0.045 47.639 -0.051 52.751 -0.057 C65.5 -0.072 78.248 -0.068 90.997 -0.056 C102.063 -0.046 113.128 -0.059 124.194 -0.083 C135.563 -0.108 146.932 -0.117 158.302 -0.111 C164.682 -0.107 171.062 -0.11 177.442 -0.127 C183.441 -0.142 189.44 -0.138 195.44 -0.12 C197.641 -0.116 199.842 -0.119 202.044 -0.13 C205.05 -0.143 208.055 -0.131 211.061 -0.114 C211.496 -0.118 211.496 -0.118 213.698 -0.143 C219.469 -0.073 222.95 0.867 227.594 4.388 C230.532 8.71 230.971 12.204 230.982 17.364 C230.984 17.703 230.984 17.703 230.998 19.419 C231.012 21.678 231.005 23.937 230.998 26.196 C231.004 27.821 231.011 29.446 231.019 31.071 C231.037 35.476 231.036 39.881 231.03 44.286 C231.027 47.966 231.033 51.647 231.039 55.327 C231.053 64.011 231.051 72.695 231.04 81.379 C231.028 90.331 231.043 99.283 231.069 108.235 C231.091 115.928 231.098 123.621 231.092 131.314 C231.089 135.905 231.091 140.497 231.109 145.088 C231.124 149.407 231.12 153.725 231.101 158.043 C231.098 159.625 231.101 161.207 231.111 162.79 C231.205 178.093 231.205 178.093 226.594 183.388 C221.436 186.702 217.113 186.816 211.188 186.775 C210.718 186.778 210.718 186.778 208.341 186.792 C205.197 186.806 202.054 186.799 198.911 186.792 C196.655 186.797 194.4 186.804 192.144 186.813 C186.02 186.83 179.896 186.829 173.772 186.824 C168.66 186.82 163.548 186.827 158.436 186.833 C145.688 186.847 132.939 186.844 120.191 186.832 C109.125 186.822 98.06 186.835 86.994 186.859 C75.625 186.883 64.255 186.892 52.886 186.886 C46.506 186.883 40.126 186.885 33.746 186.902 C27.746 186.918 21.747 186.914 15.748 186.895 C13.547 186.891 11.345 186.894 9.144 186.905 C6.138 186.918 3.133 186.907 0.127 186.889 C-0.308 186.894 -0.308 186.894 -2.511 186.918 C-8.281 186.848 -11.762 185.908 -16.406 182.388 C-19.345 178.066 -19.783 174.572 -19.794 169.411 C-19.799 168.733 -19.805 168.055 -19.81 167.357 C-19.824 165.097 -19.817 162.839 -19.81 160.579 C-19.816 158.954 -19.823 157.329 -19.831 155.704 C-19.849 151.299 -19.848 146.895 -19.842 142.49 C-19.839 138.809 -19.845 135.129 -19.851 131.448 C-19.865 122.764 -19.864 114.081 -19.852 105.397 C-19.841 96.444 -19.855 87.492 -19.882 78.54 C-19.904 70.847 -19.91 63.155 -19.904 55.462 C-19.901 50.87 -19.904 46.279 -19.921 41.687 C-19.936 37.369 -19.932 33.051 -19.913 28.732 C-19.91 27.15 -19.913 25.568 -19.923 23.986 C-20.017 8.683 -20.017 8.683 -15.406 3.388 C-10.248 0.073 -5.925 -0.041 0 0 Z " fill="#494A49" transform="translate(22.406112670898438,34.61231994628906)"/>
<path d="M0 0 C0.939 -0.005 1.879 -0.011 2.847 -0.016 C5.99 -0.031 9.134 -0.023 12.277 -0.016 C14.533 -0.022 16.788 -0.029 19.044 -0.037 C25.168 -0.055 31.291 -0.054 37.415 -0.048 C42.527 -0.045 47.639 -0.051 52.751 -0.057 C65.5 -0.072 78.248 -0.068 90.997 -0.056 C102.063 -0.046 113.128 -0.059 124.194 -0.083 C135.563 -0.108 146.932 -0.117 158.302 -0.111 C164.682 -0.107 171.062 -0.11 177.442 -0.127 C183.441 -0.142 189.44 -0.138 195.44 -0.12 C197.641 -0.116 199.842 -0.119 202.044 -0.13 C205.05 -0.143 208.055 -0.131 211.061 -0.114 C211.496 -0.118 211.496 -0.118 213.698 -0.143 C219.469 -0.073 222.95 0.867 227.594 4.388 C230.532 8.71 230.971 12.204 230.982 17.364 C230.984 17.703 230.984 17.703 230.998 19.419 C231.012 21.678 231.005 23.937 230.998 26.196 C231.004 27.821 231.011 29.446 231.019 31.071 C231.037 35.476 231.036 39.881 231.03 44.286 C231.027 47.966 231.033 51.647 231.039 55.327 C231.053 64.011 231.051 72.695 231.04 81.379 C231.028 90.331 231.043 99.283 231.069 108.235 C231.091 115.928 231.098 123.621 231.092 131.314 C231.089 135.905 231.091 140.497 231.109 145.088 C231.124 149.407 231.12 153.725 231.101 158.043 C231.098 159.625 231.101 161.207 231.111 162.79 C231.205 178.093 231.205 178.093 226.594 183.388 C221.436 186.702 217.113 186.816 211.188 186.775 C210.718 186.778 210.718 186.778 208.341 186.792 C205.197 186.806 202.054 186.799 198.911 186.792 C196.655 186.797 194.4 186.804 192.144 186.813 C186.02 186.83 179.896 186.829 173.772 186.824 C168.66 186.82 163.548 186.827 158.436 186.833 C145.688 186.847 132.939 186.844 120.191 186.832 C109.125 186.822 98.06 186.835 86.994 186.859 C75.625 186.883 64.255 186.892 52.886 186.886 C46.506 186.883 40.126 186.885 33.746 186.902 C27.746 186.918 21.747 186.914 15.748 186.895 C13.547 186.891 11.345 186.894 9.144 186.905 C6.138 186.918 3.133 186.907 0.127 186.889 C-0.308 186.894 -0.308 186.894 -2.511 186.918 C-8.281 186.848 -11.762 185.908 -16.406 182.388 C-19.345 178.066 -19.783 174.572 -19.794 169.411 C-19.799 168.733 -19.805 168.055 -19.81 167.357 C-19.824 165.097 -19.817 162.839 -19.81 160.579 C-19.816 158.954 -19.823 157.329 -19.831 155.704 C-19.849 151.299 -19.848 146.895 -19.842 142.49 C-19.839 138.809 -19.845 135.129 -19.851 131.448 C-19.865 122.764 -19.864 114.081 -19.852 105.397 C-19.841 96.444 -19.855 87.492 -19.882 78.54 C-19.904 70.847 -19.91 63.155 -19.904 55.462 C-19.901 50.87 -19.904 46.279 -19.921 41.687 C-19.936 37.369 -19.932 33.051 -19.913 28.732 C-19.91 27.15 -19.913 25.568 -19.923 23.986 C-20.017 8.683 -20.017 8.683 -15.406 3.388 C-10.248 0.073 -5.925 -0.041 0 0 Z M-10.406 11.388 C-10.658 14.189 -10.658 14.189 -10.66 17.841 C-10.663 18.511 -10.666 19.181 -10.67 19.871 C-10.678 22.127 -10.671 24.382 -10.665 26.638 C-10.668 28.25 -10.671 29.863 -10.676 31.476 C-10.685 35.864 -10.681 40.253 -10.675 44.641 C-10.67 49.226 -10.674 53.811 -10.678 58.395 C-10.681 66.096 -10.676 73.797 -10.667 81.497 C-10.656 90.41 -10.659 99.322 -10.671 108.235 C-10.68 115.876 -10.681 123.518 -10.676 131.159 C-10.673 135.728 -10.672 140.297 -10.679 144.865 C-10.684 149.16 -10.681 153.454 -10.669 157.748 C-10.666 159.328 -10.667 160.907 -10.671 162.487 C-10.677 164.636 -10.67 166.785 -10.66 168.935 C-10.659 170.14 -10.659 171.344 -10.658 172.586 C-10.406 175.388 -10.406 175.388 -8.406 177.388 C-5.415 177.586 -2.516 177.657 0.477 177.642 C1.408 177.645 2.339 177.648 3.299 177.651 C6.439 177.659 9.579 177.653 12.719 177.646 C14.962 177.649 17.206 177.653 19.449 177.657 C25.556 177.666 31.663 177.663 37.771 177.656 C44.149 177.651 50.528 177.656 56.906 177.659 C68.307 177.663 79.708 177.657 91.108 177.647 C101.452 177.638 111.797 177.639 122.141 177.648 C134.143 177.659 146.145 177.663 158.148 177.657 C164.505 177.654 170.862 177.654 177.219 177.66 C183.194 177.666 189.169 177.662 195.145 177.65 C197.343 177.648 199.542 177.649 201.741 177.653 C204.731 177.658 207.721 177.652 210.711 177.642 C211.591 177.646 212.471 177.651 213.378 177.655 C219.366 177.616 219.366 177.616 221.594 175.388 C221.846 172.586 221.846 172.586 221.848 168.935 C221.851 168.265 221.854 167.595 221.857 166.904 C221.865 164.649 221.859 162.393 221.853 160.138 C221.855 158.525 221.859 156.912 221.863 155.299 C221.872 150.911 221.869 146.523 221.863 142.134 C221.857 137.55 221.862 132.965 221.865 128.38 C221.869 120.679 221.864 112.979 221.855 105.278 C221.844 96.366 221.847 87.453 221.858 78.541 C221.867 70.899 221.869 63.258 221.863 55.616 C221.86 51.047 221.86 46.479 221.866 41.91 C221.872 37.616 221.868 33.322 221.857 29.027 C221.854 27.448 221.855 25.868 221.859 24.289 C221.865 22.139 221.858 19.99 221.848 17.841 C221.847 16.636 221.846 15.431 221.846 14.189 C221.594 11.388 221.594 11.388 219.594 9.388 C216.603 9.19 213.704 9.119 210.711 9.134 C209.78 9.131 208.848 9.127 207.889 9.124 C204.749 9.116 201.609 9.123 198.469 9.129 C196.226 9.126 193.982 9.123 191.739 9.118 C185.632 9.109 179.524 9.113 173.417 9.119 C167.039 9.124 160.66 9.119 154.281 9.116 C142.881 9.112 131.48 9.119 120.08 9.129 C109.735 9.138 99.391 9.136 89.047 9.127 C77.045 9.116 65.043 9.112 53.04 9.118 C46.683 9.121 40.326 9.122 33.969 9.115 C27.994 9.109 22.018 9.113 16.043 9.125 C13.844 9.128 11.646 9.127 9.447 9.122 C6.457 9.117 3.467 9.124 0.477 9.134 C-0.403 9.129 -1.283 9.125 -2.19 9.12 C-8.178 9.159 -8.178 9.159 -10.406 11.388 Z " fill="#FBFBFB" transform="translate(22.406112670898438,34.61231994628906)"/>
<path d="M0 0 C38.28 0 76.56 0 116 0 C119 11 119 11 119 16 C78.41 16 37.82 16 -4 16 C-2 5 -2 5 0 0 Z " fill="#585858" transform="translate(71,76)"/>
<path d="M0 0 C0.99 0 1.98 0 3 0 C3 0.66 3 1.32 3 2 C4.32 2 5.64 2 7 2 C7 1.34 7 0.68 7 0 C8.32 0 9.64 0 11 0 C11 0.66 11 1.32 11 2 C12.32 2 13.64 2 15 2 C15 1.34 15 0.68 15 0 C16.32 0 17.64 0 19 0 C19 0.66 19 1.32 19 2 C20.32 2 21.64 2 23 2 C23 1.34 23 0.68 23 0 C24.32 0 25.64 0 27 0 C27 0.66 27 1.32 27 2 C28.32 2 29.64 2 31 2 C31 1.34 31 0.68 31 0 C32.32 0 33.64 0 35 0 C35 0.66 35 1.32 35 2 C36.32 2 37.64 2 39 2 C39 1.34 39 0.68 39 0 C41.613 -0.303 44.19 -0.517 46.812 -0.688 C47.531 -0.78 48.25 -0.872 48.99 -0.967 C51.689 -1.098 53.429 -0.898 56 0 C57.531 1.784 59.006 3.616 60.444 5.476 C64.547 10.025 68.089 11.72 74.182 12.298 C79.023 12.522 83.843 12.521 88.688 12.461 C90.798 12.468 92.908 12.479 95.018 12.493 C99.427 12.509 103.833 12.486 108.241 12.434 C113.868 12.371 119.489 12.408 125.116 12.473 C129.469 12.513 133.822 12.5 138.175 12.472 C140.248 12.465 142.321 12.473 144.394 12.499 C162.229 12.672 162.229 12.672 168.167 7.015 C169.481 5.559 170.689 4.011 171.888 2.46 C174.229 -0.267 175.278 -0.781 178.793 -1.074 C181.01 -0.967 181.01 -0.967 183.188 -0.688 C183.568 -0.663 183.568 -0.663 185.494 -0.537 C187.334 -0.41 189.168 -0.213 191 0 C191 0.66 191 1.32 191 2 C192.32 2 193.64 2 195 2 C195 1.34 195 0.68 195 0 C196.32 0 197.64 0 199 0 C199 0.66 199 1.32 199 2 C200.32 2 201.64 2 203 2 C203 1.34 203 0.68 203 0 C204.32 0 205.64 0 207 0 C207 0.66 207 1.32 207 2 C208.32 2 209.64 2 211 2 C211 1.34 211 0.68 211 0 C212.32 0 213.64 0 215 0 C215 0.66 215 1.32 215 2 C216.32 2 217.64 2 219 2 C219 1.34 219 0.68 219 0 C220.32 0 221.64 0 223 0 C223 0.66 223 1.32 223 2 C224.32 2 225.64 2 227 2 C227 1.34 227 0.68 227 0 C227.99 0 228.98 0 230 0 C230 1.32 230 2.64 230 4 C229.436 3.988 228.871 3.976 228.29 3.964 C222.367 3.85 216.447 3.815 210.524 3.823 C208.319 3.816 206.114 3.79 203.91 3.743 C200.723 3.679 197.543 3.686 194.355 3.707 C193.384 3.672 192.413 3.637 191.412 3.601 C188.276 3.665 185.946 3.894 183 5 C181.395 6.77 179.866 8.609 178.392 10.49 C174.955 14.545 172.021 16.309 166.711 17.054 C159.938 17.599 153.165 17.532 146.375 17.461 C143.861 17.468 141.347 17.479 138.833 17.493 C133.578 17.509 128.324 17.487 123.068 17.434 C117.019 17.374 110.974 17.394 104.925 17.454 C99.071 17.51 93.218 17.504 87.364 17.472 C84.889 17.465 82.414 17.474 79.939 17.499 C59.4 17.666 59.4 17.666 54.371 13.499 C52.481 11.593 50.917 9.608 49.252 7.484 C46.612 4.573 45.29 4.097 41.437 3.659 C39.506 3.62 37.574 3.638 35.645 3.707 C35.131 3.704 35.131 3.704 32.53 3.687 C29.289 3.678 26.054 3.744 22.812 3.812 C20.598 3.819 18.384 3.821 16.17 3.818 C10.778 3.822 5.39 3.886 0 4 C0 2.68 0 1.36 0 0 Z " fill="#404040" transform="translate(13,48)"/>
<path d="M0 0 C30.36 0 60.72 0 92 0 C92 2.97 92 5.94 92 9 C61.64 9 31.28 9 0 9 C0 6.03 0 3.06 0 0 Z " fill="#3F3F3F" transform="translate(82,107)"/>
<path d="M0 0 C30.36 0 60.72 0 92 0 C92 2.97 92 5.94 92 9 C61.64 9 31.28 9 0 9 C0 6.03 0 3.06 0 0 Z " fill="#3F3F3F" transform="translate(82,96)"/>
<path d="M0 0 C3.939 3.063 6.319 6.31 8 11 C8.788 17.42 8.165 23.303 5 29 C2.315 32.411 0.92 33.774 -3.312 34.812 C-4.199 34.874 -5.086 34.936 -6 35 C-6 31.7 -6 28.4 -6 25 C-6.66 25 -7.32 25 -8 25 C-8 27.97 -8 30.94 -8 34 C-10.749 33.313 -12.534 32.644 -14.223 30.309 C-15.203 28.569 -16.107 26.786 -17 25 C-15.68 24.34 -14.36 23.68 -13 23 C-13 22.34 -13 21.68 -13 21 C-13.639 21.186 -14.279 21.371 -14.938 21.562 C-15.618 21.707 -16.299 21.851 -17 22 C-18.613 20.387 -18.248 18.664 -18.312 16.438 C-18.244 11.142 -17.162 7.271 -14 3 C-9.512 -1.182 -5.698 -2.025 0 0 Z " fill="#333333" transform="translate(58,141)"/>
<path d="M0 0 C1.078 0.009 2.155 0.018 3.266 0.027 C4.085 0.039 4.905 0.051 5.75 0.062 C4.668 12.181 4.668 12.181 1.75 16.062 C-0.486 16.849 -2.611 17.132 -4.957 17.453 C-8.419 18.373 -9.961 20.399 -12.156 23.113 C-13.25 25.062 -13.25 25.062 -14.25 30.062 C-19.53 30.062 -24.81 30.062 -30.25 30.062 C-29.696 20.086 -27.553 13.543 -20.184 6.602 C-13.988 1.67 -7.821 -0.085 0 0 Z " fill="#585858" transform="translate(62.25,75.9375)"/>
<path d="M0 0 C5.28 0 10.56 0 16 0 C16 8.271 14.355 13.398 9.875 20.25 C2.983 26.842 -3.771 30.166 -13.25 30.062 C-14.328 30.053 -15.405 30.044 -16.516 30.035 C-17.335 30.024 -18.155 30.012 -19 30 C-17.934 18.056 -17.934 18.056 -15 14 C-12.75 12.916 -10.573 12.315 -8.156 11.695 C-4.896 10.644 -3.689 8.905 -2 6 C-1.34 4.02 -0.68 2.04 0 0 Z " fill="#404040" transform="translate(208,106)"/>
<path d="M0 0 C4.074 0.849 5.544 2.302 8 5.625 C8.625 8.625 8.625 8.625 8 11.625 C5.544 14.948 4.074 16.401 0 17.25 C-4.074 16.401 -5.544 14.948 -8 11.625 C-8.625 8.625 -8.625 8.625 -8 5.625 C-5.544 2.302 -4.074 0.849 0 0 Z " fill="#565656" transform="translate(52,147.375)"/>
<path d="M0 0 C6.6 0 13.2 0 20 0 C20 2.97 20 5.94 20 9 C13.4 9 6.8 9 0 9 C0 6.03 0 3.06 0 0 Z " fill="#3F3F3F" transform="translate(176,107)"/>
<path d="M0 0 C6.6 0 13.2 0 20 0 C20 2.97 20 5.94 20 9 C13.4 9 6.8 9 0 9 C0 6.03 0 3.06 0 0 Z " fill="#3F3F3F" transform="translate(60,107)"/>
<path d="M0 0 C6.6 0 13.2 0 20 0 C20 2.97 20 5.94 20 9 C13.4 9 6.8 9 0 9 C0 6.03 0 3.06 0 0 Z " fill="#3F3F3F" transform="translate(176,96)"/>
<path d="M0 0 C6.6 0 13.2 0 20 0 C20 2.97 20 5.94 20 9 C13.4 9 6.8 9 0 9 C0 6.03 0 3.06 0 0 Z " fill="#3F3F3F" transform="translate(60,96)"/>
<path d="M0 0 C0.402 0.01 0.402 0.01 2.438 0.062 C2.438 0.722 2.438 1.382 2.438 2.062 C-1.018 3.568 -4.478 5.066 -7.938 6.562 C-8.922 6.992 -9.907 7.421 -10.922 7.863 C-11.392 8.066 -11.392 8.066 -13.773 9.094 C-14.643 9.471 -15.512 9.848 -16.408 10.236 C-18.562 11.062 -18.562 11.062 -20.562 11.062 C-20.562 23.602 -20.562 36.142 -20.562 49.062 C-21.223 49.062 -21.883 49.062 -22.562 49.062 C-22.562 36.192 -22.562 23.322 -22.562 10.062 C-9.991 3.777 -9.991 3.777 -3.562 1.062 C-2.562 0.062 -2.562 0.062 0 0 Z " fill="#414141" transform="translate(42.5625,161.9375)"/>
<path d="M0 0 C0.66 0 1.32 0 2 0 C2 14.85 2 29.7 2 45 C1.34 45 0.68 45 0 45 C-0.169 40.038 -0.329 35.076 -0.482 30.114 C-0.535 28.429 -0.591 26.744 -0.648 25.06 C-0.731 22.625 -0.806 20.189 -0.879 17.754 C-0.906 17.013 -0.933 16.272 -0.961 15.508 C-1.108 10.246 -0.671 5.223 0 0 Z " fill="#404040" transform="translate(50,166)"/>
</svg>
