<?xml version="1.0" encoding="UTF-8"?>
<!-- Generator: visioncortex VTracer 0.6.12 -->
<svg version="1.1" xmlns="http://www.w3.org/2000/svg" width="256" height="256">
<path d="M0 0 C82.5 0 165 0 250 0 C250 66.66 250 133.32 250 202 C195.88 202 141.76 202 86 202 C86 202.66 86 203.32 86 204 C65.54 204 45.08 204 24 204 C24 203.34 24 202.68 24 202 C16.08 202 8.16 202 0 202 C0 135.34 0 68.68 0 0 Z " fill="#CBCBCB" transform="translate(3,26)"/>
<path d="M0 0 C82.5 0 165 0 250 0 C250 66.66 250 133.32 250 202 C195.88 202 141.76 202 86 202 C86 202.66 86 203.32 86 204 C65.54 204 45.08 204 24 204 C24 203.34 24 202.68 24 202 C16.08 202 8.16 202 0 202 C0 135.34 0 68.68 0 0 Z M9 10 C9 70.72 9 131.44 9 194 C16.92 194 24.84 194 33 194 C33 194.66 33 195.32 33 196 C39.6 196 46.2 196 53 196 C53 195.34 53 194.68 53 194 C54.32 194 55.64 194 57 194 C57 194.66 57 195.32 57 196 C63.6 196 70.2 196 77 196 C77 195.34 77 194.68 77 194 C122.54 194 168.08 194 215 194 C215 133.28 215 72.56 215 10 C147.02 10 79.04 10 9 10 Z " fill="#FDFDFD" transform="translate(3,26)"/>
<path d="M0 0 C13.86 0 27.72 0 42 0 C42 60.72 42 121.44 42 184 C28.14 184 14.28 184 0 184 C0 172.12 0 160.24 0 148 C13.2 148 26.4 148 40 148 C40 146.68 40 145.36 40 144 C26.8 144 13.6 144 0 144 C0 142.68 0 141.36 0 140 C13.2 140 26.4 140 40 140 C40 138.68 40 137.36 40 136 C26.8 136 13.6 136 0 136 C0 134.68 0 133.36 0 132 C13.2 132 26.4 132 40 132 C40 130.68 40 129.36 40 128 C26.8 128 13.6 128 0 128 C0 126.68 0 125.36 0 124 C13.2 124 26.4 124 40 124 C40 122.68 40 121.36 40 120 C26.8 120 13.6 120 0 120 C0 118.68 0 117.36 0 116 C13.2 116 26.4 116 40 116 C40 114.68 40 113.36 40 112 C26.8 112 13.6 112 0 112 C0 110.68 0 109.36 0 108 C13.2 108 26.4 108 40 108 C40 106.68 40 105.36 40 104 C26.8 104 13.6 104 0 104 C0 102.68 0 101.36 0 100 C13.2 100 26.4 100 40 100 C40 98.68 40 97.36 40 96 C26.8 96 13.6 96 0 96 C0 94.68 0 93.36 0 92 C13.2 92 26.4 92 40 92 C40 90.68 40 89.36 40 88 C26.8 88 13.6 88 0 88 C0 86.68 0 85.36 0 84 C13.2 84 26.4 84 40 84 C40 82.68 40 81.36 40 80 C26.8 80 13.6 80 0 80 C0 78.68 0 77.36 0 76 C13.2 76 26.4 76 40 76 C40 74.68 40 73.36 40 72 C26.8 72 13.6 72 0 72 C0 70.68 0 69.36 0 68 C13.2 68 26.4 68 40 68 C40 66.68 40 65.36 40 64 C26.8 64 13.6 64 0 64 C0 62.68 0 61.36 0 60 C13.2 60 26.4 60 40 60 C40 58.68 40 57.36 40 56 C26.8 56 13.6 56 0 56 C0 54.68 0 53.36 0 52 C13.2 52 26.4 52 40 52 C40 50.68 40 49.36 40 48 C26.8 48 13.6 48 0 48 C0 46.68 0 45.36 0 44 C13.2 44 26.4 44 40 44 C40 42.68 40 41.36 40 40 C26.8 40 13.6 40 0 40 C0 26.8 0 13.6 0 0 Z " fill="#929292" transform="translate(176,36)"/>
<path d="M0 0 C8.58 0 17.16 0 26 0 C26 60.72 26 121.44 26 184 C17.42 184 8.84 184 0 184 C0 123.28 0 62.56 0 0 Z " fill="#CBCBCB" transform="translate(218,36)"/>
<path d="M0 0 C46.2 0 92.4 0 140 0 C140 10.56 140 21.12 140 32 C108.32 32 76.64 32 44 32 C44 32.66 44 33.32 44 34 C37.4 34 30.8 34 24 34 C24 33.34 24 32.68 24 32 C22.68 32 21.36 32 20 32 C20 32.66 20 33.32 20 34 C13.4 34 6.8 34 0 34 C0 22.78 0 11.56 0 0 Z " fill="#CBCBCB" transform="translate(36,188)"/>
<path d="M0 0 C13.2 0 26.4 0 40 0 C40 13.2 40 26.4 40 40 C26.8 40 13.6 40 0 40 C0 26.8 0 13.6 0 0 Z " fill="#333333" transform="translate(176,36)"/>
<path d="M0 0 C13.2 0 26.4 0 40 0 C40 11.88 40 23.76 40 36 C26.8 36 13.6 36 0 36 C0 24.12 0 12.24 0 0 Z " fill="#323232" transform="translate(176,184)"/>
<path d="M0 0 C46.2 0 92.4 0 140 0 C140 10.56 140 21.12 140 32 C138.68 32 137.36 32 136 32 C136 24.08 136 16.16 136 8 C136.66 8 137.32 8 138 8 C138 6.68 138 5.36 138 4 C93.12 4 48.24 4 2 4 C2 5.32 2 6.64 2 8 C2.66 8 3.32 8 4 8 C4 15.92 4 23.84 4 32 C9.28 32 14.56 32 20 32 C20 32.66 20 33.32 20 34 C13.4 34 6.8 34 0 34 C0 22.78 0 11.56 0 0 Z " fill="#9B9B9B" transform="translate(36,188)"/>
<path d="M0 0 C13.2 0 26.4 0 40 0 C39.34 0.33 38.68 0.66 38 1 C38 1.66 38 2.32 38 3 C38.66 3.33 39.32 3.66 40 4 C26.8 4 13.6 4 0 4 C0 2.68 0 1.36 0 0 Z " fill="#9B9B9B" transform="translate(176,144)"/>
<path d="M0 0 C13.2 0 26.4 0 40 0 C39.34 0.33 38.68 0.66 38 1 C38 1.66 38 2.32 38 3 C38.66 3.33 39.32 3.66 40 4 C26.8 4 13.6 4 0 4 C0 2.68 0 1.36 0 0 Z " fill="#9B9B9B" transform="translate(176,136)"/>
<path d="M0 0 C13.2 0 26.4 0 40 0 C39.34 0.33 38.68 0.66 38 1 C38 1.66 38 2.32 38 3 C38.66 3.33 39.32 3.66 40 4 C26.8 4 13.6 4 0 4 C0 2.68 0 1.36 0 0 Z " fill="#9B9B9B" transform="translate(176,128)"/>
<path d="M0 0 C13.2 0 26.4 0 40 0 C39.34 0.33 38.68 0.66 38 1 C38 1.66 38 2.32 38 3 C38.66 3.33 39.32 3.66 40 4 C26.8 4 13.6 4 0 4 C0 2.68 0 1.36 0 0 Z " fill="#9B9B9B" transform="translate(176,120)"/>
<path d="M0 0 C13.2 0 26.4 0 40 0 C39.34 0.33 38.68 0.66 38 1 C38 1.66 38 2.32 38 3 C38.66 3.33 39.32 3.66 40 4 C26.8 4 13.6 4 0 4 C0 2.68 0 1.36 0 0 Z " fill="#9B9B9B" transform="translate(176,112)"/>
<path d="M0 0 C13.2 0 26.4 0 40 0 C39.34 0.33 38.68 0.66 38 1 C38 1.66 38 2.32 38 3 C38.66 3.33 39.32 3.66 40 4 C26.8 4 13.6 4 0 4 C0 2.68 0 1.36 0 0 Z " fill="#9B9B9B" transform="translate(176,104)"/>
<path d="M0 0 C13.2 0 26.4 0 40 0 C39.34 0.33 38.68 0.66 38 1 C38 1.66 38 2.32 38 3 C38.66 3.33 39.32 3.66 40 4 C26.8 4 13.6 4 0 4 C0 2.68 0 1.36 0 0 Z " fill="#9B9B9B" transform="translate(176,96)"/>
<path d="M0 0 C13.2 0 26.4 0 40 0 C39.34 0.33 38.68 0.66 38 1 C38 1.66 38 2.32 38 3 C38.66 3.33 39.32 3.66 40 4 C26.8 4 13.6 4 0 4 C0 2.68 0 1.36 0 0 Z " fill="#9B9B9B" transform="translate(176,88)"/>
<path d="M0 0 C13.2 0 26.4 0 40 0 C39.34 0.33 38.68 0.66 38 1 C38 1.66 38 2.32 38 3 C38.66 3.33 39.32 3.66 40 4 C26.8 4 13.6 4 0 4 C0 2.68 0 1.36 0 0 Z " fill="#9B9B9B" transform="translate(176,80)"/>
</svg>
