<?xml version="1.0" encoding="UTF-8"?>
<!-- Generator: visioncortex VTracer 0.6.12 -->
<svg version="1.1" xmlns="http://www.w3.org/2000/svg" width="256" height="256">
<path d="M0 0 C0.444 -0.001 0.444 -0.001 2.689 -0.009 C5.668 -0.018 8.647 -0.019 11.626 -0.021 C13.76 -0.025 15.894 -0.03 18.028 -0.036 C23.829 -0.049 29.631 -0.055 35.433 -0.06 C39.058 -0.063 42.683 -0.067 46.308 -0.071 C57.651 -0.085 68.993 -0.095 80.335 -0.098 C93.427 -0.103 106.519 -0.12 119.61 -0.149 C129.73 -0.171 139.85 -0.181 149.97 -0.182 C156.014 -0.184 162.058 -0.189 168.101 -0.207 C173.789 -0.224 179.476 -0.226 185.163 -0.217 C187.248 -0.216 189.332 -0.221 191.417 -0.231 C194.269 -0.243 197.12 -0.237 199.972 -0.227 C200.791 -0.235 201.61 -0.243 202.455 -0.251 C209.451 -0.192 215.77 1.039 221.241 5.578 C224.423 9.532 225.552 12.184 225.571 17.275 C225.575 17.794 225.575 17.794 225.597 20.418 C225.596 20.985 225.596 20.985 225.594 23.85 C225.601 25.048 225.607 26.245 225.614 27.478 C225.63 30.759 225.637 34.041 225.638 37.322 C225.639 39.374 225.644 41.427 225.649 43.479 C225.667 50.646 225.676 57.814 225.674 64.981 C225.673 71.65 225.694 78.319 225.726 84.987 C225.752 90.722 225.762 96.456 225.761 102.19 C225.761 105.611 225.766 109.032 225.787 112.453 C225.807 116.273 225.801 120.093 225.789 123.913 C225.8 125.037 225.812 126.162 225.823 127.32 C225.762 135.006 224.573 140.321 219.444 146.312 C207.626 156.177 195.57 157.33 180.553 158.64 C180.198 158.672 180.198 158.672 178.398 158.831 C125.159 163.486 71.797 163.584 18.585 158.512 C16.881 158.35 15.176 158.192 13.471 158.038 C-3.464 156.482 -3.464 156.482 -10.697 152.14 C-11.506 151.66 -12.316 151.179 -13.15 150.683 C-18.426 146.703 -22.555 142.566 -24.697 136.14 C-24.795 134.469 -24.836 132.794 -24.844 131.119 C-24.851 130.082 -24.858 129.045 -24.865 127.976 C-24.868 126.838 -24.871 125.7 -24.874 124.528 C-24.88 123.33 -24.887 122.131 -24.893 120.896 C-24.913 116.92 -24.925 112.944 -24.935 108.969 C-24.939 107.598 -24.943 106.228 -24.947 104.858 C-24.966 98.419 -24.98 91.98 -24.989 85.542 C-24.999 78.117 -25.025 70.693 -25.065 63.268 C-25.096 57.524 -25.11 51.781 -25.114 46.037 C-25.116 42.609 -25.125 39.181 -25.15 35.753 C-25.174 31.925 -25.174 28.098 -25.167 24.27 C-25.179 23.141 -25.192 22.011 -25.205 20.847 C-25.163 14.388 -24.57 10.384 -20.697 5.14 C-18.697 3.617 -18.697 3.617 -16.697 2.765 C-16.037 2.469 -15.377 2.172 -14.697 1.867 C-9.793 0.086 -5.18 -0.005 0 0 Z " fill="#565656" transform="translate(27.696578979492188,46.85955810546875)"/>
<path d="M0 0 C29.04 0 58.08 0 88 0 C88 27.72 88 55.44 88 84 C58.96 84 29.92 84 0 84 C0 56.28 0 28.56 0 0 Z " fill="#7E8B8C" transform="translate(84,80)"/>
<path d="M0 0 C0.976 -0.006 1.952 -0.011 2.957 -0.017 C3.494 -0.015 3.494 -0.015 6.213 -0.005 C7.341 -0.008 8.47 -0.012 9.633 -0.015 C13.378 -0.024 17.124 -0.018 20.869 -0.012 C23.462 -0.013 26.055 -0.015 28.648 -0.017 C34.089 -0.02 39.53 -0.016 44.971 -0.007 C51.266 0.004 57.561 0.001 63.856 -0.01 C69.905 -0.021 75.955 -0.02 82.004 -0.014 C84.581 -0.012 87.159 -0.014 89.736 -0.019 C93.333 -0.024 96.929 -0.016 100.525 -0.005 C101.6 -0.009 102.674 -0.013 103.781 -0.017 C104.757 -0.011 105.733 -0.006 106.738 0 C107.589 0.001 108.44 0.002 109.317 0.002 C111.369 0.254 111.369 0.254 113.369 2.254 C113.615 4.312 113.615 4.312 113.61 6.898 C113.612 7.877 113.615 8.856 113.618 9.864 C113.614 10.403 113.614 10.403 113.596 13.129 C113.596 14.261 113.597 15.393 113.597 16.559 C113.596 20.314 113.58 24.069 113.564 27.824 C113.561 30.422 113.558 33.02 113.556 35.618 C113.549 41.766 113.533 47.914 113.513 54.062 C113.491 61.061 113.48 68.06 113.47 75.058 C113.449 89.457 113.414 103.855 113.369 118.254 C101.212 121.476 87.476 120.403 74.986 120.387 C73.156 120.387 71.325 120.388 69.494 120.39 C65.684 120.391 61.873 120.389 58.063 120.384 C53.214 120.379 48.365 120.382 43.516 120.388 C39.745 120.392 35.973 120.39 32.202 120.388 C30.415 120.387 28.628 120.388 26.842 120.39 C1.648 120.416 1.648 120.416 -6.631 118.254 C-6.678 103.164 -6.713 88.074 -6.734 72.984 C-6.745 65.978 -6.759 58.972 -6.782 51.965 C-6.804 45.209 -6.815 38.453 -6.821 31.697 C-6.824 29.114 -6.832 26.531 -6.842 23.948 C-6.857 20.342 -6.859 16.736 -6.858 13.129 C-6.862 12.591 -6.862 12.591 -6.88 9.864 C-6.877 8.886 -6.874 7.907 -6.871 6.898 C-6.872 6.471 -6.872 6.471 -6.877 4.312 C-6.357 -0.032 -3.717 0.003 0 0 Z M9.369 20.254 C9.369 47.974 9.369 75.694 9.369 104.254 C38.409 104.254 67.449 104.254 97.369 104.254 C97.369 76.534 97.369 48.814 97.369 20.254 C68.329 20.254 39.289 20.254 9.369 20.254 Z " fill="#1A1A1A" transform="translate(74.630859375,59.74603271484375)"/>
<path d="M0 0 C0.444 -0.001 0.444 -0.001 2.689 -0.009 C5.668 -0.018 8.647 -0.019 11.626 -0.021 C13.76 -0.025 15.894 -0.03 18.028 -0.036 C23.829 -0.049 29.631 -0.055 35.433 -0.06 C39.058 -0.063 42.683 -0.067 46.308 -0.071 C57.651 -0.085 68.993 -0.095 80.335 -0.098 C93.427 -0.103 106.519 -0.12 119.61 -0.149 C129.73 -0.171 139.85 -0.181 149.97 -0.182 C156.014 -0.184 162.058 -0.189 168.101 -0.207 C173.789 -0.224 179.476 -0.226 185.163 -0.217 C187.248 -0.216 189.332 -0.221 191.417 -0.231 C194.269 -0.243 197.12 -0.237 199.972 -0.227 C200.791 -0.235 201.61 -0.243 202.455 -0.251 C209.451 -0.192 215.77 1.039 221.241 5.578 C224.423 9.532 225.552 12.184 225.571 17.275 C225.575 17.794 225.575 17.794 225.597 20.418 C225.596 20.985 225.596 20.985 225.594 23.85 C225.601 25.048 225.607 26.245 225.614 27.478 C225.63 30.759 225.637 34.041 225.638 37.322 C225.639 39.374 225.644 41.427 225.649 43.479 C225.667 50.646 225.676 57.814 225.674 64.981 C225.673 71.65 225.694 78.319 225.726 84.987 C225.752 90.722 225.762 96.456 225.761 102.19 C225.761 105.611 225.766 109.032 225.787 112.453 C225.807 116.273 225.801 120.093 225.789 123.913 C225.8 125.037 225.812 126.162 225.823 127.32 C225.762 135.006 224.573 140.321 219.444 146.312 C207.626 156.177 195.57 157.33 180.553 158.64 C180.198 158.672 180.198 158.672 178.398 158.831 C125.159 163.486 71.797 163.584 18.585 158.512 C16.881 158.35 15.176 158.192 13.471 158.038 C-3.464 156.482 -3.464 156.482 -10.697 152.14 C-11.506 151.66 -12.316 151.179 -13.15 150.683 C-18.426 146.703 -22.555 142.566 -24.697 136.14 C-24.795 134.469 -24.836 132.794 -24.844 131.119 C-24.851 130.082 -24.858 129.045 -24.865 127.976 C-24.868 126.838 -24.871 125.7 -24.874 124.528 C-24.88 123.33 -24.887 122.131 -24.893 120.896 C-24.913 116.92 -24.925 112.944 -24.935 108.969 C-24.939 107.598 -24.943 106.228 -24.947 104.858 C-24.966 98.419 -24.98 91.98 -24.989 85.542 C-24.999 78.117 -25.025 70.693 -25.065 63.268 C-25.096 57.524 -25.11 51.781 -25.114 46.037 C-25.116 42.609 -25.125 39.181 -25.15 35.753 C-25.174 31.925 -25.174 28.098 -25.167 24.27 C-25.179 23.141 -25.192 22.011 -25.205 20.847 C-25.163 14.388 -24.57 10.384 -20.697 5.14 C-18.697 3.617 -18.697 3.617 -16.697 2.765 C-16.037 2.469 -15.377 2.172 -14.697 1.867 C-9.793 0.086 -5.18 -0.005 0 0 Z M-15.697 13.14 C-16.323 15.521 -16.323 15.521 -16.325 18.213 C-16.337 19.236 -16.35 20.259 -16.363 21.314 C-16.351 22.431 -16.34 23.548 -16.328 24.699 C-16.335 25.879 -16.342 27.06 -16.349 28.277 C-16.363 31.513 -16.355 34.748 -16.335 37.984 C-16.319 41.374 -16.328 44.763 -16.333 48.153 C-16.337 53.848 -16.321 59.542 -16.294 65.237 C-16.261 71.812 -16.261 78.388 -16.279 84.963 C-16.295 91.296 -16.288 97.628 -16.271 103.961 C-16.264 106.652 -16.265 109.343 -16.272 112.034 C-16.278 115.798 -16.257 119.56 -16.23 123.324 C-16.237 124.436 -16.243 125.549 -16.25 126.696 C-16.174 132.825 -15.794 136.473 -11.697 141.14 C-9.986 142.75 -9.986 142.75 -8.322 143.89 C-7.778 144.277 -7.234 144.664 -6.673 145.062 C-2.194 147.505 2.399 148.426 7.432 148.922 C8.636 149.042 9.839 149.161 11.079 149.285 C12.329 149.402 13.578 149.52 14.866 149.64 C16.027 149.758 17.188 149.875 18.383 149.996 C22.688 150.414 26.994 150.783 31.303 151.14 C32.281 151.224 33.258 151.309 34.264 151.395 C54.62 153.111 74.874 153.539 95.291 153.518 C97.838 153.515 100.385 153.517 102.931 153.518 C125.038 153.515 147.009 153.028 169.053 151.265 C170.143 151.178 171.232 151.092 172.354 151.002 C175.396 150.751 178.436 150.487 181.475 150.211 C182.335 150.134 183.195 150.056 184.081 149.977 C194.758 148.926 206.117 147.58 213.866 139.453 C215.975 136.061 216.432 134.266 216.451 130.289 C216.458 129.264 216.465 128.239 216.472 127.183 C216.475 126.054 216.478 124.925 216.48 123.762 C216.484 123.169 216.484 123.169 216.5 120.17 C216.517 116.913 216.528 113.657 216.537 110.401 C216.542 108.368 216.548 106.335 216.554 104.301 C216.573 97.943 216.587 91.584 216.596 85.225 C216.605 77.879 216.632 70.534 216.672 63.188 C216.702 57.513 216.717 51.838 216.72 46.163 C216.723 42.772 216.732 39.381 216.757 35.99 C216.781 32.21 216.78 28.429 216.773 24.648 C216.786 23.522 216.799 22.395 216.812 21.234 C216.805 20.206 216.798 19.178 216.791 18.119 C216.792 17.672 216.792 17.672 216.798 15.409 C216.303 13.14 216.303 13.14 214.46 11.392 C209.95 8.775 205.68 8.992 200.624 8.993 C199.727 8.99 198.829 8.986 197.905 8.982 C194.885 8.971 191.866 8.967 188.847 8.963 C186.687 8.957 184.527 8.951 182.368 8.944 C176.492 8.926 170.616 8.916 164.739 8.907 C161.071 8.902 157.402 8.896 153.733 8.89 C142.262 8.871 130.79 8.857 119.319 8.848 C106.063 8.838 92.808 8.812 79.553 8.772 C69.315 8.742 59.077 8.727 48.839 8.723 C42.72 8.721 36.602 8.712 30.483 8.687 C24.73 8.664 18.976 8.659 13.222 8.67 C11.109 8.67 8.995 8.664 6.882 8.65 C4 8.633 1.119 8.639 -1.763 8.653 C-2.603 8.642 -3.442 8.631 -4.307 8.619 C-9.286 8.675 -12.256 9.169 -15.697 13.14 Z " fill="#FBFBFB" transform="translate(27.696578979492188,46.85955810546875)"/>
<path d="M0 0 C-0.487 0.393 -0.974 0.786 -1.476 1.191 C-3.473 3.561 -3.379 4.876 -3.388 7.952 C-3.398 8.974 -3.407 9.996 -3.418 11.049 C-3.413 12.169 -3.409 13.29 -3.404 14.445 C-3.411 15.625 -3.418 16.806 -3.425 18.023 C-3.44 21.262 -3.442 24.502 -3.436 27.742 C-3.433 30.448 -3.439 33.154 -3.445 35.86 C-3.459 42.247 -3.457 48.634 -3.446 55.021 C-3.435 61.604 -3.449 68.187 -3.475 74.77 C-3.498 80.425 -3.504 86.08 -3.498 91.735 C-3.495 95.112 -3.497 98.487 -3.515 101.863 C-3.529 105.632 -3.519 109.399 -3.502 113.167 C-3.511 114.282 -3.521 115.396 -3.531 116.545 C-3.473 122.647 -3.155 126.389 1 131 C1.66 131.33 2.32 131.66 3 132 C3 132.66 3 133.32 3 134 C0.343 133.848 -1.442 133.527 -3.41 131.668 C-6.803 127.602 -8.123 125.351 -8.14 120.148 C-8.146 119.123 -8.152 118.098 -8.158 117.042 C-8.159 115.913 -8.16 114.784 -8.161 113.621 C-8.166 112.436 -8.171 111.251 -8.176 110.029 C-8.188 106.773 -8.196 103.517 -8.2 100.261 C-8.203 98.227 -8.207 96.194 -8.212 94.161 C-8.225 87.802 -8.235 81.444 -8.239 75.085 C-8.243 67.739 -8.261 60.393 -8.29 53.047 C-8.311 47.372 -8.322 41.698 -8.323 36.023 C-8.324 32.632 -8.33 29.241 -8.348 25.85 C-8.365 22.069 -8.363 18.289 -8.356 14.508 C-8.366 13.381 -8.375 12.254 -8.384 11.093 C-8.379 10.066 -8.373 9.038 -8.367 7.979 C-8.369 7.085 -8.37 6.19 -8.372 5.269 C-7.55 0.255 -4.619 -0.374 0 0 Z " fill="#444444" transform="translate(20,57)"/>
<path d="M0 0 C3.875 0.875 3.875 0.875 5 2 C5.105 3.568 5.14 5.14 5.147 6.711 C5.154 7.731 5.161 8.75 5.169 9.8 C5.172 10.928 5.174 12.056 5.177 13.218 C5.184 14.398 5.19 15.578 5.197 16.795 C5.213 20.043 5.225 23.291 5.233 26.539 C5.238 28.569 5.244 30.598 5.251 32.627 C5.27 38.977 5.284 45.327 5.292 51.676 C5.302 59.005 5.328 66.334 5.369 73.663 C5.399 79.327 5.414 84.99 5.417 90.654 C5.419 94.037 5.428 97.42 5.453 100.802 C5.478 104.58 5.477 108.357 5.47 112.135 C5.483 113.253 5.496 114.371 5.509 115.522 C5.467 121.673 5.13 125.327 1 130 C-1.658 132.416 -2.353 133 -6 133 C-6 131 -6 131 -3.562 128.5 C-2.717 127.675 -1.871 126.85 -1 126 C0.247 123.506 0.123 121.842 0.12 119.052 C0.122 118.006 0.123 116.96 0.124 115.882 C0.121 114.73 0.117 113.577 0.114 112.39 C0.114 111.18 0.114 109.971 0.114 108.724 C0.113 105.402 0.108 102.08 0.101 98.758 C0.095 95.288 0.095 91.818 0.093 88.348 C0.09 81.775 0.082 75.202 0.072 68.629 C0.061 61.146 0.055 53.664 0.05 46.181 C0.04 30.788 0.022 15.394 0 0 Z " fill="#444444" transform="translate(239,58)"/>
<path d="M0 0 C2 3 2 3 1.812 6.062 C1 9 1 9 -2 11 C-5.062 10.812 -5.062 10.812 -8 10 C-10.155 6.767 -10.469 5.748 -10 2 C-7.597 -2.241 -4.215 -1.073 0 0 Z " fill="#414141" transform="translate(230,69)"/>
<path d="M0 0 C0.496 0.001 0.496 0.001 3.004 0.008 C3.993 0.005 4.981 0.003 6 0 C8.566 0.133 8.566 0.133 10.566 1.133 C10.566 3.113 10.566 5.093 10.566 7.133 C7.965 8.434 5.969 8.301 3.066 8.32 C2.087 8.334 1.107 8.349 0.098 8.363 C-2.434 8.133 -2.434 8.133 -4.434 6.133 C-3.71 0.202 -3.71 0.202 0 0 Z " fill="#404040" transform="translate(27.43359375,79.8671875)"/>
<path d="M0 0 C2.625 0.375 2.625 0.375 5 1 C5.625 3.375 5.625 3.375 6 6 C5.34 6.66 4.68 7.32 4 8 C1.375 7.625 1.375 7.625 -1 7 C-1.625 4.625 -1.625 4.625 -2 2 C-1.34 1.34 -0.68 0.68 0 0 Z " fill="#414141" transform="translate(54,80)"/>
</svg>
