<?xml version="1.0" encoding="UTF-8"?>
<!-- Generator: visioncortex VTracer 0.6.12 -->
<svg version="1.1" xmlns="http://www.w3.org/2000/svg" width="256" height="256">
<path d="M0 0 C0.444 -0.001 0.444 -0.001 2.689 -0.009 C5.668 -0.018 8.647 -0.019 11.626 -0.021 C13.76 -0.025 15.894 -0.03 18.028 -0.036 C23.829 -0.049 29.631 -0.055 35.433 -0.06 C39.058 -0.063 42.683 -0.067 46.308 -0.071 C57.651 -0.085 68.993 -0.095 80.335 -0.098 C93.427 -0.103 106.519 -0.12 119.61 -0.149 C129.73 -0.171 139.85 -0.181 149.97 -0.182 C156.014 -0.184 162.058 -0.189 168.101 -0.207 C173.789 -0.224 179.476 -0.226 185.163 -0.217 C187.248 -0.216 189.332 -0.221 191.417 -0.231 C194.269 -0.243 197.12 -0.237 199.972 -0.227 C200.791 -0.235 201.61 -0.243 202.455 -0.251 C209.451 -0.192 215.77 1.039 221.241 5.578 C224.423 9.532 225.552 12.184 225.571 17.275 C225.575 17.794 225.575 17.794 225.597 20.418 C225.596 20.985 225.596 20.985 225.594 23.85 C225.601 25.048 225.607 26.245 225.614 27.478 C225.63 30.759 225.637 34.041 225.638 37.322 C225.639 39.374 225.644 41.427 225.649 43.479 C225.667 50.646 225.676 57.814 225.674 64.981 C225.673 71.65 225.694 78.319 225.726 84.987 C225.752 90.722 225.762 96.456 225.761 102.19 C225.761 105.611 225.766 109.032 225.787 112.453 C225.807 116.273 225.801 120.093 225.789 123.913 C225.8 125.037 225.812 126.162 225.823 127.32 C225.762 135.006 224.573 140.321 219.444 146.312 C207.626 156.177 195.57 157.33 180.553 158.64 C180.198 158.672 180.198 158.672 178.398 158.831 C125.159 163.486 71.797 163.584 18.585 158.512 C16.881 158.35 15.176 158.192 13.471 158.038 C-3.464 156.482 -3.464 156.482 -10.697 152.14 C-11.506 151.66 -12.316 151.179 -13.15 150.683 C-18.426 146.703 -22.555 142.566 -24.697 136.14 C-24.795 134.469 -24.836 132.794 -24.844 131.119 C-24.851 130.082 -24.858 129.045 -24.865 127.976 C-24.868 126.838 -24.871 125.7 -24.874 124.528 C-24.88 123.33 -24.887 122.131 -24.893 120.896 C-24.913 116.92 -24.925 112.944 -24.935 108.969 C-24.939 107.598 -24.943 106.228 -24.947 104.858 C-24.966 98.419 -24.98 91.98 -24.989 85.542 C-24.999 78.117 -25.025 70.693 -25.065 63.268 C-25.096 57.524 -25.11 51.781 -25.114 46.037 C-25.116 42.609 -25.125 39.181 -25.15 35.753 C-25.174 31.925 -25.174 28.098 -25.167 24.27 C-25.179 23.141 -25.192 22.011 -25.205 20.847 C-25.163 14.388 -24.57 10.384 -20.697 5.14 C-18.697 3.617 -18.697 3.617 -16.697 2.765 C-16.037 2.469 -15.377 2.172 -14.697 1.867 C-9.793 0.086 -5.18 -0.005 0 0 Z " fill="#3095CE" transform="translate(27.696578979492188,46.85955810546875)"/>
<path d="M0 0 C0.976 -0.006 1.952 -0.011 2.957 -0.017 C3.494 -0.015 3.494 -0.015 6.213 -0.005 C7.341 -0.008 8.47 -0.012 9.633 -0.015 C13.378 -0.024 17.124 -0.018 20.869 -0.012 C23.462 -0.013 26.055 -0.015 28.648 -0.017 C34.089 -0.02 39.53 -0.016 44.971 -0.007 C51.266 0.004 57.561 0.001 63.856 -0.01 C69.905 -0.021 75.955 -0.02 82.004 -0.014 C84.581 -0.012 87.159 -0.014 89.736 -0.019 C93.333 -0.024 96.929 -0.016 100.525 -0.005 C101.6 -0.009 102.674 -0.013 103.781 -0.017 C104.757 -0.011 105.733 -0.006 106.738 0 C107.589 0.001 108.44 0.002 109.317 0.002 C111.369 0.254 111.369 0.254 113.369 2.254 C113.615 4.312 113.615 4.312 113.61 6.898 C113.612 7.877 113.615 8.856 113.618 9.864 C113.614 10.403 113.614 10.403 113.596 13.129 C113.596 14.261 113.597 15.393 113.597 16.559 C113.596 20.314 113.58 24.069 113.564 27.824 C113.561 30.422 113.558 33.02 113.556 35.618 C113.549 41.766 113.533 47.914 113.513 54.062 C113.491 61.061 113.48 68.06 113.47 75.058 C113.449 89.457 113.414 103.855 113.369 118.254 C101.422 121.423 87.916 120.417 75.635 120.422 C73.863 120.425 72.092 120.429 70.32 120.432 C66.629 120.438 62.938 120.44 59.247 120.439 C54.574 120.439 49.9 120.453 45.227 120.47 C41.573 120.481 37.92 120.483 34.267 120.483 C32.546 120.484 30.826 120.488 29.106 120.496 C17.066 120.546 5.319 119.729 -6.631 118.254 C-6.678 103.164 -6.713 88.074 -6.734 72.984 C-6.745 65.978 -6.759 58.972 -6.782 51.965 C-6.804 45.209 -6.815 38.453 -6.821 31.697 C-6.824 29.114 -6.832 26.531 -6.842 23.948 C-6.857 20.342 -6.859 16.736 -6.858 13.129 C-6.862 12.591 -6.862 12.591 -6.88 9.864 C-6.877 8.886 -6.874 7.907 -6.871 6.898 C-6.872 6.471 -6.872 6.471 -6.877 4.312 C-6.357 -0.032 -3.717 0.003 0 0 Z " fill="#8B8B8B" transform="translate(74.630859375,59.74603271484375)"/>
<path d="M0 0 C0.976 -0.006 1.952 -0.011 2.957 -0.017 C3.494 -0.015 3.494 -0.015 6.213 -0.005 C7.341 -0.008 8.47 -0.012 9.633 -0.015 C13.378 -0.024 17.124 -0.018 20.869 -0.012 C23.462 -0.013 26.055 -0.015 28.648 -0.017 C34.089 -0.02 39.53 -0.016 44.971 -0.007 C51.266 0.004 57.561 0.001 63.856 -0.01 C69.905 -0.021 75.955 -0.02 82.004 -0.014 C84.581 -0.012 87.159 -0.014 89.736 -0.019 C93.333 -0.024 96.929 -0.016 100.525 -0.005 C101.6 -0.009 102.674 -0.013 103.781 -0.017 C104.757 -0.011 105.733 -0.006 106.738 0 C107.589 0.001 108.44 0.002 109.317 0.002 C111.369 0.254 111.369 0.254 113.369 2.254 C113.615 4.312 113.615 4.312 113.61 6.898 C113.612 7.877 113.615 8.856 113.618 9.864 C113.614 10.403 113.614 10.403 113.596 13.129 C113.596 14.261 113.597 15.393 113.597 16.559 C113.596 20.314 113.58 24.069 113.564 27.824 C113.561 30.422 113.558 33.02 113.556 35.618 C113.549 41.766 113.533 47.914 113.513 54.062 C113.491 61.061 113.48 68.06 113.47 75.058 C113.449 89.457 113.414 103.855 113.369 118.254 C101.422 121.423 87.916 120.417 75.635 120.422 C73.863 120.425 72.092 120.429 70.32 120.432 C66.629 120.438 62.938 120.44 59.247 120.439 C54.574 120.439 49.9 120.453 45.227 120.47 C41.573 120.481 37.92 120.483 34.267 120.483 C32.546 120.484 30.826 120.488 29.106 120.496 C17.066 120.546 5.319 119.729 -6.631 118.254 C-6.678 103.164 -6.713 88.074 -6.734 72.984 C-6.745 65.978 -6.759 58.972 -6.782 51.965 C-6.804 45.209 -6.815 38.453 -6.821 31.697 C-6.824 29.114 -6.832 26.531 -6.842 23.948 C-6.857 20.342 -6.859 16.736 -6.858 13.129 C-6.862 12.591 -6.862 12.591 -6.88 9.864 C-6.877 8.886 -6.874 7.907 -6.871 6.898 C-6.872 6.471 -6.872 6.471 -6.877 4.312 C-6.357 -0.032 -3.717 0.003 0 0 Z M9.369 20.254 C9.369 47.974 9.369 75.694 9.369 104.254 C38.409 104.254 67.449 104.254 97.369 104.254 C97.369 76.534 97.369 48.814 97.369 20.254 C68.329 20.254 39.289 20.254 9.369 20.254 Z " fill="#323434" transform="translate(74.630859375,59.74603271484375)"/>
<path d="M0 0 C0.444 -0.001 0.444 -0.001 2.689 -0.009 C5.668 -0.018 8.647 -0.019 11.626 -0.021 C13.76 -0.025 15.894 -0.03 18.028 -0.036 C23.829 -0.049 29.631 -0.055 35.433 -0.06 C39.058 -0.063 42.683 -0.067 46.308 -0.071 C57.651 -0.085 68.993 -0.095 80.335 -0.098 C93.427 -0.103 106.519 -0.12 119.61 -0.149 C129.73 -0.171 139.85 -0.181 149.97 -0.182 C156.014 -0.184 162.058 -0.189 168.101 -0.207 C173.789 -0.224 179.476 -0.226 185.163 -0.217 C187.248 -0.216 189.332 -0.221 191.417 -0.231 C194.269 -0.243 197.12 -0.237 199.972 -0.227 C200.791 -0.235 201.61 -0.243 202.455 -0.251 C209.451 -0.192 215.77 1.039 221.241 5.578 C224.423 9.532 225.552 12.184 225.571 17.275 C225.575 17.794 225.575 17.794 225.597 20.418 C225.596 20.985 225.596 20.985 225.594 23.85 C225.601 25.048 225.607 26.245 225.614 27.478 C225.63 30.759 225.637 34.041 225.638 37.322 C225.639 39.374 225.644 41.427 225.649 43.479 C225.667 50.646 225.676 57.814 225.674 64.981 C225.673 71.65 225.694 78.319 225.726 84.987 C225.752 90.722 225.762 96.456 225.761 102.19 C225.761 105.611 225.766 109.032 225.787 112.453 C225.807 116.273 225.801 120.093 225.789 123.913 C225.8 125.037 225.812 126.162 225.823 127.32 C225.762 135.006 224.573 140.321 219.444 146.312 C207.626 156.177 195.57 157.33 180.553 158.64 C180.198 158.672 180.198 158.672 178.398 158.831 C125.159 163.486 71.797 163.584 18.585 158.512 C16.881 158.35 15.176 158.192 13.471 158.038 C-3.464 156.482 -3.464 156.482 -10.697 152.14 C-11.506 151.66 -12.316 151.179 -13.15 150.683 C-18.426 146.703 -22.555 142.566 -24.697 136.14 C-24.795 134.469 -24.836 132.794 -24.844 131.119 C-24.851 130.082 -24.858 129.045 -24.865 127.976 C-24.868 126.838 -24.871 125.7 -24.874 124.528 C-24.88 123.33 -24.887 122.131 -24.893 120.896 C-24.913 116.92 -24.925 112.944 -24.935 108.969 C-24.939 107.598 -24.943 106.228 -24.947 104.858 C-24.966 98.419 -24.98 91.98 -24.989 85.542 C-24.999 78.117 -25.025 70.693 -25.065 63.268 C-25.096 57.524 -25.11 51.781 -25.114 46.037 C-25.116 42.609 -25.125 39.181 -25.15 35.753 C-25.174 31.925 -25.174 28.098 -25.167 24.27 C-25.179 23.141 -25.192 22.011 -25.205 20.847 C-25.163 14.388 -24.57 10.384 -20.697 5.14 C-18.697 3.617 -18.697 3.617 -16.697 2.765 C-16.037 2.469 -15.377 2.172 -14.697 1.867 C-9.793 0.086 -5.18 -0.005 0 0 Z M-15.697 13.14 C-16.323 15.521 -16.323 15.521 -16.325 18.213 C-16.337 19.236 -16.35 20.259 -16.363 21.314 C-16.351 22.431 -16.34 23.548 -16.328 24.699 C-16.335 25.879 -16.342 27.06 -16.349 28.277 C-16.363 31.513 -16.355 34.748 -16.335 37.984 C-16.319 41.374 -16.328 44.763 -16.333 48.153 C-16.337 53.848 -16.321 59.542 -16.294 65.237 C-16.261 71.812 -16.261 78.388 -16.279 84.963 C-16.295 91.296 -16.288 97.628 -16.271 103.961 C-16.264 106.652 -16.265 109.343 -16.272 112.034 C-16.278 115.798 -16.257 119.56 -16.23 123.324 C-16.237 124.436 -16.243 125.549 -16.25 126.696 C-16.174 132.825 -15.794 136.473 -11.697 141.14 C-9.986 142.75 -9.986 142.75 -8.322 143.89 C-7.778 144.277 -7.234 144.664 -6.673 145.062 C-2.194 147.505 2.399 148.426 7.432 148.922 C8.636 149.042 9.839 149.161 11.079 149.285 C12.329 149.402 13.578 149.52 14.866 149.64 C16.027 149.758 17.188 149.875 18.383 149.996 C21.823 150.33 25.262 150.637 28.705 150.924 C30.552 151.078 32.399 151.236 34.245 151.397 C54.167 153.104 73.966 153.456 93.949 153.401 C98.135 153.39 102.321 153.397 106.507 153.408 C196.572 153.618 196.572 153.618 211.803 141.64 C215.537 137.907 216.551 135.298 216.571 130.048 C216.579 129.02 216.588 127.993 216.597 126.934 C216.596 125.812 216.595 124.69 216.594 123.535 C216.601 122.349 216.607 121.163 216.614 119.942 C216.63 116.694 216.637 113.446 216.638 110.198 C216.639 108.169 216.644 106.14 216.649 104.112 C216.667 97.034 216.676 89.957 216.674 82.879 C216.673 76.28 216.694 69.681 216.726 63.081 C216.752 57.415 216.762 51.748 216.761 46.082 C216.761 42.698 216.766 39.314 216.787 35.929 C216.807 32.158 216.801 28.388 216.789 24.617 C216.8 23.493 216.812 22.369 216.823 21.212 C216.815 20.187 216.807 19.162 216.798 18.106 C216.799 17.214 216.8 16.322 216.801 15.404 C216.303 13.14 216.303 13.14 214.46 11.393 C209.951 8.774 205.68 8.992 200.624 8.993 C199.727 8.99 198.829 8.986 197.905 8.982 C194.885 8.971 191.866 8.967 188.847 8.963 C186.687 8.957 184.527 8.951 182.368 8.944 C176.492 8.926 170.616 8.916 164.739 8.907 C161.071 8.902 157.402 8.896 153.733 8.89 C142.262 8.871 130.79 8.857 119.319 8.848 C106.063 8.838 92.808 8.812 79.553 8.772 C69.315 8.742 59.077 8.727 48.839 8.723 C42.72 8.721 36.602 8.712 30.483 8.687 C24.73 8.664 18.976 8.659 13.222 8.67 C11.109 8.67 8.995 8.664 6.882 8.65 C4 8.633 1.119 8.639 -1.763 8.653 C-2.603 8.642 -3.442 8.631 -4.307 8.619 C-9.286 8.675 -12.256 9.169 -15.697 13.14 Z " fill="#FBFCFD" transform="translate(27.696578979492188,46.85955810546875)"/>
<path d="M0 0 C0.841 -0.006 1.683 -0.011 2.549 -0.017 C3.012 -0.015 3.012 -0.015 5.352 -0.005 C6.324 -0.008 7.296 -0.012 8.298 -0.015 C11.524 -0.024 14.75 -0.018 17.977 -0.012 C20.211 -0.013 22.445 -0.015 24.68 -0.017 C29.367 -0.02 34.055 -0.016 38.742 -0.007 C44.762 0.005 50.781 -0.002 56.801 -0.014 C61.416 -0.021 66.031 -0.019 70.646 -0.014 C72.867 -0.012 75.087 -0.014 77.307 -0.019 C80.405 -0.024 83.503 -0.016 86.602 -0.005 C87.526 -0.009 88.451 -0.013 89.404 -0.017 C89.824 -0.014 89.824 -0.014 91.953 0 C92.686 0.001 93.419 0.002 94.174 0.002 C95.977 0.254 95.977 0.254 97.977 2.254 C98.165 5.298 98.228 8.25 98.204 11.294 C98.204 12.23 98.204 13.167 98.204 14.132 C98.203 17.238 98.188 20.343 98.172 23.449 C98.168 25.599 98.165 27.748 98.163 29.898 C98.156 35.563 98.136 41.228 98.114 46.893 C98.093 52.671 98.084 58.449 98.074 64.227 C98.053 75.569 98.019 86.912 97.977 98.254 C89.166 101.191 79.141 100.374 69.977 100.254 C69.977 102.564 69.977 104.874 69.977 107.254 C54.137 107.254 38.297 107.254 21.977 107.254 C21.977 104.944 21.977 102.634 21.977 100.254 C21.094 100.266 20.211 100.277 19.301 100.289 C0.506 100.43 0.506 100.43 -6.023 98.254 C-6.07 85.772 -6.105 73.289 -6.127 60.807 C-6.138 55.011 -6.152 49.216 -6.174 43.42 C-6.196 37.831 -6.208 32.242 -6.213 26.653 C-6.217 24.517 -6.224 22.381 -6.235 20.244 C-6.249 17.261 -6.251 14.277 -6.25 11.294 C-6.258 10.403 -6.265 9.513 -6.272 8.595 C-6.253 2.9 -6.159 0.006 0 0 Z M1.977 8.254 C1.977 35.974 1.977 63.694 1.977 92.254 C31.017 92.254 60.057 92.254 89.977 92.254 C89.977 64.534 89.977 36.814 89.977 8.254 C60.937 8.254 31.897 8.254 1.977 8.254 Z " fill="#1A1A1A" transform="translate(82.0234375,71.74603271484375)"/>
<path d="M0 0 C5.178 2.788 8.593 5.435 11.25 10.75 C12.975 16.589 13.183 22.395 10.625 28 C7.99 32.674 4.634 35.36 0 38.062 C-6.731 39.745 -12.92 39.501 -18.996 36.016 C-23.694 32.626 -26.52 28.454 -27.75 22.75 C-28.531 16.295 -27.74 11.011 -23.75 5.75 C-16.561 -0.904 -9.467 -3.156 0 0 Z " fill="#2C8ABD" transform="translate(47.75,97.25)"/>
<path d="M0 0 C8.93 -0.624 8.93 -0.624 13 1.75 C16.01 5.137 16.897 6.868 17.312 11.438 C16.905 16.083 15.387 18.683 12.012 21.887 C-12.018 40.504 -12.018 40.504 -19.711 40.316 C-23.291 39.822 -25.35 38.391 -28 36 C-30.425 32.31 -30.409 28.518 -29.77 24.254 C-28.248 19.798 -24.711 17.656 -21 15 C-19.855 14.139 -18.71 13.277 -17.566 12.414 C-16.338 11.503 -15.107 10.594 -13.875 9.688 C-13.29 9.254 -12.704 8.821 -12.101 8.375 C-9.315 6.385 -6.898 4.967 -3.633 3.895 C-2.764 3.599 -1.895 3.304 -1 3 C-0.67 2.01 -0.34 1.02 0 0 Z " fill="#2C88BA" transform="translate(221,90)"/>
<path d="M0 0 C1.084 0.005 2.168 0.01 3.285 0.016 C3.87 0.017 3.87 0.017 6.83 0.026 C7.446 0.03 7.446 0.03 10.562 0.051 C11.18 0.053 11.18 0.053 14.306 0.065 C17.371 0.077 20.435 0.093 23.5 0.114 C24.422 2.879 24.618 4.496 24.597 7.344 C24.594 8.146 24.591 8.949 24.588 9.776 C24.579 10.609 24.571 11.442 24.562 12.301 C24.558 13.146 24.553 13.991 24.549 14.862 C24.537 16.946 24.519 19.03 24.5 21.114 C21.381 22.153 19.225 22.228 15.957 22.211 C14.884 22.208 13.81 22.205 12.705 22.201 C11.585 22.193 10.466 22.185 9.312 22.176 C8.181 22.172 7.05 22.167 5.885 22.162 C3.09 22.151 0.295 22.134 -2.5 22.114 C-3.413 19.374 -3.629 17.739 -3.633 14.918 C-3.634 14.12 -3.636 13.322 -3.637 12.5 C-3.633 11.671 -3.629 10.843 -3.625 9.989 C-3.629 9.152 -3.633 8.315 -3.637 7.453 C-3.625 0.165 -3.625 0.165 0 0 Z " fill="#376E8C" transform="translate(33.500244140625,153.886474609375)"/>
<path d="M0 0 C-0.487 0.393 -0.974 0.786 -1.476 1.191 C-3.473 3.561 -3.379 4.876 -3.388 7.952 C-3.398 8.974 -3.407 9.996 -3.418 11.049 C-3.413 12.169 -3.409 13.29 -3.404 14.445 C-3.411 15.625 -3.418 16.806 -3.425 18.023 C-3.44 21.262 -3.442 24.502 -3.436 27.742 C-3.433 30.448 -3.439 33.154 -3.445 35.86 C-3.459 42.247 -3.457 48.634 -3.446 55.021 C-3.435 61.604 -3.449 68.187 -3.475 74.77 C-3.498 80.425 -3.504 86.08 -3.498 91.735 C-3.495 95.112 -3.497 98.487 -3.515 101.863 C-3.529 105.632 -3.519 109.399 -3.502 113.167 C-3.511 114.282 -3.521 115.396 -3.531 116.545 C-3.472 122.722 -3.042 126.253 1 131 C1.33 131.66 1.66 132.32 2 133 C-1.578 132.702 -2.762 132.258 -5.25 129.562 C-7.648 126.052 -8.126 124.351 -8.14 120.148 C-8.146 119.123 -8.152 118.098 -8.158 117.042 C-8.159 115.913 -8.16 114.784 -8.161 113.621 C-8.166 112.436 -8.171 111.251 -8.176 110.029 C-8.188 106.773 -8.196 103.517 -8.2 100.261 C-8.203 98.227 -8.207 96.194 -8.212 94.161 C-8.225 87.802 -8.235 81.444 -8.239 75.085 C-8.243 67.739 -8.261 60.393 -8.29 53.047 C-8.311 47.372 -8.322 41.698 -8.323 36.023 C-8.324 32.632 -8.33 29.241 -8.348 25.85 C-8.365 22.069 -8.363 18.289 -8.356 14.508 C-8.366 13.381 -8.375 12.254 -8.384 11.093 C-8.379 10.066 -8.373 9.038 -8.367 7.979 C-8.369 7.085 -8.37 6.19 -8.372 5.269 C-7.55 0.255 -4.619 -0.374 0 0 Z " fill="#308DC0" transform="translate(20,57)"/>
<path d="M0 0 C4.875 0.875 4.875 0.875 6 2 C6.105 3.568 6.14 5.14 6.147 6.711 C6.154 7.731 6.161 8.75 6.169 9.8 C6.172 10.928 6.174 12.056 6.177 13.218 C6.184 14.398 6.19 15.578 6.197 16.795 C6.213 20.043 6.225 23.291 6.233 26.539 C6.238 28.569 6.244 30.598 6.251 32.627 C6.27 38.977 6.284 45.327 6.292 51.676 C6.302 59.005 6.328 66.334 6.369 73.663 C6.399 79.327 6.414 84.99 6.417 90.654 C6.419 94.037 6.428 97.42 6.453 100.802 C6.478 104.58 6.477 108.357 6.47 112.135 C6.483 113.253 6.496 114.371 6.509 115.522 C6.468 121.652 6.183 125.381 2 130 C-1 132 -1 132 -3.188 131.625 C-3.786 131.419 -4.384 131.213 -5 131 C-4.598 130.608 -4.598 130.608 -2.562 128.625 C0.797 125.183 1.125 123.797 1.127 119.141 C1.13 118.115 1.133 117.089 1.136 116.031 C1.134 114.901 1.131 113.77 1.129 112.605 C1.13 112.012 1.13 112.012 1.135 109.008 C1.138 105.748 1.137 102.488 1.134 99.228 C1.132 95.82 1.134 92.412 1.136 89.005 C1.138 83.281 1.135 77.558 1.13 71.835 C1.125 65.213 1.127 58.591 1.132 51.968 C1.137 46.289 1.137 40.609 1.135 34.929 C1.133 31.534 1.133 28.139 1.136 24.744 C1.139 20.961 1.135 17.178 1.129 13.395 C1.131 12.264 1.133 11.134 1.136 9.969 C1.134 9.456 1.134 9.456 1.127 6.859 C1.127 5.963 1.126 5.068 1.126 4.146 C1 2 1 2 0 0 Z " fill="#2F8DC0" transform="translate(238,58)"/>
<path d="M0 0 C3.127 2.061 4.335 3.354 5.75 6.812 C6.316 12.002 5.705 15.479 2.75 19.812 C-1.583 22.767 -5.061 23.379 -10.25 22.812 C-13.709 21.397 -15.001 20.19 -17.062 17.062 C-18.788 12.341 -19.076 8.724 -17.062 4.062 C-12.348 -1.79 -6.952 -2.54 0 0 Z " fill="#3F4243" transform="translate(46.25,105.1875)"/>
<path d="M0 0 C3.539 1.651 4.811 2.716 7 6 C7.46 10.965 7.151 14.062 4 18 C0.578 20.566 -2.848 20.51 -7 20 C-9.63 17.827 -11.473 16.053 -13 13 C-13.394 8.819 -13.45 6.691 -11.125 3.125 C-7.534 -0.466 -5.008 -0.339 0 0 Z " fill="#3F4244" transform="translate(227,92)"/>
<path d="M0 0 C3.954 0.264 5.654 0.861 8.75 3.25 C11.234 6.976 11.13 8.837 10.75 13.25 C9.495 16.073 8.466 17.713 6 19.562 C2.688 20.575 0.196 20.673 -3.25 20.25 C-7.129 17.045 -9.058 14.944 -9.625 9.938 C-9.158 5.344 -7.73 4.136 -4.25 1.25 C-3.25 0.25 -3.25 0.25 0 0 Z " fill="#3F4244" transform="translate(203.25,107.75)"/>
<path d="M0 0 C2.625 -0.027 5.25 -0.047 7.875 -0.062 C8.621 -0.071 9.368 -0.079 10.137 -0.088 C15.773 -0.113 15.773 -0.113 18 1 C18.449 2.961 18.449 2.961 18.688 5.375 C18.774 6.166 18.86 6.958 18.949 7.773 C19 10 19 10 18 13 C15.729 13.027 13.458 13.046 11.188 13.062 C10.555 13.068 10.555 13.068 7.355 13.098 C4 13 4 13 1 12 C0.224 7.929 -0.046 4.139 0 0 Z " fill="#35779B" transform="translate(39,163)"/>
<path d="M0 0 C1.875 1.125 1.875 1.125 3 3 C3.394 6.149 3.529 8.119 1.875 10.875 C-0.881 12.529 -2.851 12.394 -6 12 C-7.875 10.875 -7.875 10.875 -9 9 C-9.394 5.851 -9.529 3.881 -7.875 1.125 C-5.119 -0.529 -3.149 -0.394 0 0 Z " fill="#3E454A" transform="translate(229,68)"/>
<path d="M0 0 C0.587 -0.007 0.587 -0.007 3.559 -0.043 C6.562 0.188 6.562 0.188 8.562 2.188 C8.007 6.743 8.007 6.743 6.562 8.188 C4.586 8.313 2.605 8.363 0.625 8.375 C-0.457 8.389 -1.538 8.403 -2.652 8.418 C-5.438 8.188 -5.438 8.188 -7.438 6.188 C-7.625 3.625 -7.625 3.625 -7.438 1.188 C-5.565 -0.685 -2.501 0.014 0 0 Z " fill="#3E4548" transform="translate(30.4375,79.8125)"/>
<path d="M0 0 C2.051 0.033 4.102 0.065 6.152 0.098 C7.218 3.294 7.227 5.755 7.152 9.098 C3.956 10.163 1.495 10.172 -1.848 10.098 C-2.92 6.882 -2.994 4.464 -2.848 1.098 C-1.848 0.098 -1.848 0.098 0 0 Z " fill="#38647C" transform="translate(32.84765625,153.90234375)"/>
<path d="M0 0 C2.625 0.375 2.625 0.375 5 1 C5.625 3.375 5.625 3.375 6 6 C5.34 6.66 4.68 7.32 4 8 C1.375 7.625 1.375 7.625 -1 7 C-1.625 4.625 -1.625 4.625 -2 2 C-1.34 1.34 -0.68 0.68 0 0 Z " fill="#3E464A" transform="translate(54,80)"/>
</svg>
