<?xml version="1.0" encoding="UTF-8"?>
<!-- Generator: visioncortex VTracer 0.6.12 -->
<svg version="1.1" xmlns="http://www.w3.org/2000/svg" width="256" height="256">
<path d="M0 0 C2.327 0.097 4.656 0.126 6.985 0.127 C7.712 0.129 8.439 0.13 9.188 0.132 C11.637 0.136 14.086 0.133 16.535 0.129 C18.286 0.131 20.037 0.133 21.787 0.135 C26.552 0.139 31.316 0.137 36.08 0.134 C41.058 0.132 46.035 0.134 51.012 0.136 C59.372 0.138 67.731 0.135 76.091 0.13 C85.767 0.125 95.443 0.127 105.119 0.132 C113.414 0.137 121.71 0.137 130.005 0.135 C134.965 0.133 139.925 0.133 144.885 0.136 C149.547 0.139 154.209 0.137 158.871 0.131 C160.586 0.13 162.301 0.13 164.016 0.133 C166.349 0.135 168.682 0.132 171.015 0.127 C172.324 0.127 173.632 0.126 174.98 0.126 C178 0 178 0 180 -1 C187.808 -1.875 195.187 -0.6 201.715 3.852 C209.198 10.071 212.376 16.538 214 26 C214.099 28.098 214.148 30.199 214.161 32.3 C214.171 33.552 214.18 34.804 214.19 36.093 C214.195 37.453 214.199 38.812 214.203 40.172 C214.205 40.517 214.205 40.517 214.212 42.264 C214.227 45.918 214.236 49.572 214.24 53.227 C214.246 56.98 214.27 60.733 214.298 64.486 C214.317 67.391 214.322 70.296 214.324 73.201 C214.327 74.584 214.335 75.966 214.348 77.349 C214.441 87.84 213.741 96.574 207 105 C199.153 112.809 191.802 115.153 180.867 115.14 C180.052 115.143 179.237 115.146 178.398 115.149 C175.671 115.158 172.943 115.16 170.216 115.161 C168.259 115.166 166.303 115.171 164.346 115.176 C159.032 115.189 153.718 115.196 148.404 115.2 C145.082 115.203 141.761 115.207 138.44 115.212 C128.044 115.225 117.649 115.235 107.254 115.239 C95.261 115.243 83.268 115.261 71.275 115.29 C62 115.312 52.725 115.322 43.45 115.323 C37.913 115.324 32.375 115.33 26.838 115.348 C21.627 115.364 16.417 115.366 11.207 115.358 C9.298 115.357 7.389 115.361 5.481 115.371 C2.867 115.384 0.255 115.378 -2.359 115.367 C-2.733 115.372 -2.733 115.372 -4.627 115.392 C-13.249 115.312 -21.416 112.606 -27.594 106.398 C-33.838 99.45 -36.103 93.016 -36.161 83.732 C-36.171 82.486 -36.18 81.241 -36.19 79.958 C-36.195 78.605 -36.199 77.252 -36.203 75.898 C-36.205 75.555 -36.205 75.555 -36.212 73.814 C-36.227 70.171 -36.236 66.527 -36.24 62.883 C-36.246 59.148 -36.27 55.413 -36.298 51.678 C-36.317 48.782 -36.322 45.885 -36.324 42.989 C-36.327 41.613 -36.334 40.238 -36.348 38.863 C-36.454 27.024 -35.701 16.198 -27.316 7.191 C-20.795 0.88 -8.967 -4.484 0 0 Z " fill="#252525" transform="translate(39,70)"/>
<path d="M0 0 C2.327 0.097 4.656 0.126 6.985 0.127 C7.712 0.129 8.439 0.13 9.188 0.132 C11.637 0.136 14.086 0.133 16.535 0.129 C18.286 0.131 20.037 0.133 21.787 0.135 C26.552 0.139 31.316 0.137 36.08 0.134 C41.058 0.132 46.035 0.134 51.012 0.136 C59.372 0.138 67.731 0.135 76.091 0.13 C85.767 0.125 95.443 0.127 105.119 0.132 C113.414 0.137 121.71 0.137 130.005 0.135 C134.965 0.133 139.925 0.133 144.885 0.136 C149.547 0.139 154.209 0.137 158.871 0.131 C160.586 0.13 162.301 0.13 164.016 0.133 C166.349 0.135 168.682 0.132 171.015 0.127 C172.324 0.127 173.632 0.126 174.98 0.126 C178 0 178 0 180 -1 C187.808 -1.875 195.187 -0.6 201.715 3.852 C209.198 10.071 212.376 16.538 214 26 C214.099 28.098 214.148 30.199 214.161 32.3 C214.171 33.552 214.18 34.804 214.19 36.093 C214.195 37.453 214.199 38.812 214.203 40.172 C214.205 40.517 214.205 40.517 214.212 42.264 C214.227 45.918 214.236 49.572 214.24 53.227 C214.246 56.98 214.27 60.733 214.298 64.486 C214.317 67.391 214.322 70.296 214.324 73.201 C214.327 74.584 214.335 75.966 214.348 77.349 C214.441 87.84 213.741 96.574 207 105 C199.153 112.809 191.802 115.153 180.867 115.14 C180.052 115.143 179.237 115.146 178.398 115.149 C175.671 115.158 172.943 115.16 170.216 115.161 C168.259 115.166 166.303 115.171 164.346 115.176 C159.032 115.189 153.718 115.196 148.404 115.2 C145.082 115.203 141.761 115.207 138.44 115.212 C128.044 115.225 117.649 115.235 107.254 115.239 C95.261 115.243 83.268 115.261 71.275 115.29 C62 115.312 52.725 115.322 43.45 115.323 C37.913 115.324 32.375 115.33 26.838 115.348 C21.627 115.364 16.417 115.366 11.207 115.358 C9.298 115.357 7.389 115.361 5.481 115.371 C2.867 115.384 0.255 115.378 -2.359 115.367 C-2.733 115.372 -2.733 115.372 -4.627 115.392 C-13.249 115.312 -21.416 112.606 -27.594 106.398 C-33.838 99.45 -36.103 93.016 -36.161 83.732 C-36.171 82.486 -36.18 81.241 -36.19 79.958 C-36.195 78.605 -36.199 77.252 -36.203 75.898 C-36.205 75.555 -36.205 75.555 -36.212 73.814 C-36.227 70.171 -36.236 66.527 -36.24 62.883 C-36.246 59.148 -36.27 55.413 -36.298 51.678 C-36.317 48.782 -36.322 45.885 -36.324 42.989 C-36.327 41.613 -36.334 40.238 -36.348 38.863 C-36.454 27.024 -35.701 16.198 -27.316 7.191 C-20.795 0.88 -8.967 -4.484 0 0 Z M9 14 C8.801 16.791 8.727 19.482 8.741 22.273 C8.738 23.129 8.734 23.984 8.731 24.866 C8.722 27.702 8.728 30.538 8.734 33.375 C8.733 35.34 8.731 37.306 8.729 39.271 C8.726 43.394 8.73 47.516 8.739 51.639 C8.751 56.932 8.744 62.225 8.732 67.518 C8.725 71.577 8.727 75.637 8.732 79.696 C8.734 81.648 8.732 83.6 8.727 85.552 C8.722 88.277 8.73 91.002 8.741 93.727 C8.737 94.539 8.733 95.352 8.729 96.189 C8.771 101.771 8.771 101.771 11 104 C13.677 104.252 13.677 104.252 17.149 104.254 C18.462 104.26 19.774 104.265 21.127 104.271 C22.59 104.267 24.053 104.263 25.516 104.259 C27.05 104.261 28.584 104.265 30.118 104.269 C34.291 104.279 38.464 104.275 42.638 104.269 C46.998 104.264 51.359 104.268 55.72 104.271 C63.044 104.275 70.368 104.27 77.691 104.261 C86.168 104.25 94.644 104.253 103.12 104.264 C110.388 104.273 117.656 104.275 124.924 104.27 C129.269 104.266 133.614 104.266 137.959 104.273 C142.043 104.278 146.128 104.274 150.212 104.263 C151.714 104.26 153.216 104.261 154.718 104.265 C156.762 104.271 158.806 104.263 160.851 104.254 C161.997 104.253 163.142 104.252 164.323 104.252 C167 104 167 104 169 102 C169.199 99.209 169.273 96.518 169.259 93.727 C169.262 92.871 169.266 92.016 169.269 91.134 C169.278 88.298 169.272 85.462 169.266 82.625 C169.267 80.66 169.269 78.694 169.271 76.729 C169.274 72.606 169.27 68.484 169.261 64.361 C169.249 59.068 169.256 53.775 169.268 48.482 C169.275 44.423 169.273 40.363 169.268 36.304 C169.266 34.352 169.268 32.4 169.273 30.448 C169.278 27.723 169.27 24.998 169.259 22.273 C169.261 21.867 169.261 21.867 169.271 19.811 C169.229 14.229 169.229 14.229 167 12 C164.323 11.748 164.323 11.748 160.851 11.746 C159.538 11.74 158.226 11.735 156.873 11.729 C155.41 11.733 153.947 11.737 152.484 11.741 C150.95 11.739 149.416 11.735 147.882 11.731 C143.709 11.721 139.536 11.725 135.362 11.731 C131.002 11.736 126.641 11.732 122.28 11.729 C114.956 11.725 107.632 11.73 100.309 11.739 C91.832 11.75 83.356 11.747 74.88 11.736 C67.612 11.727 60.344 11.725 53.076 11.73 C48.731 11.734 44.386 11.734 40.041 11.727 C35.957 11.722 31.872 11.726 27.788 11.737 C26.286 11.74 24.784 11.739 23.282 11.735 C21.238 11.729 19.194 11.737 17.149 11.746 C16.003 11.747 14.858 11.748 13.677 11.748 C11 12 11 12 9 14 Z " fill="#656565" transform="translate(39,70)"/>
<path d="M0 0 C2.327 0.097 4.656 0.126 6.985 0.127 C7.712 0.129 8.439 0.13 9.188 0.132 C11.637 0.136 14.086 0.133 16.535 0.129 C18.286 0.131 20.037 0.133 21.787 0.135 C26.552 0.139 31.316 0.137 36.08 0.134 C41.058 0.132 46.035 0.134 51.012 0.136 C59.372 0.138 67.731 0.135 76.091 0.13 C85.767 0.125 95.443 0.127 105.119 0.132 C113.414 0.137 121.71 0.137 130.005 0.135 C134.965 0.133 139.925 0.133 144.885 0.136 C149.547 0.139 154.209 0.137 158.871 0.131 C160.586 0.13 162.301 0.13 164.016 0.133 C166.349 0.135 168.682 0.132 171.015 0.127 C172.324 0.127 173.632 0.126 174.98 0.126 C178 0 178 0 180 -1 C187.808 -1.875 195.187 -0.6 201.715 3.852 C209.198 10.071 212.376 16.538 214 26 C214.099 28.098 214.148 30.199 214.161 32.3 C214.171 33.552 214.18 34.804 214.19 36.093 C214.195 37.453 214.199 38.812 214.203 40.172 C214.205 40.517 214.205 40.517 214.212 42.264 C214.227 45.918 214.236 49.572 214.24 53.227 C214.246 56.98 214.27 60.733 214.298 64.486 C214.317 67.391 214.322 70.296 214.324 73.201 C214.327 74.584 214.335 75.966 214.348 77.349 C214.441 87.84 213.741 96.574 207 105 C199.153 112.809 191.802 115.153 180.867 115.14 C180.052 115.143 179.237 115.146 178.398 115.149 C175.671 115.158 172.943 115.16 170.216 115.161 C168.259 115.166 166.303 115.171 164.346 115.176 C159.032 115.189 153.718 115.196 148.404 115.2 C145.082 115.203 141.761 115.207 138.44 115.212 C128.044 115.225 117.649 115.235 107.254 115.239 C95.261 115.243 83.268 115.261 71.275 115.29 C62 115.312 52.725 115.322 43.45 115.323 C37.913 115.324 32.375 115.33 26.838 115.348 C21.627 115.364 16.417 115.366 11.207 115.358 C9.298 115.357 7.389 115.361 5.481 115.371 C2.867 115.384 0.255 115.378 -2.359 115.367 C-2.733 115.372 -2.733 115.372 -4.627 115.392 C-13.249 115.312 -21.416 112.606 -27.594 106.398 C-33.838 99.45 -36.103 93.016 -36.161 83.732 C-36.171 82.486 -36.18 81.241 -36.19 79.958 C-36.195 78.605 -36.199 77.252 -36.203 75.898 C-36.205 75.555 -36.205 75.555 -36.212 73.814 C-36.227 70.171 -36.236 66.527 -36.24 62.883 C-36.246 59.148 -36.27 55.413 -36.298 51.678 C-36.317 48.782 -36.322 45.885 -36.324 42.989 C-36.327 41.613 -36.334 40.238 -36.348 38.863 C-36.454 27.024 -35.701 16.198 -27.316 7.191 C-20.795 0.88 -8.967 -4.484 0 0 Z M-22.812 14.875 C-26.421 20.03 -27.25 24.571 -27.306 30.796 C-27.315 31.448 -27.323 32.099 -27.332 32.77 C-27.356 34.907 -27.364 37.043 -27.371 39.18 C-27.38 40.677 -27.389 42.173 -27.398 43.67 C-27.415 46.802 -27.423 49.934 -27.426 53.066 C-27.431 57.063 -27.469 61.059 -27.514 65.056 C-27.544 68.146 -27.551 71.236 -27.552 74.326 C-27.556 75.799 -27.569 77.272 -27.59 78.744 C-27.696 86.85 -27.769 93.732 -22 100 C-16.452 105.142 -12.302 106.297 -4.828 106.274 C-3.997 106.279 -3.167 106.285 -2.311 106.29 C0.478 106.305 3.266 106.306 6.054 106.306 C8.051 106.314 10.049 106.322 12.046 106.332 C17.476 106.354 22.906 106.362 28.336 106.367 C31.728 106.371 35.121 106.377 38.513 106.384 C50.349 106.409 62.185 106.422 74.021 106.426 C85.052 106.429 96.083 106.459 107.114 106.501 C116.585 106.536 126.056 106.551 135.527 106.552 C141.184 106.553 146.84 106.561 152.496 106.59 C157.819 106.616 163.14 106.618 168.462 106.602 C170.413 106.6 172.365 106.607 174.316 106.623 C176.984 106.643 179.651 106.633 182.32 106.615 C182.704 106.621 182.704 106.621 184.647 106.655 C190.51 106.564 194.418 104.613 199 101 C203.67 95.962 205.246 92.309 205.291 85.447 C205.297 84.797 205.304 84.148 205.311 83.479 C205.33 81.336 205.334 79.194 205.336 77.051 C205.342 75.553 205.349 74.056 205.356 72.559 C205.368 69.419 205.372 66.28 205.371 63.14 C205.37 59.136 205.398 55.134 205.432 51.13 C205.455 48.036 205.458 44.941 205.457 41.847 C205.46 40.372 205.468 38.897 205.484 37.423 C205.65 20.049 205.65 20.049 199.553 13.428 C195.135 9.542 191.607 7.721 185.75 7.875 C185.304 7.884 185.304 7.884 183.047 7.93 C182.371 7.953 181.696 7.976 181 8 C181 8.66 181 9.32 181 10 C178.36 10 175.72 10 173 10 C173 10.99 173 11.98 173 13 C172.01 13 171.02 13 170 13 C169.67 12.01 169.34 11.02 169 10 C151.092 9.845 133.183 9.697 115.275 9.557 C106.958 9.492 98.64 9.424 90.323 9.352 C83.064 9.288 75.805 9.229 68.546 9.175 C64.712 9.146 60.877 9.115 57.042 9.079 C40.999 8.931 25.016 8.894 9 10 C8.67 10.99 8.34 11.98 8 13 C7.01 13 6.02 13 5 13 C5 12.01 5 11.02 5 10 C2.36 10 -0.28 10 -3 10 C-3 9.34 -3 8.68 -3 8 C-11.513 7.383 -16.871 8.312 -22.812 14.875 Z " fill="#FBFBFB" transform="translate(39,70)"/>
<path d="M0 0 C1.312 -0.006 2.625 -0.011 3.977 -0.017 C5.44 -0.013 6.903 -0.009 8.366 -0.005 C9.9 -0.008 11.434 -0.011 12.968 -0.015 C17.142 -0.025 21.315 -0.021 25.488 -0.015 C29.849 -0.01 34.21 -0.014 38.57 -0.017 C45.894 -0.021 53.218 -0.016 60.542 -0.007 C69.018 0.004 77.494 0.001 85.971 -0.01 C93.239 -0.019 100.507 -0.021 107.775 -0.016 C112.12 -0.012 116.465 -0.012 120.81 -0.019 C124.894 -0.024 128.978 -0.02 133.062 -0.009 C134.564 -0.006 136.066 -0.007 137.569 -0.011 C139.613 -0.017 141.657 -0.009 143.701 0 C144.274 0 144.274 0 147.174 0.002 C149.851 0.254 149.851 0.254 151.851 2.254 C152.049 5.044 152.123 7.736 152.109 10.527 C152.111 10.955 152.111 10.955 152.12 13.12 C152.129 15.956 152.123 18.792 152.116 21.629 C152.118 23.594 152.119 25.56 152.122 27.525 C152.125 31.648 152.121 35.77 152.111 39.893 C152.1 45.186 152.106 50.479 152.118 55.772 C152.126 59.831 152.123 63.891 152.118 67.95 C152.117 69.902 152.119 71.854 152.123 73.806 C152.128 76.531 152.121 79.256 152.109 81.981 C152.113 82.793 152.117 83.606 152.122 84.443 C152.079 90.025 152.079 90.025 149.851 92.254 C147.174 92.506 147.174 92.506 143.701 92.508 C143.045 92.511 143.045 92.511 139.724 92.525 C138.261 92.521 136.798 92.517 135.335 92.513 C133.801 92.515 132.267 92.519 130.733 92.523 C126.56 92.533 122.386 92.529 118.213 92.523 C113.852 92.518 109.491 92.522 105.131 92.525 C97.807 92.529 90.483 92.524 83.159 92.515 C74.683 92.504 66.207 92.507 57.73 92.518 C50.462 92.527 43.195 92.529 35.927 92.523 C31.582 92.52 27.237 92.52 22.891 92.527 C18.807 92.532 14.723 92.528 10.639 92.517 C9.137 92.514 7.635 92.515 6.133 92.519 C4.088 92.525 2.044 92.517 0 92.508 C-0.573 92.508 -0.573 92.508 -3.473 92.506 C-6.149 92.254 -6.149 92.254 -8.149 90.254 C-8.348 87.463 -8.422 84.772 -8.408 81.981 C-8.412 81.125 -8.415 80.27 -8.419 79.388 C-8.428 76.552 -8.422 73.716 -8.415 70.879 C-8.416 68.914 -8.418 66.948 -8.421 64.983 C-8.424 60.86 -8.419 56.738 -8.41 52.615 C-8.399 47.322 -8.405 42.029 -8.417 36.736 C-8.425 32.677 -8.422 28.617 -8.417 24.558 C-8.416 22.606 -8.417 20.654 -8.422 18.702 C-8.427 15.977 -8.419 13.252 -8.408 10.527 C-8.412 9.715 -8.416 8.902 -8.42 8.065 C-8.366 0.934 -6.922 0.005 0 0 Z M3.851 8.254 C3.851 33.334 3.851 58.414 3.851 84.254 C48.731 84.254 93.611 84.254 139.851 84.254 C139.851 59.174 139.851 34.094 139.851 8.254 C94.971 8.254 50.091 8.254 3.851 8.254 Z " fill="#0D0D0D" transform="translate(56.1494140625,81.74603271484375)"/>
<path d="M0 0 C6.474 -0.597 10.949 -0.272 16.312 3.578 C20.613 7.202 22.494 10.641 24 16 C24.274 19.249 24.274 19.249 24.306 22.796 C24.315 23.448 24.323 24.099 24.332 24.77 C24.356 26.907 24.364 29.043 24.371 31.18 C24.38 32.677 24.389 34.173 24.398 35.67 C24.415 38.802 24.423 41.934 24.426 45.066 C24.431 49.063 24.469 53.059 24.514 57.056 C24.544 60.146 24.551 63.236 24.552 66.326 C24.556 67.799 24.569 69.272 24.59 70.744 C24.696 78.85 24.769 85.732 19 92 C9.997 100.344 5.338 98 -9 98 C-8.67 67.64 -8.34 37.28 -8 6 C-8.66 5.67 -9.32 5.34 -10 5 C-9.34 5 -8.68 5 -8 5 C-8 4.01 -8 3.02 -8 2 C-5.36 2 -2.72 2 0 2 C0 1.34 0 0.68 0 0 Z " fill="#656565" transform="translate(220,78)"/>
<path d="M0 0 C2.294 0.012 4.587 0.022 6.881 0.033 C14.081 0.066 21.28 0.104 28.48 0.148 C36.754 0.199 45.028 0.233 53.303 0.253 C59.738 0.27 66.172 0.302 72.606 0.345 C76.436 0.371 80.265 0.39 84.095 0.393 C87.68 0.396 91.266 0.418 94.851 0.454 C96.792 0.469 98.733 0.464 100.674 0.459 C101.828 0.474 102.983 0.49 104.172 0.505 C104.674 0.508 104.674 0.508 107.211 0.521 C110.587 1.178 111.776 2.315 113.834 5.031 C114.213 8.085 114.351 10.772 114.304 13.823 C114.306 14.709 114.308 15.596 114.31 16.509 C114.313 19.438 114.286 22.365 114.26 25.293 C114.255 27.325 114.251 29.357 114.25 31.389 C114.242 35.645 114.221 39.901 114.19 44.157 C114.151 49.625 114.133 55.093 114.123 60.562 C114.113 65.764 114.093 70.966 114.072 76.168 C114.069 77.167 114.065 78.166 114.062 79.195 C114.05 82.006 114.032 84.817 114.011 87.628 C114.008 88.469 114.005 89.31 114.003 90.176 C113.949 95.916 113.949 95.916 112.834 97.031 C110.697 97.13 108.557 97.158 106.418 97.158 C106.079 97.159 106.079 97.159 104.364 97.163 C102.075 97.167 99.786 97.164 97.498 97.161 C95.864 97.162 94.23 97.164 92.596 97.166 C88.146 97.17 83.695 97.169 79.245 97.166 C74.598 97.163 69.952 97.165 65.305 97.167 C57.5 97.169 49.695 97.166 41.89 97.162 C32.854 97.156 23.817 97.158 14.78 97.163 C7.035 97.168 -0.709 97.169 -8.453 97.166 C-13.085 97.164 -17.717 97.164 -22.349 97.167 C-26.702 97.17 -31.055 97.168 -35.409 97.163 C-37.011 97.161 -38.614 97.162 -40.216 97.164 C-42.394 97.167 -44.572 97.163 -46.751 97.158 C-47.973 97.158 -49.195 97.157 -50.453 97.157 C-53.166 97.031 -53.166 97.031 -54.166 96.031 C-54.283 93.222 -54.334 90.438 -54.343 87.628 C-54.35 86.746 -54.356 85.865 -54.363 84.957 C-54.383 82.027 -54.395 79.098 -54.405 76.168 C-54.409 75.17 -54.413 74.172 -54.417 73.144 C-54.438 67.861 -54.452 62.579 -54.461 57.296 C-54.472 51.831 -54.507 46.367 -54.547 40.903 C-54.573 36.709 -54.581 32.515 -54.585 28.32 C-54.59 26.306 -54.601 24.291 -54.62 22.276 C-54.644 19.458 -54.643 16.641 -54.636 13.823 C-54.649 12.988 -54.662 12.153 -54.675 11.293 C-54.644 7.876 -54.438 5.48 -52.651 2.529 C-49.157 0.423 -45.916 0.352 -41.944 0.282 C-41.078 0.254 -40.212 0.225 -39.32 0.195 C-26.22 -0.174 -13.104 -0.068 0 0 Z M-50.166 5.031 C-50.365 7.822 -50.439 10.513 -50.425 13.305 C-50.429 14.16 -50.432 15.015 -50.436 15.897 C-50.444 18.733 -50.439 21.57 -50.432 24.406 C-50.433 26.372 -50.435 28.337 -50.438 30.302 C-50.441 34.425 -50.436 38.547 -50.427 42.67 C-50.416 47.963 -50.422 53.256 -50.434 58.549 C-50.441 62.609 -50.439 66.668 -50.434 70.727 C-50.433 72.679 -50.434 74.632 -50.439 76.584 C-50.444 79.308 -50.436 82.033 -50.425 84.758 C-50.429 85.57 -50.433 86.383 -50.437 87.22 C-50.395 92.803 -50.395 92.803 -48.166 95.031 C-45.489 95.283 -45.489 95.283 -42.017 95.285 C-40.704 95.291 -39.392 95.296 -38.04 95.302 C-36.577 95.298 -35.114 95.294 -33.651 95.29 C-32.117 95.293 -30.583 95.296 -29.049 95.301 C-24.875 95.31 -20.702 95.306 -16.528 95.3 C-12.168 95.295 -7.807 95.299 -3.446 95.303 C3.877 95.306 11.201 95.301 18.525 95.292 C27.001 95.281 35.478 95.285 43.954 95.296 C51.222 95.305 58.49 95.306 65.758 95.301 C70.103 95.298 74.448 95.297 78.793 95.304 C82.877 95.31 86.961 95.306 91.046 95.294 C92.548 95.291 94.05 95.292 95.552 95.297 C97.596 95.302 99.64 95.294 101.684 95.285 C102.83 95.284 103.976 95.284 105.157 95.283 C107.834 95.031 107.834 95.031 109.834 93.031 C110.032 90.241 110.106 87.549 110.093 84.758 C110.096 83.902 110.1 83.047 110.103 82.166 C110.112 79.329 110.106 76.493 110.099 73.656 C110.101 71.691 110.103 69.726 110.105 67.76 C110.108 63.638 110.104 59.515 110.095 55.393 C110.083 50.099 110.09 44.806 110.102 39.513 C110.109 35.454 110.107 31.394 110.101 27.335 C110.1 25.383 110.102 23.431 110.106 21.479 C110.111 18.754 110.104 16.029 110.093 13.305 C110.095 12.898 110.095 12.898 110.105 10.842 C110.062 5.26 110.062 5.26 107.834 3.031 C105.157 2.78 105.157 2.78 101.684 2.777 C100.372 2.772 99.059 2.766 97.707 2.76 C96.244 2.764 94.781 2.768 93.318 2.772 C91.784 2.77 90.25 2.766 88.716 2.762 C84.543 2.753 80.369 2.756 76.196 2.763 C71.835 2.768 67.475 2.763 63.114 2.76 C55.79 2.756 48.466 2.761 41.142 2.77 C32.666 2.781 24.19 2.778 15.714 2.767 C8.446 2.758 1.178 2.756 -6.09 2.762 C-10.435 2.765 -14.78 2.765 -19.125 2.759 C-23.21 2.753 -27.294 2.757 -31.378 2.768 C-32.88 2.771 -34.382 2.77 -35.884 2.766 C-37.928 2.76 -39.973 2.768 -42.017 2.777 C-43.163 2.778 -44.309 2.779 -45.489 2.78 C-48.166 3.031 -48.166 3.031 -50.166 5.031 Z " fill="#343434" transform="translate(98.16622543334961,78.96880888938904)"/>
<path d="M0 0 C4.074 0.849 5.544 2.302 8 5.625 C8.625 8.625 8.625 8.625 8 11.625 C5.544 14.948 4.074 16.401 0 17.25 C-4.074 16.401 -5.544 14.948 -8 11.625 C-8.625 8.625 -8.625 8.625 -8 5.625 C-5.544 2.302 -4.074 0.849 0 0 Z " fill="#252525" transform="translate(228,123.375)"/>
<path d="M0 0 C4.074 0.849 5.544 2.302 8 5.625 C8.625 8.625 8.625 8.625 8 11.625 C5.544 14.948 4.074 16.401 0 17.25 C-4.074 16.401 -5.544 14.948 -8 11.625 C-8.625 8.625 -8.625 8.625 -8 5.625 C-5.544 2.302 -4.074 0.849 0 0 Z " fill="#252525" transform="translate(28,95.375)"/>
<path d="M0 0 C2.64 0 5.28 0 8 0 C8 2.64 8 5.28 8 8 C5.36 8 2.72 8 0 8 C0 5.36 0 2.72 0 0 Z " fill="#2F2F2F" transform="translate(30,148)"/>
<path d="M0 0 C2.625 0.375 2.625 0.375 5 1 C5.625 3.375 5.625 3.375 6 6 C5.34 6.66 4.68 7.32 4 8 C1.375 7.625 1.375 7.625 -1 7 C-1.625 4.625 -1.625 4.625 -2 2 C-1.34 1.34 -0.68 0.68 0 0 Z " fill="#313131" transform="translate(220,148)"/>
<path d="M0 0 C2.625 0.375 2.625 0.375 5 1 C5.625 3.375 5.625 3.375 6 6 C5.34 6.66 4.68 7.32 4 8 C1.375 7.625 1.375 7.625 -1 7 C-1.625 4.625 -1.625 4.625 -2 2 C-1.34 1.34 -0.68 0.68 0 0 Z " fill="#2A2A2A" transform="translate(26,136)"/>
<path d="M0 0 C2.625 0.375 2.625 0.375 5 1 C5.625 3.375 5.625 3.375 6 6 C5.34 6.66 4.68 7.32 4 8 C1.375 7.625 1.375 7.625 -1 7 C-1.625 4.625 -1.625 4.625 -2 2 C-1.34 1.34 -0.68 0.68 0 0 Z " fill="#2A2A2A" transform="translate(34,128)"/>
<path d="M0 0 C2.625 0.375 2.625 0.375 5 1 C5.625 3.375 5.625 3.375 6 6 C5.34 6.66 4.68 7.32 4 8 C1.375 7.625 1.375 7.625 -1 7 C-1.625 4.625 -1.625 4.625 -2 2 C-1.34 1.34 -0.68 0.68 0 0 Z " fill="#2A2A2A" transform="translate(18,128)"/>
<path d="M0 0 C2.625 0.375 2.625 0.375 5 1 C5.625 3.375 5.625 3.375 6 6 C5.34 6.66 4.68 7.32 4 8 C1.375 7.625 1.375 7.625 -1 7 C-1.625 4.625 -1.625 4.625 -2 2 C-1.34 1.34 -0.68 0.68 0 0 Z " fill="#2A2A2A" transform="translate(26,120)"/>
<path d="M0 0 C2.625 0.375 2.625 0.375 5 1 C5.625 3.375 5.625 3.375 6 6 C5.34 6.66 4.68 7.32 4 8 C1.375 7.625 1.375 7.625 -1 7 C-1.625 4.625 -1.625 4.625 -2 2 C-1.34 1.34 -0.68 0.68 0 0 Z " fill="#2A2A2A" transform="translate(226,108)"/>
<path d="M0 0 C2.625 0.375 2.625 0.375 5 1 C5.625 3.375 5.625 3.375 6 6 C5.34 6.66 4.68 7.32 4 8 C1.375 7.625 1.375 7.625 -1 7 C-1.625 4.625 -1.625 4.625 -2 2 C-1.34 1.34 -0.68 0.68 0 0 Z " fill="#2A2A2A" transform="translate(234,100)"/>
<path d="M0 0 C2.625 0.375 2.625 0.375 5 1 C5.625 3.375 5.625 3.375 6 6 C5.34 6.66 4.68 7.32 4 8 C1.375 7.625 1.375 7.625 -1 7 C-1.625 4.625 -1.625 4.625 -2 2 C-1.34 1.34 -0.68 0.68 0 0 Z " fill="#2A2A2A" transform="translate(218,100)"/>
<path d="M0 0 C2.625 0.375 2.625 0.375 5 1 C5.625 3.375 5.625 3.375 6 6 C5.34 6.66 4.68 7.32 4 8 C1.375 7.625 1.375 7.625 -1 7 C-1.625 4.625 -1.625 4.625 -2 2 C-1.34 1.34 -0.68 0.68 0 0 Z " fill="#2A2A2A" transform="translate(226,92)"/>
<path d="M0 0 C0.404 0.005 0.404 0.005 2.449 0.027 C2.757 0.033 2.757 0.033 4.312 0.062 C4.312 0.722 4.312 1.382 4.312 2.062 C3.137 2.145 1.961 2.228 0.75 2.312 C-3.85 2.86 -6.782 4.641 -10.688 7.062 C-11.348 7.062 -12.008 7.062 -12.688 7.062 C-12.976 7.702 -13.265 8.341 -13.562 9 C-14.688 11.062 -14.688 11.062 -16.688 12.062 C-15.313 6.869 -11.944 4.058 -7.688 1.062 C-4.805 0.102 -2.989 -0.043 0 0 Z " fill="#494949" transform="translate(30.6875,77.9375)"/>
<path d="M0 0 C6.149 -0.641 10.162 -0.014 15.27 3.555 C17.551 5.46 19.322 7.554 21 10 C20.67 10.66 20.34 11.32 20 12 C19.278 11.237 18.556 10.474 17.812 9.688 C12.306 4.426 7.351 3.213 0 2 C0 1.34 0 0.68 0 0 Z " fill="#3F3F3F" transform="translate(221,78)"/>
<path d="M0 0 C2.539 0.219 2.539 0.219 5.539 3.219 C-4.031 2.889 -13.601 2.559 -23.461 2.219 C-23.461 1.889 -23.461 1.559 -23.461 1.219 C-20.253 1.05 -17.044 0.884 -13.836 0.719 C-12.932 0.671 -12.029 0.623 -11.098 0.574 C-9.339 0.484 -7.579 0.401 -5.819 0.324 C-3.878 0.237 -1.939 0.123 0 0 Z " fill="#373737" transform="translate(71.4609375,78.78125)"/>
<path d="M0 0 C2.164 -0.293 2.164 -0.293 4.625 -0.188 C5.442 -0.16 6.26 -0.133 7.102 -0.105 C7.415 -0.088 7.415 -0.088 9 0 C9 0.66 9 1.32 9 2 C5.37 2.33 1.74 2.66 -2 3 C-1.34 2.01 -0.68 1.02 0 0 Z " fill="#373737" transform="translate(26,78)"/>
<path d="M0 0 C0.66 0 1.32 0 2 0 C2 0.66 2 1.32 2 2 C2.66 2 3.32 2 4 2 C4 2.66 4 3.32 4 4 C3.34 4 2.68 4 2 4 C2 4.66 2 5.32 2 6 C1.34 6 0.68 6 0 6 C0 5.34 0 4.68 0 4 C-0.66 4 -1.32 4 -2 4 C-2 3.34 -2 2.68 -2 2 C-1.34 2 -0.68 2 0 2 C0 1.34 0 0.68 0 0 Z " fill="#2D2D2D" transform="translate(217,86)"/>
</svg>
