<?xml version="1.0" encoding="UTF-8"?>
<!-- Generator: visioncortex VTracer 0.6.12 -->
<svg version="1.1" xmlns="http://www.w3.org/2000/svg" width="256" height="256">
<path d="M0 0 C0.881 -0.005 1.762 -0.009 2.669 -0.014 C5.615 -0.026 8.56 -0.025 11.505 -0.023 C13.62 -0.029 15.734 -0.036 17.848 -0.043 C23.588 -0.061 29.328 -0.066 35.068 -0.067 C38.655 -0.069 42.242 -0.073 45.829 -0.078 C58.347 -0.097 70.864 -0.105 83.382 -0.103 C95.045 -0.102 106.708 -0.123 118.371 -0.155 C128.389 -0.181 138.407 -0.192 148.425 -0.19 C154.406 -0.19 160.387 -0.195 166.368 -0.217 C171.995 -0.236 177.621 -0.236 183.248 -0.222 C185.31 -0.22 187.372 -0.224 189.434 -0.236 C192.255 -0.252 195.075 -0.242 197.897 -0.227 C198.707 -0.237 199.517 -0.248 200.352 -0.258 C206.935 -0.179 213.066 1.472 218.03 5.988 C223.678 12.031 224.436 18.284 224.406 26.256 C224.411 27.15 224.415 28.045 224.42 28.966 C224.433 31.958 224.431 34.949 224.429 37.941 C224.435 40.088 224.442 42.235 224.45 44.382 C224.467 50.211 224.472 56.039 224.473 61.868 C224.475 66.734 224.483 71.6 224.49 76.465 C224.506 87.944 224.511 99.423 224.509 110.902 C224.508 122.745 224.529 134.587 224.561 146.43 C224.587 156.598 224.598 166.766 224.597 176.935 C224.596 183.007 224.602 189.08 224.623 195.153 C224.642 200.863 224.642 206.573 224.628 212.284 C224.626 214.379 224.63 216.474 224.643 218.569 C224.658 221.43 224.649 224.29 224.633 227.152 C224.644 227.98 224.654 228.807 224.664 229.66 C224.597 235.315 223.568 238.706 220.139 243.267 C215.646 246.393 211.485 246.697 206.162 246.646 C205.769 246.648 205.769 246.648 203.781 246.66 C201.158 246.671 198.535 246.662 195.912 246.652 C194.028 246.656 192.143 246.662 190.259 246.668 C186.206 246.68 182.153 246.683 178.1 246.678 C171.692 246.671 165.284 246.687 158.876 246.707 C144.119 246.748 129.362 246.759 114.605 246.77 C101.077 246.781 87.548 246.797 74.02 246.838 C67.648 246.857 61.277 246.86 54.906 246.853 C50.945 246.852 46.985 246.862 43.024 246.877 C41.186 246.881 39.348 246.879 37.51 246.873 C35.003 246.864 32.496 246.874 29.989 246.889 C29.625 246.885 29.625 246.885 27.782 246.868 C23.356 246.918 20.746 247.735 17.139 250.267 C15.076 250.666 15.076 250.666 13.139 250.642 C12.499 250.65 11.86 250.658 11.201 250.666 C9.139 250.267 9.139 250.267 7.006 248.771 C2.184 246.242 -3.027 246.832 -8.381 246.828 C-14.377 246.697 -18.043 245.958 -22.861 242.267 C-26.103 237.238 -26.291 233.072 -26.249 227.292 C-26.254 226.399 -26.26 225.506 -26.265 224.586 C-26.279 221.599 -26.272 218.613 -26.265 215.626 C-26.271 213.482 -26.278 211.338 -26.286 209.194 C-26.304 203.374 -26.303 197.553 -26.297 191.733 C-26.294 186.872 -26.3 182.011 -26.306 177.151 C-26.32 165.681 -26.319 154.212 -26.307 142.742 C-26.296 130.916 -26.31 119.089 -26.337 107.263 C-26.359 97.105 -26.365 86.947 -26.36 76.788 C-26.356 70.723 -26.359 64.659 -26.376 58.594 C-26.391 52.888 -26.387 47.183 -26.368 41.478 C-26.365 39.387 -26.368 37.296 -26.378 35.205 C-26.392 32.344 -26.38 29.484 -26.362 26.623 C-26.372 25.802 -26.382 24.98 -26.391 24.133 C-26.308 17.517 -24.683 11.368 -20.14 6.376 C-14.137 0.765 -7.924 -0.03 0 0 Z " fill="#DEDFDE" transform="translate(28.861160278320313,2.732574462890625)"/>
<path d="M0 0 C0.442 0.002 0.442 0.002 2.681 0.011 C3.144 0.011 3.144 0.011 5.489 0.01 C8.568 0.011 11.647 0.019 14.726 0.027 C16.854 0.029 18.983 0.03 21.111 0.031 C26.725 0.035 32.34 0.045 37.954 0.056 C44.684 0.068 51.413 0.072 58.143 0.078 C68.378 0.088 78.612 0.107 88.847 0.124 C88.847 30.484 88.847 60.844 88.847 92.124 C57.167 92.124 25.487 92.124 -7.153 92.124 C-7.164 84.627 -7.164 84.627 -7.216 46.687 C-7.225 41.945 -7.234 37.203 -7.243 32.318 C-7.248 26.546 -7.248 26.546 -7.249 23.848 C-7.25 21.955 -7.254 20.063 -7.259 18.17 C-7.266 15.311 -7.267 12.451 -7.267 9.591 C-7.27 8.743 -7.274 7.894 -7.278 7.019 C-7.265 0.028 -6.967 0.012 0 0 Z " fill="#D7D7D7" transform="translate(87.15324401855469,147.87557983398438)"/>
<path d="M0 0 C0.881 -0.005 1.762 -0.009 2.669 -0.014 C5.615 -0.026 8.56 -0.025 11.505 -0.023 C13.62 -0.029 15.734 -0.036 17.848 -0.043 C23.588 -0.061 29.328 -0.066 35.068 -0.067 C38.655 -0.069 42.242 -0.073 45.829 -0.078 C58.347 -0.097 70.864 -0.105 83.382 -0.103 C95.045 -0.102 106.708 -0.123 118.371 -0.155 C128.389 -0.181 138.407 -0.192 148.425 -0.19 C154.406 -0.19 160.387 -0.195 166.368 -0.217 C171.995 -0.236 177.621 -0.236 183.248 -0.222 C185.31 -0.22 187.372 -0.224 189.434 -0.236 C192.255 -0.252 195.075 -0.242 197.897 -0.227 C198.707 -0.237 199.517 -0.248 200.352 -0.258 C206.935 -0.179 213.066 1.472 218.03 5.988 C223.678 12.031 224.436 18.284 224.406 26.256 C224.411 27.15 224.415 28.045 224.42 28.966 C224.433 31.958 224.431 34.949 224.429 37.941 C224.435 40.088 224.442 42.235 224.45 44.382 C224.467 50.211 224.472 56.039 224.473 61.868 C224.475 66.734 224.483 71.6 224.49 76.465 C224.506 87.944 224.511 99.423 224.509 110.902 C224.508 122.745 224.529 134.587 224.561 146.43 C224.587 156.598 224.598 166.766 224.597 176.935 C224.596 183.007 224.602 189.08 224.623 195.153 C224.642 200.863 224.642 206.573 224.628 212.284 C224.626 214.379 224.63 216.474 224.643 218.569 C224.658 221.43 224.649 224.29 224.633 227.152 C224.644 227.98 224.654 228.807 224.664 229.66 C224.597 235.315 223.568 238.706 220.139 243.267 C215.646 246.393 211.485 246.697 206.162 246.646 C205.769 246.648 205.769 246.648 203.781 246.66 C201.158 246.671 198.535 246.662 195.912 246.652 C194.028 246.656 192.143 246.662 190.259 246.668 C186.206 246.68 182.153 246.683 178.1 246.678 C171.692 246.671 165.284 246.687 158.876 246.707 C144.119 246.748 129.362 246.759 114.605 246.77 C101.077 246.781 87.548 246.797 74.02 246.838 C67.648 246.857 61.277 246.86 54.906 246.853 C50.945 246.852 46.985 246.862 43.024 246.877 C41.186 246.881 39.348 246.879 37.51 246.873 C35.003 246.864 32.496 246.874 29.989 246.889 C29.625 246.885 29.625 246.885 27.782 246.868 C23.356 246.918 20.746 247.735 17.139 250.267 C15.076 250.666 15.076 250.666 13.139 250.642 C12.499 250.65 11.86 250.658 11.201 250.666 C9.139 250.267 9.139 250.267 7.006 248.771 C2.184 246.242 -3.027 246.832 -8.381 246.828 C-14.377 246.697 -18.043 245.958 -22.861 242.267 C-26.103 237.238 -26.291 233.072 -26.249 227.292 C-26.254 226.399 -26.26 225.506 -26.265 224.586 C-26.279 221.599 -26.272 218.613 -26.265 215.626 C-26.271 213.482 -26.278 211.338 -26.286 209.194 C-26.304 203.374 -26.303 197.553 -26.297 191.733 C-26.294 186.872 -26.3 182.011 -26.306 177.151 C-26.32 165.681 -26.319 154.212 -26.307 142.742 C-26.296 130.916 -26.31 119.089 -26.337 107.263 C-26.359 97.105 -26.365 86.947 -26.36 76.788 C-26.356 70.723 -26.359 64.659 -26.376 58.594 C-26.391 52.888 -26.387 47.183 -26.368 41.478 C-26.365 39.387 -26.368 37.296 -26.378 35.205 C-26.392 32.344 -26.38 29.484 -26.362 26.623 C-26.372 25.802 -26.382 24.98 -26.391 24.133 C-26.308 17.517 -24.683 11.368 -20.14 6.376 C-14.137 0.765 -7.924 -0.03 0 0 Z M-13.861 12.267 C-17.264 17.098 -17.286 21.53 -17.235 27.214 C-17.239 28.103 -17.243 28.993 -17.247 29.91 C-17.257 32.886 -17.245 35.861 -17.233 38.837 C-17.236 40.972 -17.24 43.108 -17.245 45.243 C-17.254 51.039 -17.245 56.833 -17.231 62.629 C-17.22 68.688 -17.224 74.748 -17.226 80.807 C-17.227 90.979 -17.216 101.151 -17.197 111.323 C-17.176 123.096 -17.173 134.869 -17.179 146.642 C-17.185 157.957 -17.179 169.273 -17.168 180.588 C-17.163 185.409 -17.162 190.23 -17.164 195.052 C-17.166 200.722 -17.158 206.392 -17.142 212.062 C-17.138 214.148 -17.137 216.233 -17.14 218.319 C-17.143 221.156 -17.134 223.992 -17.122 226.829 C-17.126 227.664 -17.129 228.498 -17.133 229.358 C-17.089 235.039 -17.089 235.039 -14.861 237.267 C-12.339 237.494 -12.339 237.494 -9.197 237.463 C-8.636 237.46 -8.636 237.46 -5.799 237.443 C-4.623 237.426 -3.447 237.41 -2.236 237.392 C-1.053 237.383 0.131 237.374 1.35 237.365 C4.28 237.341 7.209 237.309 10.139 237.267 C10.139 238.587 10.139 239.907 10.139 241.267 C12.119 241.267 14.099 241.267 16.139 241.267 C16.139 239.947 16.139 238.627 16.139 237.267 C17.152 237.269 18.166 237.271 19.21 237.273 C43.837 237.317 68.465 237.35 93.092 237.371 C105.002 237.381 116.911 237.395 128.82 237.418 C139.197 237.438 149.574 237.451 159.951 237.456 C165.449 237.458 170.946 237.464 176.444 237.479 C181.613 237.492 186.782 237.497 191.952 237.494 C193.854 237.494 195.756 237.498 197.657 237.506 C200.245 237.516 202.832 237.513 205.419 237.508 C206.18 237.514 206.941 237.52 207.725 237.526 C212.911 237.496 212.911 237.496 215.139 235.267 C215.343 232.411 215.421 229.65 215.413 226.791 C215.418 225.903 215.423 225.016 215.429 224.101 C215.444 221.109 215.445 218.116 215.445 215.124 C215.453 212.986 215.461 210.847 215.47 208.709 C215.492 202.887 215.501 197.064 215.506 191.242 C215.51 187.606 215.516 183.971 215.523 180.336 C215.548 167.659 215.561 154.983 215.564 142.306 C215.568 130.481 215.598 118.656 215.64 106.831 C215.674 96.687 215.69 86.543 215.691 76.4 C215.691 70.338 215.7 64.276 215.729 58.213 C215.755 52.51 215.757 46.808 215.741 41.105 C215.739 39.011 215.746 36.917 215.762 34.824 C215.782 31.966 215.772 29.109 215.754 26.252 C215.76 25.837 215.76 25.837 215.794 23.738 C215.735 19.697 215.392 17.06 212.85 13.831 C207.876 9.128 204.298 8.976 197.574 9.007 C196.701 9.003 195.828 8.999 194.928 8.995 C191.997 8.985 189.066 8.989 186.135 8.993 C184.036 8.988 181.937 8.983 179.838 8.977 C174.131 8.964 168.425 8.963 162.718 8.966 C157.956 8.967 153.195 8.962 148.433 8.957 C137.201 8.946 125.969 8.946 114.736 8.952 C103.143 8.958 91.551 8.945 79.959 8.924 C70.01 8.907 60.062 8.901 50.114 8.904 C44.17 8.906 38.227 8.903 32.283 8.889 C26.693 8.877 21.104 8.878 15.514 8.892 C13.462 8.894 11.41 8.891 9.359 8.883 C6.558 8.872 3.758 8.881 0.958 8.893 C0.145 8.886 -0.667 8.878 -1.504 8.871 C-6.315 8.917 -9.8 9.415 -13.861 12.267 Z " fill="#FEFEFE" transform="translate(28.861160278320313,2.732574462890625)"/>
<path d="M0 0 C7.784 4.49 12.695 10.736 16 19 C16 26.59 16 34.18 16 42 C-2.48 42 -20.96 42 -40 42 C-40 14.928 -40 14.928 -32.789 6.379 C-23.166 -1.698 -12.134 -5.182 0 0 Z " fill="#BFBFBF" transform="translate(140,198)"/>
<path d="M0 0 C15.84 0 31.68 0 48 0 C48 10.56 48 21.12 48 32 C41.73 32 35.46 32 29 32 C29 33.32 29 34.64 29 36 C27.02 36 25.04 36 23 36 C23 34.68 23 33.36 23 32 C22.374 32.005 21.749 32.01 21.104 32.016 C18.278 32.037 15.451 32.05 12.625 32.062 C11.64 32.071 10.655 32.079 9.641 32.088 C9.17 32.09 9.17 32.09 6.789 32.098 C5.92 32.103 5.05 32.108 4.155 32.114 C2 32 2 32 0 31 C0 20.77 0 10.54 0 0 Z " fill="#D2D4D4" transform="translate(16,208)"/>
<path d="M0 0 C15.84 0 31.68 0 48 0 C48.041 4.909 48.083 9.817 48.125 14.875 C48.143 16.423 48.161 17.971 48.18 19.566 C48.185 20.779 48.19 21.992 48.195 23.242 C48.201 23.865 48.201 23.865 48.227 27.019 C48 30 48 30 46 32 C44.013 32.241 44.013 32.241 41.55 32.227 C40.629 32.227 39.709 32.227 38.76 32.227 C37.764 32.216 36.768 32.206 35.742 32.195 C34.724 32.192 33.706 32.19 32.657 32.187 C29.396 32.176 26.136 32.15 22.875 32.125 C20.668 32.115 18.461 32.106 16.254 32.098 C10.836 32.077 5.418 32.038 0 32 C0 21.44 0 10.88 0 0 Z " fill="#D7D7D7" transform="translate(192,208)"/>
<path d="M0 0 C0.047 20.957 0.082 41.914 0.104 62.872 C0.114 72.602 0.128 82.332 0.151 92.062 C0.171 100.541 0.184 109.019 0.188 117.498 C0.191 121.989 0.197 126.48 0.211 130.972 C0.225 135.196 0.229 139.419 0.226 143.643 C0.227 145.197 0.231 146.75 0.238 148.304 C0.248 150.419 0.246 152.533 0.241 154.647 C0.242 155.833 0.244 157.018 0.246 158.24 C0 161 0 161 -2 163 C-4.125 162.625 -4.125 162.625 -6 162 C-5.67 161.67 -5.34 161.34 -5 161 C-4.898 158.969 -4.866 156.935 -4.862 154.902 C-4.859 154.258 -4.856 153.614 -4.853 152.95 C-4.845 150.777 -4.844 148.604 -4.842 146.43 C-4.838 144.878 -4.832 143.326 -4.827 141.774 C-4.816 138.425 -4.807 135.075 -4.801 131.725 C-4.79 126.431 -4.77 121.138 -4.748 115.844 C-4.686 100.788 -4.632 85.732 -4.599 70.676 C-4.58 62.367 -4.551 54.058 -4.511 45.749 C-4.49 41.348 -4.474 36.948 -4.472 32.548 C-4.47 28.409 -4.454 24.271 -4.427 20.132 C-4.42 18.611 -4.418 17.09 -4.422 15.569 C-4.425 13.497 -4.411 11.425 -4.392 9.352 C-4.389 8.191 -4.385 7.03 -4.382 5.834 C-4 3 -4 3 -2.538 1.103 C-1 0 -1 0 0 0 Z " fill="#E5E6E5" transform="translate(244,77)"/>
<path d="M0 0 C1.97 1.1 1.97 1.1 4 3 C4.492 5.852 4.492 5.852 4.481 9.397 C4.484 10.049 4.488 10.701 4.491 11.372 C4.498 13.561 4.476 15.748 4.454 17.936 C4.453 19.503 4.454 21.07 4.456 22.637 C4.457 26.895 4.433 31.153 4.406 35.411 C4.381 39.859 4.378 44.307 4.373 48.756 C4.361 57.181 4.328 65.607 4.288 74.032 C4.243 83.623 4.221 93.214 4.201 102.805 C4.159 122.537 4.089 142.269 4 162 C4.66 162.33 5.32 162.66 6 163 C1.125 162.125 1.125 162.125 0 161 C-0.097 158.924 -0.122 156.845 -0.12 154.768 C-0.121 154.109 -0.122 153.451 -0.123 152.773 C-0.125 150.551 -0.119 148.329 -0.114 146.107 C-0.113 144.521 -0.113 142.935 -0.114 141.348 C-0.114 137.028 -0.108 132.708 -0.101 128.388 C-0.095 123.878 -0.095 119.369 -0.093 114.859 C-0.09 106.313 -0.082 97.767 -0.072 89.221 C-0.061 79.495 -0.055 69.768 -0.05 60.042 C-0.04 40.028 -0.022 20.014 0 0 Z " fill="#E5E6E5" transform="translate(12,77)"/>
<path d="M0 0 C15.84 0 31.68 0 48 0 C48 3.96 48 7.92 48 12 C32.16 12 16.32 12 0 12 C0 8.04 0 4.08 0 0 Z " fill="#D8D8D8" transform="translate(192,192)"/>
<path d="M0 0 C15.84 0 31.68 0 48 0 C48 3.96 48 7.92 48 12 C32.16 12 16.32 12 0 12 C0 8.04 0 4.08 0 0 Z " fill="#D8D8D8" transform="translate(16,192)"/>
<path d="M0 0 C15.84 0 31.68 0 48 0 C48 3.96 48 7.92 48 12 C32.16 12 16.32 12 0 12 C0 8.04 0 4.08 0 0 Z " fill="#D8D8D8" transform="translate(192,176)"/>
<path d="M0 0 C15.84 0 31.68 0 48 0 C48 3.96 48 7.92 48 12 C32.16 12 16.32 12 0 12 C0 8.04 0 4.08 0 0 Z " fill="#D8D8D8" transform="translate(16,176)"/>
<path d="M0 0 C0.857 0.004 1.714 0.008 2.597 0.013 C5.318 0.03 8.038 0.067 10.758 0.105 C12.609 0.121 14.461 0.134 16.312 0.146 C20.836 0.179 25.359 0.231 29.883 0.293 C29.883 1.613 29.883 2.933 29.883 4.293 C28.818 4.313 27.754 4.333 26.657 4.353 C22.697 4.429 18.737 4.518 14.777 4.61 C13.065 4.649 11.353 4.683 9.641 4.715 C7.176 4.761 4.711 4.819 2.246 4.879 C1.865 4.885 1.865 4.885 -0.062 4.914 C-4.116 5.026 -7.611 5.147 -11.117 7.293 C-12.785 10.692 -13.367 13.454 -13.373 17.219 C-13.38 18.17 -13.386 19.121 -13.394 20.101 C-13.393 21.116 -13.392 22.13 -13.391 23.176 C-13.411 25.333 -13.432 27.491 -13.453 29.648 C-13.476 33.044 -13.492 36.438 -13.498 39.833 C-13.508 43.115 -13.541 46.395 -13.578 49.676 C-13.573 50.695 -13.568 51.713 -13.563 52.763 C-13.576 53.708 -13.589 54.652 -13.603 55.625 C-13.606 56.456 -13.609 57.287 -13.612 58.144 C-14.117 60.293 -14.117 60.293 -16.149 62.085 C-16.474 62.284 -16.474 62.284 -18.117 63.293 C-18.193 55.712 -18.246 48.132 -18.282 40.551 C-18.297 37.973 -18.318 35.395 -18.344 32.817 C-18.38 29.108 -18.397 25.4 -18.41 21.691 C-18.418 21.116 -18.418 21.116 -18.457 18.206 C-18.459 7.636 -18.459 7.636 -15.117 3.293 C-10.244 -0.164 -5.739 -0.108 0 0 Z " fill="#E5E6E5" transform="translate(30.1171875,11.70703125)"/>
<path d="M0 0 C15.84 0 31.68 0 48 0 C48 1.32 48 2.64 48 4 C32.16 4 16.32 4 0 4 C0 2.68 0 1.36 0 0 Z " fill="#C0C0C0" transform="translate(192,208)"/>
<path d="M0 0 C15.84 0 31.68 0 48 0 C48 1.32 48 2.64 48 4 C32.16 4 16.32 4 0 4 C0 2.68 0 1.36 0 0 Z " fill="#C0C0C0" transform="translate(16,208)"/>
<path d="M0 0 C15.84 0 31.68 0 48 0 C48 1.32 48 2.64 48 4 C32.16 4 16.32 4 0 4 C0 2.68 0 1.36 0 0 Z " fill="#D8D8D8" transform="translate(192,204)"/>
<path d="M0 0 C15.84 0 31.68 0 48 0 C48 1.32 48 2.64 48 4 C32.16 4 16.32 4 0 4 C0 2.68 0 1.36 0 0 Z " fill="#D8D8D8" transform="translate(16,204)"/>
<path d="M0 0 C15.84 0 31.68 0 48 0 C48 1.32 48 2.64 48 4 C32.16 4 16.32 4 0 4 C0 2.68 0 1.36 0 0 Z " fill="#C0C0C0" transform="translate(192,200)"/>
<path d="M0 0 C15.84 0 31.68 0 48 0 C48 1.32 48 2.64 48 4 C32.16 4 16.32 4 0 4 C0 2.68 0 1.36 0 0 Z " fill="#C0C0C0" transform="translate(16,200)"/>
<path d="M0 0 C15.84 0 31.68 0 48 0 C48 1.32 48 2.64 48 4 C32.16 4 16.32 4 0 4 C0 2.68 0 1.36 0 0 Z " fill="#C0C0C0" transform="translate(192,192)"/>
<path d="M0 0 C15.84 0 31.68 0 48 0 C48 1.32 48 2.64 48 4 C32.16 4 16.32 4 0 4 C0 2.68 0 1.36 0 0 Z " fill="#C0C0C0" transform="translate(16,192)"/>
<path d="M0 0 C15.84 0 31.68 0 48 0 C48 1.32 48 2.64 48 4 C32.16 4 16.32 4 0 4 C0 2.68 0 1.36 0 0 Z " fill="#D8D8D8" transform="translate(192,188)"/>
<path d="M0 0 C15.84 0 31.68 0 48 0 C48 1.32 48 2.64 48 4 C32.16 4 16.32 4 0 4 C0 2.68 0 1.36 0 0 Z " fill="#D8D8D8" transform="translate(16,188)"/>
<path d="M0 0 C15.84 0 31.68 0 48 0 C48 1.32 48 2.64 48 4 C32.16 4 16.32 4 0 4 C0 2.68 0 1.36 0 0 Z " fill="#C0C0C0" transform="translate(192,184)"/>
<path d="M0 0 C15.84 0 31.68 0 48 0 C48 1.32 48 2.64 48 4 C32.16 4 16.32 4 0 4 C0 2.68 0 1.36 0 0 Z " fill="#C0C0C0" transform="translate(16,184)"/>
<path d="M0 0 C15.84 0 31.68 0 48 0 C48 1.32 48 2.64 48 4 C32.16 4 16.32 4 0 4 C0 2.68 0 1.36 0 0 Z " fill="#C0C0C0" transform="translate(192,176)"/>
<path d="M0 0 C15.84 0 31.68 0 48 0 C48 1.32 48 2.64 48 4 C32.16 4 16.32 4 0 4 C0 2.68 0 1.36 0 0 Z " fill="#C0C0C0" transform="translate(16,176)"/>
<path d="M0 0 C2.523 2.523 3.714 3.834 5 7 C5 7.99 5 8.98 5 10 C4.34 10 3.68 10 3 10 C2.67 18.91 2.34 27.82 2 37 C1.34 37 0.68 37 0 37 C0 24.79 0 12.58 0 0 Z " fill="#C4C4C4" transform="translate(128,155)"/>
<path d="M0 0 C0.33 0 0.66 0 1 0 C1 11.88 1 23.76 1 36 C0.34 36 -0.32 36 -1 36 C-1.33 27.09 -1.66 18.18 -2 9 C-2.66 9 -3.32 9 -4 9 C-2.941 5.597 -1.991 2.986 0 0 Z " fill="#E3E4E3" transform="translate(127,156)"/>
</svg>
