<?xml version="1.0" encoding="UTF-8"?>
<!-- Generator: visioncortex VTracer 0.6.12 -->
<svg version="1.1" xmlns="http://www.w3.org/2000/svg" width="256" height="256">
<path d="M0 0 C1.008 -0.007 2.016 -0.014 3.054 -0.021 C3.604 -0.02 3.604 -0.02 6.387 -0.014 C6.969 -0.017 6.969 -0.017 9.912 -0.029 C13.762 -0.043 17.612 -0.042 21.462 -0.04 C23.459 -0.043 25.457 -0.046 27.454 -0.049 C33.734 -0.061 40.014 -0.061 46.294 -0.055 C52.768 -0.049 59.242 -0.061 65.717 -0.083 C71.28 -0.1 76.842 -0.106 82.405 -0.103 C85.726 -0.101 89.046 -0.105 92.367 -0.118 C96.071 -0.13 99.774 -0.123 103.477 -0.112 C104.575 -0.119 105.673 -0.127 106.804 -0.135 C116.324 -0.069 116.324 -0.069 119.997 3.261 C121.68 6.08 122.247 8.156 122.251 11.425 C122.257 12.252 122.263 13.079 122.269 13.931 C122.265 14.834 122.262 15.737 122.258 16.668 C122.261 17.631 122.265 18.595 122.269 19.588 C122.28 22.825 122.276 26.062 122.272 29.3 C122.276 31.617 122.281 33.935 122.287 36.252 C122.301 42.554 122.301 48.855 122.299 55.157 C122.297 60.413 122.302 65.669 122.307 70.925 C122.319 84.032 122.318 97.139 122.312 110.246 C122.306 121.63 122.318 133.014 122.337 144.398 C122.356 156.085 122.364 167.773 122.361 179.461 C122.359 186.023 122.361 192.586 122.375 199.148 C122.388 205.318 122.386 211.488 122.373 217.658 C122.371 219.924 122.373 222.191 122.381 224.458 C122.392 227.548 122.384 230.637 122.371 233.727 C122.379 234.628 122.386 235.529 122.394 236.457 C122.353 241.174 122.188 244.51 118.997 248.261 C116.023 250.317 113.559 250.513 109.994 250.521 C108.986 250.528 107.978 250.536 106.939 250.543 C106.39 250.542 106.39 250.542 103.607 250.535 C102.444 250.54 101.281 250.546 100.082 250.551 C96.232 250.565 92.382 250.564 88.532 250.561 C86.535 250.564 84.537 250.567 82.54 250.571 C76.26 250.582 69.98 250.582 63.7 250.576 C57.226 250.57 50.751 250.583 44.277 250.604 C38.714 250.622 33.151 250.628 27.589 250.624 C24.268 250.622 20.948 250.626 17.627 250.639 C13.923 250.651 10.22 250.645 6.517 250.633 C5.419 250.641 4.321 250.648 3.19 250.656 C-6.33 250.59 -6.33 250.59 -10.003 247.261 C-11.686 244.441 -12.254 242.365 -12.258 239.097 C-12.26 238.683 -12.26 238.683 -12.275 236.591 C-12.271 235.688 -12.268 234.784 -12.264 233.854 C-12.268 232.89 -12.271 231.927 -12.275 230.934 C-12.286 227.696 -12.282 224.459 -12.278 221.222 C-12.282 218.904 -12.287 216.587 -12.293 214.269 C-12.307 207.968 -12.307 201.666 -12.305 195.365 C-12.304 190.108 -12.308 184.852 -12.313 179.596 C-12.325 166.489 -12.324 153.382 -12.318 140.276 C-12.312 128.892 -12.324 117.508 -12.343 106.124 C-12.362 94.436 -12.37 82.748 -12.367 71.06 C-12.365 64.498 -12.367 57.936 -12.381 51.373 C-12.394 45.203 -12.392 39.034 -12.379 32.864 C-12.377 30.597 -12.379 28.33 -12.388 26.063 C-12.398 22.974 -12.39 19.884 -12.377 16.795 C-12.385 15.894 -12.392 14.993 -12.4 14.064 C-12.359 9.347 -12.194 6.011 -9.003 2.261 C-6.029 0.205 -3.565 0.008 0 0 Z " fill="#DBDBDB" transform="translate(73.00303649902344,2.7393035888671875)"/>
<path d="M0 0 C1.008 -0.007 2.016 -0.014 3.054 -0.021 C3.604 -0.02 3.604 -0.02 6.387 -0.014 C6.969 -0.017 6.969 -0.017 9.912 -0.029 C13.762 -0.043 17.612 -0.042 21.462 -0.04 C23.459 -0.043 25.457 -0.046 27.454 -0.049 C33.734 -0.061 40.014 -0.061 46.294 -0.055 C52.768 -0.049 59.242 -0.061 65.717 -0.083 C71.28 -0.1 76.842 -0.106 82.405 -0.103 C85.726 -0.101 89.046 -0.105 92.367 -0.118 C96.071 -0.13 99.774 -0.123 103.477 -0.112 C104.575 -0.119 105.673 -0.127 106.804 -0.135 C116.324 -0.069 116.324 -0.069 119.997 3.261 C121.68 6.08 122.247 8.156 122.251 11.425 C122.257 12.252 122.263 13.079 122.269 13.931 C122.265 14.834 122.262 15.737 122.258 16.668 C122.261 17.631 122.265 18.595 122.269 19.588 C122.28 22.825 122.276 26.062 122.272 29.3 C122.276 31.617 122.281 33.935 122.287 36.252 C122.301 42.554 122.301 48.855 122.299 55.157 C122.297 60.413 122.302 65.669 122.307 70.925 C122.319 84.032 122.318 97.139 122.312 110.246 C122.306 121.63 122.318 133.014 122.337 144.398 C122.356 156.085 122.364 167.773 122.361 179.461 C122.359 186.023 122.361 192.586 122.375 199.148 C122.388 205.318 122.386 211.488 122.373 217.658 C122.371 219.924 122.373 222.191 122.381 224.458 C122.392 227.548 122.384 230.637 122.371 233.727 C122.379 234.628 122.386 235.529 122.394 236.457 C122.353 241.174 122.188 244.51 118.997 248.261 C116.023 250.317 113.559 250.513 109.994 250.521 C108.986 250.528 107.978 250.536 106.939 250.543 C106.39 250.542 106.39 250.542 103.607 250.535 C102.444 250.54 101.281 250.546 100.082 250.551 C96.232 250.565 92.382 250.564 88.532 250.561 C86.535 250.564 84.537 250.567 82.54 250.571 C76.26 250.582 69.98 250.582 63.7 250.576 C57.226 250.57 50.751 250.583 44.277 250.604 C38.714 250.622 33.151 250.628 27.589 250.624 C24.268 250.622 20.948 250.626 17.627 250.639 C13.923 250.651 10.22 250.645 6.517 250.633 C5.419 250.641 4.321 250.648 3.19 250.656 C-6.33 250.59 -6.33 250.59 -10.003 247.261 C-11.686 244.441 -12.254 242.365 -12.258 239.097 C-12.26 238.683 -12.26 238.683 -12.275 236.591 C-12.271 235.688 -12.268 234.784 -12.264 233.854 C-12.268 232.89 -12.271 231.927 -12.275 230.934 C-12.286 227.696 -12.282 224.459 -12.278 221.222 C-12.282 218.904 -12.287 216.587 -12.293 214.269 C-12.307 207.968 -12.307 201.666 -12.305 195.365 C-12.304 190.108 -12.308 184.852 -12.313 179.596 C-12.325 166.489 -12.324 153.382 -12.318 140.276 C-12.312 128.892 -12.324 117.508 -12.343 106.124 C-12.362 94.436 -12.37 82.748 -12.367 71.06 C-12.365 64.498 -12.367 57.936 -12.381 51.373 C-12.394 45.203 -12.392 39.034 -12.379 32.864 C-12.377 30.597 -12.379 28.33 -12.388 26.063 C-12.398 22.974 -12.39 19.884 -12.377 16.795 C-12.385 15.894 -12.392 14.993 -12.4 14.064 C-12.359 9.347 -12.194 6.011 -9.003 2.261 C-6.029 0.205 -3.565 0.008 0 0 Z M-3.003 9.261 C-3.003 75.261 -3.003 141.261 -3.003 209.261 C-0.033 209.921 2.937 210.581 5.997 211.261 C7.854 211.995 9.692 212.782 11.497 213.636 C24.284 219.12 37.201 220.764 50.997 221.261 C50.997 226.541 50.997 231.821 50.997 237.261 C53.637 237.261 56.277 237.261 58.997 237.261 C58.997 231.981 58.997 226.701 58.997 221.261 C61.286 221.178 63.576 221.096 65.934 221.011 C78.204 220.349 89.957 217.674 101.091 212.409 C104.909 210.9 108.99 210.151 112.997 209.261 C112.997 143.261 112.997 77.261 112.997 9.261 C95.177 9.261 77.357 9.261 58.997 9.261 C58.997 10.581 58.997 11.901 58.997 13.261 C56.357 13.261 53.717 13.261 50.997 13.261 C50.997 11.941 50.997 10.621 50.997 9.261 C33.177 9.261 15.357 9.261 -3.003 9.261 Z " fill="#FEFEFE" transform="translate(73.00303649902344,2.7393035888671875)"/>
<path d="M0 0 C17.82 0 35.64 0 54 0 C54 38.28 54 76.56 54 116 C36.51 116 19.02 116 1 116 C0.087 91.606 -0.127 67.272 -0.069 42.864 C-0.056 37.146 -0.052 31.428 -0.046 25.711 C-0.037 17.14 -0.017 8.57 0 0 Z " fill="#DCDCDC" transform="translate(132,92)"/>
<path d="M0 0 C17.82 0 35.64 0 54 0 C54.04 19.68 54.04 19.68 54.049 28.297 C54.055 34.097 54.062 39.897 54.075 45.697 C54.13 69.161 53.878 92.55 53 116 C35.51 116 18.02 116 0 116 C0 77.72 0 39.44 0 0 Z " fill="#DCDCDC" transform="translate(70,92)"/>
<path d="M0 0 C17.82 0 35.64 0 54 0 C54 25.08 54 50.16 54 76 C36.18 76 18.36 76 0 76 C0 50.92 0 25.84 0 0 Z " fill="#DBDBDB" transform="translate(132,12)"/>
<path d="M0 0 C3.3 0 6.6 0 10 0 C10 10.56 10 21.12 10 32 C27.49 32 44.98 32 63 32 C63 33.32 63 34.64 63 36 C61.762 36.227 60.525 36.454 59.25 36.688 C55.423 37.525 52.071 38.772 48.5 40.375 C35.713 45.86 22.796 47.503 9 48 C9 53.28 9 58.56 9 64 C6.36 64 3.72 64 1 64 C1 58.72 1 53.44 1 48 C-1.289 47.917 -3.579 47.835 -5.938 47.75 C-18.383 47.078 -29.96 44.209 -41.328 39.105 C-45.157 37.521 -48.932 36.746 -53 36 C-53 34.68 -53 33.36 -53 32 C-35.51 32 -18.02 32 0 32 C0 21.44 0 10.88 0 0 Z " fill="#CCCCCC" transform="translate(123,176)"/>
<path d="M0 0 C2.64 0 5.28 0 8 0 C8 23.76 8 47.52 8 72 C25.82 72 43.64 72 62 72 C62 73.32 62 74.64 62 76 C44.18 76 26.36 76 8 76 C8 103.72 8 131.44 8 160 C5.36 160 2.72 160 0 160 C0 132.28 0 104.56 0 76 C-17.82 76 -35.64 76 -54 76 C-54 74.68 -54 73.36 -54 72 C-36.18 72 -18.36 72 0 72 C0 48.24 0 24.48 0 0 Z " fill="#CCCCCC" transform="translate(124,16)"/>
<path d="M0 0 C7.771 0 7.771 0 12 2.25 C25.272 8.616 39.57 10.114 54 12 C54 18.6 54 25.2 54 32 C36.18 32 18.36 32 0 32 C0 21.44 0 10.88 0 0 Z " fill="#DCDCDC" transform="translate(70,212)"/>
<path d="M0 0 C0 10.56 0 21.12 0 32 C-17.82 32 -35.64 32 -54 32 C-54 25.4 -54 18.8 -54 12 C-50.844 11.588 -47.689 11.175 -44.438 10.75 C-32.127 9.041 -20.174 6.681 -9 1 C-7 0 -7 0 0 0 Z " fill="#DCDCDC" transform="translate(186,212)"/>
<path d="M0 0 C2.97 0 5.94 0 9 0 C9 10.56 9 21.12 9 32 C26.49 32 43.98 32 62 32 C62 33.32 62 34.64 62 36 C44.51 36 27.02 36 9 36 C8.67 36.99 8.34 37.98 8 39 C7.67 39 7.34 39 7 39 C7 36.69 7 34.38 7 32 C4.69 32 2.38 32 0 32 C0 21.44 0 10.88 0 0 Z " fill="#C1C1C1" transform="translate(124,176)"/>
<path d="M0 0 C38.28 0 76.56 0 116 0 C116 1.32 116 2.64 116 4 C77.72 4 39.44 4 0 4 C0 2.68 0 1.36 0 0 Z " fill="#C0C0C0" transform="translate(70,88)"/>
<path d="M0 0 C0.33 0 0.66 0 1 0 C1 10.56 1 21.12 1 32 C3.31 32 5.62 32 8 32 C8.196 33.582 8.382 35.166 8.562 36.75 C8.615 37.191 8.615 37.191 8.879 39.422 C8.997 41.933 8.957 43.678 8 46 C5 47 5 47 2 46 C1.34 42.7 0.68 39.4 0 36 C-17.49 36 -34.98 36 -53 36 C-53 34.68 -53 33.36 -53 32 C-35.51 32 -18.02 32 0 32 C0 21.44 0 10.88 0 0 Z " fill="#C2C2C2" transform="translate(123,176)"/>
<path d="M0 0 C2.64 0 5.28 0 8 0 C8 10.56 8 21.12 8 32 C5.36 32 2.72 32 0 32 C0 21.44 0 10.88 0 0 Z " fill="#454545" transform="translate(124,176)"/>
<path d="M0 0 C1.32 0 2.64 0 4 0 C4 19.8 4 39.6 4 60 C2.68 60 1.36 60 0 60 C0 40.2 0 20.4 0 0 Z " fill="#C1C1C1" transform="translate(176,20)"/>
<path d="M0 0 C1.32 0 2.64 0 4 0 C4 19.8 4 39.6 4 60 C2.68 60 1.36 60 0 60 C0 40.2 0 20.4 0 0 Z " fill="#C1C1C1" transform="translate(168,20)"/>
<path d="M0 0 C1.32 0 2.64 0 4 0 C4 19.8 4 39.6 4 60 C2.68 60 1.36 60 0 60 C0 40.2 0 20.4 0 0 Z " fill="#C1C1C1" transform="translate(160,20)"/>
<path d="M0 0 C1.32 0 2.64 0 4 0 C4 19.8 4 39.6 4 60 C2.68 60 1.36 60 0 60 C0 40.2 0 20.4 0 0 Z " fill="#C1C1C1" transform="translate(152,20)"/>
<path d="M0 0 C1.32 0 2.64 0 4 0 C4 19.8 4 39.6 4 60 C2.68 60 1.36 60 0 60 C0 40.2 0 20.4 0 0 Z " fill="#C1C1C1" transform="translate(144,20)"/>
<path d="M0 0 C1.32 0 2.64 0 4 0 C4 19.8 4 39.6 4 60 C2.68 60 1.36 60 0 60 C0 40.2 0 20.4 0 0 Z " fill="#C1C1C1" transform="translate(136,20)"/>
<path d="M0 0 C1.32 0 2.64 0 4 0 C4 19.8 4 39.6 4 60 C2.68 60 1.36 60 0 60 C0 40.2 0 20.4 0 0 Z " fill="#C1C1C1" transform="translate(116,20)"/>
<path d="M0 0 C1.32 0 2.64 0 4 0 C4 19.8 4 39.6 4 60 C2.68 60 1.36 60 0 60 C0 40.2 0 20.4 0 0 Z " fill="#C1C1C1" transform="translate(108,20)"/>
<path d="M0 0 C1.32 0 2.64 0 4 0 C4 19.8 4 39.6 4 60 C2.68 60 1.36 60 0 60 C0 40.2 0 20.4 0 0 Z " fill="#C1C1C1" transform="translate(100,20)"/>
<path d="M0 0 C1.32 0 2.64 0 4 0 C4 19.8 4 39.6 4 60 C2.68 60 1.36 60 0 60 C0 40.2 0 20.4 0 0 Z " fill="#C1C1C1" transform="translate(92,20)"/>
<path d="M0 0 C1.32 0 2.64 0 4 0 C4 19.8 4 39.6 4 60 C2.68 60 1.36 60 0 60 C0 40.2 0 20.4 0 0 Z " fill="#C1C1C1" transform="translate(84,20)"/>
<path d="M0 0 C1.32 0 2.64 0 4 0 C4 19.8 4 39.6 4 60 C2.68 60 1.36 60 0 60 C0 40.2 0 20.4 0 0 Z " fill="#C1C1C1" transform="translate(76,20)"/>
<path d="M0 0 C1.98 0 3.96 0 6 0 C5.859 1.625 5.712 3.25 5.562 4.875 C5.481 5.78 5.4 6.685 5.316 7.617 C5 10 5 10 4 12 C3.34 12 2.68 12 2 12 C0.409 7.823 -0.213 4.468 0 0 Z " fill="#E0E1E0" transform="translate(125,208)"/>
</svg>
