<?xml version="1.0" encoding="UTF-8"?>
<!-- Generator: visioncortex VTracer 0.6.12 -->
<svg version="1.1" xmlns="http://www.w3.org/2000/svg" width="256" height="256">
<path d="M0 0 C0.441 -0.002 0.441 -0.002 2.676 -0.015 C5.567 -0.03 8.459 -0.036 11.351 -0.042 C12.351 -0.045 13.351 -0.048 14.382 -0.051 C19.685 -0.066 24.989 -0.075 30.292 -0.079 C35.704 -0.085 41.116 -0.109 46.528 -0.137 C50.746 -0.156 54.964 -0.161 59.182 -0.162 C61.173 -0.165 63.165 -0.173 65.156 -0.187 C116.199 -0.504 116.199 -0.504 131.616 14.083 C137.374 20.36 138.87 25.256 138.894 33.786 C138.919 35.479 138.944 37.172 138.97 38.864 C138.998 41.517 139.023 44.17 139.041 46.823 C139.063 49.395 139.102 51.965 139.144 54.536 C139.144 54.931 139.144 54.931 139.144 56.929 C139.227 61.59 139.952 64.342 142.585 68.161 C142.983 71.536 142.983 71.536 142.96 75.161 C142.968 76.357 142.975 77.554 142.983 78.786 C142.585 82.161 142.585 82.161 141.087 84.162 C138.757 88.815 139.137 93.39 139.151 98.524 C139.146 99.63 139.141 100.736 139.135 101.876 C139.129 104.213 139.13 106.551 139.139 108.888 C139.147 112.451 139.119 116.011 139.087 119.573 C139.085 121.849 139.086 124.124 139.089 126.399 C139.083 126.929 139.083 126.929 139.055 129.607 C139.108 135.274 139.669 139.204 142.5 144.118 C144.658 148.18 145.727 152.682 147.003 157.083 C147.306 158.105 147.608 159.128 147.92 160.181 C148.878 163.422 149.825 166.667 150.772 169.911 C151.42 172.105 152.067 174.299 152.716 176.493 C153.898 180.501 155.078 184.509 156.25 188.52 C156.367 188.921 156.367 188.921 156.96 190.95 C159.261 199.093 159.705 206.5 155.585 214.161 C150.835 221.702 143.467 225.411 134.96 227.474 C125.829 228.974 116.611 228.664 107.523 227.161 C95.431 225.413 83.146 225.874 70.96 225.896 C68.282 225.894 65.604 225.892 62.926 225.89 C57.335 225.886 51.744 225.891 46.153 225.9 C39.73 225.911 33.308 225.908 26.885 225.897 C21.326 225.888 15.767 225.886 10.208 225.892 C6.908 225.895 3.607 225.894 0.306 225.889 C-12.793 225.87 -25.481 226.009 -38.415 228.161 C-50.779 229.252 -64.176 228.56 -74.474 220.974 C-80.164 215.662 -83.098 210.01 -83.731 202.325 C-83.643 195.461 -81.347 189.043 -79.353 182.536 C-78.941 181.163 -78.53 179.789 -78.12 178.416 C-77.292 175.65 -76.457 172.887 -75.617 170.126 C-74.51 166.488 -73.434 162.841 -72.364 159.192 C-71.757 157.14 -71.149 155.088 -70.54 153.036 C-70.403 152.569 -70.403 152.569 -69.712 150.206 C-69.451 149.343 -69.191 148.48 -68.923 147.591 C-68.813 147.221 -68.813 147.221 -68.255 145.348 C-67.415 143.161 -67.415 143.161 -65.886 141.2 C-63.68 136.642 -64.009 132.348 -64.046 127.347 C-64.042 126.257 -64.039 125.167 -64.035 124.044 C-64.028 121.679 -64.029 119.315 -64.035 116.95 C-64.044 113.204 -64.034 109.459 -64.018 105.714 C-63.983 96.41 -63.976 87.106 -63.978 77.802 C-63.98 69.942 -63.966 62.082 -63.93 54.222 C-63.919 50.537 -63.931 46.853 -63.944 43.168 C-63.935 40.9 -63.925 38.631 -63.913 36.363 C-63.923 35.343 -63.933 34.323 -63.943 33.272 C-63.869 25.96 -62.3 20.748 -57.696 15.024 C-42.695 1.964 -19.185 0.027 0 0 Z " fill="#18A084" transform="translate(90.4150390625,13.8388671875)"/>
<path d="M0 0 C0.975 -0.005 1.95 -0.01 2.955 -0.015 C6.169 -0.03 9.384 -0.036 12.599 -0.042 C13.705 -0.045 14.811 -0.048 15.951 -0.051 C21.815 -0.066 27.679 -0.075 33.542 -0.079 C39.55 -0.085 45.558 -0.109 51.565 -0.137 C56.226 -0.156 60.886 -0.161 65.547 -0.162 C67.759 -0.165 69.97 -0.173 72.182 -0.187 C119.224 -0.449 119.224 -0.449 133.052 13.161 C135.142 16.296 135.299 16.979 135.279 20.541 C135.279 20.981 135.279 20.981 135.278 23.21 C135.268 24.156 135.258 25.103 135.247 26.079 C135.244 27.051 135.241 28.024 135.238 29.026 C135.227 32.133 135.202 35.241 135.177 38.349 C135.167 40.455 135.158 42.561 135.149 44.667 C135.127 49.832 135.093 54.996 135.052 60.161 C136.372 60.161 137.692 60.161 139.052 60.161 C139.052 61.481 139.052 62.801 139.052 64.161 C137.732 64.161 136.412 64.161 135.052 64.161 C135.052 65.481 135.052 66.801 135.052 68.161 C136.372 68.161 137.692 68.161 139.052 68.161 C139.052 69.481 139.052 70.801 139.052 72.161 C137.732 72.161 136.412 72.161 135.052 72.161 C135.056 72.883 135.061 73.606 135.065 74.35 C135.105 81.148 135.136 87.946 135.155 94.744 C135.166 98.24 135.18 101.735 135.203 105.23 C135.228 109.246 135.238 113.262 135.247 117.278 C135.257 118.537 135.268 119.795 135.278 121.092 C135.279 122.253 135.279 123.414 135.279 124.61 C135.283 125.636 135.288 126.662 135.292 127.719 C135.052 130.161 135.052 130.161 133.052 132.161 C131.072 132.161 129.092 132.161 127.052 132.161 C127.052 128.201 127.052 124.241 127.052 120.161 C71.612 120.161 16.172 120.161 -40.948 120.161 C-40.948 124.121 -40.948 128.081 -40.948 132.161 C-42.928 132.161 -44.908 132.161 -46.948 132.161 C-49.408 129.702 -49.205 129.022 -49.229 125.64 C-49.241 124.688 -49.252 123.736 -49.264 122.755 C-49.266 121.708 -49.268 120.66 -49.271 119.58 C-49.275 119.03 -49.275 119.03 -49.301 116.244 C-49.33 112.588 -49.343 108.931 -49.354 105.274 C-49.366 102.738 -49.378 100.202 -49.389 97.666 C-49.407 93.021 -49.42 88.377 -49.426 83.733 C-49.435 76.905 -49.47 70.078 -49.528 63.251 C-49.577 57.332 -49.592 51.414 -49.595 45.496 C-49.601 42.982 -49.617 40.467 -49.644 37.952 C-49.678 34.431 -49.674 30.911 -49.661 27.389 C-49.68 26.351 -49.698 25.314 -49.717 24.244 C-49.647 18.181 -48.786 14.829 -44.476 10.461 C-36.933 4.045 -26.419 2.691 -16.948 1.161 C-16.436 1.074 -16.436 1.074 -13.846 0.635 C-9.206 0.071 -4.669 0.006 0 0 Z " fill="#36509D" transform="translate(84.9482421875,23.8388671875)"/>
<path d="M0 0 C0.975 -0.005 1.95 -0.01 2.955 -0.015 C6.169 -0.03 9.384 -0.036 12.599 -0.042 C13.705 -0.045 14.811 -0.048 15.951 -0.051 C21.815 -0.066 27.679 -0.075 33.542 -0.079 C39.55 -0.085 45.558 -0.109 51.565 -0.137 C56.226 -0.156 60.886 -0.161 65.547 -0.162 C67.759 -0.165 69.97 -0.173 72.182 -0.187 C119.224 -0.449 119.224 -0.449 133.052 13.161 C135.142 16.296 135.299 16.979 135.279 20.541 C135.279 20.981 135.279 20.981 135.278 23.21 C135.268 24.156 135.258 25.103 135.247 26.079 C135.244 27.051 135.241 28.024 135.238 29.026 C135.227 32.133 135.202 35.241 135.177 38.349 C135.167 40.455 135.158 42.561 135.149 44.667 C135.127 49.832 135.093 54.996 135.052 60.161 C136.372 60.161 137.692 60.161 139.052 60.161 C139.052 61.481 139.052 62.801 139.052 64.161 C137.732 64.161 136.412 64.161 135.052 64.161 C135.052 65.481 135.052 66.801 135.052 68.161 C136.372 68.161 137.692 68.161 139.052 68.161 C139.052 69.481 139.052 70.801 139.052 72.161 C137.732 72.161 136.412 72.161 135.052 72.161 C135.056 72.883 135.061 73.606 135.065 74.35 C135.105 81.148 135.136 87.946 135.155 94.744 C135.166 98.24 135.18 101.735 135.203 105.23 C135.228 109.246 135.238 113.262 135.247 117.278 C135.257 118.537 135.268 119.795 135.278 121.092 C135.279 122.253 135.279 123.414 135.279 124.61 C135.283 125.636 135.288 126.662 135.292 127.719 C135.052 130.161 135.052 130.161 133.052 132.161 C131.072 132.161 129.092 132.161 127.052 132.161 C127.052 128.201 127.052 124.241 127.052 120.161 C71.612 120.161 16.172 120.161 -40.948 120.161 C-40.948 124.121 -40.948 128.081 -40.948 132.161 C-42.928 132.161 -44.908 132.161 -46.948 132.161 C-49.408 129.702 -49.205 129.022 -49.229 125.64 C-49.241 124.688 -49.252 123.736 -49.264 122.755 C-49.266 121.708 -49.268 120.66 -49.271 119.58 C-49.275 119.03 -49.275 119.03 -49.301 116.244 C-49.33 112.588 -49.343 108.931 -49.354 105.274 C-49.366 102.738 -49.378 100.202 -49.389 97.666 C-49.407 93.021 -49.42 88.377 -49.426 83.733 C-49.435 76.905 -49.47 70.078 -49.528 63.251 C-49.577 57.332 -49.592 51.414 -49.595 45.496 C-49.601 42.982 -49.617 40.467 -49.644 37.952 C-49.678 34.431 -49.674 30.911 -49.661 27.389 C-49.68 26.351 -49.698 25.314 -49.717 24.244 C-49.647 18.181 -48.786 14.829 -44.476 10.461 C-36.933 4.045 -26.419 2.691 -16.948 1.161 C-16.436 1.074 -16.436 1.074 -13.846 0.635 C-9.206 0.071 -4.669 0.006 0 0 Z M-40.948 14.161 C-41.202 17.122 -41.202 17.122 -41.207 20.966 C-41.211 21.665 -41.214 22.364 -41.218 23.085 C-41.226 25.402 -41.221 27.719 -41.214 30.036 C-41.215 31.643 -41.217 33.249 -41.22 34.856 C-41.223 38.225 -41.218 41.595 -41.209 44.964 C-41.198 49.289 -41.204 53.613 -41.216 57.938 C-41.223 61.256 -41.221 64.574 -41.216 67.892 C-41.215 69.487 -41.216 71.082 -41.221 72.677 C-41.226 74.903 -41.218 77.13 -41.207 79.356 C-41.205 80.625 -41.204 81.894 -41.202 83.201 C-40.948 86.161 -40.948 86.161 -38.948 88.161 C-35.898 88.402 -35.898 88.402 -31.928 88.388 C-31.206 88.388 -30.484 88.389 -29.74 88.389 C-27.348 88.388 -24.957 88.372 -22.565 88.356 C-20.909 88.353 -19.253 88.35 -17.597 88.348 C-13.234 88.34 -8.87 88.321 -4.507 88.298 C-0.057 88.278 4.394 88.269 8.845 88.259 C17.58 88.237 26.316 88.203 35.052 88.161 C35.034 88.637 35.034 88.637 34.946 91.048 C34.933 91.675 34.933 91.675 34.864 94.849 C34.829 96.09 34.795 97.331 34.759 98.61 C35.07 102.378 35.774 104.189 38.052 107.161 C41.055 108.663 43.842 108.254 47.177 108.224 C48.458 108.215 49.739 108.206 51.06 108.196 C52.047 108.185 53.034 108.173 54.052 108.161 C54.052 106.841 54.052 105.521 54.052 104.161 C73.192 104.161 92.332 104.161 112.052 104.161 C112.052 105.481 112.052 106.801 112.052 108.161 C114.176 108.215 116.302 108.254 118.427 108.286 C119.018 108.298 119.018 108.298 122.013 108.356 C125.052 108.161 125.052 108.161 127.052 106.161 C127.271 103.458 127.366 100.856 127.374 98.151 C127.379 97.737 127.379 97.737 127.404 95.642 C127.433 92.894 127.447 90.147 127.458 87.399 C127.47 85.491 127.481 83.582 127.493 81.674 C127.514 77.666 127.525 73.659 127.532 69.652 C127.543 64.524 127.591 59.398 127.648 54.271 C127.685 50.326 127.696 46.381 127.699 42.435 C127.705 40.546 127.721 38.656 127.747 36.767 C127.782 34.117 127.778 31.469 127.765 28.819 C127.783 28.043 127.802 27.267 127.82 26.468 C127.739 21.095 126.205 18.384 122.535 14.486 C119.434 11.716 116.878 12.033 112.826 12.027 C112.181 12.025 111.535 12.023 110.87 12.021 C108.698 12.014 106.525 12.015 104.353 12.016 C102.799 12.013 101.245 12.009 99.691 12.006 C95.464 11.997 91.237 11.995 87.01 11.994 C83.486 11.993 79.962 11.989 76.438 11.986 C68.127 11.978 59.816 11.975 51.506 11.976 C42.921 11.976 34.335 11.966 25.75 11.95 C18.389 11.937 11.027 11.932 3.666 11.932 C-0.735 11.933 -5.136 11.93 -9.537 11.919 C-13.674 11.909 -17.81 11.909 -21.947 11.917 C-23.469 11.918 -24.99 11.915 -26.511 11.909 C-28.582 11.902 -30.652 11.906 -32.723 11.914 C-33.884 11.913 -35.044 11.913 -36.24 11.912 C-38.948 12.161 -38.948 12.161 -40.948 14.161 Z " fill="#36509E" transform="translate(84.9482421875,23.8388671875)"/>
<path d="M0 0 C0.441 -0.002 0.441 -0.002 2.676 -0.015 C5.567 -0.03 8.459 -0.036 11.351 -0.042 C12.351 -0.045 13.351 -0.048 14.382 -0.051 C19.685 -0.066 24.989 -0.075 30.292 -0.079 C35.704 -0.085 41.116 -0.109 46.528 -0.137 C50.746 -0.156 54.964 -0.161 59.182 -0.162 C61.173 -0.165 63.165 -0.173 65.156 -0.187 C116.199 -0.504 116.199 -0.504 131.616 14.083 C137.374 20.36 138.87 25.256 138.894 33.786 C138.919 35.479 138.944 37.172 138.97 38.864 C138.998 41.517 139.023 44.17 139.041 46.823 C139.063 49.395 139.102 51.965 139.144 54.536 C139.144 54.931 139.144 54.931 139.144 56.929 C139.227 61.59 139.952 64.342 142.585 68.161 C142.983 71.536 142.983 71.536 142.96 75.161 C142.968 76.357 142.975 77.554 142.983 78.786 C142.585 82.161 142.585 82.161 141.087 84.162 C138.757 88.815 139.137 93.39 139.151 98.524 C139.146 99.63 139.141 100.736 139.135 101.876 C139.129 104.213 139.13 106.551 139.139 108.888 C139.147 112.451 139.119 116.011 139.087 119.573 C139.085 121.849 139.086 124.124 139.089 126.399 C139.083 126.929 139.083 126.929 139.055 129.607 C139.108 135.274 139.669 139.204 142.5 144.118 C144.658 148.18 145.727 152.682 147.003 157.083 C147.306 158.105 147.608 159.128 147.92 160.181 C148.878 163.422 149.825 166.667 150.772 169.911 C151.42 172.105 152.067 174.299 152.716 176.493 C153.898 180.501 155.078 184.509 156.25 188.52 C156.367 188.921 156.367 188.921 156.96 190.95 C159.261 199.093 159.705 206.5 155.585 214.161 C150.835 221.702 143.467 225.411 134.96 227.474 C125.829 228.974 116.611 228.664 107.523 227.161 C95.431 225.413 83.146 225.874 70.96 225.896 C68.282 225.894 65.604 225.892 62.926 225.89 C57.335 225.886 51.744 225.891 46.153 225.9 C39.73 225.911 33.308 225.908 26.885 225.897 C21.326 225.888 15.767 225.886 10.208 225.892 C6.908 225.895 3.607 225.894 0.306 225.889 C-12.793 225.87 -25.481 226.009 -38.415 228.161 C-50.779 229.252 -64.176 228.56 -74.474 220.974 C-80.164 215.662 -83.098 210.01 -83.731 202.325 C-83.643 195.461 -81.347 189.043 -79.353 182.536 C-78.941 181.163 -78.53 179.789 -78.12 178.416 C-77.292 175.65 -76.457 172.887 -75.617 170.126 C-74.51 166.488 -73.434 162.841 -72.364 159.192 C-71.757 157.14 -71.149 155.088 -70.54 153.036 C-70.403 152.569 -70.403 152.569 -69.712 150.206 C-69.451 149.343 -69.191 148.48 -68.923 147.591 C-68.813 147.221 -68.813 147.221 -68.255 145.348 C-67.415 143.161 -67.415 143.161 -65.886 141.2 C-63.68 136.642 -64.009 132.348 -64.046 127.347 C-64.042 126.257 -64.039 125.167 -64.035 124.044 C-64.028 121.679 -64.029 119.315 -64.035 116.95 C-64.044 113.204 -64.034 109.459 -64.018 105.714 C-63.983 96.41 -63.976 87.106 -63.978 77.802 C-63.98 69.942 -63.966 62.082 -63.93 54.222 C-63.919 50.537 -63.931 46.853 -63.944 43.168 C-63.935 40.9 -63.925 38.631 -63.913 36.363 C-63.923 35.343 -63.933 34.323 -63.943 33.272 C-63.869 25.96 -62.3 20.748 -57.696 15.024 C-42.695 1.964 -19.185 0.027 0 0 Z M-53.415 24.161 C-54.625 26.582 -54.525 28.068 -54.502 30.772 C-54.499 31.258 -54.499 31.258 -54.484 33.716 C-54.472 34.786 -54.461 35.855 -54.449 36.957 C-54.441 38.081 -54.433 39.205 -54.425 40.362 C-54.408 42.809 -54.389 45.256 -54.368 47.702 C-54.321 53.568 -54.296 59.433 -54.268 65.299 C-54.225 74.311 -54.174 83.322 -54.093 92.333 C-54.032 99.059 -53.998 105.785 -53.98 112.512 C-53.968 115.078 -53.947 117.645 -53.917 120.211 C-53.876 123.8 -53.866 127.388 -53.863 130.977 C-53.844 132.04 -53.824 133.104 -53.804 134.2 C-53.844 141.46 -53.844 141.46 -56.867 145.175 C-57.288 145.503 -57.288 145.503 -59.415 147.161 C-60.729 150.121 -60.729 150.121 -61.696 153.396 C-62.061 154.602 -62.426 155.809 -62.802 157.052 C-63.173 158.338 -63.544 159.625 -63.915 160.911 C-64.306 162.223 -64.697 163.534 -65.091 164.844 C-66.217 168.611 -67.317 172.386 -68.415 176.161 C-68.966 178.023 -69.518 179.886 -70.071 181.747 C-70.904 184.552 -71.728 187.358 -72.54 190.169 C-73.127 192.178 -73.753 194.176 -74.415 196.161 C-75.11 203.311 -74.877 208.408 -70.415 214.161 C-63.119 220.03 -56.233 220.481 -47.228 220.411 C-46.25 220.419 -45.272 220.427 -44.265 220.435 C-43.289 220.432 -42.314 220.429 -41.31 220.427 C-40.876 220.426 -40.876 220.426 -38.68 220.42 C-35.834 220.194 -33.266 219.737 -30.478 219.161 C-24.33 218.031 -18.379 217.879 -12.142 217.902 C-10.968 217.899 -9.794 217.895 -8.584 217.892 C-4.736 217.883 -0.888 217.889 2.96 217.896 C5.653 217.895 8.346 217.892 11.04 217.89 C16.671 217.886 22.303 217.891 27.935 217.9 C34.419 217.911 40.903 217.908 47.387 217.897 C52.983 217.888 58.579 217.886 64.175 217.892 C67.505 217.895 70.835 217.894 74.164 217.889 C77.88 217.883 81.596 217.891 85.312 217.902 C86.395 217.898 87.479 217.894 88.596 217.89 C94.667 217.923 100.34 218.477 106.289 219.704 C111.039 220.649 115.823 220.53 120.647 220.536 C121.659 220.561 122.67 220.585 123.712 220.61 C132.052 220.643 139.079 219.083 145.585 213.661 C150.129 207.981 150.237 203.262 149.585 196.161 C149.079 194.215 148.505 192.286 147.878 190.376 C146.206 185.148 144.623 179.906 143.112 174.63 C142.684 173.145 142.255 171.661 141.825 170.177 C141.168 167.902 140.513 165.627 139.864 163.351 C139.224 161.108 138.575 158.869 137.925 156.63 C137.829 156.291 137.829 156.291 137.347 154.578 C136.221 150.735 134.955 147.407 132.585 144.161 C129.897 143.349 129.897 143.349 127.585 143.161 C128.245 142.171 128.905 141.181 129.585 140.161 C129.825 137.598 129.825 137.598 129.812 134.496 C129.812 133.335 129.812 132.174 129.812 130.978 C129.801 129.725 129.791 128.472 129.78 127.181 C129.777 125.898 129.775 124.614 129.772 123.292 C129.764 119.884 129.744 116.477 129.722 113.069 C129.702 109.59 129.693 106.111 129.683 102.632 C129.661 95.808 129.627 88.985 129.585 82.161 C130.905 82.161 132.225 82.161 133.585 82.161 C133.585 80.841 133.585 79.521 133.585 78.161 C132.265 78.161 130.945 78.161 129.585 78.161 C129.585 76.841 129.585 75.521 129.585 74.161 C130.905 74.161 132.225 74.161 133.585 74.161 C133.585 72.841 133.585 71.521 133.585 70.161 C132.265 70.161 130.945 70.161 129.585 70.161 C129.611 68.86 129.637 67.558 129.664 66.217 C129.755 61.376 129.812 56.534 129.86 51.692 C129.885 49.599 129.919 47.506 129.962 45.413 C130.023 42.399 130.051 39.386 130.073 36.372 C130.099 35.441 130.125 34.509 130.151 33.549 C130.153 29.12 130.037 26.121 127.172 22.608 C111.834 8.104 83.385 9.699 63.831 9.763 C61.592 9.761 59.353 9.758 57.114 9.754 C52.454 9.75 47.794 9.756 43.134 9.77 C37.212 9.787 31.29 9.777 25.367 9.759 C20.754 9.748 16.141 9.752 11.528 9.76 C9.346 9.762 7.164 9.759 4.983 9.752 C-39.217 9.64 -39.217 9.64 -53.415 24.161 Z " fill="#FAFCFC" transform="translate(90.4150390625,13.8388671875)"/>
<path d="M0 0 C0.642 -0.006 1.284 -0.012 1.945 -0.018 C4.106 -0.035 6.267 -0.038 8.428 -0.041 C9.974 -0.051 11.519 -0.061 13.065 -0.071 C17.272 -0.098 21.478 -0.111 25.685 -0.119 C28.314 -0.125 30.942 -0.134 33.57 -0.143 C41.793 -0.17 50.017 -0.189 58.24 -0.197 C67.732 -0.206 77.224 -0.241 86.716 -0.299 C94.052 -0.342 101.388 -0.362 108.724 -0.365 C113.106 -0.367 117.487 -0.379 121.868 -0.415 C125.993 -0.448 130.117 -0.452 134.242 -0.434 C135.753 -0.433 137.264 -0.441 138.775 -0.461 C151.605 -0.619 151.605 -0.619 156.2 3.2 C160.109 7.319 159.957 10.889 159.954 16.371 C159.957 17.207 159.96 18.043 159.964 18.904 C159.973 21.675 159.975 24.447 159.976 27.218 C159.979 29.139 159.983 31.059 159.986 32.98 C159.992 37.008 159.994 41.037 159.994 45.065 C159.994 50.237 160.007 55.409 160.024 60.581 C160.035 64.548 160.038 68.515 160.037 72.481 C160.038 74.389 160.043 76.296 160.05 78.204 C160.06 80.866 160.057 83.528 160.051 86.191 C160.057 86.985 160.062 87.779 160.068 88.597 C160.037 94.053 160.037 94.053 157.808 96.281 C154.769 96.476 154.769 96.476 151.183 96.406 C149.995 96.388 148.806 96.37 147.582 96.351 C146.667 96.328 145.751 96.305 144.808 96.281 C144.808 94.961 144.808 93.641 144.808 92.281 C145.446 92.16 146.084 92.039 146.742 91.914 C147.568 91.746 148.394 91.579 149.246 91.406 C150.07 91.243 150.893 91.081 151.742 90.914 C152.083 90.809 152.083 90.809 153.808 90.281 C155.277 87.343 154.956 84.377 154.954 81.157 C154.957 80.423 154.96 79.69 154.964 78.934 C154.973 76.501 154.975 74.069 154.976 71.636 C154.979 69.947 154.983 68.258 154.986 66.569 C154.992 63.024 154.994 59.479 154.994 55.934 C154.994 51.394 155.007 46.855 155.024 42.315 C155.036 38.825 155.038 35.334 155.037 31.843 C155.038 30.17 155.043 28.497 155.05 26.823 C155.06 24.48 155.057 22.137 155.051 19.793 C155.057 19.104 155.062 18.414 155.068 17.704 C155.043 13.816 154.835 10.648 152.808 7.281 C148.873 4.933 145.073 5.028 140.571 5.022 C139.862 5.019 139.152 5.015 138.421 5.011 C136.088 5.003 133.755 5.008 131.422 5.015 C129.797 5.014 128.172 5.012 126.547 5.009 C123.149 5.007 119.75 5.011 116.352 5.02 C111.99 5.032 107.629 5.025 103.268 5.013 C99.916 5.006 96.564 5.008 93.213 5.013 C91.604 5.015 89.995 5.013 88.386 5.008 C86.143 5.003 83.9 5.011 81.657 5.022 C80.38 5.024 79.103 5.025 77.787 5.027 C74.808 5.281 74.808 5.281 72.808 7.281 C72.61 9.855 72.536 12.321 72.55 14.896 C72.546 15.681 72.543 16.467 72.539 17.276 C72.53 19.881 72.536 22.485 72.543 25.089 C72.541 26.895 72.539 28.701 72.537 30.507 C72.534 34.296 72.538 38.085 72.548 41.874 C72.559 46.734 72.552 51.594 72.54 56.455 C72.533 60.186 72.535 63.917 72.541 67.647 C72.542 69.44 72.54 71.232 72.536 73.024 C72.531 75.528 72.538 78.032 72.55 80.536 C72.545 81.28 72.541 82.023 72.537 82.789 C72.568 86.506 72.691 88.105 74.808 91.281 C77.629 91.793 77.629 91.793 80.933 91.968 C82.029 92.034 83.125 92.1 84.254 92.168 C85.097 92.205 85.94 92.242 86.808 92.281 C86.808 93.601 86.808 94.921 86.808 96.281 C84.559 96.362 82.309 96.42 80.058 96.468 C78.805 96.503 77.552 96.538 76.261 96.574 C72.634 96.266 71.297 95.872 68.808 93.281 C67.621 89.72 67.711 86.843 67.746 83.093 C67.755 81.821 67.764 80.549 67.773 79.238 C67.785 78.262 67.796 77.286 67.808 76.281 C67.347 76.283 67.347 76.283 65.012 76.294 C56.331 76.334 47.649 76.365 38.967 76.385 C34.503 76.395 30.039 76.409 25.575 76.432 C21.27 76.453 16.965 76.465 12.66 76.471 C11.014 76.474 9.369 76.482 7.724 76.492 C5.426 76.507 3.127 76.509 0.828 76.508 C-0.482 76.512 -1.792 76.517 -3.142 76.521 C-6.192 76.281 -6.192 76.281 -8.192 74.281 C-8.446 71.32 -8.446 71.32 -8.45 67.476 C-8.452 67.127 -8.452 67.127 -8.461 65.357 C-8.47 63.04 -8.464 60.723 -8.457 58.406 C-8.459 56.799 -8.461 55.193 -8.463 53.586 C-8.466 50.217 -8.462 46.847 -8.452 43.478 C-8.441 39.153 -8.448 34.829 -8.46 30.504 C-8.467 27.186 -8.465 23.868 -8.459 20.55 C-8.458 18.955 -8.46 17.36 -8.464 15.765 C-8.469 13.539 -8.462 11.312 -8.45 9.086 C-8.449 7.817 -8.447 6.548 -8.446 5.241 C-7.958 -0.439 -4.926 0.025 0 0 Z " fill="#263979" transform="translate(52.19169616699219,35.7191162109375)"/>
<path d="M0 0 C39.6 0 79.2 0 120 0 C123.381 14.65 123.381 14.65 124.387 20.656 C124.603 21.945 124.819 23.234 125.041 24.562 C125.254 25.862 125.468 27.161 125.688 28.5 C125.914 29.844 126.142 31.188 126.369 32.531 C126.581 33.81 126.793 35.089 127.012 36.406 C127.202 37.554 127.392 38.702 127.589 39.885 C128 43 128 43 128 48 C83.12 48 38.24 48 -8 48 C-7.394 41.331 -6.773 34.898 -5.625 28.34 C-5.496 27.583 -5.366 26.827 -5.233 26.047 C-4.963 24.473 -4.69 22.9 -4.416 21.326 C-3.996 18.912 -3.583 16.496 -3.172 14.08 C-2.907 12.542 -2.641 11.003 -2.375 9.465 C-2.252 8.744 -2.129 8.023 -2.002 7.281 C-1.115 2.231 -1.115 2.231 0 0 Z " fill="#FCFE01" transform="translate(80,160)"/>
<path d="M0 0 C0.689 -0.006 1.379 -0.013 2.089 -0.02 C7.391 0.114 10.414 1.519 14.423 4.83 C16.709 7.577 16.262 10.112 16.155 13.562 C15.509 19.103 13.742 24.283 12 29.562 C11.644 30.682 11.287 31.802 10.92 32.955 C10.223 35.137 9.517 37.316 8.801 39.492 C8.176 41.395 7.561 43.302 6.963 45.213 C6.709 46.012 6.456 46.81 6.195 47.633 C6.088 47.976 6.088 47.976 5.547 49.711 C3.477 54.75 -1.613 57.932 -6.188 60.5 C-9.063 61.032 -11.834 61.016 -14.75 60.938 C-15.121 60.941 -15.121 60.941 -16.998 60.959 C-21.525 60.907 -24.519 60.404 -28.188 57.5 C-31.1 53.131 -30.734 49.638 -30.188 44.5 C-29.202 39.912 -27.965 35.434 -26.617 30.94 C-26.001 28.877 -25.412 26.807 -24.826 24.734 C-19.471 6.24 -19.471 6.24 -10.836 1.344 C-7.239 0.198 -3.743 0.034 0 0 Z " fill="#179E83" transform="translate(55.1875,157.5)"/>
<path d="M0 0 C25.08 0.33 50.16 0.66 76 1 C76.33 5.62 76.66 10.24 77 15 C77.99 16.98 78.98 18.96 80 21 C69.865 21.046 59.729 21.082 49.594 21.104 C44.888 21.114 40.182 21.128 35.476 21.151 C30.937 21.173 26.399 21.185 21.86 21.19 C20.126 21.193 18.391 21.201 16.657 21.211 C14.233 21.226 11.811 21.228 9.387 21.227 C9.026 21.231 9.026 21.231 7.199 21.249 C2.228 21.228 2.228 21.228 0 19 C0 12.73 0 6.46 0 0 Z " fill="#4A5CA6" transform="translate(44,111)"/>
<path d="M0 0 C2.253 -0.001 4.507 -0.003 6.76 -0.006 C11.463 -0.009 16.165 -0.005 20.867 0.005 C26.856 0.016 32.845 0.01 38.834 -0.002 C43.481 -0.01 48.129 -0.007 52.776 -0.002 C54.983 -0.001 57.189 -0.002 59.396 -0.007 C71.312 -0.027 82.867 0.214 94.629 2.266 C94.629 2.596 94.629 2.926 94.629 3.266 C93.558 3.543 92.486 3.82 91.383 4.105 C89.986 4.471 88.588 4.837 87.191 5.203 C86.484 5.386 85.777 5.568 85.049 5.756 C79.742 7.152 79.742 7.152 78.629 8.266 C76.443 8.338 74.254 8.349 72.066 8.328 C71.468 8.324 71.468 8.324 68.438 8.301 C67.511 8.289 66.584 8.278 65.629 8.266 C65.629 6.946 65.629 5.626 65.629 4.266 C60.349 4.266 55.069 4.266 49.629 4.266 C49.629 5.586 49.629 6.906 49.629 8.266 C40.753 8.335 31.878 8.389 23.002 8.421 C18.88 8.437 14.759 8.458 10.637 8.492 C6.656 8.525 2.675 8.543 -1.306 8.55 C-2.822 8.556 -4.337 8.567 -5.852 8.583 C-7.983 8.605 -10.112 8.608 -12.242 8.606 C-13.453 8.613 -14.663 8.62 -15.91 8.626 C-20.007 8.199 -22.656 7.01 -26.371 5.266 C-29.461 4.535 -29.461 4.535 -32.309 4.078 C-33.266 3.92 -34.224 3.761 -35.211 3.598 C-35.567 3.543 -35.567 3.543 -37.371 3.266 C-37.371 2.936 -37.371 2.606 -37.371 2.266 C-24.925 -0.112 -12.622 -0.027 0 0 Z " fill="#4D5FA8" transform="translate(98.37109375,23.734375)"/>
<path d="M0 0 C47.52 0 95.04 0 144 0 C144 1.32 144 2.64 144 4 C96.48 4 48.96 4 0 4 C0 2.68 0 1.36 0 0 Z " fill="#0E6956" transform="translate(56,148)"/>
<path d="M0 0 C0.689 -0.006 1.379 -0.013 2.089 -0.02 C7.391 0.114 10.414 1.519 14.423 4.83 C16.709 7.577 16.262 10.112 16.155 13.562 C15.509 19.103 13.742 24.283 12 29.562 C11.644 30.682 11.287 31.802 10.92 32.955 C10.223 35.137 9.517 37.316 8.801 39.492 C8.176 41.395 7.561 43.302 6.963 45.213 C6.709 46.012 6.456 46.81 6.195 47.633 C6.088 47.976 6.088 47.976 5.547 49.711 C3.477 54.75 -1.613 57.932 -6.188 60.5 C-9.063 61.032 -11.834 61.016 -14.75 60.938 C-15.121 60.941 -15.121 60.941 -16.998 60.959 C-21.525 60.907 -24.519 60.404 -28.188 57.5 C-31.1 53.131 -30.734 49.638 -30.188 44.5 C-29.202 39.912 -27.965 35.434 -26.617 30.94 C-26.001 28.877 -25.412 26.807 -24.826 24.734 C-19.471 6.24 -19.471 6.24 -10.836 1.344 C-7.239 0.198 -3.743 0.034 0 0 Z M-17.058 10.604 C-19.472 14.656 -20.558 19.236 -21.812 23.75 C-21.956 24.243 -21.956 24.243 -22.68 26.738 C-23.248 28.7 -23.811 30.664 -24.366 32.63 C-25.394 36.222 -26.491 39.792 -27.601 43.359 C-28.942 48.253 -28.715 51.339 -26.625 55.938 C-24.425 58.296 -23.044 58.522 -19.797 59.012 C-12.771 59.215 -5.821 59.25 -0.188 54.5 C1.95 52.099 3.812 49.842 3.812 46.5 C0.513 46.5 -2.788 46.5 -6.188 46.5 C-6.188 45.51 -6.188 44.52 -6.188 43.5 C-3.663 42.238 -1.875 42.401 0.938 42.438 C1.848 42.447 2.758 42.456 3.695 42.465 C4.394 42.476 5.093 42.488 5.812 42.5 C6.964 38.644 8.103 34.785 9.23 30.922 C9.615 29.61 10.003 28.3 10.395 26.991 C10.959 25.099 11.511 23.204 12.062 21.309 C12.398 20.172 12.733 19.036 13.078 17.865 C13.864 14.265 14.081 11.173 13.812 7.5 C11.709 4.504 11.101 3.757 7.812 2.5 C-2.606 1.185 -10.24 1.917 -17.058 10.604 Z " fill="#0E705C" transform="translate(55.1875,157.5)"/>
<path d="M0 0 C0.763 0.206 1.526 0.412 2.312 0.625 C1.562 5.375 1.562 5.375 -0.688 7.625 C-0.358 8.945 -0.028 10.265 0.312 11.625 C3.612 11.625 6.913 11.625 10.312 11.625 C8.913 16.077 6.838 18.591 3.312 21.625 C-2.898 24.769 -9.933 24.478 -16.688 23.625 C-19.845 21.966 -20.141 21.027 -21.688 17.625 C-22 13.75 -22 13.75 -21.688 10.625 C-21.358 10.79 -21.358 10.79 -19.688 11.625 C-16.014 11.759 -13.189 11.792 -9.688 10.625 C-9.358 9.965 -9.028 9.305 -8.688 8.625 C-8.028 8.625 -7.367 8.625 -6.688 8.625 C-6.584 7.511 -6.481 6.398 -6.375 5.25 C-6.148 4.054 -5.921 2.857 -5.688 1.625 C-2.688 -0.375 -2.688 -0.375 0 0 Z " fill="#1A9E82" transform="translate(48.6875,192.375)"/>
<path d="M0 0 C2.375 0.062 2.375 0.062 5 1 C8.612 7.235 10.237 14.115 12.188 21 C12.556 22.258 12.924 23.516 13.303 24.812 C13.476 25.421 13.476 25.421 14.355 28.5 C14.672 29.603 14.988 30.707 15.313 31.844 C16.003 35.016 16.201 37.765 16 41 C15 42 15 42 11.938 42.062 C10.968 42.042 9.999 42.021 9 42 C6.443 34.458 4.062 26.87 1.75 19.25 C1.374 18.045 0.997 16.839 0.609 15.598 C0.259 14.436 -0.092 13.275 -0.453 12.078 C-0.774 11.03 -1.096 9.983 -1.427 8.903 C-2.029 5.855 -1.892 3.955 -1 1 C-0.67 0.67 -0.34 0.34 0 0 Z " fill="#F1F706" transform="translate(210,164)"/>
<path d="M0 0 C0.99 0 1.98 0 3 0 C3 22.44 3 44.88 3 68 C1.68 67.67 0.36 67.34 -1 67 C-1.023 58.412 -1.041 49.824 -1.052 41.236 C-1.057 37.248 -1.064 33.261 -1.075 29.274 C-1.086 25.429 -1.092 21.584 -1.095 17.739 C-1.097 16.269 -1.1 14.799 -1.106 13.329 C-1.113 11.276 -1.114 9.224 -1.114 7.172 C-1.116 6.002 -1.118 4.832 -1.12 3.626 C-1 1 -1 1 0 0 Z " fill="#334D9C" transform="translate(49,40)"/>
<path d="M0 0 C2.515 1.074 3.933 2.163 6 4 C5.812 6.312 5.812 6.312 5 9 C-0.287 12.98 -5.634 12.816 -12 12 C-14.515 10.926 -15.933 9.837 -18 8 C-17.812 5.688 -17.812 5.688 -17 3 C-11.713 -0.98 -6.366 -0.816 0 0 Z " fill="#AF0807" transform="translate(54,176)"/>
<path d="M0 0 C18.48 0 36.96 0 56 0 C56 1.32 56 2.64 56 4 C37.52 4 19.04 4 0 4 C0 2.68 0 1.36 0 0 Z " fill="#F2F409" transform="translate(140,128)"/>
<path d="M0 0 C0.689 -0.006 1.379 -0.013 2.089 -0.02 C7.66 0.121 10.92 1.607 14.812 5.5 C14.438 7.625 14.438 7.625 13.812 9.5 C13.503 9.098 13.503 9.098 11.938 7.062 C9.812 4.5 9.812 4.5 7.812 3.5 C5.4 3.324 2.981 3.233 0.562 3.188 C-0.09 3.169 -0.09 3.169 -3.391 3.074 C-8.767 3.677 -11.504 5.896 -15.34 9.551 C-18.108 13.969 -19.333 18.697 -20.75 23.688 C-20.895 24.183 -20.895 24.183 -21.631 26.689 C-22.209 28.663 -22.782 30.638 -23.35 32.614 C-24.393 36.207 -25.498 39.779 -26.615 43.349 C-27.458 46.519 -27.577 49.253 -27.188 52.5 C-25.625 54.75 -25.625 54.75 -24.188 56.5 C-24.517 57.49 -24.848 58.48 -25.188 59.5 C-29.891 55.972 -29.891 55.972 -30.579 52.557 C-30.667 44.994 -28.769 38.116 -26.617 30.94 C-26.001 28.877 -25.412 26.807 -24.826 24.734 C-19.471 6.24 -19.471 6.24 -10.836 1.344 C-7.239 0.198 -3.743 0.034 0 0 Z " fill="#0F705D" transform="translate(55.1875,157.5)"/>
<path d="M0 0 C0.99 0 1.98 0 3 0 C3 1.32 3 2.64 3 4 C4.32 4 5.64 4 7 4 C7 5.32 7 6.64 7 8 C5.68 8 4.36 8 3 8 C3 9.32 3 10.64 3 12 C4.32 12 5.64 12 7 12 C7 13.32 7 14.64 7 16 C4.667 16.042 2.333 16.041 0 16 C-1 15 -1 15 -1.133 11.875 C-1.13 10.596 -1.128 9.317 -1.125 8 C-1.128 6.721 -1.13 5.442 -1.133 4.125 C-1 1 -1 1 0 0 Z " fill="#B70B0D" transform="translate(217,80)"/>
<path d="M0 0 C2.438 0 2.438 0 5 1 C6.875 3.938 6.875 3.938 8 7 C7.67 7.66 7.34 8.32 7 9 C4.333 9 1.667 9 -1 9 C-1.625 5.625 -1.625 5.625 -2 2 C-1.34 1.34 -0.68 0.68 0 0 Z " fill="#AD120A" transform="translate(210,164)"/>
<path d="M0 0 C2.149 3.224 2.383 4.267 2 8 C1.34 8.66 0.68 9.32 0 10 C-2.625 9.625 -2.625 9.625 -5 9 C-5.66 6.69 -6.32 4.38 -7 2 C-4.69 1.34 -2.38 0.68 0 0 Z " fill="#156D53" transform="translate(226,204)"/>
<path d="M0 0 C0.66 0.33 1.32 0.66 2 1 C1.688 2.938 1.688 2.938 1 5 C-2.473 6.158 -5.361 6.069 -9 6 C-9.33 4.68 -9.66 3.36 -10 2 C-6.331 -0.446 -4.328 -0.236 0 0 Z " fill="#02B510" transform="translate(58,199)"/>
<path d="M0 0 C0.66 0.33 1.32 0.66 2 1 C1.688 2.938 1.688 2.938 1 5 C-2.473 6.158 -5.361 6.069 -9 6 C-9.33 4.68 -9.66 3.36 -10 2 C-6.331 -0.446 -4.328 -0.236 0 0 Z " fill="#30589B" transform="translate(38,199)"/>
<path d="M0 0 C0.763 0.206 1.526 0.412 2.312 0.625 C1.562 5.375 1.562 5.375 -0.688 7.625 C-3.812 7.75 -3.812 7.75 -6.688 7.625 C-6.375 4.75 -6.375 4.75 -5.688 1.625 C-2.688 -0.375 -2.688 -0.375 0 0 Z " fill="#E7F5F2" transform="translate(48.6875,192.375)"/>
<path d="M0 0 C0.289 0.113 0.289 0.113 1.75 0.688 C1.438 3.562 1.438 3.562 0.75 6.688 C-2.25 8.688 -2.25 8.688 -6.25 8.688 C-6.5 5.875 -6.5 5.875 -6.25 2.688 C-4.126 0.335 -3.184 -0.442 0 0 Z " fill="#DF9B1B" transform="translate(44.25,203.3125)"/>
<path d="M0 0 C1.98 0 3.96 0 6 0 C6 1.32 6 2.64 6 4 C4.02 4 2.04 4 0 4 C0 2.68 0 1.36 0 0 Z " fill="#ECF609" transform="translate(181,224)"/>
</svg>
