<?xml version="1.0" encoding="UTF-8"?>
<!-- Generator: visioncortex VTracer 0.6.12 -->
<svg version="1.1" xmlns="http://www.w3.org/2000/svg" width="256" height="256">
<path d="M0 0 C0.826 -0.005 1.651 -0.009 2.502 -0.014 C5.266 -0.026 8.03 -0.017 10.795 -0.007 C12.778 -0.011 14.76 -0.017 16.743 -0.023 C22.127 -0.037 27.511 -0.032 32.896 -0.022 C38.528 -0.014 44.161 -0.021 49.793 -0.026 C59.252 -0.032 68.711 -0.024 78.17 -0.01 C89.109 0.006 100.047 0.001 110.986 -0.016 C120.375 -0.029 129.763 -0.031 139.152 -0.023 C144.761 -0.019 150.369 -0.018 155.978 -0.028 C161.251 -0.037 166.524 -0.031 171.797 -0.013 C173.733 -0.009 175.669 -0.01 177.605 -0.017 C180.246 -0.025 182.886 -0.015 185.527 0 C185.911 -0.003 185.911 -0.003 187.855 -0.02 C192.309 0.029 195.268 0.541 198.764 3.381 C199.094 4.371 199.424 5.361 199.764 6.381 C202.162 7.225 202.162 7.225 205.139 7.881 C211.399 9.268 211.399 9.268 213.764 12.381 C214.811 15.522 214.895 17.726 214.904 21.023 C214.91 22.198 214.916 23.373 214.921 24.583 C214.922 25.228 214.922 25.228 214.925 28.494 C214.929 29.865 214.934 31.237 214.94 32.609 C214.953 36.336 214.959 40.063 214.964 43.791 C214.967 46.119 214.971 48.448 214.975 50.776 C214.989 58.062 214.999 65.347 215.003 72.633 C215.007 81.044 215.025 89.454 215.054 97.864 C215.075 104.366 215.085 110.867 215.087 117.368 C215.088 121.251 215.094 125.134 215.111 129.017 C215.128 132.669 215.13 136.321 215.121 139.974 C215.12 141.952 215.134 143.93 215.148 145.908 C215.145 146.498 215.145 146.498 215.131 149.485 C215.133 150.509 215.134 151.533 215.136 152.588 C214.694 155.903 213.791 157.732 211.764 160.381 C208.98 162.072 206.901 162.631 203.662 162.635 C202.849 162.641 202.036 162.647 201.198 162.653 C200.755 162.651 200.755 162.651 198.509 162.642 C197.561 162.645 196.614 162.649 195.638 162.653 C192.456 162.664 189.274 162.66 186.092 162.656 C183.814 162.66 181.536 162.665 179.258 162.671 C173.063 162.685 166.869 162.685 160.675 162.683 C155.508 162.681 150.342 162.686 145.175 162.691 C132.291 162.703 119.408 162.702 106.524 162.696 C95.334 162.69 84.144 162.702 72.954 162.721 C61.465 162.74 49.976 162.748 38.487 162.745 C32.037 162.743 25.586 162.745 19.136 162.759 C13.071 162.772 7.006 162.77 0.941 162.757 C-1.287 162.754 -3.515 162.757 -5.743 162.765 C-8.78 162.776 -11.817 162.768 -14.854 162.755 C-15.74 162.763 -16.625 162.77 -17.537 162.778 C-22.223 162.736 -25.505 162.541 -29.236 159.381 C-31.476 156.223 -31.489 153.424 -31.497 149.619 C-31.504 148.442 -31.511 147.266 -31.518 146.054 C-31.516 144.767 -31.514 143.48 -31.511 142.155 C-31.515 140.783 -31.521 139.411 -31.526 138.039 C-31.54 134.316 -31.54 130.593 -31.538 126.87 C-31.537 123.761 -31.542 120.652 -31.547 117.543 C-31.558 110.209 -31.558 102.874 -31.552 95.539 C-31.546 87.974 -31.558 80.409 -31.58 72.844 C-31.597 66.347 -31.603 59.85 -31.6 53.353 C-31.598 49.474 -31.601 45.594 -31.615 41.715 C-31.627 38.066 -31.625 34.418 -31.612 30.77 C-31.609 28.794 -31.62 26.819 -31.632 24.843 C-31.628 24.254 -31.628 24.254 -31.611 21.27 C-31.611 20.248 -31.611 19.225 -31.611 18.171 C-31.172 14.904 -30.175 13.026 -28.236 10.381 C-25.932 9.123 -25.932 9.123 -23.361 8.256 C-18.812 6.612 -15.017 4.695 -11.114 1.815 C-7.385 -0.043 -4.073 -0.035 0 0 Z " fill="#272727" transform="translate(36.236328125,46.619049072265625)"/>
<path d="M0 0 C68.64 0 137.28 0 208 0 C208 10.56 208 21.12 208 32 C204.04 32 200.08 32 196 32 C196 35.96 196 39.92 196 44 C190.72 44 185.44 44 180 44 C180 49.28 180 54.56 180 60 C173.4 60 166.8 60 160 60 C160 65.28 160 70.56 160 76 C121.72 76 83.44 76 44 76 C44 70.72 44 65.44 44 60 C29.48 60 14.96 60 0 60 C0 40.2 0 20.4 0 0 Z " fill="#B3B4B3" transform="translate(24,112)"/>
<path d="M0 0 C0.826 -0.005 1.651 -0.009 2.502 -0.014 C5.266 -0.026 8.03 -0.017 10.795 -0.007 C12.778 -0.011 14.76 -0.017 16.743 -0.023 C22.127 -0.037 27.511 -0.032 32.896 -0.022 C38.528 -0.014 44.161 -0.021 49.793 -0.026 C59.252 -0.032 68.711 -0.024 78.17 -0.01 C89.109 0.006 100.047 0.001 110.986 -0.016 C120.375 -0.029 129.763 -0.031 139.152 -0.023 C144.761 -0.019 150.369 -0.018 155.978 -0.028 C161.251 -0.037 166.524 -0.031 171.797 -0.013 C173.733 -0.009 175.669 -0.01 177.605 -0.017 C180.246 -0.025 182.886 -0.015 185.527 0 C185.911 -0.003 185.911 -0.003 187.855 -0.02 C192.309 0.029 195.268 0.541 198.764 3.381 C199.094 4.371 199.424 5.361 199.764 6.381 C202.162 7.225 202.162 7.225 205.139 7.881 C211.399 9.268 211.399 9.268 213.764 12.381 C214.811 15.522 214.895 17.726 214.904 21.023 C214.91 22.198 214.916 23.373 214.921 24.583 C214.922 25.228 214.922 25.228 214.925 28.494 C214.929 29.865 214.934 31.237 214.94 32.609 C214.953 36.336 214.959 40.063 214.964 43.791 C214.967 46.119 214.971 48.448 214.975 50.776 C214.989 58.062 214.999 65.347 215.003 72.633 C215.007 81.044 215.025 89.454 215.054 97.864 C215.075 104.366 215.085 110.867 215.087 117.368 C215.088 121.251 215.094 125.134 215.111 129.017 C215.128 132.669 215.13 136.321 215.121 139.974 C215.12 141.952 215.134 143.93 215.148 145.908 C215.145 146.498 215.145 146.498 215.131 149.485 C215.133 150.509 215.134 151.533 215.136 152.588 C214.694 155.903 213.791 157.732 211.764 160.381 C208.98 162.072 206.901 162.631 203.662 162.635 C202.849 162.641 202.036 162.647 201.198 162.653 C200.755 162.651 200.755 162.651 198.509 162.642 C197.561 162.645 196.614 162.649 195.638 162.653 C192.456 162.664 189.274 162.66 186.092 162.656 C183.814 162.66 181.536 162.665 179.258 162.671 C173.063 162.685 166.869 162.685 160.675 162.683 C155.508 162.681 150.342 162.686 145.175 162.691 C132.291 162.703 119.408 162.702 106.524 162.696 C95.334 162.69 84.144 162.702 72.954 162.721 C61.465 162.74 49.976 162.748 38.487 162.745 C32.037 162.743 25.586 162.745 19.136 162.759 C13.071 162.772 7.006 162.77 0.941 162.757 C-1.287 162.754 -3.515 162.757 -5.743 162.765 C-8.78 162.776 -11.817 162.768 -14.854 162.755 C-15.74 162.763 -16.625 162.77 -17.537 162.778 C-22.223 162.736 -25.505 162.541 -29.236 159.381 C-31.476 156.223 -31.489 153.424 -31.497 149.619 C-31.504 148.442 -31.511 147.266 -31.518 146.054 C-31.516 144.767 -31.514 143.48 -31.511 142.155 C-31.515 140.783 -31.521 139.411 -31.526 138.039 C-31.54 134.316 -31.54 130.593 -31.538 126.87 C-31.537 123.761 -31.542 120.652 -31.547 117.543 C-31.558 110.209 -31.558 102.874 -31.552 95.539 C-31.546 87.974 -31.558 80.409 -31.58 72.844 C-31.597 66.347 -31.603 59.85 -31.6 53.353 C-31.598 49.474 -31.601 45.594 -31.615 41.715 C-31.627 38.066 -31.625 34.418 -31.612 30.77 C-31.609 28.794 -31.62 26.819 -31.632 24.843 C-31.628 24.254 -31.628 24.254 -31.611 21.27 C-31.611 20.248 -31.611 19.225 -31.611 18.171 C-31.172 14.904 -30.175 13.026 -28.236 10.381 C-25.932 9.123 -25.932 9.123 -23.361 8.256 C-18.812 6.612 -15.017 4.695 -11.114 1.815 C-7.385 -0.043 -4.073 -0.035 0 0 Z M-8.236 9.381 C-8.236 12.021 -8.236 14.661 -8.236 17.381 C-9.556 17.381 -10.876 17.381 -12.236 17.381 C-12.236 16.061 -12.236 14.741 -12.236 13.381 C-13.674 13.691 -15.112 14.004 -16.549 14.318 C-17.349 14.492 -18.15 14.666 -18.975 14.846 C-21.236 15.381 -21.236 15.381 -24.236 16.381 C-24.236 61.591 -24.236 106.801 -24.236 153.381 C51.004 153.381 126.244 153.381 203.764 153.381 C203.764 108.171 203.764 62.961 203.764 16.381 C201.784 15.886 201.784 15.886 191.764 13.381 C191.764 14.701 191.764 16.021 191.764 17.381 C191.104 17.381 190.444 17.381 189.764 17.381 C189.764 14.741 189.764 12.101 189.764 9.381 C189.104 9.381 188.444 9.381 187.764 9.381 C187.764 10.701 187.764 12.021 187.764 13.381 C187.104 13.381 186.444 13.381 185.764 13.381 C185.764 12.061 185.764 10.741 185.764 9.381 C185.104 9.381 184.444 9.381 183.764 9.381 C183.764 10.701 183.764 12.021 183.764 13.381 C183.104 13.381 182.444 13.381 181.764 13.381 C181.764 12.061 181.764 10.741 181.764 9.381 C181.104 9.381 180.444 9.381 179.764 9.381 C179.764 10.701 179.764 12.021 179.764 13.381 C179.104 13.381 178.444 13.381 177.764 13.381 C177.764 12.061 177.764 10.741 177.764 9.381 C177.104 9.381 176.444 9.381 175.764 9.381 C175.764 10.701 175.764 12.021 175.764 13.381 C175.104 13.381 174.444 13.381 173.764 13.381 C173.764 12.061 173.764 10.741 173.764 9.381 C173.104 9.381 172.444 9.381 171.764 9.381 C171.764 10.701 171.764 12.021 171.764 13.381 C171.104 13.381 170.444 13.381 169.764 13.381 C169.764 12.061 169.764 10.741 169.764 9.381 C169.104 9.381 168.444 9.381 167.764 9.381 C167.764 10.701 167.764 12.021 167.764 13.381 C167.104 13.381 166.444 13.381 165.764 13.381 C165.764 12.061 165.764 10.741 165.764 9.381 C165.104 9.381 164.444 9.381 163.764 9.381 C163.764 10.701 163.764 12.021 163.764 13.381 C163.104 13.381 162.444 13.381 161.764 13.381 C161.764 12.061 161.764 10.741 161.764 9.381 C161.104 9.381 160.444 9.381 159.764 9.381 C159.764 10.701 159.764 12.021 159.764 13.381 C159.104 13.381 158.444 13.381 157.764 13.381 C157.764 12.061 157.764 10.741 157.764 9.381 C157.104 9.381 156.444 9.381 155.764 9.381 C155.764 10.701 155.764 12.021 155.764 13.381 C155.104 13.381 154.444 13.381 153.764 13.381 C153.764 12.061 153.764 10.741 153.764 9.381 C153.104 9.381 152.444 9.381 151.764 9.381 C151.764 10.701 151.764 12.021 151.764 13.381 C151.104 13.381 150.444 13.381 149.764 13.381 C149.764 12.061 149.764 10.741 149.764 9.381 C149.104 9.381 148.444 9.381 147.764 9.381 C147.764 10.701 147.764 12.021 147.764 13.381 C147.104 13.381 146.444 13.381 145.764 13.381 C145.764 12.061 145.764 10.741 145.764 9.381 C145.104 9.381 144.444 9.381 143.764 9.381 C143.764 10.701 143.764 12.021 143.764 13.381 C143.104 13.381 142.444 13.381 141.764 13.381 C141.764 12.061 141.764 10.741 141.764 9.381 C141.104 9.381 140.444 9.381 139.764 9.381 C139.764 10.701 139.764 12.021 139.764 13.381 C139.104 13.381 138.444 13.381 137.764 13.381 C137.764 12.061 137.764 10.741 137.764 9.381 C137.104 9.381 136.444 9.381 135.764 9.381 C135.764 10.701 135.764 12.021 135.764 13.381 C135.104 13.381 134.444 13.381 133.764 13.381 C133.764 12.061 133.764 10.741 133.764 9.381 C133.104 9.381 132.444 9.381 131.764 9.381 C131.764 10.701 131.764 12.021 131.764 13.381 C131.104 13.381 130.444 13.381 129.764 13.381 C129.764 12.061 129.764 10.741 129.764 9.381 C129.104 9.381 128.444 9.381 127.764 9.381 C127.764 10.701 127.764 12.021 127.764 13.381 C127.104 13.381 126.444 13.381 125.764 13.381 C125.764 12.061 125.764 10.741 125.764 9.381 C125.104 9.381 124.444 9.381 123.764 9.381 C123.764 10.701 123.764 12.021 123.764 13.381 C123.104 13.381 122.444 13.381 121.764 13.381 C121.764 12.061 121.764 10.741 121.764 9.381 C121.104 9.381 120.444 9.381 119.764 9.381 C119.764 10.701 119.764 12.021 119.764 13.381 C119.104 13.381 118.444 13.381 117.764 13.381 C117.764 12.061 117.764 10.741 117.764 9.381 C117.104 9.381 116.444 9.381 115.764 9.381 C115.764 10.701 115.764 12.021 115.764 13.381 C115.104 13.381 114.444 13.381 113.764 13.381 C113.764 12.061 113.764 10.741 113.764 9.381 C113.104 9.381 112.444 9.381 111.764 9.381 C111.764 10.701 111.764 12.021 111.764 13.381 C111.104 13.381 110.444 13.381 109.764 13.381 C109.764 12.061 109.764 10.741 109.764 9.381 C109.104 9.381 108.444 9.381 107.764 9.381 C107.764 10.701 107.764 12.021 107.764 13.381 C107.104 13.381 106.444 13.381 105.764 13.381 C105.764 12.061 105.764 10.741 105.764 9.381 C105.104 9.381 104.444 9.381 103.764 9.381 C103.764 10.701 103.764 12.021 103.764 13.381 C103.104 13.381 102.444 13.381 101.764 13.381 C101.764 12.061 101.764 10.741 101.764 9.381 C101.104 9.381 100.444 9.381 99.764 9.381 C99.764 10.701 99.764 12.021 99.764 13.381 C99.104 13.381 98.444 13.381 97.764 13.381 C97.764 12.061 97.764 10.741 97.764 9.381 C97.104 9.381 96.444 9.381 95.764 9.381 C95.764 10.701 95.764 12.021 95.764 13.381 C95.104 13.381 94.444 13.381 93.764 13.381 C93.764 12.061 93.764 10.741 93.764 9.381 C93.104 9.381 92.444 9.381 91.764 9.381 C91.764 10.701 91.764 12.021 91.764 13.381 C91.104 13.381 90.444 13.381 89.764 13.381 C89.764 12.061 89.764 10.741 89.764 9.381 C89.104 9.381 88.444 9.381 87.764 9.381 C87.764 10.701 87.764 12.021 87.764 13.381 C87.104 13.381 86.444 13.381 85.764 13.381 C85.764 12.061 85.764 10.741 85.764 9.381 C85.104 9.381 84.444 9.381 83.764 9.381 C83.764 10.701 83.764 12.021 83.764 13.381 C83.104 13.381 82.444 13.381 81.764 13.381 C81.764 12.061 81.764 10.741 81.764 9.381 C81.104 9.381 80.444 9.381 79.764 9.381 C79.764 10.701 79.764 12.021 79.764 13.381 C79.104 13.381 78.444 13.381 77.764 13.381 C77.764 12.061 77.764 10.741 77.764 9.381 C77.104 9.381 76.444 9.381 75.764 9.381 C75.764 10.701 75.764 12.021 75.764 13.381 C75.104 13.381 74.444 13.381 73.764 13.381 C73.764 12.061 73.764 10.741 73.764 9.381 C73.104 9.381 72.444 9.381 71.764 9.381 C71.764 10.701 71.764 12.021 71.764 13.381 C71.104 13.381 70.444 13.381 69.764 13.381 C69.764 12.061 69.764 10.741 69.764 9.381 C69.104 9.381 68.444 9.381 67.764 9.381 C67.764 10.701 67.764 12.021 67.764 13.381 C67.104 13.381 66.444 13.381 65.764 13.381 C65.764 12.061 65.764 10.741 65.764 9.381 C65.104 9.381 64.444 9.381 63.764 9.381 C63.764 10.701 63.764 12.021 63.764 13.381 C63.104 13.381 62.444 13.381 61.764 13.381 C61.764 12.061 61.764 10.741 61.764 9.381 C61.104 9.381 60.444 9.381 59.764 9.381 C59.764 10.701 59.764 12.021 59.764 13.381 C59.104 13.381 58.444 13.381 57.764 13.381 C57.764 12.061 57.764 10.741 57.764 9.381 C57.104 9.381 56.444 9.381 55.764 9.381 C55.764 10.701 55.764 12.021 55.764 13.381 C55.104 13.381 54.444 13.381 53.764 13.381 C53.764 12.061 53.764 10.741 53.764 9.381 C53.104 9.381 52.444 9.381 51.764 9.381 C51.764 10.701 51.764 12.021 51.764 13.381 C51.104 13.381 50.444 13.381 49.764 13.381 C49.764 12.061 49.764 10.741 49.764 9.381 C49.104 9.381 48.444 9.381 47.764 9.381 C47.764 10.701 47.764 12.021 47.764 13.381 C47.104 13.381 46.444 13.381 45.764 13.381 C45.764 12.061 45.764 10.741 45.764 9.381 C45.104 9.381 44.444 9.381 43.764 9.381 C43.764 10.701 43.764 12.021 43.764 13.381 C43.104 13.381 42.444 13.381 41.764 13.381 C41.764 12.061 41.764 10.741 41.764 9.381 C41.104 9.381 40.444 9.381 39.764 9.381 C39.764 10.701 39.764 12.021 39.764 13.381 C39.104 13.381 38.444 13.381 37.764 13.381 C37.764 12.061 37.764 10.741 37.764 9.381 C37.104 9.381 36.444 9.381 35.764 9.381 C35.764 10.701 35.764 12.021 35.764 13.381 C35.104 13.381 34.444 13.381 33.764 13.381 C33.764 12.061 33.764 10.741 33.764 9.381 C33.104 9.381 32.444 9.381 31.764 9.381 C31.764 10.701 31.764 12.021 31.764 13.381 C31.104 13.381 30.444 13.381 29.764 13.381 C29.764 12.061 29.764 10.741 29.764 9.381 C29.104 9.381 28.444 9.381 27.764 9.381 C27.764 10.701 27.764 12.021 27.764 13.381 C27.104 13.381 26.444 13.381 25.764 13.381 C25.764 12.061 25.764 10.741 25.764 9.381 C25.104 9.381 24.444 9.381 23.764 9.381 C23.764 10.701 23.764 12.021 23.764 13.381 C23.104 13.381 22.444 13.381 21.764 13.381 C21.764 12.061 21.764 10.741 21.764 9.381 C21.104 9.381 20.444 9.381 19.764 9.381 C19.764 10.701 19.764 12.021 19.764 13.381 C19.104 13.381 18.444 13.381 17.764 13.381 C17.764 12.061 17.764 10.741 17.764 9.381 C17.104 9.381 16.444 9.381 15.764 9.381 C15.764 10.701 15.764 12.021 15.764 13.381 C15.104 13.381 14.444 13.381 13.764 13.381 C13.764 12.061 13.764 10.741 13.764 9.381 C13.104 9.381 12.444 9.381 11.764 9.381 C11.764 10.701 11.764 12.021 11.764 13.381 C11.104 13.381 10.444 13.381 9.764 13.381 C9.764 12.061 9.764 10.741 9.764 9.381 C9.104 9.381 8.444 9.381 7.764 9.381 C7.764 10.701 7.764 12.021 7.764 13.381 C7.104 13.381 6.444 13.381 5.764 13.381 C5.764 12.061 5.764 10.741 5.764 9.381 C5.104 9.381 4.444 9.381 3.764 9.381 C3.764 10.701 3.764 12.021 3.764 13.381 C3.104 13.381 2.444 13.381 1.764 13.381 C1.764 12.061 1.764 10.741 1.764 9.381 C1.104 9.381 0.444 9.381 -0.236 9.381 C-0.236 10.701 -0.236 12.021 -0.236 13.381 C-0.896 13.381 -1.556 13.381 -2.236 13.381 C-2.236 12.061 -2.236 10.741 -2.236 9.381 C-2.896 9.381 -3.556 9.381 -4.236 9.381 C-4.236 10.701 -4.236 12.021 -4.236 13.381 C-4.896 13.381 -5.556 13.381 -6.236 13.381 C-6.236 12.061 -6.236 10.741 -6.236 9.381 C-6.896 9.381 -7.556 9.381 -8.236 9.381 Z " fill="#F8F8F8" transform="translate(36.236328125,46.619049072265625)"/>
<path d="M0 0 C0.66 0 1.32 0 2 0 C2 7.59 2 15.18 2 23 C2.66 23 3.32 23 4 23 C4 15.41 4 7.82 4 0 C4.66 0 5.32 0 6 0 C6 7.59 6 15.18 6 23 C6.66 23 7.32 23 8 23 C8 15.41 8 7.82 8 0 C8.66 0 9.32 0 10 0 C10 7.59 10 15.18 10 23 C10.66 23 11.32 23 12 23 C12 15.41 12 7.82 12 0 C12.66 0 13.32 0 14 0 C14 7.59 14 15.18 14 23 C14.66 23 15.32 23 16 23 C16 15.41 16 7.82 16 0 C16.66 0 17.32 0 18 0 C18 7.59 18 15.18 18 23 C18.66 23 19.32 23 20 23 C20 15.41 20 7.82 20 0 C20.66 0 21.32 0 22 0 C22 7.59 22 15.18 22 23 C22.66 23 23.32 23 24 23 C24 15.41 24 7.82 24 0 C24.66 0 25.32 0 26 0 C26 7.59 26 15.18 26 23 C26.66 23 27.32 23 28 23 C28 15.41 28 7.82 28 0 C28.66 0 29.32 0 30 0 C30 7.59 30 15.18 30 23 C30.66 23 31.32 23 32 23 C32 15.41 32 7.82 32 0 C32.66 0 33.32 0 34 0 C34 7.59 34 15.18 34 23 C34.66 23 35.32 23 36 23 C36 15.41 36 7.82 36 0 C36.66 0 37.32 0 38 0 C38 7.59 38 15.18 38 23 C38.66 23 39.32 23 40 23 C40 15.41 40 7.82 40 0 C40.66 0 41.32 0 42 0 C42 7.59 42 15.18 42 23 C42.66 23 43.32 23 44 23 C44 15.41 44 7.82 44 0 C44.66 0 45.32 0 46 0 C46 7.59 46 15.18 46 23 C46.66 23 47.32 23 48 23 C48 15.41 48 7.82 48 0 C48.66 0 49.32 0 50 0 C50 7.59 50 15.18 50 23 C50.66 23 51.32 23 52 23 C52 15.41 52 7.82 52 0 C52.66 0 53.32 0 54 0 C54 7.59 54 15.18 54 23 C54.66 23 55.32 23 56 23 C56 15.41 56 7.82 56 0 C56.66 0 57.32 0 58 0 C58 7.59 58 15.18 58 23 C58.66 23 59.32 23 60 23 C60 15.41 60 7.82 60 0 C60.66 0 61.32 0 62 0 C62 7.59 62 15.18 62 23 C62.66 23 63.32 23 64 23 C64 15.41 64 7.82 64 0 C64.66 0 65.32 0 66 0 C66 7.59 66 15.18 66 23 C66.66 23 67.32 23 68 23 C68 15.41 68 7.82 68 0 C68.66 0 69.32 0 70 0 C70 7.59 70 15.18 70 23 C70.66 23 71.32 23 72 23 C72 15.41 72 7.82 72 0 C72.66 0 73.32 0 74 0 C74 7.59 74 15.18 74 23 C74.66 23 75.32 23 76 23 C76 15.41 76 7.82 76 0 C76.66 0 77.32 0 78 0 C78 7.59 78 15.18 78 23 C78.66 23 79.32 23 80 23 C80 15.41 80 7.82 80 0 C80.66 0 81.32 0 82 0 C82 7.59 82 15.18 82 23 C82.66 23 83.32 23 84 23 C84 15.41 84 7.82 84 0 C84.66 0 85.32 0 86 0 C86 7.59 86 15.18 86 23 C86.66 23 87.32 23 88 23 C88 15.41 88 7.82 88 0 C88.66 0 89.32 0 90 0 C90 7.59 90 15.18 90 23 C90.66 23 91.32 23 92 23 C92 15.41 92 7.82 92 0 C92.66 0 93.32 0 94 0 C94 7.59 94 15.18 94 23 C94.66 23 95.32 23 96 23 C96 15.41 96 7.82 96 0 C96.66 0 97.32 0 98 0 C98 7.59 98 15.18 98 23 C98.66 23 99.32 23 100 23 C100 15.41 100 7.82 100 0 C100.66 0 101.32 0 102 0 C102 7.59 102 15.18 102 23 C102.66 23 103.32 23 104 23 C104 15.41 104 7.82 104 0 C104.66 0 105.32 0 106 0 C106 7.59 106 15.18 106 23 C106.66 23 107.32 23 108 23 C108 15.41 108 7.82 108 0 C108.66 0 109.32 0 110 0 C110 7.59 110 15.18 110 23 C110.66 23 111.32 23 112 23 C112 15.41 112 7.82 112 0 C112.66 0 113.32 0 114 0 C114 7.59 114 15.18 114 23 C114.66 23 115.32 23 116 23 C116 15.41 116 7.82 116 0 C116.66 0 117.32 0 118 0 C118 7.59 118 15.18 118 23 C118.66 23 119.32 23 120 23 C120 15.41 120 7.82 120 0 C120.66 0 121.32 0 122 0 C122 7.59 122 15.18 122 23 C122.66 23 123.32 23 124 23 C124 15.41 124 7.82 124 0 C124.66 0 125.32 0 126 0 C126 7.59 126 15.18 126 23 C126.66 23 127.32 23 128 23 C128 15.41 128 7.82 128 0 C128.66 0 129.32 0 130 0 C130 7.59 130 15.18 130 23 C130.66 23 131.32 23 132 23 C132 15.41 132 7.82 132 0 C132.66 0 133.32 0 134 0 C134 7.59 134 15.18 134 23 C134.66 23 135.32 23 136 23 C136 15.41 136 7.82 136 0 C136.66 0 137.32 0 138 0 C138 7.59 138 15.18 138 23 C138.66 23 139.32 23 140 23 C140 15.41 140 7.82 140 0 C140.66 0 141.32 0 142 0 C142 7.59 142 15.18 142 23 C142.66 23 143.32 23 144 23 C144 15.41 144 7.82 144 0 C144.66 0 145.32 0 146 0 C146 7.59 146 15.18 146 23 C146.66 23 147.32 23 148 23 C148 15.41 148 7.82 148 0 C148.66 0 149.32 0 150 0 C150 7.59 150 15.18 150 23 C150.66 23 151.32 23 152 23 C152 15.41 152 7.82 152 0 C152.66 0 153.32 0 154 0 C154 7.59 154 15.18 154 23 C154.66 23 155.32 23 156 23 C156 15.41 156 7.82 156 0 C156.66 0 157.32 0 158 0 C158 7.59 158 15.18 158 23 C158.66 23 159.32 23 160 23 C160 15.41 160 7.82 160 0 C160.66 0 161.32 0 162 0 C162 7.59 162 15.18 162 23 C162.66 23 163.32 23 164 23 C164 15.41 164 7.82 164 0 C164.66 0 165.32 0 166 0 C166 7.59 166 15.18 166 23 C166.66 23 167.32 23 168 23 C168 15.41 168 7.82 168 0 C168.66 0 169.32 0 170 0 C170 7.59 170 15.18 170 23 C170.66 23 171.32 23 172 23 C172 15.41 172 7.82 172 0 C172.66 0 173.32 0 174 0 C174 7.59 174 15.18 174 23 C174.66 23 175.32 23 176 23 C176 15.41 176 7.82 176 0 C176.66 0 177.32 0 178 0 C178 7.59 178 15.18 178 23 C178.66 23 179.32 23 180 23 C180 15.41 180 7.82 180 0 C180.66 0 181.32 0 182 0 C182 7.59 182 15.18 182 23 C182.66 23 183.32 23 184 23 C184 15.41 184 7.82 184 0 C184.66 0 185.32 0 186 0 C186 7.59 186 15.18 186 23 C186.66 23 187.32 23 188 23 C188 15.41 188 7.82 188 0 C188.66 0 189.32 0 190 0 C190 7.59 190 15.18 190 23 C190.66 23 191.32 23 192 23 C192 15.41 192 7.82 192 0 C192.66 0 193.32 0 194 0 C194 8.91 194 17.82 194 27 C129.32 27 64.64 27 -2 27 C-2 25.68 -2 24.36 -2 23 C-1.34 23 -0.68 23 0 23 C0 15.41 0 7.82 0 0 Z " fill="#191919" transform="translate(30,61)"/>
<path d="M0 0 C0.66 0 1.32 0 2 0 C2 1.32 2 2.64 2 4 C2.66 4 3.32 4 4 4 C4 2.68 4 1.36 4 0 C4.66 0 5.32 0 6 0 C6 1.32 6 2.64 6 4 C6.66 4 7.32 4 8 4 C8 2.68 8 1.36 8 0 C8.66 0 9.32 0 10 0 C10 1.32 10 2.64 10 4 C10.66 4 11.32 4 12 4 C12 2.68 12 1.36 12 0 C12.66 0 13.32 0 14 0 C14 1.32 14 2.64 14 4 C14.66 4 15.32 4 16 4 C16 2.68 16 1.36 16 0 C16.66 0 17.32 0 18 0 C18 1.32 18 2.64 18 4 C18.66 4 19.32 4 20 4 C20 2.68 20 1.36 20 0 C20.66 0 21.32 0 22 0 C22 1.32 22 2.64 22 4 C22.66 4 23.32 4 24 4 C24 2.68 24 1.36 24 0 C24.66 0 25.32 0 26 0 C26 1.32 26 2.64 26 4 C26.66 4 27.32 4 28 4 C28 2.68 28 1.36 28 0 C28.66 0 29.32 0 30 0 C30 1.32 30 2.64 30 4 C30.66 4 31.32 4 32 4 C32 2.68 32 1.36 32 0 C32.66 0 33.32 0 34 0 C34 1.32 34 2.64 34 4 C34.66 4 35.32 4 36 4 C36 2.68 36 1.36 36 0 C36.66 0 37.32 0 38 0 C38 1.32 38 2.64 38 4 C38.66 4 39.32 4 40 4 C40 2.68 40 1.36 40 0 C40.66 0 41.32 0 42 0 C42 1.32 42 2.64 42 4 C42.66 4 43.32 4 44 4 C44 2.68 44 1.36 44 0 C44.66 0 45.32 0 46 0 C46 1.32 46 2.64 46 4 C46.66 4 47.32 4 48 4 C48 2.68 48 1.36 48 0 C48.66 0 49.32 0 50 0 C50 1.32 50 2.64 50 4 C50.66 4 51.32 4 52 4 C52 2.68 52 1.36 52 0 C52.66 0 53.32 0 54 0 C54 1.32 54 2.64 54 4 C54.66 4 55.32 4 56 4 C56 2.68 56 1.36 56 0 C56.66 0 57.32 0 58 0 C58 1.32 58 2.64 58 4 C58.66 4 59.32 4 60 4 C60 2.68 60 1.36 60 0 C60.66 0 61.32 0 62 0 C62 1.32 62 2.64 62 4 C62.66 4 63.32 4 64 4 C64 2.68 64 1.36 64 0 C64.66 0 65.32 0 66 0 C66 1.32 66 2.64 66 4 C66.66 4 67.32 4 68 4 C68 2.68 68 1.36 68 0 C68.66 0 69.32 0 70 0 C70 1.32 70 2.64 70 4 C70.66 4 71.32 4 72 4 C72 2.68 72 1.36 72 0 C72.66 0 73.32 0 74 0 C74 1.32 74 2.64 74 4 C74.66 4 75.32 4 76 4 C76 2.68 76 1.36 76 0 C76.66 0 77.32 0 78 0 C78 1.32 78 2.64 78 4 C78.66 4 79.32 4 80 4 C80 2.68 80 1.36 80 0 C80.66 0 81.32 0 82 0 C82 1.32 82 2.64 82 4 C82.66 4 83.32 4 84 4 C84 2.68 84 1.36 84 0 C84.66 0 85.32 0 86 0 C86 1.32 86 2.64 86 4 C86.66 4 87.32 4 88 4 C88 2.68 88 1.36 88 0 C88.66 0 89.32 0 90 0 C90 1.32 90 2.64 90 4 C90.66 4 91.32 4 92 4 C92 2.68 92 1.36 92 0 C92.66 0 93.32 0 94 0 C94 1.32 94 2.64 94 4 C94.66 4 95.32 4 96 4 C96 2.68 96 1.36 96 0 C96.66 0 97.32 0 98 0 C98 1.32 98 2.64 98 4 C98.66 4 99.32 4 100 4 C100 2.68 100 1.36 100 0 C100.66 0 101.32 0 102 0 C102 1.32 102 2.64 102 4 C102.66 4 103.32 4 104 4 C104 2.68 104 1.36 104 0 C104.66 0 105.32 0 106 0 C106 1.32 106 2.64 106 4 C106.66 4 107.32 4 108 4 C108 2.68 108 1.36 108 0 C108.66 0 109.32 0 110 0 C110 1.32 110 2.64 110 4 C110.66 4 111.32 4 112 4 C112 2.68 112 1.36 112 0 C112.66 0 113.32 0 114 0 C114 1.32 114 2.64 114 4 C114.66 4 115.32 4 116 4 C116 2.68 116 1.36 116 0 C116.66 0 117.32 0 118 0 C118 1.32 118 2.64 118 4 C118.66 4 119.32 4 120 4 C120 2.68 120 1.36 120 0 C120.66 0 121.32 0 122 0 C122 1.32 122 2.64 122 4 C122.66 4 123.32 4 124 4 C124 2.68 124 1.36 124 0 C124.66 0 125.32 0 126 0 C126 1.32 126 2.64 126 4 C126.66 4 127.32 4 128 4 C128 2.68 128 1.36 128 0 C128.66 0 129.32 0 130 0 C130 1.32 130 2.64 130 4 C130.66 4 131.32 4 132 4 C132 2.68 132 1.36 132 0 C132.66 0 133.32 0 134 0 C134 1.32 134 2.64 134 4 C134.66 4 135.32 4 136 4 C136 2.68 136 1.36 136 0 C136.66 0 137.32 0 138 0 C138 1.32 138 2.64 138 4 C138.66 4 139.32 4 140 4 C140 2.68 140 1.36 140 0 C140.66 0 141.32 0 142 0 C142 1.32 142 2.64 142 4 C142.66 4 143.32 4 144 4 C144 2.68 144 1.36 144 0 C144.66 0 145.32 0 146 0 C146 1.32 146 2.64 146 4 C146.66 4 147.32 4 148 4 C148 2.68 148 1.36 148 0 C148.66 0 149.32 0 150 0 C150 1.32 150 2.64 150 4 C150.66 4 151.32 4 152 4 C152 2.68 152 1.36 152 0 C152.66 0 153.32 0 154 0 C154 1.32 154 2.64 154 4 C154.66 4 155.32 4 156 4 C156 2.68 156 1.36 156 0 C156.66 0 157.32 0 158 0 C158 1.32 158 2.64 158 4 C158.66 4 159.32 4 160 4 C160 2.68 160 1.36 160 0 C160.66 0 161.32 0 162 0 C162 1.32 162 2.64 162 4 C162.66 4 163.32 4 164 4 C164 2.68 164 1.36 164 0 C164.66 0 165.32 0 166 0 C166 1.32 166 2.64 166 4 C166.66 4 167.32 4 168 4 C168 2.68 168 1.36 168 0 C168.66 0 169.32 0 170 0 C170 1.32 170 2.64 170 4 C170.66 4 171.32 4 172 4 C172 2.68 172 1.36 172 0 C172.66 0 173.32 0 174 0 C174 1.32 174 2.64 174 4 C174.66 4 175.32 4 176 4 C176 2.68 176 1.36 176 0 C176.66 0 177.32 0 178 0 C178 1.32 178 2.64 178 4 C178.66 4 179.32 4 180 4 C180 2.68 180 1.36 180 0 C180.66 0 181.32 0 182 0 C182 1.32 182 2.64 182 4 C182.66 4 183.32 4 184 4 C184 2.68 184 1.36 184 0 C184.66 0 185.32 0 186 0 C186 1.32 186 2.64 186 4 C186.66 4 187.32 4 188 4 C188 2.68 188 1.36 188 0 C188.66 0 189.32 0 190 0 C190 1.32 190 2.64 190 4 C190.66 4 191.32 4 192 4 C192 2.68 192 1.36 192 0 C192.66 0 193.32 0 194 0 C194 1.32 194 2.64 194 4 C194.66 4 195.32 4 196 4 C196 2.68 196 1.36 196 0 C196.66 0 197.32 0 198 0 C198 9.24 198 18.48 198 28 C197.34 28 196.68 28 196 28 C196 20.41 196 12.82 196 5 C195.34 5 194.68 5 194 5 C194 12.59 194 20.18 194 28 C193.34 28 192.68 28 192 28 C192 20.41 192 12.82 192 5 C191.34 5 190.68 5 190 5 C190 12.59 190 20.18 190 28 C189.34 28 188.68 28 188 28 C188 20.41 188 12.82 188 5 C187.34 5 186.68 5 186 5 C186 12.59 186 20.18 186 28 C185.34 28 184.68 28 184 28 C184 20.41 184 12.82 184 5 C183.34 5 182.68 5 182 5 C182 12.59 182 20.18 182 28 C181.34 28 180.68 28 180 28 C180 20.41 180 12.82 180 5 C179.34 5 178.68 5 178 5 C178 12.59 178 20.18 178 28 C177.34 28 176.68 28 176 28 C176 20.41 176 12.82 176 5 C175.34 5 174.68 5 174 5 C174 12.59 174 20.18 174 28 C173.34 28 172.68 28 172 28 C172 20.41 172 12.82 172 5 C171.34 5 170.68 5 170 5 C170 12.59 170 20.18 170 28 C169.34 28 168.68 28 168 28 C168 20.41 168 12.82 168 5 C167.34 5 166.68 5 166 5 C166 12.59 166 20.18 166 28 C165.34 28 164.68 28 164 28 C164 20.41 164 12.82 164 5 C163.34 5 162.68 5 162 5 C162 12.59 162 20.18 162 28 C161.34 28 160.68 28 160 28 C160 20.41 160 12.82 160 5 C159.34 5 158.68 5 158 5 C158 12.59 158 20.18 158 28 C157.34 28 156.68 28 156 28 C156 20.41 156 12.82 156 5 C155.34 5 154.68 5 154 5 C154 12.59 154 20.18 154 28 C153.34 28 152.68 28 152 28 C152 20.41 152 12.82 152 5 C151.34 5 150.68 5 150 5 C150 12.59 150 20.18 150 28 C149.34 28 148.68 28 148 28 C148 20.41 148 12.82 148 5 C147.34 5 146.68 5 146 5 C146 12.59 146 20.18 146 28 C145.34 28 144.68 28 144 28 C144 20.41 144 12.82 144 5 C143.34 5 142.68 5 142 5 C142 12.59 142 20.18 142 28 C141.34 28 140.68 28 140 28 C140 20.41 140 12.82 140 5 C139.34 5 138.68 5 138 5 C138 12.59 138 20.18 138 28 C137.34 28 136.68 28 136 28 C136 20.41 136 12.82 136 5 C135.34 5 134.68 5 134 5 C134 12.59 134 20.18 134 28 C133.34 28 132.68 28 132 28 C132 20.41 132 12.82 132 5 C131.34 5 130.68 5 130 5 C130 12.59 130 20.18 130 28 C129.34 28 128.68 28 128 28 C128 20.41 128 12.82 128 5 C127.34 5 126.68 5 126 5 C126 12.59 126 20.18 126 28 C125.34 28 124.68 28 124 28 C124 20.41 124 12.82 124 5 C123.34 5 122.68 5 122 5 C122 12.59 122 20.18 122 28 C121.34 28 120.68 28 120 28 C120 20.41 120 12.82 120 5 C119.34 5 118.68 5 118 5 C118 12.59 118 20.18 118 28 C117.34 28 116.68 28 116 28 C116 20.41 116 12.82 116 5 C115.34 5 114.68 5 114 5 C114 12.59 114 20.18 114 28 C113.34 28 112.68 28 112 28 C112 20.41 112 12.82 112 5 C111.34 5 110.68 5 110 5 C110 12.59 110 20.18 110 28 C109.34 28 108.68 28 108 28 C108 20.41 108 12.82 108 5 C107.34 5 106.68 5 106 5 C106 12.59 106 20.18 106 28 C105.34 28 104.68 28 104 28 C104 20.41 104 12.82 104 5 C103.34 5 102.68 5 102 5 C102 12.59 102 20.18 102 28 C101.34 28 100.68 28 100 28 C100 20.41 100 12.82 100 5 C99.34 5 98.68 5 98 5 C98 12.59 98 20.18 98 28 C97.34 28 96.68 28 96 28 C96 20.41 96 12.82 96 5 C95.34 5 94.68 5 94 5 C94 12.59 94 20.18 94 28 C93.34 28 92.68 28 92 28 C92 20.41 92 12.82 92 5 C91.34 5 90.68 5 90 5 C90 12.59 90 20.18 90 28 C89.34 28 88.68 28 88 28 C88 20.41 88 12.82 88 5 C87.34 5 86.68 5 86 5 C86 12.59 86 20.18 86 28 C85.34 28 84.68 28 84 28 C84 20.41 84 12.82 84 5 C83.34 5 82.68 5 82 5 C82 12.59 82 20.18 82 28 C81.34 28 80.68 28 80 28 C80 20.41 80 12.82 80 5 C79.34 5 78.68 5 78 5 C78 12.59 78 20.18 78 28 C77.34 28 76.68 28 76 28 C76 20.41 76 12.82 76 5 C75.34 5 74.68 5 74 5 C74 12.59 74 20.18 74 28 C73.34 28 72.68 28 72 28 C72 20.41 72 12.82 72 5 C71.34 5 70.68 5 70 5 C70 12.59 70 20.18 70 28 C69.34 28 68.68 28 68 28 C68 20.41 68 12.82 68 5 C67.34 5 66.68 5 66 5 C66 12.59 66 20.18 66 28 C65.34 28 64.68 28 64 28 C64 20.41 64 12.82 64 5 C63.34 5 62.68 5 62 5 C62 12.59 62 20.18 62 28 C61.34 28 60.68 28 60 28 C60 20.41 60 12.82 60 5 C59.34 5 58.68 5 58 5 C58 12.59 58 20.18 58 28 C57.34 28 56.68 28 56 28 C56 20.41 56 12.82 56 5 C55.34 5 54.68 5 54 5 C54 12.59 54 20.18 54 28 C53.34 28 52.68 28 52 28 C52 20.41 52 12.82 52 5 C51.34 5 50.68 5 50 5 C50 12.59 50 20.18 50 28 C49.34 28 48.68 28 48 28 C48 20.41 48 12.82 48 5 C47.34 5 46.68 5 46 5 C46 12.59 46 20.18 46 28 C45.34 28 44.68 28 44 28 C44 20.41 44 12.82 44 5 C43.34 5 42.68 5 42 5 C42 12.59 42 20.18 42 28 C41.34 28 40.68 28 40 28 C40 20.41 40 12.82 40 5 C39.34 5 38.68 5 38 5 C38 12.59 38 20.18 38 28 C37.34 28 36.68 28 36 28 C36 20.41 36 12.82 36 5 C35.34 5 34.68 5 34 5 C34 12.59 34 20.18 34 28 C33.34 28 32.68 28 32 28 C32 20.41 32 12.82 32 5 C31.34 5 30.68 5 30 5 C30 12.59 30 20.18 30 28 C29.34 28 28.68 28 28 28 C28 20.41 28 12.82 28 5 C27.34 5 26.68 5 26 5 C26 12.59 26 20.18 26 28 C25.34 28 24.68 28 24 28 C24 20.41 24 12.82 24 5 C23.34 5 22.68 5 22 5 C22 12.59 22 20.18 22 28 C21.34 28 20.68 28 20 28 C20 20.41 20 12.82 20 5 C19.34 5 18.68 5 18 5 C18 12.59 18 20.18 18 28 C17.34 28 16.68 28 16 28 C16 20.41 16 12.82 16 5 C15.34 5 14.68 5 14 5 C14 12.59 14 20.18 14 28 C13.34 28 12.68 28 12 28 C12 20.41 12 12.82 12 5 C11.34 5 10.68 5 10 5 C10 12.59 10 20.18 10 28 C9.34 28 8.68 28 8 28 C8 20.41 8 12.82 8 5 C7.34 5 6.68 5 6 5 C6 12.59 6 20.18 6 28 C5.34 28 4.68 28 4 28 C4 20.41 4 12.82 4 5 C3.34 5 2.68 5 2 5 C2 12.59 2 20.18 2 28 C1.34 28 0.68 28 0 28 C0 18.76 0 9.52 0 0 Z " fill="#262626" transform="translate(28,56)"/>
<path d="M0 0 C1.32 0 2.64 0 4 0 C4 25.08 4 50.16 4 76 C-13.16 76 -30.32 76 -48 76 C-48 70.72 -48 65.44 -48 60 C-41.4 60 -34.8 60 -28 60 C-28 54.72 -28 49.44 -28 44 C-22.72 44 -17.44 44 -12 44 C-12 40.04 -12 36.08 -12 32 C-8.04 32 -4.08 32 0 32 C0 21.44 0 10.88 0 0 Z " fill="#343434" transform="translate(232,112)"/>
<path d="M0 0 C2.64 0 5.28 0 8 0 C8 19.8 8 39.6 8 60 C22.52 60 37.04 60 52 60 C52 65.28 52 70.56 52 76 C34.84 76 17.68 76 0 76 C0 50.92 0 25.84 0 0 Z " fill="#343434" transform="translate(16,112)"/>
<path d="M0 0 C37.62 0 75.24 0 114 0 C114 3.63 114 7.26 114 11 C76.38 11 38.76 11 0 11 C0 7.37 0 3.74 0 0 Z " fill="#CBCBCB" transform="translate(69,176)"/>
<path d="M0 0 C72.27 0 144.54 0 219 0 C219 1.32 219 2.64 219 4 C146.4 4 73.8 4 -1 4 C-0.67 2.68 -0.34 1.36 0 0 Z " fill="#1B1B1B" transform="translate(17,188)"/>
<path d="M0 0 C35.64 0 71.28 0 108 0 C108 1.32 108 2.64 108 4 C72.36 4 36.72 4 0 4 C0 2.68 0 1.36 0 0 Z " fill="#262626" transform="translate(36,92)"/>
<path d="M0 0 C2.867 1.285 4.976 2.571 7 5 C7 5.66 7 6.32 7 7 C7.99 7 8.98 7 10 7 C12.188 9.5 12.188 9.5 14 12 C12.848 14.468 11.952 16.048 10 18 C9.01 18 8.02 18 7 18 C7 17.34 7 16.68 7 16 C5.68 15.67 4.36 15.34 3 15 C3.33 16.32 3.66 17.64 4 19 C4.66 19 5.32 19 6 19 C4.523 23.677 4.523 23.677 1.875 25.312 C1.566 25.426 1.566 25.426 0 26 C-2.5 24.188 -2.5 24.188 -5 22 C-5 21.01 -5 20.02 -5 19 C-5.598 18.732 -6.196 18.464 -6.812 18.188 C-8.972 17.015 -10.358 15.806 -12 14 C-10.848 11.532 -9.952 9.952 -8 8 C-7.01 8 -6.02 8 -5 8 C-5 8.66 -5 9.32 -5 10 C-3.68 10.33 -2.36 10.66 -1 11 C-1.33 9.68 -1.66 8.36 -2 7 C-2.66 7 -3.32 7 -4 7 C-3.436 3.73 -2.5 2.174 0 0 Z " fill="#454545" transform="translate(221,157)"/>
<path d="M0 0 C6.27 0 12.54 0 19 0 C19 3.63 19 7.26 19 11 C15.865 11.165 15.865 11.165 0 12 C0 8.04 0 4.08 0 0 Z " fill="#CBCBCB" transform="translate(200,144)"/>
<path d="M0 0 C4.95 0 9.9 0 15 0 C15 3.96 15 7.92 15 12 C10.05 12 5.1 12 0 12 C0 8.04 0 4.08 0 0 Z " fill="#CBCBCB" transform="translate(25,128)"/>
<path d="M0 0 C5.28 0 10.56 0 16 0 C16 3.63 16 7.26 16 11 C10.72 11 5.44 11 0 11 C0 7.37 0 3.74 0 0 Z " fill="#CBCBCB" transform="translate(40,160)"/>
<path d="M0 0 C4.95 0 9.9 0 15 0 C15 3.63 15 7.26 15 11 C10.05 11 5.1 11 0 11 C0 7.37 0 3.74 0 0 Z " fill="#CBCBCB" transform="translate(188,160)"/>
<path d="M0 0 C3.96 0 7.92 0 12 0 C12 3.96 12 7.92 12 12 C8.04 12 4.08 12 0 12 C0 8.04 0 4.08 0 0 Z " fill="#CBCBCB" transform="translate(172,160)"/>
<path d="M0 0 C3.96 0 7.92 0 12 0 C12 3.96 12 7.92 12 12 C8.04 12 4.08 12 0 12 C0 8.04 0 4.08 0 0 Z " fill="#CBCBCB" transform="translate(156,160)"/>
<path d="M0 0 C3.96 0 7.92 0 12 0 C12 3.96 12 7.92 12 12 C8.04 12 4.08 12 0 12 C0 8.04 0 4.08 0 0 Z " fill="#CBCBCB" transform="translate(140,160)"/>
<path d="M0 0 C3.96 0 7.92 0 12 0 C12 3.96 12 7.92 12 12 C8.04 12 4.08 12 0 12 C0 8.04 0 4.08 0 0 Z " fill="#CBCBCB" transform="translate(124,160)"/>
<path d="M0 0 C3.96 0 7.92 0 12 0 C12 3.96 12 7.92 12 12 C8.04 12 4.08 12 0 12 C0 8.04 0 4.08 0 0 Z " fill="#CBCBCB" transform="translate(108,160)"/>
<path d="M0 0 C3.96 0 7.92 0 12 0 C12 3.96 12 7.92 12 12 C8.04 12 4.08 12 0 12 C0 8.04 0 4.08 0 0 Z " fill="#CBCBCB" transform="translate(92,160)"/>
<path d="M0 0 C3.96 0 7.92 0 12 0 C12 3.96 12 7.92 12 12 C8.04 12 4.08 12 0 12 C0 8.04 0 4.08 0 0 Z " fill="#CBCBCB" transform="translate(76,160)"/>
<path d="M0 0 C3.96 0 7.92 0 12 0 C12 3.96 12 7.92 12 12 C8.04 12 4.08 12 0 12 C0 8.04 0 4.08 0 0 Z " fill="#CBCBCB" transform="translate(184,144)"/>
<path d="M0 0 C3.96 0 7.92 0 12 0 C12 3.96 12 7.92 12 12 C8.04 12 4.08 12 0 12 C0 8.04 0 4.08 0 0 Z " fill="#CBCBCB" transform="translate(168,144)"/>
<path d="M0 0 C3.96 0 7.92 0 12 0 C12 3.96 12 7.92 12 12 C8.04 12 4.08 12 0 12 C0 8.04 0 4.08 0 0 Z " fill="#CBCBCB" transform="translate(152,144)"/>
<path d="M0 0 C3.96 0 7.92 0 12 0 C12 3.96 12 7.92 12 12 C8.04 12 4.08 12 0 12 C0 8.04 0 4.08 0 0 Z " fill="#CBCBCB" transform="translate(136,144)"/>
<path d="M0 0 C3.96 0 7.92 0 12 0 C12 3.96 12 7.92 12 12 C8.04 12 4.08 12 0 12 C0 8.04 0 4.08 0 0 Z " fill="#CBCBCB" transform="translate(120,144)"/>
<path d="M0 0 C3.96 0 7.92 0 12 0 C12 3.96 12 7.92 12 12 C8.04 12 4.08 12 0 12 C0 8.04 0 4.08 0 0 Z " fill="#CBCBCB" transform="translate(104,144)"/>
<path d="M0 0 C3.96 0 7.92 0 12 0 C12 3.96 12 7.92 12 12 C8.04 12 4.08 12 0 12 C0 8.04 0 4.08 0 0 Z " fill="#CBCBCB" transform="translate(88,144)"/>
<path d="M0 0 C3.96 0 7.92 0 12 0 C12 3.96 12 7.92 12 12 C8.04 12 4.08 12 0 12 C0 8.04 0 4.08 0 0 Z " fill="#CBCBCB" transform="translate(72,144)"/>
<path d="M0 0 C3.96 0 7.92 0 12 0 C12 3.96 12 7.92 12 12 C8.04 12 4.08 12 0 12 C0 8.04 0 4.08 0 0 Z " fill="#CBCBCB" transform="translate(56,144)"/>
<path d="M0 0 C3.96 0 7.92 0 12 0 C12 3.96 12 7.92 12 12 C8.04 12 4.08 12 0 12 C0 8.04 0 4.08 0 0 Z " fill="#CBCBCB" transform="translate(40,144)"/>
<path d="M0 0 C3.96 0 7.92 0 12 0 C12 3.96 12 7.92 12 12 C8.04 12 4.08 12 0 12 C0 8.04 0 4.08 0 0 Z " fill="#C9C9C9" transform="translate(220,128)"/>
<path d="M0 0 C3.96 0 7.92 0 12 0 C12 3.96 12 7.92 12 12 C8.04 12 4.08 12 0 12 C0 8.04 0 4.08 0 0 Z " fill="#CBCBCB" transform="translate(204,128)"/>
<path d="M0 0 C3.96 0 7.92 0 12 0 C12 3.96 12 7.92 12 12 C8.04 12 4.08 12 0 12 C0 8.04 0 4.08 0 0 Z " fill="#CBCBCB" transform="translate(188,128)"/>
<path d="M0 0 C3.96 0 7.92 0 12 0 C12 3.96 12 7.92 12 12 C8.04 12 4.08 12 0 12 C0 8.04 0 4.08 0 0 Z " fill="#CBCBCB" transform="translate(172,128)"/>
<path d="M0 0 C3.96 0 7.92 0 12 0 C12 3.96 12 7.92 12 12 C8.04 12 4.08 12 0 12 C0 8.04 0 4.08 0 0 Z " fill="#CBCBCB" transform="translate(156,128)"/>
<path d="M0 0 C3.96 0 7.92 0 12 0 C12 3.96 12 7.92 12 12 C8.04 12 4.08 12 0 12 C0 8.04 0 4.08 0 0 Z " fill="#CBCBCB" transform="translate(140,128)"/>
<path d="M0 0 C3.96 0 7.92 0 12 0 C12 3.96 12 7.92 12 12 C8.04 12 4.08 12 0 12 C0 8.04 0 4.08 0 0 Z " fill="#CBCBCB" transform="translate(124,128)"/>
<path d="M0 0 C3.96 0 7.92 0 12 0 C12 3.96 12 7.92 12 12 C8.04 12 4.08 12 0 12 C0 8.04 0 4.08 0 0 Z " fill="#CBCBCB" transform="translate(108,128)"/>
<path d="M0 0 C3.96 0 7.92 0 12 0 C12 3.96 12 7.92 12 12 C8.04 12 4.08 12 0 12 C0 8.04 0 4.08 0 0 Z " fill="#CBCBCB" transform="translate(92,128)"/>
<path d="M0 0 C3.96 0 7.92 0 12 0 C12 3.96 12 7.92 12 12 C8.04 12 4.08 12 0 12 C0 8.04 0 4.08 0 0 Z " fill="#CBCBCB" transform="translate(76,128)"/>
<path d="M0 0 C3.96 0 7.92 0 12 0 C12 3.96 12 7.92 12 12 C8.04 12 4.08 12 0 12 C0 8.04 0 4.08 0 0 Z " fill="#CBCBCB" transform="translate(60,128)"/>
<path d="M0 0 C3.96 0 7.92 0 12 0 C12 3.96 12 7.92 12 12 C8.04 12 4.08 12 0 12 C0 8.04 0 4.08 0 0 Z " fill="#CBCBCB" transform="translate(44,128)"/>
<path d="M0 0 C3.96 0 7.92 0 12 0 C12 3.96 12 7.92 12 12 C8.04 11.67 4.08 11.34 0 11 C0 7.37 0 3.74 0 0 Z " fill="#CBCBCB" transform="translate(60,160)"/>
<path d="M0 0 C3.63 0 7.26 0 11 0 C11 3.96 11 7.92 11 12 C7.37 12 3.74 12 0 12 C0 8.04 0 4.08 0 0 Z " fill="#CBCBCB" transform="translate(25,144)"/>
<path d="M0 0 C3.96 0 7.92 0 12 0 C12 3.63 12 7.26 12 11 C8.04 11 4.08 11 0 11 C0 7.37 0 3.74 0 0 Z " fill="#CBCBCB" transform="translate(216,113)"/>
<path d="M0 0 C3.96 0 7.92 0 12 0 C12 3.63 12 7.26 12 11 C8.04 11 4.08 11 0 11 C0 7.37 0 3.74 0 0 Z " fill="#CBCBCB" transform="translate(200,113)"/>
<path d="M0 0 C3.96 0 7.92 0 12 0 C12 3.63 12 7.26 12 11 C8.04 11 4.08 11 0 11 C0 7.37 0 3.74 0 0 Z " fill="#CBCBCB" transform="translate(184,113)"/>
<path d="M0 0 C3.96 0 7.92 0 12 0 C12 3.63 12 7.26 12 11 C8.04 11 4.08 11 0 11 C0 7.37 0 3.74 0 0 Z " fill="#CBCBCB" transform="translate(168,113)"/>
<path d="M0 0 C3.96 0 7.92 0 12 0 C12 3.63 12 7.26 12 11 C8.04 11 4.08 11 0 11 C0 7.37 0 3.74 0 0 Z " fill="#CBCBCB" transform="translate(152,113)"/>
<path d="M0 0 C3.96 0 7.92 0 12 0 C12 3.63 12 7.26 12 11 C8.04 11 4.08 11 0 11 C0 7.37 0 3.74 0 0 Z " fill="#CBCBCB" transform="translate(136,113)"/>
<path d="M0 0 C3.96 0 7.92 0 12 0 C12 3.63 12 7.26 12 11 C8.04 11 4.08 11 0 11 C0 7.37 0 3.74 0 0 Z " fill="#CBCBCB" transform="translate(120,113)"/>
<path d="M0 0 C3.96 0 7.92 0 12 0 C12 3.63 12 7.26 12 11 C8.04 11 4.08 11 0 11 C0 7.37 0 3.74 0 0 Z " fill="#CBCBCB" transform="translate(104,113)"/>
<path d="M0 0 C3.96 0 7.92 0 12 0 C12 3.63 12 7.26 12 11 C8.04 11 4.08 11 0 11 C0 7.37 0 3.74 0 0 Z " fill="#CBCBCB" transform="translate(88,113)"/>
<path d="M0 0 C3.96 0 7.92 0 12 0 C12 3.63 12 7.26 12 11 C8.04 11 4.08 11 0 11 C0 7.37 0 3.74 0 0 Z " fill="#CBCBCB" transform="translate(72,113)"/>
<path d="M0 0 C3.96 0 7.92 0 12 0 C12 3.63 12 7.26 12 11 C8.04 11 4.08 11 0 11 C0 7.37 0 3.74 0 0 Z " fill="#CBCBCB" transform="translate(56,113)"/>
<path d="M0 0 C3.96 0 7.92 0 12 0 C12 3.63 12 7.26 12 11 C8.04 11 4.08 11 0 11 C0 7.37 0 3.74 0 0 Z " fill="#CBCBCB" transform="translate(40,113)"/>
<path d="M0 0 C3.63 0 7.26 0 11 0 C11 3.63 11 7.26 11 11 C7.37 11 3.74 11 0 11 C0 7.37 0 3.74 0 0 Z " fill="#CBCBCB" transform="translate(25,160)"/>
<path d="M0 0 C3.63 0 7.26 0 11 0 C11 3.63 11 7.26 11 11 C7.37 11 3.74 11 0 11 C0 7.37 0 3.74 0 0 Z " fill="#CBCBCB" transform="translate(25,113)"/>
<path d="M0 0 C7.92 0 15.84 0 24 0 C24 1.32 24 2.64 24 4 C16.08 4 8.16 4 0 4 C0 2.68 0 1.36 0 0 Z " fill="#3D3D3D" transform="translate(120,104)"/>
<path d="M0 0 C7.92 0 15.84 0 24 0 C24 1.32 24 2.64 24 4 C16.08 4 8.16 4 0 4 C0 2.68 0 1.36 0 0 Z " fill="#3D3D3D" transform="translate(92,104)"/>
<path d="M0 0 C7.92 0 15.84 0 24 0 C24 1.32 24 2.64 24 4 C16.08 4 8.16 4 0 4 C0 2.68 0 1.36 0 0 Z " fill="#3D3D3D" transform="translate(64,104)"/>
<path d="M0 0 C7.92 0 15.84 0 24 0 C24 1.32 24 2.64 24 4 C16.08 4 8.16 4 0 4 C0 2.68 0 1.36 0 0 Z " fill="#3D3D3D" transform="translate(36,104)"/>
<path d="M0 0 C2.622 1.049 3.794 1.649 5.25 4.125 C5.498 4.744 5.745 5.363 6 6 C4.68 5.67 3.36 5.34 2 5 C2 6.98 2 8.96 2 11 C1.34 11 0.68 11 0 11 C-0.165 10.175 -0.165 10.175 -1 6 C-1.99 6.33 -2.98 6.66 -4 7 C-3.436 3.73 -2.5 2.174 0 0 Z " fill="#ACACAC" transform="translate(221,157)"/>
<path d="M0 0 C0 0.66 0 1.32 0 2 C-0.66 2 -1.32 2 -2 2 C-2 2.66 -2 3.32 -2 4 C-0.02 4 1.96 4 4 4 C4 4.66 4 5.32 4 6 C2.02 6 0.04 6 -2 6 C-1.67 7.32 -1.34 8.64 -1 10 C-3.622 8.951 -4.794 8.351 -6.25 5.875 C-6.498 5.256 -6.745 4.637 -7 4 C-3.375 0 -3.375 0 0 0 Z " fill="#A5A5A5" transform="translate(216,165)"/>
<path d="M0 0 C4.677 1.477 4.677 1.477 6.312 4.125 C6.426 4.434 6.426 4.434 7 6 C5.188 8 5.188 8 3 10 C2.01 10 1.02 10 0 10 C0 9.34 0 8.68 0 8 C0.66 8 1.32 8 2 8 C2 7.34 2 6.68 2 6 C0.02 6 -1.96 6 -4 6 C-4 5.34 -4 4.68 -4 4 C-2.02 3.67 -0.04 3.34 2 3 C1.34 2.67 0.68 2.34 0 2 C0 1.34 0 0.68 0 0 Z " fill="#A5A5A5" transform="translate(228,165)"/>
<path d="M0 0 C0.66 0 1.32 0 2 0 C2 1.98 2 3.96 2 6 C2.66 6 3.32 6 4 6 C4 5.34 4 4.68 4 4 C4.66 4 5.32 4 6 4 C4.523 8.677 4.523 8.677 1.875 10.312 C1.566 10.426 1.566 10.426 0 11 C-4 6.25 -4 6.25 -4 4 C-3.34 4 -2.68 4 -2 4 C-1.67 4.66 -1.34 5.32 -1 6 C-0.67 4.02 -0.34 2.04 0 0 Z " fill="#A6A6A6" transform="translate(221,172)"/>
<path d="M0 0 C1.65 0 3.3 0 5 0 C5 1.65 5 3.3 5 5 C4.01 4.67 3.02 4.34 2 4 C2.33 4.99 2.66 5.98 3 7 C2.34 7 1.68 7 1 7 C1 6.01 1 5.02 1 4 C0.34 3.67 -0.32 3.34 -1 3 C-0.67 2.01 -0.34 1.02 0 0 Z " fill="#3F3F3F" transform="translate(215,172)"/>
<path d="M0 0 C1.65 0 3.3 0 5 0 C4.67 0.99 4.34 1.98 4 3 C4.99 3.33 5.98 3.66 7 4 C6.01 4 5.02 4 4 4 C4 4.99 4 5.98 4 7 C3.34 6.67 2.68 6.34 2 6 C2.33 5.34 2.66 4.68 3 4 C2.01 4.33 1.02 4.66 0 5 C0 3.35 0 1.7 0 0 Z " fill="#3A3A3A" transform="translate(224,172)"/>
<path d="M0 0 C0.66 0.33 1.32 0.66 2 1 C0.726 3.038 -0.611 5.039 -2 7 C-2.66 7 -3.32 7 -4 7 C-3.436 3.73 -2.5 2.174 0 0 Z " fill="#969696" transform="translate(221,157)"/>
</svg>
