<?xml version="1.0" encoding="UTF-8"?>
<!-- Generator: visioncortex VTracer 0.6.12 -->
<svg version="1.1" xmlns="http://www.w3.org/2000/svg" width="256" height="256">
<path d="M0 0 C1.048 -0.01 2.096 -0.02 3.176 -0.03 C6.633 -0.059 10.089 -0.073 13.545 -0.084 C14.732 -0.09 15.92 -0.095 17.143 -0.101 C23.431 -0.131 29.719 -0.15 36.008 -0.158 C42.467 -0.169 48.925 -0.217 55.383 -0.274 C60.381 -0.312 65.378 -0.322 70.376 -0.325 C72.755 -0.331 75.134 -0.347 77.512 -0.373 C93.323 -0.536 107.273 -0.049 120.424 9.822 C134.05 23.552 135.867 45.383 137.987 63.635 C138.092 64.52 138.198 65.405 138.306 66.317 C140.358 83.622 141.59 100.907 142.28 118.315 C142.359 120.25 142.445 122.184 142.532 124.119 C143.292 141.154 143.479 158.19 143.537 175.24 C143.545 177.468 143.556 179.696 143.57 181.923 C143.832 227.558 143.832 227.558 132.295 239.666 C125.242 245.707 117.378 246.973 108.362 246.322 C97.281 244.733 86.185 239.624 76.74 233.67 C62.597 225.657 40.476 227.22 24.737 226.822 C0.396 226.192 -24.709 225.177 -42.638 206.322 C-50.149 197.04 -52.791 187.016 -52.784 175.225 C-52.785 174.824 -52.785 174.824 -52.794 172.793 C-52.803 170.139 -52.805 167.484 -52.806 164.83 C-52.81 162.964 -52.813 161.098 -52.816 159.232 C-52.822 155.31 -52.824 151.388 -52.824 147.465 C-52.824 143.485 -52.83 139.506 -52.844 135.526 C-52.991 92.489 -52.991 92.489 -50.638 74.322 C-50.487 73.101 -50.336 71.879 -50.18 70.621 C-49.784 67.716 -49.331 64.834 -48.826 61.947 C-48.654 60.956 -48.482 59.965 -48.305 58.943 C-44.861 39.893 -38.798 16.696 -22.138 4.885 C-15.129 0.294 -8.126 0.019 0 0 Z " fill="#E3E4E3" transform="translate(81.638427734375,6.677734375)"/>
<path d="M0 0 C0.456 0.002 0.456 0.002 2.764 0.015 C22.93 0.36 41.662 7.04 56.484 20.883 C66.217 31.04 70.13 41.094 69.957 55.035 C69.366 68.434 62.306 78.188 52.812 87.312 C34.889 102.22 12.434 105.764 -10.188 104.312 C-14.384 103.718 -18.187 102.689 -22.188 101.312 C-23.313 100.972 -24.438 100.632 -25.598 100.281 C-41.873 95.039 -54.255 85.483 -62.188 70.312 C-66.832 60.951 -67.774 50.344 -65.125 40.188 C-59.84 25.02 -48.144 14.511 -34.188 7.312 C-23.028 2.533 -12.128 -0.078 0 0 Z " fill="#989898" transform="translate(126.1875,35.6875)"/>
<path d="M0 0 C1.048 -0.01 2.096 -0.02 3.176 -0.03 C6.633 -0.059 10.089 -0.073 13.545 -0.084 C14.732 -0.09 15.92 -0.095 17.143 -0.101 C23.431 -0.131 29.719 -0.15 36.008 -0.158 C42.467 -0.169 48.925 -0.217 55.383 -0.274 C60.381 -0.312 65.378 -0.322 70.376 -0.325 C72.755 -0.331 75.134 -0.347 77.512 -0.373 C93.323 -0.536 107.273 -0.049 120.424 9.822 C134.05 23.552 135.867 45.383 137.987 63.635 C138.092 64.52 138.198 65.405 138.306 66.317 C140.358 83.622 141.59 100.907 142.28 118.315 C142.359 120.25 142.445 122.184 142.532 124.119 C143.292 141.154 143.479 158.19 143.537 175.24 C143.545 177.468 143.556 179.696 143.57 181.923 C143.832 227.558 143.832 227.558 132.295 239.666 C125.242 245.707 117.378 246.973 108.362 246.322 C97.281 244.733 86.185 239.624 76.74 233.67 C62.597 225.657 40.476 227.22 24.737 226.822 C0.396 226.192 -24.709 225.177 -42.638 206.322 C-50.149 197.04 -52.791 187.016 -52.784 175.225 C-52.785 174.824 -52.785 174.824 -52.794 172.793 C-52.803 170.139 -52.805 167.484 -52.806 164.83 C-52.81 162.964 -52.813 161.098 -52.816 159.232 C-52.822 155.31 -52.824 151.388 -52.824 147.465 C-52.824 143.485 -52.83 139.506 -52.844 135.526 C-52.991 92.489 -52.991 92.489 -50.638 74.322 C-50.487 73.101 -50.336 71.879 -50.18 70.621 C-49.784 67.716 -49.331 64.834 -48.826 61.947 C-48.654 60.956 -48.482 59.965 -48.305 58.943 C-44.861 39.893 -38.798 16.696 -22.138 4.885 C-15.129 0.294 -8.126 0.019 0 0 Z M-25.638 20.322 C-38.972 42.573 -42.674 70.713 -42.847 96.263 C-42.857 97.201 -42.867 98.139 -42.877 99.106 C-42.906 102.175 -42.928 105.245 -42.947 108.314 C-42.954 109.371 -42.96 110.429 -42.967 111.518 C-42.999 117.108 -43.024 122.698 -43.043 128.288 C-43.061 132.891 -43.096 137.493 -43.146 142.096 C-43.206 147.684 -43.237 153.271 -43.247 158.859 C-43.255 160.976 -43.274 163.093 -43.303 165.21 C-43.48 178.603 -43.164 188.386 -34.326 199.135 C-33.439 199.857 -32.552 200.579 -31.638 201.322 C-31.038 201.873 -30.437 202.423 -29.818 202.99 C-19.382 212.021 -4.706 215.593 8.893 215.631 C10.513 215.654 12.133 215.677 13.752 215.701 C14.587 215.71 15.422 215.719 16.282 215.728 C32.486 215.925 48.339 216.735 64.362 219.322 C65.091 219.433 65.82 219.544 66.571 219.658 C74.053 220.826 79.991 222.838 86.494 226.697 C89.814 228.579 93.233 230.135 96.737 231.635 C97.879 232.126 99.021 232.617 100.198 233.123 C107.638 235.943 116.177 236.692 123.799 234.197 C130.936 228.975 133.301 222.787 134.927 214.481 C135.832 207.899 135.646 201.243 135.627 194.611 C135.629 192.973 135.632 191.335 135.636 189.697 C135.641 185.345 135.633 180.992 135.619 176.639 C135.612 173.941 135.607 171.244 135.603 168.547 C135.488 98.532 135.488 98.532 130.701 67.743 C130.224 64.341 129.935 60.931 129.644 57.51 C128.336 42.257 126.475 26.208 115.737 14.447 C102.508 6.118 90.465 6.584 75.19 6.658 C72.737 6.655 70.285 6.65 67.833 6.644 C62.712 6.636 57.592 6.647 52.471 6.67 C45.919 6.699 39.367 6.682 32.815 6.653 C27.758 6.634 22.702 6.64 17.646 6.653 C15.229 6.657 12.813 6.652 10.397 6.641 C7.021 6.628 3.645 6.648 0.269 6.675 C-0.722 6.665 -1.712 6.655 -2.732 6.645 C-13.11 6.802 -19.816 11.978 -25.638 20.322 Z " fill="#FEFEFE" transform="translate(81.638427734375,6.677734375)"/>
<path d="M0 0 C0.456 0.002 0.456 0.002 2.764 0.015 C22.93 0.36 41.662 7.04 56.484 20.883 C66.217 31.04 70.13 41.094 69.957 55.035 C69.366 68.434 62.306 78.188 52.812 87.312 C34.889 102.22 12.434 105.764 -10.188 104.312 C-14.384 103.718 -18.187 102.689 -22.188 101.312 C-23.313 100.972 -24.438 100.632 -25.598 100.281 C-41.873 95.039 -54.255 85.483 -62.188 70.312 C-66.832 60.951 -67.774 50.344 -65.125 40.188 C-59.84 25.02 -48.144 14.511 -34.188 7.312 C-23.028 2.533 -12.128 -0.078 0 0 Z M-44.188 24.312 C-46.189 27.197 -46.442 29.534 -46.462 33.002 C-46.472 33.926 -46.481 34.851 -46.491 35.803 C-46.49 36.795 -46.489 37.787 -46.488 38.809 C-46.493 39.834 -46.497 40.86 -46.501 41.917 C-46.507 44.085 -46.508 46.252 -46.503 48.42 C-46.5 51.734 -46.523 55.047 -46.549 58.361 C-46.551 60.469 -46.552 62.576 -46.551 64.684 C-46.56 65.673 -46.569 66.663 -46.579 67.683 C-46.52 76.429 -46.52 76.429 -43.188 80.312 C-39.784 83.669 -37.415 84.772 -32.607 84.844 C-31.895 84.834 -31.182 84.824 -30.447 84.814 C-29.684 84.82 -28.921 84.825 -28.134 84.831 C-25.62 84.843 -23.108 84.827 -20.594 84.809 C-18.842 84.809 -17.09 84.81 -15.338 84.813 C-11.669 84.814 -8.001 84.802 -4.333 84.779 C0.365 84.751 5.062 84.753 9.76 84.766 C13.377 84.773 16.994 84.765 20.61 84.753 C22.342 84.748 24.074 84.748 25.806 84.752 C28.229 84.755 30.65 84.738 33.072 84.717 C33.429 84.719 33.429 84.719 35.232 84.73 C40.546 84.651 43.593 83.215 47.562 79.812 C49.879 77.033 49.953 74.23 50.021 70.769 C50.041 69.85 50.06 68.932 50.08 67.986 C50.138 63.788 50.187 59.589 50.218 55.39 C50.239 53.179 50.273 50.967 50.32 48.756 C50.387 45.561 50.415 42.368 50.434 39.172 C50.448 38.681 50.448 38.681 50.518 36.195 C50.5 30.202 49.575 26.929 45.396 22.56 C41.789 19.719 37.668 20.152 33.315 20.135 C32.554 20.129 31.793 20.122 31.008 20.116 C28.488 20.096 25.969 20.084 23.449 20.074 C22.588 20.07 21.727 20.066 20.839 20.062 C16.281 20.041 11.722 20.027 7.163 20.017 C2.459 20.006 -2.245 19.972 -6.949 19.932 C-10.57 19.906 -14.191 19.898 -17.813 19.894 C-19.547 19.889 -21.281 19.878 -23.014 19.859 C-25.444 19.835 -27.872 19.836 -30.302 19.843 C-31.014 19.83 -31.727 19.817 -32.461 19.804 C-37.484 19.856 -40.365 21.088 -44.188 24.312 Z " fill="#040404" transform="translate(126.1875,35.6875)"/>
<path d="M0 0 C0.46 -0.006 0.46 -0.006 2.786 -0.035 C3.787 -0.037 4.789 -0.039 5.821 -0.041 C6.881 -0.051 7.942 -0.061 9.035 -0.071 C12.55 -0.101 16.064 -0.114 19.579 -0.125 C22.028 -0.137 24.478 -0.148 26.927 -0.16 C32.07 -0.181 37.213 -0.193 42.356 -0.2 C48.917 -0.211 55.478 -0.258 62.039 -0.316 C67.104 -0.353 72.169 -0.363 77.234 -0.366 C79.651 -0.372 82.068 -0.388 84.484 -0.415 C111.872 -0.692 111.872 -0.692 122.453 7.96 C134.472 19.972 134.893 40.816 136.524 56.718 C136.777 59.12 137.033 61.522 137.289 63.924 C137.446 65.402 137.601 66.88 137.753 68.358 C138.083 71.522 138.456 74.667 138.92 77.814 C142.828 106.083 141.64 135.553 141.704 164.041 C141.712 166.708 141.725 169.375 141.74 172.042 C141.763 176.313 141.769 180.584 141.763 184.856 C141.763 186.443 141.767 188.029 141.777 189.616 C141.919 214.655 141.919 214.655 134.399 223.281 C129.014 228.141 124.835 228.639 117.778 228.554 C107.977 227.761 99.767 223.611 91.305 218.886 C71.698 208.055 44.998 208.951 23.225 208.9 C5.084 208.829 -13.832 206.398 -27.601 193.281 C-33.994 185.351 -37.059 178.075 -37.005 167.966 C-37.012 167.058 -37.019 166.149 -37.026 165.213 C-37.044 162.213 -37.04 159.214 -37.034 156.214 C-37.039 154.099 -37.044 151.984 -37.05 149.869 C-37.059 145.423 -37.057 140.977 -37.047 136.531 C-37.038 132.03 -37.044 127.53 -37.067 123.03 C-37.539 30.449 -37.539 30.449 -13.738 6.398 C-9.457 2.603 -5.88 0.044 0 0 Z M-16.214 15.961 C-19.964 22.235 -22.59 28.592 -24.663 35.593 C-24.92 36.455 -25.177 37.317 -25.441 38.204 C-29.779 53.338 -31.741 69.268 -31.762 84.994 C-31.767 85.908 -31.772 86.821 -31.777 87.762 C-31.791 90.749 -31.798 93.736 -31.804 96.722 C-31.807 97.75 -31.81 98.778 -31.812 99.837 C-31.827 105.267 -31.837 110.698 -31.841 116.129 C-31.847 121.72 -31.871 127.31 -31.899 132.9 C-31.918 137.22 -31.923 141.539 -31.924 145.859 C-31.927 147.92 -31.935 149.981 -31.949 152.041 C-31.966 154.927 -31.964 157.812 -31.957 160.697 C-31.966 161.537 -31.976 162.378 -31.985 163.243 C-31.915 173.31 -28.606 181.064 -21.601 188.281 C-8.45 199.611 6.421 202.457 23.212 202.718 C33.729 202.974 44.12 203.573 54.587 204.718 C55.15 204.78 55.15 204.78 57.998 205.089 C77.79 207.37 77.79 207.37 86.337 212.093 C87.712 212.812 89.088 213.528 90.466 214.242 C90.798 214.416 90.798 214.416 92.482 215.296 C95.208 216.696 97.969 217.984 100.774 219.218 C101.628 219.599 102.481 219.979 103.36 220.371 C106.399 221.281 106.399 221.281 116.399 222.281 C116.399 213.041 116.399 203.801 116.399 194.281 C122.999 194.281 129.599 194.281 136.399 194.281 C136.508 165.152 136.57 136.042 135.527 106.929 C135.42 103.871 135.331 100.813 135.251 97.754 C134.312 68.404 131.405 31.865 110.708 9.269 C104.837 4.213 99.643 3.834 92.222 3.845 C91.212 3.835 90.201 3.825 89.16 3.815 C85.827 3.786 82.494 3.78 79.161 3.777 C76.837 3.767 74.513 3.757 72.189 3.747 C67.319 3.729 62.45 3.723 57.58 3.725 C51.352 3.725 45.126 3.684 38.898 3.633 C34.098 3.599 29.299 3.593 24.499 3.595 C22.203 3.591 19.908 3.578 17.613 3.555 C14.396 3.525 11.181 3.534 7.964 3.552 C7.024 3.535 6.084 3.518 5.116 3.501 C-4.444 3.637 -10.736 8.36 -16.214 15.961 Z " fill="#CDCECE" transform="translate(75.60079956054688,13.7191162109375)"/>
<path d="M0 0 C6.333 4.129 10.842 9.499 13 16.812 C13.866 27.008 12.165 34.615 6 42.812 C-0.508 49.458 -6.85 51.922 -16 52.062 C-17.011 52.088 -18.021 52.114 -19.062 52.141 C-22.552 51.751 -24.333 51.106 -27 48.812 C-27.707 45.895 -27.707 45.895 -27.812 42.625 C-27.836 42.082 -27.836 42.082 -27.957 39.332 C-27.971 38.501 -27.985 37.669 -28 36.812 C-28.843 36.764 -29.686 36.715 -30.555 36.664 C-31.65 36.589 -32.746 36.515 -33.875 36.438 C-34.966 36.368 -36.056 36.298 -37.18 36.227 C-40 35.812 -40 35.812 -42 33.812 C-44.249 25.327 -44.058 16.832 -39.684 9.137 C-29.834 -4.46 -14.694 -8.397 0 0 Z " fill="#296891" transform="translate(95,148.1875)"/>
<path d="M0 0 C6.333 4.129 10.842 9.499 13 16.812 C13.866 27.008 12.165 34.615 6 42.812 C-0.508 49.458 -6.85 51.922 -16 52.062 C-17.011 52.088 -18.021 52.114 -19.062 52.141 C-22.552 51.751 -24.333 51.106 -27 48.812 C-27.707 45.895 -27.707 45.895 -27.812 42.625 C-27.836 42.082 -27.836 42.082 -27.957 39.332 C-27.971 38.501 -27.985 37.669 -28 36.812 C-28.843 36.764 -29.686 36.715 -30.555 36.664 C-31.65 36.589 -32.746 36.515 -33.875 36.438 C-34.966 36.368 -36.056 36.298 -37.18 36.227 C-40 35.812 -40 35.812 -42 33.812 C-44.249 25.327 -44.058 16.832 -39.684 9.137 C-29.834 -4.46 -14.694 -8.397 0 0 Z M-24 0.812 C-24.073 3.166 -24.084 5.521 -24.062 7.875 C-24.053 9.165 -24.044 10.456 -24.035 11.785 C-24.024 12.784 -24.012 13.783 -24 14.812 C-24.999 14.801 -25.998 14.789 -27.027 14.777 C-28.318 14.768 -29.608 14.759 -30.938 14.75 C-31.581 14.744 -31.581 14.744 -34.84 14.715 C-38 14.812 -38 14.812 -39 15.812 C-39.1 18.49 -39.139 21.136 -39.125 23.812 C-39.129 24.563 -39.133 25.313 -39.137 26.086 C-39.127 31.686 -39.127 31.686 -38 32.812 C-35.647 32.885 -33.292 32.896 -30.938 32.875 C-29.647 32.866 -28.357 32.857 -27.027 32.848 C-26.528 32.842 -26.528 32.842 -24 32.812 C-24.012 33.812 -24.023 34.811 -24.035 35.84 C-24.044 37.13 -24.053 38.421 -24.062 39.75 C-24.074 41.038 -24.086 42.326 -24.098 43.652 C-24 46.812 -24 46.812 -23 47.812 C-20.323 47.912 -17.677 47.951 -15 47.938 C-14.625 47.939 -14.625 47.939 -12.727 47.949 C-7.127 47.939 -7.127 47.939 -6 46.812 C-5.927 44.459 -5.916 42.104 -5.938 39.75 C-5.947 38.46 -5.956 37.169 -5.965 35.84 C-5.976 34.841 -5.988 33.842 -6 32.812 C-5.001 32.824 -4.002 32.836 -2.973 32.848 C-1.682 32.857 -0.392 32.866 0.938 32.875 C2.225 32.887 3.513 32.898 4.84 32.91 C8 32.812 8 32.812 9 31.812 C9.1 29.135 9.139 26.489 9.125 23.812 C9.129 23.062 9.133 22.312 9.137 21.539 C9.127 15.939 9.127 15.939 8 14.812 C5.647 14.74 3.292 14.729 0.938 14.75 C-0.353 14.759 -1.643 14.768 -2.973 14.777 C-3.972 14.789 -4.971 14.801 -6 14.812 C-5.988 13.813 -5.977 12.814 -5.965 11.785 C-5.956 10.495 -5.947 9.204 -5.938 7.875 C-5.926 6.587 -5.914 5.299 -5.902 3.973 C-6 0.812 -6 0.812 -7 -0.188 C-9.677 -0.287 -12.323 -0.326 -15 -0.312 C-15.75 -0.316 -16.5 -0.32 -17.273 -0.324 C-22.873 -0.314 -22.873 -0.314 -24 0.812 Z " fill="#3396CE" transform="translate(95,148.1875)"/>
<path d="M0 0 C2.398 0.06 4.791 0.147 7.188 0.25 C7.861 0.264 8.535 0.278 9.229 0.293 C14.073 0.529 16.586 1.579 20 5 C22.914 9.37 22.409 13.751 21.5 18.75 C21.335 19.493 21.17 20.235 21 21 C21 22.32 21 23.64 21 25 C20.34 25.33 20.34 25.33 17 27 C16.67 26.01 16.34 25.02 16 24 C15.693 24.042 15.693 24.042 14.137 24.254 C13.328 24.356 12.52 24.458 11.688 24.562 C10.887 24.667 10.086 24.771 9.262 24.879 C7 25 7 25 4 24 C3.67 24.99 3.34 25.98 3 27 C1.68 26.34 0.36 25.68 -1 25 C-1 23.68 -1 22.36 -1 21 C-1.165 20.257 -1.33 19.515 -1.5 18.75 C-2.392 13.845 -2.541 8.793 -1 4 C-0.662 2.668 -0.328 1.335 0 0 Z " fill="#2D6A91" transform="translate(182,149)"/>
<path d="M0 0 C1.32 0 2.64 0 4 0 C4 1.98 4 3.96 4 6 C4.361 5.959 4.361 5.959 6.188 5.75 C9.945 6.084 11.358 7.358 14 10 C14.351 10.887 14.701 11.774 15.062 12.688 C15.217 13.069 15.217 13.069 16 15 C18.125 15.812 18.125 15.812 20 16 C20 17.32 20 18.64 20 20 C19.423 20.041 18.845 20.083 18.25 20.125 C14.907 21.425 13.944 24.055 12 27 C9.521 29.196 8.01 30.02 4.68 29.953 C2.432 29.714 0.224 29.402 -2 29 C-2.33 29.99 -2.66 30.98 -3 32 C-4.32 31.34 -5.64 30.68 -7 30 C-7 28.68 -7 27.36 -7 26 C-7.165 25.257 -7.33 24.515 -7.5 23.75 C-8.427 18.65 -8.971 14.63 -6.25 10.062 C-4.042 8.039 -2.932 7.314 0 7 C0 4.69 0 2.38 0 0 Z " fill="#2D6B93" transform="translate(156,168)"/>
<path d="M0 0 C3.967 0.264 5.679 0.793 8.75 3.25 C11.078 6.465 11.147 9.358 10.75 13.25 C9.489 16.024 8.439 17.733 6 19.562 C2.688 20.575 0.196 20.673 -3.25 20.25 C-7.129 17.045 -9.058 14.944 -9.625 9.938 C-9.158 5.344 -7.73 4.136 -4.25 1.25 C-3.25 0.25 -3.25 0.25 0 0 Z " fill="#E2E3E2" transform="translate(127.25,157.75)"/>
<path d="M0 0 C15.84 0 31.68 0 48 0 C48 1.32 48 2.64 48 4 C32.16 4 16.32 4 0 4 C0 2.68 0 1.36 0 0 Z " fill="#B4B5B4" transform="translate(104,14)"/>
<path d="M0 0 C4.787 0.422 7.712 2.677 11 6 C18.466 17.351 21.844 30.441 21 44 C19.149 40.685 18.289 37.425 17.375 33.75 C14.321 22.834 9.365 12.177 2.129 3.383 C1 2 1 2 0 0 Z " fill="#3B7398" transform="translate(189,18)"/>
<path d="M0 0 C1.875 1.125 1.875 1.125 3 3 C3.394 6.149 3.529 8.119 1.875 10.875 C-0.881 12.529 -2.851 12.394 -6 12 C-7.875 10.875 -7.875 10.875 -9 9 C-9.394 5.851 -9.529 3.881 -7.875 1.125 C-5.119 -0.529 -3.149 -0.394 0 0 Z " fill="#2F92CA" transform="translate(83,166)"/>
<path d="M0 0 C3.967 0.264 5.679 0.793 8.75 3.25 C11.078 6.465 11.147 9.358 10.75 13.25 C9.489 16.024 8.439 17.733 6 19.562 C2.688 20.575 0.196 20.673 -3.25 20.25 C-7.129 17.045 -9.058 14.944 -9.625 9.938 C-9.158 5.344 -7.73 4.136 -4.25 1.25 C-3.25 0.25 -3.25 0.25 0 0 Z M-7.25 7.25 C-7.875 10.25 -7.875 10.25 -7.25 13.25 C-4.794 16.573 -3.324 18.026 0.75 18.875 C4.824 18.026 6.294 16.573 8.75 13.25 C9.375 10.25 9.375 10.25 8.75 7.25 C6.294 3.927 4.824 2.474 0.75 1.625 C-3.324 2.474 -4.794 3.927 -7.25 7.25 Z " fill="#CFCFCF" transform="translate(127.25,157.75)"/>
<path d="M0 0 C2.803 4.205 2.433 8.008 2.656 12.969 C3 16 3 16 5 19 C7.82 19.512 7.82 19.512 11.125 19.688 C13.064 19.791 15.002 19.894 17 20 C16.67 24.95 16.34 29.9 16 35 C15.67 35 15.34 35 15 35 C14.67 31.04 14.34 27.08 14 23 C12.061 22.876 10.123 22.752 8.125 22.625 C2.25 22.25 2.25 22.25 0 20 C-1.024 16.28 -1.135 12.719 -1.125 8.875 C-1.128 7.841 -1.13 6.807 -1.133 5.742 C-1 3 -1 3 0 0 Z " fill="#399AD0" transform="translate(53,162)"/>
<path d="M0 0 C1.323 5.411 1.323 5.411 -0.062 7.938 C-2.911 9.5 -4.935 8.749 -8 8 C-9.323 2.589 -9.323 2.589 -7.938 0.062 C-5.089 -1.5 -3.065 -0.749 0 0 Z " fill="#CECECE" transform="translate(132,188)"/>
<path d="M0 0 C2.625 0.375 2.625 0.375 5 1 C5.625 3.375 5.625 3.375 6 6 C5.34 6.66 4.68 7.32 4 8 C1.375 7.625 1.375 7.625 -1 7 C-1.625 4.625 -1.625 4.625 -2 2 C-1.34 1.34 -0.68 0.68 0 0 Z " fill="#E3E4E3" transform="translate(198,212)"/>
<path d="M0 0 C2.625 0.375 2.625 0.375 5 1 C5.625 3.375 5.625 3.375 6 6 C5.34 6.66 4.68 7.32 4 8 C1.375 7.625 1.375 7.625 -1 7 C-1.625 4.625 -1.625 4.625 -2 2 C-1.34 1.34 -0.68 0.68 0 0 Z " fill="#CECECE" transform="translate(126,164)"/>
<path d="M0 0 C2.64 0 5.28 0 8 0 C7.443 3.344 6.648 6.033 5 9 C4.34 9 3.68 9 3 9 C0 3.375 0 3.375 0 0 Z " fill="#2F91C9" transform="translate(76,184)"/>
<path d="M0 0 C3.344 0.557 6.033 1.352 9 3 C9 3.66 9 4.32 9 5 C3.375 8 3.375 8 0 8 C0 5.36 0 2.72 0 0 Z " fill="#2F91C9" transform="translate(92,168)"/>
<path d="M0 0 C0 2.64 0 5.28 0 8 C-3.344 7.443 -6.033 6.648 -9 5 C-9 4.34 -9 3.68 -9 3 C-3.375 0 -3.375 0 0 0 Z " fill="#2F91C9" transform="translate(68,168)"/>
<path d="M0 0 C0.66 0 1.32 0 2 0 C5 5.625 5 5.625 5 9 C2.36 9 -0.28 9 -3 9 C-2.443 5.656 -1.648 2.967 0 0 Z " fill="#2F91C9" transform="translate(79,151)"/>
<path d="M0 0 C2.453 3.679 2.268 5.623 2.25 10 C2.255 11.238 2.26 12.475 2.266 13.75 C2 17 2 17 0 20 C-0.875 16.234 -1.135 12.738 -1.125 8.875 C-1.128 7.841 -1.13 6.807 -1.133 5.742 C-1 3 -1 3 0 0 Z " fill="#449FD2" transform="translate(53,162)"/>
<path d="M0 0 C1.052 -0.014 2.104 -0.028 3.188 -0.043 C6 0.188 6 0.188 9 2.188 C7.074 4.113 3.68 3.362 1.125 3.375 C-0.131 3.389 -1.386 3.403 -2.68 3.418 C-6 3.188 -6 3.188 -9 1.188 C-5.792 0.118 -3.37 0.021 0 0 Z " fill="#419DD1" transform="translate(79,143.8125)"/>
<path d="M0 0 C1.078 0.009 2.155 0.018 3.266 0.027 C4.085 0.039 4.905 0.051 5.75 0.062 C5.42 1.053 5.09 2.042 4.75 3.062 C2.813 3.117 0.875 3.155 -1.062 3.188 C-2.141 3.211 -3.22 3.234 -4.332 3.258 C-7.25 3.062 -7.25 3.062 -10.25 1.062 C-6.788 -0.005 -3.61 -0.039 0 0 Z " fill="#429ED1" transform="translate(80.25,196.9375)"/>
<path d="M0 0 C1.32 0.99 2.64 1.98 4 3 C3.67 4.32 3.34 5.64 3 7 C1.68 6.34 0.36 5.68 -1 5 C-1 1 -1 1 0 0 Z " fill="#4EA1D0" transform="translate(150,193)"/>
<path d="M0 0 C0.99 0.66 1.98 1.32 3 2 C2.34 3.32 1.68 4.64 1 6 C-0.32 6 -1.64 6 -3 6 C-2.427 3.133 -2.139 2.139 0 0 Z " fill="#4EA1D0" transform="translate(201,169)"/>
<path d="M0 0 C1.32 0.99 2.64 1.98 4 3 C3.67 4.32 3.34 5.64 3 7 C1.68 6.34 0.36 5.68 -1 5 C-1 1 -1 1 0 0 Z " fill="#4EA1D0" transform="translate(182,169)"/>
<path d="M0 0 C0.33 0 0.66 0 1 0 C2.129 5.361 2.097 10.553 2 16 C-0.884 10.515 -1.302 6.077 0 0 Z " fill="#5384A3" transform="translate(208,46)"/>
<path d="M0 0 C1.32 0 2.64 0 4 0 C4 1.98 4 3.96 4 6 C2.68 6 1.36 6 0 6 C0 4.02 0 2.04 0 0 Z " fill="#3C9ACF" transform="translate(156,168)"/>
<path d="M0 0 C0.99 0.165 0.99 0.165 6 1 C4.35 2.65 2.7 4.3 1 6 C0.34 5.34 -0.32 4.68 -1 4 C-0.625 1.875 -0.625 1.875 0 0 Z " fill="#489DCD" transform="translate(182,149)"/>
</svg>
