<?xml version="1.0" encoding="UTF-8"?>
<svg xmlns="http://www.w3.org/2000/svg" xmlns:xlink="http://www.w3.org/1999/xlink" width="256px" height="256px" viewBox="0 0 256 256" version="1.1">
<g id="surface1">
<path style=" stroke:none;fill-rule:nonzero;fill:rgb(84.705883%,91.37255%,96.862745%);fill-opacity:1;" d="M 256.257812 122.746094 C 256.257812 167.242188 256.257812 211.734375 256.257812 256.242188 C 170.949219 256.242188 85.644531 256.242188 0.257812 256.242188 C 0.257812 211.832031 0.257812 167.40625 0.308594 122.863281 C 0.363281 122.742188 0.46875 122.738281 0.484375 122.859375 C 0.5 167.285156 0.5 211.59375 0.5 255.910156 C 85.769531 255.910156 170.820312 255.910156 256 255.910156 C 256 255.191406 256 254.5625 256 253.929688 C 256 210.839844 256 167.75 256 124.660156 C 256 124.105469 255.972656 123.550781 255.976562 122.933594 C 256.011719 122.828125 256.027344 122.789062 256.09375 122.746094 C 256.148438 122.746094 256.257812 122.746094 256.257812 122.746094 Z M 256.257812 122.746094 "/>
<path style=" stroke:none;fill-rule:nonzero;fill:rgb(83.137256%,93.725491%,98.823529%);fill-opacity:1;" d="M 0.46875 122.738281 C 0.46875 122.738281 0.363281 122.742188 0.308594 122.746094 C 0.257812 81.925781 0.257812 41.105469 0.257812 0.269531 C 85.5625 0.269531 170.867188 0.269531 256.257812 0.269531 C 256.257812 41.007812 256.257812 81.757812 256.257812 122.628906 C 256.257812 122.746094 256.148438 122.746094 256.078125 122.625 C 256.011719 81.871094 256.011719 41.238281 256.011719 0.601562 C 170.734375 0.601562 85.683594 0.601562 0.511719 0.601562 C 0.511719 1.195312 0.511719 1.699219 0.511719 2.203125 C 0.511719 41.75 0.511719 81.296875 0.511719 120.84375 C 0.511719 121.484375 0.539062 122.125 0.53125 122.757812 C 0.511719 122.75 0.46875 122.738281 0.46875 122.738281 Z M 0.46875 122.738281 "/>
<path style=" stroke:none;fill-rule:nonzero;fill:rgb(38.039216%,65.882355%,86.274511%);fill-opacity:1;" d="M 255.957031 122.996094 C 255.972656 123.550781 256 124.105469 256 124.660156 C 256 167.75 256 210.839844 256 253.929688 C 256 254.5625 256 255.191406 256 255.910156 C 170.820312 255.910156 85.769531 255.910156 0.5 255.910156 C 0.5 211.59375 0.5 167.285156 0.484375 122.859375 C 0.46875 122.738281 0.511719 122.75 0.640625 122.753906 C 1.785156 122.835938 2.796875 122.988281 3.8125 122.988281 C 24.152344 123.003906 44.492188 123 64.832031 122.996094 C 65.429688 122.996094 66.027344 122.96875 66.71875 122.925781 C 67.324219 122.875 67.832031 122.828125 68.34375 122.828125 C 109.089844 122.824219 149.839844 122.824219 190.589844 122.820312 C 191.3125 122.820312 192.03125 122.75 192.828125 122.789062 C 193.367188 122.910156 193.828125 122.992188 194.285156 122.992188 C 214.046875 123 233.808594 123 253.570312 123 C 254.367188 123 255.160156 122.996094 255.957031 122.996094 M 117.199219 147.175781 C 118.484375 147.242188 119.765625 147.3125 121.078125 147.617188 C 121.078125 165.613281 121.078125 183.613281 121.078125 201.734375 C 125.917969 201.550781 130.582031 201.371094 135.304688 201.191406 C 135.335938 200.742188 135.378906 200.410156 135.378906 200.078125 C 135.382812 189.066406 135.390625 178.050781 135.371094 167.039062 C 135.367188 166.457031 135.214844 165.859375 135.03125 165.304688 C 133.058594 159.40625 131.066406 153.515625 129.34375 147.613281 C 130.1875 147.589844 131.027344 147.566406 131.992188 147.6875 C 133.316406 151.738281 134.644531 155.785156 135.964844 159.835938 C 140.15625 172.675781 144.351562 185.515625 148.507812 198.367188 C 148.824219 199.335938 149.234375 199.683594 150.285156 199.652344 C 153.355469 199.570312 156.429688 199.582031 159.5 199.648438 C 160.464844 199.667969 160.914062 199.40625 161.21875 198.457031 C 166.789062 181.226562 172.386719 164.003906 177.996094 146.785156 C 179.722656 141.484375 181.503906 136.203125 183.476562 130.941406 C 185.003906 130.949219 186.441406 129.449219 186.746094 127.480469 C 185.953125 127.445312 185.164062 127.410156 184.40625 127.15625 C 184.632812 126.183594 183.851562 126.613281 183.542969 126.609375 C 179.839844 126.578125 176.136719 126.621094 172.4375 126.566406 C 171.660156 126.558594 171.273438 126.84375 170.820312 127.5 C 162.976562 127.484375 155.132812 127.460938 147.285156 127.453125 C 144.429688 127.449219 141.574219 127.488281 138.585938 127.378906 C 138.273438 127.117188 137.960938 126.632812 137.644531 126.628906 C 133.722656 126.574219 129.796875 126.605469 125.875 126.582031 C 125.261719 126.578125 125.121094 126.796875 125.054688 127.410156 C 124.089844 127.441406 123.125 127.472656 122.113281 127.304688 C 122.035156 126.980469 121.957031 126.652344 122.113281 126.316406 C 142.683594 126.316406 163.257812 126.316406 183.828125 126.304688 C 185.1875 126.304688 186.546875 126.238281 187.910156 126.414062 C 183.476562 139.441406 179.039062 152.46875 174.621094 165.503906 C 174.445312 166.015625 174.347656 166.582031 174.347656 167.121094 C 174.34375 178.097656 174.363281 189.070312 174.378906 200.042969 C 174.378906 200.40625 174.433594 200.769531 174.464844 201.203125 C 179.246094 201.378906 183.910156 201.550781 188.585938 201.726562 C 188.585938 175.964844 188.585938 150.386719 188.585938 124.730469 C 188.390625 124.988281 188.273438 125.148438 188.082031 125.09375 C 188.082031 124.636719 188.082031 124.183594 188.082031 123.683594 C 148.222656 123.683594 108.449219 123.683594 68.683594 123.683594 C 68.472656 126.070312 68.679688 126.308594 70.875 126.308594 C 87.597656 126.304688 104.320312 126.304688 121.078125 126.535156 C 121.066406 126.847656 121.054688 127.15625 120.808594 127.453125 C 116.941406 127.449219 113.074219 127.4375 109.207031 127.449219 C 107.898438 127.453125 106.589844 127.523438 105.078125 127.542969 C 104.417969 127.394531 103.757812 127.132812 103.089844 127.109375 C 97.699219 126.914062 92.300781 126.753906 86.90625 126.621094 C 86.636719 126.617188 86.363281 127 86.078125 127.28125 C 84.789062 127.34375 83.503906 127.40625 82.179688 127.238281 C 81.871094 127.019531 81.558594 126.621094 81.246094 126.617188 C 77.027344 126.578125 72.804688 126.589844 68.582031 126.597656 C 68.390625 126.597656 68.199219 126.675781 68.058594 126.707031 C 68.058594 151.734375 68.058594 176.679688 68.058594 201.609375 C 72.796875 201.609375 77.457031 201.609375 82.175781 201.609375 C 82.175781 201.082031 82.175781 200.660156 82.175781 200.234375 C 82.175781 179.917969 82.175781 159.605469 82.179688 139.289062 C 82.179688 138.691406 82.203125 138.09375 82.449219 137.519531 C 83.652344 137.5 84.855469 137.480469 86.128906 137.734375 C 86.117188 138.207031 86.105469 138.675781 85.921875 139.15625 C 85.292969 139.15625 84.664062 139.15625 84.039062 139.15625 C 84.03125 139.261719 84.019531 139.363281 84.011719 139.46875 C 84.671875 139.714844 85.335938 139.960938 86.125 140.335938 C 87.441406 140.792969 88.738281 141.582031 90.066406 141.644531 C 93.660156 141.820312 97.265625 141.683594 101.027344 141.796875 C 101.191406 142.332031 101.355469 142.863281 101.257812 143.378906 C 99.507812 143.378906 97.761719 143.378906 96.011719 143.378906 C 96.007812 143.496094 96 143.613281 95.992188 143.730469 C 97.839844 144.15625 99.6875 144.578125 101.585938 145.242188 C 101.589844 148.65625 101.597656 152.066406 101.59375 155.480469 C 101.589844 157.820312 100.5625 159.296875 98.308594 159.894531 C 97.089844 160.21875 95.796875 160.359375 94.53125 160.394531 C 91.777344 160.464844 89.019531 160.417969 86.25 160.417969 C 86.25 164.738281 86.25 168.929688 86.25 173.417969 C 91.394531 173.175781 96.457031 173.304688 101.40625 172.617188 C 109.386719 171.503906 114.972656 167.410156 115.878906 158.527344 C 115.867188 158.398438 115.855469 158.269531 115.820312 157.910156 C 115.851562 154.480469 115.882812 151.046875 116.101562 147.609375 C 116.398438 147.472656 116.695312 147.335938 117.199219 147.175781 Z M 117.199219 147.175781 "/>
<path style=" stroke:none;fill-rule:nonzero;fill:rgb(30.980393%,74.117649%,93.333334%);fill-opacity:1;" d="M 66.621094 122.953125 C 66.027344 122.96875 65.429688 122.996094 64.832031 122.996094 C 44.492188 123 24.152344 123.003906 3.8125 122.988281 C 2.796875 122.988281 1.785156 122.835938 0.660156 122.761719 C 0.539062 122.125 0.511719 121.484375 0.511719 120.84375 C 0.511719 81.296875 0.511719 41.75 0.511719 2.203125 C 0.511719 1.699219 0.511719 1.195312 0.511719 0.601562 C 85.683594 0.601562 170.734375 0.601562 256.011719 0.601562 C 256.011719 41.238281 256.011719 81.871094 256.023438 122.628906 C 256.027344 122.789062 256.011719 122.828125 255.976562 122.933594 C 255.160156 122.996094 254.367188 123 253.570312 123 C 233.808594 123 214.046875 123 194.285156 122.992188 C 193.828125 122.992188 193.367188 122.910156 192.816406 122.671875 C 192.410156 112.691406 194.539062 103.429688 198.945312 94.535156 C 193.851562 95.671875 188.972656 96.757812 184.066406 97.757812 C 180.792969 90.839844 176.605469 84.671875 171.160156 79.394531 C 156.964844 65.636719 140.03125 59.941406 120.378906 62.105469 C 117.527344 59.207031 114.710938 56.359375 111.914062 53.496094 C 105.183594 46.601562 98.476562 39.691406 91.738281 32.808594 C 90.203125 31.242188 88.34375 31.082031 86.960938 32.277344 C 85.320312 33.691406 85.164062 35.492188 86.347656 37.417969 C 86.765625 38.09375 87.058594 38.972656 87.0625 39.761719 C 87.109375 48.804688 87.105469 57.851562 87.058594 66.898438 C 87.054688 67.523438 86.707031 68.28125 86.269531 68.734375 C 85.535156 69.496094 85.085938 70.25 85.230469 71.332031 C 85.371094 72.375 85.113281 73.253906 84.472656 74.167969 C 83.296875 75.839844 83.84375 78.3125 85.390625 79.636719 C 84.785156 80.269531 84.246094 80.828125 83.628906 81.429688 C 81.75 81.46875 79.957031 81.46875 78.054688 81.46875 C 78.054688 83.953125 78.054688 86.25 77.984375 88.601562 C 74.003906 94.433594 71.089844 100.664062 69.136719 107.40625 C 63.96875 106.8125 58.90625 106.207031 54.207031 105.648438 C 56.324219 108.066406 58.917969 110.621094 61.015625 113.535156 C 63.140625 116.488281 64.773438 119.800781 66.621094 122.953125 Z M 66.621094 122.953125 "/>
<path style=" stroke:none;fill-rule:nonzero;fill:rgb(7.058824%,23.921569%,40.000001%);fill-opacity:1;" d="M 66.71875 122.925781 C 64.773438 119.800781 63.140625 116.488281 61.015625 113.535156 C 58.917969 110.621094 56.324219 108.066406 54.207031 105.648438 C 58.90625 106.207031 63.96875 106.8125 69.222656 107.476562 C 75.851562 107.792969 82.285156 108.25 88.714844 108.25 C 96.765625 108.246094 104.839844 108.136719 112.867188 107.585938 C 122.984375 106.898438 133.097656 105.953125 143.160156 104.683594 C 153.59375 103.371094 163.972656 101.582031 174.355469 99.90625 C 177.628906 99.375 180.851562 98.539062 184.09375 97.84375 C 188.972656 96.757812 193.851562 95.671875 198.945312 94.535156 C 194.539062 103.429688 192.410156 112.691406 192.738281 122.59375 C 192.03125 122.75 191.3125 122.820312 190.589844 122.820312 C 149.839844 122.824219 109.089844 122.824219 68.34375 122.828125 C 67.832031 122.828125 67.324219 122.875 66.71875 122.925781 Z M 66.71875 122.925781 "/>
<path style=" stroke:none;fill-rule:nonzero;fill:rgb(11.372549%,11.764706%,10.980392%);fill-opacity:1;" d="M 183.261719 130.910156 C 181.503906 136.203125 179.722656 141.484375 177.996094 146.785156 C 172.386719 164.003906 166.789062 181.226562 161.21875 198.457031 C 160.914062 199.40625 160.464844 199.667969 159.5 199.648438 C 156.429688 199.582031 153.355469 199.570312 150.285156 199.652344 C 149.234375 199.683594 148.824219 199.335938 148.507812 198.367188 C 144.351562 185.515625 140.15625 172.675781 135.964844 159.835938 C 134.644531 155.785156 133.316406 151.738281 131.925781 147.515625 C 131.425781 146.050781 130.992188 144.753906 130.554688 143.363281 C 130.371094 142.746094 130.1875 142.222656 130.003906 141.605469 C 129.726562 140.71875 129.449219 139.925781 129.15625 139.039062 C 128.953125 138.441406 128.765625 137.941406 128.570312 137.335938 C 128.046875 135.710938 127.535156 134.195312 127.019531 132.582031 C 126.832031 131.964844 126.644531 131.441406 126.460938 130.820312 C 126.070312 129.59375 125.683594 128.460938 125.292969 127.332031 C 125.121094 126.796875 125.261719 126.578125 125.875 126.582031 C 129.796875 126.605469 133.722656 126.574219 137.644531 126.628906 C 137.960938 126.632812 138.273438 127.117188 138.65625 127.554688 C 139.09375 128.800781 139.460938 129.878906 139.839844 131.042969 C 140.0625 131.664062 140.277344 132.195312 140.496094 132.832031 C 141.039062 134.445312 141.578125 135.957031 142.109375 137.550781 C 142.300781 138.160156 142.492188 138.6875 142.703125 139.3125 C 143.015625 140.1875 143.308594 140.964844 143.601562 141.835938 C 143.792969 142.445312 143.980469 142.960938 144.167969 143.574219 C 144.515625 144.65625 144.867188 145.636719 145.234375 146.722656 C 148.414062 156.019531 151.574219 165.214844 154.84375 174.722656 C 155.117188 174.019531 155.273438 173.648438 155.402344 173.265625 C 157.398438 167.472656 159.402344 161.679688 161.382812 155.878906 C 162.992188 151.167969 164.570312 146.449219 166.230469 141.671875 C 166.550781 140.808594 166.800781 140.011719 167.101562 139.148438 C 167.320312 138.542969 167.488281 138.007812 167.703125 137.382812 C 168.25 135.769531 168.753906 134.246094 169.320312 132.660156 C 169.554688 132.054688 169.730469 131.507812 169.949219 130.875 C 170.339844 129.691406 170.6875 128.597656 171.035156 127.503906 C 171.273438 126.84375 171.660156 126.558594 172.4375 126.566406 C 176.136719 126.621094 179.839844 126.578125 183.542969 126.609375 C 183.851562 126.613281 184.632812 126.183594 184.355469 127.335938 C 183.957031 128.648438 183.609375 129.777344 183.261719 130.910156 Z M 183.261719 130.910156 "/>
<path style=" stroke:none;fill-rule:nonzero;fill:rgb(11.372549%,11.372549%,10.588235%);fill-opacity:1;" d="M 82.214844 137.496094 C 82.203125 138.09375 82.179688 138.691406 82.179688 139.289062 C 82.175781 159.605469 82.175781 179.917969 82.175781 200.234375 C 82.175781 200.660156 82.175781 201.082031 82.175781 201.609375 C 77.457031 201.609375 72.796875 201.609375 68.058594 201.609375 C 68.058594 176.679688 68.058594 151.734375 68.058594 126.707031 C 68.199219 126.675781 68.390625 126.597656 68.582031 126.597656 C 72.804688 126.589844 77.027344 126.578125 81.246094 126.617188 C 81.558594 126.621094 81.871094 127.019531 82.179688 127.460938 C 82.191406 128.773438 82.203125 129.859375 82.199219 131.054688 C 82.191406 131.675781 82.203125 132.1875 82.195312 132.820312 C 82.191406 134.460938 82.203125 135.980469 82.214844 137.496094 Z M 82.214844 137.496094 "/>
<path style=" stroke:none;fill-rule:nonzero;fill:rgb(11.764706%,11.764706%,10.980392%);fill-opacity:1;" d="M 115.914062 147.617188 C 115.882812 151.046875 115.851562 154.480469 115.796875 158.101562 C 115.785156 158.394531 115.792969 158.496094 115.804688 158.601562 C 114.972656 167.410156 109.386719 171.503906 101.40625 172.617188 C 96.457031 173.304688 91.394531 173.175781 86.25 173.417969 C 86.25 168.929688 86.25 164.738281 86.25 160.417969 C 89.019531 160.417969 91.777344 160.464844 94.53125 160.394531 C 95.796875 160.359375 97.089844 160.21875 98.308594 159.894531 C 100.5625 159.296875 101.589844 157.820312 101.59375 155.480469 C 101.597656 152.066406 101.589844 148.65625 101.578125 145.027344 C 101.554688 144.339844 101.539062 143.871094 101.519531 143.398438 C 101.355469 142.863281 101.191406 142.332031 100.921875 141.652344 C 99.578125 139.921875 97.800781 139.484375 95.957031 139.425781 C 92.734375 139.324219 89.507812 139.382812 86.265625 139.328125 C 86.210938 139.214844 86.160156 139.167969 86.09375 139.144531 C 86.105469 138.675781 86.117188 138.207031 86.132812 137.5 C 86.113281 135.742188 86.085938 134.222656 86.101562 132.601562 C 86.117188 131.980469 86.089844 131.460938 86.105469 130.832031 C 86.125 129.546875 86.109375 128.375 86.089844 127.203125 C 86.363281 127 86.636719 126.617188 86.90625 126.621094 C 92.300781 126.753906 97.699219 126.914062 103.089844 127.109375 C 103.757812 127.132812 104.417969 127.394531 105.265625 127.582031 C 107.503906 128.746094 109.550781 129.863281 111.636719 131.0625 C 112.152344 131.675781 112.636719 132.214844 113.148438 132.839844 C 113.859375 134.425781 114.546875 135.921875 115.230469 137.511719 C 115.367188 138.144531 115.503906 138.683594 115.632812 139.335938 C 115.714844 140.210938 115.796875 140.96875 115.859375 141.828125 C 115.863281 142.449219 115.890625 142.96875 115.894531 143.609375 C 115.871094 144.46875 115.871094 145.210938 115.863281 145.949219 C 115.851562 145.949219 115.871094 145.925781 115.867188 146.039062 C 115.882812 146.464844 115.90625 146.769531 115.898438 147.128906 C 115.882812 147.324219 115.898438 147.46875 115.914062 147.617188 Z M 115.914062 147.617188 "/>
<path style=" stroke:none;fill-rule:nonzero;fill:rgb(11.372549%,11.764706%,10.980392%);fill-opacity:1;" d="M 188.152344 125.308594 C 188.273438 125.148438 188.390625 124.988281 188.585938 124.730469 C 188.585938 150.386719 188.585938 175.964844 188.585938 201.726562 C 183.910156 201.550781 179.246094 201.378906 174.464844 201.203125 C 174.433594 200.769531 174.378906 200.40625 174.378906 200.042969 C 174.363281 189.070312 174.34375 178.097656 174.347656 167.121094 C 174.347656 166.582031 174.445312 166.015625 174.621094 165.503906 C 179.039062 152.46875 183.476562 139.441406 187.910156 126.316406 C 187.90625 126.214844 187.898438 126.214844 187.964844 126.140625 C 188.074219 125.8125 188.121094 125.554688 188.160156 125.300781 C 188.152344 125.300781 188.152344 125.308594 188.152344 125.308594 Z M 188.152344 125.308594 "/>
<path style=" stroke:none;fill-rule:nonzero;fill:rgb(11.372549%,11.764706%,10.980392%);fill-opacity:1;" d="M 129.082031 147.621094 C 131.066406 153.515625 133.058594 159.40625 135.03125 165.304688 C 135.214844 165.859375 135.367188 166.457031 135.371094 167.039062 C 135.390625 178.050781 135.382812 189.066406 135.378906 200.078125 C 135.378906 200.410156 135.335938 200.742188 135.304688 201.191406 C 130.582031 201.371094 125.917969 201.550781 121.078125 201.734375 C 121.078125 183.613281 121.078125 165.613281 121.082031 147.378906 C 121.070312 145.917969 121.058594 144.695312 121.0625 143.363281 C 121.070312 142.738281 121.058594 142.222656 121.0625 141.59375 C 121.070312 140.71875 121.058594 139.953125 121.0625 139.082031 C 121.070312 138.460938 121.058594 137.953125 121.066406 137.320312 C 121.070312 135.695312 121.058594 134.199219 121.0625 132.59375 C 121.066406 131.972656 121.058594 131.457031 121.0625 130.828125 C 121.070312 129.628906 121.054688 128.550781 121.042969 127.46875 C 121.054688 127.15625 121.066406 126.847656 121.078125 126.324219 C 121.101562 125.699219 121.121094 125.285156 121.152344 124.671875 C 121.457031 125.367188 121.667969 125.847656 121.878906 126.328125 C 121.957031 126.652344 122.035156 126.980469 122.164062 127.480469 C 122.621094 128.757812 123.027344 129.859375 123.425781 131.046875 C 123.621094 131.664062 123.816406 132.195312 124.035156 132.828125 C 124.585938 134.445312 125.113281 135.960938 125.648438 137.550781 C 125.847656 138.152344 126.039062 138.679688 126.238281 139.296875 C 126.523438 140.179688 126.804688 140.96875 127.109375 141.851562 C 127.316406 142.46875 127.507812 142.988281 127.707031 143.625 C 128.175781 145.03125 128.628906 146.328125 129.082031 147.621094 Z M 129.082031 147.621094 "/>
<path style=" stroke:none;fill-rule:nonzero;fill:rgb(92.156863%,63.529414%,45.09804%);fill-opacity:1;" d="M 121.996094 126.324219 C 121.667969 125.847656 121.457031 125.367188 121.152344 124.671875 C 121.121094 125.285156 121.101562 125.699219 121.0625 126.207031 C 104.320312 126.304688 87.597656 126.304688 70.875 126.308594 C 68.679688 126.308594 68.472656 126.070312 68.683594 123.683594 C 108.449219 123.683594 148.222656 123.683594 188.082031 123.683594 C 188.082031 124.183594 188.082031 124.636719 188.117188 125.203125 C 188.152344 125.308594 188.152344 125.300781 188.066406 125.347656 C 187.953125 125.667969 187.925781 125.941406 187.898438 126.214844 C 187.898438 126.214844 187.90625 126.214844 187.90625 126.210938 C 186.546875 126.238281 185.1875 126.304688 183.828125 126.304688 C 163.257812 126.316406 142.683594 126.316406 121.996094 126.324219 Z M 121.996094 126.324219 "/>
<path style=" stroke:none;fill-rule:nonzero;fill:rgb(95.686275%,63.137257%,41.960785%);fill-opacity:1;" d="M 170.929688 127.503906 C 170.6875 128.597656 170.339844 129.691406 169.835938 130.871094 C 159.730469 130.953125 149.78125 130.953125 139.828125 130.953125 C 139.460938 129.878906 139.09375 128.800781 138.722656 127.617188 C 141.574219 127.488281 144.429688 127.449219 147.285156 127.453125 C 155.132812 127.460938 162.976562 127.484375 170.929688 127.503906 Z M 170.929688 127.503906 "/>
<path style=" stroke:none;fill-rule:nonzero;fill:rgb(95.294118%,63.137257%,42.352942%);fill-opacity:1;" d="M 120.925781 127.460938 C 121.054688 128.550781 121.070312 129.628906 120.945312 130.828125 C 117.742188 130.957031 114.671875 130.972656 111.601562 130.984375 C 109.550781 129.863281 107.503906 128.746094 105.367188 127.59375 C 106.589844 127.523438 107.898438 127.453125 109.207031 127.449219 C 113.074219 127.4375 116.941406 127.449219 120.925781 127.460938 Z M 120.925781 127.460938 "/>
<path style=" stroke:none;fill-rule:nonzero;fill:rgb(94.901961%,63.137257%,42.352942%);fill-opacity:1;" d="M 86.285156 139.375 C 89.507812 139.382812 92.734375 139.324219 95.957031 139.425781 C 97.800781 139.484375 99.578125 139.921875 100.84375 141.589844 C 97.265625 141.683594 93.660156 141.820312 90.066406 141.644531 C 88.738281 141.582031 87.441406 140.792969 86.074219 140.183594 C 86.109375 139.8125 86.199219 139.59375 86.285156 139.375 Z M 86.285156 139.375 "/>
<path style=" stroke:none;fill-rule:nonzero;fill:rgb(92.941177%,61.960787%,41.568628%);fill-opacity:1;" d="M 86.0625 132.703125 C 86.085938 134.222656 86.113281 135.742188 86.097656 137.363281 C 84.855469 137.480469 83.652344 137.5 82.332031 137.507812 C 82.203125 135.980469 82.191406 134.460938 82.3125 132.824219 C 83.652344 132.703125 84.855469 132.703125 86.0625 132.703125 Z M 86.0625 132.703125 "/>
<path style=" stroke:none;fill-rule:nonzero;fill:rgb(95.686275%,63.137257%,41.960785%);fill-opacity:1;" d="M 121.046875 143.46875 C 121.058594 144.695312 121.070312 145.917969 121.066406 147.261719 C 119.765625 147.3125 118.484375 147.242188 116.992188 147.15625 C 116.5 147.117188 116.214844 147.097656 115.929688 147.078125 C 115.90625 146.769531 115.882812 146.464844 115.875 146.046875 C 115.890625 145.9375 115.871094 145.953125 115.871094 145.953125 C 115.871094 145.210938 115.871094 144.46875 116.019531 143.601562 C 117.792969 143.476562 119.417969 143.472656 121.046875 143.46875 Z M 121.046875 143.46875 "/>
<path style=" stroke:none;fill-rule:nonzero;fill:rgb(92.54902%,61.56863%,41.960785%);fill-opacity:1;" d="M 86.082031 127.242188 C 86.109375 128.375 86.125 129.546875 86 130.832031 C 84.640625 130.941406 83.429688 130.945312 82.214844 130.945312 C 82.203125 129.859375 82.191406 128.773438 82.199219 127.578125 C 83.503906 127.40625 84.789062 127.34375 86.082031 127.242188 Z M 86.082031 127.242188 "/>
<path style=" stroke:none;fill-rule:nonzero;fill:rgb(93.725491%,62.352943%,41.960785%);fill-opacity:1;" d="M 129.214844 147.617188 C 128.628906 146.328125 128.175781 145.03125 127.8125 143.613281 C 128.785156 143.476562 129.671875 143.46875 130.554688 143.457031 C 130.992188 144.753906 131.425781 146.050781 131.867188 147.445312 C 131.027344 147.566406 130.1875 147.589844 129.214844 147.617188 Z M 129.214844 147.617188 "/>
<path style=" stroke:none;fill-rule:nonzero;fill:rgb(93.725491%,62.352943%,41.960785%);fill-opacity:1;" d="M 123.429688 130.957031 C 123.027344 129.859375 122.621094 128.757812 122.1875 127.578125 C 123.125 127.472656 124.089844 127.441406 125.171875 127.371094 C 125.683594 128.460938 126.070312 129.59375 126.34375 130.828125 C 125.292969 130.941406 124.359375 130.949219 123.429688 130.957031 Z M 123.429688 130.957031 "/>
<path style=" stroke:none;fill-rule:nonzero;fill:rgb(92.156863%,63.137257%,44.313726%);fill-opacity:1;" d="M 183.371094 130.925781 C 183.609375 129.777344 183.957031 128.648438 184.339844 127.445312 C 185.164062 127.410156 185.953125 127.445312 186.746094 127.480469 C 186.441406 129.449219 185.003906 130.949219 183.371094 130.925781 Z M 183.371094 130.925781 "/>
<path style=" stroke:none;fill-rule:nonzero;fill:rgb(92.156863%,63.137257%,44.313726%);fill-opacity:1;" d="M 101.386719 143.386719 C 101.539062 143.871094 101.554688 144.339844 101.554688 144.90625 C 99.6875 144.578125 97.839844 144.15625 95.992188 143.730469 C 96 143.613281 96.007812 143.496094 96.011719 143.378906 C 97.761719 143.378906 99.507812 143.378906 101.386719 143.386719 Z M 101.386719 143.386719 "/>
<path style=" stroke:none;fill-rule:nonzero;fill:rgb(92.941177%,61.960787%,41.568628%);fill-opacity:1;" d="M 86.265625 139.328125 C 86.199219 139.59375 86.109375 139.8125 86.011719 140.121094 C 85.335938 139.960938 84.671875 139.714844 84.011719 139.46875 C 84.019531 139.363281 84.03125 139.261719 84.039062 139.15625 C 84.664062 139.15625 85.292969 139.15625 86.007812 139.152344 C 86.160156 139.167969 86.210938 139.214844 86.265625 139.328125 Z M 86.265625 139.328125 "/>
<path style=" stroke:none;fill-rule:nonzero;fill:rgb(39.607844%,64.705884%,83.529413%);fill-opacity:1;" d="M 115.898438 147.128906 C 116.214844 147.097656 116.5 147.117188 116.886719 147.167969 C 116.695312 147.335938 116.398438 147.472656 116.007812 147.613281 C 115.898438 147.46875 115.882812 147.324219 115.898438 147.128906 Z M 115.898438 147.128906 "/>
<path style=" stroke:none;fill-rule:nonzero;fill:rgb(39.607844%,64.705884%,83.529413%);fill-opacity:1;" d="M 115.839844 158.566406 C 115.792969 158.496094 115.785156 158.394531 115.808594 158.214844 C 115.855469 158.269531 115.867188 158.398438 115.839844 158.566406 Z M 115.839844 158.566406 "/>
<path style=" stroke:none;fill-rule:nonzero;fill:rgb(95.294118%,58.039218%,9.803922%);fill-opacity:1;" d="M 184.066406 97.757812 C 180.851562 98.539062 177.628906 99.375 174.355469 99.90625 C 163.972656 101.582031 153.59375 103.371094 143.160156 104.683594 C 133.097656 105.953125 122.984375 106.898438 112.867188 107.585938 C 104.839844 108.136719 96.765625 108.246094 88.714844 108.25 C 82.285156 108.25 75.851562 107.792969 69.332031 107.464844 C 71.089844 100.664062 74.003906 94.433594 78.011719 88.726562 C 78.109375 90.953125 78.109375 93.109375 78.109375 95.390625 C 84.667969 95.390625 91.027344 95.390625 97.53125 95.390625 C 97.53125 90.777344 97.53125 86.390625 97.5625 81.925781 C 97.320312 81.640625 97.0625 81.292969 96.761719 81.253906 C 95.882812 81.144531 94.976562 81.210938 94.097656 81.105469 C 92.488281 80.910156 91.429688 79.695312 91.367188 77.972656 C 91.355469 76.695312 91.335938 75.523438 91.398438 74.304688 C 97.128906 69.917969 103.332031 66.632812 110.191406 64.519531 C 116.332031 75.476562 122.402344 86.375 128.449219 97.285156 C 128.617188 97.59375 128.53125 98.042969 128.546875 98.414062 C 128.53125 98.40625 128.511719 98.433594 128.4375 98.429688 C 128.238281 98.5 128.113281 98.574219 127.996094 98.65625 C 128 98.660156 127.996094 98.648438 127.910156 98.644531 C 127.632812 98.738281 127.433594 98.828125 127.238281 98.914062 C 127.234375 98.914062 127.230469 98.921875 127.148438 98.917969 C 126.875 99.003906 126.679688 99.09375 126.480469 99.175781 C 126.472656 99.171875 126.464844 99.1875 126.386719 99.1875 C 126.171875 99.261719 126.035156 99.335938 125.808594 99.421875 C 124.410156 99.894531 123.105469 100.367188 121.730469 100.863281 C 122.277344 102.683594 122.773438 104.339844 123.335938 106.214844 C 134.390625 104.859375 145.394531 103.511719 156.464844 102.15625 C 155.308594 94.777344 155.554688 87.742188 156.800781 80.597656 C 150.882812 80.363281 145.097656 80.136719 139.273438 79.839844 C 139.0625 79.675781 138.894531 79.574219 138.65625 79.414062 C 137.175781 78.292969 135.664062 77.335938 134.371094 76.136719 C 131.871094 73.828125 129.480469 71.40625 127.082031 68.992188 C 124.835938 66.734375 122.640625 64.429688 120.421875 62.144531 C 140.03125 59.941406 156.964844 65.636719 171.160156 79.394531 C 176.605469 84.671875 180.792969 90.839844 184.066406 97.757812 Z M 184.066406 97.757812 "/>
<path style=" stroke:none;fill-rule:nonzero;fill:rgb(9.803922%,24.705882%,37.64706%);fill-opacity:1;" d="M 91.316406 74.347656 C 91.335938 75.523438 91.355469 76.695312 91.292969 78.027344 C 89.8125 80.355469 87.988281 80.792969 85.464844 79.566406 C 83.84375 78.3125 83.296875 75.839844 84.472656 74.167969 C 85.113281 73.253906 85.371094 72.375 85.230469 71.332031 C 85.085938 70.25 85.535156 69.496094 86.269531 68.734375 C 86.707031 68.28125 87.054688 67.523438 87.058594 66.898438 C 87.105469 57.851562 87.109375 48.804688 87.0625 39.761719 C 87.058594 38.972656 86.765625 38.09375 86.347656 37.417969 C 85.164062 35.492188 85.320312 33.691406 86.960938 32.277344 C 88.34375 31.082031 90.203125 31.242188 91.738281 32.808594 C 98.476562 39.691406 105.183594 46.601562 111.914062 53.496094 C 114.710938 56.359375 117.527344 59.207031 120.378906 62.105469 C 122.640625 64.429688 124.835938 66.734375 127.082031 68.992188 C 129.480469 71.40625 131.871094 73.828125 134.371094 76.136719 C 135.664062 77.335938 137.175781 78.292969 138.578125 79.480469 C 137.09375 79.566406 135.625 79.488281 134.15625 79.503906 C 132.019531 79.53125 129.886719 79.625 127.6875 79.695312 C 127.578125 79.695312 127.535156 79.695312 127.476562 79.609375 C 127.34375 79.414062 127.226562 79.300781 127.039062 79.148438 C 124.972656 77.078125 122.980469 75.042969 120.980469 73.011719 C 117.96875 69.957031 114.949219 66.902344 111.90625 63.792969 C 111.445312 63.253906 111.011719 62.773438 110.570312 62.207031 C 110.394531 62.003906 110.222656 61.886719 110.0625 61.769531 C 110.070312 61.769531 110.0625 61.785156 110.054688 61.695312 C 109.179688 60.625 108.316406 59.640625 107.429688 58.679688 C 107.367188 58.609375 107.144531 58.6875 106.921875 58.652344 C 100.75 52.34375 94.652344 46.078125 88.277344 39.53125 C 88.277344 46.800781 88.277344 53.648438 88.214844 60.578125 C 88.207031 62.734375 88.261719 64.808594 88.347656 66.972656 C 88.453125 67.839844 88.65625 68.457031 89.375 68.996094 C 89.820312 69.328125 90.117188 70.199219 90.070312 70.796875 C 89.949219 72.21875 90.308594 73.371094 91.316406 74.347656 M 113.675781 63.652344 C 114.246094 64.324219 114.816406 64.996094 115.390625 65.667969 C 115.507812 65.570312 115.628906 65.476562 115.746094 65.378906 C 115.515625 64.589844 115.285156 63.796875 114.964844 62.835938 C 114.183594 62.535156 113.40625 62.230469 112.625 61.925781 C 112.566406 62.019531 112.511719 62.113281 112.453125 62.210938 C 112.828125 62.640625 113.199219 63.070312 113.675781 63.652344 M 92.375 35.546875 C 92.347656 35.539062 92.320312 35.535156 92.292969 35.527344 C 92.339844 35.554688 92.382812 35.578125 92.351562 35.808594 C 92.636719 38.171875 92.734375 38.269531 95.527344 38.597656 C 94.339844 37.460938 93.375 36.542969 92.375 35.546875 M 98.035156 41.480469 C 98.035156 41.480469 97.984375 41.464844 97.984375 41.464844 C 97.984375 41.464844 98.054688 41.511719 98.03125 41.714844 C 98.414062 44.109375 98.539062 44.226562 101.300781 44.46875 C 100.066406 43.351562 99.054688 42.4375 98.035156 41.480469 M 88.644531 33.019531 C 87.511719 33.335938 86.925781 34.222656 86.933594 35.265625 C 86.941406 35.851562 87.460938 36.730469 87.976562 36.953125 C 89.085938 37.429688 90.34375 37.570312 91.78125 37.90625 C 91.496094 36.484375 91.386719 35.421875 91.058594 34.429688 C 90.726562 33.441406 89.988281 32.820312 88.644531 33.019531 M 126.105469 71.964844 C 125.691406 71.082031 126.292969 69.710938 124.855469 69.332031 C 123.859375 69.066406 122.855469 68.84375 121.769531 68.585938 C 122.335938 72.546875 122.660156 72.875 126.140625 73.136719 C 126.140625 72.808594 126.140625 72.488281 126.105469 71.964844 M 116.328125 64.382812 C 116.742188 65.179688 116.160156 66.472656 117.5 66.800781 C 118.460938 67.035156 119.441406 67.207031 120.46875 67.417969 C 120.105469 63.578125 119.484375 62.957031 116.105469 62.941406 C 116.164062 63.363281 116.222656 63.769531 116.328125 64.382812 M 112.320312 57.351562 C 111.6875 57.210938 111.058594 57.070312 110.351562 56.917969 C 111.238281 61.222656 110.261719 60.6875 114.5625 61.351562 C 114.6875 58.910156 114.128906 57.828125 112.320312 57.351562 M 107.21875 55.277344 C 107.785156 55.367188 108.351562 55.457031 108.953125 55.550781 C 108.375 51.648438 107.6875 50.980469 104.703125 51.289062 C 104.804688 54.203125 105.144531 54.78125 107.21875 55.277344 M 101.410156 49.289062 C 101.96875 49.394531 102.527344 49.503906 103.113281 49.613281 C 103.015625 46.207031 101.375 44.695312 98.765625 45.601562 C 99.503906 46.882812 98.652344 49.136719 101.410156 49.289062 M 129.675781 75.050781 C 129.035156 74.894531 128.394531 74.738281 127.726562 74.574219 C 127.722656 78.222656 128.796875 79.234375 131.824219 78.550781 C 131.832031 76.253906 131.476562 75.621094 129.675781 75.050781 M 94.8125 43.125 C 95.601562 43.289062 96.394531 43.457031 97.222656 43.632812 C 97.289062 40.300781 95.980469 39.050781 93.117188 39.613281 C 93.578125 40.796875 93.019531 42.347656 94.8125 43.125 M 120.941406 69.226562 C 120.523438 67.773438 119.242188 68.199219 118.316406 67.851562 C 118.222656 67.96875 118.128906 68.085938 118.035156 68.203125 C 119.234375 69.121094 120.433594 70.042969 121.632812 70.960938 C 121.558594 71.054688 121.488281 71.148438 121.417969 71.242188 C 121.28125 70.632812 121.144531 70.023438 120.941406 69.226562 M 126.28125 74.34375 C 125.539062 74.125 124.792969 73.90625 124.046875 73.691406 C 124.015625 73.765625 123.988281 73.839844 123.957031 73.914062 C 125.042969 74.957031 126.128906 75.996094 127.285156 77.105469 C 126.996094 76.207031 126.714844 75.335938 126.28125 74.34375 M 123.191406 66.945312 C 122.554688 66.242188 121.914062 65.542969 121.277344 64.839844 C 121.511719 68.28125 121.046875 67.710938 124.25 68.171875 C 123.910156 67.773438 123.609375 67.425781 123.191406 66.945312 M 127.855469 71.78125 C 127.535156 71.476562 127.214844 71.171875 126.75 70.730469 C 127.234375 74.183594 126.9375 73.550781 130.050781 74.214844 C 129.269531 73.34375 128.625 72.625 127.855469 71.78125 M 100.96875 50.300781 C 101.847656 51.335938 102.726562 52.371094 103.769531 53.601562 C 104.058594 51.09375 103.691406 50.683594 100.96875 50.300781 M 91.929688 41.292969 C 92.101562 41.398438 92.273438 41.507812 92.488281 41.640625 C 92.273438 39.011719 91.710938 38.445312 89.289062 38.558594 C 90.191406 39.496094 90.996094 40.335938 91.929688 41.292969 M 112.121094 56.359375 C 112.195312 56.21875 112.363281 55.992188 112.324219 55.949219 C 111.492188 55 110.636719 54.074219 109.679688 53.023438 C 109.574219 55.511719 109.75 55.753906 112.121094 56.359375 M 98.039062 46.019531 C 97.523438 44.585938 96.890625 44.230469 95.054688 44.542969 C 96.15625 45.585938 97.144531 46.519531 98.339844 47.644531 C 98.214844 47 98.140625 46.605469 98.039062 46.019531 M 116.589844 60.246094 C 116.234375 59.910156 115.878906 59.574219 115.4375 59.164062 C 115.570312 61.957031 115.523438 61.984375 118.488281 62.238281 C 117.863281 61.582031 117.292969 60.976562 116.589844 60.246094 M 103.863281 47.996094 C 104.300781 50.175781 104.300781 50.175781 106.914062 50.421875 C 105.800781 49.246094 104.839844 48.230469 103.671875 46.992188 C 103.746094 47.496094 103.769531 47.660156 103.863281 47.996094 M 108.902344 58.6875 C 109.160156 58.894531 109.417969 59.101562 109.726562 59.347656 C 109.496094 56.785156 109.082031 56.367188 106.679688 56.203125 C 106.554688 56.328125 106.425781 56.453125 106.300781 56.578125 C 107.125 57.238281 107.949219 57.902344 108.902344 58.6875 M 88.285156 71.515625 C 88.285156 71.007812 88.324219 70.492188 88.246094 69.996094 C 88.234375 69.925781 87.527344 69.804688 87.394531 69.945312 C 87.148438 70.207031 86.878906 70.78125 87.003906 70.976562 C 87.203125 71.289062 87.71875 71.394531 88.285156 71.515625 M 132.582031 77.402344 C 132.671875 78.445312 133.265625 78.710938 134.417969 78.484375 C 133.722656 77.746094 133.148438 77.136719 132.570312 76.527344 C 132.507812 76.570312 132.441406 76.613281 132.375 76.65625 C 132.429688 76.847656 132.484375 77.039062 132.582031 77.402344 Z M 132.582031 77.402344 "/>
<path style=" stroke:none;fill-rule:nonzero;fill:rgb(8.235294%,23.921569%,39.215687%);fill-opacity:1;" d="M 97.53125 82.007812 C 97.53125 86.390625 97.53125 90.777344 97.53125 95.390625 C 91.027344 95.390625 84.667969 95.390625 78.109375 95.390625 C 78.109375 93.109375 78.109375 90.953125 78.082031 88.667969 C 78.054688 86.25 78.054688 83.953125 78.054688 81.46875 C 79.957031 81.46875 81.75 81.46875 83.746094 81.453125 C 88.0625 81.449219 92.171875 81.445312 96.285156 81.492188 C 96.703125 81.5 97.117188 81.828125 97.53125 82.007812 M 85.957031 84.121094 C 85.429688 84.675781 84.910156 85.238281 84.371094 85.78125 C 82.351562 87.824219 82.304688 87.863281 84.214844 89.90625 C 85.710938 91.507812 87.34375 92.984375 88.964844 94.566406 C 90.554688 92.964844 92.105469 91.390625 93.671875 89.832031 C 94.257812 89.25 94.011719 88.828125 93.515625 88.34375 C 91.996094 86.851562 90.46875 85.367188 89.023438 83.808594 C 87.5 82.160156 87.738281 82.347656 86.25 83.796875 C 86.1875 83.855469 86.132812 83.921875 85.957031 84.121094 Z M 85.957031 84.121094 "/>
<path style=" stroke:none;fill-rule:nonzero;fill:rgb(87.450981%,53.725493%,10.196079%);fill-opacity:1;" d="M 97.5625 81.925781 C 97.117188 81.828125 96.703125 81.5 96.285156 81.492188 C 92.171875 81.445312 88.0625 81.449219 83.832031 81.414062 C 84.246094 80.828125 84.785156 80.269531 85.390625 79.636719 C 87.988281 80.792969 89.8125 80.355469 91.285156 78.128906 C 91.429688 79.695312 92.488281 80.910156 94.097656 81.105469 C 94.976562 81.210938 95.882812 81.144531 96.761719 81.253906 C 97.0625 81.292969 97.320312 81.640625 97.5625 81.925781 Z M 97.5625 81.925781 "/>
<path style=" stroke:none;fill-rule:nonzero;fill:rgb(38.039216%,65.490198%,85.882354%);fill-opacity:1;" d="M 144.167969 143.476562 C 143.980469 142.960938 143.792969 142.445312 143.722656 141.824219 C 151.285156 141.722656 158.726562 141.730469 166.164062 141.738281 C 164.570312 146.449219 162.992188 151.167969 161.382812 155.878906 C 159.402344 161.679688 157.398438 167.472656 155.402344 173.265625 C 155.273438 173.648438 155.117188 174.019531 154.84375 174.722656 C 151.574219 165.214844 148.414062 156.019531 145.355469 146.710938 C 150.535156 145.925781 155.574219 145.074219 160.476562 143.476562 C 155.039062 143.476562 149.601562 143.476562 144.167969 143.476562 Z M 144.167969 143.476562 "/>
<path style=" stroke:none;fill-rule:nonzero;fill:rgb(95.686275%,63.137257%,41.960785%);fill-opacity:1;" d="M 142.113281 137.46875 C 141.578125 135.957031 141.039062 134.445312 140.621094 132.820312 C 150.242188 132.714844 159.75 132.714844 169.257812 132.71875 C 168.753906 134.246094 168.25 135.769531 167.585938 137.367188 C 158.984375 137.449219 150.550781 137.460938 142.113281 137.46875 Z M 142.113281 137.46875 "/>
<path style=" stroke:none;fill-rule:nonzero;fill:rgb(94.117647%,63.137257%,43.137255%);fill-opacity:1;" d="M 166.230469 141.671875 C 158.726562 141.730469 151.285156 141.722656 143.722656 141.730469 C 143.308594 140.964844 143.015625 140.1875 142.835938 139.300781 C 150.984375 139.203125 159.015625 139.210938 167.050781 139.214844 C 166.800781 140.011719 166.550781 140.808594 166.230469 141.671875 Z M 166.230469 141.671875 "/>
<path style=" stroke:none;fill-rule:nonzero;fill:rgb(40.000001%,65.882355%,85.09804%);fill-opacity:1;" d="M 169.320312 132.660156 C 159.75 132.714844 150.242188 132.714844 140.613281 132.71875 C 140.277344 132.195312 140.0625 131.664062 139.839844 131.042969 C 149.78125 130.953125 159.730469 130.953125 169.792969 130.960938 C 169.730469 131.507812 169.554688 132.054688 169.320312 132.660156 Z M 169.320312 132.660156 "/>
<path style=" stroke:none;fill-rule:nonzero;fill:rgb(41.960785%,65.882355%,83.137256%);fill-opacity:1;" d="M 167.101562 139.148438 C 159.015625 139.210938 150.984375 139.203125 142.816406 139.207031 C 142.492188 138.6875 142.300781 138.160156 142.109375 137.550781 C 150.550781 137.460938 158.984375 137.449219 167.539062 137.453125 C 167.488281 138.007812 167.320312 138.542969 167.101562 139.148438 Z M 167.101562 139.148438 "/>
<path style=" stroke:none;fill-rule:nonzero;fill:rgb(94.509804%,63.137257%,42.745098%);fill-opacity:1;" d="M 144.167969 143.574219 C 149.601562 143.476562 155.039062 143.476562 160.476562 143.476562 C 155.574219 145.074219 150.535156 145.925781 145.339844 146.609375 C 144.867188 145.636719 144.515625 144.65625 144.167969 143.574219 Z M 144.167969 143.574219 "/>
<path style=" stroke:none;fill-rule:nonzero;fill:rgb(93.725491%,62.352943%,41.960785%);fill-opacity:1;" d="M 125.644531 137.476562 C 125.113281 135.960938 124.585938 134.445312 124.164062 132.820312 C 125.1875 132.699219 126.105469 132.6875 127.023438 132.675781 C 127.535156 134.195312 128.046875 135.710938 128.460938 137.332031 C 127.453125 137.449219 126.546875 137.464844 125.644531 137.476562 Z M 125.644531 137.476562 "/>
<path style=" stroke:none;fill-rule:nonzero;fill:rgb(92.54902%,61.56863%,41.960785%);fill-opacity:1;" d="M 127.089844 141.757812 C 126.804688 140.96875 126.523438 140.179688 126.355469 139.285156 C 127.371094 139.164062 128.269531 139.148438 129.171875 139.132812 C 129.449219 139.925781 129.726562 140.71875 129.886719 141.605469 C 128.875 141.71875 127.980469 141.738281 127.089844 141.757812 Z M 127.089844 141.757812 "/>
<path style=" stroke:none;fill-rule:nonzero;fill:rgb(39.607844%,64.705884%,83.529413%);fill-opacity:1;" d="M 127.019531 132.582031 C 126.105469 132.6875 125.1875 132.699219 124.140625 132.71875 C 123.816406 132.195312 123.621094 131.664062 123.425781 131.046875 C 124.359375 130.949219 125.292969 130.941406 126.34375 130.925781 C 126.644531 131.441406 126.832031 131.964844 127.019531 132.582031 Z M 127.019531 132.582031 "/>
<path style=" stroke:none;fill-rule:nonzero;fill:rgb(39.607844%,64.705884%,83.529413%);fill-opacity:1;" d="M 127.109375 141.851562 C 127.980469 141.738281 128.875 141.71875 129.886719 141.699219 C 130.1875 142.222656 130.371094 142.746094 130.554688 143.363281 C 129.671875 143.46875 128.785156 143.476562 127.796875 143.5 C 127.507812 142.988281 127.316406 142.46875 127.109375 141.851562 Z M 127.109375 141.851562 "/>
<path style=" stroke:none;fill-rule:nonzero;fill:rgb(39.607844%,64.705884%,83.529413%);fill-opacity:1;" d="M 129.15625 139.039062 C 128.269531 139.148438 127.371094 139.164062 126.351562 139.191406 C 126.039062 138.679688 125.847656 138.152344 125.648438 137.550781 C 126.546875 137.464844 127.453125 137.449219 128.46875 137.441406 C 128.765625 137.941406 128.953125 138.441406 129.15625 139.039062 Z M 129.15625 139.039062 "/>
<path style=" stroke:none;fill-rule:nonzero;fill:rgb(39.607844%,64.705884%,83.529413%);fill-opacity:1;" d="M 82.199219 131.054688 C 83.429688 130.945312 84.640625 130.941406 85.960938 130.945312 C 86.089844 131.460938 86.117188 131.980469 86.101562 132.601562 C 84.855469 132.703125 83.652344 132.703125 82.332031 132.703125 C 82.203125 132.1875 82.191406 131.675781 82.199219 131.054688 Z M 82.199219 131.054688 "/>
<path style=" stroke:none;fill-rule:nonzero;fill:rgb(95.294118%,62.7451%,41.960785%);fill-opacity:1;" d="M 121.046875 132.699219 C 121.058594 134.199219 121.070312 135.695312 120.949219 137.3125 C 118.953125 137.425781 117.09375 137.421875 115.234375 137.421875 C 114.546875 135.921875 113.859375 134.425781 113.269531 132.828125 C 115.925781 132.71875 118.484375 132.710938 121.046875 132.699219 Z M 121.046875 132.699219 "/>
<path style=" stroke:none;fill-rule:nonzero;fill:rgb(40.000001%,65.882355%,85.09804%);fill-opacity:1;" d="M 121.0625 132.59375 C 118.484375 132.710938 115.925781 132.71875 113.242188 132.742188 C 112.636719 132.214844 112.152344 131.675781 111.636719 131.0625 C 114.671875 130.972656 117.742188 130.957031 120.929688 130.945312 C 121.058594 131.457031 121.066406 131.972656 121.0625 132.59375 Z M 121.0625 132.59375 "/>
<path style=" stroke:none;fill-rule:nonzero;fill:rgb(94.117647%,63.137257%,43.137255%);fill-opacity:1;" d="M 121.042969 139.191406 C 121.058594 139.953125 121.070312 140.71875 120.945312 141.59375 C 119.167969 141.714844 117.527344 141.722656 115.882812 141.726562 C 115.796875 140.96875 115.714844 140.210938 115.757812 139.324219 C 117.609375 139.195312 119.328125 139.191406 121.042969 139.191406 Z M 121.042969 139.191406 "/>
<path style=" stroke:none;fill-rule:nonzero;fill:rgb(41.960785%,65.882355%,83.137256%);fill-opacity:1;" d="M 121.0625 139.082031 C 119.328125 139.191406 117.609375 139.195312 115.765625 139.210938 C 115.503906 138.683594 115.367188 138.144531 115.230469 137.511719 C 117.09375 137.421875 118.953125 137.425781 120.929688 137.4375 C 121.058594 137.953125 121.070312 138.460938 121.0625 139.082031 Z M 121.0625 139.082031 "/>
<path style=" stroke:none;fill-rule:nonzero;fill:rgb(39.607844%,64.705884%,83.529413%);fill-opacity:1;" d="M 115.859375 141.828125 C 117.527344 141.722656 119.167969 141.714844 120.929688 141.707031 C 121.058594 142.222656 121.070312 142.738281 121.0625 143.363281 C 119.417969 143.472656 117.792969 143.476562 116.042969 143.484375 C 115.890625 142.96875 115.863281 142.449219 115.859375 141.828125 Z M 115.859375 141.828125 "/>
<path style=" stroke:none;fill-rule:nonzero;fill:rgb(39.607844%,64.705884%,83.529413%);fill-opacity:1;" d="M 115.863281 145.949219 C 115.871094 145.953125 115.890625 145.9375 115.882812 145.929688 C 115.871094 145.925781 115.851562 145.949219 115.863281 145.949219 Z M 115.863281 145.949219 "/>
<path style=" stroke:none;fill-rule:nonzero;fill:rgb(38.039216%,65.882355%,86.274511%);fill-opacity:1;" d="M 187.964844 126.140625 C 187.925781 125.941406 187.953125 125.667969 188.074219 125.347656 C 188.121094 125.554688 188.074219 125.8125 187.964844 126.140625 Z M 187.964844 126.140625 "/>
<path style=" stroke:none;fill-rule:nonzero;fill:rgb(7.843138%,23.921569%,39.607844%);fill-opacity:1;" d="M 127.492188 79.695312 C 127.535156 79.695312 127.578125 79.695312 127.804688 79.691406 C 130.179688 79.773438 132.367188 79.882812 134.554688 79.933594 C 136.140625 79.964844 137.726562 79.917969 139.3125 79.90625 C 145.097656 80.136719 150.882812 80.363281 156.800781 80.597656 C 155.554688 87.742188 155.308594 94.777344 156.464844 102.15625 C 145.394531 103.511719 134.390625 104.859375 123.335938 106.214844 C 122.773438 104.339844 122.277344 102.683594 121.730469 100.863281 C 123.105469 100.367188 124.410156 99.894531 125.886719 99.421875 C 126.199219 99.339844 126.332031 99.265625 126.464844 99.1875 C 126.464844 99.1875 126.472656 99.171875 126.5625 99.179688 C 126.847656 99.097656 127.039062 99.007812 127.230469 98.921875 C 127.230469 98.921875 127.234375 98.914062 127.324219 98.917969 C 127.605469 98.832031 127.800781 98.738281 127.996094 98.648438 C 127.996094 98.648438 128 98.660156 128.070312 98.65625 C 128.265625 98.578125 128.390625 98.507812 128.511719 98.433594 C 128.511719 98.433594 128.53125 98.40625 128.648438 98.40625 C 128.933594 98.210938 129.257812 97.996094 129.246094 97.8125 C 129.132812 96.378906 128.953125 94.953125 128.773438 93.441406 C 128.761719 93.25 128.769531 93.140625 128.8125 93 C 128.816406 92.898438 128.78125 92.828125 128.707031 92.660156 C 128.269531 88.640625 127.863281 84.71875 127.472656 80.683594 C 127.488281 80.28125 127.488281 79.988281 127.492188 79.695312 M 141.078125 92.121094 C 145.546875 91.640625 150.015625 91.160156 154.402344 90.6875 C 154.535156 88.414062 154.675781 86.019531 154.820312 83.496094 C 149.4375 83.257812 144.027344 83.019531 138.519531 82.78125 C 138.964844 85.835938 139.40625 88.691406 139.785156 91.558594 C 139.890625 92.355469 140.332031 92.277344 141.078125 92.121094 Z M 141.078125 92.121094 "/>
<path style=" stroke:none;fill-rule:nonzero;fill:rgb(30.980393%,74.117649%,92.941177%);fill-opacity:1;" d="M 91.398438 74.304688 C 90.308594 73.371094 89.949219 72.21875 90.070312 70.796875 C 90.117188 70.199219 89.820312 69.328125 89.375 68.996094 C 88.65625 68.457031 88.453125 67.839844 88.355469 66.851562 C 88.3125 64.59375 88.292969 62.542969 88.277344 60.496094 C 88.277344 53.648438 88.277344 46.800781 88.277344 39.53125 C 94.652344 46.078125 100.75 52.34375 106.957031 58.734375 C 108.078125 60.730469 109.097656 62.597656 110.117188 64.464844 C 103.332031 66.632812 97.128906 69.917969 91.398438 74.304688 Z M 91.398438 74.304688 "/>
<path style=" stroke:none;fill-rule:nonzero;fill:rgb(13.333334%,22.745098%,30.19608%);fill-opacity:1;" d="M 110.191406 64.519531 C 109.097656 62.597656 108.078125 60.730469 107.027344 58.777344 C 107.144531 58.6875 107.367188 58.609375 107.429688 58.679688 C 108.316406 59.640625 109.179688 60.625 109.984375 61.726562 C 110.316406 62.605469 110.714844 63.363281 111.132812 64.207031 C 117.027344 74.9375 122.90625 85.585938 128.785156 96.230469 C 128.855469 96.203125 128.925781 96.175781 128.992188 96.144531 C 128.925781 95.269531 128.859375 94.398438 128.792969 93.523438 C 128.953125 94.953125 129.132812 96.378906 129.246094 97.8125 C 129.257812 97.996094 128.933594 98.210938 128.664062 98.417969 C 128.53125 98.042969 128.617188 97.59375 128.449219 97.285156 C 122.402344 86.375 116.332031 75.476562 110.191406 64.519531 Z M 110.191406 64.519531 "/>
<path style=" stroke:none;fill-rule:nonzero;fill:rgb(12.156863%,16.862746%,20.392157%);fill-opacity:1;" d="M 139.273438 79.839844 C 137.726562 79.917969 136.140625 79.964844 134.554688 79.933594 C 132.367188 79.882812 130.179688 79.773438 127.871094 79.691406 C 129.886719 79.625 132.019531 79.53125 134.15625 79.503906 C 135.625 79.488281 137.09375 79.566406 138.644531 79.535156 C 138.894531 79.574219 139.0625 79.675781 139.273438 79.839844 Z M 139.273438 79.839844 "/>
<path style=" stroke:none;fill-rule:nonzero;fill:rgb(13.333334%,22.745098%,30.19608%);fill-opacity:1;" d="M 127.910156 98.644531 C 127.800781 98.738281 127.605469 98.832031 127.324219 98.921875 C 127.433594 98.828125 127.632812 98.738281 127.910156 98.644531 Z M 127.910156 98.644531 "/>
<path style=" stroke:none;fill-rule:nonzero;fill:rgb(13.333334%,22.745098%,30.19608%);fill-opacity:1;" d="M 127.148438 98.917969 C 127.039062 99.007812 126.847656 99.097656 126.570312 99.183594 C 126.679688 99.09375 126.875 99.003906 127.148438 98.917969 Z M 127.148438 98.917969 "/>
<path style=" stroke:none;fill-rule:nonzero;fill:rgb(13.333334%,22.745098%,30.19608%);fill-opacity:1;" d="M 126.386719 99.1875 C 126.332031 99.265625 126.199219 99.339844 125.984375 99.414062 C 126.035156 99.335938 126.171875 99.261719 126.386719 99.1875 Z M 126.386719 99.1875 "/>
<path style=" stroke:none;fill-rule:nonzero;fill:rgb(13.333334%,22.745098%,30.19608%);fill-opacity:1;" d="M 128.4375 98.429688 C 128.390625 98.507812 128.265625 98.578125 128.066406 98.652344 C 128.113281 98.574219 128.238281 98.5 128.4375 98.429688 Z M 128.4375 98.429688 "/>
<path style=" stroke:none;fill-rule:nonzero;fill:rgb(94.117647%,57.254905%,9.803922%);fill-opacity:1;" d="M 128.773438 93.441406 C 128.859375 94.398438 128.925781 95.269531 128.992188 96.144531 C 128.925781 96.175781 128.855469 96.203125 128.785156 96.230469 C 122.90625 85.585938 117.027344 74.9375 111.222656 64.1875 C 111.503906 64.007812 111.71875 63.925781 111.933594 63.847656 C 114.949219 66.902344 117.96875 69.957031 120.980469 73.011719 C 122.980469 75.042969 124.972656 77.078125 127.074219 79.25 C 127.273438 79.859375 127.367188 80.328125 127.460938 80.796875 C 127.863281 84.71875 128.269531 88.640625 128.699219 92.730469 C 128.746094 92.941406 128.761719 92.984375 128.777344 93.03125 C 128.769531 93.140625 128.761719 93.25 128.773438 93.441406 Z M 128.773438 93.441406 "/>
<path style=" stroke:none;fill-rule:nonzero;fill:rgb(30.980393%,73.333335%,92.156863%);fill-opacity:1;" d="M 88.738281 32.996094 C 89.988281 32.820312 90.726562 33.441406 91.058594 34.429688 C 91.386719 35.421875 91.496094 36.484375 91.78125 37.90625 C 90.34375 37.570312 89.085938 37.429688 87.976562 36.953125 C 87.460938 36.730469 86.941406 35.851562 86.933594 35.265625 C 86.925781 34.222656 87.511719 33.335938 88.738281 32.996094 Z M 88.738281 32.996094 "/>
<path style=" stroke:none;fill-rule:nonzero;fill:rgb(92.156863%,56.078434%,9.803922%);fill-opacity:1;" d="M 126.125 72.066406 C 126.140625 72.488281 126.140625 72.808594 126.140625 73.136719 C 122.660156 72.875 122.335938 72.546875 121.769531 68.585938 C 122.855469 68.84375 123.859375 69.066406 124.855469 69.332031 C 126.292969 69.710938 125.691406 71.082031 126.125 72.066406 Z M 126.125 72.066406 "/>
<path style=" stroke:none;fill-rule:nonzero;fill:rgb(92.156863%,56.078434%,9.803922%);fill-opacity:1;" d="M 116.304688 64.28125 C 116.222656 63.769531 116.164062 63.363281 116.105469 62.941406 C 119.484375 62.957031 120.105469 63.578125 120.46875 67.417969 C 119.441406 67.207031 118.460938 67.035156 117.5 66.800781 C 116.160156 66.472656 116.742188 65.179688 116.304688 64.28125 Z M 116.304688 64.28125 "/>
<path style=" stroke:none;fill-rule:nonzero;fill:rgb(30.588236%,72.941178%,91.764706%);fill-opacity:1;" d="M 112.421875 57.375 C 114.128906 57.828125 114.6875 58.910156 114.5625 61.351562 C 110.261719 60.6875 111.238281 61.222656 110.351562 56.917969 C 111.058594 57.070312 111.6875 57.210938 112.421875 57.375 Z M 112.421875 57.375 "/>
<path style=" stroke:none;fill-rule:nonzero;fill:rgb(30.588236%,72.941178%,91.764706%);fill-opacity:1;" d="M 107.117188 55.246094 C 105.144531 54.78125 104.804688 54.203125 104.703125 51.289062 C 107.6875 50.980469 108.375 51.648438 108.953125 55.550781 C 108.351562 55.457031 107.785156 55.367188 107.117188 55.246094 Z M 107.117188 55.246094 "/>
<path style=" stroke:none;fill-rule:nonzero;fill:rgb(30.588236%,72.941178%,91.764706%);fill-opacity:1;" d="M 101.308594 49.261719 C 98.652344 49.136719 99.503906 46.882812 98.765625 45.601562 C 101.375 44.695312 103.015625 46.207031 103.113281 49.613281 C 102.527344 49.503906 101.96875 49.394531 101.308594 49.261719 Z M 101.308594 49.261719 "/>
<path style=" stroke:none;fill-rule:nonzero;fill:rgb(92.54902%,56.470591%,9.803922%);fill-opacity:1;" d="M 129.777344 75.070312 C 131.476562 75.621094 131.832031 76.253906 131.824219 78.550781 C 128.796875 79.234375 127.722656 78.222656 127.726562 74.574219 C 128.394531 74.738281 129.035156 74.894531 129.777344 75.070312 Z M 129.777344 75.070312 "/>
<path style=" stroke:none;fill-rule:nonzero;fill:rgb(30.980393%,73.333335%,92.156863%);fill-opacity:1;" d="M 94.714844 43.09375 C 93.019531 42.347656 93.578125 40.796875 93.117188 39.613281 C 95.980469 39.050781 97.289062 40.300781 97.222656 43.632812 C 96.394531 43.457031 95.601562 43.289062 94.714844 43.09375 Z M 94.714844 43.09375 "/>
<path style=" stroke:none;fill-rule:nonzero;fill:rgb(92.156863%,56.078434%,9.803922%);fill-opacity:1;" d="M 120.972656 69.320312 C 121.144531 70.023438 121.28125 70.632812 121.417969 71.242188 C 121.488281 71.148438 121.558594 71.054688 121.632812 70.960938 C 120.433594 70.042969 119.234375 69.121094 118.035156 68.203125 C 118.128906 68.085938 118.222656 67.96875 118.316406 67.851562 C 119.242188 68.199219 120.523438 67.773438 120.972656 69.320312 Z M 120.972656 69.320312 "/>
<path style=" stroke:none;fill-rule:nonzero;fill:rgb(87.450981%,53.725493%,10.196079%);fill-opacity:1;" d="M 126.359375 74.40625 C 126.714844 75.335938 126.996094 76.207031 127.285156 77.105469 C 126.128906 75.996094 125.042969 74.957031 123.957031 73.914062 C 123.988281 73.839844 124.015625 73.765625 124.046875 73.691406 C 124.792969 73.90625 125.539062 74.125 126.359375 74.40625 Z M 126.359375 74.40625 "/>
<path style=" stroke:none;fill-rule:nonzero;fill:rgb(87.450981%,53.725493%,10.196079%);fill-opacity:1;" d="M 123.25 67.011719 C 123.609375 67.425781 123.910156 67.773438 124.25 68.171875 C 121.046875 67.710938 121.511719 68.28125 121.277344 64.839844 C 121.914062 65.542969 122.554688 66.242188 123.25 67.011719 Z M 123.25 67.011719 "/>
<path style=" stroke:none;fill-rule:nonzero;fill:rgb(87.450981%,53.725493%,10.196079%);fill-opacity:1;" d="M 127.917969 71.84375 C 128.625 72.625 129.269531 73.34375 130.050781 74.214844 C 126.9375 73.550781 127.234375 74.183594 126.75 70.730469 C 127.214844 71.171875 127.535156 71.476562 127.917969 71.84375 Z M 127.917969 71.84375 "/>
<path style=" stroke:none;fill-rule:nonzero;fill:rgb(30.19608%,70.588237%,88.235295%);fill-opacity:1;" d="M 101.054688 50.265625 C 103.691406 50.683594 104.058594 51.09375 103.769531 53.601562 C 102.726562 52.371094 101.847656 51.335938 101.054688 50.265625 Z M 101.054688 50.265625 "/>
<path style=" stroke:none;fill-rule:nonzero;fill:rgb(30.19608%,70.588237%,88.235295%);fill-opacity:1;" d="M 91.867188 41.234375 C 90.996094 40.335938 90.191406 39.496094 89.289062 38.558594 C 91.710938 38.445312 92.273438 39.011719 92.488281 41.640625 C 92.273438 41.507812 92.101562 41.398438 91.867188 41.234375 Z M 91.867188 41.234375 "/>
<path style=" stroke:none;fill-rule:nonzero;fill:rgb(30.19608%,71.372551%,89.411765%);fill-opacity:1;" d="M 112.03125 56.34375 C 109.75 55.753906 109.574219 55.511719 109.679688 53.023438 C 110.636719 54.074219 111.492188 55 112.324219 55.949219 C 112.363281 55.992188 112.195312 56.21875 112.03125 56.34375 Z M 112.03125 56.34375 "/>
<path style=" stroke:none;fill-rule:nonzero;fill:rgb(30.19608%,71.372551%,89.411765%);fill-opacity:1;" d="M 98.050781 46.113281 C 98.140625 46.605469 98.214844 47 98.339844 47.644531 C 97.144531 46.519531 96.15625 45.585938 95.054688 44.542969 C 96.890625 44.230469 97.523438 44.585938 98.050781 46.113281 Z M 98.050781 46.113281 "/>
<path style=" stroke:none;fill-rule:nonzero;fill:rgb(30.19608%,70.588237%,88.235295%);fill-opacity:1;" d="M 116.652344 60.308594 C 117.292969 60.976562 117.863281 61.582031 118.488281 62.238281 C 115.523438 61.984375 115.570312 61.957031 115.4375 59.164062 C 115.878906 59.574219 116.234375 59.910156 116.652344 60.308594 Z M 116.652344 60.308594 "/>
<path style=" stroke:none;fill-rule:nonzero;fill:rgb(30.19608%,70.588237%,88.235295%);fill-opacity:1;" d="M 103.828125 47.910156 C 103.769531 47.660156 103.746094 47.496094 103.671875 46.992188 C 104.839844 48.230469 105.800781 49.246094 106.914062 50.421875 C 104.300781 50.175781 104.300781 50.175781 103.828125 47.910156 Z M 103.828125 47.910156 "/>
<path style=" stroke:none;fill-rule:nonzero;fill:rgb(30.588236%,72.156864%,90.588236%);fill-opacity:1;" d="M 108.835938 58.625 C 107.949219 57.902344 107.125 57.238281 106.300781 56.578125 C 106.425781 56.453125 106.554688 56.328125 106.679688 56.203125 C 109.082031 56.367188 109.496094 56.785156 109.726562 59.347656 C 109.417969 59.101562 109.160156 58.894531 108.835938 58.625 Z M 108.835938 58.625 "/>
<path style=" stroke:none;fill-rule:nonzero;fill:rgb(30.19608%,70.588237%,88.235295%);fill-opacity:1;" d="M 98.039062 41.523438 C 99.054688 42.4375 100.066406 43.351562 101.300781 44.46875 C 98.539062 44.226562 98.414062 44.109375 98.039062 41.617188 C 98.046875 41.515625 98.039062 41.523438 98.039062 41.523438 Z M 98.039062 41.523438 "/>
<path style=" stroke:none;fill-rule:nonzero;fill:rgb(30.19608%,71.372551%,89.411765%);fill-opacity:1;" d="M 92.414062 35.625 C 93.375 36.542969 94.339844 37.460938 95.527344 38.597656 C 92.734375 38.269531 92.636719 38.171875 92.386719 35.710938 C 92.421875 35.617188 92.414062 35.625 92.414062 35.625 Z M 92.414062 35.625 "/>
<path style=" stroke:none;fill-rule:nonzero;fill:rgb(30.19608%,70.588237%,88.235295%);fill-opacity:1;" d="M 88.195312 71.550781 C 87.71875 71.394531 87.203125 71.289062 87.003906 70.976562 C 86.878906 70.78125 87.148438 70.207031 87.394531 69.945312 C 87.527344 69.804688 88.234375 69.925781 88.246094 69.996094 C 88.324219 70.492188 88.285156 71.007812 88.195312 71.550781 Z M 88.195312 71.550781 "/>
<path style=" stroke:none;fill-rule:nonzero;fill:rgb(87.450981%,53.725493%,10.196079%);fill-opacity:1;" d="M 115.054688 63.007812 C 115.285156 63.796875 115.515625 64.589844 115.746094 65.378906 C 115.628906 65.476562 115.507812 65.570312 115.390625 65.667969 C 114.816406 64.996094 114.246094 64.324219 113.71875 63.546875 C 114.191406 63.296875 114.625 63.152344 115.054688 63.007812 Z M 115.054688 63.007812 "/>
<path style=" stroke:none;fill-rule:nonzero;fill:rgb(30.19608%,70.588237%,88.235295%);fill-opacity:1;" d="M 115.007812 62.921875 C 114.625 63.152344 114.191406 63.296875 113.667969 63.472656 C 113.199219 63.070312 112.828125 62.640625 112.453125 62.210938 C 112.511719 62.113281 112.566406 62.019531 112.625 61.925781 C 113.40625 62.230469 114.183594 62.535156 115.007812 62.921875 Z M 115.007812 62.921875 "/>
<path style=" stroke:none;fill-rule:nonzero;fill:rgb(80.784315%,50.196081%,10.588235%);fill-opacity:1;" d="M 132.5625 77.316406 C 132.484375 77.039062 132.429688 76.847656 132.375 76.65625 C 132.441406 76.613281 132.507812 76.570312 132.570312 76.527344 C 133.148438 77.136719 133.722656 77.746094 134.417969 78.484375 C 133.265625 78.710938 132.671875 78.445312 132.5625 77.316406 Z M 132.5625 77.316406 "/>
<path style=" stroke:none;fill-rule:nonzero;fill:rgb(30.19608%,70.588237%,88.235295%);fill-opacity:1;" d="M 111.90625 63.792969 C 111.71875 63.925781 111.503906 64.007812 111.203125 64.101562 C 110.714844 63.363281 110.316406 62.605469 109.988281 61.816406 C 110.0625 61.785156 110.070312 61.769531 110.09375 61.839844 C 110.273438 62.035156 110.425781 62.164062 110.582031 62.289062 C 111.011719 62.773438 111.445312 63.253906 111.90625 63.792969 Z M 111.90625 63.792969 "/>
<path style=" stroke:none;fill-rule:nonzero;fill:rgb(8.627451%,18.039216%,25.882354%);fill-opacity:1;" d="M 88.214844 60.578125 C 88.292969 62.542969 88.3125 64.59375 88.324219 66.761719 C 88.261719 64.808594 88.207031 62.734375 88.214844 60.578125 Z M 88.214844 60.578125 "/>
<path style=" stroke:none;fill-rule:nonzero;fill:rgb(12.156863%,16.862746%,20.392157%);fill-opacity:1;" d="M 127.472656 80.683594 C 127.367188 80.328125 127.273438 79.859375 127.144531 79.289062 C 127.226562 79.300781 127.34375 79.414062 127.476562 79.609375 C 127.488281 79.988281 127.488281 80.28125 127.472656 80.683594 Z M 127.472656 80.683594 "/>
<path style=" stroke:none;fill-rule:nonzero;fill:rgb(13.333334%,22.745098%,30.19608%);fill-opacity:1;" d="M 110.570312 62.207031 C 110.425781 62.164062 110.273438 62.035156 110.085938 61.839844 C 110.222656 61.886719 110.394531 62.003906 110.570312 62.207031 Z M 110.570312 62.207031 "/>
<path style=" stroke:none;fill-rule:nonzero;fill:rgb(30.19608%,70.588237%,88.235295%);fill-opacity:1;" d="M 98.050781 41.511719 C 98.054688 41.511719 97.984375 41.464844 97.984375 41.464844 C 97.984375 41.464844 98.035156 41.480469 98.039062 41.5 C 98.039062 41.523438 98.046875 41.515625 98.050781 41.511719 Z M 98.050781 41.511719 "/>
<path style=" stroke:none;fill-rule:nonzero;fill:rgb(30.19608%,71.372551%,89.411765%);fill-opacity:1;" d="M 92.421875 35.609375 C 92.382812 35.578125 92.339844 35.554688 92.292969 35.527344 C 92.320312 35.535156 92.347656 35.539062 92.394531 35.585938 C 92.414062 35.625 92.421875 35.617188 92.421875 35.609375 Z M 92.421875 35.609375 "/>
<path style=" stroke:none;fill-rule:nonzero;fill:rgb(30.588236%,72.156864%,90.588236%);fill-opacity:1;" d="M 86.015625 84.054688 C 86.132812 83.921875 86.1875 83.855469 86.25 83.796875 C 87.738281 82.347656 87.5 82.160156 89.023438 83.808594 C 90.46875 85.367188 91.996094 86.851562 93.515625 88.34375 C 94.011719 88.828125 94.257812 89.25 93.671875 89.832031 C 92.105469 91.390625 90.554688 92.964844 88.964844 94.566406 C 87.34375 92.984375 85.710938 91.507812 84.214844 89.90625 C 82.304688 87.863281 82.351562 87.824219 84.371094 85.78125 C 84.910156 85.238281 85.429688 84.675781 86.015625 84.054688 M 87.066406 90.316406 C 88.296875 89.050781 89.53125 87.78125 90.792969 86.480469 C 89.71875 85.445312 88.753906 84.515625 87.988281 83.773438 C 86.496094 85.175781 85.015625 86.558594 83.382812 88.09375 C 84.292969 88.941406 85.136719 89.777344 86.046875 90.53125 C 86.214844 90.667969 86.644531 90.484375 87.066406 90.316406 M 88.707031 93 C 88.929688 92.976562 89.160156 92.917969 89.382812 92.933594 C 90.667969 93.003906 89.789062 91.980469 90.050781 91.527344 C 90.09375 91.449219 89.660156 90.917969 89.398438 90.875 C 89.03125 90.8125 88.28125 91.011719 88.28125 91.097656 C 88.28125 91.710938 88.429688 92.324219 88.707031 93 Z M 88.707031 93 "/>
<path style=" stroke:none;fill-rule:nonzero;fill:rgb(94.509804%,57.254905%,9.803922%);fill-opacity:1;" d="M 140.96875 92.148438 C 140.332031 92.277344 139.890625 92.355469 139.785156 91.558594 C 139.40625 88.691406 138.964844 85.835938 138.519531 82.78125 C 144.027344 83.019531 149.4375 83.257812 154.820312 83.496094 C 154.675781 86.019531 154.535156 88.414062 154.402344 90.6875 C 150.015625 91.160156 145.546875 91.640625 140.96875 92.148438 Z M 140.96875 92.148438 "/>
<path style=" stroke:none;fill-rule:nonzero;fill:rgb(13.333334%,22.745098%,30.19608%);fill-opacity:1;" d="M 128.8125 93 C 128.761719 92.984375 128.746094 92.941406 128.738281 92.828125 C 128.78125 92.828125 128.816406 92.898438 128.8125 93 Z M 128.8125 93 "/>
<path style=" stroke:none;fill-rule:nonzero;fill:rgb(8.627451%,25.098041%,39.607844%);fill-opacity:1;" d="M 87.011719 90.382812 C 86.644531 90.484375 86.214844 90.667969 86.046875 90.53125 C 85.136719 89.777344 84.292969 88.941406 83.382812 88.09375 C 85.015625 86.558594 86.496094 85.175781 87.988281 83.773438 C 88.753906 84.515625 89.71875 85.445312 90.792969 86.480469 C 89.53125 87.78125 88.296875 89.050781 87.011719 90.382812 Z M 87.011719 90.382812 "/>
<path style=" stroke:none;fill-rule:nonzero;fill:rgb(9.803922%,24.705882%,37.64706%);fill-opacity:1;" d="M 88.621094 92.96875 C 88.429688 92.324219 88.28125 91.710938 88.28125 91.097656 C 88.28125 91.011719 89.03125 90.8125 89.398438 90.875 C 89.660156 90.917969 90.09375 91.449219 90.050781 91.527344 C 89.789062 91.980469 90.667969 93.003906 89.382812 92.933594 C 89.160156 92.917969 88.929688 92.976562 88.621094 92.96875 Z M 88.621094 92.96875 "/>
</g>
</svg>
