<?xml version="1.0" encoding="UTF-8"?>
<!-- Generator: visioncortex VTracer 0.6.12 -->
<svg version="1.1" xmlns="http://www.w3.org/2000/svg" width="256" height="256">
<path d="M0 0 C0.611 -0.006 0.611 -0.006 3.702 -0.038 C5.013 -0.036 6.325 -0.033 7.676 -0.03 C9.045 -0.034 10.413 -0.039 11.782 -0.045 C14.646 -0.054 17.509 -0.052 20.373 -0.042 C24.033 -0.031 27.691 -0.051 31.351 -0.08 C34.176 -0.098 37.001 -0.098 39.826 -0.092 C41.828 -0.092 43.83 -0.109 45.832 -0.126 C57.455 -0.037 57.455 -0.037 61.836 4.404 C62.001 5.064 62.001 5.064 62.836 8.404 C91.876 8.404 120.916 8.404 150.836 8.404 C151.496 6.754 152.156 5.104 152.836 3.404 C156.509 0.473 159.371 0.023 164 0 C165.222 -0.013 166.443 -0.025 167.702 -0.038 C169.013 -0.036 170.325 -0.033 171.676 -0.03 C173.045 -0.034 174.413 -0.039 175.782 -0.045 C178.646 -0.054 181.509 -0.052 184.373 -0.042 C188.033 -0.031 191.691 -0.051 195.351 -0.08 C198.176 -0.098 201.001 -0.098 203.826 -0.092 C205.828 -0.092 207.83 -0.109 209.832 -0.126 C214.679 -0.089 218.764 0.011 223.334 1.685 C231.461 10.517 232.722 20.133 232.628 31.697 C232.638 33.195 232.651 34.693 232.665 36.19 C232.697 40.224 232.69 44.256 232.675 48.29 C232.666 51.672 232.676 55.054 232.685 58.435 C232.708 66.421 232.701 74.406 232.673 82.391 C232.646 90.597 232.665 98.803 232.708 107.009 C232.744 114.085 232.753 121.161 232.739 128.238 C232.731 132.451 232.732 136.663 232.76 140.876 C232.784 144.84 232.774 148.803 232.738 152.767 C232.73 154.212 232.734 155.656 232.751 157.1 C232.864 167.391 231.188 175.116 224.836 183.404 C220.971 186.181 218.42 186.784 213.672 186.808 C212.451 186.821 211.229 186.833 209.971 186.847 C208.659 186.844 207.348 186.841 205.996 186.838 C204.628 186.842 203.259 186.848 201.891 186.854 C199.027 186.862 196.163 186.86 193.299 186.85 C189.64 186.839 185.981 186.859 182.321 186.888 C179.496 186.906 176.671 186.906 173.846 186.9 C171.844 186.9 169.842 186.917 167.841 186.934 C156.218 186.845 156.218 186.845 151.836 182.404 C151.506 181.084 151.176 179.764 150.836 178.404 C121.796 178.404 92.756 178.404 62.836 178.404 C62.176 180.054 61.516 181.704 60.836 183.404 C57.163 186.335 54.301 186.785 49.672 186.808 C49.062 186.814 49.062 186.814 45.971 186.847 C44.659 186.844 43.348 186.841 41.996 186.838 C40.628 186.842 39.259 186.848 37.891 186.854 C35.027 186.862 32.163 186.86 29.299 186.85 C25.64 186.839 21.981 186.859 18.321 186.888 C15.496 186.906 12.671 186.906 9.846 186.9 C7.844 186.9 5.842 186.917 3.841 186.934 C-1.007 186.897 -5.091 186.797 -9.662 185.123 C-17.788 176.291 -19.05 166.675 -18.956 155.111 C-18.966 153.613 -18.978 152.116 -18.993 150.618 C-19.024 146.584 -19.018 142.552 -19.003 138.518 C-18.993 135.136 -19.003 131.755 -19.013 128.373 C-19.036 120.387 -19.028 112.402 -19.001 104.417 C-18.973 96.211 -18.993 88.006 -19.036 79.799 C-19.072 72.723 -19.08 65.647 -19.066 58.57 C-19.058 54.357 -19.06 50.145 -19.087 45.932 C-19.112 41.968 -19.101 38.005 -19.065 34.041 C-19.058 32.597 -19.062 31.152 -19.079 29.708 C-19.192 19.417 -17.515 11.692 -11.164 3.404 C-7.298 0.627 -4.748 0.024 0 0 Z " fill="#B1B2B1" transform="translate(21.163818359375,34.595947265625)"/>
<path d="M0 0 C0.611 -0.006 0.611 -0.006 3.702 -0.038 C5.013 -0.036 6.325 -0.033 7.676 -0.03 C9.045 -0.034 10.413 -0.039 11.782 -0.045 C14.646 -0.054 17.509 -0.052 20.373 -0.042 C24.033 -0.031 27.691 -0.051 31.351 -0.08 C34.176 -0.098 37.001 -0.098 39.826 -0.092 C41.828 -0.092 43.83 -0.109 45.832 -0.126 C57.455 -0.037 57.455 -0.037 61.836 4.404 C62.001 5.064 62.001 5.064 62.836 8.404 C91.876 8.404 120.916 8.404 150.836 8.404 C151.496 6.754 152.156 5.104 152.836 3.404 C156.509 0.473 159.371 0.023 164 0 C165.222 -0.013 166.443 -0.025 167.702 -0.038 C169.013 -0.036 170.325 -0.033 171.676 -0.03 C173.045 -0.034 174.413 -0.039 175.782 -0.045 C178.646 -0.054 181.509 -0.052 184.373 -0.042 C188.033 -0.031 191.691 -0.051 195.351 -0.08 C198.176 -0.098 201.001 -0.098 203.826 -0.092 C205.828 -0.092 207.83 -0.109 209.832 -0.126 C214.679 -0.089 218.764 0.011 223.334 1.685 C231.461 10.517 232.722 20.133 232.628 31.697 C232.638 33.195 232.651 34.693 232.665 36.19 C232.697 40.224 232.69 44.256 232.675 48.29 C232.666 51.672 232.676 55.054 232.685 58.435 C232.708 66.421 232.701 74.406 232.673 82.391 C232.646 90.597 232.665 98.803 232.708 107.009 C232.744 114.085 232.753 121.161 232.739 128.238 C232.731 132.451 232.732 136.663 232.76 140.876 C232.784 144.84 232.774 148.803 232.738 152.767 C232.73 154.212 232.734 155.656 232.751 157.1 C232.864 167.391 231.188 175.116 224.836 183.404 C220.971 186.181 218.42 186.784 213.672 186.808 C212.451 186.821 211.229 186.833 209.971 186.847 C208.659 186.844 207.348 186.841 205.996 186.838 C204.628 186.842 203.259 186.848 201.891 186.854 C199.027 186.862 196.163 186.86 193.299 186.85 C189.64 186.839 185.981 186.859 182.321 186.888 C179.496 186.906 176.671 186.906 173.846 186.9 C171.844 186.9 169.842 186.917 167.841 186.934 C156.218 186.845 156.218 186.845 151.836 182.404 C151.506 181.084 151.176 179.764 150.836 178.404 C121.796 178.404 92.756 178.404 62.836 178.404 C62.176 180.054 61.516 181.704 60.836 183.404 C57.163 186.335 54.301 186.785 49.672 186.808 C49.062 186.814 49.062 186.814 45.971 186.847 C44.659 186.844 43.348 186.841 41.996 186.838 C40.628 186.842 39.259 186.848 37.891 186.854 C35.027 186.862 32.163 186.86 29.299 186.85 C25.64 186.839 21.981 186.859 18.321 186.888 C15.496 186.906 12.671 186.906 9.846 186.9 C7.844 186.9 5.842 186.917 3.841 186.934 C-1.007 186.897 -5.091 186.797 -9.662 185.123 C-17.788 176.291 -19.05 166.675 -18.956 155.111 C-18.966 153.613 -18.978 152.116 -18.993 150.618 C-19.024 146.584 -19.018 142.552 -19.003 138.518 C-18.993 135.136 -19.003 131.755 -19.013 128.373 C-19.036 120.387 -19.028 112.402 -19.001 104.417 C-18.973 96.211 -18.993 88.006 -19.036 79.799 C-19.072 72.723 -19.08 65.647 -19.066 58.57 C-19.058 54.357 -19.06 50.145 -19.087 45.932 C-19.112 41.968 -19.101 38.005 -19.065 34.041 C-19.058 32.597 -19.062 31.152 -19.079 29.708 C-19.192 19.417 -17.515 11.692 -11.164 3.404 C-7.298 0.627 -4.748 0.024 0 0 Z M-5.164 9.404 C-5.164 12.044 -5.164 14.684 -5.164 17.404 C-6.484 17.404 -7.804 17.404 -9.164 17.404 C-9.164 67.564 -9.164 117.724 -9.164 169.404 C-7.844 169.404 -6.524 169.404 -5.164 169.404 C-5.164 172.044 -5.164 174.684 -5.164 177.404 C14.636 177.404 34.436 177.404 54.836 177.404 C54.836 174.764 54.836 172.124 54.836 169.404 C89.156 169.404 123.476 169.404 158.836 169.404 C159.166 161.484 159.496 153.564 159.836 145.404 C162.146 142.764 164.456 140.124 166.836 137.404 C171.836 138.404 171.836 138.404 174.836 139.404 C174.506 140.023 174.176 140.642 173.836 141.279 C172.074 146.786 172.103 152.161 173.899 157.654 C177.012 162.073 180.658 165.678 185.836 167.404 C192.08 168.18 196.905 167.753 202.074 164.01 C205.888 160.534 208.412 157.042 209.242 151.877 C209.43 146.692 208.886 142.733 205.836 138.404 C201.293 133.839 197.744 131.298 191.149 131.029 C186.162 131.036 183.562 132.505 179.59 135.353 C177.836 136.404 177.836 136.404 174.961 136.279 C172.836 135.404 172.836 135.404 170.836 134.404 C171.429 130.4 172.733 127.542 174.711 124.029 C182.749 108.165 183.256 88.11 178.16 71.189 C174.369 59.838 168.321 49.889 159.836 41.404 C159.506 33.484 159.176 25.564 158.836 17.404 C124.516 17.404 90.196 17.404 54.836 17.404 C54.836 14.764 54.836 12.124 54.836 9.404 C35.036 9.404 15.236 9.404 -5.164 9.404 Z " fill="#A5A5A5" transform="translate(21.163818359375,34.595947265625)"/>
<path d="M0 0 C19.8 0 39.6 0 60 0 C60 2.64 60 5.28 60 8 C94.32 8 128.64 8 164 8 C164.33 15.92 164.66 23.84 165 32 C168.562 37.125 168.562 37.125 170.738 38.965 C179.015 46.413 182.63 58.517 185 69 C185.191 69.779 185.382 70.557 185.578 71.359 C188.169 87.576 186.02 105.939 177.172 119.934 C176 122 176 122 176 125 C179 127 179 127 181.25 126.875 C184 126 184 126 187.188 123.938 C191.646 121.27 195.944 121.329 201 122 C206.445 123.78 209.782 127.388 213 132 C214.668 137.003 215.02 142.246 213.164 147.258 C210.287 152.336 206.499 155.934 201 158 C195.083 158.951 189.988 158.514 185 155 C180.331 150.353 177.864 146.88 177.812 140.125 C177.84 136.32 178.177 133.419 180 130 C176.195 128.203 175.294 127.927 171 129 C165 136 165 136 164 160 C129.68 160 95.36 160 60 160 C60 162.64 60 165.28 60 168 C40.2 168 20.4 168 0 168 C0 165.36 0 162.72 0 160 C-1.32 160 -2.64 160 -4 160 C-4 109.84 -4 59.68 -4 8 C-2.68 8 -1.36 8 0 8 C0 5.36 0 2.72 0 0 Z M54.688 39.812 C43.123 55.079 38.223 73.042 40 92 C40.648 96.474 41.661 100.685 43 105 C43.329 106.067 43.657 107.135 43.996 108.234 C49.817 125.071 62.058 139.867 78 148 C97.8 156.84 117.276 159.296 138.07 151.523 C146.44 148.196 153.362 144.182 160 138 C160.682 137.408 161.364 136.817 162.066 136.207 C175.537 123.844 183.08 106.137 184.254 88.098 C185.021 67.987 178.596 50.04 165 35 C164.374 34.292 163.747 33.585 163.102 32.855 C150.293 19.184 131.912 12.289 113.416 11.595 C89.145 11.251 70.27 21.633 54.688 39.812 Z " fill="#A5A5A5" transform="translate(16,44)"/>
<path d="M0 0 C0.611 -0.006 0.611 -0.006 3.702 -0.038 C5.013 -0.036 6.325 -0.033 7.676 -0.03 C9.045 -0.034 10.413 -0.039 11.782 -0.045 C14.646 -0.054 17.509 -0.052 20.373 -0.042 C24.033 -0.031 27.691 -0.051 31.351 -0.08 C34.176 -0.098 37.001 -0.098 39.826 -0.092 C41.828 -0.092 43.83 -0.109 45.832 -0.126 C57.455 -0.037 57.455 -0.037 61.836 4.404 C62.001 5.064 62.001 5.064 62.836 8.404 C91.876 8.404 120.916 8.404 150.836 8.404 C151.496 6.754 152.156 5.104 152.836 3.404 C156.509 0.473 159.371 0.023 164 0 C165.222 -0.013 166.443 -0.025 167.702 -0.038 C169.013 -0.036 170.325 -0.033 171.676 -0.03 C173.045 -0.034 174.413 -0.039 175.782 -0.045 C178.646 -0.054 181.509 -0.052 184.373 -0.042 C188.033 -0.031 191.691 -0.051 195.351 -0.08 C198.176 -0.098 201.001 -0.098 203.826 -0.092 C205.828 -0.092 207.83 -0.109 209.832 -0.126 C214.679 -0.089 218.764 0.011 223.334 1.685 C231.461 10.517 232.722 20.133 232.628 31.697 C232.638 33.195 232.651 34.693 232.665 36.19 C232.697 40.224 232.69 44.256 232.675 48.29 C232.666 51.672 232.676 55.054 232.685 58.435 C232.708 66.421 232.701 74.406 232.673 82.391 C232.646 90.597 232.665 98.803 232.708 107.009 C232.744 114.085 232.753 121.161 232.739 128.238 C232.731 132.451 232.732 136.663 232.76 140.876 C232.784 144.84 232.774 148.803 232.738 152.767 C232.73 154.212 232.734 155.656 232.751 157.1 C232.864 167.391 231.188 175.116 224.836 183.404 C220.971 186.181 218.42 186.784 213.672 186.808 C212.451 186.821 211.229 186.833 209.971 186.847 C208.659 186.844 207.348 186.841 205.996 186.838 C204.628 186.842 203.259 186.848 201.891 186.854 C199.027 186.862 196.163 186.86 193.299 186.85 C189.64 186.839 185.981 186.859 182.321 186.888 C179.496 186.906 176.671 186.906 173.846 186.9 C171.844 186.9 169.842 186.917 167.841 186.934 C156.218 186.845 156.218 186.845 151.836 182.404 C151.506 181.084 151.176 179.764 150.836 178.404 C121.796 178.404 92.756 178.404 62.836 178.404 C62.176 180.054 61.516 181.704 60.836 183.404 C57.163 186.335 54.301 186.785 49.672 186.808 C49.062 186.814 49.062 186.814 45.971 186.847 C44.659 186.844 43.348 186.841 41.996 186.838 C40.628 186.842 39.259 186.848 37.891 186.854 C35.027 186.862 32.163 186.86 29.299 186.85 C25.64 186.839 21.981 186.859 18.321 186.888 C15.496 186.906 12.671 186.906 9.846 186.9 C7.844 186.9 5.842 186.917 3.841 186.934 C-1.007 186.897 -5.091 186.797 -9.662 185.123 C-17.788 176.291 -19.05 166.675 -18.956 155.111 C-18.966 153.613 -18.978 152.116 -18.993 150.618 C-19.024 146.584 -19.018 142.552 -19.003 138.518 C-18.993 135.136 -19.003 131.755 -19.013 128.373 C-19.036 120.387 -19.028 112.402 -19.001 104.417 C-18.973 96.211 -18.993 88.006 -19.036 79.799 C-19.072 72.723 -19.08 65.647 -19.066 58.57 C-19.058 54.357 -19.06 50.145 -19.087 45.932 C-19.112 41.968 -19.101 38.005 -19.065 34.041 C-19.058 32.597 -19.062 31.152 -19.079 29.708 C-19.192 19.417 -17.515 11.692 -11.164 3.404 C-7.298 0.627 -4.748 0.024 0 0 Z M-5.164 9.404 C-5.164 12.044 -5.164 14.684 -5.164 17.404 C-6.484 17.404 -7.804 17.404 -9.164 17.404 C-9.164 67.564 -9.164 117.724 -9.164 169.404 C-7.844 169.404 -6.524 169.404 -5.164 169.404 C-5.164 172.044 -5.164 174.684 -5.164 177.404 C14.636 177.404 34.436 177.404 54.836 177.404 C54.836 174.764 54.836 172.124 54.836 169.404 C89.156 169.404 123.476 169.404 158.836 169.404 C158.836 172.044 158.836 174.684 158.836 177.404 C178.636 177.404 198.436 177.404 218.836 177.404 C218.836 174.764 218.836 172.124 218.836 169.404 C220.156 169.404 221.476 169.404 222.836 169.404 C222.836 119.244 222.836 69.084 222.836 17.404 C221.516 17.404 220.196 17.404 218.836 17.404 C218.836 14.764 218.836 12.124 218.836 9.404 C199.036 9.404 179.236 9.404 158.836 9.404 C158.836 12.044 158.836 14.684 158.836 17.404 C124.516 17.404 90.196 17.404 54.836 17.404 C54.836 14.764 54.836 12.124 54.836 9.404 C35.036 9.404 15.236 9.404 -5.164 9.404 Z " fill="#FCFCFC" transform="translate(21.163818359375,34.595947265625)"/>
<path d="M0 0 C34.32 0 68.64 0 104 0 C104.33 7.92 104.66 15.84 105 24 C108.562 29.125 108.562 29.125 110.738 30.965 C119.015 38.413 122.63 50.517 125 61 C125.191 61.779 125.382 62.557 125.578 63.359 C128.169 79.576 126.02 97.939 117.172 111.934 C116 114 116 114 116 117 C119 119 119 119 121.25 118.875 C124 118 124 118 127.188 115.938 C131.646 113.27 135.944 113.329 141 114 C146.445 115.78 149.782 119.388 153 124 C154.668 129.003 155.02 134.246 153.164 139.258 C150.287 144.336 146.499 147.934 141 150 C135.083 150.951 129.988 150.514 125 147 C120.331 142.353 117.864 138.88 117.812 132.125 C117.84 128.32 118.177 125.419 120 122 C116.195 120.203 115.294 119.927 111 121 C105 128 105 128 104 152 C69.68 152 35.36 152 0 152 C-0.165 148.04 -0.165 148.04 -1 128 C-3.873 123.812 -5.376 122.003 -9 119 C-20.941 103.587 -24.03 82.552 -21.716 63.683 C-19.12 48.521 -11.868 34.868 -1 24 C-0.67 16.08 -0.34 8.16 0 0 Z M-5.312 31.812 C-16.877 47.079 -21.777 65.042 -20 84 C-19.352 88.474 -18.339 92.685 -17 97 C-16.671 98.067 -16.343 99.135 -16.004 100.234 C-10.183 117.071 2.058 131.867 18 140 C37.8 148.84 57.276 151.296 78.07 143.523 C86.44 140.196 93.362 136.182 100 130 C100.682 129.408 101.364 128.817 102.066 128.207 C115.537 115.844 123.08 98.137 124.254 80.098 C125.021 59.987 118.596 42.04 105 27 C104.374 26.292 103.747 25.585 103.102 24.855 C90.293 11.184 71.912 4.289 53.416 3.595 C29.145 3.251 10.27 13.633 -5.312 31.812 Z " fill="#979797" transform="translate(76,52)"/>
<path d="M0 0 C4.419 3.113 8.024 6.759 9.75 11.938 C10.527 18.188 10.075 22.975 6.383 28.176 C3.633 31.142 0.457 33.324 -3.25 34.938 C-4.24 34.938 -5.23 34.938 -6.25 34.938 C-6.25 38.238 -6.25 41.537 -6.25 44.938 C-7.57 44.938 -8.89 44.938 -10.25 44.938 C-10.25 41.637 -10.25 38.338 -10.25 34.938 C-11.075 34.917 -11.9 34.896 -12.75 34.875 C-18.413 33.358 -22.575 29.519 -25.75 24.625 C-26.871 18.597 -27.344 13.125 -24.25 7.625 C-18.111 -0.853 -9.895 -3.235 0 0 Z " fill="#969696" transform="translate(52.25,167.0625)"/>
<path d="M0 0 C2.64 1.98 5.28 3.96 8 6 C13.734 10.021 19.725 12.847 26.25 15.312 C26.924 15.567 27.597 15.822 28.291 16.084 C45.891 22.473 65.547 19.293 82.29 11.913 C88.252 9.109 93.066 5.341 98 1 C98.66 0.67 99.32 0.34 100 0 C100 7.92 100 15.84 100 24 C67 24 34 24 0 24 C0 16.08 0 8.16 0 0 Z " fill="#999999" transform="translate(78,180)"/>
<path d="M0 0 C33 0 66 0 100 0 C100 0.33 100 0.66 100 1 C98.706 1.02 97.412 1.04 96.079 1.06 C91.183 1.137 86.286 1.226 81.39 1.317 C79.289 1.355 77.188 1.39 75.087 1.422 C64.498 1.584 53.961 1.834 43.422 2.93 C42.667 3.008 41.912 3.086 41.135 3.167 C26.814 4.811 13.712 10.467 2.645 19.68 C1 21 1 21 0 21 C0 14.07 0 7.14 0 0 Z " fill="#9A9A9A" transform="translate(78,52)"/>
<path d="M0 0 C0.66 0 1.32 0 2 0 C1.988 0.68 1.977 1.36 1.965 2.06 C1.914 7.419 1.986 12.762 2.277 18.113 C2.329 19.117 2.38 20.12 2.433 21.154 C3.293 25.473 5.417 28.156 8.738 30.965 C17.015 38.413 20.63 50.517 23 61 C23.191 61.779 23.382 62.557 23.578 63.359 C26.169 79.576 24.02 97.939 15.172 111.934 C14 114 14 114 14 117 C16.5 119.687 16.5 119.687 19 122 C18.443 121.856 17.886 121.711 17.312 121.562 C14.886 120.972 12.45 120.483 10 120 C5.223 124.178 2.575 127.576 2.098 134.031 C2.052 136.187 2.041 138.344 2.062 140.5 C2.046 141.609 2.03 142.717 2.014 143.859 C1.979 146.574 1.975 149.285 2 152 C1.34 152 0.68 152 0 152 C-0.235 148.022 -0.375 144.045 -0.5 140.062 C-0.567 138.946 -0.634 137.829 -0.703 136.678 C-0.85 130.402 -0.457 126.741 3.832 121.98 C4.533 121.318 5.234 120.656 5.956 119.973 C17.284 109.036 21.093 90.933 21.375 75.812 C21.319 56.502 13.694 38.694 0 25 C-0.227 22.478 -0.227 22.478 -0.195 19.336 C-0.192 18.775 -0.192 18.775 -0.176 15.938 C-0.167 15.35 -0.167 15.35 -0.125 12.375 C-0.12 11.783 -0.12 11.783 -0.098 8.789 C-0.074 5.859 -0.041 2.93 0 0 Z " fill="#858585" transform="translate(178,52)"/>
<path d="M0 0 C0.66 0 1.32 0 2 0 C2.235 3.978 2.375 7.955 2.5 11.938 C2.534 12.496 2.534 12.496 2.703 15.322 C2.849 21.532 2.501 25.204 -1.766 29.898 C-3.175 31.268 -4.586 32.635 -6 34 C-12.343 42.395 -15.702 51.834 -18 62 C-18.192 62.793 -18.384 63.586 -18.582 64.402 C-20.335 75.295 -19.25 86.526 -16 97 C-15.671 98.067 -15.343 99.135 -15.004 100.234 C-11.953 109.061 -7.105 118.632 0.112 124.807 C2.557 127.647 2.466 129.155 2.391 132.859 C2.378 133.974 2.365 135.089 2.352 136.238 C2.318 137.397 2.285 138.556 2.25 139.75 C2.232 140.924 2.214 142.099 2.195 143.309 C2.148 146.207 2.082 149.103 2 152 C1.34 152 0.68 152 0 152 C0.012 151.32 0.023 150.64 0.035 149.94 C0.246 127.747 0.246 127.747 -4.688 122.625 C-6.117 121.407 -7.554 120.198 -9 119 C-20.941 103.587 -24.03 82.552 -21.716 63.683 C-19.12 48.521 -11.868 34.868 -1 24 C-0.681 21.57 -0.681 21.57 -0.586 18.555 C-0.547 17.478 -0.509 16.402 -0.469 15.293 C-0.453 14.729 -0.453 14.729 -0.375 11.875 C-0.336 10.739 -0.298 9.604 -0.258 8.434 C-0.163 5.623 -0.078 2.812 0 0 Z " fill="#858585" transform="translate(76,52)"/>
<path d="M0 0 C3.341 0.03 4.227 0.298 7.188 2.188 C9.854 4.935 10.208 5.759 10.5 9.625 C10.235 13.539 9.617 15.244 7.25 18.312 C3.565 20.769 0.53 21.013 -3.75 20.312 C-6.56 18.519 -8.259 17.294 -9.75 14.312 C-10.257 9.158 -10.257 9.158 -9.75 6.312 C-7.312 3.375 -7.312 3.375 -4.75 1.312 C-3.75 0.312 -3.75 0.312 0 0 Z " fill="#969696" transform="translate(35.75,137.6875)"/>
<path d="M0 0 C0.165 0.495 0.165 0.495 1 3 C-15.477 17.616 -34.317 23.338 -56.038 22.15 C-60.074 21.841 -64.198 21.456 -68 20 C-68.33 19.34 -68.66 18.68 -69 18 C-67.721 18.165 -66.442 18.33 -65.125 18.5 C-43.875 20.547 -22.307 18.327 -5.062 4.625 C-3.325 3.122 -1.624 1.624 0 0 Z " fill="#8F8F8F" transform="translate(177,180)"/>
<path d="M0 0 C0.382 -0.006 0.382 -0.006 2.316 -0.037 C7.576 -0.051 12.069 0.731 17.125 2.188 C17.125 2.517 17.125 2.847 17.125 3.188 C16.391 3.167 15.657 3.146 14.9 3.124 C-8.577 2.543 -29.762 3.921 -47.652 20.938 C-48.056 21.35 -48.459 21.763 -48.875 22.188 C-49.205 21.198 -49.535 20.207 -49.875 19.188 C-35.622 6.763 -18.952 0.016 0 0 Z " fill="#8F8F8F" transform="translate(127.875,53.8125)"/>
<path d="M0 0 C1.32 0 2.64 0 4 0 C4 6.6 4 13.2 4 20 C2.68 20 1.36 20 0 20 C0 13.4 0 6.8 0 0 Z " fill="#8A8A8A" transform="translate(240,184)"/>
<path d="M0 0 C1.32 0 2.64 0 4 0 C4 6.6 4 13.2 4 20 C2.68 20 1.36 20 0 20 C0 13.4 0 6.8 0 0 Z " fill="#8A8A8A" transform="translate(12,184)"/>
<path d="M0 0 C11.533 1.214 22.858 7.858 31 16 C30.67 16.99 30.34 17.98 30 19 C29.608 18.588 29.216 18.175 28.812 17.75 C22.662 11.811 15.511 8.482 7.866 4.885 C5.223 3.632 2.611 2.318 0 1 C0 0.67 0 0.34 0 0 Z " fill="#909090" transform="translate(147,57)"/>
<path d="M0 0 C-1.277 2.553 -2.209 2.591 -4.812 3.625 C-8.95 5.619 -10.545 7.717 -12.324 11.895 C-13.304 14.947 -13.734 17.807 -14 21 C-14.66 20.67 -15.32 20.34 -16 20 C-16.361 9.721 -16.361 9.721 -14 5 C-4.898 -1.633 -4.898 -1.633 0 0 Z " fill="#8F8F8F" transform="translate(210,167)"/>
<path d="M0 0 C0.33 0 0.66 0 1 0 C1.635 6.093 1.067 10.207 -2.504 15.266 C-4.733 17.85 -6.941 19.503 -10 21 C-12.184 20.59 -12.184 20.59 -14 20 C-13.385 19.648 -12.77 19.296 -12.137 18.934 C-6.699 15.612 -3.888 13.329 -2 7 C-1.799 6.34 -1.598 5.68 -1.391 5 C-0.896 3.342 -0.444 1.672 0 0 Z " fill="#8F8F8F" transform="translate(229,180)"/>
<path d="M0 0 C0.33 0 0.66 0 1 0 C1.635 6.093 1.067 10.207 -2.504 15.266 C-4.733 17.85 -6.941 19.503 -10 21 C-12.184 20.59 -12.184 20.59 -14 20 C-13.385 19.648 -12.77 19.296 -12.137 18.934 C-6.699 15.612 -3.888 13.329 -2 7 C-1.799 6.34 -1.598 5.68 -1.391 5 C-0.896 3.342 -0.444 1.672 0 0 Z " fill="#8F8F8F" transform="translate(61,180)"/>
<path d="M0 0 C1.32 0 2.64 0 4 0 C4 3.96 4 7.92 4 12 C2.68 12 1.36 12 0 12 C0 8.04 0 4.08 0 0 Z " fill="#8A8A8A" transform="translate(240,168)"/>
<path d="M0 0 C1.32 0 2.64 0 4 0 C4 3.96 4 7.92 4 12 C2.68 12 1.36 12 0 12 C0 8.04 0 4.08 0 0 Z " fill="#8A8A8A" transform="translate(12,168)"/>
<path d="M0 0 C1.32 0 2.64 0 4 0 C4 3.96 4 7.92 4 12 C2.68 12 1.36 12 0 12 C0 8.04 0 4.08 0 0 Z " fill="#8A8A8A" transform="translate(240,152)"/>
<path d="M0 0 C1.32 0 2.64 0 4 0 C4 3.96 4 7.92 4 12 C2.68 12 1.36 12 0 12 C0 8.04 0 4.08 0 0 Z " fill="#8A8A8A" transform="translate(12,152)"/>
<path d="M0 0 C1.32 0 2.64 0 4 0 C4 3.96 4 7.92 4 12 C2.68 12 1.36 12 0 12 C0 8.04 0 4.08 0 0 Z " fill="#8A8A8A" transform="translate(240,136)"/>
<path d="M0 0 C1.32 0 2.64 0 4 0 C4 3.96 4 7.92 4 12 C2.68 12 1.36 12 0 12 C0 8.04 0 4.08 0 0 Z " fill="#8A8A8A" transform="translate(12,136)"/>
<path d="M0 0 C1.32 0 2.64 0 4 0 C4 3.96 4 7.92 4 12 C2.68 12 1.36 12 0 12 C0 8.04 0 4.08 0 0 Z " fill="#8A8A8A" transform="translate(240,120)"/>
<path d="M0 0 C1.32 0 2.64 0 4 0 C4 3.96 4 7.92 4 12 C2.68 12 1.36 12 0 12 C0 8.04 0 4.08 0 0 Z " fill="#8A8A8A" transform="translate(12,120)"/>
<path d="M0 0 C1.32 0 2.64 0 4 0 C4 3.96 4 7.92 4 12 C2.68 12 1.36 12 0 12 C0 8.04 0 4.08 0 0 Z " fill="#8A8A8A" transform="translate(240,104)"/>
<path d="M0 0 C1.32 0 2.64 0 4 0 C4 3.96 4 7.92 4 12 C2.68 12 1.36 12 0 12 C0 8.04 0 4.08 0 0 Z " fill="#8A8A8A" transform="translate(12,104)"/>
<path d="M0 0 C1.32 0 2.64 0 4 0 C4 3.96 4 7.92 4 12 C2.68 12 1.36 12 0 12 C0 8.04 0 4.08 0 0 Z " fill="#8A8A8A" transform="translate(240,88)"/>
<path d="M0 0 C1.32 0 2.64 0 4 0 C4 3.96 4 7.92 4 12 C2.68 12 1.36 12 0 12 C0 8.04 0 4.08 0 0 Z " fill="#8A8A8A" transform="translate(12,88)"/>
<path d="M0 0 C1.32 0 2.64 0 4 0 C4 3.96 4 7.92 4 12 C2.68 12 1.36 12 0 12 C0 8.04 0 4.08 0 0 Z " fill="#8A8A8A" transform="translate(240,72)"/>
<path d="M0 0 C1.32 0 2.64 0 4 0 C4 3.96 4 7.92 4 12 C2.68 12 1.36 12 0 12 C0 8.04 0 4.08 0 0 Z " fill="#8A8A8A" transform="translate(12,72)"/>
<path d="M0 0 C1.32 0 2.64 0 4 0 C4 3.96 4 7.92 4 12 C2.68 12 1.36 12 0 12 C0 8.04 0 4.08 0 0 Z " fill="#8A8A8A" transform="translate(240,56)"/>
<path d="M0 0 C1.32 0 2.64 0 4 0 C4 3.96 4 7.92 4 12 C2.68 12 1.36 12 0 12 C0 8.04 0 4.08 0 0 Z " fill="#8A8A8A" transform="translate(12,56)"/>
<path d="M0 0 C0.461 0.364 0.923 0.727 1.398 1.102 C6.097 4.723 10.918 7.803 16.094 10.703 C16.723 11.131 17.352 11.559 18 12 C18 12.66 18 13.32 18 14 C14.263 13.346 11.604 11.667 8.438 9.625 C7.487 9.019 6.537 8.413 5.559 7.789 C1.611 5.029 1.611 5.029 0 3 C0 2.01 0 1.02 0 0 Z " fill="#8F8F8F" transform="translate(78,180)"/>
<path d="M0 0 C0.99 0.33 1.98 0.66 3 1 C1.625 2.5 1.625 2.5 0 4 C-0.66 4 -1.32 4 -2 4 C-2.66 6.97 -3.32 9.94 -4 13 C-4.66 12.67 -5.32 12.34 -6 12 C-6.312 9.312 -6.312 9.312 -6 6 C-3.562 3.188 -3.562 3.188 -1 1 C-0.67 0.67 -0.34 0.34 0 0 Z " fill="#8F8F8F" transform="translate(32,138)"/>
<path d="M0 0 C1.32 0 2.64 0 4 0 C4 2.64 4 5.28 4 8 C2.68 8 1.36 8 0 8 C0 5.36 0 2.72 0 0 Z " fill="#0CE80C" transform="translate(42,204)"/>
<path d="M0 0 C1.32 0 2.64 0 4 0 C4 2.64 4 5.28 4 8 C2.68 8 1.36 8 0 8 C0 5.36 0 2.72 0 0 Z " fill="#909090" transform="translate(240,196)"/>
<path d="M0 0 C1.32 0 2.64 0 4 0 C4 2.64 4 5.28 4 8 C2.68 8 1.36 8 0 8 C0 5.36 0 2.72 0 0 Z " fill="#909090" transform="translate(12,196)"/>
<path d="M0 0 C0.33 0 0.66 0 1 0 C1.321 4.604 0.992 7.389 -2 11 C-4.688 11.812 -4.688 11.812 -7 12 C-6.34 11.01 -5.68 10.02 -5 9 C-4.34 9 -3.68 9 -3 9 C-2.01 6.03 -1.02 3.06 0 0 Z " fill="#8F8F8F" transform="translate(45,145)"/>
</svg>
