<?xml version="1.0" encoding="UTF-8"?>
<!-- Generator: visioncortex VTracer 0.6.12 -->
<svg version="1.1" xmlns="http://www.w3.org/2000/svg" width="256" height="256">
<path d="M0 0 C49.5 0 99 0 150 0 C150 79.86 150 159.72 150 242 C148.68 242 147.36 242 146 242 C146 243.32 146 244.64 146 246 C140.72 246 135.44 246 130 246 C130 247.32 130 248.64 130 250 C87.1 250 44.2 250 0 250 C0 167.5 0 85 0 0 Z " fill="#333333" transform="translate(55,3)"/>
<path d="M0 0 C49.5 0 99 0 150 0 C150 79.86 150 159.72 150 242 C148.68 242 147.36 242 146 242 C146 243.32 146 244.64 146 246 C140.72 246 135.44 246 130 246 C130 247.32 130 248.64 130 250 C87.1 250 44.2 250 0 250 C0 167.5 0 85 0 0 Z M9 9 C9 85.56 9 162.12 9 241 C45.96 241 82.92 241 121 241 C121 239.68 121 238.36 121 237 C126.28 237 131.56 237 137 237 C137 235.68 137 234.36 137 233 C138.32 233 139.64 233 141 233 C141 159.08 141 85.16 141 9 C97.44 9 53.88 9 9 9 Z " fill="#FAFAFB" transform="translate(55,3)"/>
<path d="M0 0 C36.96 0 73.92 0 112 0 C112 7.92 112 15.84 112 24 C117.28 24 122.56 24 128 24 C128 25.32 128 26.64 128 28 C122.72 28 117.44 28 112 28 C112 29.32 112 30.64 112 32 C75.04 32 38.08 32 0 32 C0 21.44 0 10.88 0 0 Z " fill="#2C8ABE" transform="translate(64,212)"/>
<path d="M0 0 C5.28 0 10.56 0 16 0 C16 1.32 16 2.64 16 4 C10.72 4 5.44 4 0 4 C0 2.68 0 1.36 0 0 Z " fill="#2C688E" transform="translate(176,236)"/>
</svg>
