<?xml version="1.0" encoding="UTF-8"?>
<!-- Generator: visioncortex VTracer 0.6.12 -->
<svg version="1.1" xmlns="http://www.w3.org/2000/svg" width="256" height="256">
<path d="M0 0 C0.939 -0.005 1.878 -0.011 2.846 -0.016 C6 -0.031 9.154 -0.023 12.309 -0.016 C14.567 -0.022 16.826 -0.029 19.084 -0.037 C25.225 -0.055 31.365 -0.054 37.506 -0.048 C42.628 -0.045 47.75 -0.051 52.872 -0.057 C65.644 -0.072 78.416 -0.068 91.188 -0.056 C102.281 -0.046 113.374 -0.059 124.467 -0.083 C135.857 -0.108 147.246 -0.117 158.636 -0.111 C165.03 -0.107 171.425 -0.11 177.819 -0.127 C183.832 -0.142 189.844 -0.138 195.856 -0.12 C198.065 -0.116 200.274 -0.119 202.482 -0.13 C205.494 -0.143 208.504 -0.131 211.515 -0.114 C212.393 -0.123 213.27 -0.133 214.174 -0.143 C218.248 -0.093 220.304 0.061 223.825 2.286 C232.722 11.654 229.982 34.147 230.372 46.196 C230.382 46.521 230.382 46.521 230.436 48.165 C230.964 64.897 230.973 81.63 230.951 98.368 C230.946 102.714 230.949 107.059 230.955 111.405 C230.973 127.482 230.931 143.555 230.438 159.626 C230.423 160.2 230.423 160.2 230.346 163.108 C230.308 164.152 230.27 165.196 230.231 166.272 C230.2 167.17 230.169 168.069 230.138 168.995 C229.802 171.528 229.022 173.156 227.821 175.388 C227.55 177.966 227.55 177.966 227.512 180.853 C227.487 181.9 227.462 182.947 227.436 184.026 C227.401 186.222 227.37 188.417 227.342 190.612 C227.316 191.661 227.29 192.71 227.262 193.79 C227.249 194.744 227.235 195.698 227.222 196.68 C226.741 199.927 225.797 201.777 223.821 204.388 C221.055 206.068 218.984 206.638 215.766 206.645 C215.365 206.648 215.365 206.648 213.334 206.664 C212.458 206.661 211.582 206.658 210.68 206.655 C209.745 206.66 208.81 206.664 207.846 206.669 C204.706 206.682 201.565 206.68 198.425 206.678 C196.176 206.684 193.927 206.691 191.679 206.699 C185.565 206.716 179.452 206.721 173.338 206.722 C168.239 206.724 163.139 206.731 158.039 206.739 C146.698 206.754 135.357 206.76 124.016 206.759 C123.336 206.758 122.656 206.758 121.954 206.758 C121.614 206.758 121.614 206.758 119.89 206.758 C108.846 206.757 97.801 206.776 86.757 206.805 C75.417 206.833 64.077 206.847 52.737 206.845 C46.37 206.845 40.004 206.851 33.637 206.872 C27.651 206.891 21.665 206.891 15.679 206.877 C13.48 206.875 11.281 206.879 9.082 206.891 C6.084 206.907 3.087 206.898 0.089 206.882 C-0.785 206.892 -1.658 206.903 -2.559 206.913 C-6.624 206.867 -8.666 206.712 -12.18 204.49 C-21.083 195.126 -18.34 172.616 -18.73 160.567 C-18.751 159.917 -18.772 159.267 -18.794 158.598 C-19.32 141.925 -19.332 125.251 -19.309 108.572 C-19.304 104.254 -19.307 99.935 -19.313 95.616 C-19.409 10.045 -19.409 10.045 -11.648 1.752 C-7.861 -0.341 -4.259 -0.029 0 0 Z " fill="#343434" transform="translate(22.179061889648438,24.612319946289063)"/>
<path d="M0 0 C75.9 0 151.8 0 230 0 C230 30.36 230 60.72 230 92 C154.1 92 78.2 92 0 92 C0 61.64 0 31.28 0 0 Z " fill="#262626" transform="translate(13,72)"/>
<path d="M0 0 C0.939 -0.005 1.878 -0.011 2.846 -0.016 C6 -0.031 9.154 -0.023 12.309 -0.016 C14.567 -0.022 16.826 -0.029 19.084 -0.037 C25.225 -0.055 31.365 -0.054 37.506 -0.048 C42.628 -0.045 47.75 -0.051 52.872 -0.057 C65.644 -0.072 78.416 -0.068 91.188 -0.056 C102.281 -0.046 113.374 -0.059 124.467 -0.083 C135.857 -0.108 147.246 -0.117 158.636 -0.111 C165.03 -0.107 171.425 -0.11 177.819 -0.127 C183.832 -0.142 189.844 -0.138 195.856 -0.12 C198.065 -0.116 200.274 -0.119 202.482 -0.13 C205.494 -0.143 208.504 -0.131 211.515 -0.114 C212.393 -0.123 213.27 -0.133 214.174 -0.143 C218.248 -0.093 220.304 0.061 223.825 2.286 C232.722 11.654 229.982 34.147 230.372 46.196 C230.382 46.521 230.382 46.521 230.436 48.165 C230.964 64.897 230.973 81.63 230.951 98.368 C230.946 102.714 230.949 107.059 230.955 111.405 C230.973 127.482 230.931 143.555 230.438 159.626 C230.423 160.2 230.423 160.2 230.346 163.108 C230.308 164.152 230.27 165.196 230.231 166.272 C230.2 167.17 230.169 168.069 230.138 168.995 C229.802 171.528 229.022 173.156 227.821 175.388 C227.55 177.966 227.55 177.966 227.512 180.853 C227.487 181.9 227.462 182.947 227.436 184.026 C227.401 186.222 227.37 188.417 227.342 190.612 C227.316 191.661 227.29 192.71 227.262 193.79 C227.249 194.744 227.235 195.698 227.222 196.68 C226.741 199.927 225.797 201.777 223.821 204.388 C221.055 206.068 218.984 206.638 215.766 206.645 C215.365 206.648 215.365 206.648 213.334 206.664 C212.458 206.661 211.582 206.658 210.68 206.655 C209.745 206.66 208.81 206.664 207.846 206.669 C204.706 206.682 201.565 206.68 198.425 206.678 C196.176 206.684 193.927 206.691 191.679 206.699 C185.565 206.716 179.452 206.721 173.338 206.722 C168.239 206.724 163.139 206.731 158.039 206.739 C146.698 206.754 135.357 206.76 124.016 206.759 C123.336 206.758 122.656 206.758 121.954 206.758 C121.614 206.758 121.614 206.758 119.89 206.758 C108.846 206.757 97.801 206.776 86.757 206.805 C75.417 206.833 64.077 206.847 52.737 206.845 C46.37 206.845 40.004 206.851 33.637 206.872 C27.651 206.891 21.665 206.891 15.679 206.877 C13.48 206.875 11.281 206.879 9.082 206.891 C6.084 206.907 3.087 206.898 0.089 206.882 C-0.785 206.892 -1.658 206.903 -2.559 206.913 C-6.624 206.867 -8.666 206.712 -12.18 204.49 C-21.083 195.126 -18.34 172.616 -18.73 160.567 C-18.751 159.917 -18.772 159.267 -18.794 158.598 C-19.32 141.925 -19.332 125.251 -19.309 108.572 C-19.304 104.254 -19.307 99.935 -19.313 95.616 C-19.409 10.045 -19.409 10.045 -11.648 1.752 C-7.861 -0.341 -4.259 -0.029 0 0 Z M-7.179 9.388 C-10.098 29.82 -10.319 49.675 -10.277 70.27 C-10.275 72.714 -10.274 75.158 -10.274 77.602 C-10.268 86.572 -10.255 95.543 -10.242 104.513 C-10.221 124.601 -10.2 144.69 -10.179 165.388 C66.381 165.388 142.941 165.388 221.821 165.388 C221.862 145.505 221.903 125.623 221.946 105.138 C221.964 98.919 221.982 92.7 222.001 86.293 C222.01 78.548 222.01 78.548 222.012 74.894 C222.015 72.405 222.022 69.916 222.032 67.427 C222.207 22.932 222.207 22.932 218.821 9.388 C144.241 9.388 69.661 9.388 -7.179 9.388 Z " fill="#FBFBFB" transform="translate(22.179061889648438,24.612319946289063)"/>
<path d="M0 0 C75.9 0 151.8 0 230 0 C229.34 0.99 228.68 1.98 228 3 C227.67 11.25 227.34 19.5 227 28 C152.75 28 78.5 28 2 28 C0 10 0 10 0 0 Z " fill="#3F3F3F" transform="translate(13,194)"/>
<path d="M0 0 C37.62 0 75.24 0 114 0 C114 8.58 114 17.16 114 26 C76.71 26 39.42 26 1 26 C-1.104 17.586 0 8.673 0 0 Z " fill="#333333" transform="translate(14,195)"/>
<path d="M0 0 C75.9 0 151.8 0 230 0 C230 1.32 230 2.64 230 4 C154.1 4 78.2 4 0 4 C0 2.68 0 1.36 0 0 Z " fill="#C3C3C3" transform="translate(13,190)"/>
<path d="M0 0 C75.9 0 151.8 0 230 0 C229.34 0.99 228.68 1.98 228 3 C227.67 11.25 227.34 19.5 227 28 C152.75 28 78.5 28 2 28 C2 27.67 2 27.34 2 27 C75.92 27 149.84 27 226 27 C226 19.41 226 11.82 226 4 C189.37 4 152.74 4 115 4 C115 3.01 115 2.02 115 1 C77.38 1 39.76 1 1 1 C1 3.97 1 6.94 1 10 C0.67 10 0.34 10 0 10 C0 6.7 0 3.4 0 0 Z " fill="#4B4C4B" transform="translate(13,194)"/>
</svg>
