<?xml version="1.0" encoding="UTF-8"?>
<!-- Generator: visioncortex VTracer 0.6.12 -->
<svg version="1.1" xmlns="http://www.w3.org/2000/svg" width="256" height="256">
<path d="M0 0 C0.758 -0.003 1.516 -0.006 2.297 -0.009 C4.844 -0.018 7.391 -0.019 9.938 -0.021 C11.761 -0.025 13.584 -0.03 15.408 -0.036 C20.366 -0.049 25.325 -0.055 30.284 -0.06 C33.381 -0.063 36.478 -0.067 39.575 -0.071 C49.263 -0.085 58.951 -0.095 68.638 -0.098 C79.826 -0.103 91.014 -0.12 102.202 -0.149 C110.846 -0.171 119.491 -0.181 128.136 -0.182 C133.3 -0.184 138.465 -0.189 143.629 -0.207 C148.487 -0.224 153.346 -0.226 158.204 -0.217 C159.986 -0.216 161.769 -0.221 163.552 -0.231 C165.987 -0.243 168.421 -0.237 170.856 -0.227 C171.56 -0.235 172.264 -0.243 172.99 -0.251 C180.18 -0.179 185.299 3.041 190.47 7.746 C205.54 24.542 209.669 46.561 208.805 68.388 C207.839 82.646 200.951 99.054 190.618 109.14 C188.277 110.311 186.933 110.237 184.329 110.211 C183.469 110.221 182.61 110.231 181.724 110.242 C179.927 110.257 178.13 110.25 176.333 110.219 C169.441 110.362 169.441 110.362 166.942 112.727 C166.405 113.359 165.868 113.991 165.315 114.642 C159.369 120.066 151.943 119.087 144.383 118.983 C142.737 118.986 141.09 118.992 139.444 119 C134.989 119.015 130.535 118.986 126.081 118.949 C121.412 118.916 116.744 118.921 112.076 118.921 C104.239 118.915 96.403 118.883 88.567 118.833 C79.512 118.776 70.458 118.753 61.403 118.75 C51.753 118.748 42.102 118.722 32.452 118.688 C29.675 118.68 26.898 118.675 24.121 118.672 C19.756 118.665 15.391 118.642 11.026 118.608 C9.426 118.597 7.825 118.592 6.225 118.592 C4.038 118.591 1.851 118.572 -0.336 118.548 C-1.559 118.542 -2.782 118.536 -4.042 118.529 C-11.253 117.69 -16.548 113.274 -21.382 108.14 C-35.232 89.712 -39.827 68.449 -37.1 45.805 C-34.617 30.394 -26.595 13.329 -14.132 3.64 C-9.503 0.308 -5.573 -0.007 0 0 Z " fill="#272727" transform="translate(42.38166809082031,66.85955810546875)"/>
<path d="M0 0 C42.24 0 84.48 0 128 0 C128 22.44 128 44.88 128 68 C85.76 68 43.52 68 0 68 C0 45.56 0 23.12 0 0 Z " fill="#3F3F3F" transform="translate(64,88)"/>
<path d="M0 0 C0.758 -0.003 1.516 -0.006 2.297 -0.009 C4.844 -0.018 7.391 -0.019 9.938 -0.021 C11.761 -0.025 13.584 -0.03 15.408 -0.036 C20.366 -0.049 25.325 -0.055 30.284 -0.06 C33.381 -0.063 36.478 -0.067 39.575 -0.071 C49.263 -0.085 58.951 -0.095 68.638 -0.098 C79.826 -0.103 91.014 -0.12 102.202 -0.149 C110.846 -0.171 119.491 -0.181 128.136 -0.182 C133.3 -0.184 138.465 -0.189 143.629 -0.207 C148.487 -0.224 153.346 -0.226 158.204 -0.217 C159.986 -0.216 161.769 -0.221 163.552 -0.231 C165.987 -0.243 168.421 -0.237 170.856 -0.227 C171.56 -0.235 172.264 -0.243 172.99 -0.251 C180.18 -0.179 185.299 3.041 190.47 7.746 C205.54 24.542 209.669 46.561 208.805 68.388 C207.839 82.646 200.951 99.054 190.618 109.14 C188.277 110.311 186.933 110.237 184.329 110.211 C183.469 110.221 182.61 110.231 181.724 110.242 C179.927 110.257 178.13 110.25 176.333 110.219 C169.441 110.362 169.441 110.362 166.942 112.727 C166.405 113.359 165.868 113.991 165.315 114.642 C159.369 120.066 151.943 119.087 144.383 118.983 C142.737 118.986 141.09 118.992 139.444 119 C134.989 119.015 130.535 118.986 126.081 118.949 C121.412 118.916 116.744 118.921 112.076 118.921 C104.239 118.915 96.403 118.883 88.567 118.833 C79.512 118.776 70.458 118.753 61.403 118.75 C51.753 118.748 42.102 118.722 32.452 118.688 C29.675 118.68 26.898 118.675 24.121 118.672 C19.756 118.665 15.391 118.642 11.026 118.608 C9.426 118.597 7.825 118.592 6.225 118.592 C4.038 118.591 1.851 118.572 -0.336 118.548 C-1.559 118.542 -2.782 118.536 -4.042 118.529 C-11.253 117.69 -16.548 113.274 -21.382 108.14 C-35.232 89.712 -39.827 68.449 -37.1 45.805 C-34.617 30.394 -26.595 13.329 -14.132 3.64 C-9.503 0.308 -5.573 -0.007 0 0 Z M4.618 15.14 C1.865 16.517 -0.593 16.053 -3.604 15.971 C-13.953 15.894 -13.953 15.894 -17.952 19.383 C-19.839 22.573 -21.147 25.645 -22.382 29.14 C-22.87 30.398 -23.361 31.655 -23.854 32.91 C-31.465 53.156 -29.449 72.264 -20.979 91.914 C-20.452 92.979 -19.925 94.043 -19.382 95.14 C-19.121 95.698 -19.121 95.698 -17.804 98.519 C-15.088 101.458 -14.645 101.542 -10.862 101.769 C-9.098 101.776 -7.333 101.753 -5.569 101.703 C1.917 101.521 5.904 102.067 11.618 107.14 C11.948 107.8 12.278 108.46 12.618 109.14 C31.568 109.257 50.517 109.345 69.467 109.4 C78.266 109.425 87.065 109.46 95.863 109.518 C103.532 109.567 111.2 109.6 118.869 109.611 C122.93 109.617 126.99 109.633 131.051 109.669 C134.874 109.703 138.696 109.713 142.518 109.706 C143.921 109.707 145.323 109.717 146.725 109.736 C157.643 109.878 157.643 109.878 161.804 106.73 C162.403 105.875 163.001 105.021 163.618 104.14 C166.841 101.992 167.398 101.938 171.04 102.148 C185.012 102.538 185.012 102.538 189.353 98.762 C191.172 95.61 192.444 92.581 193.618 89.14 C193.817 88.7 193.817 88.7 194.825 86.472 C201.366 71.935 202.48 52.16 196.966 37.18 C193.916 30.302 190.8 23.413 186.618 17.14 C184.774 16.803 184.774 16.803 182.548 16.84 C181.737 16.835 180.926 16.831 180.09 16.826 C179.233 16.827 178.376 16.827 177.493 16.828 C170.714 16.681 165.912 16.417 160.798 11.515 C160.409 11.062 160.019 10.608 159.618 10.14 C157.863 8.385 155.393 8.995 153.009 8.98 C151.791 8.97 150.573 8.96 149.317 8.949 C147.955 8.943 146.592 8.937 145.229 8.932 C143.804 8.922 142.378 8.912 140.953 8.902 C136.257 8.871 131.561 8.85 126.864 8.832 C126.066 8.829 125.267 8.825 124.444 8.822 C116.91 8.791 109.376 8.764 101.843 8.747 C92.206 8.726 82.57 8.684 72.933 8.614 C66.158 8.567 59.384 8.542 52.609 8.535 C48.563 8.53 44.518 8.515 40.472 8.475 C36.661 8.439 32.851 8.43 29.04 8.444 C27.645 8.443 26.25 8.433 24.855 8.412 C16.123 8.285 10.986 9.025 4.618 15.14 Z " fill="#FCFCFC" transform="translate(42.38166809082031,66.85955810546875)"/>
<path d="M0 0 C44.88 0 89.76 0 136 0 C136 25.08 136 50.16 136 76 C91.12 76 46.24 76 0 76 C0 50.92 0 25.84 0 0 Z M4 4 C4 26.44 4 48.88 4 72 C46.24 72 88.48 72 132 72 C132 49.56 132 27.12 132 4 C89.76 4 47.52 4 4 4 Z " fill="#191919" transform="translate(60,84)"/>
<path d="M0 0 C18.98 -1.033 18.98 -1.033 24.188 2.875 C25.918 4.492 25.918 4.492 27 6 C27 6.66 27 7.32 27 8 C74.85 8 122.7 8 172 8 C172 8.33 172 8.66 172 9 C151.164 9.14 130.328 9.246 109.491 9.311 C99.816 9.342 90.141 9.384 80.466 9.453 C72.031 9.513 63.596 9.551 55.161 9.565 C50.697 9.572 46.233 9.591 41.768 9.634 C37.561 9.675 33.356 9.688 29.149 9.679 C27.609 9.68 26.07 9.692 24.53 9.715 C16.526 9.829 10.181 9.646 3.609 4.582 C2 3 2 3 0 0 Z " fill="#C5C5C5" transform="translate(28,168)"/>
<path d="M0 0 C2.062 1.562 2.062 1.562 3 4 C3.178 6.851 2.929 9.293 2 12 C-0.938 14.852 -2.536 15 -6.625 15 C-10 14 -10 14 -12 11.875 C-13.308 8.115 -13.061 5.819 -12 2 C-8.817 -2.074 -4.544 -1.386 0 0 Z " fill="#3E3E3E" transform="translate(41,145)"/>
<path d="M0 0 C18.98 -1.033 18.98 -1.033 24.188 2.875 C25.918 4.492 25.918 4.492 27 6 C27 6.66 27 7.32 27 8 C9.26 9.206 9.26 9.206 3.375 4.562 C1.336 2.629 1.336 2.629 0 1 C0 0.67 0 0.34 0 0 Z " fill="#595959" transform="translate(28,168)"/>
<path d="M0 0 C16.861 -1.071 16.861 -1.071 22.043 1.523 C23.975 3.248 25.568 4.845 27 7 C27 7.33 27 7.66 27 8 C9.089 9.033 9.089 9.033 3.938 5.125 C2.143 3.441 1.1 2.2 0 0 Z " fill="#E8E8E8" transform="translate(201,76)"/>
<path d="M0 0 C0.424 0.003 0.424 0.003 2.568 0.02 C3.009 0.028 3.009 0.028 5.238 0.07 C5.685 0.075 5.685 0.075 7.943 0.098 C10.146 0.121 12.348 0.154 14.551 0.195 C6.887 8.297 6.887 8.297 0.344 8.488 C-1.192 8.469 -2.727 8.433 -4.262 8.383 C-5.05 8.369 -5.838 8.356 -6.65 8.342 C-8.584 8.307 -10.517 8.253 -12.449 8.195 C-5.795 -0.078 -5.795 -0.078 0 0 Z " fill="#E9E9E9" transform="translate(40.44921875,75.8046875)"/>
<path d="M0 0 C2 2 2 2 2.375 4.938 C2 8 2 8 0.312 9.875 C-2.424 11.206 -3.995 11.462 -7 11 C-8.812 9.875 -8.812 9.875 -10 8 C-10.393 4.855 -10.476 2.867 -8.938 0.062 C-5.817 -1.649 -3.355 -0.793 0 0 Z " fill="#3E3E3E" transform="translate(222,131)"/>
<path d="M0 0 C1.938 1.625 1.938 1.625 3 4 C2.78 7.673 2.63 9.37 0 12 C-2.938 12.375 -2.938 12.375 -6 12 C-8.352 9.883 -8.918 8.56 -9.375 5.438 C-9 3 -9 3 -7.875 1.188 C-5.1 -0.57 -3.211 -0.468 0 0 Z " fill="#3E3E3E" transform="translate(235,116)"/>
<path d="M0 0 C2 2 2 2 2.375 4.938 C2 8 2 8 0.312 9.875 C-2.445 11.217 -3.975 11.543 -7 11 C-9.286 8.872 -9.923 7.526 -10.375 4.438 C-10 2 -10 2 -8.938 0.125 C-5.828 -1.681 -3.383 -0.8 0 0 Z " fill="#3E3E3E" transform="translate(222,103)"/>
<path d="M0 0 C2 3 2 3 1.812 6.062 C1 9 1 9 -2 11 C-4.5 11.375 -4.5 11.375 -7 11 C-9.286 8.872 -9.923 7.526 -10.375 4.438 C-10 2 -10 2 -8.938 0.125 C-5.797 -1.698 -3.401 -0.866 0 0 Z " fill="#3E3E3E" transform="translate(208,117)"/>
<path d="M0 0 C1.26 2.521 0.919 3.854 0.562 6.625 C0.461 7.442 0.359 8.26 0.254 9.102 C0.17 9.728 0.086 10.355 0 11 C-6.408 11.363 -6.408 11.363 -8.938 9.812 C-10.387 7.34 -10.423 5.821 -10 3 C-7.651 -1.007 -4.233 -0.24 0 0 Z " fill="#3D3D3D" transform="translate(51,115)"/>
<path d="M0 0 C2.438 0.812 2.438 0.812 4.438 2.812 C4.625 6.375 4.625 6.375 4.438 9.812 C3.438 10.812 3.438 10.812 1.625 10.945 C0.903 10.943 0.181 10.94 -0.562 10.938 C-1.284 10.94 -2.006 10.943 -2.75 10.945 C-4.562 10.812 -4.562 10.812 -5.562 9.812 C-6.024 3.589 -6.024 3.589 -4.375 0.812 C-2.562 -0.188 -2.562 -0.188 0 0 Z " fill="#3E3E3E" transform="translate(36.5625,125.1875)"/>
<path d="M0 0 C0.315 0.054 0.315 0.054 1.91 0.328 C3.91 3.328 3.91 3.328 3.66 5.891 C2.91 8.328 2.91 8.328 0.91 10.328 C-2.715 10.453 -2.715 10.453 -6.09 10.328 C-6.284 8.85 -6.47 7.37 -6.652 5.891 C-6.757 5.067 -6.861 4.243 -6.969 3.395 C-7.009 2.713 -7.049 2.031 -7.09 1.328 C-5.199 -0.563 -2.519 0.091 0 0 Z " fill="#3E3E3E" transform="translate(27.08984375,115.671875)"/>
<path d="M0 0 C0.722 0.003 1.444 0.005 2.188 0.008 C2.909 0.005 3.631 0.003 4.375 0 C6.188 0.133 6.188 0.133 7.188 1.133 C7.649 7.356 7.649 7.356 6 10.133 C4.188 11.133 4.188 11.133 1.625 10.945 C-0.812 10.133 -0.812 10.133 -2.812 8.133 C-3 4.57 -3 4.57 -2.812 1.133 C-1.812 0.133 -1.812 0.133 0 0 Z " fill="#3E3E3E" transform="translate(33.8125,103.8671875)"/>
<path d="M0 0 C9.676 -0.688 9.676 -0.688 13.625 1.875 C14.409 2.576 15.193 3.278 16 4 C16 4.66 16 5.32 16 6 C6.065 6.626 6.065 6.626 1.812 4.125 C0 2 0 2 0 0 Z " fill="#EBEBEB" transform="translate(34,169)"/>
<path d="M0 0 C3.96 0 7.92 0 12 0 C11 4 11 4 8 6 C5.057 6.368 3.618 6.448 1.188 4.688 C0 3 0 3 0 0 Z " fill="#3D3D3D" transform="translate(188,166)"/>
<path d="M0 0 C3.96 0 7.92 0 12 0 C11 4 11 4 8 6 C5.057 6.368 3.618 6.448 1.188 4.688 C0 3 0 3 0 0 Z " fill="#3D3D3D" transform="translate(172,166)"/>
<path d="M0 0 C3.96 0 7.92 0 12 0 C11 4 11 4 8 6 C5.057 6.368 3.618 6.448 1.188 4.688 C0 3 0 3 0 0 Z " fill="#3D3D3D" transform="translate(60,166)"/>
<path d="M0 0 C1.98 0 3.96 0 6 0 C6 1.32 6 2.64 6 4 C4.02 4 2.04 4 0 4 C0 2.68 0 1.36 0 0 Z " fill="#3D3D3D" transform="translate(161,168)"/>
<path d="M0 0 C1.98 0 3.96 0 6 0 C6 1.32 6 2.64 6 4 C4.02 4 2.04 4 0 4 C0 2.68 0 1.36 0 0 Z " fill="#3D3D3D" transform="translate(149,168)"/>
<path d="M0 0 C1.98 0 3.96 0 6 0 C6 1.32 6 2.64 6 4 C4.02 4 2.04 4 0 4 C0 2.68 0 1.36 0 0 Z " fill="#3D3D3D" transform="translate(89,168)"/>
<path d="M0 0 C1.98 0 3.96 0 6 0 C6 1.32 6 2.64 6 4 C4.02 4 2.04 4 0 4 C0 2.68 0 1.36 0 0 Z " fill="#3D3D3D" transform="translate(77,168)"/>
<path d="M0 0 C5.875 3.75 5.875 3.75 7 6 C4.625 6.188 4.625 6.188 2 6 C0 3 0 3 0 0 Z " fill="#404040" transform="translate(48,169)"/>
<path d="M0 0 C3.96 0 7.92 0 12 0 C12.33 0.99 12.66 1.98 13 3 C8.71 2.34 4.42 1.68 0 1 C0 0.67 0 0.34 0 0 Z " fill="#505050" transform="translate(35,168)"/>
</svg>
