<?xml version="1.0" encoding="UTF-8"?>
<!-- Generator: visioncortex VTracer 0.6.12 -->
<svg version="1.1" xmlns="http://www.w3.org/2000/svg" width="256" height="256">
<path d="M0 0 C1.417 -0.005 2.833 -0.01 4.25 -0.015 C8.085 -0.028 11.92 -0.035 15.756 -0.039 C18.158 -0.042 20.56 -0.046 22.963 -0.051 C30.498 -0.064 38.033 -0.074 45.567 -0.078 C54.231 -0.082 62.894 -0.1 71.557 -0.129 C78.276 -0.15 84.995 -0.16 91.714 -0.162 C95.716 -0.163 99.718 -0.169 103.72 -0.187 C107.492 -0.203 111.263 -0.205 115.035 -0.196 C117.055 -0.195 119.076 -0.209 121.096 -0.223 C139.906 -0.139 155.548 4.86 169.213 17.911 C182.562 31.738 184.538 46.667 184.295 65.126 C183.796 81.057 176.462 97.821 165.213 109.185 C155.006 118.407 139.443 122.263 125.855 122.302 C125.247 122.304 125.247 122.304 122.169 122.319 C120.834 122.32 119.499 122.321 118.164 122.322 C116.747 122.327 115.331 122.332 113.914 122.337 C110.075 122.35 106.236 122.357 102.396 122.361 C99.992 122.364 97.587 122.368 95.182 122.373 C87.642 122.386 80.102 122.396 72.562 122.4 C63.89 122.404 55.218 122.422 46.546 122.451 C39.823 122.473 33.1 122.483 26.377 122.484 C22.372 122.485 18.366 122.491 14.361 122.509 C10.585 122.526 6.809 122.527 3.034 122.519 C1.011 122.518 -1.012 122.531 -3.034 122.546 C-19.035 122.474 -36.047 119.54 -47.975 108.161 C-61.056 94.713 -66.161 77.465 -66.35 59.099 C-66.364 58.093 -66.378 57.088 -66.393 56.052 C-66.279 38.448 -59.137 26.323 -46.967 14.153 C-33.74 1.783 -17.287 0.015 0 0 Z " fill="#292929" transform="translate(68.974853515625,66.8388671875)"/>
<path d="M0 0 C46.2 0 92.4 0 140 0 C140 25.74 140 51.48 140 78 C93.8 78 47.6 78 0 78 C0 52.26 0 26.52 0 0 Z " fill="#7E7E7E" transform="translate(58,84)"/>
<path d="M0 0 C1.417 -0.005 2.833 -0.01 4.25 -0.015 C8.085 -0.028 11.92 -0.035 15.756 -0.039 C18.158 -0.042 20.56 -0.046 22.963 -0.051 C30.498 -0.064 38.033 -0.074 45.567 -0.078 C54.231 -0.082 62.894 -0.1 71.557 -0.129 C78.276 -0.15 84.995 -0.16 91.714 -0.162 C95.716 -0.163 99.718 -0.169 103.72 -0.187 C107.492 -0.203 111.263 -0.205 115.035 -0.196 C117.055 -0.195 119.076 -0.209 121.096 -0.223 C139.906 -0.139 155.548 4.86 169.213 17.911 C182.562 31.738 184.538 46.667 184.295 65.126 C183.796 81.057 176.462 97.821 165.213 109.185 C155.006 118.407 139.443 122.263 125.855 122.302 C125.247 122.304 125.247 122.304 122.169 122.319 C120.834 122.32 119.499 122.321 118.164 122.322 C116.747 122.327 115.331 122.332 113.914 122.337 C110.075 122.35 106.236 122.357 102.396 122.361 C99.992 122.364 97.587 122.368 95.182 122.373 C87.642 122.386 80.102 122.396 72.562 122.4 C63.89 122.404 55.218 122.422 46.546 122.451 C39.823 122.473 33.1 122.483 26.377 122.484 C22.372 122.485 18.366 122.491 14.361 122.509 C10.585 122.526 6.809 122.527 3.034 122.519 C1.011 122.518 -1.012 122.531 -3.034 122.546 C-19.035 122.474 -36.047 119.54 -47.975 108.161 C-61.056 94.713 -66.161 77.465 -66.35 59.099 C-66.364 58.093 -66.378 57.088 -66.393 56.052 C-66.279 38.448 -59.137 26.323 -46.967 14.153 C-33.74 1.783 -17.287 0.015 0 0 Z M-19.975 15.161 C-24.908 18.786 -28.347 19.401 -34.475 19.974 C-40.474 20.654 -43.8 21.438 -47.623 26.173 C-48.069 26.829 -48.515 27.485 -48.975 28.161 C-49.208 28.484 -49.208 28.484 -50.389 30.118 C-56.572 39.284 -57.529 47.395 -57.475 58.286 C-57.47 59.583 -57.465 60.881 -57.46 62.217 C-57.291 71.48 -56.474 78.923 -51.975 87.161 C-51.448 88.142 -50.92 89.123 -50.377 90.134 C-48.472 93.461 -46.691 96.445 -43.975 99.161 C-41.315 99.578 -38.713 99.907 -36.037 100.161 C-28.378 100.893 -28.378 100.893 -24.975 103.161 C-24.088 103.367 -23.201 103.574 -22.287 103.786 C-18.726 105.265 -17.971 106.281 -15.62 109.183 C-11.109 113.765 -7.457 114.122 -1.184 114.234 C0.084 114.216 1.352 114.199 2.658 114.18 C4.025 114.19 5.393 114.202 6.76 114.218 C10.455 114.25 14.148 114.232 17.843 114.203 C21.72 114.179 25.597 114.195 29.475 114.204 C35.985 114.214 42.494 114.191 49.004 114.149 C56.516 114.101 64.027 114.106 71.539 114.14 C78.783 114.171 86.028 114.163 93.272 114.137 C96.347 114.127 99.422 114.13 102.496 114.146 C106.122 114.162 109.745 114.144 113.37 114.099 C115.325 114.083 117.28 114.102 119.234 114.121 C126.425 113.992 130.481 113.119 135.577 107.886 C136.69 106.561 137.771 105.21 138.838 103.849 C143.178 100.5 149.393 100.218 154.756 100.103 C161.07 99.94 161.07 99.94 163.806 97.708 C173.101 86.042 175.385 72.735 175.4 58.286 C175.425 57.071 175.449 55.855 175.474 54.603 C175.506 44.879 173.857 36.913 167.525 29.286 C166.958 28.587 166.391 27.889 165.806 27.169 C165.219 26.506 164.631 25.844 164.025 25.161 C163.41 24.426 162.795 23.692 162.162 22.935 C159.426 20.663 157.855 20.698 154.338 20.661 C145.676 20.187 139.781 17.392 133.533 11.431 C130.441 8.827 127.216 9.026 123.365 9.001 C122.776 8.995 122.776 8.995 119.793 8.97 C119.145 8.967 119.145 8.967 115.868 8.952 C114.492 8.943 113.115 8.933 111.738 8.923 C107.215 8.891 102.693 8.871 98.17 8.853 C97.785 8.851 97.785 8.851 95.836 8.843 C88.571 8.812 81.306 8.785 74.041 8.768 C64.756 8.746 55.472 8.704 46.187 8.635 C39.655 8.587 33.122 8.563 26.589 8.556 C22.69 8.551 18.791 8.536 14.892 8.496 C11.22 8.459 7.55 8.451 3.878 8.464 C1.897 8.464 -0.084 8.434 -2.065 8.404 C-9.969 8.468 -14.275 9.666 -19.975 15.161 Z " fill="#FBFBFB" transform="translate(68.974853515625,66.8388671875)"/>
<path d="M0 0 C6.372 -0.207 11.931 -0.218 18 2 C19.134 2.371 20.269 2.743 21.438 3.125 C26.224 5.203 29.538 9.214 33 13 C25.965 15.345 17.419 12.225 10.969 9.07 C6.358 6.564 3.042 4.269 0 0 Z " fill="#909090" transform="translate(25,166)"/>
<path d="M0 0 C-2.396 6.063 -8.6 8.481 -14.273 11.016 C-20.06 13.147 -25.872 13.668 -32 14 C-30.851 12.851 -29.699 11.705 -28.535 10.57 C-27 9 -27 9 -25.496 7.18 C-18.715 -0.631 -9.748 -0.32 0 0 Z " fill="#858585" transform="translate(230,166)"/>
<path d="M0 0 C0.33 0 0.66 0 1 0 C1.041 0.557 1.041 0.557 1.25 3.375 C2 7 2 7 4.062 8.438 C4.702 8.623 5.341 8.809 6 9 C8.762 6.238 8.579 3.793 9 0 C9.33 0 9.66 0 10 0 C10 2.64 10 5.28 10 8 C12.31 8 14.62 8 17 8 C17 8.33 17 8.66 17 9 C14.69 9.66 12.38 10.32 10 11 C10 12.32 10 13.64 10 15 C11 16 11 16 14.562 16.062 C15.697 16.042 16.831 16.021 18 16 C18 16.66 18 17.32 18 18 C15.36 18 12.72 18 10 18 C10 20.64 10 23.28 10 26 C9.34 25.67 8.68 25.34 8 25 C8 22.69 8 20.38 8 18 C6.344 17.618 4.675 17.286 3 17 C2 18 2 18 1.902 19.848 C1.914 20.579 1.926 21.309 1.938 22.062 C1.958 23.362 1.979 24.661 2 26 C1.34 26 0.68 26 0 26 C0 23.36 0 20.72 0 18 C-2.64 18 -5.28 18 -8 18 C-8 17.67 -8 17.34 -8 17 C-7.443 16.959 -7.443 16.959 -4.625 16.75 C-1 16 -1 16 0.438 13.938 C0.623 13.298 0.809 12.659 1 12 C-1 10 -1 10 -4.625 9.875 C-5.182 9.896 -5.182 9.896 -8 10 C-8 9.34 -8 8.68 -8 8 C-5.36 8 -2.72 8 0 8 C0 5.36 0 2.72 0 0 Z " fill="#1B1B1B" transform="translate(29,98)"/>
<path d="M0 0 C11.036 0.274 21.503 3.886 30 11 C30 11.33 30 11.66 30 12 C20.342 12.65 13.567 11.227 6.125 4.875 C5.591 4.377 5.058 3.88 4.508 3.367 C3 2 3 2 0 0 Z " fill="#B7B7B7" transform="translate(198,76)"/>
<path d="M0 0 C-0.701 0.557 -1.403 1.114 -2.125 1.688 C-4.138 3.306 -6.104 4.945 -8.062 6.625 C-14.616 11.923 -20.82 12.141 -29 12 C-21.82 3.922 -10.818 -0.39 0 0 Z " fill="#BDBDBD" transform="translate(57,76)"/>
<path d="M0 0 C2.5 1.5 2.5 1.5 4 3 C2.25 6.875 2.25 6.875 0 8 C-7.223 8.466 -7.223 8.466 -10.5 6.5 C-10.995 6.005 -11.49 5.51 -12 5 C-9.451 -0.645 -5.912 -0.701 0 0 Z " fill="#323232" transform="translate(42,154)"/>
<path d="M0 0 C2.741 1.921 4.502 4.01 6 7 C6.546 10.98 5.614 14.041 3.438 17.438 C0.02 19.628 -2.939 20.437 -7 20 C-10.322 18.128 -12.316 16.703 -13.766 13.094 C-14.399 10.045 -14.529 7.959 -13 5.188 C-9.066 0.317 -6.199 -0.827 0 0 Z M-12 7 C-12.71 10.785 -12.278 12.467 -10.5 15.875 C-7.459 18.46 -5.8 18.693 -1.906 18.41 C0 18 0 18 2.5 16.5 C4.611 12.981 4.942 9.999 4 6 C1.458 3.009 -0.157 2.158 -4 1.438 C-8.104 2.207 -9.54 3.671 -12 7 Z " fill="#5F5F5F" transform="translate(219,129)"/>
<path d="M0 0 C6.349 -0.207 12.028 -0.337 18 2 C18.33 2.66 18.66 3.32 19 4 C15.7 3.67 12.4 3.34 9 3 C9.825 3.66 9.825 3.66 14 7 C13.67 7.66 13.34 8.32 13 9 C8.211 8.263 4.288 5.635 1.316 1.863 C0.882 1.248 0.448 0.634 0 0 Z " fill="#858585" transform="translate(25,166)"/>
<path d="M0 0 C4.417 1.388 7.083 3.397 10 7 C9.812 9.312 9.812 9.312 9 11 C8.67 10.67 8.34 10.34 8 10 C6.653 9.769 5.296 9.588 3.938 9.438 C2.638 9.293 1.339 9.149 0 9 C0 6.03 0 3.06 0 0 Z " fill="#313131" transform="translate(39,97)"/>
<path d="M0 0 C0 2.97 0 5.94 0 9 C-3.3 9.33 -6.6 9.66 -10 10 C-8.97 5.879 -8.631 5.276 -5.562 2.75 C-4.945 2.229 -4.328 1.708 -3.691 1.172 C-2 0 -2 0 0 0 Z " fill="#313131" transform="translate(29,97)"/>
<path d="M0 0 C6.218 0.288 11.881 1.213 17 5 C17.33 5.99 17.66 6.98 18 8 C11.075 7.049 5.524 5.429 0 1 C0 0.67 0 0.34 0 0 Z " fill="#EFEFEF" transform="translate(33,168)"/>
<path d="M0 0 C-5.77 4.223 -10.934 6.03 -18 7 C-18 6.34 -18 5.68 -18 5 C-12.769 0.815 -6.748 -2.084 0 0 Z " fill="#F2F2F2" transform="translate(223,169)"/>
<path d="M0 0 C0.33 0.66 0.66 1.32 1 2 C1.454 1.825 1.454 1.825 3.75 0.938 C6.856 0.042 8.107 -0.286 11 1 C11.33 1.66 11.66 2.32 12 3 C9.753 3.532 7.502 4.05 5.25 4.562 C4.624 4.708 4.624 4.708 1.453 5.441 C-1.595 5.934 -3.176 6.077 -6 5 C-4.02 3.35 -2.04 1.7 0 0 Z " fill="#868686" transform="translate(204,174)"/>
<path d="M0 0 C2.199 -0.281 2.199 -0.281 5 0 C7.457 1.969 7.457 1.969 9.812 4.5 C10.603 5.335 11.393 6.171 12.207 7.031 C12.799 7.681 13.39 8.331 14 9 C10.867 10.044 10.01 9.934 7 9 C6.979 8.618 6.979 8.618 6.875 6.688 C6 4 6 4 2.938 2.188 C1.968 1.796 0.999 1.404 0 1 C0 0.67 0 0.34 0 0 Z " fill="#828282" transform="translate(44,170)"/>
<path d="M0 0 C1.98 0 3.96 0 6 0 C6 1.32 6 2.64 6 4 C4.02 4 2.04 4 0 4 C0 2.68 0 1.36 0 0 Z " fill="#313131" transform="translate(221,156)"/>
<path d="M0 0 C1.98 0 3.96 0 6 0 C6 1.32 6 2.64 6 4 C4.02 4 2.04 4 0 4 C0 2.68 0 1.36 0 0 Z " fill="#313131" transform="translate(209,156)"/>
<path d="M0 0 C0.33 0.66 0.66 1.32 1 2 C-1.31 2.33 -3.62 2.66 -6 3 C-6 2.34 -6 1.68 -6 1 C-6.66 0.67 -7.32 0.34 -8 0 C-4.979 -0.971 -2.995 -1.136 0 0 Z " fill="#9B9B9B" transform="translate(215,175)"/>
</svg>
