<?xml version="1.0" encoding="UTF-8"?>
<!-- Generator: visioncortex VTracer 0.6.12 -->
<svg version="1.1" xmlns="http://www.w3.org/2000/svg" width="256" height="256">
<path d="M0 0 C82.5 0 165 0 250 0 C250 64.02 250 128.04 250 194 C226.24 194.33 202.48 194.66 178 195 C178.66 195.825 178.66 195.825 182 200 C182.789 204.119 182.241 205.616 180 209.188 C171.384 218.353 153.594 217.391 142 218 C136.499 218.155 131.003 218.195 125.5 218.188 C124.762 218.187 124.024 218.187 123.263 218.187 C81.086 218.116 81.086 218.116 71.375 210.438 C68.732 207.725 68.1 206.897 67.688 203.188 C68 200 68 200 72 195 C48.24 194.67 24.48 194.34 0 194 C0 129.98 0 65.96 0 0 Z " fill="#090A7F" transform="translate(3,19)"/>
<path d="M0 0 C82.5 0 165 0 250 0 C250 64.02 250 128.04 250 194 C226.24 194.33 202.48 194.66 178 195 C178.66 195.825 178.66 195.825 182 200 C182.789 204.119 182.241 205.616 180 209.188 C171.384 218.353 153.594 217.391 142 218 C136.499 218.155 131.003 218.195 125.5 218.188 C124.762 218.187 124.024 218.187 123.263 218.187 C81.086 218.116 81.086 218.116 71.375 210.438 C68.732 207.725 68.1 206.897 67.688 203.188 C68 200 68 200 72 195 C48.24 194.67 24.48 194.34 0 194 C0 129.98 0 65.96 0 0 Z M17 17 C17 69.8 17 122.6 17 177 C28.88 177 40.76 177 53 177 C53 167.76 53 158.52 53 149 C70.16 149 87.32 149 105 149 C105 158.24 105 167.48 105 177 C108.96 177 112.92 177 117 177 C117 167.76 117 158.52 117 149 C122.28 149 127.56 149 133 149 C133 147.68 133 146.36 133 145 C127.72 145 122.44 145 117 145 C117 143.68 117 142.36 117 141 C119.64 141 122.28 141 125 141 C125 133.08 125 125.16 125 117 C115.76 117 106.52 117 97 117 C97 124.92 97 132.84 97 141 C99.64 141 102.28 141 105 141 C105 142.32 105 143.64 105 145 C101.04 145 97.08 145 93 145 C93 143.68 93 142.36 93 141 C90.36 141 87.72 141 85 141 C85 142.32 85 143.64 85 145 C82.36 145 79.72 145 77 145 C77 143.68 77 142.36 77 141 C75.68 141 74.36 141 73 141 C73 133.08 73 125.16 73 117 C74.32 117 75.64 117 77 117 C77 115.68 77 114.36 77 113 C79.64 113 82.28 113 85 113 C85 114.32 85 115.64 85 117 C86.65 117 88.3 117 90 117 C90 116.01 90 115.02 90 114 C103.86 114 117.72 114 132 114 C132 114.99 132 115.98 132 117 C137.61 117 143.22 117 149 117 C149 124.92 149 132.84 149 141 C147.68 141 146.36 141 145 141 C145 142.32 145 143.64 145 145 C171.4 145 197.8 145 225 145 C225 155.56 225 166.12 225 177 C227.64 177 230.28 177 233 177 C233 124.2 233 71.4 233 17 C161.72 17 90.44 17 17 17 Z " fill="#1A1A1C" transform="translate(3,19)"/>
<path d="M0 0 C44.88 0 89.76 0 136 0 C136 22.44 136 44.88 136 68 C91.12 68 46.24 68 0 68 C0 45.56 0 23.12 0 0 Z " fill="#0000CA" transform="translate(40,36)"/>
<path d="M0 0 C82.5 0 165 0 250 0 C250 64.02 250 128.04 250 194 C226.24 194.33 202.48 194.66 178 195 C178.66 195.825 178.66 195.825 182 200 C182.789 204.119 182.241 205.616 180 209.188 C171.384 218.353 153.594 217.391 142 218 C136.499 218.155 131.003 218.195 125.5 218.188 C124.762 218.187 124.024 218.187 123.263 218.187 C81.086 218.116 81.086 218.116 71.375 210.438 C68.732 207.725 68.1 206.897 67.688 203.188 C68 200 68 200 72 195 C48.24 194.67 24.48 194.34 0 194 C0 129.98 0 65.96 0 0 Z M9 9 C9 67.08 9 125.16 9 185 C40.68 185 72.36 185 105 185 C105 189.29 105 193.58 105 198 C104.033 197.977 103.066 197.954 102.07 197.93 C83.492 197.672 83.492 197.672 77 202 C78 205 78 205 80.168 206.118 C92.536 209.97 106.019 209.282 118.815 209.206 C121.994 209.188 125.173 209.185 128.352 209.186 C159.495 209.134 159.495 209.134 172 205 C172 203.68 172 202.36 172 201 C162.903 197.762 154.508 197.678 145 198 C145 193.71 145 189.42 145 185 C176.68 185 208.36 185 241 185 C241 126.92 241 68.84 241 9 C164.44 9 87.88 9 9 9 Z " fill="#FAFAFA" transform="translate(3,19)"/>
<path d="M0 0 C58.08 0 116.16 0 176 0 C176 3.96 176 7.92 176 12 C131.12 12 86.24 12 40 12 C40 13.32 40 14.64 40 16 C63.76 16 87.52 16 112 16 C112 17.32 112 18.64 112 20 C113.32 20 114.64 20 116 20 C116 21.32 116 22.64 116 24 C117.32 24 118.64 24 120 24 C120 31.92 120 39.84 120 48 C121.32 48 122.64 48 124 48 C124 49.32 124 50.64 124 52 C145.12 52 166.24 52 188 52 C188 53.32 188 54.64 188 56 C161.6 56 135.2 56 108 56 C108 54.68 108 53.36 108 52 C109.32 52 110.64 52 112 52 C112 44.08 112 36.16 112 28 C106.39 28 100.78 28 95 28 C95 27.01 95 26.02 95 25 C81.14 25 67.28 25 53 25 C53 25.99 53 26.98 53 28 C51.35 28 49.7 28 48 28 C48 26.68 48 25.36 48 24 C45.36 24 42.72 24 40 24 C40 25.32 40 26.64 40 28 C38.68 28 37.36 28 36 28 C36 35.92 36 43.84 36 52 C37.32 52 38.64 52 40 52 C40 53.32 40 54.64 40 56 C42.64 56 45.28 56 48 56 C48 54.68 48 53.36 48 52 C50.64 52 53.28 52 56 52 C56 53.32 56 54.64 56 56 C59.96 56 63.92 56 68 56 C68 54.68 68 53.36 68 52 C65.36 52 62.72 52 60 52 C60 44.08 60 36.16 60 28 C69.24 28 78.48 28 88 28 C88 35.92 88 43.84 88 52 C85.36 52 82.72 52 80 52 C80 53.32 80 54.64 80 56 C85.28 56 90.56 56 96 56 C96 57.32 96 58.64 96 60 C90.72 60 85.44 60 80 60 C80 69.24 80 78.48 80 88 C76.04 88 72.08 88 68 88 C68 78.76 68 69.52 68 60 C50.84 60 33.68 60 16 60 C16 69.24 16 78.48 16 88 C6.76 88 -2.48 88 -12 88 C-12 62.92 -12 37.84 -12 12 C-8.04 12 -4.08 12 0 12 C0 8.04 0 4.08 0 0 Z " fill="#CAA47E" transform="translate(40,108)"/>
<path d="M0 0 C2.64 0 5.28 0 8 0 C8 1.32 8 2.64 8 4 C9.65 4 11.3 4 13 4 C13 3.01 13 2.02 13 1 C26.86 1 40.72 1 55 1 C55 1.99 55 2.98 55 4 C60.61 4 66.22 4 72 4 C72 11.92 72 19.84 72 28 C70.68 28 69.36 28 68 28 C68 29.32 68 30.64 68 32 C94.4 32 120.8 32 148 32 C148 42.56 148 53.12 148 64 C112.36 64 76.72 64 40 64 C40 54.76 40 45.52 40 36 C45.28 36 50.56 36 56 36 C56 34.68 56 33.36 56 32 C50.72 32 45.44 32 40 32 C40 30.68 40 29.36 40 28 C42.64 28 45.28 28 48 28 C48 20.08 48 12.16 48 4 C38.76 4 29.52 4 20 4 C20 11.92 20 19.84 20 28 C22.64 28 25.28 28 28 28 C28 29.32 28 30.64 28 32 C24.04 32 20.08 32 16 32 C16 30.68 16 29.36 16 28 C13.36 28 10.72 28 8 28 C8 29.32 8 30.64 8 32 C5.36 32 2.72 32 0 32 C0 30.68 0 29.36 0 28 C-1.32 28 -2.64 28 -4 28 C-4 20.08 -4 12.16 -4 4 C-2.68 4 -1.36 4 0 4 C0 2.68 0 1.36 0 0 Z " fill="#037B03" transform="translate(80,132)"/>
<path d="M0 0 C76.56 0 153.12 0 232 0 C232 58.08 232 116.16 232 176 C200.32 176 168.64 176 136 176 C136 180.29 136 184.58 136 189 C137.027 188.965 138.055 188.93 139.113 188.895 C147.575 188.698 154.919 189.124 163 192 C163 193.32 163 194.64 163 196 C147.917 200.986 131.894 200.187 116.185 200.185 C113.006 200.187 109.827 200.206 106.648 200.225 C77.681 200.309 77.681 200.309 68 195 C69 192 69 192 71.125 190.875 C77.014 189.083 82.815 188.883 88.938 188.938 C89.279 188.94 89.279 188.94 91.01 188.951 C92.673 188.963 94.337 188.981 96 189 C96 184.71 96 180.42 96 176 C64.32 176 32.64 176 0 176 C0 117.92 0 59.84 0 0 Z M4 4 C4 59.44 4 114.88 4 172 C71.32 172.33 138.64 172.66 208 173 C208 173.66 208 174.32 208 175 C214.6 175 221.2 175 228 175 C228 118.57 228 62.14 228 4 C154.08 4 80.16 4 4 4 Z " fill="#282828" transform="translate(12,28)"/>
<path d="M0 0 C7.92 0 15.84 0 24 0 C24 1.32 24 2.64 24 4 C47.76 4 71.52 4 96 4 C96 5.32 96 6.64 96 8 C97.32 8 98.64 8 100 8 C100 9.32 100 10.64 100 12 C101.32 12 102.64 12 104 12 C104 19.92 104 27.84 104 36 C105.32 36 106.64 36 108 36 C108 37.32 108 38.64 108 40 C129.12 40 150.24 40 172 40 C172 41.32 172 42.64 172 44 C145.6 44 119.2 44 92 44 C92 42.68 92 41.36 92 40 C93.32 40 94.64 40 96 40 C96 32.08 96 24.16 96 16 C90.39 16 84.78 16 79 16 C79 15.01 79 14.02 79 13 C65.14 13 51.28 13 37 13 C37 13.99 37 14.98 37 16 C35.35 16 33.7 16 32 16 C32 14.68 32 13.36 32 12 C29.36 12 26.72 12 24 12 C24 13.32 24 14.64 24 16 C22.68 16 21.36 16 20 16 C20 23.92 20 31.84 20 40 C21.32 40 22.64 40 24 40 C24 41.32 24 42.64 24 44 C26.64 44 29.28 44 32 44 C32 42.68 32 41.36 32 40 C34.64 40 37.28 40 40 40 C40 41.32 40 42.64 40 44 C43.96 44 47.92 44 52 44 C52 42.68 52 41.36 52 40 C49.36 40 46.72 40 44 40 C44 32.08 44 24.16 44 16 C53.24 16 62.48 16 72 16 C72 23.92 72 31.84 72 40 C69.36 40 66.72 40 64 40 C64 41.32 64 42.64 64 44 C69.28 44 74.56 44 80 44 C80 45.32 80 46.64 80 48 C74.72 48 69.44 48 64 48 C64 57.24 64 66.48 64 76 C60.04 76 56.08 76 52 76 C52 66.76 52 57.52 52 48 C34.84 48 17.68 48 0 48 C0 32.16 0 16.32 0 0 Z " fill="#03B602" transform="translate(56,120)"/>
<path d="M0 0 C42.9 0 85.8 0 130 0 C130 12.21 130 24.42 130 37 C105.91 37 81.82 37 57 37 C57 30.4 57 23.8 57 17 C55.68 17 54.36 17 53 17 C53 15.68 53 14.36 53 13 C51.68 13 50.36 13 49 13 C49 11.68 49 10.36 49 9 C47.68 9 46.36 9 45 9 C45 7.68 45 6.36 45 5 C43.68 5 42.36 5 41 5 C41 8.96 41 12.92 41 17 C38.36 17 35.72 17 33 17 C33 15.68 33 14.36 33 13 C34.32 13 35.64 13 37 13 C37 10.36 37 7.72 37 5 C35.68 5 34.36 5 33 5 C33 6.32 33 7.64 33 9 C31.68 9 30.36 9 29 9 C29 11.64 29 14.28 29 17 C26.36 17 23.72 17 21 17 C21 13.04 21 9.08 21 5 C14.07 5 7.14 5 0 5 C0 3.35 0 1.7 0 0 Z " fill="#0000CF" transform="translate(43,39)"/>
<path d="M0 0 C27.72 0 55.44 0 84 0 C84 23.76 84 47.52 84 72 C81.36 72 78.72 72 76 72 C76 60.12 76 48.24 76 36 C54.88 36 33.76 36 12 36 C12 34.68 12 33.36 12 32 C10.68 32 9.36 32 8 32 C8 24.08 8 16.16 8 8 C6.68 8 5.36 8 4 8 C4 6.68 4 5.36 4 4 C2.68 4 1.36 4 0 4 C0 2.68 0 1.36 0 0 Z " fill="#00007E" transform="translate(152,124)"/>
<path d="M0 0 C44.88 0 89.76 0 136 0 C136 22.44 136 44.88 136 68 C91.12 68 46.24 68 0 68 C0 45.56 0 23.12 0 0 Z M3 3 C3 4.65 3 6.3 3 8 C9.93 8 16.86 8 24 8 C24 11.96 24 15.92 24 20 C26.64 20 29.28 20 32 20 C32 17.36 32 14.72 32 12 C33.32 12 34.64 12 36 12 C36 10.68 36 9.36 36 8 C37.32 8 38.64 8 40 8 C40 10.64 40 13.28 40 16 C38.68 16 37.36 16 36 16 C36 17.32 36 18.64 36 20 C38.64 20 41.28 20 44 20 C44 16.04 44 12.08 44 8 C45.32 8 46.64 8 48 8 C48 9.32 48 10.64 48 12 C49.32 12 50.64 12 52 12 C52 13.32 52 14.64 52 16 C53.32 16 54.64 16 56 16 C56 17.32 56 18.64 56 20 C57.32 20 58.64 20 60 20 C60 26.6 60 33.2 60 40 C58.68 40 57.36 40 56 40 C56 37.36 56 34.72 56 32 C54.68 32 53.36 32 52 32 C52 30.68 52 29.36 52 28 C48.04 28 44.08 28 40 28 C40 30.64 40 33.28 40 36 C38.68 36 37.36 36 36 36 C36 37.32 36 38.64 36 40 C33.36 40 30.72 40 28 40 C28 41.32 28 42.64 28 44 C19.75 44 11.5 44 3 44 C3 50.93 3 57.86 3 65 C45.9 65 88.8 65 133 65 C133 44.54 133 24.08 133 3 C90.1 3 47.2 3 3 3 Z " fill="#1616DB" transform="translate(40,36)"/>
<path d="M0 0 C11.88 0 23.76 0 36 0 C36 22.44 36 44.88 36 68 C24.12 68 12.24 68 0 68 C0 45.56 0 23.12 0 0 Z " fill="#1C1CAE" transform="translate(180,36)"/>
<path d="M0 0 C2.64 0 5.28 0 8 0 C8 1.32 8 2.64 8 4 C9.65 4 11.3 4 13 4 C13 3.01 13 2.02 13 1 C26.86 1 40.72 1 55 1 C55 1.99 55 2.98 55 4 C60.61 4 66.22 4 72 4 C72 11.92 72 19.84 72 28 C70.68 28 69.36 28 68 28 C68 29.32 68 30.64 68 32 C58.76 32 49.52 32 40 32 C40 30.68 40 29.36 40 28 C42.64 28 45.28 28 48 28 C48 20.08 48 12.16 48 4 C38.76 4 29.52 4 20 4 C20 11.92 20 19.84 20 28 C22.64 28 25.28 28 28 28 C28 29.32 28 30.64 28 32 C24.04 32 20.08 32 16 32 C16 30.68 16 29.36 16 28 C13.36 28 10.72 28 8 28 C8 29.32 8 30.64 8 32 C5.36 32 2.72 32 0 32 C0 30.68 0 29.36 0 28 C-1.32 28 -2.64 28 -4 28 C-4 20.08 -4 12.16 -4 4 C-2.68 4 -1.36 4 0 4 C0 2.68 0 1.36 0 0 Z " fill="#04049F" transform="translate(80,132)"/>
<path d="M0 0 C17.16 0 34.32 0 52 0 C52 9.24 52 18.48 52 28 C34.84 28 17.68 28 0 28 C0 18.76 0 9.52 0 0 Z " fill="#019D01" transform="translate(56,168)"/>
<path d="M0 0 C56.76 0 113.52 0 172 0 C172 2.64 172 5.28 172 8 C115.24 8 58.48 8 0 8 C0 5.36 0 2.72 0 0 Z " fill="#07079C" transform="translate(42,110)"/>
<path d="M0 0 C6.6 0 13.2 0 20 0 C20 22.44 20 44.88 20 68 C13.4 68 6.8 68 0 68 C0 45.56 0 23.12 0 0 Z " fill="#0707B1" transform="translate(216,36)"/>
<path d="M0 0 C6.6 0 13.2 0 20 0 C20 22.44 20 44.88 20 68 C13.4 68 6.8 68 0 68 C0 45.56 0 23.12 0 0 Z " fill="#0707B1" transform="translate(20,36)"/>
<path d="M0 0 C9.24 0 18.48 0 28 0 C28 7.92 28 15.84 28 24 C25.36 24 22.72 24 20 24 C20 25.32 20 26.64 20 28 C25.28 28 30.56 28 36 28 C36 29.32 36 30.64 36 32 C30.72 32 25.44 32 20 32 C20 41.24 20 50.48 20 60 C16.04 60 12.08 60 8 60 C8 50.76 8 41.52 8 32 C-1.24 32 -10.48 32 -20 32 C-20 30.68 -20 29.36 -20 28 C-17.36 28 -14.72 28 -12 28 C-12 26.68 -12 25.36 -12 24 C-9.36 24 -6.72 24 -4 24 C-4 25.32 -4 26.64 -4 28 C-0.04 28 3.92 28 8 28 C8 26.68 8 25.36 8 24 C5.36 24 2.72 24 0 24 C0 16.08 0 8.16 0 0 Z " fill="#D7CBB7" transform="translate(100,136)"/>
<path d="M0 0 C1.32 0 2.64 0 4 0 C4 3.96 4 7.92 4 12 C6.64 12 9.28 12 12 12 C12 9.36 12 6.72 12 4 C13.32 4 14.64 4 16 4 C16 2.68 16 1.36 16 0 C17.32 0 18.64 0 20 0 C20 2.64 20 5.28 20 8 C18.68 8 17.36 8 16 8 C16 9.32 16 10.64 16 12 C18.64 12 21.28 12 24 12 C24 8.04 24 4.08 24 0 C25.32 0 26.64 0 28 0 C28 1.32 28 2.64 28 4 C29.32 4 30.64 4 32 4 C32 5.32 32 6.64 32 8 C33.32 8 34.64 8 36 8 C36 9.32 36 10.64 36 12 C37.32 12 38.64 12 40 12 C40 18.6 40 25.2 40 32 C38.68 32 37.36 32 36 32 C36 29.36 36 26.72 36 24 C34.68 24 33.36 24 32 24 C32 22.68 32 21.36 32 20 C28.04 20 24.08 20 20 20 C20 22.64 20 25.28 20 28 C18.68 28 17.36 28 16 28 C16 29.32 16 30.64 16 32 C13.36 32 10.72 32 8 32 C8 30.68 8 29.36 8 28 C9.32 28 10.64 28 12 28 C12 26.68 12 25.36 12 24 C6.72 24 1.44 24 -4 24 C-4 25.32 -4 26.64 -4 28 C-5.32 28 -6.64 28 -8 28 C-8 29.32 -8 30.64 -8 32 C-9.32 32 -10.64 32 -12 32 C-12 25.4 -12 18.8 -12 12 C-10.68 12 -9.36 12 -8 12 C-8 10.68 -8 9.36 -8 8 C-6.68 8 -5.36 8 -4 8 C-4 6.68 -4 5.36 -4 4 C-2.68 4 -1.36 4 0 4 C0 2.68 0 1.36 0 0 Z " fill="#BABABC" transform="translate(60,44)"/>
<path d="M0 0 C0.85 -0.001 1.7 -0.002 2.575 -0.003 C34.197 0.001 34.197 0.001 46.625 4.188 C46.625 5.507 46.625 6.827 46.625 8.188 C31.542 13.174 15.519 12.374 -0.19 12.373 C-3.369 12.375 -6.548 12.393 -9.727 12.412 C-38.694 12.496 -38.694 12.496 -48.375 7.188 C-47.375 4.188 -47.375 4.188 -45.363 3.07 C-31.07 -1.152 -14.778 -0.001 0 0 Z " fill="#2D2D2D" transform="translate(128.375,215.8125)"/>
<path d="M0 0 C21.12 0 42.24 0 64 0 C64 1.32 64 2.64 64 4 C65.32 4 66.64 4 68 4 C68 11.92 68 19.84 68 28 C69.32 28 70.64 28 72 28 C72 29.32 72 30.64 72 32 C93.12 32 114.24 32 136 32 C136 33.32 136 34.64 136 36 C109.6 36 83.2 36 56 36 C56 34.68 56 33.36 56 32 C57.32 32 58.64 32 60 32 C60 24.08 60 16.16 60 8 C54.39 8 48.78 8 43 8 C43 7.01 43 6.02 43 5 C29.14 5 15.28 5 1 5 C1 5.99 1 6.98 1 8 C-0.65 8 -2.3 8 -4 8 C-4 6.68 -4 5.36 -4 4 C-2.68 4 -1.36 4 0 4 C0 2.68 0 1.36 0 0 Z " fill="#079E08" transform="translate(92,128)"/>
<path d="M0 0 C30.36 0 60.72 0 92 0 C92 1.32 92 2.64 92 4 C76.16 4 60.32 4 44 4 C44 5.32 44 6.64 44 8 C53.24 8 62.48 8 72 8 C72 9.32 72 10.64 72 12 C50.88 12 29.76 12 8 12 C8 10.68 8 9.36 8 8 C6.68 8 5.36 8 4 8 C4 9.32 4 10.64 4 12 C-2.6 12 -9.2 12 -16 12 C-16 9.36 -16 6.72 -16 4 C-10.72 4 -5.44 4 0 4 C0 2.68 0 1.36 0 0 Z " fill="#038D02" transform="translate(136,164)"/>
<path d="M0 0 C9.9 0 19.8 0 30 0 C30 20.46 30 40.92 30 62 C28.35 62 26.7 62 25 62 C25 57.38 25 52.76 25 48 C16.75 48 8.5 48 0 48 C0 47.01 0 46.02 0 45 C8.25 45 16.5 45 25 45 C25 41.04 25 37.08 25 33 C16.75 33 8.5 33 0 33 C0 31.68 0 30.36 0 29 C8.25 29 16.5 29 25 29 C25 25.04 25 21.08 25 17 C16.75 17 8.5 17 0 17 C0 11.39 0 5.78 0 0 Z " fill="#0103B3" transform="translate(183,39)"/>
<path d="M0 0 C6.6 0 13.2 0 20 0 C20 3.96 20 7.92 20 12 C16.04 12 12.08 12 8 12 C8 37.08 8 62.16 8 88 C5.36 88 2.72 88 0 88 C0 58.96 0 29.92 0 0 Z " fill="#0303B4" transform="translate(20,108)"/>
<path d="M0 0 C44.88 0 89.76 0 136 0 C136 22.44 136 44.88 136 68 C91.12 68 46.24 68 0 68 C0 45.56 0 23.12 0 0 Z M2 2 C2 23.12 2 44.24 2 66 C45.56 66 89.12 66 134 66 C134 44.88 134 23.76 134 2 C90.44 2 46.88 2 2 2 Z " fill="#E3E3F4" transform="translate(40,36)"/>
<path d="M0 0 C58.08 0 116.16 0 176 0 C176 3.96 176 7.92 176 12 C117.92 12 59.84 12 0 12 C0 8.04 0 4.08 0 0 Z M2 2 C2 4.64 2 7.28 2 10 C58.76 10 115.52 10 174 10 C174 7.36 174 4.72 174 2 C117.24 2 60.48 2 2 2 Z " fill="#E3E3F3" transform="translate(40,108)"/>
<path d="M0 0 C9.24 0 18.48 0 28 0 C28 7.92 28 15.84 28 24 C25.36 24 22.72 24 20 24 C20 23.67 20 23.34 20 23 C22.31 23 24.62 23 27 23 C27 22.01 27 21.02 27 20 C18.42 20 9.84 20 1 20 C1 20.99 1 21.98 1 23 C3.31 23 5.62 23 8 23 C8 23.33 8 23.66 8 24 C5.36 24 2.72 24 0 24 C0 16.08 0 8.16 0 0 Z " fill="#CECECF" transform="translate(100,136)"/>
<path d="M0 0 C23.76 0 47.52 0 72 0 C72 13.2 72 26.4 72 40 C69.36 40 66.72 40 64 40 C64 28.12 64 16.24 64 4 C42.88 4 21.76 4 0 4 C0 2.68 0 1.36 0 0 Z " fill="#0002B1" transform="translate(164,156)"/>
<path d="M0 0 C9.24 0 18.48 0 28 0 C28 6.6 28 13.2 28 20 C22.72 20 17.44 20 12 20 C12 21.32 12 22.64 12 24 C10.68 24 9.36 24 8 24 C8 22.68 8 21.36 8 20 C5.36 20 2.72 20 0 20 C0 13.4 0 6.8 0 0 Z " fill="#BF9D79" transform="translate(28,120)"/>
<path d="M0 0 C42.9 0 85.8 0 130 0 C130 1.32 130 2.64 130 4 C87.1 4 44.2 4 0 4 C0 2.68 0 1.36 0 0 Z " fill="#0000DA" transform="translate(43,92)"/>
<path d="M0 0 C42.9 0 85.8 0 130 0 C130 1.32 130 2.64 130 4 C87.1 4 44.2 4 0 4 C0 2.68 0 1.36 0 0 Z " fill="#0000B9" transform="translate(43,88)"/>
<path d="M0 0 C42.9 0 85.8 0 130 0 C130 1.32 130 2.64 130 4 C87.1 4 44.2 4 0 4 C0 2.68 0 1.36 0 0 Z " fill="#0000DA" transform="translate(43,84)"/>
<path d="M0 0 C42.9 0 85.8 0 130 0 C130 1.32 130 2.64 130 4 C87.1 4 44.2 4 0 4 C0 2.68 0 1.36 0 0 Z " fill="#0000B9" transform="translate(43,80)"/>
<path d="M0 0 C35.64 0 71.28 0 108 0 C108 1.32 108 2.64 108 4 C78.96 4 49.92 4 20 4 C20 5.32 20 6.64 20 8 C13.4 8 6.8 8 0 8 C0 5.36 0 2.72 0 0 Z " fill="#047D04" transform="translate(120,184)"/>
<path d="M0 0 C7.92 0 15.84 0 24 0 C24 1.32 24 2.64 24 4 C47.76 4 71.52 4 96 4 C96 5.32 96 6.64 96 8 C76.2 8 56.4 8 36 8 C36 9.32 36 10.64 36 12 C34.68 12 33.36 12 32 12 C32 10.68 32 9.36 32 8 C21.44 8 10.88 8 0 8 C0 5.36 0 2.72 0 0 Z " fill="#04B105" transform="translate(56,120)"/>
<path d="M0 0 C17.16 0 34.32 0 52 0 C52 1.32 52 2.64 52 4 C41.44 4 30.88 4 20 4 C20 5.32 20 6.64 20 8 C21.065 7.988 22.13 7.977 23.227 7.965 C32.544 7.896 41.712 8.176 51 9 C51 9.66 51 10.32 51 11 C39.853 12.014 28.807 12.12 17.625 12.062 C15.906 12.057 14.188 12.053 12.469 12.049 C8.312 12.038 4.156 12.021 0 12 C0 8.04 0 4.08 0 0 Z " fill="#017E01" transform="translate(56,168)"/>
<path d="M0 0 C1.32 0 2.64 0 4 0 C4 3.96 4 7.92 4 12 C6.64 12 9.28 12 12 12 C12 9.36 12 6.72 12 4 C13.32 4 14.64 4 16 4 C16 2.68 16 1.36 16 0 C17.32 0 18.64 0 20 0 C20 2.64 20 5.28 20 8 C18.68 8 17.36 8 16 8 C16 9.32 16 10.64 16 12 C18.64 12 21.28 12 24 12 C24 8.04 24 4.08 24 0 C25.32 0 26.64 0 28 0 C28 1.32 28 2.64 28 4 C29.32 4 30.64 4 32 4 C32 5.32 32 6.64 32 8 C33.32 8 34.64 8 36 8 C36 9.32 36 10.64 36 12 C37.32 12 38.64 12 40 12 C40 13.32 40 14.64 40 16 C22.84 16 5.68 16 -12 16 C-12 14.68 -12 13.36 -12 12 C-10.68 12 -9.36 12 -8 12 C-8 10.68 -8 9.36 -8 8 C-6.68 8 -5.36 8 -4 8 C-4 6.68 -4 5.36 -4 4 C-2.68 4 -1.36 4 0 4 C0 2.68 0 1.36 0 0 Z " fill="#7F7F83" transform="translate(60,44)"/>
<path d="M0 0 C12.54 0 25.08 0 38 0 C38 4.29 38 8.58 38 13 C25.46 12.67 12.92 12.34 0 12 C0 8.04 0 4.08 0 0 Z " fill="#181818" transform="translate(109,204)"/>
<path d="M0 0 C11.88 0 23.76 0 36 0 C36 22.44 36 44.88 36 68 C24.12 68 12.24 68 0 68 C0 45.56 0 23.12 0 0 Z M2 2 C2 23.12 2 44.24 2 66 C12.56 66 23.12 66 34 66 C34 44.88 34 23.76 34 2 C23.44 2 12.88 2 2 2 Z " fill="#E3E3F3" transform="translate(180,36)"/>
<path d="M0 0 C9.9 0 19.8 0 30 0 C30 4.29 30 8.58 30 13 C20.1 13 10.2 13 0 13 C0 8.71 0 4.42 0 0 Z " fill="#0303AF" transform="translate(183,39)"/>
<path d="M0 0 C29.04 0 58.08 0 88 0 C88 1.32 88 2.64 88 4 C58.96 4 29.92 4 0 4 C0 2.68 0 1.36 0 0 Z " fill="#00B500" transform="translate(140,188)"/>
<path d="M0 0 C1.32 0 2.64 0 4 0 C4 1.32 4 2.64 4 4 C5.32 4 6.64 4 8 4 C8 13.24 8 22.48 8 32 C4.04 32 0.08 32 -4 32 C-4 22.76 -4 13.52 -4 4 C-2.68 4 -1.36 4 0 4 C0 2.68 0 1.36 0 0 Z " fill="#C1C5BE" transform="translate(112,164)"/>
<path d="M0 0 C28.05 0 56.1 0 85 0 C85 1.32 85 2.64 85 4 C56.95 4 28.9 4 0 4 C0 2.68 0 1.36 0 0 Z " fill="#0000DA" transform="translate(88,44)"/>
<path d="M0 0 C27.72 0 55.44 0 84 0 C84 1.32 84 2.64 84 4 C56.28 4 28.56 4 0 4 C0 2.68 0 1.36 0 0 Z " fill="#0000B5" transform="translate(152,124)"/>
<path d="M0 0 C26.73 0 53.46 0 81 0 C81 1.32 81 2.64 81 4 C54.27 4 27.54 4 0 4 C0 2.68 0 1.36 0 0 Z " fill="#0000B9" transform="translate(92,48)"/>
<path d="M0 0 C2.64 0 5.28 0 8 0 C8 1.32 8 2.64 8 4 C9.32 4 10.64 4 12 4 C12 2.68 12 1.36 12 0 C17.28 0 22.56 0 28 0 C28 3.96 28 7.92 28 12 C18.76 12 9.52 12 0 12 C0 8.04 0 4.08 0 0 Z " fill="#CBA47C" transform="translate(28,140)"/>
<path d="M0 0 C10.56 0 21.12 0 32 0 C32 1.32 32 2.64 32 4 C29.36 4 26.72 4 24 4 C24 5.32 24 6.64 24 8 C22.68 8 21.36 8 20 8 C20 15.92 20 23.84 20 32 C18.68 32 17.36 32 16 32 C16 24.08 16 16.16 16 8 C10.72 8 5.44 8 0 8 C0 5.36 0 2.72 0 0 Z " fill="#2EBA26" transform="translate(56,128)"/>
<path d="M0 0 C26.4 0 52.8 0 80 0 C80 1.32 80 2.64 80 4 C53.6 4 27.2 4 0 4 C0 2.68 0 1.36 0 0 Z " fill="#00007D" transform="translate(156,128)"/>
<path d="M0 0 C14.52 0 29.04 0 44 0 C44 1.32 44 2.64 44 4 C49.28 4 54.56 4 60 4 C60 5.32 60 6.64 60 8 C54.39 8 48.78 8 43 8 C43 7.01 43 6.02 43 5 C29.14 5 15.28 5 1 5 C1 5.99 1 6.98 1 8 C-0.65 8 -2.3 8 -4 8 C-4 6.68 -4 5.36 -4 4 C-2.68 4 -1.36 4 0 4 C0 2.68 0 1.36 0 0 Z " fill="#C09F77" transform="translate(92,128)"/>
<path d="M0 0 C25.08 0 50.16 0 76 0 C76 1.32 76 2.64 76 4 C50.92 4 25.84 4 0 4 C0 2.68 0 1.36 0 0 Z " fill="#00007E" transform="translate(160,152)"/>
<path d="M0 0 C25.08 0 50.16 0 76 0 C76 1.32 76 2.64 76 4 C50.92 4 25.84 4 0 4 C0 2.68 0 1.36 0 0 Z " fill="#0000B5" transform="translate(160,148)"/>
<path d="M0 0 C25.08 0 50.16 0 76 0 C76 1.32 76 2.64 76 4 C50.92 4 25.84 4 0 4 C0 2.68 0 1.36 0 0 Z " fill="#00007E" transform="translate(160,144)"/>
<path d="M0 0 C25.08 0 50.16 0 76 0 C76 1.32 76 2.64 76 4 C50.92 4 25.84 4 0 4 C0 2.68 0 1.36 0 0 Z " fill="#0000B5" transform="translate(160,140)"/>
<path d="M0 0 C25.08 0 50.16 0 76 0 C76 1.32 76 2.64 76 4 C50.92 4 25.84 4 0 4 C0 2.68 0 1.36 0 0 Z " fill="#0000B5" transform="translate(160,132)"/>
<path d="M0 0 C8.25 0 16.5 0 25 0 C25 3.96 25 7.92 25 12 C16.75 12 8.5 12 0 12 C0 8.04 0 4.08 0 0 Z " fill="#0200B4" transform="translate(183,72)"/>
<path d="M0 0 C8.25 0 16.5 0 25 0 C25 3.96 25 7.92 25 12 C16.75 12 8.5 12 0 12 C0 8.04 0 4.08 0 0 Z " fill="#0002B4" transform="translate(183,56)"/>
<path d="M0 0 C24.09 0 48.18 0 73 0 C73 1.32 73 2.64 73 4 C48.91 4 24.82 4 0 4 C0 2.68 0 1.36 0 0 Z " fill="#0000B9" transform="translate(100,72)"/>
<path d="M0 0 C24.09 0 48.18 0 73 0 C73 1.32 73 2.64 73 4 C48.91 4 24.82 4 0 4 C0 2.68 0 1.36 0 0 Z " fill="#0000B9" transform="translate(100,64)"/>
<path d="M0 0 C24.09 0 48.18 0 73 0 C73 1.32 73 2.64 73 4 C48.91 4 24.82 4 0 4 C0 2.68 0 1.36 0 0 Z " fill="#0000B9" transform="translate(100,56)"/>
<path d="M0 0 C1.32 0 2.64 0 4 0 C4 1.32 4 2.64 4 4 C25.12 4 46.24 4 68 4 C68 5.32 68 6.64 68 8 C45.56 8 23.12 8 0 8 C0 5.36 0 2.72 0 0 Z " fill="#C1A17B" transform="translate(160,156)"/>
<path d="M0 0 C23.76 0 47.52 0 72 0 C72 1.32 72 2.64 72 4 C48.24 4 24.48 4 0 4 C0 2.68 0 1.36 0 0 Z " fill="#0504B5" transform="translate(164,156)"/>
<path d="M0 0 C1.32 0 2.64 0 4 0 C4 1.32 4 2.64 4 4 C5.32 4 6.64 4 8 4 C8 2.68 8 1.36 8 0 C9.32 0 10.64 0 12 0 C12 1.32 12 2.64 12 4 C13.32 4 14.64 4 16 4 C16 2.68 16 1.36 16 0 C17.32 0 18.64 0 20 0 C20 5.28 20 10.56 20 16 C13.4 16 6.8 16 0 16 C0 10.72 0 5.44 0 0 Z " fill="#F9F9F9" transform="translate(104,140)"/>
<path d="M0 0 C1.32 0 2.64 0 4 0 C4 22.44 4 44.88 4 68 C2.68 68 1.36 68 0 68 C0 45.56 0 23.12 0 0 Z " fill="#0E0EA0" transform="translate(176,36)"/>
<path d="M0 0 C28.71 0 57.42 0 87 0 C87 0.99 87 1.98 87 3 C72.645 3.165 72.645 3.165 0 4 C0 2.68 0 1.36 0 0 Z " fill="#07B804" transform="translate(140,164)"/>
<path d="M0 0 C21.12 0 42.24 0 64 0 C64 1.32 64 2.64 64 4 C42.88 4 21.76 4 0 4 C0 2.68 0 1.36 0 0 Z " fill="#00B500" transform="translate(164,180)"/>
<path d="M0 0 C21.12 0 42.24 0 64 0 C64 1.32 64 2.64 64 4 C42.88 4 21.76 4 0 4 C0 2.68 0 1.36 0 0 Z " fill="#00B500" transform="translate(144,172)"/>
<path d="M0 0 C6.6 0 13.2 0 20 0 C20 3.96 20 7.92 20 12 C13.4 12 6.8 12 0 12 C0 8.04 0 4.08 0 0 Z " fill="#0202B4" transform="translate(216,108)"/>
<path d="M0 0 C10.56 0 21.12 0 32 0 C32 2.64 32 5.28 32 8 C30.68 8 29.36 8 28 8 C28 9.32 28 10.64 28 12 C25.36 12 22.72 12 20 12 C20 10.68 20 9.36 20 8 C21.32 8 22.64 8 24 8 C24 6.68 24 5.36 24 4 C18.72 4 13.44 4 8 4 C8 5.32 8 6.64 8 8 C6.68 8 5.36 8 4 8 C4 9.32 4 10.64 4 12 C2.68 12 1.36 12 0 12 C0 8.04 0 4.08 0 0 Z " fill="#7F7F83" transform="translate(48,64)"/>
<path d="M0 0 C6.27 0 12.54 0 19 0 C19 3.96 19 7.92 19 12 C12.73 12 6.46 12 0 12 C0 8.04 0 4.08 0 0 Z " fill="#0000B5" transform="translate(217,72)"/>
<path d="M0 0 C6.27 0 12.54 0 19 0 C19 3.96 19 7.92 19 12 C12.73 12 6.46 12 0 12 C0 8.04 0 4.08 0 0 Z " fill="#0000B5" transform="translate(20,72)"/>
<path d="M0 0 C6.27 0 12.54 0 19 0 C19 3.96 19 7.92 19 12 C12.73 12 6.46 12 0 12 C0 8.04 0 4.08 0 0 Z " fill="#0000B5" transform="translate(217,56)"/>
<path d="M0 0 C6.27 0 12.54 0 19 0 C19 3.96 19 7.92 19 12 C12.73 12 6.46 12 0 12 C0 8.04 0 4.08 0 0 Z " fill="#0000B5" transform="translate(20,56)"/>
<path d="M0 0 C6.27 0 12.54 0 19 0 C19 3.96 19 7.92 19 12 C12.73 12 6.46 12 0 12 C0 8.04 0 4.08 0 0 Z " fill="#0000B5" transform="translate(217,40)"/>
<path d="M0 0 C6.27 0 12.54 0 19 0 C19 3.96 19 7.92 19 12 C12.73 12 6.46 12 0 12 C0 8.04 0 4.08 0 0 Z " fill="#0000B5" transform="translate(20,40)"/>
<path d="M0 0 C17.16 0 34.32 0 52 0 C52 1.32 52 2.64 52 4 C41.44 4 30.88 4 20 4 C20 5.32 20 6.64 20 8 C18.68 8 17.36 8 16 8 C16 6.68 16 5.36 16 4 C10.72 4 5.44 4 0 4 C0 2.68 0 1.36 0 0 Z " fill="#097C08" transform="translate(56,168)"/>
<path d="M0 0 C1.65 0 3.3 0 5 0 C5 9.57 5 19.14 5 29 C3.35 29 1.7 29 0 29 C0 24.38 0 19.76 0 15 C-8.25 15 -16.5 15 -25 15 C-25 14.01 -25 13.02 -25 12 C-16.75 12 -8.5 12 0 12 C0 8.04 0 4.08 0 0 Z " fill="#0300B5" transform="translate(208,72)"/>
<path d="M0 0 C15.84 0 31.68 0 48 0 C48 1.32 48 2.64 48 4 C42.72 4 37.44 4 32 4 C32 5.32 32 6.64 32 8 C30.68 8 29.36 8 28 8 C28 6.68 28 5.36 28 4 C18.76 4 9.52 4 0 4 C0 2.68 0 1.36 0 0 Z " fill="#0B770B" transform="translate(180,168)"/>
<path d="M0 0 C9.24 0 18.48 0 28 0 C28 2.64 28 5.28 28 8 C24.04 8 20.08 8 16 8 C16 6.68 16 5.36 16 4 C14.68 4 13.36 4 12 4 C12 5.32 12 6.64 12 8 C8.04 8 4.08 8 0 8 C0 5.36 0 2.72 0 0 Z " fill="#C9A27D" transform="translate(28,120)"/>
<path d="M0 0 C3.96 0 7.92 0 12 0 C12 1.32 12 2.64 12 4 C13.32 4 14.64 4 16 4 C16 6.64 16 9.28 16 12 C9.4 12 2.8 12 -4 12 C-4 10.68 -4 9.36 -4 8 C-2.68 8 -1.36 8 0 8 C0 5.36 0 2.72 0 0 Z " fill="#0404B9" transform="translate(80,64)"/>
<path d="M0 0 C7.92 0 15.84 0 24 0 C24 1.32 24 2.64 24 4 C26.64 4 29.28 4 32 4 C32 5.32 32 6.64 32 8 C28.04 8 24.08 8 20 8 C20 6.68 20 5.36 20 4 C17.36 4 14.72 4 12 4 C12 5.32 12 6.64 12 8 C9.36 8 6.72 8 4 8 C4 6.68 4 5.36 4 4 C2.68 4 1.36 4 0 4 C0 2.68 0 1.36 0 0 Z " fill="#0504B6" transform="translate(76,156)"/>
<path d="M0 0 C4.29 0 8.58 0 13 0 C13 4.29 13 8.58 13 13 C8.71 13 4.42 13 0 13 C0 8.71 0 4.42 0 0 Z " fill="#000089" transform="translate(183,88)"/>
<path d="M0 0 C16.83 0.33 33.66 0.66 51 1 C51 1.66 51 2.32 51 3 C47.37 3 43.74 3 40 3 C40 4.65 40 6.3 40 8 C38.68 8 37.36 8 36 8 C36 6.68 36 5.36 36 4 C24.12 4 12.24 4 0 4 C0 2.68 0 1.36 0 0 Z " fill="#0A790A" transform="translate(56,184)"/>
<path d="M0 0 C1.32 0 2.64 0 4 0 C4 1.32 4 2.64 4 4 C5.32 4 6.64 4 8 4 C8 7.96 8 11.92 8 16 C4.04 16 0.08 16 -4 16 C-4 12.04 -4 8.08 -4 4 C-2.68 4 -1.36 4 0 4 C0 2.68 0 1.36 0 0 Z " fill="#C38B87" transform="translate(112,180)"/>
<path d="M0 0 C13.2 0 26.4 0 40 0 C40 1.32 40 2.64 40 4 C26.8 4 13.6 4 0 4 C0 2.68 0 1.36 0 0 Z " fill="#00B500" transform="translate(120,180)"/>
<path d="M0 0 C7.59 0 15.18 0 23 0 C23 1.32 23 2.64 23 4 C21.68 4 20.36 4 19 4 C19 5.32 19 6.64 19 8 C9.76 8 0.52 8 -9 8 C-9 6.68 -9 5.36 -9 4 C-2.104 3.094 4.612 2.878 11.562 2.938 C12.067 2.94 12.067 2.94 14.619 2.951 C17.079 2.963 19.54 2.979 22 3 C22 2.34 22 1.68 22 1 C14.74 1 7.48 1 0 1 C0 0.67 0 0.34 0 0 Z " fill="#0504B2" transform="translate(129,156)"/>
<path d="M0 0 C11.88 0 23.76 0 36 0 C36 1.32 36 2.64 36 4 C24.12 4 12.24 4 0 4 C0 2.68 0 1.36 0 0 Z " fill="#01B501" transform="translate(56,188)"/>
<path d="M0 0 C7.92 0 15.84 0 24 0 C23.67 2.31 23.34 4.62 23 7 C15.41 7.33 7.82 7.66 0 8 C0 5.36 0 2.72 0 0 Z " fill="#010192" transform="translate(128,152)"/>
<path d="M0 0 C3.96 0 7.92 0 12 0 C12 3.96 12 7.92 12 12 C8.04 12 4.08 12 0 12 C0 8.04 0 4.08 0 0 Z " fill="#F5F506" transform="translate(196,88)"/>
<path d="M0 0 C3.96 0 7.92 0 12 0 C12 3.96 12 7.92 12 12 C8.04 12 4.08 12 0 12 C0 8.04 0 4.08 0 0 Z " fill="#F50006" transform="translate(196,72)"/>
<path d="M0 0 C5.28 0 10.56 0 16 0 C16 1.32 16 2.64 16 4 C14.68 4 13.36 4 12 4 C12 6.64 12 9.28 12 12 C10.68 12 9.36 12 8 12 C8 10.68 8 9.36 8 8 C4.04 8 0.08 8 -4 8 C-4 6.68 -4 5.36 -4 4 C-2.68 4 -1.36 4 0 4 C0 2.68 0 1.36 0 0 Z " fill="#2525BA" transform="translate(56,68)"/>
<path d="M0 0 C3.96 0 7.92 0 12 0 C12 3.96 12 7.92 12 12 C8.04 12 4.08 12 0 12 C0 8.04 0 4.08 0 0 Z " fill="#00F506" transform="translate(196,56)"/>
<path d="M0 0 C3.96 0 7.92 0 12 0 C12 3.96 12 7.92 12 12 C8.04 12 4.08 12 0 12 C0 8.04 0 4.08 0 0 Z " fill="#55555B" transform="translate(196,40)"/>
<path d="M0 0 C21.12 0 42.24 0 64 0 C64 1.32 64 2.64 64 4 C58.39 4 52.78 4 47 4 C47 3.01 47 2.02 47 1 C33.14 1 19.28 1 5 1 C5 1.99 5 2.98 5 4 C3.35 4 1.7 4 0 4 C0 2.68 0 1.36 0 0 Z " fill="#443DB2" transform="translate(88,132)"/>
<path d="M0 0 C9.24 0 18.48 0 28 0 C28 1.32 28 2.64 28 4 C21.4 4 14.8 4 8 4 C8 5.32 8 6.64 8 8 C6.68 8 5.36 8 4 8 C4 6.68 4 5.36 4 4 C2.68 4 1.36 4 0 4 C0 2.68 0 1.36 0 0 Z " fill="#BF9D79" transform="translate(28,184)"/>
<path d="M0 0 C9.24 0 18.48 0 28 0 C28 1.32 28 2.64 28 4 C24.04 4 20.08 4 16 4 C16 5.32 16 6.64 16 8 C14.68 8 13.36 8 12 8 C12 6.68 12 5.36 12 4 C8.04 4 4.08 4 0 4 C0 2.68 0 1.36 0 0 Z " fill="#BF9D79" transform="translate(28,152)"/>
<path d="M0 0 C1.32 0 2.64 0 4 0 C4 1.32 4 2.64 4 4 C7.96 4 11.92 4 16 4 C16 5.32 16 6.64 16 8 C6.76 8 -2.48 8 -12 8 C-12 6.68 -12 5.36 -12 4 C-8.04 4 -4.08 4 0 4 C0 2.68 0 1.36 0 0 Z " fill="#AF9172" transform="translate(40,124)"/>
<path d="M0 0 C9.24 0 18.48 0 28 0 C28 1.32 28 2.64 28 4 C18.76 4 9.52 4 0 4 C0 2.68 0 1.36 0 0 Z " fill="#087608" transform="translate(200,184)"/>
<path d="M0 0 C9.24 0 18.48 0 28 0 C28 1.32 28 2.64 28 4 C18.76 4 9.52 4 0 4 C0 2.68 0 1.36 0 0 Z " fill="#E2CDB3" transform="translate(28,180)"/>
<path d="M0 0 C9.24 0 18.48 0 28 0 C28 1.32 28 2.64 28 4 C18.76 4 9.52 4 0 4 C0 2.68 0 1.36 0 0 Z " fill="#AB8D70" transform="translate(28,176)"/>
<path d="M0 0 C9.24 0 18.48 0 28 0 C28 1.32 28 2.64 28 4 C18.76 4 9.52 4 0 4 C0 2.68 0 1.36 0 0 Z " fill="#DDC8AE" transform="translate(28,172)"/>
<path d="M0 0 C9.24 0 18.48 0 28 0 C28 1.32 28 2.64 28 4 C18.76 4 9.52 4 0 4 C0 2.68 0 1.36 0 0 Z " fill="#CBA57C" transform="translate(28,168)"/>
<path d="M0 0 C9.24 0 18.48 0 28 0 C28 1.32 28 2.64 28 4 C18.76 4 9.52 4 0 4 C0 2.68 0 1.36 0 0 Z " fill="#DEC9AE" transform="translate(28,164)"/>
<path d="M0 0 C9.24 0 18.48 0 28 0 C28 1.32 28 2.64 28 4 C18.76 4 9.52 4 0 4 C0 2.68 0 1.36 0 0 Z " fill="#E3CEB3" transform="translate(28,148)"/>
<path d="M0 0 C9.24 0 18.48 0 28 0 C28 1.32 28 2.64 28 4 C18.76 4 9.52 4 0 4 C0 2.68 0 1.36 0 0 Z " fill="#DEC9AE" transform="translate(28,132)"/>
<path d="M0 0 C3.96 0 7.92 0 12 0 C12 1.32 12 2.64 12 4 C10.68 4 9.36 4 8 4 C8 6.64 8 9.28 8 12 C5.36 12 2.72 12 0 12 C0 8.04 0 4.08 0 0 Z " fill="#0404D9" transform="translate(64,44)"/>
<path d="M0 0 C14.19 0 28.38 0 43 0 C43 2.64 43 5.28 43 8 C39.04 8 35.08 8 31 8 C31 6.35 31 4.7 31 3 C34.63 3 38.26 3 42 3 C42 2.34 42 1.68 42 1 C28.14 1 14.28 1 0 1 C0 0.67 0 0.34 0 0 Z " fill="#018201" transform="translate(65,184)"/>
<path d="M0 0 C2.64 0 5.28 0 8 0 C8 2.64 8 5.28 8 8 C2.72 8 -2.56 8 -8 8 C-8 6.68 -8 5.36 -8 4 C-5.36 4 -2.72 4 0 4 C0 2.68 0 1.36 0 0 Z " fill="#0BB708" transform="translate(88,160)"/>
<path d="M0 0 C7.92 0 15.84 0 24 0 C24 1.32 24 2.64 24 4 C16.08 4 8.16 4 0 4 C0 2.68 0 1.36 0 0 Z " fill="#03B602" transform="translate(56,164)"/>
<path d="M0 0 C7.92 0 15.84 0 24 0 C24 1.32 24 2.64 24 4 C16.08 4 8.16 4 0 4 C0 2.68 0 1.36 0 0 Z " fill="#106F10" transform="translate(56,160)"/>
<path d="M0 0 C7.92 0 15.84 0 24 0 C24 1.32 24 2.64 24 4 C16.08 4 8.16 4 0 4 C0 2.68 0 1.36 0 0 Z " fill="#01017E" transform="translate(76,152)"/>
<path d="M0 0 C7.92 0 15.84 0 24 0 C24 1.32 24 2.64 24 4 C16.08 4 8.16 4 0 4 C0 2.68 0 1.36 0 0 Z " fill="#0202B6" transform="translate(128,148)"/>
<path d="M0 0 C7.92 0 15.84 0 24 0 C24 1.32 24 2.64 24 4 C16.08 4 8.16 4 0 4 C0 2.68 0 1.36 0 0 Z " fill="#0202B6" transform="translate(76,148)"/>
<path d="M0 0 C7.92 0 15.84 0 24 0 C24 1.32 24 2.64 24 4 C16.08 4 8.16 4 0 4 C0 2.68 0 1.36 0 0 Z " fill="#01017E" transform="translate(128,144)"/>
<path d="M0 0 C7.92 0 15.84 0 24 0 C24 1.32 24 2.64 24 4 C16.08 4 8.16 4 0 4 C0 2.68 0 1.36 0 0 Z " fill="#01017E" transform="translate(76,144)"/>
<path d="M0 0 C1.32 0 2.64 0 4 0 C4 7.92 4 15.84 4 24 C2.68 24 1.36 24 0 24 C0 16.08 0 8.16 0 0 Z " fill="#CBB493" transform="translate(152,136)"/>
<path d="M0 0 C7.92 0 15.84 0 24 0 C24 1.32 24 2.64 24 4 C16.08 4 8.16 4 0 4 C0 2.68 0 1.36 0 0 Z " fill="#0202B6" transform="translate(128,140)"/>
<path d="M0 0 C7.92 0 15.84 0 24 0 C24 1.32 24 2.64 24 4 C16.08 4 8.16 4 0 4 C0 2.68 0 1.36 0 0 Z " fill="#0202B6" transform="translate(76,140)"/>
<path d="M0 0 C1.32 0 2.64 0 4 0 C4 7.92 4 15.84 4 24 C2.68 24 1.36 24 0 24 C0 16.08 0 8.16 0 0 Z " fill="#CBB493" transform="translate(72,136)"/>
<path d="M0 0 C7.92 0 15.84 0 24 0 C24 1.32 24 2.64 24 4 C16.08 4 8.16 4 0 4 C0 2.68 0 1.36 0 0 Z " fill="#0A0981" transform="translate(128,136)"/>
<path d="M0 0 C7.92 0 15.84 0 24 0 C24 1.32 24 2.64 24 4 C16.08 4 8.16 4 0 4 C0 2.68 0 1.36 0 0 Z " fill="#088008" transform="translate(56,120)"/>
<path d="M0 0 C1.32 0 2.64 0 4 0 C4 1.32 4 2.64 4 4 C5.32 4 6.64 4 8 4 C8 5.32 8 6.64 8 8 C9.32 8 10.64 8 12 8 C12 9.32 12 10.64 12 12 C8.04 12 4.08 12 0 12 C0 8.04 0 4.08 0 0 Z " fill="#B7B7BC" transform="translate(84,44)"/>
<path d="M0 0 C1.32 0 2.64 0 4 0 C4 3.96 4 7.92 4 12 C0.04 12 -3.92 12 -8 12 C-8 10.68 -8 9.36 -8 8 C-6.68 8 -5.36 8 -4 8 C-4 6.68 -4 5.36 -4 4 C-2.68 4 -1.36 4 0 4 C0 2.68 0 1.36 0 0 Z " fill="#B7B7BC" transform="translate(60,44)"/>
<path d="M0 0 C8.58 0 17.16 0 26 0 C26 0.99 26 1.98 26 3 C17.401 4.563 8.599 4.563 0 3 C0 2.01 0 1.02 0 0 Z " fill="#D9D9D9" transform="translate(101,156)"/>
<path d="M0 0 C9.24 0 18.48 0 28 0 C27.67 1.32 27.34 2.64 27 4 C18.09 4 9.18 4 0 4 C0 2.68 0 1.36 0 0 Z " fill="#AAABB1" transform="translate(100,136)"/>
<path d="M0 0 C6.93 0 13.86 0 21 0 C21 1.32 21 2.64 21 4 C14.07 4 7.14 4 0 4 C0 2.68 0 1.36 0 0 Z " fill="#1616B0" transform="translate(43,80)"/>
<path d="M0 0 C7.26 0 14.52 0 22 0 C22 0.66 22 1.32 22 2 C19.082 3.667 17.024 4.243 13.672 4.195 C13.272 4.192 13.272 4.192 11.25 4.176 C10.425 4.159 9.6 4.142 8.75 4.125 C7.91 4.116 7.069 4.107 6.203 4.098 C4.135 4.074 2.068 4.038 0 4 C0 2.68 0 1.36 0 0 Z " fill="#008800" transform="translate(57,129)"/>
<path d="M0 0 C6.6 0 13.2 0 20 0 C20 1.32 20 2.64 20 4 C13.4 4 6.8 4 0 4 C0 2.68 0 1.36 0 0 Z " fill="#E3CEB2" transform="translate(36,188)"/>
<path d="M0 0 C6.6 0 13.2 0 20 0 C20 1.32 20 2.64 20 4 C13.4 4 6.8 4 0 4 C0 2.68 0 1.36 0 0 Z " fill="#01B501" transform="translate(120,172)"/>
<path d="M0 0 C1.32 0 2.64 0 4 0 C4 1.32 4 2.64 4 4 C5.32 4 6.64 4 8 4 C8 5.32 8 6.64 8 8 C6.68 8 5.36 8 4 8 C4 9.32 4 10.64 4 12 C2.68 12 1.36 12 0 12 C0 10.68 0 9.36 0 8 C-1.32 8 -2.64 8 -4 8 C-4 6.68 -4 5.36 -4 4 C-2.68 4 -1.36 4 0 4 C0 2.68 0 1.36 0 0 Z " fill="#89BA89" transform="translate(112,164)"/>
<path d="M0 0 C6.27 0 12.54 0 19 0 C19 1.32 19 2.64 19 4 C12.73 4 6.46 4 0 4 C0 2.68 0 1.36 0 0 Z " fill="#00007D" transform="translate(217,112)"/>
<path d="M0 0 C6.27 0 12.54 0 19 0 C19 1.32 19 2.64 19 4 C12.73 4 6.46 4 0 4 C0 2.68 0 1.36 0 0 Z " fill="#00007D" transform="translate(20,112)"/>
<path d="M0 0 C6.27 0 12.54 0 19 0 C19 1.32 19 2.64 19 4 C12.73 4 6.46 4 0 4 C0 2.68 0 1.36 0 0 Z " fill="#00007D" transform="translate(217,96)"/>
<path d="M0 0 C6.27 0 12.54 0 19 0 C19 1.32 19 2.64 19 4 C12.73 4 6.46 4 0 4 C0 2.68 0 1.36 0 0 Z " fill="#00007D" transform="translate(20,96)"/>
<path d="M0 0 C6.27 0 12.54 0 19 0 C19 1.32 19 2.64 19 4 C12.73 4 6.46 4 0 4 C0 2.68 0 1.36 0 0 Z " fill="#00007D" transform="translate(217,88)"/>
<path d="M0 0 C6.27 0 12.54 0 19 0 C19 1.32 19 2.64 19 4 C12.73 4 6.46 4 0 4 C0 2.68 0 1.36 0 0 Z " fill="#00007D" transform="translate(20,88)"/>
<path d="M0 0 C6.27 0 12.54 0 19 0 C19 1.32 19 2.64 19 4 C12.73 4 6.46 4 0 4 C0 2.68 0 1.36 0 0 Z " fill="#0000B5" transform="translate(217,84)"/>
<path d="M0 0 C6.27 0 12.54 0 19 0 C19 1.32 19 2.64 19 4 C12.73 4 6.46 4 0 4 C0 2.68 0 1.36 0 0 Z " fill="#0000B5" transform="translate(20,84)"/>
<path d="M0 0 C6.27 0 12.54 0 19 0 C19 1.32 19 2.64 19 4 C12.73 4 6.46 4 0 4 C0 2.68 0 1.36 0 0 Z " fill="#00007D" transform="translate(217,80)"/>
<path d="M0 0 C6.27 0 12.54 0 19 0 C19 1.32 19 2.64 19 4 C12.73 4 6.46 4 0 4 C0 2.68 0 1.36 0 0 Z " fill="#00007D" transform="translate(20,80)"/>
<path d="M0 0 C6.27 0 12.54 0 19 0 C19 1.32 19 2.64 19 4 C12.73 4 6.46 4 0 4 C0 2.68 0 1.36 0 0 Z " fill="#00007D" transform="translate(217,72)"/>
<path d="M0 0 C6.27 0 12.54 0 19 0 C19 1.32 19 2.64 19 4 C12.73 4 6.46 4 0 4 C0 2.68 0 1.36 0 0 Z " fill="#00007D" transform="translate(20,72)"/>
<path d="M0 0 C6.27 0 12.54 0 19 0 C19 1.32 19 2.64 19 4 C12.73 4 6.46 4 0 4 C0 2.68 0 1.36 0 0 Z " fill="#0000B5" transform="translate(217,68)"/>
<path d="M0 0 C6.27 0 12.54 0 19 0 C19 1.32 19 2.64 19 4 C12.73 4 6.46 4 0 4 C0 2.68 0 1.36 0 0 Z " fill="#0000B5" transform="translate(20,68)"/>
<path d="M0 0 C6.27 0 12.54 0 19 0 C19 1.32 19 2.64 19 4 C12.73 4 6.46 4 0 4 C0 2.68 0 1.36 0 0 Z " fill="#00007D" transform="translate(217,64)"/>
<path d="M0 0 C6.27 0 12.54 0 19 0 C19 1.32 19 2.64 19 4 C12.73 4 6.46 4 0 4 C0 2.68 0 1.36 0 0 Z " fill="#00007D" transform="translate(20,64)"/>
<path d="M0 0 C6.27 0 12.54 0 19 0 C19 1.32 19 2.64 19 4 C12.73 4 6.46 4 0 4 C0 2.68 0 1.36 0 0 Z " fill="#00007D" transform="translate(217,56)"/>
<path d="M0 0 C6.27 0 12.54 0 19 0 C19 1.32 19 2.64 19 4 C12.73 4 6.46 4 0 4 C0 2.68 0 1.36 0 0 Z " fill="#00007D" transform="translate(20,56)"/>
<path d="M0 0 C6.27 0 12.54 0 19 0 C19 1.32 19 2.64 19 4 C12.73 4 6.46 4 0 4 C0 2.68 0 1.36 0 0 Z " fill="#0000B5" transform="translate(217,52)"/>
<path d="M0 0 C6.27 0 12.54 0 19 0 C19 1.32 19 2.64 19 4 C12.73 4 6.46 4 0 4 C0 2.68 0 1.36 0 0 Z " fill="#0000B5" transform="translate(20,52)"/>
<path d="M0 0 C6.27 0 12.54 0 19 0 C19 1.32 19 2.64 19 4 C12.73 4 6.46 4 0 4 C0 2.68 0 1.36 0 0 Z " fill="#00007D" transform="translate(217,48)"/>
<path d="M0 0 C6.27 0 12.54 0 19 0 C19 1.32 19 2.64 19 4 C12.73 4 6.46 4 0 4 C0 2.68 0 1.36 0 0 Z " fill="#00007D" transform="translate(20,48)"/>
<path d="M0 0 C6.27 0 12.54 0 19 0 C19 1.32 19 2.64 19 4 C12.73 4 6.46 4 0 4 C0 2.68 0 1.36 0 0 Z " fill="#00007D" transform="translate(217,40)"/>
<path d="M0 0 C6.27 0 12.54 0 19 0 C19 1.32 19 2.64 19 4 C12.73 4 6.46 4 0 4 C0 2.68 0 1.36 0 0 Z " fill="#00007D" transform="translate(20,40)"/>
<path d="M0 0 C5.61 0 11.22 0 17 0 C17 1.32 17 2.64 17 4 C11.39 4 5.78 4 0 4 C0 2.68 0 1.36 0 0 Z " fill="#0202D9" transform="translate(43,44)"/>
<path d="M0 0 C10.56 0 21.12 0 32 0 C32 1.32 32 2.64 32 4 C28.04 4 24.08 4 20 4 C20.99 3.67 21.98 3.34 23 3 C23 2.34 23 1.68 23 1 C15.74 1 8.48 1 1 1 C0.67 1.99 0.34 2.98 0 4 C0 2.68 0 1.36 0 0 Z " fill="#088205" transform="translate(56,128)"/>
<path d="M0 0 C1.65 0 3.3 0 5 0 C5 4.29 5 8.58 5 13 C3.35 13 1.7 13 0 13 C0 8.71 0 4.42 0 0 Z " fill="#00009D" transform="translate(208,88)"/>
<path d="M0 0 C1.32 0 2.64 0 4 0 C4 1.32 4 2.64 4 4 C6.64 4 9.28 4 12 4 C12 5.32 12 6.64 12 8 C8.04 8 4.08 8 0 8 C0 5.36 0 2.72 0 0 Z " fill="#B5B9B2" transform="translate(108,188)"/>
<path d="M0 0 C5.28 0 10.56 0 16 0 C16 1.32 16 2.64 16 4 C10.72 4 5.44 4 0 4 C0 2.68 0 1.36 0 0 Z " fill="#02B502" transform="translate(120,188)"/>
<path d="M0 0 C5.28 0 10.56 0 16 0 C16 1.32 16 2.64 16 4 C10.72 4 5.44 4 0 4 C0 2.68 0 1.36 0 0 Z " fill="#00B401" transform="translate(212,172)"/>
<path d="M0 0 C5.28 0 10.56 0 16 0 C16 1.32 16 2.64 16 4 C10.72 4 5.44 4 0 4 C0 2.68 0 1.36 0 0 Z " fill="#02B501" transform="translate(56,172)"/>
<path d="M0 0 C5.28 0 10.56 0 16 0 C16 1.32 16 2.64 16 4 C10.72 4 5.44 4 0 4 C0 2.68 0 1.36 0 0 Z " fill="#D6CCB8" transform="translate(96,164)"/>
<path d="M0 0 C5.28 0 10.56 0 16 0 C16 1.32 16 2.64 16 4 C10.72 4 5.44 4 0 4 C0 2.68 0 1.36 0 0 Z " fill="#03B502" transform="translate(56,156)"/>
<path d="M0 0 C5.28 0 10.56 0 16 0 C16 1.32 16 2.64 16 4 C10.72 4 5.44 4 0 4 C0 2.68 0 1.36 0 0 Z " fill="#037F01" transform="translate(56,152)"/>
<path d="M0 0 C5.28 0 10.56 0 16 0 C16 1.32 16 2.64 16 4 C10.72 4 5.44 4 0 4 C0 2.68 0 1.36 0 0 Z " fill="#03B602" transform="translate(56,148)"/>
<path d="M0 0 C5.28 0 10.56 0 16 0 C16 1.32 16 2.64 16 4 C10.72 4 5.44 4 0 4 C0 2.68 0 1.36 0 0 Z " fill="#037F01" transform="translate(56,144)"/>
<path d="M0 0 C5.28 0 10.56 0 16 0 C16 1.32 16 2.64 16 4 C10.72 4 5.44 4 0 4 C0 2.68 0 1.36 0 0 Z " fill="#E2CEB2" transform="translate(40,140)"/>
<path d="M0 0 C5.28 0 10.56 0 16 0 C16 1.32 16 2.64 16 4 C10.72 4 5.44 4 0 4 C0 2.68 0 1.36 0 0 Z " fill="#027E01" transform="translate(56,136)"/>
<path d="M0 0 C5.28 0 10.56 0 16 0 C16 1.32 16 2.64 16 4 C10.72 4 5.44 4 0 4 C0 2.68 0 1.36 0 0 Z " fill="#D3C3B0" transform="translate(136,132)"/>
<path d="M0 0 C5.28 0 10.56 0 16 0 C16 1.32 16 2.64 16 4 C10.72 4 5.44 4 0 4 C0 2.68 0 1.36 0 0 Z " fill="#0707D7" transform="translate(56,68)"/>
<path d="M0 0 C2.64 0 5.28 0 8 0 C8 3.96 8 7.92 8 12 C6.68 12 5.36 12 4 12 C4 9.36 4 6.72 4 4 C2.68 4 1.36 4 0 4 C0 2.68 0 1.36 0 0 Z " fill="#888893" transform="translate(92,64)"/>
<path d="M0 0 C1.32 0 2.64 0 4 0 C4 3.96 4 7.92 4 12 C1.36 12 -1.28 12 -4 12 C-4 10.68 -4 9.36 -4 8 C-2.68 8 -1.36 8 0 8 C0 5.36 0 2.72 0 0 Z " fill="#0A0AD7" transform="translate(80,44)"/>
<path d="M0 0 C1.32 0 2.64 0 4 0 C4 2.64 4 5.28 4 8 C2.68 8 1.36 8 0 8 C0 9.32 0 10.64 0 12 C-1.32 12 -2.64 12 -4 12 C-4 9.36 -4 6.72 -4 4 C-2.68 4 -1.36 4 0 4 C0 2.68 0 1.36 0 0 Z " fill="#9494A1" transform="translate(76,44)"/>
<path d="M0 0 C4.29 0 8.58 0 13 0 C13 3.96 13 7.92 13 12 C12.67 12 12.34 12 12 12 C12 9.36 12 6.72 12 4 C8.04 4 4.08 4 0 4 C0 2.68 0 1.36 0 0 Z " fill="#05057E" transform="translate(183,88)"/>
<path d="M0 0 C1.65 0 3.3 0 5 0 C5 3.96 5 7.92 5 12 C3.35 12 1.7 12 0 12 C0 8.04 0 4.08 0 0 Z " fill="#0600B1" transform="translate(208,72)"/>
<path d="M0 0 C4.95 0 9.9 0 15 0 C15 1.32 15 2.64 15 4 C10.05 4 5.1 4 0 4 C0 2.68 0 1.36 0 0 Z " fill="#0202D9" transform="translate(81,68)"/>
<path d="M0 0 C1.65 0 3.3 0 5 0 C5 3.96 5 7.92 5 12 C3.35 12 1.7 12 0 12 C0 8.04 0 4.08 0 0 Z " fill="#0006B1" transform="translate(208,56)"/>
<path d="M0 0 C1.32 0 2.64 0 4 0 C4 3.96 4 7.92 4 12 C3.01 12 2.02 12 1 12 C1 12.99 1 13.98 1 15 C3.31 15 5.62 15 8 15 C8 15.33 8 15.66 8 16 C5.36 16 2.72 16 0 16 C0 10.72 0 5.44 0 0 Z " fill="#C1C1C7" transform="translate(100,144)"/>
<path d="M0 0 C1.32 0 2.64 0 4 0 C4 5.28 4 10.56 4 16 C1.36 16 -1.28 16 -4 16 C-4 15.67 -4 15.34 -4 15 C-1.69 15 0.62 15 3 15 C3 14.01 3 13.02 3 12 C2.01 12 1.02 12 0 12 C0 8.04 0 4.08 0 0 Z " fill="#BCBDC3" transform="translate(124,144)"/>
<path d="M0 0 C4.29 0.165 4.29 0.165 26 1 C26 1.66 26 2.32 26 3 C17.42 3 8.84 3 0 3 C0 2.01 0 1.02 0 0 Z " fill="#E7D1B7" transform="translate(29,172)"/>
<path d="M0 0 C8.58 0 17.16 0 26 0 C26 0.66 26 1.32 26 2 C17.42 2.33 8.84 2.66 0 3 C0 2.01 0 1.02 0 0 Z " fill="#E6D1B7" transform="translate(29,165)"/>
<path d="M0 0 C4.29 0.165 4.29 0.165 26 1 C26 1.66 26 2.32 26 3 C17.42 3 8.84 3 0 3 C0 2.01 0 1.02 0 0 Z " fill="#E6D1B7" transform="translate(29,132)"/>
<path d="M0 0 C4.29 0 8.58 0 13 0 C13 1.32 13 2.64 13 4 C8.71 4 4.42 4 0 4 C0 2.68 0 1.36 0 0 Z " fill="#02007D" transform="translate(183,80)"/>
<path d="M0 0 C4.29 0 8.58 0 13 0 C13 1.32 13 2.64 13 4 C8.71 4 4.42 4 0 4 C0 2.68 0 1.36 0 0 Z " fill="#02007D" transform="translate(183,72)"/>
<path d="M0 0 C4.29 0 8.58 0 13 0 C13 1.32 13 2.64 13 4 C8.71 4 4.42 4 0 4 C0 2.68 0 1.36 0 0 Z " fill="#00027D" transform="translate(183,64)"/>
<path d="M0 0 C4.29 0 8.58 0 13 0 C13 1.32 13 2.64 13 4 C8.71 4 4.42 4 0 4 C0 2.68 0 1.36 0 0 Z " fill="#00027D" transform="translate(183,56)"/>
<path d="M0 0 C4.29 0 8.58 0 13 0 C13 1.32 13 2.64 13 4 C8.71 4 4.42 4 0 4 C0 2.68 0 1.36 0 0 Z " fill="#00007E" transform="translate(183,48)"/>
<path d="M0 0 C4.29 0 8.58 0 13 0 C13 1.32 13 2.64 13 4 C8.71 4 4.42 4 0 4 C0 2.68 0 1.36 0 0 Z " fill="#0202B9" transform="translate(43,48)"/>
<path d="M0 0 C4.29 0 8.58 0 13 0 C13 1.32 13 2.64 13 4 C8.71 4 4.42 4 0 4 C0 2.68 0 1.36 0 0 Z " fill="#0000B5" transform="translate(183,44)"/>
<path d="M0 0 C4.29 0 8.58 0 13 0 C13 1.32 13 2.64 13 4 C8.71 4 4.42 4 0 4 C0 2.68 0 1.36 0 0 Z " fill="#00007E" transform="translate(183,40)"/>
<path d="M0 0 C3.96 0 7.92 0 12 0 C12 1.32 12 2.64 12 4 C8.04 4 4.08 4 0 4 C0 2.68 0 1.36 0 0 Z " fill="#02B502" transform="translate(96,188)"/>
<path d="M0 0 C6.27 0.33 12.54 0.66 19 1 C19 1.66 19 2.32 19 3 C15.865 3.165 15.865 3.165 0 4 C0 2.68 0 1.36 0 0 Z " fill="#136A13" transform="translate(88,176)"/>
<path d="M0 0 C3.96 0 7.92 0 12 0 C12 1.32 12 2.64 12 4 C8.04 4 4.08 4 0 4 C0 2.68 0 1.36 0 0 Z " fill="#CAA47B" transform="translate(44,176)"/>
<path d="M0 0 C3.96 0 7.92 0 12 0 C12 1.32 12 2.64 12 4 C8.04 4 4.08 4 0 4 C0 2.68 0 1.36 0 0 Z " fill="#42882B" transform="translate(148,160)"/>
<path d="M0 0 C3.96 0 7.92 0 12 0 C12 1.32 12 2.64 12 4 C8.04 4 4.08 4 0 4 C0 2.68 0 1.36 0 0 Z " fill="#1B1982" transform="translate(96,160)"/>
<path d="M0 0 C3.96 0 7.92 0 12 0 C12 1.32 12 2.64 12 4 C8.04 4 4.08 4 0 4 C0 2.68 0 1.36 0 0 Z " fill="#B0B1B2" transform="translate(108,160)"/>
<path d="M0 0 C3.96 0 7.92 0 12 0 C12 1.32 12 2.64 12 4 C8.04 4 4.08 4 0 4 C0 2.68 0 1.36 0 0 Z " fill="#E1CDB1" transform="translate(44,156)"/>
<path d="M0 0 C3.96 0 7.92 0 12 0 C12 1.32 12 2.64 12 4 C8.04 4 4.08 4 0 4 C0 2.68 0 1.36 0 0 Z " fill="#E1CCB3" transform="translate(28,156)"/>
<path d="M0 0 C0 0.66 0 1.32 0 2 C-7.26 2 -14.52 2 -22 2 C-22 1.34 -22 0.68 -22 0 C-19.646 -0.197 -17.293 -0.383 -14.938 -0.562 C-13.627 -0.667 -12.316 -0.771 -10.965 -0.879 C-7.077 -0.998 -3.809 -0.669 0 0 Z " fill="#00007B" transform="translate(151,137)"/>
<path d="M0 0 C3.96 0 7.92 0 12 0 C12 1.32 12 2.64 12 4 C8.04 4 4.08 4 0 4 C0 2.68 0 1.36 0 0 Z " fill="#44892B" transform="translate(136,128)"/>
<path d="M0 0 C3.96 0 7.92 0 12 0 C12 1.32 12 2.64 12 4 C8.04 4 4.08 4 0 4 C0 2.68 0 1.36 0 0 Z " fill="#E0CBB2" transform="translate(28,124)"/>
<path d="M0 0 C3.96 0 7.92 0 12 0 C12 1.32 12 2.64 12 4 C8.04 4 4.08 4 0 4 C0 2.68 0 1.36 0 0 Z " fill="#E1CDB1" transform="translate(44,124)"/>
<path d="M0 0 C3.96 0 7.92 0 12 0 C12 1.32 12 2.64 12 4 C8.04 4 4.08 4 0 4 C0 2.68 0 1.36 0 0 Z " fill="#0000B6" transform="translate(183,92)"/>
<path d="M0 0 C2.64 0 5.28 0 8 0 C8 1.32 8 2.64 8 4 C6.68 4 5.36 4 4 4 C4 5.32 4 6.64 4 8 C2.68 8 1.36 8 0 8 C0 5.36 0 2.72 0 0 Z " fill="#A0A0AB" transform="translate(48,68)"/>
<path d="M0 0 C1.32 0 2.64 0 4 0 C4 1.32 4 2.64 4 4 C5.32 4 6.64 4 8 4 C8 5.32 8 6.64 8 8 C5.36 8 2.72 8 0 8 C0 5.36 0 2.72 0 0 Z " fill="#8D8D97" transform="translate(84,44)"/>
<path d="M0 0 C1.32 0 2.64 0 4 0 C4 2.64 4 5.28 4 8 C1.36 8 -1.28 8 -4 8 C-4 6.68 -4 5.36 -4 4 C-2.68 4 -1.36 4 0 4 C0 2.68 0 1.36 0 0 Z " fill="#8D8D97" transform="translate(60,44)"/>
<path d="M0 0 C2.64 0 5.28 0 8 0 C8 0.33 8 0.66 8 1 C5.69 1 3.38 1 1 1 C1 1.66 1 2.32 1 3 C5.62 3 10.24 3 15 3 C15 2.01 15 1.02 15 0 C16.65 0 18.3 0 20 0 C20 1.32 20 2.64 20 4 C13.4 4 6.8 4 0 4 C0 2.68 0 1.36 0 0 Z " fill="#52457F" transform="translate(120,160)"/>
<path d="M0 0 C0 0.99 0 1.98 0 3 C-4.62 3 -9.24 3 -14 3 C-14 2.34 -14 1.68 -14 1 C-9.277 0.229 -4.785 -0.098 0 0 Z " fill="#00007C" transform="translate(135,160)"/>
<path d="M0 0 C6.27 0 12.54 0 19 0 C19 1.32 19 2.64 19 4 C17.35 4 15.7 4 14 4 C14 3.01 14 2.02 14 1 C9.38 1 4.76 1 0 1 C0 0.67 0 0.34 0 0 Z " fill="#5B8D3B" transform="translate(61,160)"/>
<path d="M0 0 C2.64 0 5.28 0 8 0 C8 1.32 8 2.64 8 4 C5.36 4 2.72 4 0 4 C0 2.68 0 1.36 0 0 Z " fill="#000276" transform="translate(228,192)"/>
<path d="M0 0 C2.64 0 5.28 0 8 0 C8 1.32 8 2.64 8 4 C5.36 4 2.72 4 0 4 C0 2.68 0 1.36 0 0 Z " fill="#030378" transform="translate(20,192)"/>
<path d="M0 0 C2.64 0 5.28 0 8 0 C8 1.32 8 2.64 8 4 C5.36 4 2.72 4 0 4 C0 2.68 0 1.36 0 0 Z " fill="#0002B1" transform="translate(228,188)"/>
<path d="M0 0 C2.64 0 5.28 0 8 0 C8 1.32 8 2.64 8 4 C5.36 4 2.72 4 0 4 C0 2.68 0 1.36 0 0 Z " fill="#0303B3" transform="translate(20,188)"/>
<path d="M0 0 C2.64 0 5.28 0 8 0 C8 1.32 8 2.64 8 4 C5.36 4 2.72 4 0 4 C0 2.68 0 1.36 0 0 Z " fill="#E5E870" transform="translate(112,188)"/>
<path d="M0 0 C2.64 0 5.28 0 8 0 C8 1.32 8 2.64 8 4 C5.36 4 2.72 4 0 4 C0 2.68 0 1.36 0 0 Z " fill="#00027B" transform="translate(228,184)"/>
<path d="M0 0 C2.64 0 5.28 0 8 0 C8 1.32 8 2.64 8 4 C5.36 4 2.72 4 0 4 C0 2.68 0 1.36 0 0 Z " fill="#20631F" transform="translate(56,184)"/>
<path d="M0 0 C2.64 0 5.28 0 8 0 C8 1.32 8 2.64 8 4 C5.36 4 2.72 4 0 4 C0 2.68 0 1.36 0 0 Z " fill="#03027D" transform="translate(20,184)"/>
<path d="M0 0 C2.64 0 5.28 0 8 0 C8 1.32 8 2.64 8 4 C5.36 4 2.72 4 0 4 C0 2.68 0 1.36 0 0 Z " fill="#0002B1" transform="translate(228,180)"/>
<path d="M0 0 C2.64 0 5.28 0 8 0 C8 1.32 8 2.64 8 4 C5.36 4 2.72 4 0 4 C0 2.68 0 1.36 0 0 Z " fill="#0303B3" transform="translate(20,180)"/>
<path d="M0 0 C2.64 0 5.28 0 8 0 C8 1.32 8 2.64 8 4 C5.36 4 2.72 4 0 4 C0 2.68 0 1.36 0 0 Z " fill="#00027B" transform="translate(228,176)"/>
<path d="M0 0 C2.64 0 5.28 0 8 0 C8 1.32 8 2.64 8 4 C5.36 4 2.72 4 0 4 C0 2.68 0 1.36 0 0 Z " fill="#03027D" transform="translate(20,176)"/>
<path d="M0 0 C2.64 0 5.28 0 8 0 C8 1.32 8 2.64 8 4 C5.36 4 2.72 4 0 4 C0 2.68 0 1.36 0 0 Z " fill="#0002B1" transform="translate(228,172)"/>
<path d="M0 0 C2.64 0 5.28 0 8 0 C8 1.32 8 2.64 8 4 C5.36 4 2.72 4 0 4 C0 2.68 0 1.36 0 0 Z " fill="#0303B3" transform="translate(20,172)"/>
<path d="M0 0 C2.64 0 5.28 0 8 0 C8 1.32 8 2.64 8 4 C5.36 4 2.72 4 0 4 C0 2.68 0 1.36 0 0 Z " fill="#00027B" transform="translate(228,168)"/>
<path d="M0 0 C2.64 0 5.28 0 8 0 C8 1.32 8 2.64 8 4 C5.36 4 2.72 4 0 4 C0 2.68 0 1.36 0 0 Z " fill="#8A7562" transform="translate(28,168)"/>
<path d="M0 0 C2.64 0 5.28 0 8 0 C8 1.32 8 2.64 8 4 C5.36 4 2.72 4 0 4 C0 2.68 0 1.36 0 0 Z " fill="#03027D" transform="translate(20,168)"/>
<path d="M0 0 C2.64 0 5.28 0 8 0 C8 1.32 8 2.64 8 4 C5.36 4 2.72 4 0 4 C0 2.68 0 1.36 0 0 Z " fill="#D3C8AB" transform="translate(140,164)"/>
<path d="M0 0 C2.64 0 5.28 0 8 0 C8 1.32 8 2.64 8 4 C5.36 4 2.72 4 0 4 C0 2.68 0 1.36 0 0 Z " fill="#D3C8AB" transform="translate(80,164)"/>
<path d="M0 0 C2.64 0 5.28 0 8 0 C8 1.32 8 2.64 8 4 C5.36 4 2.72 4 0 4 C0 2.68 0 1.36 0 0 Z " fill="#0303B3" transform="translate(20,164)"/>
<path d="M0 0 C2.64 0 5.28 0 8 0 C8 1.32 8 2.64 8 4 C5.36 4 2.72 4 0 4 C0 2.68 0 1.36 0 0 Z " fill="#03027C" transform="translate(228,160)"/>
<path d="M0 0 C2.64 0 5.28 0 8 0 C8 1.32 8 2.64 8 4 C5.36 4 2.72 4 0 4 C0 2.68 0 1.36 0 0 Z " fill="#0C0A7E" transform="translate(140,160)"/>
<path d="M0 0 C2.64 0 5.28 0 8 0 C8 1.32 8 2.64 8 4 C5.36 4 2.72 4 0 4 C0 2.68 0 1.36 0 0 Z " fill="#BB9B78" transform="translate(88,160)"/>
<path d="M0 0 C2.64 0 5.28 0 8 0 C8 1.32 8 2.64 8 4 C5.36 4 2.72 4 0 4 C0 2.68 0 1.36 0 0 Z " fill="#0C0A7E" transform="translate(80,160)"/>
<path d="M0 0 C2.64 0 5.28 0 8 0 C8 1.32 8 2.64 8 4 C5.36 4 2.72 4 0 4 C0 2.68 0 1.36 0 0 Z " fill="#03027D" transform="translate(20,160)"/>
<path d="M0 0 C2.64 0 5.28 0 8 0 C8 1.32 8 2.64 8 4 C5.36 4 2.72 4 0 4 C0 2.68 0 1.36 0 0 Z " fill="#0303B3" transform="translate(20,156)"/>
<path d="M0 0 C2.64 0 5.28 0 8 0 C8 1.32 8 2.64 8 4 C5.36 4 2.72 4 0 4 C0 2.68 0 1.36 0 0 Z " fill="#03027D" transform="translate(20,152)"/>
<path d="M0 0 C2.64 0 5.28 0 8 0 C8 1.32 8 2.64 8 4 C5.36 4 2.72 4 0 4 C0 2.68 0 1.36 0 0 Z " fill="#0303B3" transform="translate(20,148)"/>
<path d="M0 0 C2.64 0 5.28 0 8 0 C8 1.32 8 2.64 8 4 C5.36 4 2.72 4 0 4 C0 2.68 0 1.36 0 0 Z " fill="#03027D" transform="translate(20,144)"/>
<path d="M0 0 C2.64 0 5.28 0 8 0 C8 1.32 8 2.64 8 4 C5.36 4 2.72 4 0 4 C0 2.68 0 1.36 0 0 Z " fill="#E0CAB2" transform="translate(28,140)"/>
<path d="M0 0 C2.64 0 5.28 0 8 0 C8 1.32 8 2.64 8 4 C5.36 4 2.72 4 0 4 C0 2.68 0 1.36 0 0 Z " fill="#0303B3" transform="translate(20,140)"/>
<path d="M0 0 C2.64 0 5.28 0 8 0 C8 1.32 8 2.64 8 4 C5.36 4 2.72 4 0 4 C0 2.68 0 1.36 0 0 Z " fill="#03027D" transform="translate(20,136)"/>
<path d="M0 0 C2.64 0 5.28 0 8 0 C8 1.32 8 2.64 8 4 C5.36 4 2.72 4 0 4 C0 2.68 0 1.36 0 0 Z " fill="#7069B0" transform="translate(144,132)"/>
<path d="M0 0 C2.64 0 5.28 0 8 0 C8 1.32 8 2.64 8 4 C5.36 4 2.72 4 0 4 C0 2.68 0 1.36 0 0 Z " fill="#0B0AB5" transform="translate(80,132)"/>
<path d="M0 0 C2.64 0 5.28 0 8 0 C8 1.32 8 2.64 8 4 C5.36 4 2.72 4 0 4 C0 2.68 0 1.36 0 0 Z " fill="#0303B3" transform="translate(20,132)"/>
<path d="M0 0 C2.64 0 5.28 0 8 0 C8 1.32 8 2.64 8 4 C5.36 4 2.72 4 0 4 C0 2.68 0 1.36 0 0 Z " fill="#057A08" transform="translate(148,128)"/>
<path d="M0 0 C2.64 0 5.28 0 8 0 C8 1.32 8 2.64 8 4 C5.36 4 2.72 4 0 4 C0 2.68 0 1.36 0 0 Z " fill="#03027D" transform="translate(20,128)"/>
<path d="M0 0 C2.64 0 5.28 0 8 0 C8 1.32 8 2.64 8 4 C5.36 4 2.72 4 0 4 C0 2.68 0 1.36 0 0 Z " fill="#BB9E75" transform="translate(80,128)"/>
<path d="M0 0 C2.64 0 5.28 0 8 0 C8 1.32 8 2.64 8 4 C5.36 4 2.72 4 0 4 C0 2.68 0 1.36 0 0 Z " fill="#03027D" transform="translate(20,120)"/>
<path d="M0 0 C2.64 0 5.28 0 8 0 C8 1.32 8 2.64 8 4 C5.36 4 2.72 4 0 4 C0 2.68 0 1.36 0 0 Z " fill="#777785" transform="translate(68,72)"/>
<path d="M0 0 C2.64 0 5.28 0 8 0 C8 1.32 8 2.64 8 4 C5.36 4 2.72 4 0 4 C0 2.68 0 1.36 0 0 Z " fill="#B5B5BD" transform="translate(72,68)"/>
<path d="M0 0 C2.64 0 5.28 0 8 0 C8 1.32 8 2.64 8 4 C5.36 4 2.72 4 0 4 C0 2.68 0 1.36 0 0 Z " fill="#0808D7" transform="translate(64,52)"/>
<path d="M0 0 C1.32 0 2.64 0 4 0 C4 2.64 4 5.28 4 8 C2.68 8 1.36 8 0 8 C0 5.36 0 2.72 0 0 Z " fill="#0808C7" transform="translate(80,44)"/>
<path d="M0 0 C2.64 0 5.28 0 8 0 C8 1.32 8 2.64 8 4 C5.36 4 2.72 4 0 4 C0 2.68 0 1.36 0 0 Z " fill="#0303B8" transform="translate(64,48)"/>
<path d="M0 0 C1.65 0 3.3 0 5 0 C5 1.32 5 2.64 5 4 C3.68 4 2.36 4 1 4 C1 6.64 1 9.28 1 12 C0.67 12 0.34 12 0 12 C0 8.04 0 4.08 0 0 Z " fill="#0C0C7F" transform="translate(208,88)"/>
<path d="M0 0 C2.64 0 5.28 0 8 0 C8 0.99 8 1.98 8 3 C5.36 3 2.72 3 0 3 C0 2.01 0 1.02 0 0 Z " fill="#196319" transform="translate(232,200)"/>
<path d="M0 0 C3.3 0.33 6.6 0.66 10 1 C10 1.66 10 2.32 10 3 C6.7 3 3.4 3 0 3 C0 2.01 0 1.02 0 0 Z " fill="#00007B" transform="translate(97,160)"/>
<path d="M0 0 C1.32 0 2.64 0 4 0 C4 1.32 4 2.64 4 4 C3.01 4 2.02 4 1 4 C0.835 4.66 0.835 4.66 0 8 C0 5.36 0 2.72 0 0 Z " fill="#B3B4BA" transform="translate(100,144)"/>
<path d="M0 0 C1.65 0 3.3 0 5 0 C5 1.32 5 2.64 5 4 C3.35 4 1.7 4 0 4 C0 2.68 0 1.36 0 0 Z " fill="#05007B" transform="translate(208,80)"/>
<path d="M0 0 C1.65 0 3.3 0 5 0 C5 1.32 5 2.64 5 4 C3.35 4 1.7 4 0 4 C0 2.68 0 1.36 0 0 Z " fill="#05007B" transform="translate(208,72)"/>
<path d="M0 0 C1.65 0 3.3 0 5 0 C5 1.32 5 2.64 5 4 C3.35 4 1.7 4 0 4 C0 2.68 0 1.36 0 0 Z " fill="#0202B8" transform="translate(43,72)"/>
<path d="M0 0 C1.65 0 3.3 0 5 0 C5 1.32 5 2.64 5 4 C3.35 4 1.7 4 0 4 C0 2.68 0 1.36 0 0 Z " fill="#00057B" transform="translate(208,64)"/>
<path d="M0 0 C1.65 0 3.3 0 5 0 C5 1.32 5 2.64 5 4 C3.35 4 1.7 4 0 4 C0 2.68 0 1.36 0 0 Z " fill="#0202B8" transform="translate(43,64)"/>
<path d="M0 0 C1.65 0 3.3 0 5 0 C5 1.32 5 2.64 5 4 C3.35 4 1.7 4 0 4 C0 2.68 0 1.36 0 0 Z " fill="#00057B" transform="translate(208,56)"/>
<path d="M0 0 C1.65 0 3.3 0 5 0 C5 1.32 5 2.64 5 4 C3.35 4 1.7 4 0 4 C0 2.68 0 1.36 0 0 Z " fill="#0202B8" transform="translate(43,56)"/>
<path d="M0 0 C1.65 0 3.3 0 5 0 C5 1.32 5 2.64 5 4 C3.35 4 1.7 4 0 4 C0 2.68 0 1.36 0 0 Z " fill="#01017D" transform="translate(208,48)"/>
<path d="M0 0 C1.65 0 3.3 0 5 0 C5 1.32 5 2.64 5 4 C3.35 4 1.7 4 0 4 C0 2.68 0 1.36 0 0 Z " fill="#0202B3" transform="translate(208,44)"/>
<path d="M0 0 C1.65 0 3.3 0 5 0 C5 1.32 5 2.64 5 4 C3.35 4 1.7 4 0 4 C0 2.68 0 1.36 0 0 Z " fill="#01017D" transform="translate(208,40)"/>
</svg>
