<?xml version="1.0" encoding="UTF-8"?>
<!-- Generator: visioncortex VTracer 0.6.12 -->
<svg version="1.1" xmlns="http://www.w3.org/2000/svg" width="256" height="256">
<path d="M0 0 C0.905 -0.003 1.81 -0.006 2.743 -0.009 C5.782 -0.018 8.821 -0.019 11.86 -0.021 C14.036 -0.025 16.213 -0.03 18.389 -0.036 C24.307 -0.049 30.224 -0.055 36.141 -0.06 C39.837 -0.063 43.533 -0.067 47.229 -0.071 C58.791 -0.085 70.352 -0.095 81.913 -0.098 C83.23 -0.099 84.547 -0.099 85.904 -0.1 C86.234 -0.1 86.234 -0.1 87.903 -0.1 C99.258 -0.105 110.612 -0.125 121.966 -0.149 C132.283 -0.171 142.6 -0.181 152.917 -0.182 C159.08 -0.184 165.243 -0.189 171.407 -0.207 C177.204 -0.224 183.001 -0.226 188.798 -0.217 C190.926 -0.216 193.053 -0.221 195.18 -0.231 C198.085 -0.243 200.99 -0.237 203.895 -0.227 C204.736 -0.235 205.577 -0.243 206.443 -0.251 C212.475 -0.201 217.375 0.768 222.099 4.824 C222.332 5.113 222.332 5.113 223.513 6.578 C223.754 6.866 223.754 6.866 224.974 8.324 C227.655 12.507 227.284 17.124 227.279 21.939 C227.282 22.73 227.284 23.521 227.288 24.335 C227.296 26.988 227.298 29.64 227.299 32.292 C227.304 34.193 227.309 36.093 227.314 37.994 C227.327 43.159 227.334 48.324 227.338 53.49 C227.341 56.717 227.345 59.944 227.35 63.171 C227.363 73.267 227.373 83.363 227.377 93.459 C227.381 105.115 227.399 116.77 227.428 128.425 C227.45 137.434 227.46 146.443 227.461 155.452 C227.462 160.833 227.468 166.214 227.486 171.595 C227.502 176.656 227.505 181.718 227.496 186.78 C227.495 188.636 227.499 190.493 227.509 192.349 C227.522 194.886 227.516 197.423 227.506 199.961 C227.51 200.326 227.51 200.326 227.53 202.178 C227.474 207.975 226.047 212.227 222.876 217.066 C219.006 220.83 215.43 221.616 210.129 222.209 C209.78 222.248 209.78 222.248 208.014 222.447 C199.017 223.426 189.995 224.125 180.966 224.738 C180.008 224.803 179.05 224.868 178.064 224.936 C154.179 226.516 130.306 226.652 106.378 226.587 C102.836 226.578 99.293 226.574 95.751 226.572 C68.239 226.541 40.774 226.345 13.326 224.328 C12.753 224.287 12.753 224.287 9.853 224.078 C6.731 223.843 3.612 223.584 0.494 223.308 C-0.374 223.236 -1.242 223.164 -2.135 223.09 C-7.98 222.504 -13.24 221.391 -17.823 217.457 C-18.289 216.878 -18.756 216.299 -19.237 215.703 C-19.719 215.127 -20.201 214.551 -20.698 213.957 C-23.378 209.774 -23.008 205.156 -23.002 200.342 C-23.005 199.551 -23.008 198.76 -23.011 197.946 C-23.02 195.293 -23.022 192.641 -23.023 189.989 C-23.028 188.088 -23.033 186.188 -23.038 184.287 C-23.051 179.122 -23.058 173.957 -23.062 168.791 C-23.065 165.564 -23.069 162.337 -23.074 159.11 C-23.087 149.014 -23.097 138.918 -23.101 128.822 C-23.105 117.166 -23.123 105.511 -23.152 93.856 C-23.173 84.847 -23.183 75.838 -23.185 66.829 C-23.186 61.448 -23.192 56.067 -23.21 50.686 C-23.226 45.624 -23.228 40.563 -23.22 35.501 C-23.219 33.645 -23.223 31.788 -23.233 29.932 C-23.246 27.394 -23.24 24.858 -23.229 22.32 C-23.233 21.954 -23.233 21.954 -23.254 20.103 C-23.199 14.341 -21.989 9.618 -18.178 5.18 C-17.6 4.713 -17.021 4.246 -16.424 3.765 C-16.136 3.524 -16.136 3.524 -14.678 2.305 C-10.236 -0.542 -5.096 -0.005 0 0 Z " fill="#D8D8D8" transform="translate(25.861892700195313,14.85955810546875)"/>
<path d="M0 0 C0.905 -0.003 1.81 -0.006 2.743 -0.009 C5.782 -0.018 8.821 -0.019 11.86 -0.021 C14.036 -0.025 16.213 -0.03 18.389 -0.036 C24.307 -0.049 30.224 -0.055 36.141 -0.06 C39.837 -0.063 43.533 -0.067 47.229 -0.071 C58.791 -0.085 70.352 -0.095 81.913 -0.098 C83.23 -0.099 84.547 -0.099 85.904 -0.1 C86.234 -0.1 86.234 -0.1 87.903 -0.1 C99.258 -0.105 110.612 -0.125 121.966 -0.149 C132.283 -0.171 142.6 -0.181 152.917 -0.182 C159.08 -0.184 165.243 -0.189 171.407 -0.207 C177.204 -0.224 183.001 -0.226 188.798 -0.217 C190.926 -0.216 193.053 -0.221 195.18 -0.231 C198.085 -0.243 200.99 -0.237 203.895 -0.227 C204.736 -0.235 205.577 -0.243 206.443 -0.251 C212.475 -0.201 217.375 0.768 222.099 4.824 C222.332 5.113 222.332 5.113 223.513 6.578 C223.754 6.866 223.754 6.866 224.974 8.324 C227.655 12.507 227.284 17.124 227.279 21.939 C227.282 22.73 227.284 23.521 227.288 24.335 C227.296 26.988 227.298 29.64 227.299 32.292 C227.304 34.193 227.309 36.093 227.314 37.994 C227.327 43.159 227.334 48.324 227.338 53.49 C227.341 56.717 227.345 59.944 227.35 63.171 C227.363 73.267 227.373 83.363 227.377 93.459 C227.381 105.115 227.399 116.77 227.428 128.425 C227.45 137.434 227.46 146.443 227.461 155.452 C227.462 160.833 227.468 166.214 227.486 171.595 C227.502 176.656 227.505 181.718 227.496 186.78 C227.495 188.636 227.499 190.493 227.509 192.349 C227.522 194.886 227.516 197.423 227.506 199.961 C227.51 200.326 227.51 200.326 227.53 202.178 C227.474 207.975 226.047 212.227 222.876 217.066 C219.006 220.83 215.43 221.616 210.129 222.209 C209.78 222.248 209.78 222.248 208.014 222.447 C199.017 223.426 189.995 224.125 180.966 224.738 C180.008 224.803 179.05 224.868 178.064 224.936 C154.179 226.516 130.306 226.652 106.378 226.587 C102.836 226.578 99.293 226.574 95.751 226.572 C68.239 226.541 40.774 226.345 13.326 224.328 C12.753 224.287 12.753 224.287 9.853 224.078 C6.731 223.843 3.612 223.584 0.494 223.308 C-0.374 223.236 -1.242 223.164 -2.135 223.09 C-7.98 222.504 -13.24 221.391 -17.823 217.457 C-18.289 216.878 -18.756 216.299 -19.237 215.703 C-19.719 215.127 -20.201 214.551 -20.698 213.957 C-23.378 209.774 -23.008 205.156 -23.002 200.342 C-23.005 199.551 -23.008 198.76 -23.011 197.946 C-23.02 195.293 -23.022 192.641 -23.023 189.989 C-23.028 188.088 -23.033 186.188 -23.038 184.287 C-23.051 179.122 -23.058 173.957 -23.062 168.791 C-23.065 165.564 -23.069 162.337 -23.074 159.11 C-23.087 149.014 -23.097 138.918 -23.101 128.822 C-23.105 117.166 -23.123 105.511 -23.152 93.856 C-23.173 84.847 -23.183 75.838 -23.185 66.829 C-23.186 61.448 -23.192 56.067 -23.21 50.686 C-23.226 45.624 -23.228 40.563 -23.22 35.501 C-23.219 33.645 -23.223 31.788 -23.233 29.932 C-23.246 27.394 -23.24 24.858 -23.229 22.32 C-23.233 21.954 -23.233 21.954 -23.254 20.103 C-23.199 14.341 -21.989 9.618 -18.178 5.18 C-17.6 4.713 -17.021 4.246 -16.424 3.765 C-16.136 3.524 -16.136 3.524 -14.678 2.305 C-10.236 -0.542 -5.096 -0.005 0 0 Z M-12.387 10.682 C-14.427 14.082 -14.416 17.139 -14.37 20.991 C-14.376 21.787 -14.382 22.583 -14.389 23.403 C-14.405 26.074 -14.392 28.745 -14.379 31.416 C-14.385 33.329 -14.392 35.243 -14.401 37.156 C-14.419 42.357 -14.412 47.557 -14.399 52.758 C-14.389 58.196 -14.398 63.635 -14.405 69.074 C-14.412 78.21 -14.402 87.345 -14.383 96.481 C-14.362 107.045 -14.369 117.609 -14.391 128.174 C-14.409 137.239 -14.411 146.305 -14.401 155.371 C-14.395 160.788 -14.394 166.204 -14.407 171.621 C-14.419 176.714 -14.411 181.807 -14.387 186.9 C-14.382 188.77 -14.384 190.64 -14.393 192.51 C-14.403 195.062 -14.39 197.612 -14.37 200.163 C-14.379 200.905 -14.388 201.646 -14.397 202.41 C-14.323 207.248 -13.329 209.76 -9.862 213.14 C-7.773 213.86 -7.773 213.86 -5.495 213.996 C-5.08 214.021 -5.08 214.021 -2.982 214.148 C-0.991 214.268 1.001 214.386 2.993 214.502 C8.317 214.819 13.63 215.169 18.941 215.646 C43.694 217.76 68.521 217.48 93.344 217.456 C98.555 217.452 103.766 217.458 108.976 217.477 C134.964 217.567 160.883 217.503 186.822 215.746 C187.29 215.715 187.29 215.715 189.661 215.556 C192.282 215.376 194.903 215.182 197.523 214.981 C198.27 214.927 199.017 214.872 199.787 214.816 C203.554 214.504 207.271 214.021 210.989 213.338 C211.712 213.206 212.435 213.075 213.179 212.939 C215.936 211.815 216.752 210.785 218.138 208.14 C218.431 205.458 218.552 203.009 218.533 200.328 C218.539 199.536 218.545 198.744 218.551 197.928 C218.568 195.271 218.563 192.614 218.558 189.957 C218.565 188.053 218.574 186.15 218.584 184.246 C218.606 179.072 218.609 173.899 218.607 168.725 C218.607 164.409 218.615 160.092 218.624 155.775 C218.643 145.593 218.646 135.41 218.639 125.228 C218.632 114.718 218.655 104.208 218.692 93.698 C218.723 84.679 218.734 75.66 218.731 66.641 C218.728 61.252 218.734 55.863 218.758 50.475 C218.781 45.408 218.779 40.342 218.759 35.275 C218.755 33.414 218.76 31.554 218.775 29.693 C218.793 27.155 218.78 24.618 218.76 22.08 C218.772 21.342 218.785 20.605 218.798 19.845 C218.735 16.209 218.195 14.226 216.164 11.183 C212.037 8.397 208.975 8.444 204.098 8.512 C203.186 8.505 202.274 8.498 201.334 8.491 C198.277 8.473 195.221 8.491 192.163 8.509 C189.972 8.504 187.781 8.497 185.589 8.488 C179.637 8.469 173.685 8.482 167.733 8.502 C161.509 8.518 155.284 8.509 149.06 8.504 C138.608 8.5 128.157 8.515 117.705 8.544 C106.95 8.572 96.196 8.579 85.441 8.564 C72.481 8.545 59.52 8.547 46.56 8.566 C41.609 8.573 36.658 8.572 31.707 8.565 C25.88 8.557 20.053 8.569 14.227 8.597 C12.085 8.603 9.944 8.604 7.802 8.596 C4.885 8.588 1.969 8.604 -0.949 8.626 C-1.801 8.618 -2.654 8.609 -3.532 8.601 C-6.988 8.65 -9.408 8.864 -12.387 10.682 Z " fill="#FEFEFE" transform="translate(25.861892700195313,14.85955810546875)"/>
<path d="M0 0 C26.4 0 52.8 0 80 0 C80 1.32 80 2.64 80 4 C83.96 4 87.92 4 92 4 C92.054 6.291 92.093 8.583 92.125 10.875 C92.148 12.151 92.171 13.427 92.195 14.742 C92 18 92 18 90 20 C88.198 20.252 88.198 20.252 85.977 20.254 C85.135 20.26 84.294 20.265 83.427 20.271 C82.503 20.267 81.578 20.263 80.625 20.259 C79.653 20.262 78.68 20.266 77.678 20.269 C74.452 20.278 71.226 20.272 68 20.266 C65.766 20.267 63.531 20.269 61.297 20.271 C56.609 20.274 51.922 20.27 47.234 20.261 C41.215 20.249 35.195 20.256 29.176 20.268 C24.561 20.275 19.945 20.273 15.33 20.268 C13.11 20.266 10.89 20.268 8.67 20.273 C5.572 20.278 2.473 20.27 -0.625 20.259 C-1.087 20.261 -1.087 20.261 -3.427 20.271 C-4.269 20.265 -5.11 20.26 -5.977 20.254 C-6.343 20.254 -6.343 20.254 -8.198 20.252 C-10 20 -10 20 -12 18 C-12.195 14.742 -12.195 14.742 -12.125 10.875 C-12.107 9.594 -12.089 8.312 -12.07 6.992 C-12.047 6.005 -12.024 5.017 -12 4 C-8.04 4 -4.08 4 0 4 C0 2.68 0 1.36 0 0 Z " fill="#7D7D7D" transform="translate(88,32)"/>
<path d="M0 0 C0.567 -0.001 0.567 -0.001 3.434 -0.009 C48.479 -0.036 48.479 -0.036 58.375 7.312 C57.375 10.312 57.375 10.312 55.594 11.433 C38.861 18.065 18.137 16.7 0.5 16.688 C-0.583 16.689 -1.665 16.691 -2.781 16.692 C-50.567 16.684 -50.567 16.684 -61.625 9.312 C-60.625 6.312 -60.625 6.312 -59.051 5.434 C-52.049 3.169 -44.933 2.064 -37.625 1.312 C-36.805 1.225 -35.986 1.137 -35.141 1.047 C-23.457 -0.029 -11.724 0.027 0 0 Z " fill="#CBCBCB" transform="translate(129.625,127.6875)"/>
<path d="M0 0 C6.6 0 13.2 0 20 0 C20 0.66 20 1.32 20 2 C14.06 2 8.12 2 2 2 C1.943 3.45 1.886 4.899 1.827 6.393 C1.281 20.045 0.664 33.69 -0.137 47.33 C-0.255 49.37 -0.366 51.411 -0.471 53.453 C-1.997 82.88 -8.633 105.978 -29 128 C-32.014 130.009 -33.405 130.358 -36.875 130.875 C-41.252 131.71 -43.947 132.577 -47 136 C-47.186 136.567 -47.186 136.567 -48.125 139.438 C-49.513 143.046 -51.421 144.07 -54.875 145.688 C-70.573 152 -70.573 152 -78 152 C-77.959 152.887 -77.917 153.774 -77.875 154.688 C-79.199 158.585 -79.924 158.932 -83.438 160.812 C-90.707 163.997 -96.778 165.141 -104.312 162.25 C-105.881 161.514 -107.445 160.765 -109 160 C-109.516 159.814 -109.516 159.814 -112.125 158.875 C-114.555 156.445 -114.317 155.25 -114.375 151.875 C-114.199 147.199 -114.199 147.199 -113 146 C-109.929 146.121 -106.878 146.294 -103.812 146.5 C-95.417 147.005 -87.376 146.901 -79 146 C-78.67 147.32 -78.34 148.64 -78 150 C-74.601 148.906 -71.206 147.798 -67.812 146.688 C-66.853 146.379 -65.893 146.07 -64.904 145.752 C-55.525 142.669 -55.525 142.669 -52 140 C-51.526 139.051 -51.051 138.102 -50.562 137.125 C-48.703 133.405 -46.627 130.983 -43 129 C-40.459 128.297 -37.977 127.827 -35.367 127.457 C-32.856 126.972 -31.136 126.407 -29 125 C-27.949 123.094 -27.949 123.094 -27 121 C-25.97 119.804 -24.904 118.639 -23.812 117.5 C-8.574 100.361 -4.999 78.299 -3.867 56.211 C-3.785 54.768 -3.702 53.326 -3.618 51.883 C-3.403 48.141 -3.199 44.399 -2.998 40.656 C-2.673 34.633 -2.33 28.612 -1.987 22.59 C-1.87 20.504 -1.757 18.418 -1.646 16.332 C-1.576 15.063 -1.506 13.794 -1.433 12.486 C-1.373 11.375 -1.314 10.264 -1.252 9.119 C-1.005 6.061 -0.504 3.027 0 0 Z " fill="#CECECE" transform="translate(224,68)"/>
<path d="M0 0 C0.79 0.117 1.581 0.235 2.395 0.356 C6.738 1.093 9.963 2.083 13.625 4.688 C12.625 7.688 12.625 7.688 10.886 8.808 C-7.638 16.013 -30.835 14.182 -50.375 13.688 C-49.705 9.783 -49.298 8.03 -46.062 5.625 C-32.173 -3.838 -15.871 -2.381 0 0 Z " fill="#6A6A6A" transform="translate(174.375,130.3125)"/>
<path d="M0 0 C27.72 0 55.44 0 84 0 C84 1.32 84 2.64 84 4 C87.96 4 91.92 4 96 4 C96.108 6.584 96.187 9.164 96.25 11.75 C96.284 12.48 96.317 13.209 96.352 13.961 C96.41 17.18 96.342 19.467 94.58 22.212 C90.647 24.937 87.002 24.551 82.322 24.502 C81.832 24.504 81.832 24.504 79.35 24.518 C76.107 24.531 72.864 24.514 69.621 24.496 C67.37 24.496 65.118 24.498 62.866 24.501 C58.148 24.502 53.43 24.489 48.711 24.467 C42.656 24.438 36.601 24.441 30.545 24.454 C25.897 24.461 21.248 24.453 16.599 24.44 C14.366 24.436 12.133 24.436 9.9 24.439 C6.782 24.442 3.666 24.426 0.549 24.404 C0.085 24.406 0.085 24.406 -2.262 24.418 C-2.686 24.413 -2.686 24.413 -4.832 24.388 C-5.2 24.386 -5.2 24.386 -7.065 24.38 C-9.55 23.892 -10.448 22.963 -12 21 C-12.341 19.099 -12.341 19.099 -12.293 16.988 C-12.283 16.231 -12.274 15.474 -12.264 14.693 C-12.239 13.908 -12.213 13.122 -12.188 12.312 C-12.174 11.515 -12.16 10.718 -12.146 9.896 C-12.111 7.931 -12.057 5.965 -12 4 C-8.04 4 -4.08 4 0 4 C0 2.68 0 1.36 0 0 Z M2 2 C2 3.32 2 4.64 2 6 C-1.96 6 -5.92 6 -10 6 C-10.054 8.291 -10.093 10.583 -10.125 12.875 C-10.148 14.151 -10.171 15.427 -10.195 16.742 C-10 20 -10 20 -8 22 C-6.198 22.252 -6.198 22.252 -3.977 22.254 C-3.556 22.257 -3.556 22.257 -1.427 22.271 C-0.503 22.267 0.422 22.263 1.375 22.259 C2.347 22.262 3.32 22.266 4.322 22.269 C7.548 22.278 10.774 22.272 14 22.266 C16.234 22.267 18.469 22.269 20.703 22.271 C25.391 22.274 30.078 22.27 34.766 22.261 C40.785 22.249 46.805 22.256 52.824 22.268 C57.439 22.275 62.055 22.273 66.67 22.268 C68.89 22.266 71.11 22.268 73.33 22.273 C76.428 22.278 79.527 22.27 82.625 22.259 C83.087 22.261 83.087 22.261 85.427 22.271 C86.269 22.265 87.11 22.26 87.977 22.254 C88.343 22.254 88.343 22.254 90.198 22.252 C92 22 92 22 94 20 C94.195 16.742 94.195 16.742 94.125 12.875 C94.107 11.594 94.089 10.312 94.07 8.992 C94.047 8.005 94.024 7.017 94 6 C90.04 6 86.08 6 82 6 C82 4.68 82 3.36 82 2 C55.6 2 29.2 2 2 2 Z " fill="#C8C8C8" transform="translate(86,30)"/>
<path d="M0 0 C0 0.66 0 1.32 0 2 C-7.92 2 -15.84 2 -24 2 C-24.66 3.65 -25.32 5.3 -26 7 C-29.49 12.817 -33.246 18.344 -37.875 23.312 C-40.968 26.671 -41.83 29.571 -43 34 C-45.562 36.875 -45.562 36.875 -48 39 C-48.165 39.165 -48.165 39.165 -49 40 C-53.614 40.419 -56.363 39.93 -60 37 C-62.526 32.867 -61.908 29.633 -61 25 C-60.01 24.67 -59.02 24.34 -58 24 C-57.67 23.01 -57.34 22.02 -57 21 C-54.18 19.59 -52.13 19.755 -49 20 C-46.125 21.375 -46.125 21.375 -44 23 C-44 23.66 -44 24.32 -44 25 C-40.951 22.135 -38.23 19.151 -35.625 15.875 C-35.006 15.111 -34.387 14.346 -33.75 13.559 C-32 11 -32 11 -30.875 7.973 C-25.742 -4.491 -11.334 -0.906 0 0 Z " fill="#CECECE" transform="translate(244,186)"/>
<path d="M0 0 C0.629 0.083 0.629 0.083 3.812 0.5 C13.265 1.534 22.561 0.922 32 0 C32 2.64 32 5.28 32 8 C21.492 11.906 11.765 12 1 9 C0 8 0 8 -0.098 6.152 C-0.065 4.102 -0.033 2.051 0 0 Z " fill="#A22E6B" transform="translate(112,216)"/>
<path d="M0 0 C3.323 2.456 4.776 3.926 5.625 8 C4.776 12.074 3.323 13.544 0 16 C-3 16.625 -3 16.625 -6 16 C-9.669 13.368 -10.84 11.911 -11.625 7.438 C-11 4 -11 4 -8.875 1.562 C-5.465 -0.291 -3.818 -0.716 0 0 Z " fill="#6B6B6B" transform="translate(67,208)"/>
<path d="M0 0 C0.872 0.041 1.744 0.082 2.642 0.124 C3.121 0.145 3.121 0.145 5.544 0.256 C6.049 0.282 6.049 0.282 8.603 0.413 C9.096 0.435 9.096 0.435 11.591 0.545 C16.781 0.795 21.852 1.19 26.978 2.038 C26.978 2.368 26.978 2.698 26.978 3.038 C17.299 4.499 8.481 4.53 -1.022 2.038 C-0.692 4.678 -0.362 7.318 -0.022 10.038 C10.565 12.861 20.359 12.669 30.978 10.038 C30.978 7.398 30.978 4.758 30.978 2.038 C31.308 2.038 31.638 2.038 31.978 2.038 C33.052 7.995 33.052 7.995 32.978 10.038 C29.232 14.889 22.981 17.13 17.103 18.038 C11.366 18.427 7.043 16.53 1.978 14.038 C0.947 13.666 -0.084 13.295 -1.147 12.913 C-3.577 10.483 -3.339 9.288 -3.397 5.913 C-3.176 0.059 -3.176 0.059 0 0 Z " fill="#CBC6C8" transform="translate(113.02197265625,213.96240234375)"/>
<path d="M0 0 C4.074 0.849 5.544 2.302 8 5.625 C8.625 8.625 8.625 8.625 8 11.625 C5.544 14.948 4.074 16.401 0 17.25 C-4.074 16.401 -5.544 14.948 -8 11.625 C-8.625 8.625 -8.625 8.625 -8 5.625 C-5.544 2.302 -4.074 0.849 0 0 Z " fill="#6B6B6B" transform="translate(192,207.375)"/>
<path d="M0 0 C3.63 0 7.26 0 11 0 C11 4.62 11 9.24 11 14 C7.37 14 3.74 14 0 14 C0 9.38 0 4.76 0 0 Z " fill="#727272" transform="translate(168,37)"/>
<path d="M0 0 C3.63 0 7.26 0 11 0 C11 4.62 11 9.24 11 14 C7.37 14 3.74 14 0 14 C0 9.38 0 4.76 0 0 Z " fill="#727272" transform="translate(77,37)"/>
<path d="M0 0 C0.66 0.33 1.32 0.66 2 1 C1.67 1.66 1.34 2.32 1 3 C0.742 6.956 0.906 9.597 3 13 C3.629 13.01 3.629 13.01 6.812 13.062 C7.52 13.074 8.228 13.086 8.957 13.098 C11 13 11 13 14 12 C15.188 8.438 15.188 8.438 16 5 C16.66 5.33 17.32 5.66 18 6 C17.527 10.255 15.036 12.192 12 15 C11.67 15.33 11.34 15.66 11 16 C6.386 16.419 3.637 15.93 0 13 C-2.519 8.878 -1.977 5.617 -1 1 C-0.67 0.67 -0.34 0.34 0 0 Z " fill="#C6C6C6" transform="translate(184,210)"/>
<path d="M0 0 C0.66 0 1.32 0 2 0 C3.075 2.652 4.095 5.284 5 8 C5.629 8.01 5.629 8.01 8.812 8.062 C9.52 8.074 10.228 8.086 10.957 8.098 C13 8 13 8 16 7 C16.33 6.01 16.66 5.02 17 4 C17.66 4.33 18.32 4.66 19 5 C13 11 13 11 10.25 11.25 C6.557 10.966 4.872 10.313 2 8 C0.457 5.06 0 3.332 0 0 Z " fill="#C5C5C5" transform="translate(54,215)"/>
<path d="M0 0 C3.317 2.949 3.471 5.68 4.25 10 C3.92 10.165 3.92 10.165 2.25 11 C2.168 9.886 2.085 8.773 2 7.625 C1.25 4 1.25 4 -0.438 2.562 C-4.279 1.628 -7.444 1.45 -11.125 3 C-11.661 3.33 -12.197 3.66 -12.75 4 C-12.75 3.01 -12.75 2.02 -12.75 1 C-8.436 -1.655 -4.725 -1.718 0 0 Z " fill="#CACACA" transform="translate(69.75,207)"/>
<path d="M0 0 C0 0.33 0 0.66 0 1 C-16.974 3.562 -16.974 3.562 -23 0 C-15.725 -2.188 -7.389 -1.344 0 0 Z " fill="#C4AEBA" transform="translate(140,216)"/>
<path d="M0 0 C2.875 1.375 2.875 1.375 5 3 C5 3.66 5 4.32 5 5 C1.125 4.125 1.125 4.125 0 3 C-3.366 2.854 -5.784 2.928 -9 4 C-8.67 3.01 -8.34 2.02 -8 1 C-5.18 -0.41 -3.13 -0.245 0 0 Z " fill="#C6C6C6" transform="translate(195,206)"/>
<path d="M0 0 C1.875 0.5 1.875 0.5 4 2 C4.985 4.652 5.459 7.205 6 10 C5.67 10.165 5.67 10.165 4 11 C3.67 8.69 3.34 6.38 3 4 C2.01 3.67 1.02 3.34 0 3 C0 2.01 0 1.02 0 0 Z " fill="#C4C4C4" transform="translate(68,207)"/>
</svg>
