<?xml version="1.0" encoding="UTF-8"?>
<!-- Generator: visioncortex VTracer 0.6.12 -->
<svg version="1.1" xmlns="http://www.w3.org/2000/svg" width="256" height="256">
<path d="M0 0 C0.897 -0.005 1.794 -0.009 2.718 -0.014 C5.724 -0.026 8.73 -0.025 11.736 -0.023 C13.892 -0.029 16.047 -0.036 18.202 -0.043 C24.058 -0.061 29.913 -0.066 35.768 -0.067 C40.657 -0.069 45.545 -0.076 50.433 -0.083 C61.966 -0.1 73.499 -0.105 85.032 -0.103 C96.929 -0.102 108.825 -0.123 120.721 -0.155 C130.936 -0.181 141.15 -0.192 151.364 -0.19 C157.464 -0.19 163.564 -0.195 169.664 -0.217 C175.403 -0.236 181.141 -0.236 186.879 -0.222 C188.983 -0.22 191.087 -0.224 193.192 -0.236 C196.068 -0.252 198.944 -0.242 201.82 -0.227 C202.235 -0.232 202.235 -0.232 204.333 -0.258 C210.592 -0.184 215.942 1.352 220.63 5.679 C224.654 10.242 226.345 14.499 226.368 20.522 C226.372 21.042 226.372 21.042 226.394 23.67 C226.393 24.234 226.393 24.234 226.391 27.091 C226.398 28.288 226.404 29.486 226.411 30.719 C226.427 33.996 226.434 37.273 226.435 40.55 C226.436 42.6 226.441 44.651 226.446 46.701 C226.465 53.862 226.473 61.023 226.471 68.184 C226.47 74.845 226.491 81.506 226.523 88.168 C226.549 93.898 226.559 99.628 226.558 105.358 C226.558 108.775 226.563 112.193 226.585 115.61 C226.604 119.426 226.598 123.24 226.586 127.056 C226.598 128.179 226.609 129.302 226.62 130.458 C226.563 137.588 225.686 143.412 220.689 148.786 C215.918 153.028 212.419 154.267 206.101 154.267 C206.101 164.827 206.101 175.387 206.101 186.267 C134.161 186.267 62.221 186.267 -11.899 186.267 C-11.899 175.047 -11.899 163.827 -11.899 152.267 C-13.549 151.607 -15.199 150.947 -16.899 150.267 C-21.721 145.222 -24.141 141.007 -24.167 134.012 C-24.175 132.974 -24.184 131.935 -24.193 130.865 C-24.192 129.736 -24.191 128.607 -24.19 127.444 C-24.197 126.247 -24.203 125.049 -24.21 123.816 C-24.226 120.539 -24.233 117.262 -24.234 113.985 C-24.235 111.934 -24.24 109.884 -24.245 107.834 C-24.263 100.673 -24.272 93.512 -24.27 86.351 C-24.269 79.69 -24.29 73.029 -24.322 66.367 C-24.348 60.637 -24.358 54.907 -24.357 49.177 C-24.357 45.759 -24.362 42.342 -24.384 38.925 C-24.403 35.109 -24.397 31.295 -24.385 27.479 C-24.391 26.918 -24.391 26.918 -24.419 24.076 C-24.362 16.947 -23.485 11.123 -18.488 5.749 C-12.641 0.55 -7.463 -0.028 0 0 Z " fill="#1BBF9F" transform="translate(26.899490356445313,34.732574462890625)"/>
<path d="M0 0 C0.985 0 1.971 0 2.986 0 C27.958 0.004 52.917 0.092 77.875 1 C78.944 1.035 80.012 1.07 81.114 1.106 C84.034 1.206 86.952 1.326 89.871 1.457 C90.285 1.471 90.285 1.471 92.379 1.543 C95.336 1.7 97.918 1.958 100.642 3.163 C103.498 6.383 102.993 10.013 102.955 14.109 C102.962 15.022 102.969 15.934 102.976 16.874 C102.994 19.896 102.982 22.916 102.969 25.938 C102.971 28.034 102.975 30.13 102.98 32.226 C102.986 36.621 102.978 41.015 102.959 45.41 C102.936 51.05 102.949 56.689 102.973 62.328 C102.988 66.657 102.983 70.986 102.973 75.315 C102.97 77.394 102.973 79.474 102.983 81.554 C102.993 84.458 102.977 87.361 102.955 90.266 C102.963 91.129 102.971 91.993 102.98 92.882 C102.897 98.669 102.897 98.669 100.642 101.212 C97.155 102.755 93.624 102.79 89.871 102.918 C88.971 102.958 88.07 102.999 87.143 103.04 C84.054 103.17 80.965 103.274 77.875 103.375 C77.332 103.395 77.332 103.395 74.582 103.495 C49.729 104.378 24.865 104.372 0 104.375 C-0.484 104.375 -0.484 104.375 -2.935 104.377 C-23.661 104.387 -44.378 104.284 -65.098 103.738 C-65.857 103.719 -66.616 103.7 -67.398 103.68 C-72.121 103.556 -76.841 103.392 -81.562 103.188 C-82.732 103.137 -83.902 103.087 -85.107 103.035 C-86.174 102.971 -87.242 102.907 -88.342 102.841 C-89.26 102.788 -90.179 102.735 -91.126 102.68 C-94.213 102.056 -95.506 101.619 -97.562 99.188 C-97.964 96.096 -98.109 93.359 -98.08 90.266 C-98.087 89.353 -98.094 88.441 -98.101 87.501 C-98.119 84.479 -98.107 81.459 -98.094 78.438 C-98.096 76.341 -98.1 74.245 -98.105 72.149 C-98.111 67.754 -98.103 63.36 -98.084 58.965 C-98.061 53.325 -98.074 47.686 -98.098 42.047 C-98.113 37.718 -98.108 33.389 -98.098 29.06 C-98.095 26.981 -98.098 24.901 -98.108 22.821 C-98.118 19.917 -98.102 17.014 -98.08 14.109 C-98.088 13.246 -98.096 12.382 -98.105 11.493 C-98.022 5.731 -98.022 5.731 -95.856 3.171 C-93.231 2.045 -91.196 1.699 -88.342 1.534 C-87.274 1.47 -86.207 1.406 -85.107 1.34 C-83.937 1.289 -82.768 1.239 -81.562 1.188 C-80.333 1.134 -79.104 1.081 -77.837 1.026 C-73.591 0.868 -69.345 0.745 -65.098 0.637 C-64.308 0.616 -63.518 0.595 -62.705 0.574 C-41.805 0.033 -20.905 -0.011 0 0 Z " fill="#000101" transform="translate(125.5625,59.8125)"/>
<path d="M0 0 C0.897 -0.005 1.794 -0.009 2.718 -0.014 C5.724 -0.026 8.73 -0.025 11.736 -0.023 C13.892 -0.029 16.047 -0.036 18.202 -0.043 C24.058 -0.061 29.913 -0.066 35.768 -0.067 C40.657 -0.069 45.545 -0.076 50.433 -0.083 C61.966 -0.1 73.499 -0.105 85.032 -0.103 C96.929 -0.102 108.825 -0.123 120.721 -0.155 C130.936 -0.181 141.15 -0.192 151.364 -0.19 C157.464 -0.19 163.564 -0.195 169.664 -0.217 C175.403 -0.236 181.141 -0.236 186.879 -0.222 C188.983 -0.22 191.087 -0.224 193.192 -0.236 C196.068 -0.252 198.944 -0.242 201.82 -0.227 C202.235 -0.232 202.235 -0.232 204.333 -0.258 C210.592 -0.184 215.942 1.352 220.63 5.679 C224.654 10.242 226.345 14.499 226.368 20.522 C226.372 21.042 226.372 21.042 226.394 23.67 C226.393 24.234 226.393 24.234 226.391 27.091 C226.398 28.288 226.404 29.486 226.411 30.719 C226.427 33.996 226.434 37.273 226.435 40.55 C226.436 42.6 226.441 44.651 226.446 46.701 C226.465 53.862 226.473 61.023 226.471 68.184 C226.47 74.845 226.491 81.506 226.523 88.168 C226.549 93.898 226.559 99.628 226.558 105.358 C226.558 108.775 226.563 112.193 226.585 115.61 C226.604 119.426 226.598 123.24 226.586 127.056 C226.598 128.179 226.609 129.302 226.62 130.458 C226.563 137.588 225.686 143.412 220.689 148.786 C215.918 153.028 212.419 154.267 206.101 154.267 C206.101 164.827 206.101 175.387 206.101 186.267 C134.161 186.267 62.221 186.267 -11.899 186.267 C-11.899 175.047 -11.899 163.827 -11.899 152.267 C-13.549 151.607 -15.199 150.947 -16.899 150.267 C-21.721 145.222 -24.141 141.007 -24.167 134.012 C-24.175 132.974 -24.184 131.935 -24.193 130.865 C-24.192 129.736 -24.191 128.607 -24.19 127.444 C-24.197 126.247 -24.203 125.049 -24.21 123.816 C-24.226 120.539 -24.233 117.262 -24.234 113.985 C-24.235 111.934 -24.24 109.884 -24.245 107.834 C-24.263 100.673 -24.272 93.512 -24.27 86.351 C-24.269 79.69 -24.29 73.029 -24.322 66.367 C-24.348 60.637 -24.358 54.907 -24.357 49.177 C-24.357 45.759 -24.362 42.342 -24.384 38.925 C-24.403 35.109 -24.397 31.295 -24.385 27.479 C-24.391 26.918 -24.391 26.918 -24.419 24.076 C-24.362 16.947 -23.485 11.123 -18.488 5.749 C-12.641 0.55 -7.463 -0.028 0 0 Z M-13.899 13.267 C-15.139 15.747 -15.034 17.407 -15.047 20.182 C-15.054 21.221 -15.061 22.26 -15.068 23.33 C-15.071 24.474 -15.074 25.619 -15.076 26.798 C-15.083 28 -15.09 29.201 -15.096 30.439 C-15.113 33.741 -15.124 37.043 -15.133 40.345 C-15.138 42.408 -15.144 44.47 -15.15 46.533 C-15.169 52.987 -15.183 59.44 -15.192 65.894 C-15.202 73.344 -15.228 80.794 -15.268 88.244 C-15.298 94.002 -15.313 99.76 -15.317 105.518 C-15.319 108.957 -15.328 112.396 -15.353 115.836 C-15.381 119.673 -15.376 123.511 -15.369 127.349 C-15.382 128.487 -15.395 129.625 -15.408 130.798 C-15.357 138.503 -15.357 138.503 -12.995 142.45 C-9.855 145.174 -8.156 145.391 -4.083 145.381 C-3.082 145.381 -2.081 145.381 -1.05 145.381 C0.034 145.376 1.117 145.37 2.233 145.365 C3.34 145.364 4.447 145.362 5.588 145.361 C9.134 145.355 12.68 145.343 16.226 145.33 C18.625 145.325 21.025 145.32 23.425 145.316 C29.317 145.305 35.209 145.288 41.101 145.267 C33.589 158.734 33.589 158.734 28.147 161.126 C23.108 162.29 18.039 161.98 12.913 161.705 C11.373 161.678 9.834 161.658 8.294 161.644 C4.55 161.61 0.85 161.437 -2.899 161.267 C-2.899 166.547 -2.899 171.827 -2.899 177.267 C63.101 177.267 129.101 177.267 197.101 177.267 C197.101 171.987 197.101 166.707 197.101 161.267 C191.161 161.102 191.161 161.102 161.101 160.267 C164.731 156.307 168.361 152.347 172.101 148.267 C172.431 147.607 172.761 146.947 173.101 146.267 C174.225 146.258 175.35 146.249 176.509 146.239 C180.694 146.199 184.877 146.133 189.061 146.06 C190.87 146.032 192.679 146.01 194.488 145.996 C197.093 145.975 199.696 145.928 202.3 145.877 C203.105 145.876 203.911 145.874 204.74 145.873 C209.763 145.743 212.458 145.045 216.101 141.267 C217.34 138.788 217.235 137.128 217.248 134.353 C217.255 133.314 217.262 132.275 217.269 131.205 C217.272 130.06 217.275 128.916 217.278 127.737 C217.281 127.136 217.281 127.136 217.297 124.095 C217.314 120.794 217.325 117.492 217.334 114.19 C217.339 112.127 217.345 110.065 217.351 108.002 C217.37 101.548 217.384 95.094 217.393 88.641 C217.403 81.191 217.429 73.741 217.469 66.291 C217.499 60.533 217.514 54.775 217.518 49.017 C217.52 45.577 217.529 42.138 217.554 38.699 C217.582 34.861 217.577 31.024 217.57 27.186 C217.583 26.048 217.596 24.909 217.609 23.737 C217.558 16.032 217.558 16.032 215.196 12.085 C211.221 8.637 207.578 9.119 202.542 9.12 C201.645 9.117 200.748 9.113 199.825 9.109 C196.802 9.098 193.78 9.094 190.757 9.09 C188.598 9.084 186.438 9.078 184.279 9.071 C178.398 9.053 172.518 9.043 166.638 9.034 C162.967 9.029 159.296 9.023 155.625 9.017 C144.148 8.998 132.672 8.984 121.195 8.975 C107.931 8.965 94.667 8.939 81.403 8.899 C71.161 8.869 60.919 8.854 50.677 8.85 C44.555 8.848 38.433 8.839 32.311 8.814 C26.553 8.791 20.796 8.786 15.038 8.797 C12.923 8.797 10.807 8.791 8.692 8.777 C5.808 8.76 2.925 8.766 0.04 8.78 C-0.8 8.769 -1.64 8.758 -2.505 8.746 C-7.559 8.802 -10.243 9.445 -13.899 13.267 Z " fill="#F9FDFC" transform="translate(26.899490356445313,34.732574462890625)"/>
<path d="M0 0 C0.842 -0.006 1.684 -0.012 2.551 -0.019 C5.371 -0.035 8.19 -0.022 11.01 -0.01 C13.032 -0.015 15.055 -0.022 17.077 -0.031 C22.568 -0.049 28.06 -0.042 33.552 -0.029 C39.296 -0.019 45.041 -0.029 50.785 -0.035 C60.433 -0.042 70.08 -0.033 79.727 -0.014 C90.884 0.008 102.041 0.001 113.198 -0.021 C122.773 -0.039 132.348 -0.042 141.924 -0.031 C147.645 -0.025 153.365 -0.024 159.086 -0.037 C164.464 -0.049 169.841 -0.041 175.219 -0.018 C177.194 -0.012 179.169 -0.014 181.144 -0.023 C183.837 -0.034 186.53 -0.02 189.224 0 C190.007 -0.009 190.791 -0.018 191.598 -0.027 C195.221 0.025 197.45 0.413 200.596 2.265 C202.832 4.753 203.239 5.63 203.247 8.91 C203.261 9.785 203.275 10.66 203.289 11.561 C203.279 12.513 203.269 13.465 203.259 14.445 C203.268 15.454 203.276 16.462 203.285 17.502 C203.307 20.837 203.293 24.172 203.276 27.508 C203.279 29.824 203.284 32.141 203.29 34.457 C203.298 39.313 203.287 44.168 203.264 49.024 C203.235 55.252 203.252 61.479 203.282 67.707 C203.3 72.49 203.294 77.274 203.281 82.057 C203.278 84.354 203.282 86.65 203.293 88.947 C203.306 92.155 203.287 95.362 203.259 98.57 C203.269 99.522 203.279 100.474 203.289 101.455 C203.275 102.33 203.261 103.204 203.247 104.106 C203.245 104.864 203.243 105.622 203.241 106.403 C202.238 109.757 200.593 110.753 197.612 112.508 C194.688 112.893 192.144 113.049 189.224 113.016 C188.382 113.022 187.54 113.028 186.672 113.035 C183.852 113.051 181.033 113.038 178.213 113.026 C176.191 113.031 174.169 113.038 172.147 113.047 C166.655 113.065 161.164 113.058 155.672 113.045 C149.928 113.035 144.183 113.044 138.438 113.051 C128.791 113.058 119.144 113.048 109.497 113.029 C98.34 113.008 87.183 113.015 76.026 113.037 C66.451 113.055 56.875 113.057 47.3 113.047 C41.579 113.041 35.859 113.04 30.138 113.053 C24.76 113.065 19.382 113.057 14.005 113.034 C12.03 113.028 10.055 113.03 8.08 113.039 C5.386 113.05 2.694 113.036 0 113.016 C-0.392 113.02 -0.392 113.02 -2.374 113.043 C-5.998 112.991 -8.227 112.603 -11.373 110.751 C-13.608 108.263 -14.015 107.385 -14.023 104.106 C-14.037 103.231 -14.051 102.356 -14.066 101.455 C-14.056 100.503 -14.046 99.551 -14.035 98.57 C-14.044 97.562 -14.053 96.553 -14.062 95.514 C-14.084 92.178 -14.069 88.844 -14.052 85.508 C-14.056 83.192 -14.06 80.875 -14.067 78.559 C-14.074 73.703 -14.063 68.848 -14.04 63.992 C-14.012 57.764 -14.028 51.537 -14.058 45.309 C-14.076 40.525 -14.07 35.742 -14.057 30.959 C-14.054 28.662 -14.058 26.365 -14.07 24.069 C-14.082 20.86 -14.063 17.654 -14.035 14.445 C-14.045 13.494 -14.055 12.542 -14.066 11.561 C-14.059 11.124 -14.059 11.124 -14.023 8.91 C-14.021 8.152 -14.019 7.394 -14.017 6.613 C-12.046 0.016 -5.855 -0.067 0 0 Z M27.077 4.957 C26.697 4.967 26.697 4.967 24.777 5.016 C20.053 5.139 15.333 5.303 10.612 5.508 C10.027 5.533 10.027 5.533 7.067 5.66 C6 5.724 4.933 5.789 3.833 5.855 C3.373 5.881 3.373 5.881 1.049 6.016 C-2.039 6.639 -3.331 7.076 -5.388 9.508 C-5.79 12.599 -5.935 15.336 -5.906 18.43 C-5.913 19.342 -5.92 20.255 -5.927 21.195 C-5.945 24.216 -5.933 27.237 -5.919 30.258 C-5.922 32.354 -5.926 34.45 -5.931 36.546 C-5.937 40.941 -5.928 45.336 -5.91 49.731 C-5.887 55.37 -5.9 61.009 -5.924 66.649 C-5.938 70.978 -5.934 75.306 -5.923 79.635 C-5.921 81.715 -5.924 83.794 -5.933 85.874 C-5.943 88.778 -5.928 91.682 -5.906 94.586 C-5.914 95.45 -5.922 96.313 -5.93 97.203 C-5.848 102.964 -5.848 102.964 -3.682 105.525 C-1.057 106.65 0.979 106.996 3.833 107.161 C4.9 107.225 5.968 107.29 7.067 107.356 C7.652 107.381 7.652 107.381 10.612 107.508 C11.841 107.561 13.071 107.615 14.337 107.669 C18.583 107.828 22.829 107.951 27.077 108.059 C27.866 108.08 28.656 108.1 29.47 108.122 C50.369 108.662 71.269 108.707 92.174 108.695 C93.16 108.695 94.145 108.695 95.161 108.695 C120.133 108.691 145.091 108.603 170.049 107.695 C171.118 107.66 172.187 107.626 173.288 107.59 C176.208 107.49 179.126 107.369 182.045 107.238 C182.873 107.21 183.701 107.182 184.554 107.153 C187.511 106.996 190.092 106.738 192.816 105.533 C195.672 102.312 195.168 98.682 195.129 94.586 C195.136 93.674 195.143 92.761 195.151 91.821 C195.168 88.8 195.157 85.779 195.143 82.758 C195.146 80.662 195.15 78.566 195.155 76.47 C195.161 72.075 195.152 67.68 195.133 63.285 C195.111 57.646 195.124 52.007 195.148 46.367 C195.162 42.038 195.157 37.71 195.147 33.381 C195.144 31.301 195.148 29.221 195.157 27.142 C195.167 24.237 195.152 21.334 195.129 18.43 C195.137 17.566 195.146 16.703 195.154 15.813 C195.071 10.026 195.071 10.026 192.816 7.483 C189.329 5.94 185.799 5.906 182.045 5.777 C181.595 5.757 181.595 5.757 179.317 5.655 C176.228 5.526 173.139 5.421 170.049 5.32 C169.506 5.301 169.506 5.301 166.756 5.201 C141.904 4.317 117.039 4.323 92.174 4.32 C91.206 4.32 90.237 4.319 89.239 4.319 C68.513 4.309 47.796 4.411 27.077 4.957 Z " fill="#159D82" transform="translate(33.38818359375,55.4920654296875)"/>
<path d="M0 0 C0.964 0.002 1.928 0.004 2.922 0.006 C4.027 0.003 5.132 0 6.27 -0.003 C6.879 0.001 6.879 0.001 9.96 0.019 C10.599 0.019 10.599 0.019 13.833 0.018 C17.343 0.018 20.853 0.029 24.364 0.043 C28.03 0.056 31.696 0.057 35.362 0.059 C42.307 0.066 49.252 0.082 56.197 0.102 C64.103 0.124 72.008 0.135 79.914 0.145 C96.179 0.166 112.443 0.202 128.708 0.246 C128.243 1.012 127.778 1.778 127.299 2.568 C126.224 4.378 125.209 6.226 124.254 8.103 C121.181 12.753 118.429 15.641 112.961 16.857 C104.883 17.764 96.758 17.544 88.645 17.361 C85.057 17.292 81.468 17.286 77.879 17.273 C71.096 17.239 64.315 17.149 57.533 17.038 C49.807 16.915 42.08 16.855 34.353 16.8 C18.47 16.685 2.589 16.492 -13.292 16.246 C-12.471 12.354 -10.898 10.203 -8.354 7.121 C-7.644 6.252 -6.934 5.383 -6.202 4.488 C-2.618 0.281 -2.618 0.281 0 0 Z " fill="#16A085" transform="translate(71.29197120666504,179.75390434265137)"/>
<path d="M0 0 C2.31 0 4.62 0 7 0 C7.605 1.5 8.209 3 8.812 4.5 C9.149 5.335 9.485 6.171 9.832 7.031 C11.264 10.672 12.633 14.334 14 18 C14.71 16.929 15.421 15.858 16.152 14.754 C17.081 13.357 18.009 11.96 18.938 10.562 C19.406 9.855 19.875 9.148 20.357 8.42 C20.581 8.083 20.581 8.083 21.715 6.379 C21.922 6.067 21.922 6.067 22.969 4.49 C24 3 24 3 25 2 C27 1.959 29 1.957 31 2 C31.128 10.018 31.095 18.04 30 26 C29.835 26.165 29.835 26.165 29 27 C27.02 27 25.04 27 23 27 C23 22.71 23 18.42 23 14 C20.03 17.96 17.06 21.92 14 26 C12.35 25.67 10.7 25.34 9 25 C8.33 23.043 7.664 21.084 7 19.125 C6.629 18.034 6.257 16.944 5.875 15.82 C5 13 5 13 5 11 C4.34 11 3.68 11 3 11 C2.939 11.927 2.879 12.854 2.816 13.809 C2.733 15.006 2.649 16.204 2.562 17.438 C2.481 18.632 2.4 19.827 2.316 21.059 C2 24 2 24 1 25 C-0.666 25.041 -2.334 25.043 -4 25 C-3.715 22.332 -3.422 19.666 -3.125 17 C-3.046 16.256 -2.968 15.512 -2.887 14.746 C-2.315 9.686 -1.33 4.917 0 0 Z " fill="#D3D4D3" transform="translate(168,95)"/>
<path d="M0 0 C0.402 0.01 0.402 0.01 2.438 0.062 C1.858 8.558 0.199 16.751 -1.562 25.062 C-2.387 25.227 -2.387 25.227 -6.562 26.062 C-9.203 23.158 -10.505 21.303 -11.438 17.438 C-12.562 14.062 -12.562 14.062 -15.438 12.5 C-15.953 12.263 -15.953 12.263 -18.562 11.062 C-22.562 5.905 -22.562 5.905 -22.562 3.062 C-19.371 2.656 -19.371 2.656 -15.562 3.062 C-13.496 5.278 -12.143 7.022 -10.625 9.562 C-10.227 10.183 -9.83 10.803 -9.42 11.441 C-8.445 12.968 -7.501 14.513 -6.562 16.062 C-6.358 14.991 -6.153 13.92 -5.941 12.816 C-5.669 11.419 -5.397 10.022 -5.125 8.625 C-4.99 7.918 -4.856 7.211 -4.717 6.482 C-3.462 0.084 -3.462 0.084 0 0 Z " fill="#D3D4D3" transform="translate(161.5625,93.9375)"/>
<path d="M0 0 C2.938 -0.054 5.875 -0.094 8.812 -0.125 C9.229 -0.133 9.229 -0.133 11.338 -0.176 C12.14 -0.182 12.943 -0.189 13.77 -0.195 C14.508 -0.206 15.246 -0.216 16.007 -0.227 C18 0 18 0 21 2 C21.293 4.383 21.293 4.383 21.188 7.125 C21.16 8.035 21.133 8.945 21.105 9.883 C21.071 10.581 21.036 11.28 21 12 C19.02 12 17.04 12 15 12 C15.33 9.36 15.66 6.72 16 4 C15.01 4 14.02 4 13 4 C13 6.64 13 9.28 13 12 C11.35 12 9.7 12 8 12 C8 9.36 8 6.72 8 4 C7.34 4 6.68 4 6 4 C6 6.64 6 9.28 6 12 C4.02 12 2.04 12 0 12 C0 8.04 0 4.08 0 0 Z " fill="#17AC8F" transform="translate(105,107)"/>
<path d="M0 0 C2.771 -0.054 5.541 -0.094 8.312 -0.125 C9.098 -0.142 9.884 -0.159 10.693 -0.176 C11.451 -0.182 12.208 -0.189 12.988 -0.195 C13.685 -0.206 14.381 -0.216 15.099 -0.227 C17 0 17 0 20 2 C20.293 4.383 20.293 4.383 20.188 7.125 C20.16 8.035 20.133 8.945 20.105 9.883 C20.071 10.581 20.036 11.28 20 12 C18.02 12 16.04 12 14 12 C14.33 9.36 14.66 6.72 15 4 C14.34 4 13.68 4 13 4 C13 6.64 13 9.28 13 12 C11.35 12 9.7 12 8 12 C7.876 10.866 7.752 9.731 7.625 8.562 C7.419 7.387 7.213 6.211 7 5 C6.34 4.67 5.68 4.34 5 4 C5 6.64 5 9.28 5 12 C3.35 12 1.7 12 0 12 C0 8.04 0 4.08 0 0 Z " fill="#17AC8F" transform="translate(128,107)"/>
<path d="M0 0 C0.785 0.005 1.57 0.01 2.379 0.016 C2.77 0.013 2.77 0.013 4.75 0 C6.941 0.266 6.941 0.266 9.941 2.266 C9.941 2.926 9.941 3.586 9.941 4.266 C7.961 4.266 5.981 4.266 3.941 4.266 C4.931 4.802 5.921 5.338 6.941 5.891 C7.436 6.282 7.436 6.282 9.941 8.266 C10.316 11.516 10.316 11.516 9.941 14.266 C6.292 16.601 3.202 16.722 -1.059 16.266 C-3.496 14.266 -3.496 14.266 -5.059 12.266 C-2.296 11.668 0.102 11.266 2.941 11.266 C1.972 10.709 1.003 10.152 0.004 9.578 C-3.059 7.266 -3.059 7.266 -4.059 4.641 C-4.059 1.462 -3.181 0.41 0 0 Z " fill="#17B093" transform="translate(61.05859375,102.734375)"/>
<path d="M0 0 C1.65 0 3.3 0 5 0 C5 2.64 5 5.28 5 8 C6.32 8 7.64 8 9 8 C9 5.36 9 2.72 9 0 C10.65 0 12.3 0 14 0 C14 3.96 14 7.92 14 12 C2.576 12.369 2.576 12.369 0.094 10.781 C-1.375 8.39 -1.125 7.054 -0.688 4.312 C-0.568 3.504 -0.448 2.696 -0.324 1.863 C-0.217 1.248 -0.11 0.634 0 0 Z " fill="#18B596" transform="translate(89,107)"/>
<path d="M0 0 C0.99 0.66 1.98 1.32 3 2 C3 2.66 3 3.32 3 4 C0.36 4 -2.28 4 -5 4 C-5 4.99 -5 5.98 -5 7 C-2.36 7 0.28 7 3 7 C1.25 10.875 1.25 10.875 -1 12 C-4.262 12.284 -6.396 12.286 -9.375 10.875 C-11 9 -11 9 -11.438 6 C-11 3 -11 3 -10 1.125 C-6.851 -0.646 -3.53 -0.548 0 0 Z " fill="#17B294" transform="translate(84,107)"/>
<path d="M0 0 C0.402 0.01 0.402 0.01 2.438 0.062 C2.017 5.667 1.521 10.783 -0.562 16.062 C-3.158 14.765 -3.545 13.754 -4.562 11.062 C-4.574 8.52 -4.574 8.52 -4.25 5.875 C-4.151 4.995 -4.051 4.114 -3.949 3.207 C-3.389 0.099 -3.215 0.078 0 0 Z " fill="#C5C6C5" transform="translate(161.5625,93.9375)"/>
<path d="M0 0 C0.99 0.165 0.99 0.165 6 1 C5.67 4.63 5.34 8.26 5 12 C3.35 12 1.7 12 0 12 C0 8.04 0 4.08 0 0 Z " fill="#18B597" transform="translate(128,107)"/>
<path d="M0 0 C2.31 0 4.62 0 7 0 C7.66 2.31 8.32 4.62 9 7 C8.546 6.99 8.546 6.99 6.25 6.938 C3.573 6.989 1.53 7.222 -1 8 C-0.67 5.36 -0.34 2.72 0 0 Z " fill="#C7C8C7" transform="translate(168,95)"/>
<path d="M0 0 C0.33 1.32 0.66 2.64 1 4 C2.32 4 3.64 4 5 4 C5.043 6 5.041 8 5 10 C4.67 10.33 4.34 10.66 4 11 C2.35 11 0.7 11 -1 11 C-0.67 7.37 -0.34 3.74 0 0 Z " fill="#B6B7B6" transform="translate(165,109)"/>
<path d="M0 0 C0.931 2.606 1.149 3.642 0.062 6.25 C-0.288 6.828 -0.639 7.405 -1 8 C-3.64 8 -6.28 8 -9 8 C-9.33 6.68 -9.66 5.36 -10 4 C-6.927 3.089 -4.199 2.911 -1 3 C-0.67 2.01 -0.34 1.02 0 0 Z " fill="#052721" transform="translate(88,107)"/>
<path d="M0 0 C1.208 3.623 0.543 4.641 -1 8 C-3.375 7.688 -3.375 7.688 -6 7 C-6.66 6.01 -7.32 5.02 -8 4 C-6.68 4 -5.36 4 -4 4 C-3.67 3.01 -3.34 2.02 -3 1 C-2.01 0.67 -1.02 0.34 0 0 Z " fill="#BABBBA" transform="translate(160,112)"/>
<path d="M0 0 C1.32 0.33 2.64 0.66 4 1 C4.33 2.98 4.66 4.96 5 7 C3.35 6.67 1.7 6.34 0 6 C0 4.02 0 2.04 0 0 Z " fill="#DFE0DF" transform="translate(151,109)"/>
<path d="M0 0 C2.627 0.355 4.58 0.725 6.812 2.188 C8.52 4.794 8.203 6.96 8 10 C7.01 10.33 6.02 10.66 5 11 C4.959 10.443 4.959 10.443 4.75 7.625 C4 4 4 4 1.938 2.562 C1.298 2.377 0.659 2.191 0 2 C0 1.34 0 0.68 0 0 Z " fill="#1F312D" transform="translate(143,105)"/>
<path d="M0 0 C2.31 0 4.62 0 7 0 C7.33 0.99 7.66 1.98 8 3 C7.01 3 6.02 3 5 3 C5 3.66 5 4.32 5 5 C3.68 4.67 2.36 4.34 1 4 C0.67 2.68 0.34 1.36 0 0 Z " fill="#B1B2B1" transform="translate(139,97)"/>
<path d="M0 0 C0.33 0 0.66 0 1 0 C1.043 2 1.041 4 1 6 C0 7 0 7 -3.062 7.062 C-3.547 7.052 -3.547 7.052 -6 7 C-5.34 6.67 -4.68 6.34 -4 6 C-3.67 5.01 -3.34 4.02 -3 3 C-2.01 3 -1.02 3 0 3 C0 2.01 0 1.02 0 0 Z " fill="#9E9E9E" transform="translate(197,115)"/>
<path d="M0 0 C0.99 0 1.98 0 3 0 C2.67 1.98 2.34 3.96 2 6 C1.01 6.33 0.02 6.66 -1 7 C-1.043 5 -1.041 3 -1 1 C-0.67 0.67 -0.34 0.34 0 0 Z " fill="#9FA09F" transform="translate(159,94)"/>
<path d="M0 0 C0.99 0 1.98 0 3 0 C2.67 2.64 2.34 5.28 2 8 C1.34 8 0.68 8 0 8 C0 5.36 0 2.72 0 0 Z " fill="#052D25" transform="translate(118,111)"/>
<path d="M0 0 C0.66 0.165 0.66 0.165 4 1 C3.67 2.32 3.34 3.64 3 5 C1.68 4.67 0.36 4.34 -1 4 C-0.67 2.68 -0.34 1.36 0 0 Z " fill="#031915" transform="translate(79,110)"/>
<path d="M0 0 C0.66 0 1.32 0 2 0 C2.33 1.65 2.66 3.3 3 5 C2.67 5.165 2.67 5.165 1 6 C0.34 6.99 -0.32 7.98 -1 9 C-0.67 6.03 -0.34 3.06 0 0 Z " fill="#333333" transform="translate(171,106)"/>
<path d="M0 0 C1.32 0.33 2.64 0.66 4 1 C3.67 1.495 3.67 1.495 2 4 C0.68 4 -0.64 4 -2 4 C-1.34 2.68 -0.68 1.36 0 0 Z " fill="#A6A7A6" transform="translate(193,97)"/>
</svg>
