<?xml version="1.0" encoding="UTF-8"?>
<!-- Generator: visioncortex VTracer 0.6.12 -->
<svg version="1.1" xmlns="http://www.w3.org/2000/svg" width="256" height="256">
<path d="M0 0 C1.291 -0.006 2.582 -0.011 3.913 -0.017 C5.342 -0.019 6.77 -0.02 8.199 -0.021 C9.706 -0.025 11.212 -0.03 12.719 -0.036 C16.81 -0.049 20.901 -0.055 24.992 -0.06 C27.549 -0.063 30.106 -0.067 32.663 -0.071 C40.666 -0.085 48.669 -0.095 56.672 -0.098 C65.905 -0.103 75.138 -0.12 84.371 -0.149 C91.511 -0.171 98.652 -0.181 105.793 -0.182 C110.056 -0.184 114.319 -0.189 118.582 -0.207 C122.593 -0.224 126.604 -0.226 130.615 -0.217 C132.085 -0.216 133.554 -0.221 135.023 -0.231 C150.678 -0.33 150.678 -0.33 156.681 4.824 C156.914 5.113 156.914 5.113 158.095 6.578 C158.336 6.866 158.336 6.866 159.556 8.324 C162.286 12.585 161.859 17.314 161.84 22.214 C161.84 22.624 161.84 22.624 161.842 24.699 C161.844 27.451 161.839 30.202 161.833 32.954 C161.833 34.925 161.833 36.896 161.834 38.867 C161.834 44.222 161.828 49.577 161.821 54.932 C161.815 60.527 161.814 66.121 161.813 71.716 C161.81 82.312 161.802 92.909 161.792 103.505 C161.78 115.568 161.775 127.631 161.77 139.693 C161.76 164.509 161.742 189.325 161.72 214.14 C160.938 214.434 160.157 214.727 159.351 215.03 C156.72 216.14 156.72 216.14 154.614 217.914 C150.248 221.272 145.373 223.418 140.407 225.765 C139.856 226.028 139.856 226.028 137.065 227.354 C76.809 255.709 76.809 255.709 43.893 244.148 C30.834 239.326 18.152 233.624 5.532 227.765 C5.207 227.615 5.207 227.615 3.564 226.855 C1.703 225.99 -0.155 225.118 -2.011 224.242 C-2.544 223.991 -2.544 223.991 -5.242 222.721 C-9.291 220.615 -13.043 218.378 -16.28 215.14 C-18.405 214.515 -18.405 214.515 -20.28 214.14 C-20.35 188.185 -20.403 162.229 -20.436 136.273 C-20.451 124.221 -20.472 112.169 -20.507 100.118 C-20.537 89.614 -20.556 79.11 -20.563 68.606 C-20.567 63.044 -20.576 57.482 -20.598 51.92 C-20.618 46.684 -20.624 41.448 -20.62 36.212 C-20.62 34.292 -20.626 32.371 -20.638 30.45 C-20.653 27.825 -20.649 25.2 -20.641 22.575 C-20.65 21.817 -20.659 21.059 -20.668 20.279 C-20.619 14.49 -19.476 9.698 -15.597 5.18 C-15.018 4.713 -14.439 4.246 -13.843 3.765 C-13.555 3.524 -13.555 3.524 -12.097 2.305 C-8.299 -0.129 -4.415 0.012 0 0 Z " fill="#353535" transform="translate(57.28034973144531,2.85955810546875)"/>
<path d="M0 0 C0.651 -0.004 0.651 -0.004 3.947 -0.026 C5.394 -0.02 6.841 -0.014 8.287 -0.007 C9.808 -0.011 11.329 -0.017 12.85 -0.023 C16.985 -0.037 21.119 -0.032 25.253 -0.022 C29.577 -0.014 33.901 -0.021 38.224 -0.026 C45.487 -0.032 52.749 -0.024 60.011 -0.01 C68.41 0.006 76.808 0.001 85.207 -0.016 C92.414 -0.029 99.62 -0.031 106.827 -0.023 C111.133 -0.019 115.439 -0.018 119.745 -0.028 C123.794 -0.037 127.843 -0.031 131.892 -0.013 C133.379 -0.009 134.865 -0.01 136.352 -0.017 C138.38 -0.025 140.408 -0.013 142.437 0 C143.004 0.001 143.004 0.001 145.877 0.003 C148.782 0.381 148.782 0.381 152.782 3.381 C152.782 19.551 152.782 35.721 152.782 52.381 C99.322 52.381 45.862 52.381 -9.218 52.381 C-9.218 36.211 -9.218 20.041 -9.218 3.381 C-5.63 -0.207 -4.884 0.005 0 0 Z " fill="#313131" transform="translate(56.21824645996094,11.619049072265625)"/>
<path d="M0 0 C1.291 -0.006 2.582 -0.011 3.913 -0.017 C5.342 -0.019 6.77 -0.02 8.199 -0.021 C9.706 -0.025 11.212 -0.03 12.719 -0.036 C16.81 -0.049 20.901 -0.055 24.992 -0.06 C27.549 -0.063 30.106 -0.067 32.663 -0.071 C40.666 -0.085 48.669 -0.095 56.672 -0.098 C65.905 -0.103 75.138 -0.12 84.371 -0.149 C91.511 -0.171 98.652 -0.181 105.793 -0.182 C110.056 -0.184 114.319 -0.189 118.582 -0.207 C122.593 -0.224 126.604 -0.226 130.615 -0.217 C132.085 -0.216 133.554 -0.221 135.023 -0.231 C150.678 -0.33 150.678 -0.33 156.681 4.824 C156.914 5.113 156.914 5.113 158.095 6.578 C158.336 6.866 158.336 6.866 159.556 8.324 C162.286 12.585 161.859 17.314 161.84 22.214 C161.84 22.624 161.84 22.624 161.842 24.699 C161.844 27.451 161.839 30.202 161.833 32.954 C161.833 34.925 161.833 36.896 161.834 38.867 C161.834 44.222 161.828 49.577 161.821 54.932 C161.815 60.527 161.814 66.121 161.813 71.716 C161.81 82.312 161.802 92.909 161.792 103.505 C161.78 115.568 161.775 127.631 161.77 139.693 C161.76 164.509 161.742 189.325 161.72 214.14 C160.938 214.434 160.157 214.727 159.351 215.03 C156.72 216.14 156.72 216.14 154.614 217.914 C150.248 221.272 145.373 223.418 140.407 225.765 C139.856 226.028 139.856 226.028 137.065 227.354 C76.809 255.709 76.809 255.709 43.893 244.148 C30.834 239.326 18.152 233.624 5.532 227.765 C5.207 227.615 5.207 227.615 3.564 226.855 C1.703 225.99 -0.155 225.118 -2.011 224.242 C-2.544 223.991 -2.544 223.991 -5.242 222.721 C-9.291 220.615 -13.043 218.378 -16.28 215.14 C-18.405 214.515 -18.405 214.515 -20.28 214.14 C-20.35 188.185 -20.403 162.229 -20.436 136.273 C-20.451 124.221 -20.472 112.169 -20.507 100.118 C-20.537 89.614 -20.556 79.11 -20.563 68.606 C-20.567 63.044 -20.576 57.482 -20.598 51.92 C-20.618 46.684 -20.624 41.448 -20.62 36.212 C-20.62 34.292 -20.626 32.371 -20.638 30.45 C-20.653 27.825 -20.649 25.2 -20.641 22.575 C-20.65 21.817 -20.659 21.059 -20.668 20.279 C-20.619 14.49 -19.476 9.698 -15.597 5.18 C-15.018 4.713 -14.439 4.246 -13.843 3.765 C-13.555 3.524 -13.555 3.524 -12.097 2.305 C-8.299 -0.129 -4.415 0.012 0 0 Z M-9.644 10.684 C-11.888 14.053 -11.835 17.04 -11.788 20.953 C-11.795 21.745 -11.801 22.537 -11.807 23.353 C-11.823 26.01 -11.811 28.667 -11.798 31.324 C-11.803 33.228 -11.81 35.131 -11.819 37.035 C-11.837 42.209 -11.83 47.382 -11.818 52.556 C-11.808 57.967 -11.817 63.377 -11.823 68.788 C-11.83 77.877 -11.821 86.965 -11.802 96.053 C-11.78 106.563 -11.787 117.073 -11.809 127.583 C-11.827 136.602 -11.83 145.621 -11.819 154.64 C-11.813 160.029 -11.812 165.417 -11.826 170.806 C-11.837 175.873 -11.829 180.939 -11.806 186.006 C-11.801 187.867 -11.802 189.727 -11.811 191.587 C-11.822 194.126 -11.808 196.663 -11.788 199.201 C-11.797 199.939 -11.806 200.676 -11.815 201.436 C-11.741 206.282 -10.712 208.733 -7.28 212.14 C-4.992 213.619 -4.992 213.619 -2.441 214.832 C-1.474 215.296 -0.508 215.76 0.487 216.238 C1.533 216.721 2.579 217.205 3.657 217.703 C4.75 218.217 5.843 218.73 6.969 219.26 C64.992 246.202 64.992 246.202 91.548 237.18 C94.974 235.915 98.351 234.551 101.72 233.14 C102.517 232.807 103.315 232.473 104.137 232.129 C115.695 227.257 127.124 222.111 138.47 216.765 C139.547 216.266 140.624 215.766 141.734 215.252 C142.735 214.774 143.736 214.296 144.767 213.805 C145.652 213.386 146.537 212.968 147.449 212.537 C150.093 210.911 151.166 209.838 152.72 207.14 C153.013 204.456 153.133 202.005 153.114 199.321 C153.12 198.529 153.126 197.736 153.133 196.919 C153.149 194.26 153.144 191.601 153.14 188.941 C153.147 187.036 153.155 185.13 153.165 183.225 C153.187 178.047 153.19 172.87 153.188 167.692 C153.188 163.373 153.197 159.054 153.205 154.734 C153.225 144.547 153.227 134.36 153.221 124.173 C153.214 113.655 153.237 103.137 153.274 92.619 C153.305 83.595 153.316 74.571 153.312 65.547 C153.31 60.154 153.316 54.762 153.34 49.369 C153.362 44.3 153.36 39.231 153.34 34.162 C153.337 32.299 153.342 30.437 153.356 28.574 C153.374 26.035 153.362 23.498 153.341 20.96 C153.354 20.219 153.366 19.479 153.379 18.716 C153.317 15.119 152.972 13.43 150.584 10.683 C147.202 8.862 145.093 8.638 141.261 8.633 C139.956 8.621 138.65 8.61 137.305 8.598 C135.866 8.606 134.426 8.614 132.987 8.623 C131.466 8.617 129.944 8.61 128.423 8.602 C124.297 8.583 120.171 8.59 116.045 8.603 C111.727 8.613 107.409 8.604 103.091 8.598 C95.84 8.59 88.59 8.6 81.339 8.619 C72.955 8.641 64.572 8.634 56.188 8.612 C48.99 8.594 41.791 8.591 34.593 8.601 C30.293 8.608 25.994 8.608 21.695 8.595 C17.654 8.584 13.614 8.592 9.573 8.615 C8.089 8.62 6.606 8.619 5.122 8.61 C3.099 8.599 1.075 8.615 -0.949 8.633 C-2.081 8.634 -3.214 8.636 -4.381 8.637 C-7.28 9.14 -7.28 9.14 -9.644 10.684 Z " fill="#FAFAFA" transform="translate(57.28034973144531,2.85955810546875)"/>
<path d="M0 0 C0.699 -0.003 1.398 -0.007 2.119 -0.01 C4.441 -0.02 6.764 -0.022 9.086 -0.023 C10.694 -0.026 12.302 -0.029 13.91 -0.033 C17.286 -0.039 20.661 -0.041 24.036 -0.04 C28.369 -0.04 32.701 -0.054 37.033 -0.071 C40.356 -0.082 43.678 -0.084 47.001 -0.083 C48.599 -0.085 50.196 -0.089 51.794 -0.097 C54.025 -0.107 56.257 -0.104 58.488 -0.098 C59.124 -0.098 59.124 -0.098 62.342 -0.102 C65.309 0.145 65.309 0.145 67.309 2.145 C67.038 6.262 65.704 8.297 62.809 11.145 C62.18 11.785 61.551 12.424 60.903 13.083 C60.047 13.763 59.191 14.444 58.309 15.145 C57.785 15.587 57.261 16.029 56.721 16.484 C49.361 21.655 40.713 20.934 32.089 20.852 C29.38 20.833 26.676 20.872 23.967 20.917 C14.348 20.964 6.93 20.705 -0.691 14.145 C-1.603 13.432 -2.514 12.72 -3.453 11.985 C-4.088 11.357 -4.724 10.73 -5.379 10.083 C-6.043 9.452 -6.706 8.822 -7.39 8.173 C-8.691 6.145 -8.691 6.145 -8.461 3.462 C-6.951 -1.084 -4.491 0.013 0 0 Z " fill="#272727" transform="translate(98.691162109375,159.854736328125)"/>
<path d="M0 0 C33 0 66 0 100 0 C100 2.31 100 4.62 100 7 C67 7 34 7 0 7 C0 4.69 0 2.38 0 0 Z " fill="#3F3F3F" transform="translate(78,43)"/>
<path d="M0 0 C33 0 66 0 100 0 C100 2.31 100 4.62 100 7 C67 7 34 7 0 7 C0 4.69 0 2.38 0 0 Z " fill="#3F3F3F" transform="translate(78,34)"/>
<path d="M0 0 C53.46 0 106.92 0 162 0 C162 1.32 162 2.64 162 4 C108.54 4 55.08 4 0 4 C0 2.68 0 1.36 0 0 Z " fill="#262626" transform="translate(47,60)"/>
<path d="M0 0 C1.471 0 2.941 0.012 4.412 0.032 C5.186 0.035 5.96 0.037 6.757 0.04 C9.233 0.052 11.709 0.077 14.185 0.102 C15.862 0.112 17.539 0.121 19.216 0.129 C23.331 0.151 27.445 0.186 31.56 0.227 C31.56 1.547 31.56 2.867 31.56 4.227 C29.662 6.114 29.662 6.114 27.185 7.915 C26.373 8.517 25.561 9.119 24.724 9.739 C21.197 12.164 19.2 12.355 14.931 12.36 C14.373 12.361 14.373 12.361 11.546 12.364 C10.375 12.36 9.204 12.356 7.998 12.352 C6.823 12.356 5.648 12.36 4.437 12.364 C3.879 12.363 3.879 12.363 1.056 12.36 C0.027 12.359 -1.003 12.358 -2.063 12.356 C-4.44 12.227 -4.44 12.227 -5.44 11.227 C-5.608 9.231 -5.608 9.231 -5.627 6.79 C-5.642 5.986 -5.656 5.183 -5.67 4.356 C-5.249 0.46 -3.7 0.244 0 0 Z " fill="#7C7C7C" transform="translate(125.43994140625,163.77294921875)"/>
<path d="M0 0 C10.56 0 21.12 0 32 0 C32 3.96 32 7.92 32 12 C21.44 12 10.88 12 0 12 C0 8.04 0 4.08 0 0 Z " fill="#7C7C7C" transform="translate(112,220)"/>
<path d="M0 0 C4.693 0.553 8.807 1.477 13.229 3.133 C13.824 3.353 13.824 3.353 16.834 4.468 C17.461 4.703 18.089 4.938 18.735 5.18 C21.425 6.184 24.124 7.162 26.822 8.141 C31.826 9.957 36.826 11.782 41.808 13.656 C69.701 24.12 88.417 25.61 116.812 14.875 C118.928 14.104 121.044 13.335 123.162 12.57 C128.198 10.744 133.222 8.89 138.243 7.024 C142.39 5.484 146.539 3.951 150.699 2.445 C151.037 2.319 151.037 2.319 152.748 1.682 C156.284 0.411 159.238 -0.281 163 0 C163 0.66 163 1.32 163 2 C162.059 2.26 161.118 2.52 160.149 2.788 C146.995 6.503 134.174 11.076 121.312 15.688 C118.065 16.847 114.817 18.005 111.569 19.163 C109.566 19.877 107.564 20.593 105.562 21.31 C103.791 21.943 102.019 22.573 100.245 23.198 C98.47 23.832 96.708 24.505 94.953 25.192 C77.27 30.03 60.149 23.541 43.75 17.375 C41.499 16.555 39.246 15.739 36.992 14.926 C32.658 13.359 28.33 11.777 24.006 10.183 C16.064 7.272 8.045 4.608 0 2 C0 1.34 0 0.68 0 0 Z " fill="#272727" transform="translate(47,184)"/>
<path d="M0 0 C1.98 0 3.96 0 6 0 C6 6.6 6 13.2 6 20 C2.04 20 -1.92 20 -6 20 C-5 18 -5 18 -2.625 16.625 C0.144 14.911 1.427 13.831 3 11 C3.688 7.25 3.688 7.25 4 4 C2.68 4 1.36 4 0 4 C0 2.68 0 1.36 0 0 Z " fill="#3E3E3E" transform="translate(194,32)"/>
<path d="M0 0 C1.98 0 3.96 0 6 0 C6 1.32 6 2.64 6 4 C4.68 4 3.36 4 2 4 C3.584 13.753 3.584 13.753 8 17 C10.25 18.25 10.25 18.25 12 19 C12 19.33 12 19.66 12 20 C8.04 20 4.08 20 0 20 C0 13.4 0 6.8 0 0 Z " fill="#3E3E3E" transform="translate(56,32)"/>
<path d="M0 0 C3.96 0 7.92 0 12 0 C12 1.32 12 2.64 12 4 C13.32 4 14.64 4 16 4 C16 4.99 16 5.98 16 7 C10.72 7 5.44 7 0 7 C0 4.69 0 2.38 0 0 Z " fill="#3E3E3E" transform="translate(180,34)"/>
<path d="M0 0 C3.96 0 7.92 0 12 0 C12 2.31 12 4.62 12 7 C6.72 7 1.44 7 -4 7 C-4 6.01 -4 5.02 -4 4 C-2.68 4 -1.36 4 0 4 C0 2.68 0 1.36 0 0 Z " fill="#3E3E3E" transform="translate(64,34)"/>
<path d="M0 0 C1.98 0 3.96 0 6 0 C7.117 1.641 7.117 1.641 8 4 C7.32 6.797 7.32 6.797 6.125 9.75 C5.736 10.735 5.346 11.72 4.945 12.734 C4.633 13.482 4.321 14.23 4 15 C2.68 15 1.36 15 0 15 C0 10.05 0 5.1 0 0 Z " fill="#3E3E3E" transform="translate(156,208)"/>
<path d="M0 0 C1.98 0 3.96 0 6 0 C7.117 1.641 7.117 1.641 8 4 C7.32 6.797 7.32 6.797 6.125 9.75 C5.736 10.735 5.346 11.72 4.945 12.734 C4.633 13.482 4.321 14.23 4 15 C2.68 15 1.36 15 0 15 C0 10.05 0 5.1 0 0 Z " fill="#3E3E3E" transform="translate(172,204)"/>
<path d="M0 0 C4.95 0 9.9 0 15 0 C15 2.31 15 4.62 15 7 C9.291 7.457 6.449 6.621 2 3 C1.34 2.01 0.68 1.02 0 0 Z " fill="#3E3E3E" transform="translate(61,43)"/>
<path d="M0 0 C4.95 0 9.9 0 15 0 C10.301 5.873 10.301 5.873 6 7 C2.688 7.125 2.688 7.125 0 7 C0 4.69 0 2.38 0 0 Z " fill="#3E3E3E" transform="translate(180,43)"/>
<path d="M0 0 C2.625 0.375 2.625 0.375 5 1 C5.625 3.375 5.625 3.375 6 6 C5.34 6.66 4.68 7.32 4 8 C1.375 7.625 1.375 7.625 -1 7 C-1.625 4.625 -1.625 4.625 -2 2 C-1.34 1.34 -0.68 0.68 0 0 Z " fill="#2F8DC2" transform="translate(196,196)"/>
<path d="M0 0 C2.625 0.375 2.625 0.375 5 1 C5.688 2.812 5.688 2.812 6 5 C4.812 6.812 4.812 6.812 3 8 C0.812 7.688 0.812 7.688 -1 7 C-1.625 4.625 -1.625 4.625 -2 2 C-1.34 1.34 -0.68 0.68 0 0 Z " fill="#3E3E3E" transform="translate(56,196)"/>
</svg>
