<?xml version="1.0" encoding="UTF-8"?>
<!-- Generator: visioncortex VTracer 0.6.12 -->
<svg version="1.1" xmlns="http://www.w3.org/2000/svg" width="256" height="256">
<path d="M0 0 C0.832 -0.003 1.664 -0.006 2.521 -0.009 C5.32 -0.018 8.118 -0.019 10.916 -0.021 C12.918 -0.025 14.92 -0.03 16.923 -0.036 C22.369 -0.049 27.815 -0.055 33.261 -0.06 C36.662 -0.063 40.063 -0.067 43.463 -0.071 C54.098 -0.085 64.732 -0.095 75.367 -0.098 C87.653 -0.103 99.939 -0.12 112.226 -0.149 C121.716 -0.171 131.207 -0.181 140.697 -0.182 C146.369 -0.184 152.04 -0.189 157.711 -0.207 C163.045 -0.224 168.378 -0.226 173.712 -0.217 C175.67 -0.216 177.629 -0.221 179.588 -0.231 C182.26 -0.243 184.931 -0.238 187.603 -0.227 C188.38 -0.235 189.157 -0.243 189.958 -0.251 C196.191 -0.194 199.169 1.541 203.678 5.64 C207.07 9.41 207.05 12.23 207.026 17.121 C207.023 18.284 207.019 19.448 207.016 20.646 C207.008 21.861 206.999 23.076 206.991 24.328 C206.986 25.554 206.982 26.781 206.977 28.045 C206.965 31.077 206.949 34.109 206.928 37.14 C207.717 37.446 208.505 37.752 209.318 38.066 C212.933 39.554 215.068 41.476 217.928 44.14 C219.244 48.089 219.084 51.866 219.089 55.983 C219.094 56.887 219.099 57.792 219.104 58.724 C219.119 61.721 219.126 64.718 219.131 67.715 C219.137 69.799 219.143 71.883 219.149 73.967 C219.159 78.341 219.165 82.715 219.168 87.088 C219.174 92.683 219.198 98.277 219.226 103.871 C219.245 108.178 219.25 112.486 219.252 116.793 C219.255 118.855 219.263 120.916 219.276 122.978 C219.293 125.869 219.291 128.76 219.285 131.651 C219.294 132.496 219.303 133.342 219.313 134.213 C219.255 142.409 216.814 150.196 210.928 156.14 C203.872 161.025 198.095 162.29 189.605 162.281 C189.181 162.282 189.181 162.282 187.037 162.29 C184.194 162.299 181.351 162.3 178.507 162.302 C176.471 162.306 174.434 162.311 172.397 162.317 C166.86 162.33 161.322 162.336 155.785 162.341 C152.325 162.344 148.866 162.348 145.406 162.352 C134.582 162.366 123.758 162.375 112.935 162.379 C100.44 162.384 87.945 162.401 75.451 162.43 C65.793 162.452 56.135 162.462 46.477 162.463 C40.709 162.464 34.941 162.47 29.173 162.488 C23.745 162.505 18.319 162.507 12.891 162.498 C10.902 162.497 8.912 162.502 6.922 162.512 C4.201 162.524 1.481 162.518 -1.24 162.508 C-2.023 162.516 -2.807 162.524 -3.614 162.532 C-11.599 162.461 -19.306 159.85 -25.072 154.14 C-28.772 148.795 -31.184 143.679 -31.212 137.124 C-31.218 136.335 -31.224 135.546 -31.229 134.733 C-31.231 133.876 -31.232 133.019 -31.233 132.137 C-31.238 131.227 -31.243 130.318 -31.248 129.381 C-31.263 126.375 -31.269 123.369 -31.275 120.363 C-31.281 118.273 -31.286 116.183 -31.292 114.094 C-31.303 109.713 -31.308 105.333 -31.312 100.952 C-31.317 95.339 -31.342 89.725 -31.37 84.112 C-31.389 79.796 -31.394 75.48 -31.395 71.164 C-31.398 69.095 -31.406 67.025 -31.42 64.955 C-31.437 62.061 -31.435 59.168 -31.428 56.273 C-31.437 55.419 -31.447 54.564 -31.456 53.683 C-31.423 48.992 -31.073 45.975 -28.072 42.14 C-26.318 40.558 -26.318 40.558 -24.509 39.328 C-23.91 38.909 -23.31 38.49 -22.693 38.058 C-21.072 37.14 -21.072 37.14 -19.072 37.14 C-19.08 36.76 -19.08 36.76 -19.119 34.833 C-19.182 31.373 -19.221 27.913 -19.259 24.453 C-19.284 23.255 -19.31 22.057 -19.335 20.822 C-19.34 20.244 -19.34 20.244 -19.365 17.316 C-19.38 16.253 -19.396 15.19 -19.412 14.095 C-18.753 8.373 -15.23 4.883 -11.072 1.14 C-7.343 -0.102 -3.883 -0.004 0 0 Z " fill="#BBBBBC" transform="translate(34.071746826171875,46.85955810546875)"/>
<path d="M0 0 C0.832 -0.003 1.664 -0.006 2.521 -0.009 C5.32 -0.018 8.118 -0.019 10.916 -0.021 C12.918 -0.025 14.92 -0.03 16.923 -0.036 C22.369 -0.049 27.815 -0.055 33.261 -0.06 C36.662 -0.063 40.063 -0.067 43.463 -0.071 C54.098 -0.085 64.732 -0.095 75.367 -0.098 C87.653 -0.103 99.939 -0.12 112.226 -0.149 C121.716 -0.171 131.207 -0.181 140.697 -0.182 C146.369 -0.184 152.04 -0.189 157.711 -0.207 C163.045 -0.224 168.378 -0.226 173.712 -0.217 C175.67 -0.216 177.629 -0.221 179.588 -0.231 C182.26 -0.243 184.931 -0.238 187.603 -0.227 C188.38 -0.235 189.157 -0.243 189.958 -0.251 C196.191 -0.194 199.169 1.541 203.678 5.64 C207.07 9.41 207.05 12.23 207.026 17.121 C207.023 18.284 207.019 19.448 207.016 20.646 C207.008 21.861 206.999 23.076 206.991 24.328 C206.986 25.554 206.982 26.781 206.977 28.045 C206.965 31.077 206.949 34.109 206.928 37.14 C207.717 37.446 208.505 37.752 209.318 38.066 C212.933 39.554 215.068 41.476 217.928 44.14 C219.244 48.089 219.084 51.866 219.089 55.983 C219.094 56.887 219.099 57.792 219.104 58.724 C219.119 61.721 219.126 64.718 219.131 67.715 C219.137 69.799 219.143 71.883 219.149 73.967 C219.159 78.341 219.165 82.715 219.168 87.088 C219.174 92.683 219.198 98.277 219.226 103.871 C219.245 108.178 219.25 112.486 219.252 116.793 C219.255 118.855 219.263 120.916 219.276 122.978 C219.293 125.869 219.291 128.76 219.285 131.651 C219.294 132.496 219.303 133.342 219.313 134.213 C219.255 142.409 216.814 150.196 210.928 156.14 C203.872 161.025 198.095 162.29 189.605 162.281 C189.181 162.282 189.181 162.282 187.037 162.29 C184.194 162.299 181.351 162.3 178.507 162.302 C176.471 162.306 174.434 162.311 172.397 162.317 C166.86 162.33 161.322 162.336 155.785 162.341 C152.325 162.344 148.866 162.348 145.406 162.352 C134.582 162.366 123.758 162.375 112.935 162.379 C100.44 162.384 87.945 162.401 75.451 162.43 C65.793 162.452 56.135 162.462 46.477 162.463 C40.709 162.464 34.941 162.47 29.173 162.488 C23.745 162.505 18.319 162.507 12.891 162.498 C10.902 162.497 8.912 162.502 6.922 162.512 C4.201 162.524 1.481 162.518 -1.24 162.508 C-2.023 162.516 -2.807 162.524 -3.614 162.532 C-11.599 162.461 -19.306 159.85 -25.072 154.14 C-28.772 148.795 -31.184 143.679 -31.212 137.124 C-31.218 136.335 -31.224 135.546 -31.229 134.733 C-31.231 133.876 -31.232 133.019 -31.233 132.137 C-31.238 131.227 -31.243 130.318 -31.248 129.381 C-31.263 126.375 -31.269 123.369 -31.275 120.363 C-31.281 118.273 -31.286 116.183 -31.292 114.094 C-31.303 109.713 -31.308 105.333 -31.312 100.952 C-31.317 95.339 -31.342 89.725 -31.37 84.112 C-31.389 79.796 -31.394 75.48 -31.395 71.164 C-31.398 69.095 -31.406 67.025 -31.42 64.955 C-31.437 62.061 -31.435 59.168 -31.428 56.273 C-31.437 55.419 -31.447 54.564 -31.456 53.683 C-31.423 48.992 -31.073 45.975 -28.072 42.14 C-26.318 40.558 -26.318 40.558 -24.509 39.328 C-23.91 38.909 -23.31 38.49 -22.693 38.058 C-21.072 37.14 -21.072 37.14 -19.072 37.14 C-19.08 36.76 -19.08 36.76 -19.119 34.833 C-19.182 31.373 -19.221 27.913 -19.259 24.453 C-19.284 23.255 -19.31 22.057 -19.335 20.822 C-19.34 20.244 -19.34 20.244 -19.365 17.316 C-19.38 16.253 -19.396 15.19 -19.412 14.095 C-18.753 8.373 -15.23 4.883 -11.072 1.14 C-7.343 -0.102 -3.883 -0.004 0 0 Z M193.928 10.14 C193.935 10.695 193.941 11.25 193.948 11.821 C193.956 14.346 193.912 16.866 193.866 19.39 C193.877 20.263 193.888 21.136 193.899 22.035 C193.888 22.457 193.888 22.457 193.831 24.594 C193.825 25.369 193.82 26.144 193.815 26.942 C192.928 29.14 192.928 29.14 185.928 33.14 C185.928 45.02 185.928 56.9 185.928 69.14 C170.088 69.14 154.248 69.14 137.928 69.14 C137.928 53.3 137.928 37.46 137.928 21.14 C108.888 21.14 79.848 21.14 49.928 21.14 C49.928 36.98 49.928 52.82 49.928 69.14 C34.088 69.14 18.248 69.14 1.928 69.14 C1.928 57.26 1.928 45.38 1.928 33.14 C-0.382 31.82 -2.692 30.5 -5.072 29.14 C-5.958 27.034 -5.958 27.034 -5.974 24.812 C-5.997 24.013 -6.019 23.214 -6.042 22.39 C-6.031 21.565 -6.021 20.74 -6.009 19.89 C-6.017 19.47 -6.017 19.47 -6.058 17.344 C-6.093 15.276 -6.087 13.208 -6.072 11.14 C-8.058 12.268 -8.058 12.268 -10.072 14.14 C-10.443 16.848 -10.443 16.848 -10.294 20.094 C-10.277 21.27 -10.26 22.447 -10.242 23.66 C-10.17 26.132 -10.072 28.604 -9.945 31.074 C-9.936 32.256 -9.928 33.438 -9.919 34.656 C-9.878 35.731 -9.837 36.807 -9.795 37.915 C-11.422 42.024 -12.655 41.952 -16.568 43.731 C-19.51 45.473 -21.613 46.743 -22.711 50.089 C-23.735 56.397 -23.433 62.809 -23.287 69.176 C-23.276 71.259 -23.27 73.342 -23.268 75.425 C-23.253 79.784 -23.201 84.141 -23.121 88.5 C-23.019 94.081 -22.983 99.66 -22.97 105.242 C-22.957 109.541 -22.922 113.84 -22.88 118.139 C-22.859 120.196 -22.843 122.254 -22.831 124.312 C-22.808 127.189 -22.758 130.065 -22.7 132.941 C-22.698 133.788 -22.695 134.634 -22.692 135.506 C-22.547 140.838 -21.58 143.897 -18.072 148.14 C-12.852 152.739 -9.704 153.289 -2.899 153.288 C-2.044 153.291 -1.189 153.295 -0.308 153.299 C2.574 153.31 5.456 153.314 8.337 153.317 C10.397 153.324 12.456 153.33 14.516 153.337 C20.123 153.355 25.731 153.365 31.339 153.374 C34.84 153.379 38.341 153.385 41.843 153.391 C52.791 153.41 63.74 153.424 74.689 153.433 C87.339 153.442 99.989 153.469 112.638 153.509 C122.408 153.539 132.178 153.554 141.948 153.557 C147.787 153.56 153.625 153.569 159.464 153.594 C164.957 153.617 170.449 153.621 175.942 153.611 C177.958 153.611 179.975 153.617 181.991 153.631 C184.744 153.648 187.495 153.641 190.248 153.628 C191.046 153.639 191.844 153.65 192.667 153.661 C197.873 153.601 200.778 152.544 204.928 149.14 C209.643 143.788 210.105 140.379 210.216 133.396 C210.234 132.49 210.252 131.584 210.27 130.65 C210.425 122.291 210.512 113.931 210.58 105.571 C210.627 99.953 210.694 94.337 210.813 88.72 C210.928 83.29 210.988 77.863 211.011 72.432 C211.029 70.364 211.065 68.295 211.122 66.228 C211.547 49.849 211.547 49.849 207.449 45.525 C204.44 43.756 204.44 43.756 201.425 42.39 C198.928 41.14 198.928 41.14 197.588 37.684 C197.603 36.505 197.619 35.327 197.635 34.113 C197.63 33.47 197.63 33.47 197.606 30.217 C197.65 28.879 197.695 27.541 197.741 26.203 C197.748 24.838 197.75 23.472 197.747 22.107 C197.758 18.781 197.82 15.464 197.928 12.14 C197.268 11.81 197.268 11.81 193.928 10.14 Z " fill="#DBDBDB" transform="translate(34.071746826171875,46.85955810546875)"/>
<path d="M0 0 C58.08 0 116.16 0 176 0 C182.985 20.955 182.985 20.955 185.375 29 C185.634 29.856 185.893 30.712 186.16 31.594 C188 37.746 188 37.746 188 40 C122 40 56 40 -12 40 C-8.622 26.488 -8.622 26.488 -6.992 21.211 C-6.645 20.086 -6.299 18.96 -5.941 17.801 C-5.589 16.67 -5.238 15.54 -4.875 14.375 C-4.515 13.206 -4.156 12.037 -3.785 10.832 C-1.138 2.276 -1.138 2.276 0 0 Z " fill="#0808B7" transform="translate(40,120)"/>
<path d="M0 0 C0.832 -0.003 1.664 -0.006 2.521 -0.009 C5.32 -0.018 8.118 -0.019 10.916 -0.021 C12.918 -0.025 14.92 -0.03 16.923 -0.036 C22.369 -0.049 27.815 -0.055 33.261 -0.06 C36.662 -0.063 40.063 -0.067 43.463 -0.071 C54.098 -0.085 64.732 -0.095 75.367 -0.098 C87.653 -0.103 99.939 -0.12 112.226 -0.149 C121.716 -0.171 131.207 -0.181 140.697 -0.182 C146.369 -0.184 152.04 -0.189 157.711 -0.207 C163.045 -0.224 168.378 -0.226 173.712 -0.217 C175.67 -0.216 177.629 -0.221 179.588 -0.231 C182.26 -0.243 184.931 -0.238 187.603 -0.227 C188.38 -0.235 189.157 -0.243 189.958 -0.251 C196.191 -0.194 199.169 1.541 203.678 5.64 C207.07 9.41 207.05 12.23 207.026 17.121 C207.023 18.284 207.019 19.448 207.016 20.646 C207.008 21.861 206.999 23.076 206.991 24.328 C206.986 25.554 206.982 26.781 206.977 28.045 C206.965 31.077 206.949 34.109 206.928 37.14 C207.717 37.446 208.505 37.752 209.318 38.066 C212.933 39.554 215.068 41.476 217.928 44.14 C219.244 48.089 219.084 51.866 219.089 55.983 C219.094 56.887 219.099 57.792 219.104 58.724 C219.119 61.721 219.126 64.718 219.131 67.715 C219.137 69.799 219.143 71.883 219.149 73.967 C219.159 78.341 219.165 82.715 219.168 87.088 C219.174 92.683 219.198 98.277 219.226 103.871 C219.245 108.178 219.25 112.486 219.252 116.793 C219.255 118.855 219.263 120.916 219.276 122.978 C219.293 125.869 219.291 128.76 219.285 131.651 C219.294 132.496 219.303 133.342 219.313 134.213 C219.255 142.409 216.814 150.196 210.928 156.14 C203.872 161.025 198.095 162.29 189.605 162.281 C189.181 162.282 189.181 162.282 187.037 162.29 C184.194 162.299 181.351 162.3 178.507 162.302 C176.471 162.306 174.434 162.311 172.397 162.317 C166.86 162.33 161.322 162.336 155.785 162.341 C152.325 162.344 148.866 162.348 145.406 162.352 C134.582 162.366 123.758 162.375 112.935 162.379 C100.44 162.384 87.945 162.401 75.451 162.43 C65.793 162.452 56.135 162.462 46.477 162.463 C40.709 162.464 34.941 162.47 29.173 162.488 C23.745 162.505 18.319 162.507 12.891 162.498 C10.902 162.497 8.912 162.502 6.922 162.512 C4.201 162.524 1.481 162.518 -1.24 162.508 C-2.023 162.516 -2.807 162.524 -3.614 162.532 C-11.599 162.461 -19.306 159.85 -25.072 154.14 C-28.772 148.795 -31.184 143.679 -31.212 137.124 C-31.218 136.335 -31.224 135.546 -31.229 134.733 C-31.231 133.876 -31.232 133.019 -31.233 132.137 C-31.238 131.227 -31.243 130.318 -31.248 129.381 C-31.263 126.375 -31.269 123.369 -31.275 120.363 C-31.281 118.273 -31.286 116.183 -31.292 114.094 C-31.303 109.713 -31.308 105.333 -31.312 100.952 C-31.317 95.339 -31.342 89.725 -31.37 84.112 C-31.389 79.796 -31.394 75.48 -31.395 71.164 C-31.398 69.095 -31.406 67.025 -31.42 64.955 C-31.437 62.061 -31.435 59.168 -31.428 56.273 C-31.437 55.419 -31.447 54.564 -31.456 53.683 C-31.423 48.992 -31.073 45.975 -28.072 42.14 C-26.318 40.558 -26.318 40.558 -24.509 39.328 C-23.91 38.909 -23.31 38.49 -22.693 38.058 C-21.072 37.14 -21.072 37.14 -19.072 37.14 C-19.08 36.76 -19.08 36.76 -19.119 34.833 C-19.182 31.373 -19.221 27.913 -19.259 24.453 C-19.284 23.255 -19.31 22.057 -19.335 20.822 C-19.34 20.244 -19.34 20.244 -19.365 17.316 C-19.38 16.253 -19.396 15.19 -19.412 14.095 C-18.753 8.373 -15.23 4.883 -11.072 1.14 C-7.343 -0.102 -3.883 -0.004 0 0 Z M-9.056 10.484 C-10.678 13.129 -10.313 15.471 -10.197 18.531 C-10.183 19.798 -10.168 21.065 -10.154 22.371 C-10.11 25.04 -10.014 27.694 -9.896 30.363 C-9.892 31.635 -9.888 32.908 -9.884 34.219 C-9.849 35.378 -9.815 36.537 -9.779 37.731 C-11.408 42.027 -12.523 41.918 -16.57 43.758 C-19.512 45.489 -21.614 46.746 -22.711 50.087 C-23.735 56.396 -23.433 62.809 -23.287 69.176 C-23.276 71.259 -23.27 73.342 -23.268 75.425 C-23.253 79.784 -23.201 84.141 -23.121 88.5 C-23.019 94.081 -22.983 99.66 -22.97 105.242 C-22.957 109.541 -22.922 113.84 -22.88 118.139 C-22.859 120.196 -22.843 122.254 -22.831 124.312 C-22.808 127.189 -22.758 130.065 -22.7 132.941 C-22.698 133.788 -22.695 134.634 -22.692 135.506 C-22.547 140.838 -21.58 143.897 -18.072 148.14 C-12.852 152.739 -9.704 153.289 -2.899 153.288 C-2.044 153.291 -1.189 153.295 -0.308 153.299 C2.574 153.31 5.456 153.314 8.337 153.317 C10.397 153.324 12.456 153.33 14.516 153.337 C20.123 153.355 25.731 153.365 31.339 153.374 C34.84 153.379 38.341 153.385 41.843 153.391 C52.791 153.41 63.74 153.424 74.689 153.433 C87.339 153.442 99.989 153.469 112.638 153.509 C122.408 153.539 132.178 153.554 141.948 153.557 C147.787 153.56 153.625 153.569 159.464 153.594 C164.957 153.617 170.449 153.621 175.942 153.611 C177.958 153.611 179.975 153.617 181.991 153.631 C184.744 153.648 187.495 153.641 190.248 153.628 C191.046 153.639 191.844 153.65 192.667 153.661 C197.873 153.601 200.778 152.544 204.928 149.14 C209.643 143.788 210.105 140.379 210.216 133.396 C210.234 132.49 210.252 131.584 210.27 130.65 C210.425 122.291 210.512 113.931 210.58 105.571 C210.627 99.953 210.694 94.337 210.813 88.72 C210.928 83.29 210.988 77.863 211.011 72.432 C211.029 70.364 211.065 68.295 211.122 66.228 C211.547 49.849 211.547 49.849 207.446 45.521 C204.433 43.75 204.433 43.75 201.418 42.384 C198.928 41.14 198.928 41.14 197.635 37.731 C197.67 36.572 197.705 35.413 197.741 34.219 C197.745 32.946 197.748 31.674 197.752 30.363 C197.81 29.052 197.868 27.741 197.928 26.39 C197.992 23.77 198.024 21.152 198.053 18.531 C198.075 17.954 198.075 17.954 198.186 15.032 C197.928 12.14 197.928 12.14 196.913 10.484 C193.806 8.381 190.544 8.728 186.919 8.759 C186.094 8.755 185.268 8.75 184.418 8.745 C181.643 8.733 178.868 8.743 176.092 8.752 C174.107 8.748 172.121 8.743 170.135 8.736 C164.734 8.723 159.334 8.728 153.933 8.737 C148.289 8.745 142.645 8.738 137.001 8.733 C127.522 8.728 118.042 8.735 108.563 8.749 C97.594 8.766 86.624 8.76 75.655 8.744 C66.248 8.73 56.84 8.728 47.433 8.736 C41.81 8.741 36.187 8.741 30.563 8.732 C25.277 8.723 19.992 8.729 14.706 8.746 C12.762 8.75 10.819 8.749 8.875 8.742 C6.229 8.734 3.584 8.744 0.938 8.759 C0.55 8.756 0.55 8.756 -1.412 8.739 C-6.563 8.796 -6.563 8.796 -9.056 10.484 Z " fill="#FDFDFD" transform="translate(34.071746826171875,46.85955810546875)"/>
<path d="M0 0 C71.28 0 142.56 0 216 0 C216 18 216 18 213 23 C209.272 24.243 205.811 24.145 201.928 24.14 C201.096 24.143 200.264 24.146 199.407 24.149 C196.609 24.158 193.81 24.16 191.012 24.161 C189.01 24.166 187.008 24.171 185.006 24.176 C179.559 24.189 174.113 24.196 168.667 24.2 C165.266 24.203 161.866 24.207 158.465 24.212 C147.831 24.225 137.196 24.235 126.562 24.239 C114.275 24.243 101.989 24.261 89.703 24.29 C80.212 24.311 70.722 24.322 61.231 24.323 C55.56 24.324 49.888 24.33 44.217 24.348 C38.883 24.364 33.55 24.366 28.217 24.358 C26.258 24.357 24.299 24.361 22.34 24.371 C19.669 24.384 16.997 24.378 14.326 24.367 C13.549 24.376 12.771 24.384 11.971 24.392 C7.494 24.351 4.512 23.862 1 21 C-1.216 14.352 0 7.008 0 0 Z " fill="#E4E4E3" transform="translate(20,164)"/>
<path d="M0 0 C29.04 0 58.08 0 88 0 C88 15.84 88 31.68 88 48 C58.96 48 29.92 48 0 48 C0 32.16 0 16.32 0 0 Z " fill="#8C8C8C" transform="translate(84,68)"/>
<path d="M0 0 C1.253 0.001 2.505 0.002 3.796 0.003 C4.491 0.002 5.186 0.001 5.902 0 C8.249 -0.001 10.595 0.004 12.941 0.01 C14.616 0.01 16.291 0.01 17.966 0.009 C22.528 0.009 27.09 0.015 31.651 0.022 C36.413 0.028 41.175 0.028 45.937 0.03 C54.961 0.033 63.985 0.041 73.009 0.051 C83.28 0.062 93.55 0.068 103.821 0.073 C124.955 0.083 146.088 0.101 167.222 0.123 C168.975 4.172 170.652 8.141 171.909 12.373 C172.035 12.788 172.035 12.788 172.671 14.889 C173.222 17.123 173.222 17.123 173.222 20.123 C113.162 20.123 53.102 20.123 -8.778 20.123 C-8.025 15.602 -7.127 11.649 -5.778 7.311 C-5.427 6.17 -5.077 5.029 -4.716 3.854 C-3.445 0.153 -3.445 0.153 0 0 Z " fill="#E2E3E3" transform="translate(45.778000831604004,123.87695217132568)"/>
<path d="M0 0 C23.76 0 47.52 0 72 0 C72 9.24 72 18.48 72 28 C48.24 28 24.48 28 0 28 C0 18.76 0 9.52 0 0 Z " fill="#7E7E7E" transform="translate(92,80)"/>
<path d="M0 0 C18.81 0 37.62 0 57 0 C56.67 6.6 56.34 13.2 56 20 C53.433 21.284 51.688 21.082 48.816 21.022 C47.735 21.002 46.654 20.982 45.54 20.961 C44.369 20.934 43.199 20.907 41.992 20.879 C40.796 20.855 39.601 20.832 38.369 20.807 C34.537 20.731 30.706 20.647 26.875 20.562 C24.283 20.509 21.69 20.457 19.098 20.404 C12.732 20.275 6.366 20.139 0 20 C0 13.4 0 6.8 0 0 Z " fill="#CCCCCC" transform="translate(172,56)"/>
<path d="M0 0 C29.04 0 58.08 0 88 0 C88 3.96 88 7.92 88 12 C58.96 12 29.92 12 0 12 C0 8.04 0 4.08 0 0 Z " fill="#E4E5E4" transform="translate(84,56)"/>
<path d="M0 0 C62.04 0 124.08 0 188 0 C188 1.32 188 2.64 188 4 C125.96 4 63.92 4 0 4 C0 2.68 0 1.36 0 0 Z " fill="#B4B4BE" transform="translate(34,152)"/>
<path d="M0 0 C59.4 0 118.8 0 180 0 C180.33 1.32 180.66 2.64 181 4 C120.94 4 60.88 4 -1 4 C-0.67 2.68 -0.34 1.36 0 0 Z " fill="#DF7D2B" transform="translate(38,140)"/>
<path d="M0 0 C23.76 0 47.52 0 72 0 C72 1.32 72 2.64 72 4 C48.24 4 24.48 4 0 4 C0 2.68 0 1.36 0 0 Z " fill="#747474" transform="translate(92,80)"/>
<path d="M0 0 C6.6 0 13.2 0 20 0 C20 3.96 20 7.92 20 12 C13.4 12 6.8 12 0 12 C0 8.04 0 4.08 0 0 Z " fill="#FE0707" transform="translate(184,168)"/>
<path d="M0 0 C13.2 0 26.4 0 40 0 C40 1.32 40 2.64 40 4 C26.8 4 13.6 4 0 4 C0 2.68 0 1.36 0 0 Z " fill="#C1C1C1" transform="translate(176,108)"/>
<path d="M0 0 C13.2 0 26.4 0 40 0 C40 1.32 40 2.64 40 4 C26.8 4 13.6 4 0 4 C0 2.68 0 1.36 0 0 Z " fill="#C1C1C1" transform="translate(40,108)"/>
<path d="M0 0 C13.2 0 26.4 0 40 0 C40 1.32 40 2.64 40 4 C26.8 4 13.6 4 0 4 C0 2.68 0 1.36 0 0 Z " fill="#C1C1C1" transform="translate(176,100)"/>
<path d="M0 0 C13.2 0 26.4 0 40 0 C40 1.32 40 2.64 40 4 C26.8 4 13.6 4 0 4 C0 2.68 0 1.36 0 0 Z " fill="#C1C1C1" transform="translate(40,100)"/>
<path d="M0 0 C13.2 0 26.4 0 40 0 C40 1.32 40 2.64 40 4 C26.8 4 13.6 4 0 4 C0 2.68 0 1.36 0 0 Z " fill="#C1C1C1" transform="translate(176,92)"/>
<path d="M0 0 C13.2 0 26.4 0 40 0 C40 1.32 40 2.64 40 4 C26.8 4 13.6 4 0 4 C0 2.68 0 1.36 0 0 Z " fill="#C1C1C1" transform="translate(40,92)"/>
<path d="M0 0 C13.2 0 26.4 0 40 0 C40 1.32 40 2.64 40 4 C26.8 4 13.6 4 0 4 C0 2.68 0 1.36 0 0 Z " fill="#C1C1C1" transform="translate(176,84)"/>
<path d="M0 0 C13.2 0 26.4 0 40 0 C40 1.32 40 2.64 40 4 C26.8 4 13.6 4 0 4 C0 2.68 0 1.36 0 0 Z " fill="#C1C1C1" transform="translate(40,84)"/>
</svg>
