<?xml version="1.0" encoding="UTF-8"?>
<!-- Generator: visioncortex VTracer 0.6.12 -->
<svg version="1.1" xmlns="http://www.w3.org/2000/svg" width="256" height="256">
<path d="M0 0 C82.5 0 165 0 250 0 C250 42.9 250 85.8 250 130 C167.5 130 85 130 0 130 C0 87.1 0 44.2 0 0 Z " fill="#242323" transform="translate(3,63)"/>
<path d="M0 0 C75.24 0 150.48 0 228 0 C228 0.66 228 1.32 228 2 C225.86 3.556 225.86 3.556 222.891 5.371 C222.358 5.699 222.358 5.699 219.664 7.361 C218.537 8.046 217.411 8.732 216.25 9.438 C214.046 10.789 211.843 12.142 209.641 13.496 C208.656 14.096 207.672 14.696 206.657 15.314 C204 17 204 17 201.897 18.781 C201.584 18.983 201.584 18.983 200 20 C198.68 19.67 197.36 19.34 196 19 C196 24.28 196 29.56 196 35 C169.6 35 143.2 35 116 35 C116 29.72 116 24.44 116 19 C88.28 19 60.56 19 32 19 C32 27.25 32 35.5 32 44 C29.755 49.464 28.258 52.646 24.875 57.125 C23.536 59.063 22.2 61.003 20.867 62.945 C20.064 64.109 20.064 64.109 16 70 C11.38 77.59 6.76 85.18 2 93 C77.9 93 153.8 93 232 93 C232 98.94 232 104.88 232 111 C155.44 111 78.88 111 0 111 C0 74.37 0 37.74 0 0 Z " fill="#291E1E" transform="translate(12,73)"/>
<path d="M0 0 C82.5 0 165 0 250 0 C250 42.9 250 85.8 250 130 C167.5 130 85 130 0 130 C0 87.1 0 44.2 0 0 Z M9 9 C9 45.96 9 82.92 9 121 C85.56 121 162.12 121 241 121 C241 84.04 241 47.08 241 9 C164.44 9 87.88 9 9 9 Z " fill="#FAFAFA" transform="translate(3,63)"/>
<path d="M0 0 C76.56 0 153.12 0 232 0 C232 5.28 232 10.56 232 16 C155.44 16 78.88 16 0 16 C0 10.72 0 5.44 0 0 Z " fill="#292727" transform="translate(12,168)"/>
<path d="M0 0 C27.72 0 55.44 0 84 0 C84 5.28 84 10.56 84 16 C110.4 16 136.8 16 164 16 C164 10.72 164 5.44 164 0 C165.32 0 166.64 0 168 0 C168 7.92 168 15.84 168 24 C112.56 24 57.12 24 0 24 C0 16.08 0 8.16 0 0 Z " fill="#323232" transform="translate(44,92)"/>
<path d="M0 0 C26.4 0 52.8 0 80 0 C80 9.24 80 18.48 80 28 C53.6 28 27.2 28 0 28 C0 18.76 0 9.52 0 0 Z " fill="#B60303" transform="translate(128,132)"/>
<path d="M0 0 C26.4 0 52.8 0 80 0 C80 3.96 80 7.92 80 12 C53.6 12 27.2 12 0 12 C0 8.04 0 4.08 0 0 Z " fill="#110C0C" transform="translate(128,120)"/>
<path d="M0 0 C0.66 0 1.32 0 2 0 C2 1.32 2 2.64 2 4 C3.32 4 4.64 4 6 4 C6 2.68 6 1.36 6 0 C28.44 0 50.88 0 74 0 C74 1.32 74 2.64 74 4 C75.32 4 76.64 4 78 4 C78 2.68 78 1.36 78 0 C78.66 0 79.32 0 80 0 C80 3.96 80 7.92 80 12 C53.6 12 27.2 12 0 12 C0 8.04 0 4.08 0 0 Z " fill="#262626" transform="translate(128,96)"/>
<path d="M0 0 C5.28 0 10.56 0 16 0 C15.34 1.32 14.68 2.64 14 4 C10.04 4 6.08 4 2 4 C2 5.65 2 7.3 2 9 C3.98 9 5.96 9 8 9 C8.33 8.01 8.66 7.02 9 6 C15.499 6.516 21.662 7.467 28 9 C28 7.35 28 5.7 28 4 C26.02 4 24.04 4 22 4 C22.66 2.68 23.32 1.36 24 0 C29.28 0 34.56 0 40 0 C39.34 1.32 38.68 2.64 38 4 C35.36 4 32.72 4 30 4 C30 5.65 30 7.3 30 9 C32.793 8.886 35.583 8.76 38.375 8.625 C39.169 8.594 39.963 8.563 40.781 8.531 C46.773 8.227 46.773 8.227 49 6 C51.745 5.855 54.385 5.813 57.125 5.875 C57.879 5.884 58.633 5.893 59.41 5.902 C61.274 5.926 63.137 5.962 65 6 C63.68 8.64 62.36 11.28 61 14 C55.72 14 50.44 14 45 14 C45 13.34 45 12.68 45 12 C42.69 11.67 40.38 11.34 38 11 C38 13.31 38 15.62 38 18 C41.3 18 44.6 18 48 18 C47.34 19.32 46.68 20.64 46 22 C40.72 22 35.44 22 30 22 C30.66 20.68 31.32 19.36 32 18 C33.32 18 34.64 18 36 18 C36 15.69 36 13.38 36 11 C26.959 11.04 19.157 13.741 10.746 16.723 C7 18 7 18 5 18 C5.66 15.69 6.32 13.38 7 11 C5.35 11 3.7 11 2 11 C2 13.64 2 16.28 2 19 C2.496 18.918 2.496 18.918 5.004 18.504 C8.994 17.934 12.906 17.902 16.938 17.938 C17.279 17.94 17.279 17.94 19.01 17.951 C20.673 17.963 22.337 17.981 24 18 C23.34 19.32 22.68 20.64 22 22 C19.271 22.054 16.542 22.094 13.812 22.125 C13.428 22.133 13.428 22.133 11.482 22.176 C10.732 22.182 9.981 22.189 9.207 22.195 C8.864 22.201 8.864 22.201 7.128 22.227 C5 22 5 22 0 20 C0 14.72 0 9.44 0 4 C-0.66 4 -1.32 4 -2 4 C-1.34 2.68 -0.68 1.36 0 0 Z " fill="#D99E9E" transform="translate(135,134)"/>
<path d="M0 0 C11.88 0 23.76 0 36 0 C36 3.63 36 7.26 36 11 C24.12 11 12.24 11 0 11 C0 7.37 0 3.74 0 0 Z " fill="#181818" transform="translate(156,172)"/>
<path d="M0 0 C5.28 0 10.56 0 16 0 C15.34 1.32 14.68 2.64 14 4 C10.04 4 6.08 4 2 4 C2 5.65 2 7.3 2 9 C3.98 9 5.96 9 8 9 C8.33 8.01 8.66 7.02 9 6 C14.881 6.45 20.43 6.985 26 9 C26.33 9.66 26.66 10.32 27 11 C23.71 12.172 20.418 13.337 17.125 14.5 C16.188 14.834 15.251 15.168 14.285 15.512 C13.389 15.828 12.493 16.143 11.57 16.469 C11.157 16.615 11.157 16.615 9.063 17.357 C7 18 7 18 5 18 C5.66 15.69 6.32 13.38 7 11 C5.35 11 3.7 11 2 11 C2 13.64 2 16.28 2 19 C2.496 18.918 2.496 18.918 5.004 18.504 C8.994 17.934 12.906 17.902 16.938 17.938 C17.279 17.94 17.279 17.94 19.01 17.951 C20.673 17.963 22.337 17.981 24 18 C23.34 19.32 22.68 20.64 22 22 C19.271 22.054 16.542 22.094 13.812 22.125 C13.428 22.133 13.428 22.133 11.482 22.176 C10.732 22.182 9.981 22.189 9.207 22.195 C8.864 22.201 8.864 22.201 7.128 22.227 C5 22 5 22 0 20 C0 14.72 0 9.44 0 4 C-0.66 4 -1.32 4 -2 4 C-1.34 2.68 -0.68 1.36 0 0 Z " fill="#B89797" transform="translate(135,134)"/>
<path d="M0 0 C26.4 0 52.8 0 80 0 C80 1.32 80 2.64 80 4 C53.6 4 27.2 4 0 4 C0 2.68 0 1.36 0 0 Z " fill="#AF0101" transform="translate(128,120)"/>
<path d="M0 0 C26.4 0 52.8 0 80 0 C80 1.32 80 2.64 80 4 C53.6 4 27.2 4 0 4 C0 2.68 0 1.36 0 0 Z " fill="#3E3E3E" transform="translate(128,108)"/>
<path d="M0 0 C26.4 0 52.8 0 80 0 C80 1.32 80 2.64 80 4 C53.6 4 27.2 4 0 4 C0 2.68 0 1.36 0 0 Z " fill="#313131" transform="translate(128,88)"/>
<path d="M0 0 C13.2 0 26.4 0 40 0 C39.67 0.66 39.34 1.32 39 2 C37.868 1.965 36.736 1.93 35.57 1.895 C34.089 1.866 32.607 1.839 31.125 1.812 C30.379 1.787 29.632 1.762 28.863 1.736 C26.695 1.707 26.695 1.707 23 2 C22.67 2.495 22.67 2.495 21 5 C22.98 5 24.96 5 27 5 C27 6.65 27 8.3 27 10 C25.721 9.856 24.442 9.711 23.125 9.562 C18.087 9.002 13.045 8.495 8 8 C7.67 8.66 7.34 9.32 7 10 C5.02 10 3.04 10 1 10 C1 8.35 1 6.7 1 5 C1.843 4.963 2.686 4.925 3.555 4.887 C4.103 4.854 4.103 4.854 6.875 4.688 C7.42 4.658 7.42 4.658 10.18 4.512 C11.11 4.343 12.041 4.174 13 4 C13.66 3.01 14.32 2.02 15 1 C10.05 1 5.1 1 0 1 C0 0.67 0 0.34 0 0 Z " fill="#BC0D0D" transform="translate(136,133)"/>
<path d="M0 0 C6.6 0 13.2 0 20 0 C20 1.32 20 2.64 20 4 C13.4 4 6.8 4 0 4 C0 2.68 0 1.36 0 0 Z " fill="#8E8E8E" transform="translate(200,176)"/>
<path d="M0 0 C6.6 0 13.2 0 20 0 C20 1.32 20 2.64 20 4 C13.4 4 6.8 4 0 4 C0 2.68 0 1.36 0 0 Z " fill="#8E8E8E" transform="translate(128,176)"/>
<path d="M0 0 C6.6 0 13.2 0 20 0 C20 1.32 20 2.64 20 4 C13.4 4 6.8 4 0 4 C0 2.68 0 1.36 0 0 Z " fill="#8E8E8E" transform="translate(104,176)"/>
<path d="M0 0 C6.6 0 13.2 0 20 0 C20 1.32 20 2.64 20 4 C13.4 4 6.8 4 0 4 C0 2.68 0 1.36 0 0 Z " fill="#AE0202" transform="translate(28,176)"/>
<path d="M0 0 C0.597 0.006 0.597 0.006 3.621 0.035 C4.22 0.04 4.22 0.04 7.25 0.062 C8.177 0.074 9.104 0.086 10.059 0.098 C8.184 4.973 8.184 4.973 7.059 6.098 C4.872 6.17 2.684 6.181 0.496 6.16 C-0.103 6.156 -0.103 6.156 -3.133 6.133 C-4.06 6.121 -4.986 6.11 -5.941 6.098 C-3.643 0.121 -3.643 0.121 0 0 Z " fill="#191A1A" transform="translate(187.94140625,140.90234375)"/>
<path d="M0 0 C5.28 0 10.56 0 16 0 C15.34 1.32 14.68 2.64 14 4 C8.72 4 3.44 4 -2 4 C-1.34 2.68 -0.68 1.36 0 0 Z " fill="#DC8181" transform="translate(167,152)"/>
<path d="M0 0 C5.28 0 10.56 0 16 0 C15.34 1.32 14.68 2.64 14 4 C8.72 4 3.44 4 -2 4 C-1.34 2.68 -0.68 1.36 0 0 Z " fill="#DC8181" transform="translate(159,134)"/>
<path d="M0 0 C5.28 0 10.56 0 16 0 C15.34 1.32 14.68 2.64 14 4 C8.72 4 3.44 4 -2 4 C-1.34 2.68 -0.68 1.36 0 0 Z " fill="#F8E6E6" transform="translate(135,134)"/>
<path d="M0 0 C0.351 0.005 0.351 0.005 2.127 0.027 C3.856 0.051 5.584 0.087 7.312 0.125 C6.653 1.445 5.993 2.765 5.312 4.125 C0.032 4.125 -5.248 4.125 -10.688 4.125 C-10.688 3.465 -10.688 2.805 -10.688 2.125 C-7.007 -0.329 -4.244 -0.103 0 0 Z " fill="#F9EAEA" transform="translate(151.6875,151.875)"/>
<path d="M0 0 C1.65 0 3.3 0 5 0 C4.34 2.31 3.68 4.62 3 7 C4.072 6.464 5.145 5.928 6.25 5.375 C11.942 3.174 17.229 4.663 23 6 C22.67 6.66 22.34 7.32 22 8 C14.74 8 7.48 8 0 8 C0 5.36 0 2.72 0 0 Z " fill="#B80505" transform="translate(137,145)"/>
<path d="M0 0 C1.584 0.115 3.167 0.242 4.75 0.375 C5.191 0.41 5.191 0.41 7.422 0.586 C9.991 0.999 11.758 1.712 14 3 C11.71 3.837 9.418 4.67 7.125 5.5 C6.8 5.619 6.8 5.619 5.152 6.223 C0.227 8 0.227 8 -2 8 C-1.34 5.36 -0.68 2.72 0 0 Z " fill="#141515" transform="translate(144,142)"/>
<path d="M0 0 C0.66 0 1.32 0 2 0 C2 1.65 2 3.3 2 5 C3.98 5 5.96 5 8 5 C7.67 5.66 7.34 6.32 7 7 C5.35 7 3.7 7 2 7 C2 9.64 2 12.28 2 15 C3.98 15 5.96 15 8 15 C7.67 15.165 7.67 15.165 6 16 C5.67 16.66 5.34 17.32 5 18 C4.175 17.67 4.175 17.67 0 16 C0 10.72 0 5.44 0 0 Z " fill="#DE8787" transform="translate(135,138)"/>
<path d="M0 0 C-0.33 0.66 -0.66 1.32 -1 2 C-6.28 2 -11.56 2 -17 2 C-17.33 1.34 -17.66 0.68 -18 0 C-11.933 -3.033 -6.331 -1.332 0 0 Z " fill="#C12222" transform="translate(160,151)"/>
<path d="M0 0 C2.31 0 4.62 0 7 0 C6.67 1.32 6.34 2.64 6 4 C4.02 4 2.04 4 0 4 C0 2.68 0 1.36 0 0 Z " fill="#B80303" transform="translate(137,139)"/>
<path d="M0 0 C0.66 0.33 1.32 0.66 2 1 C1.34 2.485 1.34 2.485 -2 10 C-1.34 10.33 -0.68 10.66 0 11 C-1.32 11.33 -2.64 11.66 -4 12 C-3.525 10.186 -3.045 8.374 -2.562 6.562 C-2.296 5.553 -2.029 4.544 -1.754 3.504 C-1 1 -1 1 0 0 Z " fill="#D4B4B4" transform="translate(144,140)"/>
</svg>
