<?xml version="1.0" encoding="UTF-8"?>
<!-- Generator: visioncortex VTracer 0.6.12 -->
<svg version="1.1" xmlns="http://www.w3.org/2000/svg" width="256" height="256">
<path d="M0 0 C0.717 -0.005 1.435 -0.009 2.174 -0.014 C4.567 -0.026 6.959 -0.025 9.352 -0.023 C11.072 -0.029 12.792 -0.036 14.513 -0.043 C19.178 -0.061 23.843 -0.066 28.509 -0.067 C31.426 -0.069 34.343 -0.073 37.26 -0.078 C47.444 -0.097 57.627 -0.105 67.811 -0.103 C77.293 -0.102 86.774 -0.123 96.256 -0.155 C104.406 -0.181 112.555 -0.192 120.705 -0.19 C125.568 -0.19 130.431 -0.195 135.295 -0.217 C139.871 -0.236 144.446 -0.236 149.023 -0.222 C150.697 -0.22 152.372 -0.224 154.047 -0.236 C172.65 -0.362 172.65 -0.362 179.518 5.988 C185.19 11.939 185.955 18.219 185.925 26.129 C185.929 27.009 185.934 27.89 185.939 28.798 C185.951 31.743 185.95 34.688 185.948 37.634 C185.954 39.748 185.961 41.863 185.968 43.977 C185.986 49.717 185.991 55.456 185.992 61.196 C185.993 64.783 185.998 68.37 186.003 71.958 C186.021 84.475 186.03 96.993 186.028 109.511 C186.027 121.174 186.048 132.837 186.079 144.499 C186.106 154.518 186.116 164.535 186.115 174.554 C186.115 180.535 186.12 186.516 186.141 192.497 C186.161 198.124 186.161 203.75 186.146 209.377 C186.144 211.438 186.149 213.5 186.161 215.562 C186.177 218.384 186.167 221.204 186.152 224.025 C186.162 224.835 186.172 225.646 186.183 226.48 C186.104 233.064 184.453 239.194 179.937 244.159 C174.398 249.334 168.825 250.515 161.315 250.535 C160.956 250.537 160.956 250.537 159.141 250.549 C156.748 250.561 154.356 250.56 151.963 250.558 C150.243 250.564 148.522 250.571 146.802 250.578 C142.137 250.596 137.471 250.601 132.806 250.602 C129.889 250.603 126.972 250.608 124.055 250.613 C113.871 250.631 103.687 250.64 93.504 250.638 C84.022 250.637 74.541 250.658 65.059 250.69 C56.909 250.716 48.76 250.726 40.61 250.725 C35.747 250.725 30.883 250.73 26.02 250.751 C21.444 250.771 16.868 250.771 12.292 250.756 C10.617 250.754 8.942 250.759 7.268 250.771 C-11.336 250.897 -11.336 250.897 -18.204 244.547 C-23.875 238.596 -24.64 232.316 -24.61 224.406 C-24.615 223.525 -24.619 222.645 -24.624 221.737 C-24.636 218.792 -24.635 215.846 -24.633 212.901 C-24.639 210.787 -24.646 208.672 -24.653 206.558 C-24.671 200.818 -24.676 195.079 -24.677 189.339 C-24.679 185.752 -24.683 182.164 -24.688 178.577 C-24.707 166.06 -24.715 153.542 -24.713 141.024 C-24.712 129.361 -24.733 117.698 -24.765 106.035 C-24.791 96.017 -24.802 85.999 -24.8 75.981 C-24.8 70 -24.805 64.019 -24.827 58.038 C-24.846 52.411 -24.846 46.785 -24.832 41.158 C-24.83 39.096 -24.834 37.034 -24.846 34.973 C-24.862 32.151 -24.852 29.331 -24.837 26.51 C-24.847 25.699 -24.858 24.889 -24.868 24.055 C-24.789 17.471 -23.138 11.34 -18.622 6.376 C-13.084 1.2 -7.51 0.02 0 0 Z " fill="#999999" transform="translate(47.34260559082031,2.732574462890625)"/>
<path d="M0 0 C0.717 -0.005 1.435 -0.009 2.174 -0.014 C4.567 -0.026 6.959 -0.025 9.352 -0.023 C11.072 -0.029 12.792 -0.036 14.513 -0.043 C19.178 -0.061 23.843 -0.066 28.509 -0.067 C31.426 -0.069 34.343 -0.073 37.26 -0.078 C47.444 -0.097 57.627 -0.105 67.811 -0.103 C77.293 -0.102 86.774 -0.123 96.256 -0.155 C104.406 -0.181 112.555 -0.192 120.705 -0.19 C125.568 -0.19 130.431 -0.195 135.295 -0.217 C139.871 -0.236 144.446 -0.236 149.023 -0.222 C150.697 -0.22 152.372 -0.224 154.047 -0.236 C172.65 -0.362 172.65 -0.362 179.518 5.988 C185.19 11.939 185.955 18.219 185.925 26.129 C185.929 27.009 185.934 27.89 185.939 28.798 C185.951 31.743 185.95 34.688 185.948 37.634 C185.954 39.748 185.961 41.863 185.968 43.977 C185.986 49.717 185.991 55.456 185.992 61.196 C185.993 64.783 185.998 68.37 186.003 71.958 C186.021 84.475 186.03 96.993 186.028 109.511 C186.027 121.174 186.048 132.837 186.079 144.499 C186.106 154.518 186.116 164.535 186.115 174.554 C186.115 180.535 186.12 186.516 186.141 192.497 C186.161 198.124 186.161 203.75 186.146 209.377 C186.144 211.438 186.149 213.5 186.161 215.562 C186.177 218.384 186.167 221.204 186.152 224.025 C186.162 224.835 186.172 225.646 186.183 226.48 C186.104 233.064 184.453 239.194 179.937 244.159 C174.398 249.334 168.825 250.515 161.315 250.535 C160.956 250.537 160.956 250.537 159.141 250.549 C156.748 250.561 154.356 250.56 151.963 250.558 C150.243 250.564 148.522 250.571 146.802 250.578 C142.137 250.596 137.471 250.601 132.806 250.602 C129.889 250.603 126.972 250.608 124.055 250.613 C113.871 250.631 103.687 250.64 93.504 250.638 C84.022 250.637 74.541 250.658 65.059 250.69 C56.909 250.716 48.76 250.726 40.61 250.725 C35.747 250.725 30.883 250.73 26.02 250.751 C21.444 250.771 16.868 250.771 12.292 250.756 C10.617 250.754 8.942 250.759 7.268 250.771 C-11.336 250.897 -11.336 250.897 -18.204 244.547 C-23.875 238.596 -24.64 232.316 -24.61 224.406 C-24.615 223.525 -24.619 222.645 -24.624 221.737 C-24.636 218.792 -24.635 215.846 -24.633 212.901 C-24.639 210.787 -24.646 208.672 -24.653 206.558 C-24.671 200.818 -24.676 195.079 -24.677 189.339 C-24.679 185.752 -24.683 182.164 -24.688 178.577 C-24.707 166.06 -24.715 153.542 -24.713 141.024 C-24.712 129.361 -24.733 117.698 -24.765 106.035 C-24.791 96.017 -24.802 85.999 -24.8 75.981 C-24.8 70 -24.805 64.019 -24.827 58.038 C-24.846 52.411 -24.846 46.785 -24.832 41.158 C-24.83 39.096 -24.834 37.034 -24.846 34.973 C-24.862 32.151 -24.852 29.331 -24.837 26.51 C-24.847 25.699 -24.858 24.889 -24.868 24.055 C-24.789 17.471 -23.138 11.34 -18.622 6.376 C-13.084 1.2 -7.51 0.02 0 0 Z M-2.343 39.267 C-3.708 41.998 -3.484 44.173 -3.503 47.231 C-3.513 48.503 -3.523 49.775 -3.534 51.085 C-3.54 52.502 -3.546 53.919 -3.551 55.337 C-3.561 56.823 -3.571 58.309 -3.581 59.796 C-3.612 64.686 -3.633 69.576 -3.651 74.467 C-3.654 75.299 -3.658 76.13 -3.661 76.988 C-3.692 84.833 -3.719 92.678 -3.736 100.524 C-3.758 110.56 -3.799 120.595 -3.869 130.63 C-3.916 137.686 -3.941 144.741 -3.948 151.797 C-3.953 156.011 -3.968 160.225 -4.008 164.439 C-4.044 168.406 -4.053 172.372 -4.04 176.339 C-4.04 177.792 -4.05 179.246 -4.071 180.699 C-4.243 193.033 -4.243 193.033 -0.424 197.625 C3.197 201.094 5.633 201.397 10.621 201.428 C11.893 201.438 13.164 201.448 14.475 201.458 C15.892 201.465 17.309 201.47 18.726 201.476 C20.213 201.486 21.699 201.496 23.186 201.506 C28.076 201.537 32.966 201.557 37.857 201.576 C38.688 201.579 39.52 201.583 40.377 201.586 C48.223 201.617 56.068 201.644 63.914 201.66 C73.95 201.682 83.985 201.724 94.02 201.794 C101.076 201.841 108.131 201.865 115.187 201.873 C119.401 201.878 123.615 201.893 127.829 201.932 C131.796 201.969 135.762 201.978 139.729 201.964 C141.182 201.964 142.636 201.975 144.089 201.996 C156.423 202.168 156.423 202.168 161.015 198.349 C164.484 194.728 164.787 192.292 164.818 187.304 C164.828 186.032 164.838 184.76 164.848 183.45 C164.854 182.033 164.86 180.616 164.866 179.198 C164.876 177.712 164.886 176.225 164.896 174.739 C164.927 169.849 164.947 164.958 164.966 160.068 C164.968 159.652 164.968 159.652 164.976 157.547 C165.007 149.702 165.033 141.856 165.05 134.011 C165.072 123.975 165.114 113.94 165.184 103.905 C165.231 96.849 165.255 89.794 165.263 82.738 C165.268 78.524 165.283 74.31 165.322 70.096 C165.359 66.129 165.368 62.163 165.354 58.196 C165.354 56.742 165.365 55.289 165.386 53.836 C165.558 41.502 165.558 41.502 161.739 36.91 C158.118 33.441 155.682 33.138 150.693 33.107 C149.422 33.097 148.15 33.087 146.84 33.076 C145.423 33.07 144.006 33.064 142.588 33.059 C141.102 33.049 139.615 33.039 138.129 33.029 C133.239 32.998 128.348 32.977 123.458 32.959 C123.042 32.957 123.042 32.957 120.937 32.949 C113.092 32.918 105.246 32.891 97.401 32.874 C87.365 32.853 77.33 32.811 67.295 32.741 C60.239 32.694 53.184 32.669 46.128 32.662 C41.914 32.657 37.7 32.642 33.486 32.602 C29.519 32.566 25.553 32.557 21.586 32.57 C20.132 32.57 18.679 32.56 17.226 32.539 C9.079 32.425 2.843 32.348 -2.343 39.267 Z " fill="#C9C9C9" transform="translate(47.34260559082031,2.732574462890625)"/>
<path d="M0 0 C0.717 -0.005 1.435 -0.009 2.174 -0.014 C4.567 -0.026 6.959 -0.025 9.352 -0.023 C11.072 -0.029 12.792 -0.036 14.513 -0.043 C19.178 -0.061 23.843 -0.066 28.509 -0.067 C31.426 -0.069 34.343 -0.073 37.26 -0.078 C47.444 -0.097 57.627 -0.105 67.811 -0.103 C77.293 -0.102 86.774 -0.123 96.256 -0.155 C104.406 -0.181 112.555 -0.192 120.705 -0.19 C125.568 -0.19 130.431 -0.195 135.295 -0.217 C139.871 -0.236 144.446 -0.236 149.023 -0.222 C150.697 -0.22 152.372 -0.224 154.047 -0.236 C172.65 -0.362 172.65 -0.362 179.518 5.988 C185.19 11.939 185.955 18.219 185.925 26.129 C185.929 27.009 185.934 27.89 185.939 28.798 C185.951 31.743 185.95 34.688 185.948 37.634 C185.954 39.748 185.961 41.863 185.968 43.977 C185.986 49.717 185.991 55.456 185.992 61.196 C185.993 64.783 185.998 68.37 186.003 71.958 C186.021 84.475 186.03 96.993 186.028 109.511 C186.027 121.174 186.048 132.837 186.079 144.499 C186.106 154.518 186.116 164.535 186.115 174.554 C186.115 180.535 186.12 186.516 186.141 192.497 C186.161 198.124 186.161 203.75 186.146 209.377 C186.144 211.438 186.149 213.5 186.161 215.562 C186.177 218.384 186.167 221.204 186.152 224.025 C186.162 224.835 186.172 225.646 186.183 226.48 C186.104 233.064 184.453 239.194 179.937 244.159 C174.398 249.334 168.825 250.515 161.315 250.535 C160.956 250.537 160.956 250.537 159.141 250.549 C156.748 250.561 154.356 250.56 151.963 250.558 C150.243 250.564 148.522 250.571 146.802 250.578 C142.137 250.596 137.471 250.601 132.806 250.602 C129.889 250.603 126.972 250.608 124.055 250.613 C113.871 250.631 103.687 250.64 93.504 250.638 C84.022 250.637 74.541 250.658 65.059 250.69 C56.909 250.716 48.76 250.726 40.61 250.725 C35.747 250.725 30.883 250.73 26.02 250.751 C21.444 250.771 16.868 250.771 12.292 250.756 C10.617 250.754 8.942 250.759 7.268 250.771 C-11.336 250.897 -11.336 250.897 -18.204 244.547 C-23.875 238.596 -24.64 232.316 -24.61 224.406 C-24.615 223.525 -24.619 222.645 -24.624 221.737 C-24.636 218.792 -24.635 215.846 -24.633 212.901 C-24.639 210.787 -24.646 208.672 -24.653 206.558 C-24.671 200.818 -24.676 195.079 -24.677 189.339 C-24.679 185.752 -24.683 182.164 -24.688 178.577 C-24.707 166.06 -24.715 153.542 -24.713 141.024 C-24.712 129.361 -24.733 117.698 -24.765 106.035 C-24.791 96.017 -24.802 85.999 -24.8 75.981 C-24.8 70 -24.805 64.019 -24.827 58.038 C-24.846 52.411 -24.846 46.785 -24.832 41.158 C-24.83 39.096 -24.834 37.034 -24.846 34.973 C-24.862 32.151 -24.852 29.331 -24.837 26.51 C-24.847 25.699 -24.858 24.889 -24.868 24.055 C-24.789 17.471 -23.138 11.34 -18.622 6.376 C-13.084 1.2 -7.51 0.02 0 0 Z M-13.343 13.267 C-15.923 17.138 -15.627 20.338 -15.61 24.826 C-15.615 25.71 -15.619 26.595 -15.624 27.506 C-15.636 30.482 -15.635 33.457 -15.633 36.433 C-15.639 38.561 -15.646 40.69 -15.653 42.819 C-15.671 48.61 -15.676 54.401 -15.677 60.193 C-15.679 65.024 -15.686 69.855 -15.693 74.686 C-15.71 86.083 -15.715 97.48 -15.713 108.877 C-15.712 120.64 -15.733 132.403 -15.765 144.167 C-15.791 154.259 -15.802 164.352 -15.8 174.445 C-15.8 180.476 -15.806 186.506 -15.827 192.537 C-15.846 198.21 -15.846 203.882 -15.832 209.555 C-15.83 211.637 -15.834 213.72 -15.846 215.802 C-15.862 218.644 -15.853 221.486 -15.837 224.328 C-15.847 225.153 -15.858 225.978 -15.868 226.827 C-15.805 232.091 -14.844 235.101 -11.343 239.267 C-7.626 241.745 -5.744 241.523 -1.303 241.535 C-0.942 241.537 -0.942 241.537 0.883 241.549 C3.305 241.561 5.728 241.56 8.151 241.558 C9.885 241.564 11.62 241.571 13.354 241.578 C18.071 241.596 22.788 241.601 27.505 241.602 C31.442 241.604 35.378 241.611 39.314 241.618 C48.602 241.635 57.889 241.639 67.177 241.638 C76.759 241.637 86.341 241.658 95.923 241.69 C104.147 241.716 112.372 241.726 120.596 241.725 C125.509 241.725 130.422 241.73 135.335 241.751 C139.957 241.771 144.579 241.771 149.201 241.756 C150.896 241.754 152.592 241.759 154.287 241.771 C156.604 241.787 158.92 241.777 161.236 241.762 C162.532 241.763 163.828 241.764 165.163 241.765 C169.891 241.092 173.026 239.317 176.016 235.56 C177.03 231.935 176.939 228.316 176.925 224.582 C176.927 224.139 176.927 224.139 176.939 221.897 C176.951 218.922 176.95 215.948 176.948 212.973 C176.954 210.842 176.961 208.712 176.968 206.582 C176.986 200.79 176.991 194.999 176.992 189.208 C176.994 184.377 177.001 179.545 177.008 174.714 C177.025 163.319 177.029 151.923 177.028 140.528 C177.027 128.764 177.048 117 177.079 105.236 C177.106 95.142 177.116 85.049 177.115 74.955 C177.115 68.924 177.12 62.893 177.141 56.861 C177.161 51.19 177.161 45.52 177.146 39.849 C177.144 37.766 177.149 35.683 177.161 33.6 C177.177 30.76 177.167 27.92 177.152 25.08 C177.162 24.253 177.172 23.426 177.183 22.574 C177.135 18.609 176.948 16.719 174.75 13.298 C171.414 10.061 168.956 9.006 164.329 9.072 C163.53 9.079 162.731 9.085 161.907 9.092 C161.082 9.108 160.257 9.125 159.407 9.142 C158.987 9.147 158.987 9.147 156.861 9.17 C154.793 9.193 152.725 9.229 150.657 9.267 C150.657 10.587 150.657 11.907 150.657 13.267 C149.337 13.267 148.017 13.267 146.657 13.267 C146.657 11.947 146.657 10.627 146.657 9.267 C145.337 9.267 144.017 9.267 142.657 9.267 C142.657 10.587 142.657 11.907 142.657 13.267 C141.337 13.267 140.017 13.267 138.657 13.267 C138.657 11.947 138.657 10.627 138.657 9.267 C137.337 9.267 136.017 9.267 134.657 9.267 C134.657 10.587 134.657 11.907 134.657 13.267 C133.337 13.267 132.017 13.267 130.657 13.267 C130.657 11.947 130.657 10.627 130.657 9.267 C129.337 9.267 128.017 9.267 126.657 9.267 C126.657 10.587 126.657 11.907 126.657 13.267 C125.337 13.267 124.017 13.267 122.657 13.267 C122.657 11.947 122.657 10.627 122.657 9.267 C121.337 9.267 120.017 9.267 118.657 9.267 C118.657 10.587 118.657 11.907 118.657 13.267 C117.337 13.267 116.017 13.267 114.657 13.267 C114.657 11.947 114.657 10.627 114.657 9.267 C113.337 9.267 112.017 9.267 110.657 9.267 C110.657 10.587 110.657 11.907 110.657 13.267 C109.337 13.267 108.017 13.267 106.657 13.267 C106.657 11.947 106.657 10.627 106.657 9.267 C105.337 9.267 104.017 9.267 102.657 9.267 C102.657 10.587 102.657 11.907 102.657 13.267 C101.337 13.267 100.017 13.267 98.657 13.267 C98.657 11.947 98.657 10.627 98.657 9.267 C97.337 9.267 96.017 9.267 94.657 9.267 C94.657 10.587 94.657 11.907 94.657 13.267 C93.337 13.267 92.017 13.267 90.657 13.267 C90.657 11.947 90.657 10.627 90.657 9.267 C89.337 9.267 88.017 9.267 86.657 9.267 C86.657 10.587 86.657 11.907 86.657 13.267 C85.337 13.267 84.017 13.267 82.657 13.267 C82.657 11.947 82.657 10.627 82.657 9.267 C81.337 9.267 80.017 9.267 78.657 9.267 C78.657 10.587 78.657 11.907 78.657 13.267 C77.337 13.267 76.017 13.267 74.657 13.267 C74.657 11.947 74.657 10.627 74.657 9.267 C73.337 9.267 72.017 9.267 70.657 9.267 C70.657 10.587 70.657 11.907 70.657 13.267 C69.337 13.267 68.017 13.267 66.657 13.267 C66.657 11.947 66.657 10.627 66.657 9.267 C65.337 9.267 64.017 9.267 62.657 9.267 C62.657 10.587 62.657 11.907 62.657 13.267 C61.337 13.267 60.017 13.267 58.657 13.267 C58.657 11.947 58.657 10.627 58.657 9.267 C57.337 9.267 56.017 9.267 54.657 9.267 C54.657 10.587 54.657 11.907 54.657 13.267 C53.337 13.267 52.017 13.267 50.657 13.267 C50.657 11.947 50.657 10.627 50.657 9.267 C49.337 9.267 48.017 9.267 46.657 9.267 C46.657 10.587 46.657 11.907 46.657 13.267 C45.337 13.267 44.017 13.267 42.657 13.267 C42.657 11.947 42.657 10.627 42.657 9.267 C41.337 9.267 40.017 9.267 38.657 9.267 C38.657 10.587 38.657 11.907 38.657 13.267 C37.337 13.267 36.017 13.267 34.657 13.267 C34.657 11.947 34.657 10.627 34.657 9.267 C33.337 9.267 32.017 9.267 30.657 9.267 C30.657 10.587 30.657 11.907 30.657 13.267 C29.337 13.267 28.017 13.267 26.657 13.267 C26.657 11.947 26.657 10.627 26.657 9.267 C25.337 9.267 24.017 9.267 22.657 9.267 C22.657 10.587 22.657 11.907 22.657 13.267 C21.337 13.267 20.017 13.267 18.657 13.267 C18.657 11.947 18.657 10.627 18.657 9.267 C17.337 9.267 16.017 9.267 14.657 9.267 C14.657 10.587 14.657 11.907 14.657 13.267 C13.337 13.267 12.017 13.267 10.657 13.267 C10.657 11.947 10.657 10.627 10.657 9.267 C7.594 9.159 4.534 9.08 1.47 9.017 C0.606 8.984 -0.259 8.95 -1.149 8.916 C-6.514 8.834 -9.504 9.124 -13.343 13.267 Z " fill="#FDFDFD" transform="translate(47.34260559082031,2.732574462890625)"/>
<path d="M0 0 C1.043 -0.011 2.086 -0.023 3.161 -0.034 C3.73 -0.03 3.73 -0.03 6.612 -0.01 C7.214 -0.013 7.214 -0.013 10.259 -0.031 C13.557 -0.045 16.854 -0.042 20.151 -0.029 C23.604 -0.019 27.056 -0.029 30.508 -0.035 C36.305 -0.042 42.102 -0.033 47.899 -0.014 C54.6 0.008 61.3 0.001 68.001 -0.021 C73.755 -0.039 79.51 -0.042 85.265 -0.031 C88.701 -0.025 92.137 -0.024 95.573 -0.037 C99.404 -0.051 103.234 -0.032 107.065 -0.01 C107.634 -0.014 107.634 -0.014 110.516 -0.034 C111.559 -0.023 112.602 -0.012 113.677 0 C114.582 0.002 115.488 0.003 116.421 0.005 C119.622 0.671 120.826 1.981 122.838 4.508 C123.37 7.383 123.37 7.383 123.338 10.508 C123.344 11.024 123.344 11.024 123.37 13.633 C122.701 17.25 121.816 18.376 118.838 20.508 C114.71 21.587 110.507 21.833 106.267 22.261 C104.653 22.425 103.039 22.592 101.425 22.761 C87.682 24.193 74.091 24.872 60.276 24.82 C59.323 24.82 58.37 24.819 57.388 24.818 C43.514 24.791 29.729 24.269 15.901 23.133 C15.119 23.07 14.338 23.007 13.532 22.942 C-4.12 21.477 -4.12 21.477 -8.009 17.727 C-9.425 15.001 -9.595 13.072 -9.599 10.008 C-9.618 9.069 -9.638 8.131 -9.658 7.164 C-8.645 1.74 -5.204 0.009 0 0 Z " fill="#737373" transform="translate(71.16162109375,99.4920654296875)"/>
<path d="M0 0 C0.887 -0.003 1.774 -0.005 2.688 -0.008 C3.152 -0.004 3.152 -0.004 5.5 0.016 C6.428 0.008 7.356 0 8.312 -0.008 C8.756 -0.007 8.756 -0.007 11 0 C11.815 0.002 12.629 0.005 13.469 0.007 C15.5 0.266 15.5 0.266 17.5 2.266 C17.759 4.664 17.759 4.664 17.766 7.641 C17.767 8.174 17.767 8.174 17.773 10.875 C17.766 11.994 17.758 13.113 17.75 14.266 C17.758 15.385 17.765 16.503 17.773 17.656 C17.771 18.724 17.768 19.791 17.766 20.891 C17.763 21.873 17.761 22.855 17.759 23.867 C17.5 26.266 17.5 26.266 15.5 28.266 C13.469 28.524 13.469 28.524 11 28.531 C10.113 28.534 9.226 28.536 8.312 28.539 C7.384 28.531 6.456 28.524 5.5 28.516 C5.036 28.519 5.036 28.519 2.688 28.539 C2.244 28.538 2.244 28.538 0 28.531 C-0.815 28.529 -1.629 28.527 -2.469 28.524 C-4.5 28.266 -4.5 28.266 -6.5 26.266 C-6.759 23.867 -6.759 23.867 -6.766 20.891 C-6.768 19.823 -6.771 18.756 -6.773 17.656 C-6.77 17.097 -6.77 17.097 -6.75 14.266 C-6.758 13.147 -6.765 12.028 -6.773 10.875 C-6.771 9.808 -6.768 8.74 -6.766 7.641 C-6.763 6.658 -6.761 5.676 -6.759 4.664 C-6.274 0.173 -3.955 0.011 0 0 Z " fill="#7F7F7F" transform="translate(68.5,161.734375)"/>
<path d="M0 0 C0.887 -0.003 1.774 -0.005 2.688 -0.008 C3.152 -0.004 3.152 -0.004 5.5 0.016 C6.428 0.008 7.356 0 8.312 -0.008 C8.756 -0.007 8.756 -0.007 11 0 C11.815 0.002 12.629 0.005 13.469 0.007 C15.5 0.266 15.5 0.266 17.5 2.266 C17.759 4.664 17.759 4.664 17.766 7.641 C17.767 8.174 17.767 8.174 17.773 10.875 C17.766 11.994 17.758 13.113 17.75 14.266 C17.758 15.385 17.765 16.503 17.773 17.656 C17.771 18.724 17.768 19.791 17.766 20.891 C17.763 21.873 17.761 22.855 17.759 23.867 C17.5 26.266 17.5 26.266 15.5 28.266 C13.469 28.524 13.469 28.524 11 28.531 C10.113 28.534 9.226 28.536 8.312 28.539 C7.384 28.531 6.456 28.524 5.5 28.516 C5.036 28.519 5.036 28.519 2.688 28.539 C2.244 28.538 2.244 28.538 0 28.531 C-0.815 28.529 -1.629 28.527 -2.469 28.524 C-4.5 28.266 -4.5 28.266 -6.5 26.266 C-6.759 23.867 -6.759 23.867 -6.766 20.891 C-6.768 19.823 -6.771 18.756 -6.773 17.656 C-6.77 17.097 -6.77 17.097 -6.75 14.266 C-6.758 13.147 -6.765 12.028 -6.773 10.875 C-6.771 9.808 -6.768 8.74 -6.766 7.641 C-6.763 6.658 -6.761 5.676 -6.759 4.664 C-6.274 0.173 -3.955 0.011 0 0 Z " fill="#747474" transform="translate(176.5,161.734375)"/>
<path d="M0 0 C0.887 -0.003 1.774 -0.005 2.688 -0.008 C3.152 -0.004 3.152 -0.004 5.5 0.016 C6.428 0.008 7.356 0 8.312 -0.008 C8.756 -0.007 8.756 -0.007 11 0 C11.815 0.002 12.629 0.005 13.469 0.007 C15.5 0.266 15.5 0.266 17.5 2.266 C17.5 4.906 17.5 7.546 17.5 10.266 C9.58 10.266 1.66 10.266 -6.5 10.266 C-6.5 0.018 -6.5 0.018 0 0 Z " fill="#818181" transform="translate(68.5,161.734375)"/>
<path d="M0 0 C1.067 -0.003 2.135 -0.005 3.234 -0.008 C3.794 -0.004 3.794 -0.004 6.625 0.016 C7.744 0.008 8.863 0 10.016 -0.008 C11.083 -0.005 12.15 -0.003 13.25 0 C14.232 0.002 15.215 0.005 16.227 0.007 C18.625 0.266 18.625 0.266 20.625 2.266 C20.884 5.031 20.884 5.031 20.891 8.516 C20.892 9.14 20.892 9.14 20.898 12.297 C20.891 13.607 20.883 14.916 20.875 16.266 C20.883 17.575 20.89 18.885 20.898 20.234 C20.896 21.482 20.893 22.73 20.891 24.016 C20.888 25.165 20.886 26.315 20.884 27.5 C20.625 30.266 20.625 30.266 18.625 32.266 C16.227 32.524 16.227 32.524 13.25 32.531 C12.183 32.534 11.115 32.536 10.016 32.539 C9.456 32.535 9.456 32.535 6.625 32.516 C5.506 32.523 4.387 32.531 3.234 32.539 C2.167 32.536 1.1 32.534 0 32.531 C-0.982 32.529 -1.965 32.527 -2.977 32.524 C-5.375 32.266 -5.375 32.266 -7.375 30.266 C-7.634 27.5 -7.634 27.5 -7.641 24.016 C-7.643 22.768 -7.646 21.52 -7.648 20.234 C-7.641 18.925 -7.633 17.615 -7.625 16.266 C-7.629 15.611 -7.629 15.611 -7.648 12.297 C-7.646 11.049 -7.643 9.801 -7.641 8.516 C-7.638 7.366 -7.636 6.216 -7.634 5.031 C-7.15 -0.14 -4.524 0.01 0 0 Z M-5.375 4.266 C-5.634 6.664 -5.634 6.664 -5.641 9.641 C-5.643 10.708 -5.646 11.775 -5.648 12.875 C-5.641 13.994 -5.633 15.113 -5.625 16.266 C-5.633 17.385 -5.64 18.503 -5.648 19.656 C-5.646 20.724 -5.643 21.791 -5.641 22.891 C-5.638 23.873 -5.636 24.855 -5.634 25.867 C-5.375 28.266 -5.375 28.266 -3.375 30.266 C-1.344 30.524 -1.344 30.524 1.125 30.531 C1.568 30.533 1.568 30.533 3.812 30.539 C4.277 30.535 4.277 30.535 6.625 30.516 C7.553 30.523 8.481 30.531 9.438 30.539 C10.324 30.536 11.211 30.534 12.125 30.531 C12.532 30.53 12.532 30.53 14.594 30.524 C16.625 30.266 16.625 30.266 18.625 28.266 C18.884 25.867 18.884 25.867 18.891 22.891 C18.893 21.823 18.896 20.756 18.898 19.656 C18.891 18.537 18.883 17.418 18.875 16.266 C18.883 15.147 18.89 14.028 18.898 12.875 C18.896 11.808 18.893 10.74 18.891 9.641 C18.888 8.658 18.886 7.676 18.884 6.664 C18.625 4.266 18.625 4.266 16.625 2.266 C14.594 2.007 14.594 2.007 12.125 2 C11.682 1.999 11.682 1.999 9.438 1.992 C8.509 2 7.581 2.008 6.625 2.016 C6.161 2.012 6.161 2.012 3.812 1.992 C2.926 1.995 2.039 1.997 1.125 2 C0.31 2.002 -0.504 2.005 -1.344 2.007 C-3.375 2.266 -3.375 2.266 -5.375 4.266 Z " fill="#B9B9B9" transform="translate(175.375,159.734375)"/>
<path d="M0 0 C1.067 -0.003 2.135 -0.005 3.234 -0.008 C3.794 -0.004 3.794 -0.004 6.625 0.016 C7.744 0.008 8.863 0 10.016 -0.008 C11.083 -0.005 12.15 -0.003 13.25 0 C14.232 0.002 15.215 0.005 16.227 0.007 C18.625 0.266 18.625 0.266 20.625 2.266 C20.884 5.031 20.884 5.031 20.891 8.516 C20.892 9.14 20.892 9.14 20.898 12.297 C20.891 13.607 20.883 14.916 20.875 16.266 C20.883 17.575 20.89 18.885 20.898 20.234 C20.896 21.482 20.893 22.73 20.891 24.016 C20.888 25.165 20.886 26.315 20.884 27.5 C20.625 30.266 20.625 30.266 18.625 32.266 C16.227 32.524 16.227 32.524 13.25 32.531 C12.183 32.534 11.115 32.536 10.016 32.539 C9.456 32.535 9.456 32.535 6.625 32.516 C5.506 32.523 4.387 32.531 3.234 32.539 C2.167 32.536 1.1 32.534 0 32.531 C-0.982 32.529 -1.965 32.527 -2.977 32.524 C-5.375 32.266 -5.375 32.266 -7.375 30.266 C-7.634 27.5 -7.634 27.5 -7.641 24.016 C-7.643 22.768 -7.646 21.52 -7.648 20.234 C-7.641 18.925 -7.633 17.615 -7.625 16.266 C-7.629 15.611 -7.629 15.611 -7.648 12.297 C-7.646 11.049 -7.643 9.801 -7.641 8.516 C-7.638 7.366 -7.636 6.216 -7.634 5.031 C-7.15 -0.14 -4.524 0.01 0 0 Z M-5.375 4.266 C-5.634 6.664 -5.634 6.664 -5.641 9.641 C-5.643 10.708 -5.646 11.775 -5.648 12.875 C-5.641 13.994 -5.633 15.113 -5.625 16.266 C-5.633 17.385 -5.64 18.503 -5.648 19.656 C-5.646 20.724 -5.643 21.791 -5.641 22.891 C-5.638 23.873 -5.636 24.855 -5.634 25.867 C-5.375 28.266 -5.375 28.266 -3.375 30.266 C-1.344 30.524 -1.344 30.524 1.125 30.531 C1.568 30.533 1.568 30.533 3.812 30.539 C4.277 30.535 4.277 30.535 6.625 30.516 C7.553 30.523 8.481 30.531 9.438 30.539 C10.324 30.536 11.211 30.534 12.125 30.531 C12.532 30.53 12.532 30.53 14.594 30.524 C16.625 30.266 16.625 30.266 18.625 28.266 C18.884 25.867 18.884 25.867 18.891 22.891 C18.893 21.823 18.896 20.756 18.898 19.656 C18.891 18.537 18.883 17.418 18.875 16.266 C18.883 15.147 18.89 14.028 18.898 12.875 C18.896 11.808 18.893 10.74 18.891 9.641 C18.888 8.658 18.886 7.676 18.884 6.664 C18.625 4.266 18.625 4.266 16.625 2.266 C14.594 2.007 14.594 2.007 12.125 2 C11.682 1.999 11.682 1.999 9.438 1.992 C8.509 2 7.581 2.008 6.625 2.016 C6.161 2.012 6.161 2.012 3.812 1.992 C2.926 1.995 2.039 1.997 1.125 2 C0.31 2.002 -0.504 2.005 -1.344 2.007 C-3.375 2.266 -3.375 2.266 -5.375 4.266 Z " fill="#B9B9B9" transform="translate(67.375,159.734375)"/>
<path d="M0 0 C7.26 0 14.52 0 22 0 C22 1.65 22 3.3 22 5 C20.411 6.589 18.761 6.13 16.562 6.133 C16.115 6.133 16.115 6.133 13.852 6.137 C12.911 6.133 11.97 6.129 11 6.125 C10.529 6.127 10.529 6.127 8.148 6.137 C7.254 6.135 6.359 6.134 5.438 6.133 C4.611 6.132 3.785 6.131 2.934 6.129 C1 6 1 6 0 5 C0 3.35 0 1.7 0 0 Z " fill="#747474" transform="translate(63,184)"/>
<path d="M0 0 C0.33 1.32 0.66 2.64 1 4 C8.59 3.67 16.18 3.34 24 3 C24 4.65 24 6.3 24 8 C16.08 8 8.16 8 0 8 C0 5.36 0 2.72 0 0 Z " fill="#8B8B8B" transform="translate(62,164)"/>
<path d="M0 0 C7.26 0 14.52 0 22 0 C22 1.32 22 2.64 22 4 C14.74 4 7.48 4 0 4 C0 2.68 0 1.36 0 0 Z " fill="#737373" transform="translate(63,172)"/>
<path d="M0 0 C3.3 0 6.6 0 10 0 C10 1.32 10 2.64 10 4 C6.7 4 3.4 4 0 4 C0 2.68 0 1.36 0 0 Z " fill="#B90E0E" transform="translate(177,232)"/>
<path d="M0 0 C3.96 0 7.92 0 12 0 C8.188 3.812 8.188 3.812 5 4 C2.25 2.625 2.25 2.625 0 1 C0 0.67 0 0.34 0 0 Z " fill="#7D7D7D" transform="translate(122,112)"/>
</svg>
