<?xml version="1.0" encoding="UTF-8"?>
<!-- Generator: visioncortex VTracer 0.6.12 -->
<svg version="1.1" xmlns="http://www.w3.org/2000/svg" width="256" height="256">
<path d="M0 0 C0.454 -0.004 0.454 -0.004 2.748 -0.021 C3.736 -0.019 4.724 -0.017 5.741 -0.014 C6.787 -0.019 7.833 -0.024 8.911 -0.029 C12.371 -0.043 15.832 -0.042 19.292 -0.04 C21.696 -0.044 24.1 -0.048 26.503 -0.053 C31.543 -0.061 36.583 -0.06 41.622 -0.055 C48.083 -0.049 54.544 -0.066 61.005 -0.089 C65.969 -0.104 70.934 -0.105 75.898 -0.102 C78.28 -0.102 80.663 -0.108 83.045 -0.118 C86.375 -0.13 89.704 -0.123 93.034 -0.112 C94.02 -0.119 95.006 -0.127 96.021 -0.135 C100.973 -0.097 104.454 -0.013 108.453 3.261 C111.297 6.886 110.705 11.351 110.648 15.745 C110.645 16.561 110.642 17.376 110.639 18.217 C110.628 20.815 110.603 23.413 110.578 26.011 C110.567 27.775 110.558 29.539 110.55 31.304 C110.528 35.623 110.494 39.942 110.453 44.261 C111.114 44.252 111.774 44.243 112.455 44.234 C119.35 44.145 126.244 44.085 133.139 44.041 C135.711 44.021 138.282 43.994 140.853 43.959 C144.554 43.91 148.255 43.888 151.956 43.87 C153.101 43.849 154.247 43.829 155.426 43.808 C161.963 43.806 166.285 44.081 171.453 48.261 C175.456 53.978 174.882 60.064 174.857 66.764 C174.863 68.022 174.87 69.28 174.877 70.575 C174.895 74.013 174.894 77.451 174.888 80.889 C174.885 83.765 174.891 86.64 174.897 89.515 C174.912 96.3 174.91 103.085 174.899 109.871 C174.887 116.86 174.901 123.849 174.928 130.838 C174.95 136.849 174.957 142.861 174.951 148.872 C174.948 152.457 174.95 156.043 174.967 159.629 C174.986 163.628 174.971 167.628 174.954 171.628 C174.959 172.218 174.959 172.218 174.984 175.206 C174.925 181.775 174.437 185.95 170.453 191.261 C165.052 195.448 158.572 194.641 152.054 194.554 C150.864 194.549 149.674 194.545 148.448 194.541 C144.657 194.524 140.868 194.486 137.078 194.448 C134.503 194.433 131.929 194.419 129.355 194.407 C123.054 194.374 116.753 194.324 110.453 194.261 C110.407 194.876 110.362 195.492 110.315 196.126 C110.243 196.935 110.171 197.744 110.097 198.577 C110.064 198.978 110.064 198.978 109.897 201.005 C109.196 204.564 107.255 206.11 104.453 208.261 C101.565 209.952 99.483 210.513 96.146 210.528 C95.293 210.537 94.439 210.545 93.56 210.554 C92.631 210.553 91.703 210.552 90.746 210.551 C89.762 210.558 88.778 210.565 87.764 210.572 C84.508 210.591 81.252 210.594 77.995 210.597 C75.731 210.603 73.467 210.61 71.202 210.617 C66.454 210.629 61.705 210.632 56.956 210.631 C50.876 210.631 44.797 210.658 38.718 210.693 C34.04 210.715 29.362 210.719 24.683 210.718 C22.442 210.72 20.201 210.729 17.96 210.745 C14.822 210.764 11.685 210.759 8.547 210.747 C7.625 210.758 6.702 210.769 5.752 210.781 C-0.186 210.723 -3.695 209.749 -8.547 206.261 C-11.36 202.087 -11.664 199.192 -11.547 194.261 C-12.208 194.27 -12.869 194.278 -13.55 194.288 C-20.445 194.376 -27.339 194.437 -34.234 194.48 C-36.806 194.501 -39.377 194.528 -41.948 194.562 C-45.649 194.611 -49.35 194.634 -53.051 194.651 C-53.624 194.662 -53.624 194.662 -56.521 194.714 C-63.058 194.716 -67.379 194.44 -72.547 190.261 C-76.551 184.543 -75.977 178.457 -75.952 171.757 C-75.958 170.499 -75.965 169.242 -75.972 167.946 C-75.99 164.508 -75.989 161.07 -75.983 157.632 C-75.98 154.757 -75.986 151.882 -75.992 149.007 C-76.006 142.221 -76.005 135.436 -75.994 128.651 C-75.982 121.661 -75.996 114.672 -76.023 107.683 C-76.045 101.672 -76.052 95.661 -76.046 89.65 C-76.042 86.064 -76.045 82.479 -76.062 78.893 C-76.08 74.893 -76.066 70.894 -76.049 66.894 C-76.059 65.713 -76.069 64.532 -76.078 63.315 C-76.019 56.747 -75.532 52.572 -71.547 47.261 C-66.147 43.073 -59.667 43.88 -53.149 43.968 C-51.959 43.972 -50.769 43.976 -49.543 43.981 C-45.752 43.997 -41.963 44.035 -38.172 44.073 C-35.598 44.088 -33.024 44.102 -30.45 44.114 C-24.149 44.147 -17.848 44.197 -11.547 44.261 C-11.563 43.166 -11.579 42.071 -11.595 40.944 C-11.649 36.872 -11.684 32.8 -11.712 28.727 C-11.727 26.967 -11.748 25.206 -11.774 23.446 C-11.81 20.911 -11.827 18.377 -11.84 15.843 C-11.848 15.451 -11.848 15.451 -11.887 13.468 C-11.889 8.885 -11.511 5.835 -8.547 2.261 C-5.613 0.468 -3.416 0.009 0 0 Z " fill="#4B4C4B" transform="translate(78.54747009277344,22.739303588867188)"/>
<path d="M0 0 C0.454 -0.004 0.454 -0.004 2.748 -0.021 C3.736 -0.019 4.724 -0.017 5.741 -0.014 C6.787 -0.019 7.833 -0.024 8.911 -0.029 C12.371 -0.043 15.832 -0.042 19.292 -0.04 C21.696 -0.044 24.1 -0.048 26.503 -0.053 C31.543 -0.061 36.583 -0.06 41.622 -0.055 C48.083 -0.049 54.544 -0.066 61.005 -0.089 C65.969 -0.104 70.934 -0.105 75.898 -0.102 C78.28 -0.102 80.663 -0.108 83.045 -0.118 C86.375 -0.13 89.704 -0.123 93.034 -0.112 C94.02 -0.119 95.006 -0.127 96.021 -0.135 C100.973 -0.097 104.454 -0.013 108.453 3.261 C111.297 6.886 110.705 11.351 110.648 15.745 C110.645 16.561 110.642 17.376 110.639 18.217 C110.628 20.815 110.603 23.413 110.578 26.011 C110.567 27.775 110.558 29.539 110.55 31.304 C110.528 35.623 110.494 39.942 110.453 44.261 C111.114 44.252 111.774 44.243 112.455 44.234 C119.35 44.145 126.244 44.085 133.139 44.041 C135.711 44.021 138.282 43.994 140.853 43.959 C144.554 43.91 148.255 43.888 151.956 43.87 C153.101 43.849 154.247 43.829 155.426 43.808 C161.963 43.806 166.285 44.081 171.453 48.261 C175.456 53.978 174.882 60.064 174.857 66.764 C174.863 68.022 174.87 69.28 174.877 70.575 C174.895 74.013 174.894 77.451 174.888 80.889 C174.885 83.765 174.891 86.64 174.897 89.515 C174.912 96.3 174.91 103.085 174.899 109.871 C174.887 116.86 174.901 123.849 174.928 130.838 C174.95 136.849 174.957 142.861 174.951 148.872 C174.948 152.457 174.95 156.043 174.967 159.629 C174.986 163.628 174.971 167.628 174.954 171.628 C174.959 172.218 174.959 172.218 174.984 175.206 C174.925 181.775 174.437 185.95 170.453 191.261 C165.052 195.448 158.572 194.641 152.054 194.554 C150.864 194.549 149.674 194.545 148.448 194.541 C144.657 194.524 140.868 194.486 137.078 194.448 C134.503 194.433 131.929 194.419 129.355 194.407 C123.054 194.374 116.753 194.324 110.453 194.261 C110.407 194.876 110.362 195.492 110.315 196.126 C110.243 196.935 110.171 197.744 110.097 198.577 C110.064 198.978 110.064 198.978 109.897 201.005 C109.196 204.564 107.255 206.11 104.453 208.261 C101.565 209.952 99.483 210.513 96.146 210.528 C95.293 210.537 94.439 210.545 93.56 210.554 C92.631 210.553 91.703 210.552 90.746 210.551 C89.762 210.558 88.778 210.565 87.764 210.572 C84.508 210.591 81.252 210.594 77.995 210.597 C75.731 210.603 73.467 210.61 71.202 210.617 C66.454 210.629 61.705 210.632 56.956 210.631 C50.876 210.631 44.797 210.658 38.718 210.693 C34.04 210.715 29.362 210.719 24.683 210.718 C22.442 210.72 20.201 210.729 17.96 210.745 C14.822 210.764 11.685 210.759 8.547 210.747 C7.625 210.758 6.702 210.769 5.752 210.781 C-0.186 210.723 -3.695 209.749 -8.547 206.261 C-11.36 202.087 -11.664 199.192 -11.547 194.261 C-12.208 194.27 -12.869 194.278 -13.55 194.288 C-20.445 194.376 -27.339 194.437 -34.234 194.48 C-36.806 194.501 -39.377 194.528 -41.948 194.562 C-45.649 194.611 -49.35 194.634 -53.051 194.651 C-53.624 194.662 -53.624 194.662 -56.521 194.714 C-63.058 194.716 -67.379 194.44 -72.547 190.261 C-76.551 184.543 -75.977 178.457 -75.952 171.757 C-75.958 170.499 -75.965 169.242 -75.972 167.946 C-75.99 164.508 -75.989 161.07 -75.983 157.632 C-75.98 154.757 -75.986 151.882 -75.992 149.007 C-76.006 142.221 -76.005 135.436 -75.994 128.651 C-75.982 121.661 -75.996 114.672 -76.023 107.683 C-76.045 101.672 -76.052 95.661 -76.046 89.65 C-76.042 86.064 -76.045 82.479 -76.062 78.893 C-76.08 74.893 -76.066 70.894 -76.049 66.894 C-76.059 65.713 -76.069 64.532 -76.078 63.315 C-76.019 56.747 -75.532 52.572 -71.547 47.261 C-66.147 43.073 -59.667 43.88 -53.149 43.968 C-51.959 43.972 -50.769 43.976 -49.543 43.981 C-45.752 43.997 -41.963 44.035 -38.172 44.073 C-35.598 44.088 -33.024 44.102 -30.45 44.114 C-24.149 44.147 -17.848 44.197 -11.547 44.261 C-11.563 43.166 -11.579 42.071 -11.595 40.944 C-11.649 36.872 -11.684 32.8 -11.712 28.727 C-11.727 26.967 -11.748 25.206 -11.774 23.446 C-11.81 20.911 -11.827 18.377 -11.84 15.843 C-11.848 15.451 -11.848 15.451 -11.887 13.468 C-11.889 8.885 -11.511 5.835 -8.547 2.261 C-5.613 0.468 -3.416 0.009 0 0 Z M-2.547 9.261 C-2.547 23.781 -2.547 38.301 -2.547 53.261 C-7 53.237 -11.452 53.214 -16.04 53.19 C-19.584 53.178 -23.129 53.167 -26.673 53.157 C-30.418 53.147 -34.163 53.132 -37.907 53.11 C-41.512 53.088 -45.117 53.076 -48.722 53.071 C-50.1 53.067 -51.477 53.06 -52.854 53.049 C-54.779 53.035 -56.704 53.034 -58.629 53.034 C-59.178 53.031 -59.178 53.031 -61.953 53.02 C-64.547 53.261 -64.547 53.261 -66.547 55.261 C-66.799 57.5 -66.799 57.5 -66.801 60.347 C-66.807 61.424 -66.813 62.501 -66.819 63.61 C-66.814 64.797 -66.81 65.983 -66.806 67.206 C-66.81 68.452 -66.813 69.697 -66.817 70.98 C-66.824 74.402 -66.822 77.823 -66.816 81.245 C-66.811 84.82 -66.816 88.396 -66.819 91.972 C-66.823 97.978 -66.818 103.984 -66.808 109.989 C-66.797 116.939 -66.801 123.888 -66.812 130.837 C-66.821 136.797 -66.822 142.758 -66.817 148.718 C-66.814 152.28 -66.813 155.843 -66.82 159.405 C-66.827 163.375 -66.817 167.345 -66.806 171.315 C-66.81 172.502 -66.814 173.689 -66.819 174.911 C-66.813 175.988 -66.807 177.065 -66.801 178.174 C-66.801 179.114 -66.8 180.053 -66.799 181.021 C-66.547 183.261 -66.547 183.261 -64.547 185.261 C-61.953 185.501 -61.953 185.501 -58.629 185.488 C-57.388 185.488 -56.147 185.487 -54.868 185.487 C-53.509 185.477 -52.149 185.467 -50.79 185.456 C-49.402 185.452 -48.015 185.449 -46.628 185.447 C-42.975 185.44 -39.322 185.42 -35.669 185.398 C-31.943 185.378 -28.216 185.368 -24.489 185.358 C-17.175 185.337 -9.861 185.303 -2.547 185.261 C-2.571 186.248 -2.594 187.236 -2.618 188.253 C-2.636 189.534 -2.654 190.816 -2.672 192.136 C-2.696 193.412 -2.719 194.688 -2.743 196.003 C-2.547 199.261 -2.547 199.261 -0.547 201.261 C1.255 201.512 1.255 201.512 3.476 201.515 C3.897 201.517 3.897 201.517 6.025 201.532 C6.95 201.528 7.875 201.524 8.828 201.519 C9.8 201.523 10.772 201.526 11.774 201.53 C15 201.539 18.226 201.533 21.453 201.526 C23.687 201.528 25.921 201.53 28.156 201.532 C32.843 201.535 37.531 201.531 42.218 201.521 C48.238 201.51 54.257 201.517 60.277 201.529 C64.892 201.536 69.507 201.534 74.122 201.528 C76.343 201.527 78.563 201.529 80.783 201.533 C83.881 201.538 86.979 201.531 90.078 201.519 C90.54 201.522 90.54 201.522 92.88 201.532 C93.721 201.526 94.562 201.52 95.429 201.515 C96.162 201.514 96.895 201.513 97.65 201.512 C99.453 201.261 99.453 201.261 101.453 199.261 C101.648 196.003 101.648 196.003 101.578 192.136 C101.559 190.854 101.541 189.573 101.523 188.253 C101.5 187.265 101.476 186.278 101.453 185.261 C102.225 185.265 102.997 185.27 103.793 185.274 C111.062 185.314 118.331 185.345 125.6 185.364 C129.338 185.375 133.075 185.389 136.812 185.412 C140.417 185.433 144.022 185.445 147.627 185.45 C149.005 185.454 150.382 185.461 151.759 185.472 C153.684 185.487 155.609 185.488 157.534 185.488 C158.083 185.49 158.083 185.49 160.858 185.501 C163.453 185.261 163.453 185.261 165.453 183.261 C165.704 181.021 165.704 181.021 165.706 178.174 C165.712 177.097 165.718 176.021 165.724 174.911 C165.72 173.724 165.715 172.538 165.711 171.315 C165.715 170.07 165.718 168.824 165.722 167.541 C165.729 164.12 165.728 160.698 165.721 157.277 C165.716 153.701 165.721 150.125 165.724 146.549 C165.728 140.544 165.723 134.538 165.713 128.532 C165.702 121.583 165.706 114.633 165.717 107.684 C165.726 101.724 165.727 95.764 165.722 89.804 C165.719 86.241 165.719 82.679 165.725 79.116 C165.732 75.146 165.722 71.176 165.711 67.206 C165.713 66.613 165.713 66.613 165.724 63.61 C165.721 63.072 165.721 63.072 165.706 60.347 C165.706 59.408 165.705 58.468 165.704 57.5 C165.453 55.261 165.453 55.261 163.453 53.261 C160.858 53.02 160.858 53.02 157.534 53.034 C156.293 53.034 155.052 53.034 153.773 53.034 C152.414 53.044 151.054 53.055 149.695 53.065 C148.308 53.069 146.92 53.072 145.533 53.074 C141.88 53.082 138.227 53.101 134.574 53.123 C130.848 53.144 127.121 53.153 123.394 53.163 C116.08 53.183 108.766 53.223 101.453 53.261 C101.453 38.741 101.453 24.221 101.453 9.261 C67.133 9.261 32.813 9.261 -2.547 9.261 Z " fill="#FAFAFA" transform="translate(78.54747009277344,22.739303588867188)"/>
<path d="M0 0 C15.683 -0.04 15.683 -0.04 22.346 -0.049 C26.9 -0.055 31.454 -0.062 36.008 -0.075 C39.678 -0.086 43.348 -0.092 47.018 -0.095 C48.421 -0.097 49.824 -0.1 51.227 -0.106 C53.186 -0.113 55.144 -0.113 57.103 -0.114 C58.22 -0.116 59.337 -0.118 60.488 -0.12 C63 0 63 0 64 1 C64.098 2.655 64.126 4.315 64.127 5.973 C64.128 6.511 64.128 6.511 64.136 9.236 C64.135 9.832 64.135 9.832 64.129 12.848 C64.13 13.471 64.13 13.471 64.135 16.626 C64.138 20.056 64.137 23.486 64.134 26.915 C64.132 30.497 64.134 34.079 64.136 37.66 C64.138 43.676 64.135 49.692 64.13 55.708 C64.125 62.673 64.127 69.637 64.132 76.602 C64.137 82.572 64.137 88.541 64.135 94.51 C64.133 98.08 64.133 101.65 64.136 105.22 C64.14 109.197 64.135 113.175 64.129 117.152 C64.131 118.344 64.133 119.536 64.136 120.764 C64.133 121.841 64.13 122.918 64.127 124.027 C64.127 124.498 64.127 124.498 64.126 126.881 C64 129 64 129 63 130 C61.036 130.094 59.069 130.117 57.103 130.114 C55.842 130.113 54.581 130.113 53.281 130.113 C51.895 130.108 50.508 130.103 49.121 130.098 C47.71 130.096 46.299 130.094 44.888 130.093 C41.168 130.09 37.447 130.08 33.727 130.069 C29.933 130.058 26.139 130.054 22.346 130.049 C14.897 130.038 7.449 130.02 0 130 C0 125.05 0 120.1 0 115 C5.908 114.926 11.816 114.871 17.725 114.835 C19.734 114.82 21.744 114.8 23.754 114.774 C26.643 114.737 29.532 114.72 32.422 114.707 C32.871 114.699 32.871 114.699 35.143 114.66 C39.809 114.659 42.441 114.703 46 118 C50.143 118.37 53.569 118.542 57 116 C59.547 112.562 59.51 109.149 59 105 C57.009 102.075 55.588 100.33 52.027 99.59 C49.938 99.5 49.938 99.5 46 100 C45.456 100.499 44.913 100.999 44.353 101.513 C40.596 103.888 36.771 103.368 32.422 103.293 C31.959 103.291 31.959 103.291 29.614 103.28 C26.659 103.263 23.705 103.226 20.75 103.188 C18.745 103.172 16.74 103.159 14.734 103.146 C9.823 103.113 4.911 103.062 0 103 C0 97.72 0 92.44 0 87 C5.908 86.926 11.816 86.871 17.725 86.835 C19.734 86.82 21.744 86.8 23.754 86.774 C26.643 86.737 29.532 86.72 32.422 86.707 C32.871 86.699 32.871 86.699 35.143 86.66 C39.809 86.659 42.441 86.703 46 90 C50.143 90.37 53.569 90.542 57 88 C59.547 84.562 59.51 81.149 59 77 C57.009 74.075 55.588 72.33 52.027 71.59 C49.938 71.5 49.938 71.5 46 72 C45.456 72.499 44.913 72.999 44.353 73.513 C40.596 75.888 36.771 75.368 32.422 75.293 C31.959 75.291 31.959 75.291 29.614 75.28 C26.659 75.263 23.705 75.226 20.75 75.188 C18.745 75.172 16.74 75.159 14.734 75.146 C9.823 75.113 4.911 75.062 0 75 C0 69.72 0 64.44 0 59 C5.908 58.926 11.816 58.871 17.725 58.835 C19.734 58.82 21.744 58.8 23.754 58.774 C26.643 58.737 29.532 58.72 32.422 58.707 C32.871 58.699 32.871 58.699 35.143 58.66 C39.809 58.659 42.441 58.703 46 62 C50.143 62.37 53.569 62.542 57 60 C59.547 56.562 59.51 53.149 59 49 C57.009 46.075 55.588 44.33 52.027 43.59 C49.938 43.5 49.938 43.5 46 44 C45.456 44.499 44.913 44.999 44.353 45.513 C40.596 47.888 36.771 47.368 32.422 47.293 C31.6 47.29 30.779 47.287 29.932 47.284 C26.871 47.268 23.811 47.226 20.75 47.188 C13.903 47.126 7.055 47.064 0 47 C0 31.49 0 15.98 0 0 Z " fill="#404040" transform="translate(180,77)"/>
<path d="M0 0 C1.117 0.002 2.234 0.004 3.385 0.007 C4.646 0.007 5.907 0.007 7.207 0.007 C8.593 0.012 9.98 0.017 11.367 0.023 C12.778 0.024 14.189 0.026 15.6 0.027 C19.32 0.031 23.041 0.041 26.761 0.052 C31.221 0.064 35.682 0.068 40.142 0.074 C46.924 0.084 53.706 0.103 60.488 0.12 C60.488 15.63 60.488 31.14 60.488 47.12 C53.641 47.182 46.793 47.244 39.738 47.308 C38.66 47.321 38.66 47.321 33.204 47.391 C31.491 47.399 29.779 47.407 28.066 47.413 C27.18 47.429 26.293 47.444 25.38 47.46 C20.688 47.462 18.075 47.414 14.488 44.12 C9.575 43.496 7.625 43.362 3.488 46.12 C1.268 49.45 0.733 51.259 1.008 55.183 C1.877 58.689 3.568 60.132 6.488 62.12 C10.262 62.659 12.448 62.865 15.602 60.607 C19.782 58.453 23.531 58.747 28.164 58.827 C29.089 58.832 30.014 58.836 30.967 58.84 C33.912 58.857 36.856 58.895 39.801 58.933 C41.801 58.948 43.802 58.961 45.802 58.974 C50.698 59.007 55.593 59.059 60.488 59.12 C60.488 64.4 60.488 69.68 60.488 75.12 C54.58 75.194 48.672 75.249 42.763 75.285 C40.754 75.3 38.744 75.321 36.734 75.347 C33.845 75.383 30.956 75.4 28.066 75.413 C27.617 75.421 27.617 75.421 25.345 75.46 C20.666 75.461 18.064 75.405 14.488 72.12 C9.575 71.496 7.625 71.362 3.488 74.12 C1.268 77.45 0.733 79.259 1.008 83.183 C1.877 86.689 3.568 88.132 6.488 90.12 C10.262 90.659 12.448 90.865 15.602 88.607 C19.782 86.453 23.531 86.747 28.164 86.827 C29.089 86.832 30.014 86.836 30.967 86.84 C33.912 86.857 36.856 86.895 39.801 86.933 C41.801 86.948 43.802 86.961 45.802 86.974 C50.698 87.007 55.593 87.059 60.488 87.12 C60.488 92.4 60.488 97.68 60.488 103.12 C54.58 103.194 48.672 103.249 42.763 103.285 C40.754 103.3 38.744 103.321 36.734 103.347 C33.845 103.383 30.956 103.4 28.066 103.413 C27.617 103.421 27.617 103.421 25.345 103.46 C20.666 103.461 18.064 103.405 14.488 100.12 C9.575 99.496 7.625 99.362 3.488 102.12 C1.268 105.45 0.733 107.259 1.008 111.183 C1.877 114.689 3.568 116.132 6.488 118.12 C10.262 118.659 12.448 118.865 15.602 116.607 C19.782 114.453 23.531 114.747 28.164 114.827 C29.089 114.832 30.014 114.836 30.967 114.84 C33.912 114.857 36.856 114.895 39.801 114.933 C41.801 114.948 43.802 114.961 45.802 114.974 C50.698 115.007 55.593 115.059 60.488 115.12 C60.488 120.07 60.488 125.02 60.488 130.12 C52.291 130.143 44.094 130.161 35.897 130.172 C32.092 130.177 28.286 130.184 24.48 130.196 C20.81 130.207 17.14 130.213 13.47 130.215 C12.067 130.217 10.664 130.221 9.261 130.226 C7.302 130.233 5.344 130.234 3.385 130.234 C2.826 130.235 2.826 130.235 0 130.241 C-2.512 130.12 -2.512 130.12 -3.512 129.12 C-3.61 127.465 -3.638 125.806 -3.639 124.147 C-3.642 123.07 -3.645 121.993 -3.648 120.884 C-3.645 119.692 -3.643 118.5 -3.641 117.273 C-3.643 116.026 -3.645 114.779 -3.647 113.494 C-3.65 110.064 -3.649 106.635 -3.646 103.205 C-3.644 99.623 -3.646 96.042 -3.648 92.46 C-3.65 86.444 -3.647 80.428 -3.642 74.412 C-3.637 67.448 -3.639 60.483 -3.644 53.518 C-3.649 47.549 -3.649 41.579 -3.647 35.61 C-3.645 32.04 -3.645 28.47 -3.648 24.9 C-3.652 20.923 -3.647 16.945 -3.641 12.968 C-3.642 12.372 -3.642 12.372 -3.648 9.357 C-3.645 8.28 -3.642 7.203 -3.639 6.093 C-3.639 5.151 -3.638 4.21 -3.638 3.24 C-3.453 0.133 -3.126 0.15 0 0 Z " fill="#3F403F" transform="translate(15.511978149414063,76.87974548339844)"/>
<path d="M0 0 C33.66 0 67.32 0 102 0 C102 14.19 102 28.38 102 43 C68.34 43 34.68 43 0 43 C0 28.81 0 14.62 0 0 Z " fill="#333333" transform="translate(77,33)"/>
<path d="M0 0 C10.56 0 21.12 0 32 0 C32 27.72 32 55.44 32 84 C21.44 84 10.88 84 0 84 C0 56.28 0 28.56 0 0 Z " fill="#585858" transform="translate(112,128)"/>
<path d="M0 0 C0.33 0 0.66 0 1 0 C1 42.24 1 84.48 1 128 C0.67 128 0.34 128 0 128 C0 94.34 0 60.68 0 26 C-18.15 26 -36.3 26 -55 26 C-55.33 25.01 -55.66 24.02 -56 23 C-56.99 23 -57.98 23 -59 23 C-59.029 19.688 -59.047 16.375 -59.062 13.062 C-59.071 12.117 -59.079 11.171 -59.088 10.197 C-59.091 9.298 -59.094 8.399 -59.098 7.473 C-59.103 6.64 -59.108 5.807 -59.114 4.949 C-59 3 -59 3 -58 2 C-56.189 1.906 -54.375 1.883 -52.562 1.886 C-51.982 1.887 -51.982 1.887 -49.044 1.887 C-48.412 1.889 -48.412 1.889 -45.215 1.902 C-44.572 1.903 -44.572 1.903 -41.318 1.907 C-37.894 1.91 -34.469 1.92 -31.045 1.931 C-27.553 1.942 -24.06 1.946 -20.568 1.951 C-13.712 1.962 -6.856 1.979 0 2 C0 1.34 0 0.68 0 0 Z " fill="#4B4C4B" transform="translate(243,78)"/>
<path d="M0 0 C0.33 0.66 0.66 1.32 1 2 C20.47 2 39.94 2 60 2 C60 8.6 60 15.2 60 22 C59.01 22.33 58.02 22.66 57 23 C56.835 23.495 56.835 23.495 56 26 C37.85 26 19.7 26 1 26 C1 59.66 1 93.32 1 128 C0.67 128 0.34 128 0 128 C0 85.76 0 43.52 0 0 Z " fill="#4B4C4B" transform="translate(12,78)"/>
<path d="M0 0 C1.98 0 3.96 0 6 0 C6.33 3.3 6.66 6.6 7 10 C12.94 10 18.88 10 25 10 C25.33 6.7 25.66 3.4 26 0 C27.98 0 29.96 0 32 0 C32 14.52 32 29.04 32 44 C21.44 44 10.88 44 0 44 C0 29.48 0 14.96 0 0 Z " fill="#454545" transform="translate(112,80)"/>
<path d="M0 0 C0.33 0 0.66 0 1 0 C1 4.95 1 9.9 1 15 C-18.8 15 -38.6 15 -59 15 C-59 11.04 -59 7.08 -59 3 C-53.092 2.926 -47.184 2.871 -41.275 2.835 C-39.266 2.82 -37.256 2.8 -35.246 2.774 C-32.357 2.737 -29.468 2.72 -26.578 2.707 C-26.129 2.699 -26.129 2.699 -23.857 2.66 C-19.191 2.659 -16.559 2.703 -13 6 C-8.857 6.37 -5.431 6.542 -2 4 C-0.75 1.875 -0.75 1.875 0 0 Z " fill="#3F3F3F" transform="translate(239,189)"/>
<path d="M0 0 C0.423 0.412 0.423 0.412 2.562 2.5 C5.165 4.661 6.025 5.003 9.562 5.5 C13 5 13 5 15.11 3.487 C19.293 1.335 23.041 1.627 27.676 1.707 C28.601 1.711 29.526 1.716 30.479 1.72 C33.424 1.737 36.368 1.774 39.312 1.812 C41.313 1.828 43.314 1.841 45.314 1.854 C50.21 1.887 55.105 1.938 60 2 C60 5.96 60 9.92 60 14 C40.2 14 20.4 14 0 14 C0 9.38 0 4.76 0 0 Z " fill="#3F3F3F" transform="translate(16,190)"/>
<path d="M0 0 C1.32 0 2.64 0 4 0 C4 40.92 4 81.84 4 124 C2.68 124 1.36 124 0 124 C0 83.08 0 42.16 0 0 Z " fill="#575757" transform="translate(172,88)"/>
<path d="M0 0 C1.32 0 2.64 0 4 0 C4 40.92 4 81.84 4 124 C2.68 124 1.36 124 0 124 C0 83.08 0 42.16 0 0 Z " fill="#575757" transform="translate(148,88)"/>
<path d="M0 0 C1.32 0 2.64 0 4 0 C4 40.92 4 81.84 4 124 C2.68 124 1.36 124 0 124 C0 83.08 0 42.16 0 0 Z " fill="#575757" transform="translate(104,88)"/>
<path d="M0 0 C1.32 0 2.64 0 4 0 C4 40.92 4 81.84 4 124 C2.68 124 1.36 124 0 124 C0 83.08 0 42.16 0 0 Z " fill="#575757" transform="translate(80,88)"/>
<path d="M0 0 C0.99 0 1.98 0 3 0 C3 33.99 3 67.98 3 103 C-17.79 103 -38.58 103 -60 103 C-60 102.01 -60 101.02 -60 100 C-40.2 100 -20.4 100 0 100 C0 67 0 34 0 0 Z " fill="#333333" transform="translate(240,104)"/>
<path d="M0 0 C0.99 0 1.98 0 3 0 C3 33 3 66 3 100 C22.8 100 42.6 100 63 100 C63 100.99 63 101.98 63 103 C42.21 103 21.42 103 0 103 C0 69.01 0 35.02 0 0 Z " fill="#333333" transform="translate(13,104)"/>
<path d="M0 0 C6.6 0 13.2 0 20 0 C20 4.95 20 9.9 20 15 C13.4 15 6.8 15 0 15 C0 10.05 0 5.1 0 0 Z " fill="#585858" transform="translate(118,76)"/>
<path d="M0 0 C0.66 0.33 0.66 0.33 4 2 C4 24.44 4 46.88 4 70 C3.34 70.33 3.34 70.33 0 72 C0 48.24 0 24.48 0 0 Z " fill="#575757" transform="translate(156,118)"/>
<path d="M0 0 C0.66 0.33 0.66 0.33 4 2 C4 24.44 4 46.88 4 70 C3.34 70.33 3.34 70.33 0 72 C0 48.24 0 24.48 0 0 Z " fill="#575757" transform="translate(88,118)"/>
<path d="M0 0 C0 23.76 0 47.52 0 72 C-1.32 71.34 -2.64 70.68 -4 70 C-4.069 61.168 -4.123 52.337 -4.155 43.505 C-4.171 39.405 -4.192 35.304 -4.226 31.204 C-4.259 27.248 -4.277 23.293 -4.285 19.338 C-4.29 17.827 -4.301 16.316 -4.317 14.805 C-4.339 12.693 -4.342 10.581 -4.341 8.469 C-4.347 7.266 -4.354 6.062 -4.361 4.822 C-4.301 4.356 -4.301 4.356 -4 2 C-1 0 -1 0 0 0 Z " fill="#575757" transform="translate(168,118)"/>
<path d="M0 0 C0 23.76 0 47.52 0 72 C-1.32 71.34 -2.64 70.68 -4 70 C-4.069 61.168 -4.123 52.337 -4.155 43.505 C-4.171 39.405 -4.192 35.304 -4.226 31.204 C-4.259 27.248 -4.277 23.293 -4.285 19.338 C-4.29 17.827 -4.301 16.316 -4.317 14.805 C-4.339 12.693 -4.342 10.581 -4.341 8.469 C-4.347 7.266 -4.354 6.062 -4.361 4.822 C-4.301 4.356 -4.301 4.356 -4 2 C-1 0 -1 0 0 0 Z " fill="#575757" transform="translate(100,118)"/>
<path d="M0 0 C20.79 0 41.58 0 63 0 C63 0.99 63 1.98 63 3 C53.43 3.165 53.43 3.165 5 4 C4.67 4.99 4.34 5.98 4 7 C2.68 7 1.36 7 0 7 C0 4.69 0 2.38 0 0 Z " fill="#333333" transform="translate(180,77)"/>
<path d="M0 0 C20.79 0 41.58 0 63 0 C63 2.31 63 4.62 63 7 C61.68 7 60.36 7 59 7 C59 5.68 59 4.36 59 3 C39.53 3 20.06 3 0 3 C0 2.01 0 1.02 0 0 Z " fill="#333333" transform="translate(13,77)"/>
<path d="M0 0 C0.99 0.33 1.98 0.66 3 1 C3 35.65 3 70.3 3 106 C2.67 106 2.34 106 2 106 C2 72.34 2 38.68 2 4 C1.01 4 0.02 4 -1 4 C-0.67 2.68 -0.34 1.36 0 0 Z " fill="#404040" transform="translate(241,100)"/>
<path d="M0 0 C0.99 0.33 1.98 0.66 3 1 C3 1.99 3 2.98 3 4 C2.01 4 1.02 4 0 4 C0 37.66 0 71.32 0 106 C-0.33 106 -0.66 106 -1 106 C-1.023 92.622 -1.041 79.245 -1.052 65.867 C-1.057 59.655 -1.064 53.444 -1.075 47.233 C-1.086 41.242 -1.092 35.25 -1.095 29.259 C-1.097 26.97 -1.1 24.681 -1.106 22.392 C-1.113 19.193 -1.114 15.995 -1.114 12.796 C-1.117 11.843 -1.121 10.891 -1.124 9.91 C-1.123 9.039 -1.122 8.168 -1.12 7.271 C-1.121 6.514 -1.122 5.757 -1.123 4.978 C-1 3 -1 3 0 0 Z " fill="#404040" transform="translate(13,100)"/>
<path d="M0 0 C9.24 0 18.48 0 28 0 C28 1.32 28 2.64 28 4 C18.76 4 9.52 4 0 4 C0 2.68 0 1.36 0 0 Z " fill="#333333" transform="translate(184,116)"/>
<path d="M0 0 C9.24 0 18.48 0 28 0 C28 1.32 28 2.64 28 4 C18.76 4 9.52 4 0 4 C0 2.68 0 1.36 0 0 Z " fill="#333333" transform="translate(44,116)"/>
<path d="M0 0 C9.24 0 18.48 0 28 0 C28 1.32 28 2.64 28 4 C18.76 4 9.52 4 0 4 C0 2.68 0 1.36 0 0 Z " fill="#333333" transform="translate(184,108)"/>
<path d="M0 0 C9.24 0 18.48 0 28 0 C28 1.32 28 2.64 28 4 C18.76 4 9.52 4 0 4 C0 2.68 0 1.36 0 0 Z " fill="#333333" transform="translate(44,108)"/>
<path d="M0 0 C1.32 0 2.64 0 4 0 C4 5.94 4 11.88 4 18 C2.68 17.34 1.36 16.68 0 16 C0 10.72 0 5.44 0 0 Z " fill="#575757" transform="translate(164,88)"/>
<path d="M0 0 C1.32 0 2.64 0 4 0 C4 5.28 4 10.56 4 16 C3.34 16.33 3.34 16.33 0 18 C0 12.06 0 6.12 0 0 Z " fill="#575757" transform="translate(156,88)"/>
<path d="M0 0 C1.32 0 2.64 0 4 0 C4 5.94 4 11.88 4 18 C2.68 17.34 1.36 16.68 0 16 C0 10.72 0 5.44 0 0 Z " fill="#575757" transform="translate(96,88)"/>
<path d="M0 0 C1.32 0 2.64 0 4 0 C4 5.28 4 10.56 4 16 C3.34 16.33 3.34 16.33 0 18 C0 12.06 0 6.12 0 0 Z " fill="#575757" transform="translate(88,88)"/>
<path d="M0 0 C4.95 0 9.9 0 15 0 C15 1.32 15 2.64 15 4 C10.05 4 5.1 4 0 4 C0 2.68 0 1.36 0 0 Z " fill="#262626" transform="translate(77,52)"/>
<path d="M0 0 C1.134 0.021 2.269 0.041 3.438 0.062 C3.438 0.722 3.438 1.382 3.438 2.062 C1.419 2.486 -0.599 2.909 -2.617 3.332 C-4.562 4.062 -4.562 4.062 -6.562 7.062 C-6.956 9.386 -7.297 11.72 -7.562 14.062 C-8.223 14.062 -8.883 14.062 -9.562 14.062 C-10.178 6.804 -10.178 6.804 -7.125 3.125 C-6.279 2.444 -5.434 1.764 -4.562 1.062 C-3.562 0.062 -3.562 0.062 0 0 Z " fill="#555555" transform="translate(25.5625,175.9375)"/>
<path d="M0 0 C1.134 0.021 2.269 0.041 3.438 0.062 C3.438 0.722 3.438 1.382 3.438 2.062 C1.419 2.486 -0.599 2.909 -2.617 3.332 C-4.562 4.062 -4.562 4.062 -6.562 7.062 C-6.956 9.386 -7.297 11.72 -7.562 14.062 C-8.223 14.062 -8.883 14.062 -9.562 14.062 C-10.178 6.804 -10.178 6.804 -7.125 3.125 C-6.279 2.444 -5.434 1.764 -4.562 1.062 C-3.562 0.062 -3.562 0.062 0 0 Z " fill="#555555" transform="translate(25.5625,147.9375)"/>
<path d="M0 0 C1.134 0.021 2.269 0.041 3.438 0.062 C3.438 0.722 3.438 1.382 3.438 2.062 C1.419 2.486 -0.599 2.909 -2.617 3.332 C-4.562 4.062 -4.562 4.062 -6.562 7.062 C-6.956 9.386 -7.297 11.72 -7.562 14.062 C-8.223 14.062 -8.883 14.062 -9.562 14.062 C-10.178 6.804 -10.178 6.804 -7.125 3.125 C-6.279 2.444 -5.434 1.764 -4.562 1.062 C-3.562 0.062 -3.562 0.062 0 0 Z " fill="#555555" transform="translate(25.5625,119.9375)"/>
<path d="M0 0 C0.66 0.33 0.66 0.33 4 2 C4 4.64 4 7.28 4 10 C2.68 10 1.36 10 0 10 C0 6.7 0 3.4 0 0 Z " fill="#575757" transform="translate(156,202)"/>
<path d="M0 0 C0.66 0.33 0.66 0.33 4 2 C4 4.64 4 7.28 4 10 C2.68 10 1.36 10 0 10 C0 6.7 0 3.4 0 0 Z " fill="#575757" transform="translate(88,202)"/>
<path d="M0 0 C0 3.3 0 6.6 0 10 C-1.32 10 -2.64 10 -4 10 C-4.293 3.945 -4.293 3.945 -4 2 C-1 0 -1 0 0 0 Z " fill="#575757" transform="translate(168,202)"/>
<path d="M0 0 C0 3.3 0 6.6 0 10 C-1.32 10 -2.64 10 -4 10 C-4.293 3.945 -4.293 3.945 -4 2 C-1 0 -1 0 0 0 Z " fill="#575757" transform="translate(100,202)"/>
<path d="M0 0 C0.66 0 1.32 0 2 0 C1.51 6.375 1.51 6.375 -0.938 9.375 C-4.426 12.124 -6.607 12.095 -11 12 C-10.67 11.34 -10.34 10.68 -10 10 C-8.866 9.691 -7.731 9.381 -6.562 9.062 C-3 8 -3 8 -1 5 C-0.615 3.345 -0.272 1.678 0 0 Z " fill="#555555" transform="translate(238,184)"/>
<path d="M0 0 C0.66 0 1.32 0 2 0 C1.51 6.375 1.51 6.375 -0.938 9.375 C-4.426 12.124 -6.607 12.095 -11 12 C-10.67 11.34 -10.34 10.68 -10 10 C-8.866 9.691 -7.731 9.381 -6.562 9.062 C-3 8 -3 8 -1 5 C-0.615 3.345 -0.272 1.678 0 0 Z " fill="#555555" transform="translate(238,156)"/>
<path d="M0 0 C0.66 0 1.32 0 2 0 C1.51 6.375 1.51 6.375 -0.938 9.375 C-4.426 12.124 -6.607 12.095 -11 12 C-10.67 11.34 -10.34 10.68 -10 10 C-8.866 9.691 -7.731 9.381 -6.562 9.062 C-3 8 -3 8 -1 5 C-0.615 3.345 -0.272 1.678 0 0 Z " fill="#555555" transform="translate(238,128)"/>
<path d="M0 0 C1.32 0 2.64 0 4 0 C4 2.64 4 5.28 4 8 C2.68 8 1.36 8 0 8 C0 5.36 0 2.72 0 0 Z " fill="#169A80" transform="translate(48,88)"/>
<path d="M0 0 C1.32 0 2.64 0 4 0 C4 2.64 4 5.28 4 8 C2.68 8 1.36 8 0 8 C0 5.36 0 2.72 0 0 Z " fill="#116654" transform="translate(52,88)"/>
<path d="M0 0 C1.32 0 2.64 0 4 0 C4 2.64 4 5.28 4 8 C2.68 8 1.36 8 0 8 C0 5.36 0 2.72 0 0 Z " fill="#116654" transform="translate(44,88)"/>
<path d="M0 0 C0 0.66 0 1.32 0 2 C-2.018 2.423 -4.036 2.846 -6.055 3.27 C-8 4 -8 4 -10 7 C-10.66 7 -11.32 7 -12 7 C-9.697 0.267 -6.859 -0.259 0 0 Z " fill="#555555" transform="translate(233,176)"/>
<path d="M0 0 C0 0.66 0 1.32 0 2 C-2.018 2.423 -4.036 2.846 -6.055 3.27 C-8 4 -8 4 -10 7 C-10.66 7 -11.32 7 -12 7 C-9.697 0.267 -6.859 -0.259 0 0 Z " fill="#555555" transform="translate(233,148)"/>
<path d="M0 0 C0 0.66 0 1.32 0 2 C-2.018 2.423 -4.036 2.846 -6.055 3.27 C-8 4 -8 4 -10 7 C-10.66 7 -11.32 7 -12 7 C-9.697 0.267 -6.859 -0.259 0 0 Z " fill="#555555" transform="translate(233,120)"/>
<path d="M0 0 C0.33 0.66 0.66 1.32 1 2 C-1.518 5.123 -2.726 5.945 -6.75 6.75 C-7.286 6.791 -7.286 6.791 -10 7 C-10 6.34 -10 5.68 -10 5 C-8.907 4.732 -7.814 4.464 -6.688 4.188 C-3.383 3.123 -2.05 2.653 0 0 Z " fill="#565656" transform="translate(34,189)"/>
<path d="M0 0 C0.33 0.66 0.66 1.32 1 2 C-1.518 5.123 -2.726 5.945 -6.75 6.75 C-7.286 6.791 -7.286 6.791 -10 7 C-10 6.34 -10 5.68 -10 5 C-8.907 4.732 -7.814 4.464 -6.688 4.188 C-3.383 3.123 -2.05 2.653 0 0 Z " fill="#565656" transform="translate(34,161)"/>
<path d="M0 0 C0.33 0.66 0.66 1.32 1 2 C-1.518 5.123 -2.726 5.945 -6.75 6.75 C-7.286 6.791 -7.286 6.791 -10 7 C-10 6.34 -10 5.68 -10 5 C-8.907 4.732 -7.814 4.464 -6.688 4.188 C-3.383 3.123 -2.05 2.653 0 0 Z " fill="#565656" transform="translate(34,133)"/>
</svg>
