<?xml version="1.0" encoding="UTF-8"?>
<!-- Generator: visioncortex VTracer 0.6.12 -->
<svg version="1.1" xmlns="http://www.w3.org/2000/svg" width="256" height="256">
<path d="M0 0 C58.74 0 117.48 0 178 0 C178 5.28 178 10.56 178 16 C183.28 16 188.56 16 194 16 C194 31.84 194 47.68 194 64 C204.56 64 215.12 64 226 64 C226 85.78 226 107.56 226 130 C220.72 130 215.44 130 210 130 C210 135.28 210 140.56 210 146 C204.72 146 199.44 146 194 146 C194 167.12 194 188.24 194 210 C188.72 210 183.44 210 178 210 C178 215.28 178 220.56 178 226 C172.72 226 167.44 226 162 226 C162 231.28 162 236.56 162 242 C140.22 242 118.44 242 96 242 C96 236.72 96 231.44 96 226 C86.1 226 76.2 226 66 226 C66 231.28 66 236.56 66 242 C44.22 242 22.44 242 0 242 C0 236.72 0 231.44 0 226 C-5.28 226 -10.56 226 -16 226 C-16 156.7 -16 87.4 -16 16 C-10.72 16 -5.44 16 0 16 C0 10.72 0 5.44 0 0 Z " fill="#4B5DA7" transform="translate(23,7)"/>
<path d="M0 0 C47.52 0 95.04 0 144 0 C144 26.4 144 52.8 144 80 C96.48 80 48.96 80 0 80 C0 53.6 0 27.2 0 0 Z " fill="#E3E4E4" transform="translate(32,64)"/>
<path d="M0 0 C58.74 0 117.48 0 178 0 C178 5.28 178 10.56 178 16 C183.28 16 188.56 16 194 16 C194 31.84 194 47.68 194 64 C204.56 64 215.12 64 226 64 C226 85.78 226 107.56 226 130 C220.72 130 215.44 130 210 130 C210 135.28 210 140.56 210 146 C204.72 146 199.44 146 194 146 C194 167.12 194 188.24 194 210 C188.72 210 183.44 210 178 210 C178 215.28 178 220.56 178 226 C172.72 226 167.44 226 162 226 C162 231.28 162 236.56 162 242 C140.22 242 118.44 242 96 242 C96 236.72 96 231.44 96 226 C86.1 226 76.2 226 66 226 C66 231.28 66 236.56 66 242 C44.22 242 22.44 242 0 242 C0 236.72 0 231.44 0 226 C-5.28 226 -10.56 226 -16 226 C-16 156.7 -16 87.4 -16 16 C-10.72 16 -5.44 16 0 16 C0 10.72 0 5.44 0 0 Z M9 9 C9 14.28 9 19.56 9 25 C3.72 25 -1.56 25 -7 25 C-7 88.36 -7 151.72 -7 217 C-1.72 217 3.56 217 9 217 C9 222.28 9 227.56 9 233 C24.84 233 40.68 233 57 233 C57 227.72 57 222.44 57 217 C72.84 217 88.68 217 105 217 C105 222.28 105 227.56 105 233 C120.84 233 136.68 233 153 233 C153 227.72 153 222.44 153 217 C158.28 217 163.56 217 169 217 C169 211.72 169 206.44 169 201 C174.28 201 179.56 201 185 201 C185 179.88 185 158.76 185 137 C190.28 137 195.56 137 201 137 C201 131.72 201 126.44 201 121 C195.72 121 190.44 121 185 121 C185 89.32 185 57.64 185 25 C179.72 25 174.44 25 169 25 C169 19.72 169 14.44 169 9 C116.2 9 63.4 9 9 9 Z " fill="#F9FAFB" transform="translate(23,7)"/>
<path d="M0 0 C5.61 0 11.22 0 17 0 C17 31.68 17 63.36 17 96 C22.28 96 27.56 96 33 96 C33 101.28 33 106.56 33 112 C27.72 112 22.44 112 17 112 C17 133.12 17 154.24 17 176 C11.72 176 6.44 176 1 176 C1 181.28 1 186.56 1 192 C-4.28 192 -9.56 192 -15 192 C-15 197.28 -15 202.56 -15 208 C-30.84 208 -46.68 208 -63 208 C-63 202.72 -63 197.44 -63 192 C-78.84 192 -94.68 192 -111 192 C-111 197.28 -111 202.56 -111 208 C-126.84 208 -142.68 208 -159 208 C-159 202.72 -159 197.44 -159 192 C-164.28 192 -169.56 192 -175 192 C-175 186.72 -175 181.44 -175 176 C-117.25 176 -59.5 176 0 176 C0 117.92 0 59.84 0 0 Z " fill="#364F9D" transform="translate(191,32)"/>
<path d="M0 0 C5.28 0 10.56 0 16 0 C16 31.68 16 63.36 16 96 C21.28 96 26.56 96 32 96 C32 101.28 32 106.56 32 112 C26.72 112 21.44 112 16 112 C16 133.12 16 154.24 16 176 C10.72 176 5.44 176 0 176 C0 117.92 0 59.84 0 0 Z " fill="#010102" transform="translate(192,32)"/>
<path d="M0 0 C52.14 0 104.28 0 158 0 C158 4.95 158 9.9 158 15 C105.86 15 53.72 15 0 15 C0 10.05 0 5.1 0 0 Z " fill="#354E9F" transform="translate(33,17)"/>
<path d="M0 0 C47.52 0 95.04 0 144 0 C144 4.95 144 9.9 144 15 C96.48 15 48.96 15 0 15 C0 10.05 0 5.1 0 0 Z " fill="#354F9F" transform="translate(32,48)"/>
<path d="M0 0 C15.84 0 31.68 0 48 0 C48 5.28 48 10.56 48 16 C32.16 16 16.32 16 0 16 C0 10.72 0 5.44 0 0 Z " fill="#020202" transform="translate(128,224)"/>
<path d="M0 0 C15.84 0 31.68 0 48 0 C48 5.28 48 10.56 48 16 C32.16 16 16.32 16 0 16 C0 10.72 0 5.44 0 0 Z " fill="#020202" transform="translate(32,224)"/>
<path d="M0 0 C15.84 0 31.68 0 48 0 C48 5.28 48 10.56 48 16 C32.16 16 16.32 16 0 16 C0 10.72 0 5.44 0 0 Z " fill="#E2E3E3" transform="translate(80,176)"/>
<path d="M0 0 C5.28 0 10.56 0 16 0 C16 15.84 16 31.68 16 48 C10.72 48 5.44 48 0 48 C0 32.16 0 16.32 0 0 Z " fill="#020202" transform="translate(224,80)"/>
<path d="M0 0 C5.28 0 10.56 0 16 0 C16 15.84 16 31.68 16 48 C10.72 48 5.44 48 0 48 C0 32.16 0 16.32 0 0 Z " fill="#040404" transform="translate(128,80)"/>
<path d="M0 0 C5.28 0 10.56 0 16 0 C16 15.84 16 31.68 16 48 C10.72 48 5.44 48 0 48 C0 32.16 0 16.32 0 0 Z " fill="#040404" transform="translate(64,80)"/>
<path d="M0 0 C5.28 0 10.56 0 16 0 C16 5.28 16 10.56 16 16 C10.72 16 5.44 16 0 16 C0 10.72 0 5.44 0 0 Z " fill="#E0E2E3" transform="translate(128,160)"/>
<path d="M0 0 C5.28 0 10.56 0 16 0 C16 5.28 16 10.56 16 16 C10.72 16 5.44 16 0 16 C0 10.72 0 5.44 0 0 Z " fill="#E0E2E3" transform="translate(64,160)"/>
</svg>
