<?xml version="1.0" encoding="UTF-8"?>
<!-- Generator: visioncortex VTracer 0.6.12 -->
<svg version="1.1" xmlns="http://www.w3.org/2000/svg" width="256" height="256">
<path d="M0 0 C61.38 0 122.76 0 186 0 C186 65.34 186 130.68 186 198 C183.36 198 180.72 198 178 198 C178 213.84 178 229.68 178 246 C121.9 246 65.8 246 8 246 C8 230.16 8 214.32 8 198 C5.36 198 2.72 198 0 198 C0 132.66 0 67.32 0 0 Z " fill="#333333" transform="translate(35,3)"/>
<path d="M0 0 C0.916 -0.007 1.832 -0.014 2.776 -0.021 C5.8 -0.039 8.823 -0.035 11.846 -0.03 C13.952 -0.034 16.058 -0.039 18.164 -0.045 C22.577 -0.054 26.991 -0.052 31.404 -0.042 C37.052 -0.031 42.699 -0.051 48.348 -0.08 C52.697 -0.098 57.046 -0.098 61.396 -0.092 C63.478 -0.092 65.56 -0.098 67.642 -0.111 C70.557 -0.125 73.471 -0.115 76.387 -0.098 C77.242 -0.107 78.097 -0.117 78.979 -0.127 C84.719 -0.057 88.153 0.991 92.823 4.404 C94.767 7.434 95.075 9.805 95.083 13.369 C95.091 14.369 95.098 15.368 95.105 16.398 C95.102 17.489 95.1 18.579 95.097 19.703 C95.103 20.856 95.108 22.009 95.113 23.197 C95.127 27.015 95.126 30.832 95.124 34.65 C95.126 36.631 95.129 38.611 95.133 40.592 C95.144 46.819 95.144 53.046 95.138 59.273 C95.132 65.693 95.145 72.113 95.166 78.533 C95.184 84.049 95.19 89.565 95.186 95.081 C95.185 98.374 95.188 101.667 95.201 104.959 C95.213 108.632 95.207 112.304 95.195 115.976 C95.203 117.065 95.21 118.153 95.218 119.274 C95.174 125.649 94.545 129.229 90.323 134.154 C86.5 137.34 81.529 136.559 76.841 136.565 C75.922 136.57 75.003 136.575 74.056 136.58 C71.012 136.595 67.968 136.602 64.924 136.607 C62.811 136.613 60.697 136.619 58.583 136.624 C54.15 136.635 49.716 136.641 45.283 136.644 C39.601 136.65 33.919 136.674 28.237 136.702 C23.871 136.721 19.504 136.726 15.138 136.728 C13.043 136.731 10.948 136.739 8.853 136.752 C5.923 136.769 2.994 136.767 0.063 136.76 C-0.802 136.77 -1.668 136.779 -2.56 136.788 C-7.209 136.756 -10.53 136.606 -14.177 133.404 C-18.086 128.012 -17.601 122.265 -17.565 115.878 C-17.571 114.725 -17.576 113.571 -17.581 112.383 C-17.595 108.576 -17.586 104.77 -17.576 100.963 C-17.578 98.315 -17.581 95.668 -17.584 93.02 C-17.59 87.475 -17.583 81.929 -17.568 76.384 C-17.552 69.978 -17.557 63.573 -17.574 57.168 C-17.589 50.997 -17.587 44.826 -17.579 38.654 C-17.577 36.032 -17.579 33.41 -17.586 30.788 C-17.594 27.125 -17.582 23.463 -17.565 19.8 C-17.572 18.715 -17.578 17.63 -17.584 16.511 C-17.504 7.079 -17.504 7.079 -14.177 3.404 C-9.805 -0.293 -5.452 -0.029 0 0 Z " fill="#BEBEBE" transform="translate(89.17724609375,43.595947265625)"/>
<path d="M0 0 C1.137 -0.01 2.274 -0.02 3.445 -0.03 C4.699 -0.036 5.952 -0.042 7.244 -0.048 C7.902 -0.053 7.902 -0.053 11.23 -0.078 C15.601 -0.109 19.972 -0.129 24.343 -0.148 C25.086 -0.151 25.83 -0.155 26.596 -0.158 C33.611 -0.189 40.627 -0.215 47.642 -0.232 C56.612 -0.254 65.582 -0.296 74.553 -0.366 C80.861 -0.413 87.169 -0.437 93.478 -0.445 C97.245 -0.45 101.011 -0.465 104.778 -0.504 C108.325 -0.541 111.871 -0.55 115.418 -0.536 C117.333 -0.536 119.249 -0.566 121.164 -0.597 C127.681 -0.542 131.755 -0.12 136.48 4.58 C138.856 7.809 138.778 10.894 138.804 14.751 C138.809 15.333 138.809 15.333 138.835 18.277 C138.84 19.555 138.846 20.833 138.852 22.15 C138.862 23.508 138.872 24.867 138.882 26.225 C138.913 30.688 138.934 35.151 138.952 39.614 C138.955 40.373 138.959 41.133 138.962 41.916 C138.993 49.082 139.02 56.248 139.037 63.414 C139.058 72.575 139.1 81.735 139.17 90.896 C139.217 97.34 139.241 103.784 139.249 110.228 C139.254 114.076 139.269 117.923 139.308 121.77 C139.345 125.392 139.354 129.012 139.34 132.634 C139.341 134.59 139.37 136.546 139.401 138.502 C139.322 148.122 139.322 148.122 135.725 152.442 C132.294 155.8 130.062 156.288 125.287 156.321 C124.15 156.331 123.013 156.341 121.842 156.352 C120.588 156.358 119.335 156.363 118.043 156.369 C116.728 156.379 115.412 156.389 114.057 156.399 C109.686 156.43 105.315 156.451 100.944 156.469 C100.201 156.473 99.457 156.476 98.691 156.479 C91.676 156.51 84.66 156.537 77.645 156.554 C68.675 156.576 59.705 156.617 50.734 156.687 C44.426 156.734 38.118 156.759 31.809 156.766 C28.042 156.771 24.276 156.786 20.509 156.826 C16.962 156.863 13.416 156.871 9.869 156.858 C7.954 156.858 6.038 156.887 4.123 156.918 C-5.302 156.839 -5.302 156.839 -9.622 153.242 C-13.042 149.764 -13.484 147.505 -13.517 142.652 C-13.527 141.482 -13.537 140.311 -13.548 139.105 C-13.553 137.814 -13.559 136.523 -13.565 135.193 C-13.575 133.825 -13.585 132.457 -13.595 131.088 C-13.626 126.588 -13.647 122.087 -13.665 117.586 C-13.668 116.821 -13.672 116.055 -13.675 115.266 C-13.706 108.043 -13.733 100.821 -13.749 93.598 C-13.771 84.361 -13.813 75.125 -13.883 65.888 C-13.93 59.393 -13.954 52.898 -13.962 46.403 C-13.967 42.524 -13.982 38.646 -14.021 34.767 C-14.058 31.115 -14.067 27.464 -14.053 23.812 C-14.054 21.839 -14.083 19.866 -14.114 17.894 C-14.035 8.193 -14.035 8.193 -10.438 3.872 C-7.007 0.52 -4.77 0.033 0 0 Z M7.856 17.137 C5.958 21.869 6.218 26.489 6.239 31.541 C6.233 32.691 6.226 33.841 6.219 35.026 C6.2 38.829 6.204 42.631 6.21 46.434 C6.205 49.078 6.2 51.722 6.194 54.366 C6.184 59.909 6.187 65.452 6.197 70.996 C6.209 77.392 6.195 83.789 6.168 90.185 C6.143 96.351 6.141 102.516 6.147 108.682 C6.147 111.299 6.141 113.917 6.129 116.535 C6.114 120.197 6.125 123.859 6.142 127.521 C6.132 128.601 6.122 129.681 6.113 130.793 C6.174 137.102 6.762 141.091 10.644 146.161 C13.4 147.863 15.479 148.412 18.697 148.421 C19.495 148.428 20.293 148.435 21.114 148.443 C21.548 148.442 21.548 148.442 23.739 148.435 C24.658 148.44 25.577 148.446 26.524 148.451 C29.563 148.465 32.601 148.464 35.64 148.461 C37.752 148.465 39.864 148.47 41.976 148.474 C46.404 148.482 50.831 148.482 55.259 148.476 C60.933 148.471 66.607 148.487 72.281 148.511 C76.643 148.525 81.005 148.526 85.368 148.523 C87.46 148.524 89.552 148.529 91.644 148.539 C94.569 148.551 97.493 148.545 100.419 148.533 C101.283 148.541 102.147 148.548 103.037 148.556 C108.748 148.506 111.984 147.44 116.394 143.661 C118.797 140.777 118.772 137.898 118.784 134.316 C118.79 133.318 118.795 132.319 118.801 131.291 C118.802 130.197 118.803 129.103 118.805 127.976 C118.81 126.822 118.815 125.669 118.82 124.481 C118.834 120.658 118.841 116.835 118.847 113.012 C118.851 111.03 118.855 109.049 118.86 107.067 C118.871 101.545 118.879 96.023 118.882 90.501 C118.887 83.362 118.904 76.223 118.933 69.085 C118.955 63.565 118.965 58.044 118.966 52.524 C118.967 49.228 118.975 45.932 118.991 42.636 C119.008 38.959 119.006 35.282 119 31.604 C119.009 30.514 119.018 29.424 119.028 28.301 C118.975 18.707 118.975 18.707 115.644 15.161 C110.659 11.739 106.144 11.731 100.321 11.772 C99.402 11.767 98.482 11.762 97.535 11.757 C94.507 11.743 91.48 11.752 88.452 11.762 C86.343 11.76 84.233 11.757 82.124 11.753 C77.708 11.749 73.293 11.755 68.877 11.77 C63.219 11.787 57.561 11.777 51.903 11.759 C47.549 11.748 43.195 11.751 38.842 11.759 C36.755 11.761 34.669 11.759 32.582 11.752 C29.667 11.744 26.752 11.756 23.837 11.772 C23.406 11.769 23.406 11.769 21.228 11.754 C15.377 11.816 11.921 12.643 7.856 17.137 Z " fill="#1A1A1A" transform="translate(65.35649108886719,31.839370727539063)"/>
<path d="M0 0 C61.38 0 122.76 0 186 0 C186 65.34 186 130.68 186 198 C183.36 198 180.72 198 178 198 C178 213.84 178 229.68 178 246 C121.9 246 65.8 246 8 246 C8 230.16 8 214.32 8 198 C5.36 198 2.72 198 0 198 C0 132.66 0 67.32 0 0 Z M9 9 C9 68.4 9 127.8 9 189 C11.64 189 14.28 189 17 189 C17 204.84 17 220.68 17 237 C67.16 237 117.32 237 169 237 C169 221.16 169 205.32 169 189 C171.64 189 174.28 189 177 189 C177 129.6 177 70.2 177 9 C121.56 9 66.12 9 9 9 Z " fill="#FAFAFA" transform="translate(35,3)"/>
<path d="M0 0 C44.88 0 89.76 0 136 0 C136 15.51 136 31.02 136 47 C91.12 47 46.24 47 0 47 C0 31.49 0 15.98 0 0 Z " fill="#191919" transform="translate(60,192)"/>
<path d="M0 0 C52.8 0 105.6 0 160 0 C160 1.32 160 2.64 160 4 C107.2 4 54.4 4 0 4 C0 2.68 0 1.36 0 0 Z " fill="#1B1B1B" transform="translate(48,24)"/>
<path d="M0 0 C52.8 0 105.6 0 160 0 C160 1.32 160 2.64 160 4 C107.2 4 54.4 4 0 4 C0 2.68 0 1.36 0 0 Z " fill="#616161" transform="translate(48,20)"/>
<path d="M0 0 C52.8 0 105.6 0 160 0 C160 1.32 160 2.64 160 4 C107.2 4 54.4 4 0 4 C0 2.68 0 1.36 0 0 Z " fill="#1B1B1B" transform="translate(48,16)"/>
<path d="M0 0 C2.31 0 4.62 0 7 0 C7 15.51 7 31.02 7 47 C4.69 47 2.38 47 0 47 C0 31.49 0 15.98 0 0 Z " fill="#252525" transform="translate(196,192)"/>
<path d="M0 0 C2.31 0 4.62 0 7 0 C7 15.51 7 31.02 7 47 C4.69 47 2.38 47 0 47 C0 31.49 0 15.98 0 0 Z " fill="#252525" transform="translate(53,192)"/>
<path d="M0 0 C2.062 1.562 2.062 1.562 3 4 C3.178 6.851 2.929 9.293 2 12 C-0.938 14.852 -2.536 15 -6.625 15 C-10 14 -10 14 -12 11.875 C-13.308 8.115 -13.061 5.819 -12 2 C-8.817 -2.074 -4.544 -1.386 0 0 Z " fill="#313131" transform="translate(181,217)"/>
<path d="M0 0 C2.062 1.562 2.062 1.562 3 4 C3.178 6.851 2.929 9.293 2 12 C-0.938 14.852 -2.536 15 -6.625 15 C-10 14 -10 14 -12 11.875 C-13.308 8.115 -13.061 5.819 -12 2 C-8.817 -2.074 -4.544 -1.386 0 0 Z " fill="#313131" transform="translate(153,217)"/>
<path d="M0 0 C4.62 0 9.24 0 14 0 C14.323 4.678 14.371 7.201 12.375 11.5 C10 14 10 14 7 14.75 C4 14 4 14 1.625 11.5 C-0.371 7.201 -0.323 4.678 0 0 Z " fill="#0E0E0E" transform="translate(169,197)"/>
<path d="M0 0 C4.62 0 9.24 0 14 0 C14.323 4.678 14.371 7.201 12.375 11.5 C10 14 10 14 7 14.75 C4 14 4 14 1.625 11.5 C-0.371 7.201 -0.323 4.678 0 0 Z " fill="#0E0E0E" transform="translate(141,197)"/>
<path d="M0 0 C1.32 0 2.64 0 4 0 C4 5.28 4 10.56 4 16 C2.68 16 1.36 16 0 16 C0 10.72 0 5.44 0 0 Z " fill="#0D0D0D" transform="translate(112,216)"/>
<path d="M0 0 C1.32 0 2.64 0 4 0 C4 5.28 4 10.56 4 16 C2.68 16 1.36 16 0 16 C0 10.72 0 5.44 0 0 Z " fill="#0D0D0D" transform="translate(104,216)"/>
<path d="M0 0 C1.32 0 2.64 0 4 0 C4 5.28 4 10.56 4 16 C2.68 16 1.36 16 0 16 C0 10.72 0 5.44 0 0 Z " fill="#0D0D0D" transform="translate(96,216)"/>
<path d="M0 0 C1.32 0 2.64 0 4 0 C4 5.28 4 10.56 4 16 C2.68 16 1.36 16 0 16 C0 10.72 0 5.44 0 0 Z " fill="#0D0D0D" transform="translate(88,216)"/>
<path d="M0 0 C1.32 0 2.64 0 4 0 C4 5.28 4 10.56 4 16 C2.68 16 1.36 16 0 16 C0 10.72 0 5.44 0 0 Z " fill="#0D0D0D" transform="translate(80,216)"/>
<path d="M0 0 C1.32 0 2.64 0 4 0 C4 5.28 4 10.56 4 16 C2.68 16 1.36 16 0 16 C0 10.72 0 5.44 0 0 Z " fill="#0D0D0D" transform="translate(72,216)"/>
<path d="M0 0 C1.32 0 2.64 0 4 0 C4 5.28 4 10.56 4 16 C2.68 16 1.36 16 0 16 C0 10.72 0 5.44 0 0 Z " fill="#0D0D0D" transform="translate(96,196)"/>
<path d="M0 0 C1.32 0 2.64 0 4 0 C4 5.28 4 10.56 4 16 C2.68 16 1.36 16 0 16 C0 10.72 0 5.44 0 0 Z " fill="#0D0D0D" transform="translate(88,196)"/>
<path d="M0 0 C1.32 0 2.64 0 4 0 C4 5.28 4 10.56 4 16 C2.68 16 1.36 16 0 16 C0 10.72 0 5.44 0 0 Z " fill="#0D0D0D" transform="translate(80,196)"/>
<path d="M0 0 C1.32 0 2.64 0 4 0 C4 5.28 4 10.56 4 16 C2.68 16 1.36 16 0 16 C0 10.72 0 5.44 0 0 Z " fill="#0D0D0D" transform="translate(72,196)"/>
<path d="M0 0 C1.32 0 2.64 0 4 0 C4 5.28 4 10.56 4 16 C2.68 16 1.36 16 0 16 C0 10.72 0 5.44 0 0 Z " fill="#0D0D0D" transform="translate(64,196)"/>
<path d="M0 0 C1.32 0 2.64 0 4 0 C4 3.96 4 7.92 4 12 C2.68 12 1.36 12 0 12 C0 8.04 0 4.08 0 0 Z " fill="#0D0D0D" transform="translate(64,216)"/>
<path d="M0 0 C1.32 0 2.64 0 4 0 C4 2.64 4 5.28 4 8 C2.68 8 1.36 8 0 8 C0 5.36 0 2.72 0 0 Z " fill="#0D0D0D" transform="translate(112,204)"/>
<path d="M0 0 C1.32 0 2.64 0 4 0 C4 2.64 4 5.28 4 8 C2.68 8 1.36 8 0 8 C0 5.36 0 2.72 0 0 Z " fill="#0D0D0D" transform="translate(104,204)"/>
</svg>
