<?xml version="1.0" encoding="UTF-8"?>
<!-- Generator: visioncortex VTracer 0.6.12 -->
<svg version="1.1" xmlns="http://www.w3.org/2000/svg" width="256" height="256">
<path d="M0 0 C0.939 -0.005 1.879 -0.011 2.847 -0.016 C5.99 -0.031 9.134 -0.023 12.277 -0.016 C14.533 -0.022 16.788 -0.029 19.044 -0.037 C25.168 -0.055 31.291 -0.054 37.415 -0.048 C42.527 -0.045 47.639 -0.051 52.751 -0.057 C65.5 -0.072 78.248 -0.068 90.997 -0.056 C102.063 -0.046 113.128 -0.059 124.194 -0.083 C135.563 -0.108 146.932 -0.117 158.302 -0.111 C164.682 -0.107 171.062 -0.11 177.442 -0.127 C183.441 -0.142 189.44 -0.138 195.44 -0.12 C197.641 -0.116 199.842 -0.119 202.044 -0.13 C205.05 -0.143 208.055 -0.131 211.061 -0.114 C211.496 -0.118 211.496 -0.118 213.698 -0.143 C219.472 -0.073 222.851 1.044 227.594 4.388 C231.315 9.457 231.02 14.649 230.982 20.688 C230.985 21.2 230.985 21.2 230.998 23.79 C231.011 27.165 231.002 30.54 230.992 33.915 C230.994 36.266 230.997 38.617 231.001 40.969 C231.005 45.894 230.999 50.819 230.985 55.744 C230.968 62.05 230.978 68.356 230.996 74.662 C231.007 79.516 231.003 84.371 230.995 89.226 C230.993 91.551 230.996 93.875 231.003 96.2 C231.01 99.453 230.999 102.705 230.982 105.958 C230.988 106.914 230.994 107.871 231 108.856 C230.94 115.237 230.214 120.336 225.91 125.349 C225.332 125.815 224.753 126.282 224.156 126.763 C223.58 127.245 223.004 127.727 222.41 128.224 C217.968 131.07 212.828 130.533 207.732 130.528 C206.827 130.531 205.922 130.534 204.989 130.537 C201.95 130.546 198.911 130.547 195.872 130.549 C193.696 130.553 191.519 130.558 189.343 130.564 C183.425 130.577 177.508 130.583 171.591 130.588 C167.895 130.591 164.199 130.595 160.503 130.599 C148.941 130.613 137.38 130.623 125.819 130.627 C125.16 130.627 125.16 130.627 121.828 130.628 C121.168 130.628 120.508 130.628 119.829 130.629 C108.474 130.633 97.12 130.653 85.766 130.678 C75.449 130.699 65.132 130.709 54.815 130.711 C48.652 130.712 42.489 130.718 36.325 130.735 C30.528 130.752 24.731 130.754 18.934 130.745 C16.806 130.745 14.679 130.749 12.552 130.759 C9.647 130.771 6.742 130.766 3.837 130.755 C3.416 130.759 3.416 130.759 1.289 130.78 C-4.743 130.729 -9.643 129.76 -14.367 125.704 C-14.834 125.125 -15.3 124.547 -15.781 123.95 C-16.263 123.374 -16.745 122.798 -17.242 122.204 C-19.323 118.957 -19.532 115.719 -19.553 111.93 C-19.56 111.042 -19.568 110.155 -19.575 109.241 C-19.578 108.275 -19.58 107.309 -19.583 106.314 C-19.59 105.291 -19.596 104.268 -19.603 103.214 C-19.623 99.828 -19.634 96.442 -19.644 93.056 C-19.648 91.899 -19.653 90.742 -19.657 89.549 C-19.678 83.427 -19.692 77.305 -19.701 71.182 C-19.712 64.861 -19.747 58.539 -19.786 52.217 C-19.813 47.354 -19.821 42.491 -19.825 37.627 C-19.829 35.297 -19.841 32.967 -19.86 30.636 C-19.884 27.374 -19.883 24.112 -19.876 20.849 C-19.889 19.89 -19.902 18.93 -19.915 17.941 C-19.868 11.913 -19.137 8.213 -15.406 3.388 C-10.276 0.049 -5.91 -0.041 0 0 Z " fill="#CCCCCC" transform="translate(22.406112670898438,62.61231994628906)"/>
<path d="M0 0 C56.76 0 113.52 0 172 0 C172 7.92 172 15.84 172 24 C170.68 24 169.36 24 168 24 C168 31.92 168 39.84 168 48 C153.48 48 138.96 48 124 48 C124 50.64 124 53.28 124 56 C91 56 58 56 24 56 C24 53.36 24 50.72 24 48 C14.76 48 5.52 48 -4 48 C-4 38.76 -4 29.52 -4 20 C-2.68 20 -1.36 20 0 20 C0 13.4 0 6.8 0 0 Z " fill="#454545" transform="translate(24,108)"/>
<path d="M0 0 C0.939 -0.005 1.879 -0.011 2.847 -0.016 C5.99 -0.031 9.134 -0.023 12.277 -0.016 C14.533 -0.022 16.788 -0.029 19.044 -0.037 C25.168 -0.055 31.291 -0.054 37.415 -0.048 C42.527 -0.045 47.639 -0.051 52.751 -0.057 C65.5 -0.072 78.248 -0.068 90.997 -0.056 C102.063 -0.046 113.128 -0.059 124.194 -0.083 C135.563 -0.108 146.932 -0.117 158.302 -0.111 C164.682 -0.107 171.062 -0.11 177.442 -0.127 C183.441 -0.142 189.44 -0.138 195.44 -0.12 C197.641 -0.116 199.842 -0.119 202.044 -0.13 C205.05 -0.143 208.055 -0.131 211.061 -0.114 C211.496 -0.118 211.496 -0.118 213.698 -0.143 C219.472 -0.073 222.851 1.044 227.594 4.388 C231.315 9.457 231.02 14.649 230.982 20.688 C230.985 21.2 230.985 21.2 230.998 23.79 C231.011 27.165 231.002 30.54 230.992 33.915 C230.994 36.266 230.997 38.617 231.001 40.969 C231.005 45.894 230.999 50.819 230.985 55.744 C230.968 62.05 230.978 68.356 230.996 74.662 C231.007 79.516 231.003 84.371 230.995 89.226 C230.993 91.551 230.996 93.875 231.003 96.2 C231.01 99.453 230.999 102.705 230.982 105.958 C230.988 106.914 230.994 107.871 231 108.856 C230.94 115.237 230.214 120.336 225.91 125.349 C225.332 125.815 224.753 126.282 224.156 126.763 C223.58 127.245 223.004 127.727 222.41 128.224 C217.968 131.07 212.828 130.533 207.732 130.528 C206.827 130.531 205.922 130.534 204.989 130.537 C201.95 130.546 198.911 130.547 195.872 130.549 C193.696 130.553 191.519 130.558 189.343 130.564 C183.425 130.577 177.508 130.583 171.591 130.588 C167.895 130.591 164.199 130.595 160.503 130.599 C148.941 130.613 137.38 130.623 125.819 130.627 C125.16 130.627 125.16 130.627 121.828 130.628 C121.168 130.628 120.508 130.628 119.829 130.629 C108.474 130.633 97.12 130.653 85.766 130.678 C75.449 130.699 65.132 130.709 54.815 130.711 C48.652 130.712 42.489 130.718 36.325 130.735 C30.528 130.752 24.731 130.754 18.934 130.745 C16.806 130.745 14.679 130.749 12.552 130.759 C9.647 130.771 6.742 130.766 3.837 130.755 C3.416 130.759 3.416 130.759 1.289 130.78 C-4.743 130.729 -9.643 129.76 -14.367 125.704 C-14.834 125.125 -15.3 124.547 -15.781 123.95 C-16.263 123.374 -16.745 122.798 -17.242 122.204 C-19.323 118.957 -19.532 115.719 -19.553 111.93 C-19.56 111.042 -19.568 110.155 -19.575 109.241 C-19.578 108.275 -19.58 107.309 -19.583 106.314 C-19.59 105.291 -19.596 104.268 -19.603 103.214 C-19.623 99.828 -19.634 96.442 -19.644 93.056 C-19.648 91.899 -19.653 90.742 -19.657 89.549 C-19.678 83.427 -19.692 77.305 -19.701 71.182 C-19.712 64.861 -19.747 58.539 -19.786 52.217 C-19.813 47.354 -19.821 42.491 -19.825 37.627 C-19.829 35.297 -19.841 32.967 -19.86 30.636 C-19.884 27.374 -19.883 24.112 -19.876 20.849 C-19.889 19.89 -19.902 18.93 -19.915 17.941 C-19.868 11.913 -19.137 8.213 -15.406 3.388 C-10.276 0.049 -5.91 -0.041 0 0 Z M-10.406 11.388 C-10.663 13.26 -10.663 13.26 -10.674 15.581 C-10.682 16.46 -10.691 17.339 -10.699 18.244 C-10.698 19.211 -10.698 20.178 -10.697 21.174 C-10.703 22.19 -10.71 23.207 -10.717 24.254 C-10.736 27.628 -10.74 31.002 -10.742 34.376 C-10.748 36.715 -10.755 39.055 -10.762 41.394 C-10.774 46.304 -10.778 51.214 -10.777 56.125 C-10.777 62.42 -10.804 68.715 -10.838 75.01 C-10.86 79.844 -10.865 84.678 -10.863 89.512 C-10.866 91.833 -10.875 94.154 -10.89 96.475 C-10.91 99.721 -10.904 102.967 -10.892 106.213 C-10.903 107.174 -10.914 108.135 -10.926 109.124 C-10.918 110.012 -10.909 110.899 -10.901 111.814 C-10.902 112.581 -10.903 113.348 -10.904 114.138 C-10.149 117.549 -9.019 119.057 -6.406 121.388 C-3.438 122.126 -0.538 122.062 2.507 122.023 C3.418 122.03 4.328 122.038 5.266 122.046 C8.324 122.066 11.381 122.05 14.439 122.035 C16.629 122.041 18.818 122.05 21.008 122.061 C26.96 122.084 32.912 122.075 38.865 122.059 C45.089 122.047 51.312 122.058 57.536 122.066 C68.66 122.076 79.783 122.06 90.907 122.035 C100.992 122.013 111.076 122.016 121.161 122.04 C132.871 122.066 144.581 122.076 156.292 122.061 C162.491 122.054 168.69 122.053 174.889 122.069 C180.717 122.084 186.545 122.074 192.374 122.045 C194.515 122.038 196.656 122.04 198.797 122.051 C201.716 122.065 204.634 122.048 207.554 122.023 C208.404 122.034 209.254 122.045 210.131 122.056 C214.37 121.986 216.117 121.743 219.62 119.134 C221.642 116.32 222.218 115.202 222.209 111.814 C222.218 110.926 222.228 110.039 222.238 109.124 C222.223 108.164 222.209 107.203 222.193 106.213 C222.197 105.191 222.201 104.17 222.205 103.117 C222.212 99.745 222.183 96.373 222.152 93.001 C222.148 90.659 222.146 88.317 222.145 85.974 C222.139 81.069 222.117 76.165 222.081 71.26 C222.036 64.961 222.021 58.663 222.017 52.364 C222.013 47.53 221.998 42.696 221.978 37.862 C221.969 35.539 221.963 33.215 221.958 30.892 C221.949 27.652 221.927 24.413 221.9 21.174 C221.9 20.207 221.899 19.24 221.898 18.244 C221.888 17.365 221.878 16.486 221.868 15.581 C221.866 15.198 221.866 15.198 221.854 13.26 C221.594 11.388 221.594 11.388 219.594 9.388 C216.603 9.19 213.704 9.119 210.711 9.134 C209.78 9.131 208.848 9.127 207.889 9.124 C204.749 9.116 201.609 9.123 198.469 9.129 C196.226 9.126 193.982 9.123 191.739 9.118 C185.632 9.109 179.524 9.113 173.417 9.119 C167.039 9.124 160.66 9.119 154.281 9.116 C142.881 9.112 131.48 9.119 120.08 9.129 C109.735 9.138 99.391 9.136 89.047 9.127 C77.045 9.116 65.043 9.112 53.04 9.118 C46.683 9.121 40.326 9.122 33.969 9.115 C27.994 9.109 22.018 9.113 16.043 9.125 C13.844 9.128 11.646 9.127 9.447 9.122 C6.457 9.117 3.467 9.124 0.477 9.134 C-0.403 9.129 -1.283 9.125 -2.19 9.12 C-8.178 9.159 -8.178 9.159 -10.406 11.388 Z " fill="#FDFDFD" transform="translate(22.406112670898438,62.61231994628906)"/>
<path d="M0 0 C0.432 0.001 0.432 0.001 2.621 0.009 C3.532 0.008 4.443 0.007 5.383 0.006 C8.461 0.005 11.54 0.01 14.619 0.016 C16.816 0.016 19.013 0.016 21.21 0.015 C27.195 0.015 33.181 0.021 39.166 0.028 C45.413 0.034 51.661 0.035 57.908 0.036 C68.401 0.038 78.893 0.045 89.386 0.054 C100.195 0.063 111.004 0.07 121.813 0.074 C122.146 0.074 122.146 0.074 123.831 0.075 C127.171 0.076 130.511 0.078 133.852 0.079 C161.579 0.089 189.307 0.107 217.034 0.129 C217.057 8.326 217.075 16.523 217.086 24.72 C217.091 28.526 217.098 32.331 217.11 36.137 C217.121 39.807 217.127 43.477 217.129 47.147 C217.131 48.55 217.135 49.953 217.14 51.356 C217.147 53.315 217.148 55.274 217.148 57.232 C217.15 58.349 217.152 59.466 217.155 60.617 C217.034 63.129 217.034 63.129 216.034 64.129 C213.164 64.227 210.318 64.259 207.448 64.249 C206.537 64.25 205.625 64.251 204.686 64.252 C201.607 64.254 198.529 64.248 195.45 64.243 C193.253 64.242 191.056 64.242 188.859 64.243 C182.873 64.243 176.888 64.237 170.903 64.23 C164.655 64.224 158.408 64.224 152.161 64.222 C141.668 64.22 131.176 64.213 120.683 64.205 C109.874 64.195 99.065 64.188 88.255 64.184 C87.922 64.184 87.922 64.184 86.238 64.183 C82.897 64.182 79.557 64.181 76.217 64.179 C48.489 64.169 20.762 64.151 -6.966 64.129 C-6.989 55.932 -7.007 47.735 -7.017 39.538 C-7.023 35.733 -7.03 31.927 -7.041 28.121 C-7.052 24.451 -7.058 20.781 -7.061 17.111 C-7.062 15.708 -7.066 14.305 -7.071 12.902 C-7.079 10.943 -7.079 8.985 -7.079 7.026 C-7.081 5.909 -7.084 4.792 -7.086 3.641 C-6.856 -1.162 -4.166 0.011 0 0 Z M1.034 4.129 C1.034 10.729 1.034 17.329 1.034 24.129 C-0.286 24.129 -1.606 24.129 -2.966 24.129 C-2.966 33.369 -2.966 42.609 -2.966 52.129 C6.274 52.129 15.514 52.129 25.034 52.129 C25.034 54.769 25.034 57.409 25.034 60.129 C58.034 60.129 91.034 60.129 125.034 60.129 C125.034 57.489 125.034 54.849 125.034 52.129 C139.554 52.129 154.074 52.129 169.034 52.129 C169.034 44.209 169.034 36.289 169.034 28.129 C170.354 28.129 171.674 28.129 173.034 28.129 C173.034 20.209 173.034 12.289 173.034 4.129 C116.274 4.129 59.514 4.129 1.034 4.129 Z " fill="#CBCBCA" transform="translate(22.96568590402603,103.8709186911583)"/>
<path d="M0 0 C0.88 0.004 1.76 0.009 2.667 0.014 C3.598 0.01 4.529 0.007 5.489 0.004 C8.629 -0.004 11.769 0.002 14.909 0.009 C17.152 0.006 19.395 0.002 21.639 -0.002 C27.746 -0.011 33.853 -0.007 39.96 -0.001 C46.339 0.004 52.718 -0.001 59.096 -0.004 C70.497 -0.008 81.897 -0.002 93.298 0.009 C103.642 0.018 113.986 0.016 124.331 0.007 C136.333 -0.004 148.335 -0.008 160.337 -0.002 C166.694 0.001 173.052 0.001 179.409 -0.005 C185.384 -0.011 191.359 -0.007 197.335 0.005 C199.533 0.007 201.732 0.007 203.931 0.002 C206.921 -0.003 209.911 0.004 212.901 0.014 C213.781 0.009 214.661 0.005 215.567 0 C221.555 0.039 221.555 0.039 223.784 2.267 C223.784 7.547 223.784 12.827 223.784 18.267 C147.224 18.267 70.664 18.267 -8.216 18.267 C-8.216 0.054 -8.216 0.054 0 0 Z " fill="#C5C5C5" transform="translate(20.21630859375,71.7325131893158)"/>
<path d="M0 0 C0.432 0.001 0.432 0.001 2.621 0.009 C3.532 0.008 4.443 0.007 5.383 0.006 C8.461 0.005 11.54 0.01 14.619 0.016 C16.816 0.016 19.013 0.016 21.21 0.015 C27.195 0.015 33.181 0.021 39.166 0.028 C45.413 0.034 51.661 0.035 57.908 0.036 C68.401 0.038 78.893 0.045 89.386 0.054 C100.195 0.063 111.004 0.07 121.813 0.074 C122.146 0.074 122.146 0.074 123.831 0.075 C127.171 0.076 130.511 0.078 133.852 0.079 C161.579 0.089 189.307 0.107 217.034 0.129 C217.057 8.326 217.075 16.523 217.086 24.72 C217.091 28.526 217.098 32.331 217.11 36.137 C217.121 39.807 217.127 43.477 217.129 47.147 C217.131 48.55 217.135 49.953 217.14 51.356 C217.147 53.315 217.148 55.274 217.148 57.232 C217.15 58.349 217.152 59.466 217.155 60.617 C217.034 63.129 217.034 63.129 216.034 64.129 C213.164 64.227 210.318 64.259 207.448 64.249 C206.537 64.25 205.625 64.251 204.686 64.252 C201.607 64.254 198.529 64.248 195.45 64.243 C193.253 64.242 191.056 64.242 188.859 64.243 C182.873 64.243 176.888 64.237 170.903 64.23 C164.655 64.224 158.408 64.224 152.161 64.222 C141.668 64.22 131.176 64.213 120.683 64.205 C109.874 64.195 99.065 64.188 88.255 64.184 C87.922 64.184 87.922 64.184 86.238 64.183 C82.897 64.182 79.557 64.181 76.217 64.179 C48.489 64.169 20.762 64.151 -6.966 64.129 C-6.989 55.932 -7.007 47.735 -7.017 39.538 C-7.023 35.733 -7.03 31.927 -7.041 28.121 C-7.052 24.451 -7.058 20.781 -7.061 17.111 C-7.062 15.708 -7.066 14.305 -7.071 12.902 C-7.079 10.943 -7.079 8.985 -7.079 7.026 C-7.081 5.909 -7.084 4.792 -7.086 3.641 C-6.856 -1.162 -4.166 0.011 0 0 Z M1.034 2.129 C1.034 9.389 1.034 16.649 1.034 24.129 C-0.286 24.129 -1.606 24.129 -2.966 24.129 C-2.966 33.369 -2.966 42.609 -2.966 52.129 C6.274 52.129 15.514 52.129 25.034 52.129 C25.034 54.769 25.034 57.409 25.034 60.129 C25.364 60.789 25.694 61.449 26.034 62.129 C88.404 62.129 150.774 62.129 215.034 62.129 C215.034 42.329 215.034 22.529 215.034 2.129 C144.414 2.129 73.794 2.129 1.034 2.129 Z " fill="#C2C2C2" transform="translate(22.96568590402603,103.8709186911583)"/>
<path d="M0 0 C0.89 0.001 1.781 0.001 2.698 0.002 C3.21 0.001 3.21 0.001 5.799 -0.002 C6.936 0.001 8.073 0.005 9.245 0.008 C9.844 0.008 9.844 0.008 12.873 0.008 C16.208 0.01 19.543 0.016 22.878 0.025 C25.004 0.03 27.131 0.033 29.257 0.035 C64.57 0.077 99.882 0.32 135.194 0.569 C144.041 0.631 152.889 0.691 161.737 0.75 C179.823 0.872 197.909 0.997 215.995 1.124 C215.995 3.104 215.995 5.084 215.995 7.124 C197.021 7.257 178.048 7.387 159.074 7.515 C150.256 7.574 141.437 7.634 132.619 7.696 C110.707 7.85 88.796 7.988 66.884 8.099 C63.621 8.115 60.358 8.132 57.095 8.151 C48.555 8.198 40.016 8.239 31.476 8.261 C27.937 8.27 24.399 8.283 20.86 8.303 C17.021 8.325 13.182 8.332 9.343 8.337 C8.211 8.345 7.078 8.354 5.912 8.363 C4.889 8.362 3.866 8.36 2.812 8.359 C2.368 8.36 2.368 8.36 0.12 8.367 C-2.005 8.124 -2.005 8.124 -4.005 6.124 C-3.283 0.202 -3.283 0.202 0 0 Z " fill="#C4C4C4" transform="translate(28.0048828125,78.87638092041016)"/>
<path d="M0 0 C75.24 0 150.48 0 228 0 C228.33 0.66 228.33 0.66 230 4 C153.44 4 76.88 4 -2 4 C-1.34 2.68 -0.68 1.36 0 0 Z " fill="#CCCCCC" transform="translate(14,72)"/>
<path d="M0 0 C33 0 66 0 100 0 C100 2.64 100 5.28 100 8 C67 8 34 8 0 8 C0 5.36 0 2.72 0 0 Z " fill="#4D4E4D" transform="translate(48,156)"/>
<path d="M0 0 C5.28 0 10.56 0 16 0 C16 15.84 16 31.68 16 48 C10.72 48 5.44 48 0 48 C0 32.16 0 16.32 0 0 Z " fill="#BE9957" transform="translate(208,108)"/>
<path d="M0 0 C1.772 0 3.544 0.006 5.316 0.016 C6.247 0.017 7.178 0.019 8.137 0.02 C11.122 0.026 14.108 0.038 17.094 0.051 C19.112 0.056 21.131 0.061 23.15 0.065 C28.11 0.076 33.071 0.093 38.031 0.114 C38.031 2.754 38.031 5.394 38.031 8.114 C32.086 8.163 26.142 8.199 20.197 8.223 C18.173 8.233 16.15 8.247 14.126 8.264 C11.222 8.289 8.318 8.3 5.414 8.309 C4.96 8.314 4.96 8.314 2.661 8.34 C1.82 8.34 0.98 8.34 0.114 8.341 C-0.257 8.343 -0.257 8.343 -2.134 8.354 C-3.969 8.114 -3.969 8.114 -5.969 6.114 C-5.242 0.15 -5.242 0.15 0 0 Z " fill="#818181" transform="translate(29.968994140625,78.886474609375)"/>
<path d="M0 0 C56.76 0 113.52 0 172 0 C172 7.92 172 15.84 172 24 C170.68 23.67 169.36 23.34 168 23 C168.99 23 169.98 23 171 23 C171 15.74 171 8.48 171 1 C115.89 1 60.78 1 4 1 C4 2.98 4 4.96 4 7 C3.01 7.33 2.02 7.66 1 8 C1 11.96 1 15.92 1 20 C0.67 20 0.34 20 0 20 C0 13.4 0 6.8 0 0 Z " fill="#555555" transform="translate(24,108)"/>
<path d="M0 0 C3.625 -0.058 7.25 -0.094 10.875 -0.125 C11.908 -0.142 12.94 -0.159 14.004 -0.176 C14.99 -0.182 15.976 -0.189 16.992 -0.195 C17.448 -0.201 17.448 -0.201 19.753 -0.227 C22 0 22 0 24 2 C23.444 6.556 23.444 6.556 22 8 C20.365 8.087 18.727 8.107 17.09 8.098 C16.1 8.094 15.111 8.091 14.092 8.088 C13.051 8.08 12.01 8.071 10.938 8.062 C9.893 8.058 8.848 8.053 7.771 8.049 C5.181 8.037 2.59 8.021 0 8 C0 5.36 0 2.72 0 0 Z " fill="#A7A7A7" transform="translate(68,79)"/>
<path d="M0 0 C5.28 0 10.56 0 16 0 C16 2.64 16 5.28 16 8 C10.72 8 5.44 8 0 8 C0 5.36 0 2.72 0 0 Z " fill="#BE9A59" transform="translate(208,108)"/>
<path d="M0 0 C2.479 -0.027 4.958 -0.047 7.438 -0.062 C8.145 -0.071 8.852 -0.079 9.58 -0.088 C11.387 -0.097 13.194 -0.052 15 0 C16 1 16 1 16 8 C10.72 8 5.44 8 0 8 C0 5.36 0 2.72 0 0 Z " fill="#BE9957" transform="translate(208,132)"/>
<path d="M0 0 C1.645 0 3.29 0.006 4.935 0.016 C5.367 0.017 5.367 0.017 7.554 0.02 C10.326 0.026 13.097 0.038 15.869 0.051 C17.743 0.056 19.618 0.061 21.492 0.065 C26.097 0.076 30.702 0.093 35.306 0.114 C35.306 0.774 35.306 1.434 35.306 2.114 C27.386 2.114 19.466 2.114 11.306 2.114 C10.976 3.104 10.646 4.094 10.306 5.114 C5.686 5.114 1.066 5.114 -3.694 5.114 C-4.024 3.794 -4.354 2.474 -4.694 1.114 C-3.694 0.114 -3.694 0.114 0 0 Z " fill="#BDBDBD" transform="translate(208.693603515625,79.886474609375)"/>
<path d="M0 0 C5.28 0 10.56 0 16 0 C16 1.65 16 3.3 16 5 C10.72 4.67 5.44 4.34 0 4 C0 2.68 0 1.36 0 0 Z " fill="#A5854C" transform="translate(208,140)"/>
<path d="M0 0 C5.28 0 10.56 0 16 0 C16 1.65 16 3.3 16 5 C10.72 4.67 5.44 4.34 0 4 C0 2.68 0 1.36 0 0 Z " fill="#A5854C" transform="translate(208,128)"/>
<path d="M0 0 C5.28 0 10.56 0 16 0 C16 1.65 16 3.3 16 5 C10.72 4.67 5.44 4.34 0 4 C0 2.68 0 1.36 0 0 Z " fill="#A5854C" transform="translate(208,116)"/>
<path d="M0 0 C5.28 0 10.56 0 16 0 C16 1.32 16 2.64 16 4 C10.72 4 5.44 4 0 4 C0 2.68 0 1.36 0 0 Z " fill="#A5864F" transform="translate(208,152)"/>
<path d="M0 0 C4.95 0 9.9 0 15 0 C15 1.32 15 2.64 15 4 C10.38 4 5.76 4 1 4 C0.67 2.68 0.34 1.36 0 0 Z " fill="#8A7C7C" transform="translate(204,81)"/>
</svg>
