<?xml version="1.0" encoding="UTF-8"?>
<!-- Generator: visioncortex VTracer 0.6.12 -->
<svg version="1.1" xmlns="http://www.w3.org/2000/svg" width="256" height="256">
<path d="M0 0 C4.498 0.464 8.998 0.894 13.5 1.317 C17.028 1.652 20.553 2.006 24.078 2.365 C25.738 2.532 27.399 2.692 29.061 2.846 C40.516 3.922 51.154 5.62 59.225 14.63 C68.35 26.371 70.266 35.882 70.672 50.605 C70.956 52.857 70.956 52.857 71.955 54.711 C73.086 57.137 73.22 58.773 73.246 61.438 C73.259 62.34 73.272 63.241 73.285 64.169 C73.287 65.136 73.289 66.103 73.292 67.099 C73.295 67.599 73.295 67.599 73.312 70.133 C73.322 72.249 73.326 74.366 73.326 76.482 C73.331 79.713 73.367 82.942 73.405 86.173 C73.411 88.232 73.415 90.29 73.417 92.349 C73.431 93.312 73.445 94.274 73.46 95.266 C73.421 100.966 72.851 104.382 68.956 108.857 C58.853 115.831 46.805 116.2 34.956 114.857 C34.296 114.527 33.636 114.197 32.956 113.857 C32.959 114.233 32.959 114.233 32.976 116.139 C33.036 123.245 33.082 130.351 33.111 137.458 C33.127 141.111 33.148 144.764 33.182 148.417 C33.215 151.945 33.232 155.472 33.24 158.999 C33.248 160.996 33.272 162.993 33.295 164.99 C33.296 165.6 33.296 165.6 33.296 168.689 C33.299 169.226 33.299 169.226 33.316 171.94 C32.805 176.071 31.013 178.636 28.331 181.732 C24.56 183.518 20.901 183.025 16.956 181.857 C12.289 179.23 9.549 176.425 6.518 172.044 C6.108 171.458 5.699 170.872 5.276 170.268 C2.513 166.271 -0.123 162.195 -2.744 158.103 C-3.392 157.094 -4.041 156.085 -4.709 155.045 C-5.988 153.047 -7.257 151.042 -8.515 149.029 C-16.481 136.536 -26.01 128.304 -40.544 124.419 C-55.537 121.911 -69.194 124.909 -82.044 132.857 C-90.163 138.844 -94.938 147.65 -100.111 156.103 C-102.623 160.207 -105.237 164.217 -107.982 168.169 C-108.316 168.652 -108.316 168.652 -110.009 171.095 C-114.859 177.676 -118.576 181.964 -127.107 183.357 C-131.348 182.635 -133.009 180.892 -136.044 177.857 C-137.121 174.628 -137.165 172.311 -137.158 168.917 C-137.158 167.695 -137.158 166.474 -137.158 165.216 C-137.153 163.898 -137.147 162.579 -137.142 161.22 C-137.14 159.857 -137.139 158.493 -137.138 157.13 C-137.134 153.544 -137.124 149.959 -137.113 146.373 C-137.103 142.714 -137.098 139.054 -137.093 135.394 C-137.083 128.215 -137.065 121.036 -137.044 113.857 C-137.374 114.022 -137.374 114.022 -139.044 114.857 C-150.894 116.2 -162.942 115.831 -173.044 108.857 C-177.666 103.548 -177.605 99.045 -177.505 92.349 C-177.504 91.346 -177.504 90.343 -177.503 89.309 C-177.497 87.196 -177.481 85.083 -177.456 82.97 C-177.419 79.736 -177.415 76.502 -177.416 73.267 C-177.406 71.211 -177.394 69.155 -177.38 67.099 C-177.378 66.132 -177.376 65.165 -177.374 64.169 C-177.361 63.268 -177.348 62.367 -177.335 61.438 C-177.331 61.043 -177.331 61.043 -177.312 59.044 C-177.014 56.604 -176.203 55.005 -175.044 52.857 C-174.729 50.558 -174.729 50.558 -174.623 48.04 C-173.492 28.057 -173.492 28.057 -167.044 19.857 C-166.37 18.967 -165.696 18.078 -165.001 17.161 C-156.843 7.256 -147.997 4.343 -135.535 3.07 C-133.921 2.919 -132.307 2.768 -130.693 2.618 C-128.99 2.447 -127.287 2.275 -125.585 2.102 C-122.014 1.742 -118.442 1.397 -114.868 1.062 C-110.39 0.641 -105.916 0.189 -101.443 -0.273 C-67.164 -3.792 -34.264 -3.536 0 0 Z " fill="#B50000" transform="translate(180.04443359375,38.143310546875)"/>
<path d="M0 0 C4.498 0.464 8.998 0.894 13.5 1.317 C17.028 1.652 20.553 2.006 24.078 2.365 C25.738 2.532 27.399 2.692 29.061 2.846 C40.516 3.922 51.154 5.62 59.225 14.63 C68.35 26.371 70.266 35.882 70.672 50.605 C70.956 52.857 70.956 52.857 71.955 54.711 C73.086 57.137 73.22 58.773 73.246 61.438 C73.259 62.34 73.272 63.241 73.285 64.169 C73.287 65.136 73.289 66.103 73.292 67.099 C73.295 67.599 73.295 67.599 73.312 70.133 C73.322 72.249 73.326 74.366 73.326 76.482 C73.331 79.713 73.367 82.942 73.405 86.173 C73.411 88.232 73.415 90.29 73.417 92.349 C73.431 93.312 73.445 94.274 73.46 95.266 C73.421 100.966 72.851 104.382 68.956 108.857 C58.853 115.831 46.805 116.2 34.956 114.857 C34.296 114.527 33.636 114.197 32.956 113.857 C32.959 114.233 32.959 114.233 32.976 116.139 C33.036 123.245 33.082 130.351 33.111 137.458 C33.127 141.111 33.148 144.764 33.182 148.417 C33.215 151.945 33.232 155.472 33.24 158.999 C33.248 160.996 33.272 162.993 33.295 164.99 C33.296 165.6 33.296 165.6 33.296 168.689 C33.299 169.226 33.299 169.226 33.316 171.94 C32.805 176.071 31.013 178.636 28.331 181.732 C24.56 183.518 20.901 183.025 16.956 181.857 C12.289 179.23 9.549 176.425 6.518 172.044 C6.108 171.458 5.699 170.872 5.276 170.268 C2.513 166.271 -0.123 162.195 -2.744 158.103 C-3.392 157.094 -4.041 156.085 -4.709 155.045 C-5.988 153.047 -7.257 151.042 -8.515 149.029 C-16.481 136.536 -26.01 128.304 -40.544 124.419 C-55.537 121.911 -69.194 124.909 -82.044 132.857 C-90.163 138.844 -94.938 147.65 -100.111 156.103 C-102.623 160.207 -105.237 164.217 -107.982 168.169 C-108.316 168.652 -108.316 168.652 -110.009 171.095 C-114.859 177.676 -118.576 181.964 -127.107 183.357 C-131.348 182.635 -133.009 180.892 -136.044 177.857 C-137.121 174.628 -137.165 172.311 -137.158 168.917 C-137.158 167.695 -137.158 166.474 -137.158 165.216 C-137.153 163.898 -137.147 162.579 -137.142 161.22 C-137.14 159.857 -137.139 158.493 -137.138 157.13 C-137.134 153.544 -137.124 149.959 -137.113 146.373 C-137.103 142.714 -137.098 139.054 -137.093 135.394 C-137.083 128.215 -137.065 121.036 -137.044 113.857 C-137.374 114.022 -137.374 114.022 -139.044 114.857 C-150.894 116.2 -162.942 115.831 -173.044 108.857 C-177.666 103.548 -177.605 99.045 -177.505 92.349 C-177.504 91.346 -177.504 90.343 -177.503 89.309 C-177.497 87.196 -177.481 85.083 -177.456 82.97 C-177.419 79.736 -177.415 76.502 -177.416 73.267 C-177.406 71.211 -177.394 69.155 -177.38 67.099 C-177.378 66.132 -177.376 65.165 -177.374 64.169 C-177.361 63.268 -177.348 62.367 -177.335 61.438 C-177.331 61.043 -177.331 61.043 -177.312 59.044 C-177.014 56.604 -176.203 55.005 -175.044 52.857 C-174.729 50.558 -174.729 50.558 -174.623 48.04 C-173.492 28.057 -173.492 28.057 -167.044 19.857 C-166.37 18.967 -165.696 18.078 -165.001 17.161 C-156.843 7.256 -147.997 4.343 -135.535 3.07 C-133.921 2.919 -132.307 2.768 -130.693 2.618 C-128.99 2.447 -127.287 2.275 -125.585 2.102 C-122.014 1.742 -118.442 1.397 -114.868 1.062 C-110.39 0.641 -105.916 0.189 -101.443 -0.273 C-67.164 -3.792 -34.264 -3.536 0 0 Z M-108.79 8.93 C-111.165 9.169 -113.54 9.403 -115.916 9.637 C-119.707 10.013 -123.497 10.404 -127.285 10.806 C-128.694 10.955 -130.104 11.101 -131.514 11.243 C-150.515 13.18 -150.515 13.18 -156.232 19.982 C-156.538 20.334 -156.538 20.334 -158.087 22.115 C-158.41 22.567 -158.41 22.567 -160.044 24.857 C-160.486 25.474 -160.928 26.091 -161.384 26.727 C-165.553 33.224 -165.653 38.852 -165.357 46.419 C-165.334 47.523 -165.312 48.627 -165.289 49.765 C-165.23 52.464 -165.148 55.159 -165.044 57.857 C-166.034 57.857 -167.024 57.857 -168.044 57.857 C-168.044 72.377 -168.044 86.897 -168.044 101.857 C-160.257 104.971 -156.215 106.444 -148.419 106.107 C-147.606 106.089 -146.793 106.071 -145.955 106.052 C-143.984 106.006 -142.014 105.934 -140.044 105.857 C-140.044 104.537 -140.044 103.217 -140.044 101.857 C-136.084 101.857 -132.124 101.857 -128.044 101.857 C-128.044 125.617 -128.044 149.377 -128.044 173.857 C-122.044 173.857 -122.044 173.857 -119.385 171.716 C-117.108 168.934 -115.328 166.247 -113.591 163.103 C-112.971 162 -112.351 160.897 -111.712 159.761 C-110.449 157.477 -109.186 155.193 -107.923 152.909 C-97.594 134.54 -86.198 122.471 -65.669 116.044 C-49.626 112.096 -32.948 116.482 -19.044 124.857 C-5.507 133.154 1.265 148.58 8.815 162.006 C9.437 163.104 10.058 164.202 10.698 165.333 C11.253 166.324 11.809 167.315 12.381 168.336 C15.027 172.572 15.027 172.572 16.956 173.857 C19.266 173.857 21.576 173.857 23.956 173.857 C23.956 150.097 23.956 126.337 23.956 101.857 C27.916 101.857 31.876 101.857 35.956 101.857 C35.956 103.177 35.956 104.497 35.956 105.857 C38.561 105.967 41.161 106.045 43.768 106.107 C44.487 106.14 45.205 106.174 45.946 106.208 C53.191 106.336 56.39 104.608 63.956 101.857 C63.956 87.337 63.956 72.817 63.956 57.857 C63.296 57.857 62.636 57.857 61.956 57.857 C61.962 57.192 61.968 56.528 61.975 55.844 C62.047 30.586 62.047 30.586 51.924 19.665 C46.396 14.403 40.995 12.765 33.419 12.095 C32.78 12.036 32.78 12.036 29.545 11.741 C28.162 11.622 26.78 11.503 25.397 11.384 C23.965 11.255 22.533 11.126 21.101 10.996 C17.341 10.657 13.581 10.325 9.82 9.996 C3.805 9.468 -2.208 8.927 -8.222 8.387 C-10.313 8.2 -12.404 8.016 -14.495 7.833 C-15.776 7.72 -17.058 7.606 -18.378 7.489 C-19.499 7.391 -20.62 7.293 -21.775 7.191 C-25.215 6.839 -28.622 6.348 -32.044 5.857 C-57.716 4.228 -83.265 6.364 -108.79 8.93 Z " fill="#FCFBFB" transform="translate(180.04443359375,38.143310546875)"/>
<path d="M0 0 C12.21 0 24.42 0 37 0 C39 4 39 4 39 7 C39.759 6.909 40.518 6.818 41.301 6.725 C59.977 4.52 77.619 2.968 96.321 5.288 C101.588 5.933 106.692 6.084 112 6 C112.99 4.02 113.98 2.04 115 0 C127.21 0 139.42 0 152 0 C152 23.76 152 47.52 152 72 C145 72 145 72 142.77 69.857 C141.014 67.023 139.297 64.197 137.68 61.281 C137.067 60.19 136.455 59.099 135.824 57.974 C135.502 57.401 135.502 57.401 133.875 54.5 C122.623 34.77 112.585 21.768 90.375 14.875 C74.513 10.763 60.346 13.483 46 20.875 C31.592 29.442 24.194 43.332 16.487 57.745 C9.854 70.073 9.854 70.073 6 72 C4.02 72 2.04 72 0 72 C0 48.24 0 24.48 0 0 Z " fill="#353434" transform="translate(52,140)"/>
<path d="M0 0 C0.85 0.002 1.701 0.004 2.577 0.007 C3.058 0.007 3.058 0.007 5.489 0.007 C6.012 0.01 6.012 0.01 8.655 0.023 C9.719 0.024 10.783 0.025 11.879 0.027 C15.293 0.033 18.706 0.045 22.12 0.058 C24.428 0.063 26.736 0.067 29.044 0.071 C34.715 0.082 40.386 0.099 46.057 0.12 C47.659 3.162 49.261 6.204 50.862 9.245 C51.313 10.101 51.764 10.957 52.228 11.839 C61.057 28.611 61.057 28.611 61.057 32.12 C60.067 32.12 59.077 32.12 58.057 32.12 C58.057 32.78 58.057 33.44 58.057 34.12 C55.417 34.12 52.777 34.12 50.057 34.12 C50.063 34.751 50.068 35.382 50.073 36.032 C50.094 38.874 50.107 41.716 50.12 44.558 C50.128 45.551 50.137 46.544 50.145 47.568 C50.149 48.512 50.152 49.456 50.155 50.429 C50.16 51.303 50.166 52.178 50.171 53.079 C50.057 55.12 50.057 55.12 49.057 56.12 C47.375 56.219 45.688 56.248 44.003 56.25 C43.464 56.251 43.464 56.251 40.737 56.259 C39.564 56.257 38.391 56.255 37.182 56.253 C35.988 56.254 34.793 56.255 33.562 56.256 C31.03 56.257 28.498 56.255 25.966 56.251 C22.074 56.245 18.183 56.251 14.292 56.257 C11.839 56.256 9.386 56.255 6.932 56.253 C5.76 56.255 4.587 56.257 3.378 56.259 C2.3 56.256 1.223 56.253 0.112 56.25 C-0.842 56.249 -1.796 56.248 -2.779 56.247 C-4.943 56.12 -4.943 56.12 -5.943 55.12 C-6.029 53.559 -6.05 51.993 -6.04 50.429 C-6.037 49.485 -6.034 48.54 -6.03 47.568 C-6.022 46.574 -6.014 45.581 -6.005 44.558 C-6.001 43.561 -5.996 42.564 -5.991 41.536 C-5.98 39.064 -5.963 36.592 -5.943 34.12 C-8.583 34.12 -11.223 34.12 -13.943 34.12 C-13.943 33.46 -13.943 32.8 -13.943 32.12 C-14.933 32.12 -15.923 32.12 -16.943 32.12 C-16.318 27.97 -14.922 24.718 -13.036 20.98 C-12.457 19.827 -11.879 18.675 -11.282 17.487 C-10.981 16.894 -10.679 16.301 -10.368 15.69 C-9.44 13.865 -8.521 12.036 -7.603 10.206 C-2.533 0.157 -2.533 0.157 0 0 Z " fill="#FC0202" transform="translate(105.94252014160156,59.87974548339844)"/>
<path d="M0 0 C0 23.43 0 46.86 0 71 C0.33 70.835 0.33 70.835 2 70 C2.33 64.39 2.66 58.78 3 53 C4.98 54.65 6.96 56.3 9 58 C11.95 58.811 11.95 58.811 15.043 59.074 C16.191 59.183 17.339 59.293 18.522 59.405 C19.732 59.498 20.941 59.591 22.188 59.688 C23.427 59.801 24.666 59.914 25.942 60.031 C28.444 60.259 30.946 60.479 33.449 60.691 C38.39 61.121 43.319 61.652 48.25 62.188 C50.808 62.456 53.365 62.724 56 63 C56.33 70.92 56.66 78.84 57 87 C40.83 87 24.66 87 8 87 C8 88.32 8 89.64 8 91 C5.207 91.11 2.419 91.188 -0.375 91.25 C-1.15 91.284 -1.924 91.317 -2.723 91.352 C-9.879 91.47 -12.661 89.935 -20 87 C-20 72.48 -20 57.96 -20 43 C-19.01 43 -18.02 43 -17 43 C-17.037 42.336 -17.073 41.672 -17.111 40.987 C-18.302 16.144 -18.302 16.144 -10 7 C-3.266 0 -3.266 0 0 0 Z " fill="#B70101" transform="translate(32,53)"/>
<path d="M0 0 C4.157 1.039 4.806 1.437 7.438 4.5 C7.715 4.815 7.715 4.815 9.121 6.406 C14.987 14.504 16.758 20.508 16.812 30.562 C16.838 31.667 16.863 32.771 16.889 33.908 C16.947 36.606 16.984 39.302 17 42 C17.66 42 18.32 42 19 42 C19 56.52 19 71.04 19 86 C6.346 90.601 6.346 90.601 -1.188 90.25 C-1.949 90.232 -2.71 90.214 -3.494 90.195 C-5.33 90.149 -7.165 90.077 -9 90 C-9 88.68 -9 87.36 -9 86 C-25.17 86 -41.34 86 -58 86 C-57.67 78.08 -57.34 70.16 -57 62 C-55.072 61.773 -55.072 61.773 -45.312 60.625 C-44.039 60.475 -42.765 60.325 -41.453 60.17 C-35.91 59.528 -30.37 58.923 -24.809 58.461 C-24.338 58.421 -24.338 58.421 -21.954 58.22 C-20.196 58.077 -18.437 57.944 -16.677 57.823 C-15.881 57.757 -15.085 57.692 -14.266 57.625 C-13.583 57.576 -12.9 57.527 -12.196 57.477 C-10 57 -10 57 -4 54 C-3.67 59.28 -3.34 64.56 -3 70 C-2.34 69.67 -1.68 69.34 -1 69 C-0.67 46.23 -0.34 23.46 0 0 Z " fill="#B80101" transform="translate(225,54)"/>
<path d="M0 0 C6.152 -0.098 6.152 -0.098 8 0 C8.33 0.33 8.66 0.66 9 1 C10.683 1.099 12.369 1.128 14.055 1.129 C15.133 1.133 16.21 1.136 17.321 1.139 C18.494 1.137 19.667 1.135 20.875 1.133 C22.07 1.134 23.265 1.135 24.496 1.136 C27.028 1.136 29.56 1.135 32.092 1.13 C35.983 1.125 39.874 1.13 43.766 1.137 C46.219 1.136 48.672 1.135 51.125 1.133 C52.298 1.135 53.471 1.137 54.679 1.139 C55.218 1.137 55.218 1.137 57.945 1.129 C58.422 1.129 58.422 1.129 60.836 1.127 C63 1 63 1 64 0 C66.671 -0.141 69.324 -0.042 72 0 C72 0.66 72 1.32 72 2 C73.32 2 74.64 2 76 2 C76.117 5.666 76.188 9.332 76.25 13 C76.284 14.03 76.317 15.06 76.352 16.121 C76.438 22.924 75.557 27.174 72 33 C65.889 33.097 60.057 32.753 54 32 C40.714 30.505 27.951 30.639 14.682 32.288 C9.414 32.932 4.309 33.084 -1 33 C-4.121 26.184 -4.369 20.433 -4.188 13 C-4.174 11.939 -4.16 10.878 -4.146 9.785 C-4.111 7.19 -4.062 4.595 -4 2 C-2.68 2 -1.36 2 0 2 C0 1.34 0 0.68 0 0 Z " fill="#FD0000" transform="translate(92,114)"/>
<path d="M0 0 C0.539 -0.002 0.539 -0.002 3.266 -0.01 C4.439 -0.008 5.612 -0.006 6.82 -0.003 C8.015 -0.004 9.21 -0.005 10.441 -0.006 C12.973 -0.007 15.505 -0.005 18.037 -0.001 C21.928 0.004 25.82 -0.001 29.711 -0.007 C32.164 -0.007 34.617 -0.005 37.07 -0.003 C38.243 -0.005 39.416 -0.007 40.625 -0.01 C41.702 -0.006 42.78 -0.003 43.891 0 C44.845 0.001 45.799 0.002 46.782 0.002 C48.945 0.129 48.945 0.129 49.945 1.129 C50.044 2.752 50.076 4.379 50.078 6.004 C50.079 6.497 50.079 6.497 50.082 8.989 C50.078 10.025 50.074 11.062 50.07 12.129 C50.072 12.648 50.072 12.648 50.082 15.27 C50.081 16.255 50.079 17.24 50.078 18.254 C50.077 19.164 50.076 20.075 50.075 21.012 C49.945 23.129 49.945 23.129 48.945 24.129 C47.263 24.228 45.576 24.257 43.891 24.259 C43.352 24.26 43.352 24.26 40.625 24.268 C39.452 24.266 38.279 24.264 37.07 24.262 C35.876 24.263 34.681 24.264 33.45 24.265 C30.918 24.266 28.386 24.264 25.854 24.26 C21.962 24.254 18.071 24.26 14.18 24.266 C11.727 24.265 9.273 24.264 6.82 24.262 C5.647 24.264 4.475 24.266 3.266 24.268 C2.188 24.265 1.11 24.262 0 24.259 C-0.954 24.258 -1.908 24.257 -2.891 24.256 C-5.055 24.129 -5.055 24.129 -6.055 23.129 C-6.154 21.507 -6.185 19.88 -6.188 18.254 C-6.189 17.27 -6.19 16.285 -6.191 15.27 C-6.188 14.234 -6.184 13.197 -6.18 12.129 C-6.182 11.611 -6.182 11.611 -6.191 8.989 C-6.19 8.004 -6.189 7.019 -6.188 6.004 C-6.186 5.094 -6.185 4.184 -6.184 3.247 C-5.933 -0.858 -3.559 0.003 0 0 Z " fill="#999696" transform="translate(106.0546875,91.87060546875)"/>
<path d="M0 0 C1.036 0.007 2.072 0.014 3.14 0.021 C6.442 0.049 9.742 0.112 13.043 0.176 C15.284 0.201 17.526 0.224 19.768 0.244 C25.256 0.295 30.742 0.393 36.23 0.488 C36.23 8.408 36.23 16.328 36.23 24.488 C24.909 24.032 13.638 23.289 2.355 22.238 C1.138 22.141 -0.08 22.044 -1.335 21.944 C-10.967 20.988 -10.967 20.988 -14.051 18.191 C-15.873 15.325 -16.447 13.854 -16.395 10.488 C-16.407 9.663 -16.42 8.838 -16.434 7.988 C-14.167 -0.544 -7.329 -0.189 0 0 Z " fill="#FD0000" transform="translate(51.76953125,91.51171875)"/>
<path d="M0 0 C6.603 -0.115 13.203 -0.214 19.806 -0.275 C22.051 -0.3 24.297 -0.334 26.542 -0.377 C29.772 -0.438 33 -0.466 36.23 -0.488 C37.233 -0.514 38.235 -0.54 39.268 -0.566 C46.249 -0.569 46.249 -0.569 50.132 2.374 C52.152 5.213 52.679 6.555 52.625 10 C52.638 10.825 52.651 11.65 52.664 12.5 C51.693 16.154 49.891 17.605 47 20 C43.59 20.827 43.59 20.827 39.723 21.109 C39.034 21.167 38.345 21.224 37.635 21.283 C35.445 21.46 33.255 21.606 31.062 21.75 C28.875 21.916 26.688 22.087 24.501 22.26 C22.514 22.414 20.527 22.553 18.539 22.69 C15 23 15 23 12.099 23.536 C8.108 24.134 4.036 24 0 24 C0 16.08 0 8.16 0 0 Z " fill="#FD0000" transform="translate(168,92)"/>
<path d="M0 0 C0.66 0 1.32 0 2 0 C2.128 13.381 1.764 26.638 1 40 C4.63 39.835 4.63 39.835 23 39 C23.66 36.69 24.32 34.38 25 32 C41.83 32 58.66 32 76 32 C76.165 33.98 76.165 33.98 77 44 C60.83 44 44.66 44 28 44 C28 45.32 28 46.64 28 48 C25.207 48.11 22.419 48.188 19.625 48.25 C19.238 48.267 19.238 48.267 17.277 48.352 C10.121 48.47 7.339 46.935 0 44 C0 29.48 0 14.96 0 0 Z " fill="#7B0000" transform="translate(12,96)"/>
<path d="M0 0 C0.66 0 1.32 0 2 0 C2 14.52 2 29.04 2 44 C-10.654 48.601 -10.654 48.601 -18.188 48.25 C-18.949 48.232 -19.71 48.214 -20.494 48.195 C-22.33 48.149 -24.165 48.077 -26 48 C-26 46.68 -26 45.36 -26 44 C-42.17 44 -58.34 44 -75 44 C-74.67 40.04 -74.34 36.08 -74 32 C-57.17 32 -40.34 32 -23 32 C-22.34 34.31 -21.68 36.62 -21 39 C-17.37 39.165 -17.37 39.165 1 40 C0.835 37.113 0.67 34.225 0.5 31.25 C-0.057 20.828 -0.1 10.434 0 0 Z " fill="#7B0000" transform="translate(242,96)"/>
<path d="M0 0 C5.216 2.276 10.12 5.085 15 8 C15 10.64 15 13.28 15 16 C-0.658 25.353 -0.658 25.353 -7.305 24.812 C-13.644 22.901 -19.345 19.378 -25 16 C-25 13.36 -25 10.72 -25 8 C-7.714 -2.325 -7.714 -2.325 0 0 Z " fill="#B0AEAD" transform="translate(133,64)"/>
<path d="M0 0 C3.774 -0.021 7.549 -0.041 11.438 -0.062 C12.629 -0.072 13.821 -0.081 15.049 -0.09 C15.514 -0.091 15.514 -0.091 17.871 -0.098 C18.829 -0.103 19.788 -0.108 20.775 -0.114 C23 0 23 0 24 1 C24.099 2.623 24.131 4.249 24.133 5.875 C24.133 6.367 24.133 6.367 24.137 8.859 C24.133 9.896 24.129 10.932 24.125 12 C24.127 12.518 24.127 12.518 24.137 15.141 C24.135 16.125 24.134 17.11 24.133 18.125 C24.132 19.035 24.131 19.945 24.129 20.883 C24 23 24 23 23 24 C21.292 24.087 19.581 24.107 17.871 24.098 C16.94 24.095 16.008 24.093 15.049 24.09 C14.453 24.086 14.453 24.086 11.438 24.062 C7.663 24.042 3.889 24.021 0 24 C0 16.08 0 8.16 0 0 Z " fill="#999696" transform="translate(132,92)"/>
<path d="M0 0 C5.586 0.687 11.175 1.212 16.785 1.665 C17.191 1.698 17.191 1.698 19.245 1.865 C22.396 2.117 25.547 2.364 28.7 2.597 C30.832 2.755 32.962 2.923 35.093 3.091 C35.698 3.136 35.698 3.136 38.76 3.363 C41.645 3.774 43.32 4.446 45.839 5.802 C37.422 5.451 29.005 5.094 20.588 4.732 C16.677 4.564 12.765 4.397 8.854 4.235 C-10.187 3.441 -29.17 2.447 -48.161 0.802 C-47.501 0.142 -46.841 -0.518 -46.161 -1.198 C-48.801 -1.198 -51.441 -1.198 -54.161 -1.198 C-53.996 -0.868 -53.996 -0.868 -53.161 0.802 C-87.474 2.697 -87.474 2.697 -102.161 0.802 C-102.161 0.472 -102.161 0.142 -102.161 -0.198 C-67.959 -4.71 -34.186 -4.291 0 0 Z " fill="#870C0C" transform="translate(178.16058349609375,47.19798278808594)"/>
<path d="M0 0 C0.66 0 1.32 0 2 0 C2.128 13.381 1.764 26.638 1 40 C4.63 39.835 4.63 39.835 23 39 C23.66 36.69 24.32 34.38 25 32 C25.99 32 26.98 32 28 32 C28 37.28 28 42.56 28 48 C25.207 48.11 22.419 48.188 19.625 48.25 C19.238 48.267 19.238 48.267 17.277 48.352 C10.121 48.47 7.339 46.935 0 44 C0 29.48 0 14.96 0 0 Z " fill="#410202" transform="translate(12,96)"/>
<path d="M0 0 C0.66 0 1.32 0 2 0 C2 14.52 2 29.04 2 44 C-10.647 48.599 -10.647 48.599 -18.188 48.25 C-20.766 48.167 -23.344 48.085 -26 48 C-26 42.72 -26 37.44 -26 32 C-24.68 32.33 -23.36 32.66 -22 33 C-21.67 34.98 -21.34 36.96 -21 39 C-13.74 39.33 -6.48 39.66 1 40 C0.917 38.556 0.917 38.556 0.5 31.25 C-0.057 20.828 -0.1 10.434 0 0 Z " fill="#410202" transform="translate(242,96)"/>
<path d="M0 0 C7.92 0 15.84 0 24 0 C22.857 9.143 22.857 9.143 19 13 C15.283 14.858 11.047 14.58 7 14 C3.842 11.565 2.2 9.3 0 6 C0 4.02 0 2.04 0 0 Z " fill="#B2B0AF" transform="translate(116,74)"/>
<path d="M0 0 C2.64 0 5.28 0 8 0 C8 7.92 8 15.84 8 24 C5.36 24 2.72 24 0 24 C0 16.08 0 8.16 0 0 Z " fill="#B2B0AF" transform="translate(124,92)"/>
<path d="M0 0 C0 0.33 0 0.66 0 1 C-7.92 1.33 -15.84 1.66 -24 2 C-23.835 2.33 -23.835 2.33 -23 4 C-57.314 5.895 -57.314 5.895 -72 4 C-72 3.67 -72 3.34 -72 3 C-47.952 -0.173 -24.217 -0.341 0 0 Z " fill="#8F1919" transform="translate(148,44)"/>
<path d="M0 0 C2.64 0 5.28 0 8 0 C8 6.6 8 13.2 8 20 C5.36 20 2.72 20 0 20 C0 13.4 0 6.8 0 0 Z " fill="#7D0202" transform="translate(156,94)"/>
<path d="M0 0 C2.64 0 5.28 0 8 0 C8 6.6 8 13.2 8 20 C5.36 20 2.72 20 0 20 C0 13.4 0 6.8 0 0 Z " fill="#7D0202" transform="translate(92,94)"/>
<path d="M0 0 C0.66 0 1.32 0 2 0 C2.128 13.373 1.795 26.65 1 40 C4.63 40 8.26 40 12 40 C12 42.64 12 45.28 12 48 C10.374 47.523 8.749 47.043 7.125 46.562 C6.22 46.296 5.315 46.029 4.383 45.754 C2 45 2 45 0 44 C0 29.48 0 14.96 0 0 Z " fill="#5F4747" transform="translate(12,96)"/>
<path d="M0 0 C0.66 0 1.32 0 2 0 C2 14.52 2 29.04 2 44 C-1.96 45.32 -5.92 46.64 -10 48 C-10 45.36 -10 42.72 -10 40 C-6.37 40 -2.74 40 1 40 C0.928 38.788 0.856 37.577 0.781 36.328 C0.097 24.205 -0.116 12.141 0 0 Z " fill="#5E4545" transform="translate(242,96)"/>
<path d="M0 0 C0.66 0.33 1.32 0.66 2 1 C1.67 1.866 1.34 2.733 1 3.625 C-0.03 7.102 -0.449 9.408 0 13 C2 16.375 2 16.375 4 19 C-0.827 17.587 -4.716 15.57 -9 13 C-9 10.36 -9 7.72 -9 5 C-7.547 4.136 -6.088 3.284 -4.625 2.438 C-4.219 2.2 -4.219 2.2 -2.164 0.996 C-1.45 0.667 -0.736 0.339 0 0 Z " fill="#B0ADAC" transform="translate(117,67)"/>
<path d="M0 0 C7.92 0 15.84 0 24 0 C24 1.32 24 2.64 24 4 C16.08 4 8.16 4 0 4 C0 2.68 0 1.36 0 0 Z " fill="#CACACA" transform="translate(116,74)"/>
<path d="M0 0 C0 2.64 0 5.28 0 8 C-3.96 9.98 -7.92 11.96 -12 14 C-11.34 12.68 -10.68 11.36 -10 10 C-9.698 8.632 -9.426 7.256 -9.188 5.875 C-8.695 3.773 -8.695 3.773 -8 2 C-5.072 0.198 -3.428 0 0 0 Z " fill="#B2AEAD" transform="translate(148,72)"/>
<path d="M0 0 C4.62 0 9.24 0 14 0 C13.01 0.66 12.02 1.32 11 2 C14.96 2.33 18.92 2.66 23 3 C23 3.33 23 3.66 23 4 C9.667 4 -3.667 4 -17 4 C-17 3.67 -17 3.34 -17 3 C-13.7 2.835 -13.7 2.835 3 2 C2.01 1.34 1.02 0.68 0 0 Z " fill="#A30000" transform="translate(121,45)"/>
<path d="M0 0 C2.938 0.375 2.938 0.375 6 1 C6.33 1.66 6.66 2.32 7 3 C5.185 3.825 5.185 3.825 -4 8 C-2.667 5.333 -1.333 2.667 0 0 Z " fill="#A09494" transform="translate(140,78)"/>
<path d="M0 0 C3.25 0.68 3.628 1.43 5.5 4.062 C6.246 5.219 6.98 6.383 7.688 7.562 C3.453 6.252 -0.387 4.619 -4.312 2.562 C-2.312 0.562 -2.312 0.562 0 0 Z " fill="#A09292" transform="translate(113.3125,78.4375)"/>
<path d="M0 0 C3.63 1.65 7.26 3.3 11 5 C9 7 9 7 6.625 7.438 C4 7 4 7 1.688 4.625 C0 2 0 2 0 0 Z " fill="#9F9292" transform="translate(136,66)"/>
<path d="M0 0 C0.66 0.33 1.32 0.66 2 1 C1.01 2.65 0.02 4.3 -1 6 C-3.31 5.67 -5.62 5.34 -8 5 C-5.454 2.999 -3.02 1.208 0 0 Z " fill="#9E9191" transform="translate(117,67)"/>
<path d="M0 0 C-1.02 1.52 -1.02 1.52 -3 3 C-5.671 3.055 -8.053 2.965 -10.688 2.688 C-11.389 2.626 -12.091 2.565 -12.814 2.502 C-14.544 2.349 -16.272 2.176 -18 2 C-18 1.67 -18 1.34 -18 1 C-11.964 0.307 -6.076 -0.113 0 0 Z " fill="#9F3F3F" transform="translate(74,48)"/>
</svg>
