<?xml version="1.0" encoding="UTF-8"?>
<!-- Generator: visioncortex VTracer 0.6.12 -->
<svg version="1.1" xmlns="http://www.w3.org/2000/svg" width="256" height="256">
<path d="M0 0 C1.234 -0.009 2.467 -0.017 3.739 -0.026 C5.103 -0.025 6.467 -0.024 7.832 -0.023 C9.271 -0.029 10.71 -0.036 12.149 -0.043 C16.056 -0.061 19.963 -0.066 23.87 -0.067 C26.312 -0.069 28.754 -0.073 31.195 -0.078 C39.716 -0.097 48.236 -0.105 56.756 -0.103 C64.695 -0.102 72.634 -0.123 80.573 -0.155 C87.391 -0.181 94.21 -0.192 101.029 -0.19 C105.1 -0.19 109.171 -0.195 113.243 -0.217 C117.073 -0.236 120.902 -0.236 124.732 -0.222 C126.136 -0.22 127.539 -0.224 128.943 -0.236 C142.013 -0.342 142.013 -0.342 146.979 4.267 C147.89 5.093 148.801 5.919 149.739 6.769 C150.659 7.687 151.578 8.604 152.526 9.549 C153.023 10.044 153.52 10.539 154.032 11.05 C155.073 12.089 156.112 13.132 157.148 14.176 C158.731 15.77 160.325 17.353 161.92 18.935 C162.935 19.952 163.949 20.969 164.963 21.986 C165.42 22.445 165.42 22.445 167.736 24.765 C172.041 29.567 172.27 33.394 172.246 39.718 C172.251 40.579 172.255 41.44 172.26 42.327 C172.273 45.217 172.271 48.106 172.269 50.995 C172.275 53.065 172.282 55.135 172.29 57.204 C172.307 62.83 172.312 68.456 172.313 74.082 C172.315 78.777 172.322 83.471 172.33 88.166 C172.346 99.24 172.351 110.314 172.349 121.389 C172.348 132.817 172.369 144.246 172.401 155.675 C172.427 165.483 172.438 175.291 172.436 185.1 C172.436 190.959 172.442 196.819 172.463 202.679 C172.482 208.19 172.482 213.7 172.468 219.211 C172.466 221.234 172.47 223.257 172.482 225.28 C172.498 228.041 172.489 230.801 172.473 233.562 C172.483 234.363 172.494 235.164 172.504 235.989 C172.44 241.173 171.475 244.201 167.979 248.267 C164.598 250.791 161.206 250.524 157.084 250.535 C156.391 250.539 155.697 250.544 154.983 250.549 C152.66 250.561 150.337 250.56 148.014 250.558 C146.349 250.564 144.683 250.571 143.017 250.578 C138.492 250.596 133.968 250.601 129.443 250.602 C125.665 250.604 121.888 250.611 118.111 250.618 C109.199 250.635 100.287 250.639 91.375 250.638 C82.181 250.637 72.989 250.658 63.795 250.69 C55.902 250.716 48.009 250.726 40.116 250.725 C35.402 250.725 30.688 250.73 25.974 250.751 C21.54 250.771 17.106 250.771 12.672 250.756 C11.046 250.754 9.42 250.759 7.794 250.771 C5.571 250.787 3.35 250.777 1.127 250.762 C0.506 250.762 0.506 250.762 -2.639 250.765 C-6.725 250.164 -8.857 248.889 -12.021 246.267 C-13.73 243.476 -14.272 241.391 -14.279 238.138 C-14.285 237.318 -14.291 236.499 -14.298 235.655 C-14.295 234.76 -14.292 233.865 -14.289 232.943 C-14.293 231.989 -14.298 231.034 -14.302 230.05 C-14.315 226.843 -14.314 223.635 -14.312 220.428 C-14.318 218.132 -14.325 215.836 -14.332 213.539 C-14.35 207.296 -14.355 201.052 -14.356 194.808 C-14.358 189.599 -14.365 184.39 -14.372 179.181 C-14.388 167.596 -14.394 156.011 -14.392 144.426 C-14.392 143.731 -14.392 143.036 -14.392 142.32 C-14.392 141.624 -14.392 140.928 -14.392 140.211 C-14.391 128.931 -14.41 117.651 -14.438 106.371 C-14.467 94.789 -14.48 83.206 -14.479 71.623 C-14.479 65.12 -14.484 58.618 -14.505 52.115 C-14.525 46 -14.525 39.886 -14.51 33.771 C-14.508 31.525 -14.513 29.28 -14.525 27.035 C-14.54 23.971 -14.531 20.909 -14.516 17.846 C-14.526 16.955 -14.536 16.065 -14.547 15.148 C-14.487 9.731 -13.736 6.496 -10.021 2.267 C-6.816 -0.056 -3.89 0.012 0 0 Z " fill="#E4E5E4" transform="translate(49.021331787109375,2.732574462890625)"/>
<path d="M0 0 C1.234 -0.009 2.467 -0.017 3.739 -0.026 C5.103 -0.025 6.467 -0.024 7.832 -0.023 C9.271 -0.029 10.71 -0.036 12.149 -0.043 C16.056 -0.061 19.963 -0.066 23.87 -0.067 C26.312 -0.069 28.754 -0.073 31.195 -0.078 C39.716 -0.097 48.236 -0.105 56.756 -0.103 C64.695 -0.102 72.634 -0.123 80.573 -0.155 C87.391 -0.181 94.21 -0.192 101.029 -0.19 C105.1 -0.19 109.171 -0.195 113.243 -0.217 C117.073 -0.236 120.902 -0.236 124.732 -0.222 C126.136 -0.22 127.539 -0.224 128.943 -0.236 C142.013 -0.342 142.013 -0.342 146.979 4.267 C147.89 5.093 148.801 5.919 149.739 6.769 C150.659 7.687 151.578 8.604 152.526 9.549 C153.023 10.044 153.52 10.539 154.032 11.05 C155.073 12.089 156.112 13.132 157.148 14.176 C158.731 15.77 160.325 17.353 161.92 18.935 C162.935 19.952 163.949 20.969 164.963 21.986 C165.42 22.445 165.42 22.445 167.736 24.765 C172.041 29.567 172.27 33.394 172.246 39.718 C172.251 40.579 172.255 41.44 172.26 42.327 C172.273 45.217 172.271 48.106 172.269 50.995 C172.275 53.065 172.282 55.135 172.29 57.204 C172.307 62.83 172.312 68.456 172.313 74.082 C172.315 78.777 172.322 83.471 172.33 88.166 C172.346 99.24 172.351 110.314 172.349 121.389 C172.348 132.817 172.369 144.246 172.401 155.675 C172.427 165.483 172.438 175.291 172.436 185.1 C172.436 190.959 172.442 196.819 172.463 202.679 C172.482 208.19 172.482 213.7 172.468 219.211 C172.466 221.234 172.47 223.257 172.482 225.28 C172.498 228.041 172.489 230.801 172.473 233.562 C172.483 234.363 172.494 235.164 172.504 235.989 C172.44 241.173 171.475 244.201 167.979 248.267 C164.598 250.791 161.206 250.524 157.084 250.535 C156.391 250.539 155.697 250.544 154.983 250.549 C152.66 250.561 150.337 250.56 148.014 250.558 C146.349 250.564 144.683 250.571 143.017 250.578 C138.492 250.596 133.968 250.601 129.443 250.602 C125.665 250.604 121.888 250.611 118.111 250.618 C109.199 250.635 100.287 250.639 91.375 250.638 C82.181 250.637 72.989 250.658 63.795 250.69 C55.902 250.716 48.009 250.726 40.116 250.725 C35.402 250.725 30.688 250.73 25.974 250.751 C21.54 250.771 17.106 250.771 12.672 250.756 C11.046 250.754 9.42 250.759 7.794 250.771 C5.571 250.787 3.35 250.777 1.127 250.762 C0.506 250.762 0.506 250.762 -2.639 250.765 C-6.725 250.164 -8.857 248.889 -12.021 246.267 C-13.73 243.476 -14.272 241.391 -14.279 238.138 C-14.285 237.318 -14.291 236.499 -14.298 235.655 C-14.295 234.76 -14.292 233.865 -14.289 232.943 C-14.293 231.989 -14.298 231.034 -14.302 230.05 C-14.315 226.843 -14.314 223.635 -14.312 220.428 C-14.318 218.132 -14.325 215.836 -14.332 213.539 C-14.35 207.296 -14.355 201.052 -14.356 194.808 C-14.358 189.599 -14.365 184.39 -14.372 179.181 C-14.388 167.596 -14.394 156.011 -14.392 144.426 C-14.392 143.731 -14.392 143.036 -14.392 142.32 C-14.392 141.624 -14.392 140.928 -14.392 140.211 C-14.391 128.931 -14.41 117.651 -14.438 106.371 C-14.467 94.789 -14.48 83.206 -14.479 71.623 C-14.479 65.12 -14.484 58.618 -14.505 52.115 C-14.525 46 -14.525 39.886 -14.51 33.771 C-14.508 31.525 -14.513 29.28 -14.525 27.035 C-14.54 23.971 -14.531 20.909 -14.516 17.846 C-14.526 16.955 -14.536 16.065 -14.547 15.148 C-14.487 9.731 -13.736 6.496 -10.021 2.267 C-6.816 -0.056 -3.89 0.012 0 0 Z M2.979 21.267 C2.979 87.267 2.979 153.267 2.979 221.267 C51.819 221.267 100.659 221.267 150.979 221.267 C151.744 176.643 151.744 176.643 151.906 157.855 C152.019 144.913 152.151 131.973 152.412 119.032 C152.602 109.605 152.724 100.179 152.766 90.75 C152.791 85.763 152.848 80.782 152.988 75.797 C153.897 41.813 153.897 41.813 145.582 30.757 C137.73 22.487 129.185 19.753 117.98 19.11 C113.28 19.046 108.61 19.156 103.914 19.343 C100.703 19.453 97.491 19.456 94.278 19.47 C84.947 19.569 75.619 19.834 66.291 20.08 C45.398 20.472 24.505 20.864 2.979 21.267 Z " fill="#DFE0DF" transform="translate(49.021331787109375,2.732574462890625)"/>
<path d="M0 0 C1.234 -0.009 2.467 -0.017 3.739 -0.026 C5.103 -0.025 6.467 -0.024 7.832 -0.023 C9.271 -0.029 10.71 -0.036 12.149 -0.043 C16.056 -0.061 19.963 -0.066 23.87 -0.067 C26.312 -0.069 28.754 -0.073 31.195 -0.078 C39.716 -0.097 48.236 -0.105 56.756 -0.103 C64.695 -0.102 72.634 -0.123 80.573 -0.155 C87.391 -0.181 94.21 -0.192 101.029 -0.19 C105.1 -0.19 109.171 -0.195 113.243 -0.217 C117.073 -0.236 120.902 -0.236 124.732 -0.222 C126.136 -0.22 127.539 -0.224 128.943 -0.236 C142.013 -0.342 142.013 -0.342 146.979 4.267 C147.89 5.093 148.801 5.919 149.739 6.769 C150.659 7.687 151.578 8.604 152.526 9.549 C153.023 10.044 153.52 10.539 154.032 11.05 C155.073 12.089 156.112 13.132 157.148 14.176 C158.731 15.77 160.325 17.353 161.92 18.935 C162.935 19.952 163.949 20.969 164.963 21.986 C165.42 22.445 165.42 22.445 167.736 24.765 C172.041 29.567 172.27 33.394 172.246 39.718 C172.251 40.579 172.255 41.44 172.26 42.327 C172.273 45.217 172.271 48.106 172.269 50.995 C172.275 53.065 172.282 55.135 172.29 57.204 C172.307 62.83 172.312 68.456 172.313 74.082 C172.315 78.777 172.322 83.471 172.33 88.166 C172.346 99.24 172.351 110.314 172.349 121.389 C172.348 132.817 172.369 144.246 172.401 155.675 C172.427 165.483 172.438 175.291 172.436 185.1 C172.436 190.959 172.442 196.819 172.463 202.679 C172.482 208.19 172.482 213.7 172.468 219.211 C172.466 221.234 172.47 223.257 172.482 225.28 C172.498 228.041 172.489 230.801 172.473 233.562 C172.483 234.363 172.494 235.164 172.504 235.989 C172.44 241.173 171.475 244.201 167.979 248.267 C164.598 250.791 161.206 250.524 157.084 250.535 C156.391 250.539 155.697 250.544 154.983 250.549 C152.66 250.561 150.337 250.56 148.014 250.558 C146.349 250.564 144.683 250.571 143.017 250.578 C138.492 250.596 133.968 250.601 129.443 250.602 C125.665 250.604 121.888 250.611 118.111 250.618 C109.199 250.635 100.287 250.639 91.375 250.638 C82.181 250.637 72.989 250.658 63.795 250.69 C55.902 250.716 48.009 250.726 40.116 250.725 C35.402 250.725 30.688 250.73 25.974 250.751 C21.54 250.771 17.106 250.771 12.672 250.756 C11.046 250.754 9.42 250.759 7.794 250.771 C5.571 250.787 3.35 250.777 1.127 250.762 C0.506 250.762 0.506 250.762 -2.639 250.765 C-6.725 250.164 -8.857 248.889 -12.021 246.267 C-13.73 243.476 -14.272 241.391 -14.279 238.138 C-14.285 237.318 -14.291 236.499 -14.298 235.655 C-14.295 234.76 -14.292 233.865 -14.289 232.943 C-14.293 231.989 -14.298 231.034 -14.302 230.05 C-14.315 226.843 -14.314 223.635 -14.312 220.428 C-14.318 218.132 -14.325 215.836 -14.332 213.539 C-14.35 207.296 -14.355 201.052 -14.356 194.808 C-14.358 189.599 -14.365 184.39 -14.372 179.181 C-14.388 167.596 -14.394 156.011 -14.392 144.426 C-14.392 143.731 -14.392 143.036 -14.392 142.32 C-14.392 141.624 -14.392 140.928 -14.392 140.211 C-14.391 128.931 -14.41 117.651 -14.438 106.371 C-14.467 94.789 -14.48 83.206 -14.479 71.623 C-14.479 65.12 -14.484 58.618 -14.505 52.115 C-14.525 46 -14.525 39.886 -14.51 33.771 C-14.508 31.525 -14.513 29.28 -14.525 27.035 C-14.54 23.971 -14.531 20.909 -14.516 17.846 C-14.526 16.955 -14.536 16.065 -14.547 15.148 C-14.487 9.731 -13.736 6.496 -10.021 2.267 C-6.816 -0.056 -3.89 0.012 0 0 Z M-5.021 9.267 C-5.021 85.827 -5.021 162.387 -5.021 241.267 C50.419 241.267 105.859 241.267 162.979 241.267 C163.906 189.783 163.906 189.783 164.102 168.098 C164.238 153.162 164.397 138.23 164.714 123.297 C164.944 112.418 165.092 101.541 165.143 90.659 C165.172 84.905 165.242 79.157 165.41 73.405 C166.57 32.167 166.57 32.167 154.922 19.366 C145.075 9.552 133.269 6.664 119.656 6.592 C115.856 6.628 112.064 6.774 108.267 6.938 C104.66 7.071 101.056 7.075 97.446 7.092 C86.976 7.211 76.508 7.532 66.041 7.83 C42.591 8.304 19.14 8.779 -5.021 9.267 Z " fill="#FEFEFE" transform="translate(49.021331787109375,2.732574462890625)"/>
<path d="M0 0 C55.44 0 110.88 0 168 0 C168 5.28 168 10.56 168 16 C112.56 16 57.12 16 0 16 C0 10.72 0 5.44 0 0 Z " fill="#E5E6E5" transform="translate(44,228)"/>
<path d="M0 0 C1.32 0 2.64 0 4 0 C4 48.84 4 97.68 4 148 C2.68 148 1.36 148 0 148 C0 99.16 0 50.32 0 0 Z " fill="#E5E6E5" transform="translate(44,76)"/>
<path d="M0 0 C1.32 0 2.64 0 4 0 C4 15.84 4 31.68 4 48 C2.68 48 1.36 48 0 48 C0 32.16 0 16.32 0 0 Z " fill="#E5E6E5" transform="translate(44,24)"/>
</svg>
