<?xml version="1.0" encoding="UTF-8"?>
<!-- Generator: visioncortex VTracer 0.6.12 -->
<svg version="1.1" xmlns="http://www.w3.org/2000/svg" width="256" height="256">
<path d="M0 0 C0.58 -0.004 0.58 -0.004 3.513 -0.021 C4.776 -0.019 6.039 -0.017 7.34 -0.014 C8.691 -0.018 10.042 -0.023 11.392 -0.029 C15.053 -0.043 18.714 -0.043 22.376 -0.041 C25.435 -0.04 28.494 -0.045 31.553 -0.049 C38.771 -0.061 45.989 -0.061 53.208 -0.055 C60.648 -0.049 68.089 -0.061 75.53 -0.083 C81.924 -0.1 88.318 -0.106 94.712 -0.103 C98.529 -0.101 102.345 -0.104 106.161 -0.118 C109.751 -0.13 113.34 -0.128 116.93 -0.115 C118.87 -0.112 120.811 -0.123 122.751 -0.135 C129.992 -0.091 135.102 0.162 140.45 5.511 C142.478 8.697 143.287 11.608 144.2 15.261 C144.396 15.653 144.396 15.653 145.388 17.636 C146.6 21.553 146.122 25.292 145.2 29.261 C144.87 29.756 144.87 29.756 143.2 32.261 C142.946 35.393 142.946 35.393 142.939 39.339 C142.936 40.064 142.932 40.789 142.928 41.536 C142.917 43.973 142.921 46.409 142.925 48.846 C142.921 50.59 142.916 52.335 142.91 54.079 C142.897 58.823 142.896 63.567 142.899 68.311 C142.9 72.269 142.895 76.228 142.89 80.187 C142.879 89.527 142.878 98.867 142.884 108.207 C142.89 117.844 142.878 127.481 142.857 137.117 C142.839 145.388 142.833 153.659 142.836 161.93 C142.838 166.871 142.836 171.812 142.822 176.753 C142.809 181.401 142.811 186.049 142.824 190.697 C142.827 192.403 142.824 194.108 142.816 195.813 C142.805 198.143 142.813 200.472 142.826 202.802 C142.826 204.105 142.826 205.408 142.825 206.751 C143.231 210.552 144.365 212.943 146.2 216.261 C146.345 218.71 146.345 218.71 146.013 220.948 C145.916 221.695 145.819 222.441 145.72 223.21 C145.2 225.261 145.2 225.261 143.2 228.261 C143.028 230.527 142.934 232.8 142.888 235.073 C142.426 242.918 142.426 242.918 139.95 246.011 C135.576 249.589 132 250.51 126.4 250.521 C125.82 250.525 125.82 250.525 122.887 250.543 C121.624 250.54 120.361 250.538 119.06 250.535 C117.709 250.54 116.359 250.545 115.008 250.551 C111.347 250.564 107.686 250.565 104.024 250.562 C100.965 250.561 97.906 250.566 94.847 250.571 C87.629 250.582 80.411 250.582 73.193 250.576 C65.752 250.57 58.311 250.583 50.87 250.604 C44.476 250.622 38.082 250.628 31.688 250.624 C27.871 250.622 24.055 250.625 20.239 250.639 C16.649 250.652 13.06 250.65 9.471 250.637 C7.53 250.633 5.589 250.644 3.649 250.656 C-3.55 250.613 -8.503 250.406 -13.919 245.239 C-16.557 241.061 -16.359 237.664 -16.315 232.816 C-16.322 231.861 -16.328 230.905 -16.336 229.921 C-16.354 226.716 -16.344 223.512 -16.333 220.308 C-16.34 218.011 -16.349 215.715 -16.359 213.419 C-16.382 207.179 -16.379 200.94 -16.37 194.7 C-16.365 189.493 -16.372 184.287 -16.38 179.081 C-16.398 166.097 -16.391 153.114 -16.373 140.13 C-16.359 128.857 -16.373 117.584 -16.402 106.31 C-16.432 94.732 -16.442 83.154 -16.433 71.576 C-16.428 65.076 -16.43 58.577 -16.451 52.078 C-16.469 45.967 -16.463 39.857 -16.439 33.746 C-16.434 31.502 -16.437 29.258 -16.45 27.014 C-16.466 23.953 -16.451 20.893 -16.428 17.832 C-16.44 16.943 -16.452 16.053 -16.464 15.136 C-16.402 11.003 -16.142 8.125 -13.573 4.787 C-9.175 0.78 -5.857 0.012 0 0 Z " fill="#262626" transform="translate(62.79991149902344,2.7393035888671875)"/>
<path d="M0 0 C0.58 -0.004 0.58 -0.004 3.513 -0.021 C4.776 -0.019 6.039 -0.017 7.34 -0.014 C8.691 -0.018 10.042 -0.023 11.392 -0.029 C15.053 -0.043 18.714 -0.043 22.376 -0.041 C25.435 -0.04 28.494 -0.045 31.553 -0.049 C38.771 -0.061 45.989 -0.061 53.208 -0.055 C60.648 -0.049 68.089 -0.061 75.53 -0.083 C81.924 -0.1 88.318 -0.106 94.712 -0.103 C98.529 -0.101 102.345 -0.104 106.161 -0.118 C109.751 -0.13 113.34 -0.128 116.93 -0.115 C118.87 -0.112 120.811 -0.123 122.751 -0.135 C129.992 -0.091 135.102 0.162 140.45 5.511 C142.478 8.697 143.287 11.608 144.2 15.261 C144.396 15.653 144.396 15.653 145.388 17.636 C146.6 21.553 146.122 25.292 145.2 29.261 C144.87 29.756 144.87 29.756 143.2 32.261 C142.946 35.393 142.946 35.393 142.939 39.339 C142.936 40.064 142.932 40.789 142.928 41.536 C142.917 43.973 142.921 46.409 142.925 48.846 C142.921 50.59 142.916 52.335 142.91 54.079 C142.897 58.823 142.896 63.567 142.899 68.311 C142.9 72.269 142.895 76.228 142.89 80.187 C142.879 89.527 142.878 98.867 142.884 108.207 C142.89 117.844 142.878 127.481 142.857 137.117 C142.839 145.388 142.833 153.659 142.836 161.93 C142.838 166.871 142.836 171.812 142.822 176.753 C142.809 181.401 142.811 186.049 142.824 190.697 C142.827 192.403 142.824 194.108 142.816 195.813 C142.805 198.143 142.813 200.472 142.826 202.802 C142.826 204.105 142.826 205.408 142.825 206.751 C143.231 210.552 144.365 212.943 146.2 216.261 C146.345 218.71 146.345 218.71 146.013 220.948 C145.916 221.695 145.819 222.441 145.72 223.21 C145.2 225.261 145.2 225.261 143.2 228.261 C143.028 230.527 142.934 232.8 142.888 235.073 C142.426 242.918 142.426 242.918 139.95 246.011 C135.576 249.589 132 250.51 126.4 250.521 C125.82 250.525 125.82 250.525 122.887 250.543 C121.624 250.54 120.361 250.538 119.06 250.535 C117.709 250.54 116.359 250.545 115.008 250.551 C111.347 250.564 107.686 250.565 104.024 250.562 C100.965 250.561 97.906 250.566 94.847 250.571 C87.629 250.582 80.411 250.582 73.193 250.576 C65.752 250.57 58.311 250.583 50.87 250.604 C44.476 250.622 38.082 250.628 31.688 250.624 C27.871 250.622 24.055 250.625 20.239 250.639 C16.649 250.652 13.06 250.65 9.471 250.637 C7.53 250.633 5.589 250.644 3.649 250.656 C-3.55 250.613 -8.503 250.406 -13.919 245.239 C-16.557 241.061 -16.359 237.664 -16.315 232.816 C-16.322 231.861 -16.328 230.905 -16.336 229.921 C-16.354 226.716 -16.344 223.512 -16.333 220.308 C-16.34 218.011 -16.349 215.715 -16.359 213.419 C-16.382 207.179 -16.379 200.94 -16.37 194.7 C-16.365 189.493 -16.372 184.287 -16.38 179.081 C-16.398 166.097 -16.391 153.114 -16.373 140.13 C-16.359 128.857 -16.373 117.584 -16.402 106.31 C-16.432 94.732 -16.442 83.154 -16.433 71.576 C-16.428 65.076 -16.43 58.577 -16.451 52.078 C-16.469 45.967 -16.463 39.857 -16.439 33.746 C-16.434 31.502 -16.437 29.258 -16.45 27.014 C-16.466 23.953 -16.451 20.893 -16.428 17.832 C-16.44 16.943 -16.452 16.053 -16.464 15.136 C-16.402 11.003 -16.142 8.125 -13.573 4.787 C-9.175 0.78 -5.857 0.012 0 0 Z M-6.8 10.261 C-6.9 13.217 -6.934 16.149 -6.927 19.106 C-6.928 20.045 -6.93 20.985 -6.932 21.952 C-6.936 25.126 -6.932 28.299 -6.929 31.472 C-6.931 33.736 -6.932 36.001 -6.935 38.265 C-6.939 44.434 -6.937 50.604 -6.934 56.773 C-6.932 63.213 -6.934 69.654 -6.936 76.094 C-6.938 87.606 -6.934 99.118 -6.929 110.63 C-6.925 121.078 -6.926 131.526 -6.93 141.974 C-6.936 154.092 -6.938 166.211 -6.935 178.33 C-6.933 184.75 -6.933 191.17 -6.936 197.59 C-6.939 203.625 -6.937 209.659 -6.931 215.694 C-6.93 217.915 -6.93 220.137 -6.933 222.359 C-6.935 225.378 -6.932 228.397 -6.927 231.415 C-6.929 232.307 -6.931 233.198 -6.934 234.116 C-6.914 240.147 -6.914 240.147 -5.8 241.261 C-4.018 241.359 -2.232 241.387 -0.447 241.388 C0.714 241.39 1.875 241.393 3.071 241.396 C4.356 241.394 5.642 241.392 6.966 241.39 C8.324 241.391 9.682 241.393 11.04 241.395 C14.738 241.4 18.437 241.398 22.135 241.395 C25.997 241.392 29.859 241.395 33.721 241.396 C40.207 241.398 46.694 241.396 53.181 241.391 C60.691 241.386 68.201 241.387 75.711 241.393 C82.147 241.397 88.584 241.398 95.02 241.395 C98.869 241.394 102.719 241.394 106.568 241.397 C110.186 241.4 113.804 241.398 117.422 241.392 C119.391 241.39 121.36 241.393 123.329 241.396 C123.91 241.395 123.91 241.395 126.848 241.388 C127.863 241.387 128.878 241.387 129.925 241.387 C132.2 241.261 132.2 241.261 133.2 240.261 C133.403 237.109 133.547 233.965 133.63 230.808 C133.871 225.65 133.871 225.65 135.716 223.472 C136.206 223.072 136.695 222.672 137.2 222.261 C137.575 219.261 137.575 219.261 137.2 216.261 C136.705 215.855 136.21 215.449 135.7 215.031 C133.385 212.299 133.787 209.353 133.819 205.935 C133.814 205.183 133.81 204.431 133.805 203.657 C133.793 201.13 133.802 198.604 133.812 196.077 C133.808 194.269 133.803 192.46 133.796 190.652 C133.782 185.735 133.788 180.818 133.797 175.9 C133.805 170.761 133.798 165.621 133.793 160.482 C133.787 151.85 133.795 143.218 133.809 134.586 C133.825 124.598 133.82 114.61 133.803 104.622 C133.79 96.056 133.788 87.49 133.796 78.923 C133.8 73.803 133.801 68.683 133.791 63.562 C133.783 58.749 133.789 53.936 133.806 49.123 C133.81 47.354 133.809 45.584 133.802 43.815 C133.794 41.405 133.804 38.996 133.819 36.587 C133.812 35.881 133.806 35.176 133.799 34.45 C133.857 29.666 133.857 29.666 135.7 27.49 C136.195 27.085 136.69 26.679 137.2 26.261 C137.575 23.261 137.575 23.261 137.2 20.261 C136.726 19.786 136.251 19.312 135.763 18.823 C133.325 16.385 133.569 13.583 133.2 10.261 C131.479 8.539 129.196 9.135 126.848 9.134 C125.686 9.131 124.525 9.128 123.329 9.125 C122.044 9.127 120.759 9.129 119.434 9.131 C118.076 9.13 116.718 9.128 115.36 9.126 C111.662 9.121 107.964 9.123 104.265 9.126 C100.403 9.129 96.542 9.127 92.68 9.125 C86.193 9.123 79.706 9.126 73.22 9.13 C65.71 9.136 58.2 9.134 50.69 9.128 C44.253 9.124 37.817 9.123 31.38 9.126 C27.531 9.128 23.682 9.128 19.832 9.124 C16.214 9.122 12.596 9.123 8.978 9.129 C7.009 9.131 5.04 9.128 3.071 9.125 C2.491 9.127 2.491 9.127 -0.447 9.134 C-0.955 9.134 -0.955 9.134 -3.524 9.135 C-5.8 9.261 -5.8 9.261 -6.8 10.261 Z " fill="#FAFAFA" transform="translate(62.79991149902344,2.7393035888671875)"/>
<path d="M0 0 C0.66 0 1.32 0 2 0 C2 72.27 2 144.54 2 219 C43.25 219 84.5 219 127 219 C127 219.66 127 220.32 127 221 C81.46 221 35.92 221 -11 221 C-11 220.34 -11 219.68 -11 219 C-7.37 219 -3.74 219 0 219 C0 146.73 0 74.46 0 0 Z " fill="#191919" transform="translate(68,13)"/>
</svg>
