<?xml version="1.0" encoding="UTF-8"?>
<!-- Generator: visioncortex VTracer 0.6.12 -->
<svg version="1.1" xmlns="http://www.w3.org/2000/svg" width="256" height="256">
<path d="M0 0 C1.518 -0.003 3.035 -0.006 4.553 -0.01 C8.642 -0.019 12.732 -0.021 16.821 -0.022 C19.387 -0.023 21.953 -0.025 24.518 -0.027 C33.501 -0.037 42.484 -0.041 51.466 -0.04 C59.788 -0.039 68.11 -0.05 76.431 -0.066 C83.617 -0.079 90.803 -0.084 97.989 -0.084 C102.263 -0.083 106.536 -0.086 110.809 -0.097 C169.032 -0.232 169.032 -0.232 180.527 10.145 C184.506 15.139 186.64 19.8 186.668 26.217 C186.673 27.019 186.679 27.82 186.685 28.646 C186.685 29.082 186.685 29.082 186.688 31.285 C186.693 32.209 186.698 33.133 186.703 34.085 C186.718 37.142 186.725 40.198 186.73 43.255 C186.736 45.382 186.742 47.51 186.747 49.637 C186.758 54.099 186.764 58.561 186.767 63.023 C186.773 68.731 186.797 74.438 186.825 80.145 C186.844 84.541 186.849 88.937 186.851 93.333 C186.854 95.436 186.862 97.539 186.875 99.643 C186.892 102.591 186.89 105.539 186.884 108.488 C186.893 109.351 186.902 110.213 186.911 111.102 C186.854 119.507 184.479 126.143 178.644 132.329 C161.314 147.197 127.671 146.29 106.398 146.313 C105.187 146.317 103.975 146.321 102.727 146.326 C99.478 146.334 96.23 146.336 92.982 146.334 C90.943 146.333 88.904 146.333 86.864 146.334 C67.867 146.333 48.923 145.956 29.951 144.918 C20.058 144.386 10.197 144.065 0.289 144.001 C-0.825 143.991 -1.939 143.981 -3.087 143.97 C-8.488 143.922 -13.887 143.899 -19.288 143.927 C-30.898 143.889 -40.216 143.498 -49.368 135.487 C-55.269 129.177 -58.038 121.433 -59.598 113.083 C-59.763 112.217 -59.927 111.351 -60.097 110.459 C-64.947 83.59 -71.146 40.008 -55.856 15.559 C-48.739 6.67 -38.526 2.56 -27.473 1.145 C-18.314 0.144 -9.205 -0.004 0 0 Z " fill="#353535" transform="translate(66.472900390625,54.854736328125)"/>
<path d="M0 0 C1.077 -0.006 2.154 -0.012 3.264 -0.019 C3.847 -0.014 3.847 -0.014 6.798 0.009 C8.018 0.009 9.238 0.008 10.495 0.008 C13.093 0.01 15.691 0.02 18.288 0.036 C22.168 0.059 26.047 0.057 29.927 0.05 C46.252 0.069 62.381 0.882 78.634 2.372 C80.136 2.501 81.639 2.628 83.141 2.753 C86.663 3.056 90.179 3.394 93.697 3.747 C94.268 3.798 94.268 3.798 97.16 4.052 C110.459 5.403 110.459 5.403 115.634 9.372 C119.996 15.337 120.951 23.403 122.322 30.497 C122.534 31.543 122.746 32.588 122.964 33.665 C126.826 52.939 127.669 72.48 121.634 91.372 C121.472 91.892 121.472 91.892 120.654 94.525 C118.516 100.605 118.516 100.605 115.689 103.064 C111.117 105.022 106.627 105.137 101.697 105.435 C100.61 105.51 99.523 105.585 98.404 105.663 C96.054 105.824 93.704 105.979 91.354 106.13 C87.538 106.379 83.725 106.656 79.912 106.939 C66.802 107.892 53.782 108.719 40.634 108.372 C40.634 105.072 40.634 101.772 40.634 98.372 C27.434 98.702 14.234 99.032 0.634 99.372 C0.304 102.342 -0.026 105.312 -0.366 108.372 C-3.053 108.747 -3.053 108.747 -6.366 108.372 C-11.708 103.438 -12.973 97.921 -14.616 90.997 C-14.871 89.994 -15.126 88.992 -15.389 87.958 C-20.897 65.809 -21.073 38.314 -14.366 16.372 C-14.163 15.705 -13.959 15.038 -13.75 14.351 C-9.188 -0.006 -9.188 -0.006 0 0 Z " fill="#8C8C8C" transform="translate(83.36572265625,71.627685546875)"/>
<path d="M0 0 C1.077 -0.006 2.154 -0.012 3.264 -0.019 C3.847 -0.014 3.847 -0.014 6.798 0.009 C8.018 0.009 9.238 0.008 10.495 0.008 C13.093 0.01 15.691 0.02 18.288 0.036 C22.168 0.059 26.047 0.057 29.927 0.05 C46.252 0.069 62.381 0.882 78.634 2.372 C80.136 2.501 81.639 2.628 83.141 2.753 C86.663 3.056 90.179 3.394 93.697 3.747 C94.268 3.798 94.268 3.798 97.16 4.052 C110.459 5.403 110.459 5.403 115.634 9.372 C119.996 15.337 120.951 23.403 122.322 30.497 C122.534 31.543 122.746 32.588 122.964 33.665 C126.826 52.939 127.669 72.48 121.634 91.372 C121.472 91.892 121.472 91.892 120.654 94.525 C118.516 100.605 118.516 100.605 115.689 103.064 C111.117 105.022 106.627 105.137 101.697 105.435 C100.61 105.51 99.523 105.585 98.404 105.663 C96.054 105.824 93.704 105.979 91.354 106.13 C87.538 106.379 83.725 106.656 79.912 106.939 C66.802 107.892 53.782 108.719 40.634 108.372 C40.634 105.072 40.634 101.772 40.634 98.372 C27.434 98.702 14.234 99.032 0.634 99.372 C0.304 102.342 -0.026 105.312 -0.366 108.372 C-3.053 108.747 -3.053 108.747 -6.366 108.372 C-11.708 103.438 -12.973 97.921 -14.616 90.997 C-14.871 89.994 -15.126 88.992 -15.389 87.958 C-20.897 65.809 -21.073 38.314 -14.366 16.372 C-14.163 15.705 -13.959 15.038 -13.75 14.351 C-9.188 -0.006 -9.188 -0.006 0 0 Z M-3.366 20.372 C-3.366 42.812 -3.366 65.252 -3.366 88.372 C32.274 88.372 67.914 88.372 104.634 88.372 C104.634 65.932 104.634 43.492 104.634 20.372 C68.994 20.372 33.354 20.372 -3.366 20.372 Z " fill="#D4D4D8" transform="translate(83.36572265625,71.627685546875)"/>
<path d="M0 0 C1.518 -0.003 3.035 -0.006 4.553 -0.01 C8.642 -0.019 12.732 -0.021 16.821 -0.022 C19.387 -0.023 21.953 -0.025 24.518 -0.027 C33.501 -0.037 42.484 -0.041 51.466 -0.04 C59.788 -0.039 68.11 -0.05 76.431 -0.066 C83.617 -0.079 90.803 -0.084 97.989 -0.084 C102.263 -0.083 106.536 -0.086 110.809 -0.097 C169.032 -0.232 169.032 -0.232 180.527 10.145 C184.506 15.139 186.64 19.8 186.668 26.217 C186.673 27.019 186.679 27.82 186.685 28.646 C186.685 29.082 186.685 29.082 186.688 31.285 C186.693 32.209 186.698 33.133 186.703 34.085 C186.718 37.142 186.725 40.198 186.73 43.255 C186.736 45.382 186.742 47.51 186.747 49.637 C186.758 54.099 186.764 58.561 186.767 63.023 C186.773 68.731 186.797 74.438 186.825 80.145 C186.844 84.541 186.849 88.937 186.851 93.333 C186.854 95.436 186.862 97.539 186.875 99.643 C186.892 102.591 186.89 105.539 186.884 108.488 C186.893 109.351 186.902 110.213 186.911 111.102 C186.854 119.507 184.479 126.143 178.644 132.329 C161.314 147.197 127.671 146.29 106.398 146.313 C105.187 146.317 103.975 146.321 102.727 146.326 C99.478 146.334 96.23 146.336 92.982 146.334 C90.943 146.333 88.904 146.333 86.864 146.334 C67.867 146.333 48.923 145.956 29.951 144.918 C20.058 144.386 10.197 144.065 0.289 144.001 C-0.825 143.991 -1.939 143.981 -3.087 143.97 C-8.488 143.922 -13.887 143.899 -19.288 143.927 C-30.898 143.889 -40.216 143.498 -49.368 135.487 C-55.269 129.177 -58.038 121.433 -59.598 113.083 C-59.763 112.217 -59.927 111.351 -60.097 110.459 C-64.947 83.59 -71.146 40.008 -55.856 15.559 C-48.739 6.67 -38.526 2.56 -27.473 1.145 C-18.314 0.144 -9.205 -0.004 0 0 Z M-47.785 19.52 C-55.706 31.842 -54.796 46.819 -54.734 60.936 C-54.723 63.81 -54.734 66.683 -54.746 69.557 C-54.78 114.555 -54.78 114.555 -44.473 128.145 C-37.231 135.387 -29.44 135.595 -19.735 135.622 C-18.5 135.637 -17.265 135.653 -15.993 135.669 C-12.049 135.716 -8.105 135.744 -4.16 135.77 C-0.255 135.807 3.649 135.848 7.554 135.893 C9.978 135.92 12.401 135.941 14.824 135.956 C21.292 136.015 27.721 136.249 34.175 136.646 C43.904 137.233 53.614 137.327 63.359 137.348 C64.265 137.351 65.171 137.354 66.105 137.357 C70.895 137.372 75.685 137.381 80.475 137.385 C85.349 137.391 90.222 137.415 95.096 137.443 C98.913 137.462 102.731 137.467 106.548 137.469 C108.342 137.472 110.136 137.48 111.93 137.493 C128.528 137.608 145.701 136.552 161.527 131.145 C162.418 130.859 163.309 130.573 164.226 130.278 C170.703 127.99 174.385 125.429 177.527 119.145 C177.636 116.09 177.684 113.057 177.688 110.001 C177.693 109.053 177.698 108.105 177.703 107.128 C177.718 103.982 177.725 100.835 177.73 97.688 C177.736 95.506 177.742 93.324 177.747 91.141 C177.758 86.56 177.764 81.98 177.767 77.399 C177.773 71.528 177.797 65.656 177.825 59.785 C177.844 55.275 177.849 50.765 177.851 46.256 C177.854 44.091 177.862 41.927 177.875 39.762 C177.892 36.734 177.89 33.706 177.884 30.677 C177.888 30.23 177.888 30.23 177.911 27.964 C177.879 23.19 177.619 20.032 174.527 16.145 C163.385 7.352 142.339 8.7 128.879 8.757 C127.213 8.753 125.546 8.748 123.88 8.741 C119.419 8.728 114.959 8.733 110.499 8.742 C105.798 8.75 101.097 8.743 96.396 8.738 C88.513 8.733 80.631 8.74 72.749 8.754 C63.667 8.771 54.586 8.765 45.505 8.749 C37.664 8.735 29.823 8.733 21.982 8.741 C17.318 8.746 12.654 8.746 7.989 8.736 C3.608 8.728 -0.774 8.734 -5.155 8.751 C-6.753 8.755 -8.35 8.754 -9.948 8.747 C-23.63 8.695 -37.696 9.158 -47.785 19.52 Z " fill="#FBFBFB" transform="translate(66.472900390625,54.854736328125)"/>
<path d="M0 0 C3.857 0.22 5.016 1.015 7.875 3.75 C10 7 10 7 9.938 9.75 C9 12 9 12 7 14 C4.723 14.266 4.723 14.266 2.062 14.25 C1.187 14.255 0.312 14.26 -0.59 14.266 C-3 14 -3 14 -6 12 C-6.562 9.812 -6.562 9.812 -6 7 C-4.193 4.476 -2.158 2.228 0 0 Z " fill="#E2E4E5" transform="translate(40,162)"/>
<path d="M0 0 C3.857 0.22 5.016 1.015 7.875 3.75 C10 7 10 7 9.938 9.75 C9 12 9 12 7 14 C4.723 14.266 4.723 14.266 2.062 14.25 C1.187 14.255 0.312 14.26 -0.59 14.266 C-3 14 -3 14 -6 12 C-6.562 9.812 -6.562 9.812 -6 7 C-4.193 4.476 -2.158 2.228 0 0 Z " fill="#E2E4E5" transform="translate(216,158)"/>
<path d="M0 0 C2.188 0.562 2.188 0.562 4.188 3.562 C4.784 7.771 4.856 11.42 2.688 15.125 C2.193 15.599 1.697 16.074 1.188 16.562 C-3.87 16.116 -6.319 14.056 -9.812 10.562 C-9.812 6.562 -9.812 6.562 -8.457 4.859 C-3.54 0.708 -3.54 0.708 0 0 Z " fill="#E2E5E6" transform="translate(55.8125,149.4375)"/>
<path d="M0 0 C2.188 0.562 2.188 0.562 4.188 3.562 C4.784 7.771 4.856 11.42 2.688 15.125 C2.192 15.599 1.697 16.074 1.188 16.562 C-3.87 16.116 -6.319 14.056 -9.812 10.562 C-9.812 6.562 -9.812 6.562 -8.457 4.859 C-3.54 0.708 -3.54 0.708 0 0 Z " fill="#E2E5E6" transform="translate(231.8125,145.4375)"/>
<path d="M0 0 C3.857 0.22 5.016 1.015 7.875 3.75 C10 7 10 7 10 9.75 C9 12 9 12 6 14 C3.844 14.266 3.844 14.266 1.5 14.25 C1.113 14.253 1.113 14.253 -0.844 14.266 C-3 14 -3 14 -6 12 C-6.562 9.812 -6.562 9.812 -6 7 C-4.193 4.476 -2.158 2.228 0 0 Z " fill="#E2E5E6" transform="translate(40,98)"/>
<path d="M0 0 C2.188 0.562 2.188 0.562 4.188 3.562 C4.784 7.771 4.856 11.42 2.688 15.125 C2.193 15.599 1.697 16.074 1.188 16.562 C-3.87 16.116 -6.319 14.056 -9.812 10.562 C-9.812 6.562 -9.812 6.562 -8.457 4.859 C-3.54 0.708 -3.54 0.708 0 0 Z " fill="#E2E5E6" transform="translate(55.8125,85.4375)"/>
<path d="M0 0 C3.766 1.401 5.832 3.145 8.688 6 C8.688 10 8.688 10 7.332 11.703 C2.415 15.854 2.415 15.854 -1.125 16.562 C-3.312 16 -3.312 16 -5.312 13 C-5.613 10.625 -5.613 10.625 -5.625 8 C-5.642 7.134 -5.659 6.267 -5.676 5.375 C-5.312 3 -5.312 3 -3.938 1.188 C-2.312 0 -2.312 0 0 0 Z " fill="#E2E5E6" transform="translate(29.3125,86)"/>
<path d="M0 0 C3.641 1.355 5.814 3.394 8.688 6 C7.84 10.642 5.416 13.23 1.688 16 C-1.062 16.562 -1.062 16.562 -3.312 16 C-5.458 12.782 -5.608 11.732 -5.625 8 C-5.642 7.134 -5.659 6.268 -5.676 5.375 C-5.312 3 -5.312 3 -3.938 1.188 C-2.312 0 -2.312 0 0 0 Z " fill="#E3E6E7" transform="translate(29.3125,150)"/>
<path d="M0 0 C2.562 1.5 2.562 1.5 4 3 C3.554 8.057 1.494 10.506 -2 14 C-6 14 -6 14 -7.703 12.645 C-11.854 7.728 -11.854 7.728 -12.562 4.188 C-11.103 -1.486 -4.665 -0.581 0 0 Z " fill="#E3E6E7" transform="translate(46,140)"/>
<path d="M0 0 C2.562 1.5 2.562 1.5 4 3 C3.554 8.057 1.494 10.506 -2 14 C-6 14 -6 14 -7.703 12.645 C-11.854 7.728 -11.854 7.728 -12.562 4.188 C-11.103 -1.486 -4.665 -0.581 0 0 Z " fill="#E3E6E7" transform="translate(46,76)"/>
<path d="M0 0 C3.3 0 6.6 0 10 0 C10 1.32 10 2.64 10 4 C6.7 4 3.4 4 0 4 C0 2.68 0 1.36 0 0 Z " fill="#DEE0E1" transform="translate(109,176)"/>
<path d="M0 0 C3.3 0 6.6 0 10 0 C10 1.32 10 2.64 10 4 C6.7 4 3.4 4 0 4 C0 2.68 0 1.36 0 0 Z " fill="#DEE0E1" transform="translate(89,176)"/>
</svg>
