<?xml version="1.0" encoding="UTF-8"?>
<!-- Generator: visioncortex VTracer 0.6.12 -->
<svg version="1.1" xmlns="http://www.w3.org/2000/svg" width="256" height="256">
<path d="M0 0 C1.471 -0.005 2.941 -0.01 4.412 -0.015 C8.361 -0.028 12.31 -0.035 16.259 -0.039 C18.741 -0.042 21.223 -0.046 23.706 -0.051 C31.516 -0.064 39.326 -0.074 47.137 -0.078 C56.071 -0.082 65.005 -0.1 73.94 -0.129 C80.901 -0.151 87.862 -0.16 94.823 -0.162 C98.955 -0.163 103.087 -0.168 107.219 -0.187 C136.642 -0.308 136.642 -0.308 151.213 1.432 C152.139 1.54 153.065 1.648 154.019 1.759 C163.333 3.059 172.238 5.964 178.633 13.161 C181.455 17.864 182.752 22.011 182.773 27.461 C182.779 28.313 182.785 29.165 182.791 30.043 C182.791 30.506 182.791 30.506 182.794 32.852 C182.799 33.834 182.804 34.817 182.809 35.829 C182.824 39.08 182.831 42.332 182.836 45.583 C182.842 47.845 182.848 50.107 182.853 52.369 C182.864 57.113 182.87 61.858 182.873 66.603 C182.879 72.673 182.903 78.743 182.931 84.814 C182.95 89.488 182.955 94.161 182.957 98.835 C182.96 101.073 182.968 103.31 182.981 105.548 C182.998 108.683 182.996 111.818 182.99 114.953 C182.999 115.872 183.008 116.791 183.017 117.737 C182.962 126.266 180.764 132.981 174.817 139.274 C160.469 151.672 139.315 150.672 121.508 150.536 C120.496 150.533 119.484 150.531 118.441 150.528 C101.577 150.477 84.87 149.575 68.082 148.019 C56.654 146.972 45.586 146.769 34.172 148.229 C20.058 150.015 6.003 150.514 -8.216 150.583 C-10.339 150.593 -12.461 150.61 -14.583 150.634 C-43.088 150.918 -43.088 150.918 -53.726 141.821 C-69.927 125.428 -67.569 89.096 -67.554 67.911 C-67.554 67.242 -67.554 66.572 -67.554 65.882 C-67.478 25.223 -67.478 25.223 -55.367 11.161 C-40.126 -1.496 -18.742 0.014 0 0 Z " fill="#364F9E" transform="translate(70.366943359375,50.8388671875)"/>
<path d="M0 0 C1.077 -0.006 2.154 -0.012 3.264 -0.019 C3.847 -0.014 3.847 -0.014 6.798 0.009 C8.018 0.009 9.238 0.008 10.495 0.008 C13.093 0.01 15.691 0.02 18.288 0.036 C22.168 0.059 26.047 0.057 29.927 0.05 C46.252 0.069 62.381 0.882 78.634 2.372 C80.136 2.501 81.639 2.628 83.141 2.753 C86.663 3.056 90.179 3.394 93.697 3.747 C94.268 3.798 94.268 3.798 97.16 4.052 C110.462 5.403 110.462 5.403 115.634 9.372 C119.949 15.294 120.945 23.273 122.322 30.31 C122.534 31.33 122.746 32.35 122.964 33.402 C126.877 52.743 127.517 72.411 121.634 91.372 C121.472 91.894 121.472 91.894 120.654 94.536 C118.489 100.667 118.489 100.667 115.761 102.917 C111.093 105.089 106.479 105.192 101.384 105.54 C100.293 105.625 99.203 105.709 98.079 105.796 C94.598 106.063 91.116 106.311 87.634 106.56 C85.29 106.738 82.947 106.917 80.603 107.097 C76.307 107.422 72.01 107.745 67.712 108.053 C66.85 108.115 65.988 108.177 65.1 108.241 C62.606 108.374 60.131 108.395 57.634 108.372 C57.304 107.217 57.304 107.217 55.634 101.372 C53.009 101.292 50.386 101.232 47.759 101.185 C47.013 101.16 46.267 101.135 45.498 101.109 C43.33 101.079 43.33 101.079 39.634 101.372 C38.974 102.362 38.314 103.352 37.634 104.372 C36.644 104.042 35.654 103.712 34.634 103.372 C34.304 102.712 33.974 102.052 33.634 101.372 C23.074 101.372 12.514 101.372 1.634 101.372 C0.974 103.682 0.314 105.992 -0.366 108.372 C-3.053 108.747 -3.053 108.747 -6.366 108.372 C-11.708 103.438 -12.973 97.921 -14.616 90.997 C-14.871 89.994 -15.126 88.992 -15.389 87.958 C-20.897 65.809 -21.073 38.314 -14.366 16.372 C-14.163 15.705 -13.959 15.038 -13.75 14.351 C-9.188 -0.006 -9.188 -0.006 0 0 Z " fill="#8C8C8C" transform="translate(83.36572265625,71.627685546875)"/>
<path d="M0 0 C1.077 -0.006 2.154 -0.012 3.264 -0.019 C3.847 -0.014 3.847 -0.014 6.798 0.009 C8.018 0.009 9.238 0.008 10.495 0.008 C13.093 0.01 15.691 0.02 18.288 0.036 C22.168 0.059 26.047 0.057 29.927 0.05 C46.252 0.069 62.381 0.882 78.634 2.372 C80.136 2.501 81.639 2.628 83.141 2.753 C86.663 3.056 90.179 3.394 93.697 3.747 C94.268 3.798 94.268 3.798 97.16 4.052 C110.462 5.403 110.462 5.403 115.634 9.372 C119.949 15.294 120.945 23.273 122.322 30.31 C122.534 31.33 122.746 32.35 122.964 33.402 C126.877 52.743 127.517 72.411 121.634 91.372 C121.472 91.894 121.472 91.894 120.654 94.536 C118.489 100.667 118.489 100.667 115.761 102.917 C111.093 105.089 106.479 105.192 101.384 105.54 C100.293 105.625 99.203 105.709 98.079 105.796 C94.598 106.063 91.116 106.311 87.634 106.56 C85.29 106.738 82.947 106.917 80.603 107.097 C76.307 107.422 72.01 107.745 67.712 108.053 C66.85 108.115 65.988 108.177 65.1 108.241 C62.606 108.374 60.131 108.395 57.634 108.372 C57.304 107.217 57.304 107.217 55.634 101.372 C53.009 101.292 50.386 101.232 47.759 101.185 C47.013 101.16 46.267 101.135 45.498 101.109 C43.33 101.079 43.33 101.079 39.634 101.372 C38.974 102.362 38.314 103.352 37.634 104.372 C36.644 104.042 35.654 103.712 34.634 103.372 C34.304 102.712 33.974 102.052 33.634 101.372 C23.074 101.372 12.514 101.372 1.634 101.372 C0.974 103.682 0.314 105.992 -0.366 108.372 C-3.053 108.747 -3.053 108.747 -6.366 108.372 C-11.708 103.438 -12.973 97.921 -14.616 90.997 C-14.871 89.994 -15.126 88.992 -15.389 87.958 C-20.897 65.809 -21.073 38.314 -14.366 16.372 C-14.163 15.705 -13.959 15.038 -13.75 14.351 C-9.188 -0.006 -9.188 -0.006 0 0 Z M-3.366 20.372 C-3.366 42.812 -3.366 65.252 -3.366 88.372 C32.274 88.372 67.914 88.372 104.634 88.372 C104.634 65.932 104.634 43.492 104.634 20.372 C68.994 20.372 33.354 20.372 -3.366 20.372 Z " fill="#D5D5DA" transform="translate(83.36572265625,71.627685546875)"/>
<path d="M0 0 C1.471 -0.005 2.941 -0.01 4.412 -0.015 C8.361 -0.028 12.31 -0.035 16.259 -0.039 C18.741 -0.042 21.223 -0.046 23.706 -0.051 C31.516 -0.064 39.326 -0.074 47.137 -0.078 C56.071 -0.082 65.005 -0.1 73.94 -0.129 C80.901 -0.151 87.862 -0.16 94.823 -0.162 C98.955 -0.163 103.087 -0.168 107.219 -0.187 C136.642 -0.308 136.642 -0.308 151.213 1.432 C152.139 1.54 153.065 1.648 154.019 1.759 C163.333 3.059 172.238 5.964 178.633 13.161 C181.455 17.864 182.752 22.011 182.773 27.461 C182.779 28.313 182.785 29.165 182.791 30.043 C182.791 30.506 182.791 30.506 182.794 32.852 C182.799 33.834 182.804 34.817 182.809 35.829 C182.824 39.08 182.831 42.332 182.836 45.583 C182.842 47.845 182.848 50.107 182.853 52.369 C182.864 57.113 182.87 61.858 182.873 66.603 C182.879 72.673 182.903 78.743 182.931 84.814 C182.95 89.488 182.955 94.161 182.957 98.835 C182.96 101.073 182.968 103.31 182.981 105.548 C182.998 108.683 182.996 111.818 182.99 114.953 C182.999 115.872 183.008 116.791 183.017 117.737 C182.962 126.266 180.764 132.981 174.817 139.274 C160.469 151.672 139.315 150.672 121.508 150.536 C120.496 150.533 119.484 150.531 118.441 150.528 C101.577 150.477 84.87 149.575 68.082 148.019 C56.654 146.972 45.586 146.769 34.172 148.229 C20.058 150.015 6.003 150.514 -8.216 150.583 C-10.339 150.593 -12.461 150.61 -14.583 150.634 C-43.088 150.918 -43.088 150.918 -53.726 141.821 C-69.927 125.428 -67.569 89.096 -67.554 67.911 C-67.554 67.242 -67.554 66.572 -67.554 65.882 C-67.478 25.223 -67.478 25.223 -55.367 11.161 C-40.126 -1.496 -18.742 0.014 0 0 Z M-49.804 17.786 C-53.859 22.199 -55.141 26.407 -56.367 32.161 C-56.545 32.871 -56.722 33.58 -56.906 34.312 C-59.139 44.342 -58.672 54.633 -58.617 64.849 C-58.614 65.853 -58.611 66.858 -58.608 67.893 C-58.399 125.187 -58.399 125.187 -47.367 136.161 C-42.217 139.646 -36.965 141.277 -30.767 141.306 C-30.312 141.31 -30.312 141.31 -28.006 141.325 C-27.514 141.326 -27.514 141.326 -25.023 141.329 C-24.509 141.331 -24.509 141.331 -21.905 141.341 C-18.559 141.351 -15.213 141.351 -11.867 141.349 C-11.299 141.349 -11.299 141.349 -8.426 141.351 C6.781 141.35 21.778 140.909 36.93 139.614 C48.391 138.643 59.714 138.851 71.162 139.882 C86.046 141.204 100.853 141.47 115.79 141.422 C119.145 141.413 122.499 141.417 125.854 141.429 C129.116 141.438 132.379 141.432 135.641 141.427 C136.236 141.429 136.236 141.429 139.246 141.439 C151.287 141.371 162.852 138.942 171.633 130.161 C174.29 125.423 173.922 120.496 173.908 115.218 C173.913 114.22 173.918 113.223 173.923 112.196 C173.937 108.903 173.936 105.61 173.934 102.317 C173.938 100.027 173.942 97.737 173.947 95.447 C173.954 90.649 173.954 85.85 173.949 81.052 C173.943 74.902 173.96 68.752 173.983 62.601 C173.998 57.873 173.999 53.144 173.996 48.416 C173.996 46.148 174.001 43.88 174.011 41.612 C174.024 38.443 174.017 35.274 174.005 32.104 C174.013 31.167 174.021 30.23 174.029 29.264 C173.989 24.401 173.809 21.101 170.633 17.161 C159.787 7.195 139.351 9.012 125.548 9.032 C123.929 9.03 122.31 9.029 120.691 9.026 C116.315 9.022 111.939 9.024 107.563 9.027 C102.969 9.029 98.375 9.027 93.781 9.025 C86.066 9.024 78.351 9.026 70.635 9.031 C61.737 9.036 52.839 9.034 43.941 9.029 C36.281 9.024 28.621 9.024 20.961 9.026 C16.395 9.028 11.83 9.028 7.264 9.025 C2.967 9.022 -1.329 9.024 -5.625 9.03 C-7.194 9.031 -8.763 9.031 -10.332 9.028 C-40.067 8.99 -40.067 8.99 -49.804 17.786 Z " fill="#FBFBFC" transform="translate(70.366943359375,50.8388671875)"/>
<path d="M0 0 C1.605 -0.005 3.209 -0.01 4.814 -0.015 C9.145 -0.028 13.476 -0.035 17.807 -0.039 C20.524 -0.042 23.241 -0.046 25.957 -0.051 C34.489 -0.064 43.02 -0.074 51.551 -0.078 C61.341 -0.082 71.13 -0.1 80.92 -0.129 C88.525 -0.151 96.131 -0.16 103.736 -0.162 C108.261 -0.163 112.785 -0.169 117.309 -0.187 C169.112 -0.381 169.112 -0.381 179.498 8.604 C181.825 11.323 181.957 13.969 181.971 17.392 C181.976 18.254 181.982 19.116 181.988 20.004 C181.989 20.476 181.989 20.476 181.991 22.862 C181.996 23.857 182.001 24.852 182.007 25.878 C182.021 29.177 182.028 32.476 182.033 35.774 C182.039 38.065 182.045 40.356 182.051 42.646 C182.061 47.452 182.067 52.258 182.071 57.064 C182.076 63.221 182.1 69.378 182.129 75.535 C182.147 80.268 182.152 85.001 182.154 89.734 C182.157 92.004 182.165 94.274 182.178 96.543 C182.195 99.72 182.193 102.896 182.187 106.073 C182.196 107.009 182.205 107.946 182.215 108.911 C182.176 114.915 181.467 119.478 177.069 123.954 C168.923 129.853 161.164 132.267 151.054 132.306 C149.937 132.313 148.82 132.319 147.669 132.326 C147.07 132.326 147.07 132.326 144.033 132.329 C142.772 132.332 141.51 132.336 140.21 132.339 C137.531 132.344 134.851 132.347 132.171 132.346 C128.164 132.346 124.158 132.367 120.151 132.386 C105.481 132.417 90.995 131.938 76.384 130.616 C64.875 129.597 53.499 129.897 42.001 130.882 C28.01 132.067 14.085 132.41 0.045 132.461 C-2.21 132.469 -4.465 132.483 -6.72 132.502 C-9.926 132.526 -13.131 132.528 -16.338 132.524 C-17.296 132.534 -18.254 132.543 -19.242 132.552 C-26.512 132.503 -32.704 131.241 -38.982 127.474 C-53.717 111.897 -50.375 79.214 -50.521 59.33 C-50.537 57.373 -50.558 55.415 -50.587 53.458 C-50.719 43.306 -50.417 33.552 -48.357 23.583 C-48.196 22.804 -48.036 22.024 -47.87 21.221 C-46.475 15.185 -44.169 10.984 -39.17 7.161 C-38.159 6.377 -37.148 5.594 -36.107 4.786 C-25.209 -1.243 -12.11 0.008 0 0 Z M-39.83 13.911 C-43.753 19.401 -44.479 25.589 -45.17 32.161 C-45.257 32.932 -45.343 33.703 -45.433 34.498 C-46.226 42.142 -46.325 49.73 -46.295 57.411 C-46.29 58.699 -46.285 59.986 -46.28 61.313 C-46.203 73.484 -45.743 85.134 -43.357 97.099 C-43.204 97.881 -43.051 98.663 -42.893 99.468 C-41.451 106.144 -39.274 113.085 -33.795 117.536 C-33.251 117.998 -32.707 118.459 -32.146 118.935 C-26.062 122.71 -19.67 122.554 -12.732 122.724 C-12.136 122.741 -12.136 122.741 -9.119 122.831 C-5.612 122.93 -2.105 123.019 1.402 123.103 C3.994 123.165 6.587 123.231 9.179 123.298 C81.235 125.131 81.235 125.131 105.83 123.161 C106.99 123.07 108.149 122.978 109.344 122.884 C161.953 118.59 161.953 118.59 173.83 108.161 C177.582 102.594 178.439 97.576 178.268 90.974 C178.275 90.193 178.282 89.413 178.289 88.608 C178.238 83.983 177.819 80.894 174.83 77.161 C172.858 75.36 172.858 75.36 170.768 73.849 C170.076 73.337 169.383 72.825 168.67 72.298 C166.83 71.161 166.83 71.161 164.83 71.161 C162.799 66.941 162.566 63.428 162.522 58.771 C162.497 57.324 162.471 55.877 162.446 54.431 C162.417 52.175 162.393 49.92 162.374 47.665 C162.266 36.876 162.121 26.91 154.83 18.161 C149.271 14.519 143.343 14.234 136.893 13.599 C135.705 13.474 134.517 13.35 133.293 13.222 C123.232 12.21 113.159 11.533 103.067 10.928 C93.769 10.369 84.489 9.684 75.207 8.915 C72.884 8.723 70.561 8.533 68.239 8.344 C61.749 7.814 55.26 7.283 48.772 6.733 C31.55 5.279 14.373 3.895 -2.92 3.849 C-4.096 3.843 -5.272 3.838 -6.484 3.832 C-18.636 3.934 -30.976 4.578 -39.83 13.911 Z " fill="#293C7B" transform="translate(62.169677734375,59.8388671875)"/>
<path d="M0 0 C3.968 1.417 6.994 4.131 10 7 C10 11 10 11 8.645 12.703 C3.655 16.916 3.655 16.916 0.062 17.375 C-0.618 17.251 -1.299 17.127 -2 17 C-4.339 13.345 -4.299 10.265 -4 6 C-3.125 3.125 -3.125 3.125 -2 1 C-1.34 0.67 -0.68 0.34 0 0 Z " fill="#495CA6" transform="translate(28,149)"/>
<path d="M0 0 C2.496 3.744 2.615 7.651 2 12 C0.5 14.5 0.5 14.5 -1 16 C-6.04 15.555 -8.376 13.287 -12 10 C-11.78 6.15 -11.009 5.01 -8.25 2.188 C-4.992 -0.005 -3.793 -0.558 0 0 Z " fill="#495CA6" transform="translate(58,150)"/>
<path d="M0 0 C2.496 3.744 2.615 7.651 2 12 C0.5 14.5 0.5 14.5 -1 16 C-6.04 15.555 -8.376 13.287 -12 10 C-11.78 6.15 -11.009 5.01 -8.25 2.188 C-4.992 -0.005 -3.793 -0.558 0 0 Z " fill="#495CA6" transform="translate(234,146)"/>
<path d="M0 0 C2.496 3.744 2.615 7.651 2 12 C0.5 14.5 0.5 14.5 -1 16 C-6.04 15.555 -8.376 13.287 -12 10 C-11.78 6.15 -11.009 5.01 -8.25 2.188 C-4.992 -0.005 -3.793 -0.558 0 0 Z " fill="#495CA6" transform="translate(58,86)"/>
<path d="M0 0 C2.507 1.955 4.352 4.288 6 7 C6.125 9.812 6.125 9.812 5 12 C1.708 14.659 -1.935 14.29 -6 14 C-8.438 13 -8.438 13 -10 12 C-10.507 9.213 -10.326 7.515 -8.805 5.109 C-4.671 0 -4.671 0 0 0 Z " fill="#495CA6" transform="translate(44,162)"/>
<path d="M0 0 C2.507 1.955 4.352 4.288 6 7 C6.125 9.812 6.125 9.812 5 12 C1.708 14.659 -1.935 14.29 -6 14 C-8.438 13 -8.438 13 -10 12 C-10.507 9.213 -10.326 7.515 -8.805 5.109 C-4.671 0 -4.671 0 0 0 Z " fill="#495CA6" transform="translate(220,158)"/>
<path d="M0 0 C2.5 1.5 2.5 1.5 4 3 C3.554 8.057 1.494 10.506 -2 14 C-6 14 -6 14 -7.703 12.645 C-11.916 7.655 -11.916 7.655 -12.375 4.062 C-12.251 3.382 -12.127 2.701 -12 2 C-8.256 -0.496 -4.349 -0.615 0 0 Z " fill="#495CA6" transform="translate(46,140)"/>
<path d="M0 0 C2.507 1.955 4.352 4.288 6 7 C6.125 9.812 6.125 9.812 5 12 C1.708 14.659 -1.935 14.29 -6 14 C-8.438 13 -8.438 13 -10 12 C-10.507 9.213 -10.326 7.515 -8.805 5.109 C-4.671 0 -4.671 0 0 0 Z " fill="#495CA6" transform="translate(44,98)"/>
<path d="M0 0 C2.5 1.5 2.5 1.5 4 3 C3.554 8.057 1.494 10.506 -2 14 C-6 14 -6 14 -7.703 12.645 C-11.916 7.655 -11.916 7.655 -12.375 4.062 C-12.251 3.382 -12.127 2.701 -12 2 C-8.256 -0.496 -4.349 -0.615 0 0 Z " fill="#495CA6" transform="translate(46,76)"/>
<path d="M0 0 C5.057 0.446 7.506 2.506 11 6 C11 10 11 10 9.645 11.703 C4.655 15.916 4.655 15.916 1.062 16.375 C0.382 16.251 -0.299 16.127 -1 16 C-3.34 12.344 -3.374 9.268 -3 5 C-1.5 2.062 -1.5 2.062 0 0 Z " fill="#4A5CA6" transform="translate(27,86)"/>
<path d="M0 0 C3.3 0 6.6 0 10 0 C10 1.32 10 2.64 10 4 C6.7 4 3.4 4 0 4 C0 2.68 0 1.36 0 0 Z " fill="#EE060C" transform="translate(125,176)"/>
<path d="M0 0 C3.3 0 6.6 0 10 0 C10 1.32 10 2.64 10 4 C6.7 4 3.4 4 0 4 C0 2.68 0 1.36 0 0 Z " fill="#797B81" transform="translate(105,176)"/>
<path d="M0 0 C3.3 0 6.6 0 10 0 C10 1.32 10 2.64 10 4 C6.7 4 3.4 4 0 4 C0 2.68 0 1.36 0 0 Z " fill="#797B81" transform="translate(89,176)"/>
<path d="M0 0 C1.65 0 3.3 0 5 0 C5 1.98 5 3.96 5 6 C3.35 6 1.7 6 0 6 C0 4.02 0 2.04 0 0 Z " fill="#28304C" transform="translate(239,86)"/>
<path d="M0 0 C1.32 0 2.64 0 4 0 C4 1.98 4 3.96 4 6 C2.02 6 0.04 6 -2 6 C-1.34 4.02 -0.68 2.04 0 0 Z " fill="#282F47" transform="translate(240,94)"/>
</svg>
